<svg xmlns="http://www.w3.org/2000/svg" role="img" xmlns:xlink="http://www.w3.org/1999/xlink" viewBox="-8.87 -15.62 168.99 253.24"><defs><path d="M35.95.65V0h-6.4l-.05.25L24.1.2l-1.9.3L20 .15h-5.75L4.6.45H4q-3.5.1-3.85 4L0 13.6v32q.25 5.5.85 8.9-.35.8-.35 1.95l.05.5q-.15.45-.15 1 0 1.4.95 2.35 1.9 1.9 7.1 1.25h22.7q2.35.15 3.6-1.1 1.15-.7 1.3-2.35-.25-3.25-.1-4.2V.65z" id="a"/><path d="M75.4 31.55h.05L75.4 16.5h-.3q-.4-4.85-4.1-9.4-1.8-2.25-4.45-3.05-19.2-5.9-39.95-3.2-8.95.9-17 5.15-5.95 3.1-9 9.2l-.25.45-.2.95q-.25.9-.1 1.85l.1 1.4V91.8l.25 3.15.05.15.7 1.3q1.05 1.25 3.1 1.3l11.45.9 49.85-.25q7.5.65 10.05-.65V84.35l-.15-.5v-6.2l-.05-46.1z" id="b"/><path d="M44.8 28.4q.3-9.1-2-17.9-1.55-6.1-7.1-9.1-11.65-4.05-20.5 3.75-.95.8-1.55 2.1Q8.55 17.6 9.5 29.3 3.25 36.55 0 45.55q3.5 14 17.9 15.15 9.25.75 14.85-7.7 2.7-4.05 5.75-7.95 5.95-7.55 6.3-16.65z" id="c"/><path d="M28.55 30.4q3.5-2.1 4.95-6.1 2.5-7.05-3.45-17Q25.2-.85 16.45.1 11.8.65 7 3.5.95 7.1.1 13.85q-.75 6.15 3 11.8 3.9 5.9 10.3 7.5 7.35 1.9 15.15-2.75z" id="d"/><path d="M135.4 28.55l-6.35-8.05-3.1-3.2q-4.25-3.65-10.25-6.2-.75-1.35-8.35-4.35-7.6-3-15.9-5.55-8.3-2.6-28.65.4Q28 6.7 11.55 34.55 0 54.05 0 77.4q0 54.45 71.75 66.7H88q5.45-1.35 10.3-3.05 28.3-9.65 39.15-31.15 4.7-9.35 6.3-21.3l2.15-14.95q1.1-7.8-1.7-22.6-2.85-14.85-8.8-22.5z" id="f"/><path d="M-11-12.65q-5 4.25-6.9 9.45-1.05 2.85-1 5.8 0 3.1 1.2 5.75 1.15 2.6 3.4 4.65 2.15 2 4.9 3.15 5.1 2.1 11.5 1.35l3.85-.85q2.15-.75 5.05-2.9 2.65-2.1 4-3.65 1.6-1.85 2.45-3.8.8-2 1.15-4.55 1.1-6.95-1.4-11.4-1.6-2.9-4.85-4.9-2.85-1.8-6.55-2.6l-5-.55q-6.1.3-11.8 5.05z" id="g"/><path fill="#FFF" d="M13.15-1.2q-.5-.8-2-.9l-1.85.2-1.3.8-8.8 6.4-1.85 1.75-1.1 1.55q-.55 1.3.2 2.5.75 1.25 2.2 1.1l1.6-.6 2.9-2.1L4.9 8.45q1.45-.9 3.9-3.35L11.5 3q1.45-1.4 1.8-2.85.1-.85-.15-1.35z" id="h"/><path fill="#FFF" d="M4.6-1.15l-.4-.8-.6-.95Q2.65-4 1.25-4.3l-2.7.15-1.95 1-.6.5q-.55.6-.65 1.95-.2 1.35.05 2l.4.7.75 1.15 1.4.9 1.55.35q1.15.2 1.95 0Q3 4 4.15 1.9 5 .15 4.6-1.15z" id="i"/><path fill="#FFF" d="M21.7 2.5l-.8-.45-.55-.5Q18.5.2 15.5 0q-5.45-.25-9.55 3.1Q4.4 4.4 2.8 6.65 1 9.1.4 11.35.1 12.6 0 15.2q0 2.35.35 3.45.6 2.2 2.55 3.95 1.8 1.55 4.2 2.15l3.45.6q5.75.65 8.7-.65l3-2q3.1-2.5 3.85-4.65.55-1.45.45-4.3l.1-2.05L26 9.4l-1.65-3.85q-1.1-2-2.65-3.05z" id="j"/><path fill="#FFF" d="M70.1 6.6q-1.7-3.95-8.7-5.35Q55.4.1 45.55 0L25.7.9Q15.05 2.2 6.6 5.55 2.5 7.1 1.1 9.3-.25 11.5.05 15.45q.2 2.8 1 4.15 1.7 2.75 7.4 3.45 11.6 1.5 26-.05 9.3-1 25.85-4.2 4.1-.8 5.85-1.85 3.15-1.85 4.15-5.2.85-2.8-.2-5.15m-8.9 1q1.3.1 2.15.65.9.5.9 1.2 0 .5-.5 1-1.05 1.1-2.9 1.6l-3.4.5-17.9 1.4-13.7.95q-7.6.3-13.7-.1l-3.4-.3q-1.6-.2-1.75-1.15-.1-.85 1.3-1.5 3.25-1.45 7.6-2.25l7.85-1.05 7.45-.6 6.15.15L45 7.95l13.9-.4 2.3.05z" id="k"/><path id="e" fill="none" stroke="#000" stroke-linecap="round" stroke-linejoin="round" stroke-width="3" d="M28.55 30.4q-7.8 4.65-15.15 2.75-6.4-1.6-10.3-7.5-3.75-5.65-3-11.8Q.95 7.1 7 3.5 11.8.65 16.45.1q8.75-.95 13.6 7.2 5.95 9.95 3.45 17-1.45 4-4.95 6.1z"/></defs><use xlink:href="#a" transform="matrix(.88165 0 0 .82104 37.3 182.35)"/><use xlink:href="#b" transform="rotate(5.975 -1028.423 444.255) scale(.92217)"/><use xlink:href="#a" transform="matrix(.88165 0 0 .82104 73.85 182.1)"/><use xlink:href="#c" transform="rotate(-29.765 323.225 -86.124) scale(.75353)"/><g transform="matrix(-.35156 .85248 -.85248 -.35156 132.9 176.85)"><use xlink:href="#d"/><use xlink:href="#e"/></g><use xlink:href="#c" transform="matrix(-.11028 .7454 -.72919 -.10788 54.3 126.7)"/><g transform="matrix(-.0685 .91962 .91962 .0685 -1.3 107.2)"><use xlink:href="#d"/><use xlink:href="#e"/></g><use xlink:href="#f" transform="rotate(14.42 62.69 105.108) scale(.99998)"/><use xlink:href="#g" transform="rotate(14.42 -1.002 206.328) scale(.99998)"/><use xlink:href="#h" transform="rotate(14.42 -1.002 206.328) scale(.99998)"/><use xlink:href="#i" transform="rotate(14.42 -9.293 165.526) scale(.99998)"/><use xlink:href="#i" transform="rotate(14.42 28.009 235.697) scale(.99998)"/><g><use xlink:href="#j" transform="rotate(28.418 -61.153 118.238) scale(.96466)"/></g><g><use xlink:href="#j" transform="rotate(28.418 -89.17 247.839) scale(.96466)"/></g><g><use xlink:href="#k" transform="matrix(.77594 .41985 -.4759 .87946 39.95 73.05)"/></g></svg>