<svg xmlns="http://www.w3.org/2000/svg" role="img" xmlns:xlink="http://www.w3.org/1999/xlink" viewBox="-14.02 -7.52 172.04 209.04"><defs><g id="a"><path d="M11.6-22.95q1.1-1.5-.65.8l.65-.8M4.85-27.5l-.6-.05-13.3 3.75-9.1 4.35q-1-.85-1.85-.75-1.3.25-1.75 2.8-.5.55-.3 1.35l.15.3-.05 3.3 8.55 30.35.4 1.8 1.45 4.85.15-.05.05.4.95 2.4q1.55 1.8 5.4.7 2.2-.6 2.15-.85l22.35-6.6q1.5-1.1 2.2-2.65.6-1.5.3-2.6-.2-.7-.8-1.3l-6.75-24-2.05-7.7-1.45-4.45q-3.85-5.15-3.2-5.4Q6.6-28.6 5.7-28.3q-.5.15-.85.8m-.25 8l.95 3.9L8-7.5l5.8 20.55-18.9 5.05-.15-.6-.3-1.05-.25-.25-8.55-30.3-.25-.4L.9-18.9l3.7-.6z"/><path fill="#F0E3DC" d="M5.55-15.6l-.95-3.9-3.7.6-15.5 4.4.25.4 8.55 30.3.25.25.3 1.05.15.6 18.9-5.05L8-7.5l-2.45-8.1z"/></g><g id="c"><path d="M-4.3-31.35q-15.05.3-21.5 13.25-6.9 13.75 2.1 26.5.95 1.4 2.3 2.35l7.7 12.05 1 1.95 3.25 4.85.2-.15.2.45 1.85 2.35q2.5 1.45 7-1.35 2.55-1.65 2.35-1.9l25.7-16.7q1.55-2 1.95-4.05.35-1.9-.4-3.05l-.3-.35q0-1.85-1.4-4-1.75-2.55-2.9-5.35-5.95-9.2-13-17.5-6.5-7.8-16.1-9.35m-8.25 12.15q3.25-2.3 7.35-2.25 5.15 1.9 9.4 5.15l.2.2.85 1.2 13.3 20.95-21.9 13.6-.4-.6-.65-1.1-.35-.2L-15.9.2l-.25-1.1-.1-.25-.2-.5q-.9-3.15-1.4-6.4-.5-3.6.8-6.5 1.05-1 1.35-1.9 1.35-1.6 3.15-2.75m-21.15 1.85q-.85.75-.85 2.7l.85-2.7z"/><path fill="#ABABAB" d="M-5.2-21.45q-4.1-.05-7.35 2.25-1.8 1.15-3.15 2.75-.3.9-1.35 1.9-1.3 2.9-.8 6.5.5 3.25 1.4 6.4l.2.5.1.25.25 1.1 11.15 17.55.35.2.65 1.1.4.6 21.9-13.6L5.25-14.9l-.85-1.2-.2-.2q-4.25-3.25-9.4-5.15z"/></g><g id="d"><path d="M22.4-21.7l-.05 1.25.05 1.4v-2.65m-2.15-4.45V-36.6h-7.6l-.05.3-6.35-.05L4-36l-2.65-.4-6.8-.05-11.45.35h-.7q-4.2.15-4.6 4.8l-.15 10.85.05 2.5v22.3l-.05 4v16.9l.15 2.15h.8l.1.65q-.45.95-.45 2.3l.05.6-.2 1.2q0 1.65 1.15 2.75 2.3 2.25 8.45 1.5h26.9q2.75.2 4.25-1.3 1.35-.85 1.55-2.8-.3-3.75-.15-4.9v-53.55m-7.55 42.4l-4.4.1-21.85.15v-29.4l.05-3.2-.05-3.2v-1.75h.1l.05-6.8 4.2-.2 21.9-.1v44.4z"/><path fill="#F0E3DC" d="M8.3 16.35l4.4-.1v-44.4l-21.9.1-4.2.2-.05 6.8h-.1v1.75l.05 3.2-.05 3.2v29.4l21.85-.15z"/></g><g id="f"><path d="M21.25-27.35q-.15-1.1.15-4.95-.2-1.95-1.55-2.8-1.5-1.5-4.25-1.3h-26.9q-6.15-.75-8.45 1.5-1.15 1.1-1.15 2.75l.2 1.2-.05.6q0 1.35.45 2.3-.7 3.75-1 9.55v41.45l.1 8.35q.4 4.65 4.6 4.8h.7l11.45.35 6.8-.05L5 36l2.25.35 6.35-.05.05.3h7.6v-63.95m-7.55.95v54.55l-21.9-.1-4.2-.2-.15-15.6v-40.2L13.7-26.4z"/><path fill="#F0E3DC" d="M13.7 28.15V-26.4l-26.25-1.55v40.2l.15 15.6 4.2.2 21.9.1M2.45 11.5q2.6-3.65 5.15-4.95-.6 3.15-2.4 6.9 3.5 2.6 4.55 4.25l-.55 1q-.55.85-1.6.85-1.5 0-4.75-1.85Q.8 20.9-1.3 22.75l-1.1-.35q-.35-.25-.35-1.3l2.55-5.25q-4.75-3.35-5.7-7.1h1.85q2.4 0 6.5 2.75z"/><path fill="#B3AAA4" d="M7.6 6.55q-2.55 1.3-5.15 4.95-4.1-2.75-6.5-2.75H-5.9q.95 3.75 5.7 7.1l-2.55 5.25q0 1.05.35 1.3l1.1.35Q.8 20.9 2.85 17.7q3.25 1.85 4.75 1.85 1.05 0 1.6-.85l.55-1Q8.7 16.05 5.2 13.45 7 9.7 7.6 6.55z"/></g><g id="h"><path d="M16.1 19.05q4.9-2.95 6.95-8.6 3.5-9.9-4.85-23.9Q11.4-24.9-.9-23.55q-6.55.75-13.3 4.8-8.5 5.05-9.7 14.5-1.05 8.65 4.2 16.65 5.5 8.3 14.5 10.55 10.3 2.65 21.3-3.9M5.6-14.4q4.9 2.9 9 9.75 2.2 3.7.6 9.65-1.65 6.35-6.45 9.2-7.05 4.2-14.6 0-5.3-2.95-8.1-7.6Q-16.7 1.95-16-3.6q.8-6.6 6.7-10.15 7.85-4.65 14.9-.65z"/><path fill="#F0E3DC" d="M14.6-4.65q-4.1-6.85-9-9.75-7.05-4-14.9.65Q-15.2-10.2-16-3.6q-.7 5.55 2.05 10.2 2.8 4.65 8.1 7.6 7.55 4.2 14.6 0 4.8-2.85 6.45-9.2 1.6-5.95-.6-9.65z"/></g><g id="j"><path d="M48.4-58.3l-5.85.3q-2.15-.3-5.15-.05h-.6v-.1l-14.45.05H19.8l-35.45-.05h-20.5l-10.1-.05q-2.25.7-3.45 1.95l-.2.25q-2.2 1.95-2.2 4.6l.25 2.65q.15 1.85-.1 2.9v96.2l.3 3.8.05.15.85 1.55q1.25 1.5 3.7 1.55 3.85.95 10.85 1.1l73-.05v-.2l1.85-.05q13.1 1.05 13.45-2.8.3-3.9-.65-4.9v-1.35q0-4.95-1.05-8.2V33.6l-.2-88.9q1.4-2.65-1.8-3m-11.6 9.15v-.1h.6l3.4.05-.05 53.9V27.9h-.05v3.2l-3.9.1v.5H24.85L2.5 31.65l-7.45.05H-36.2v.05l-5.7.1V-45.2l-.35-3.9 79.05-.05m3.9 86.45l-.05 6v1.05h.4l.5 4.05-2.9.1H36.8v-.2l-66.9-.05h-6.1l-3.85-.05-1.85-.15v-11.5l5.7.1v.05h34.25l6.7.05 20.1-.05H36.8v.55l3.9.05z"/><path fill="#403838" d="M40.65 43.3l.05-6-3.9-.05v-.55H24.85l-20.1.05-6.7-.05H-36.2v-.05l-5.7-.1v11.5l1.85.15 3.85.05h6.1l66.9.05v.2h1.85l2.9-.1-.5-4.05h-.4V43.3z"/><path fill="#9F9F9F" d="M36.8-49.25v.1l-79.05.05.35 3.9v77.05l5.7-.1v-.05H-4.95l7.45-.05 22.35.05H36.8v-.5l3.9-.1v-3.2h.05V4.7l.05-53.9-3.4-.05h-.6z"/></g><path fill="#454545" d="M28.1 23.05l-.5-1.9-.05-.15v-2.25q-.3-1.15-1.7-1.6l-2.35.05-2.3.75-2.8.45-2.85.3q-1.3.3-1.85.7-.9.65-1.05 2-.15.75.05 2.3l.55 3 .3 1.15L6.5 29.4q-1.95.5-2.55 1.1-1.1 1.1-.8 3.05l.4 1.6.5 1.5q.55 1.75 1.1 6.3.8 5.55 3.5 15.5.4 1.7 1.15 2.4 1 .95 3.25.85l4.1-.55 4.05-.9q4.95-1 12.85-1.45l2.7-.4q1.55-.5 2.05-1.7.35-.9-.1-3.05-.45-2.2-.55-6l-.35-6.05-1.1-5.45q-.75-3.5-.95-5.5l-.45-3.05q-.45-1.7-1.55-2.4-1.2-.8-3.75-.5l-1.8.25-.1-1.9m-4.9-.65l-.25 1.1q-.3.85-.25 2.4l-3.35.7v-.1l-.3-1.3-.4-1.05q-.2-.6-.1-1.1l4.65-.65M11.8 44.7l-.55-4.05 2.3-.1 4.1-.5 9-1.35 2.5-.5q1.1-.35 1.6-.8l.15-.15.1.3q2.05 7.2 1.9 15.05-6.55.25-18.5 2.5l-1.3-5.2-1.3-5.2m1.8-7.55l-1.95.1-1 .05-.35-2.1 10.5-2.45q5.2-1.2 8.7-1.25.15 1.2.6 2.85l-.7-.15-2.7.5-4.15.9-8.95 1.55z" id="l"/><g id="m"><path d="M1.8-16.85v-1.25h-.05l.05 1.25m-43.35-4.1l.3 4.1.05.95.05.35q-.1 1.05-.35 1.85v11.05q0 5.65.45 8.1.45 2.4 1 9.25t6.6 12.9q6 6.05 15.35 5.5l22.85.15 10.85.05 1.6 1.25V33.2h1.9q10.45 0 15.15-9.9 2.8-5.95 2.8-12.5l-.15-7.9q-.65-5.8-3.4-9.35-2.75-3.5-7.5-4.85-2.9-2.55-12.05-1.95l-1.4.1-7.8.05v.05H2l-.15-.15-.05-2.3v-1.35l-.05-1.25L1.3-22q.5-.85.5-1.9l-.1-1.4.25-1.7q0-4.45-4.1-4.45l-1.35.15-9.95-.35H-36.7q-2.45.75-3.4 1.85-.9 1-.9 2.55l.5 2q-1.05 1.75-1.05 4.3m8.4 8.95l.1-3.5h.25l.15-1.35.2-1.25 1.25-4.9h17.75q4.5.3 7.55 0l.1.65.15.3-.4 3.95-.05 1.25-.05.7v.65l.05 3.75.1.7-.3 1.75.45 2.2q1.15 2.5 4.3 2.5h.4l1.65.25 4.25.05v.05l11.85.1 4.55 1.35q6.8 2.2 6.8 9.7 0 5.6-.65 7.7-1.15 3.65-5.85 9l-4.65.25H-6.75q-15.05 2.2-21.3-3.9t-5.5-12.6q.5-12.9.4-19.35z"/><path fill="#FFF" d="M-33.05-15.5l-.1 3.5q.1 6.45-.4 19.35-.75 6.5 5.5 12.6t21.3 3.9H16.8l4.65-.25q4.7-5.35 5.85-9 .65-2.1.65-7.7 0-7.5-6.8-9.7L16.6-4.15l-11.85-.1v-.05L.5-4.35l-1.65-.25h-.4q-3.15 0-4.3-2.5l-.45-2.2.3-1.75-.1-.7-.05-3.75v-.65l.05-.7.05-1.25.4-3.95-.15-.3-.1-.65q-3.05.3-7.55 0H-31.2l-1.25 4.9-.2 1.25-.15 1.35h-.25z"/></g><g id="o"><path d="M7.45-34.45q-2.65-2.7-6.3-3.25-3.5-.55-6 1-2.7 1.65-2.5 4.75.1 2.3 1.3 3.35l.25.15-2.05 5.5q-2.3 7.15-5.6 20.8-1.85 5.9-5.4 19.65-3.95 14.65-3.85 15.95.05 1.5 1.4 2.8 1.75 1.9 5.05 1.55h33.5q2.75.05 3.9-1.95.65-1.05.8-2l.25-.15.3-.35.25-.5v-.95q-.25-4.55-4.35-21.2L13.9-6.95l-1.85-9.85Q11-22.45 10.8-26.35q-.45-5-3.35-8.1m-6.7 7.2l.9-.1q2.4 9.65 8.45 37.9 3.1 12.5 6 18.35l-28.6-.2q1-5 8.2-34.65Q-.75-20.3.75-27.25z"/><path fill="#9F9F9F" d="M1.65-27.35l-.9.1Q-.75-20.3-4.3-5.95q-7.2 29.65-8.2 34.65l28.6.2q-2.9-5.85-6-18.35-6.05-28.25-8.45-37.9z"/></g><g id="p"><path d="M170.45 97.25q1.15-7.85 1.15-20.75 0-6.05-4-22.75-4.05-16.9-6.35-20l-8.2-11.25q-5.25-5.7-13.9-9.5l-1.95-.85q-.9-1.4-9.9-4.75-9-3.3-18.85-6.1-9.85-2.85-33.95.45-41.3 5.6-60.8 36.15Q5.75 50.35 2.4 64.25 0 74.25 0 84.95 0 95 2.4 103.75q7.1 25.75 35.05 40.1Q51.7 151.2 71.4 155.6l13.7 2.6h19.25l9.95-2.6q14.2-4.25 24.85-10.7l1.6-1.05q14.65-9.35 22.2-23.2 5.6-10.3 7.5-23.4m-31.3-72.35q6.55 5 11.25 11.85 7.35 10.65 11 34.35l-.35-.65.2 6.1q0 22-7.25 37.7-5.6 12.15-14.85 19.95-7.4 6.2-17.15 9.65-12 4.3-27.6 4.3-18.8 0-33.5-4.3-23.65-6.8-36.75-24.55-7.05-9.6-10.3-21.45-2-7.45-2-12.9 0-7.6 3.85-22.5h-.35Q17.3 56.4 20.4 50.7q.35-1.25 2.55-4.2l.1-.2q1.15-2.15 2.35-3.55 17.05-23.7 52.45-31.35l11.8-.45 3.3-.4q4.9-.25 9.55 1.6l.05-.55q22.5 2.45 36.6 13.3z"/><path fill="#F0E3DC" d="M150.4 36.75q-4.7-6.85-11.25-11.85-14.1-10.85-36.6-13.3l-.05.55q-4.65-1.85-9.55-1.6l-3.3.4-11.8.45q-35.4 7.65-52.45 31.35-1.2 1.4-2.35 3.55l-.1.2q-2.2 2.95-2.55 4.2-3.1 5.7-5.05 11.75h.35q-3.85 14.9-3.85 22.5 0 5.45 2 12.9 3.25 11.85 10.3 21.45 13.1 17.75 36.75 24.55 14.7 4.3 33.5 4.3 15.6 0 27.6-4.3 9.75-3.45 17.15-9.65 9.25-7.8 14.85-19.95 7.25-15.7 7.25-37.7l-.2-6.1.35.65q-3.65-23.7-11-34.35M19.1 84.15q0-1.7.8-4.7.9-3.15 1.9-4.85 2.75-4.55 3.35 7l.75 6.65q2.9.2 5.9 1.45-1.2 1.9-5.35 3.5l.65 8.5q0 1.65-.35 2.5-.7 1.55-2.7 1.55-2.8 0-4.15-10.8l-.8.05q-2.05 0-2.65-1.3l-.25-1.35q0-2.1 3.15-3.2l-.25-5z"/><path fill="#B3AAA4" d="M19.9 79.45q-.8 3-.8 4.7l.25 5q-3.15 1.1-3.15 3.2l.25 1.35q.6 1.3 2.65 1.3l.8-.05q1.35 10.8 4.15 10.8 2 0 2.7-1.55.35-.85.35-2.5l-.65-8.5q4.15-1.6 5.35-3.5-3-1.25-5.9-1.45l-.75-6.65q-.6-11.55-3.35-7-1 1.7-1.9 4.85z"/></g><path d="M12-5.25Q7.05-8.1.05-8.05-7.1-8-11.95-5q-5.45 3.4-5.45 9.15 0 1.15.4 2.05.85 1.75 2.95 1.75.75 0 1.85-.8l2.5-1.75q4.2-2.55 10.75-2.55 2.85 0 6.3 2.65 3.45 2.6 5.15 2.6 2.7 0 4-1.9.95-1.35.95-3.05 0-5.25-5.45-8.4z" id="r"/><g id="s"><path d="M-22.85-26.5q-3.85-.35-5.85 1-1.35 1.05-2.65 3.65-4.1 8.7-3 18.85 1.1 10.05 6.95 17.6 3.1 3.95 6.2 5.95 2.8 1.75 7.75 3.45 7.4 2.2 15.15 2.5l8.05-.55q5.3-1.2 10.4-4.7 11.8-7.9 14-18.95.45-2.75.45-8.4 0-3.6-1-4.95-1.05-1.75-4.75-2.85l-13.7-3.55-13.8-3.2-12.05-3.55q-7.05-1.9-12.15-2.3m.75 19.75q-.2-4.1 1.05-7.05l3.75.75 1.75.45-.2.45-.25.65-1.1 4.4.2 2.45-3.75-1.55-1.45-.55m16.6 5.3q.75-3.1.9-6.6V-9.7l3.65 1q12.5 3.7 20.2 3.85 1.8 0 2.35.75.45.45.45 2Q21.8.1 21 2.2q-.65-.55-.65 0 0 .45-5.85 1.55-5.95 1.1-12.95-2l-7.05-3.2z"/><path fill="#FFF" d="M-4.6-8.05q-.15 3.5-.9 6.6l7.05 3.2q7 3.1 12.95 2 5.85-1.1 5.85-1.55 0-.55.65 0 .8-2.1 1.05-4.3 0-1.55-.45-2-.55-.75-2.35-.75Q11.55-5-.95-8.7l-3.65-1v1.65m-16.45-5.75q-1.25 2.95-1.05 7.05l1.45.55 3.75 1.55-.2-2.45 1.1-4.4.25-.65-.05-.1-1.5-.8-3.75-.75z"/></g><g id="t"><path d="M-14.95 43.45q-.5-3.1-.5-1.8l.5 1.8m45.2-71.2q-1.2-1.9-3.5-1.9H9.9v-5.05l-.1-4.75-.4-2.15v-.4q0-3.35-11.25-3.35-8.75 0-10.65 2.05-2.15.95-2.15 5l.2 2.8v5.85H-26.4l-2.45 1q-3.9-.35-3.9 30.4V13.7q.3 5.1 1.15 8.05l.7 1.85v.2q0 2.2 2.9 3.2 3.75 1.25 13.7 1.35.1 7-.65 15.1 1.55 1.95 6.5 1.95l14.65-.95q5.75-1 5.75-2.8 0-1.05-1.5-1.85l.1-.8v-4.3l-.05-6.35h15.6q2.2.05 3.55-1.75l.95-1.9q1.45-1.8 1.9-6.9V9.5q.45-8.3.2-16.55-.35-10.95-2-16.6.35-.75.35-1.65 0-1.15-.8-2.45M4.95-35.2v5.55H-7.8v-6.05q.15-1.05.15-2.5v-.75l5.8.25 6.7-.3.1 3.8M9.9-4.3v-16.85h15.65Q24.05-15.5 24-6.5q0 8.05.85 15.75l.05 8 .2 1.85H10.4L9.9-4.3M4.95-21.15V-4.3L4.5 19.1H-7.9q-.25-17.85.1-24.4v-15.85H4.95m-29.1 7.3q-.25-4.25-.8-7.3h10.5v16.5q.35 6.45.2 23.8l-8.2.45q-.2-2.7-1.7-3.75l.1-1.45V1.7l-.1-15.55m22.4 51.55l-6.7.35q.45-3.8.55-9.7H4.4l-.1 6.4v3.35l-6.05-.4z"/><path fill="#FFF" d="M-8.45 38.05l6.7-.35 6.05.4v-3.35l.1-6.4H-7.9q-.1 5.9-.55 9.7M4.95-4.3v-16.85H-7.8V-5.3q-.35 6.55-.1 24.4H4.5l.45-23.4m0-25.35v-5.55l-.1-3.8-6.7.3-5.8-.25v.75q0 1.45-.15 2.5v6.05H4.95z"/><path fill="#C8C8C8" d="M-24.95-21.15q.55 3.05.8 7.3l.1 15.55v12.7l-.1 1.45q1.5 1.05 1.7 3.75l8.2-.45q.15-17.35-.2-23.8v-16.5h-10.5m34.85 0V-4.3l.5 23.4h14.7l-.2-1.85-.05-8Q24 1.55 24-6.5q.05-9 1.55-14.65H9.9z"/></g><g id="v"><path d="M16.8 10.75q.15-1.45-1-2.3l.05-.3V7.75Q15.7 4.7 13.5 2.5 11.35.3 8.35.05 5.25-.2 3.2 1.9 1.15 4 .9 7.75v.4h.05L1 8.7q-.8.55-.95 1.7-.15 1.15.5 1.9.95 1.2 3.9 1.2l7.7-.05q2.15 0 3.2-.6 1.2-.75 1.45-2.1m-4.95-2.8v.2l-.35 1.6H5.4q-.35-.65-.4-1.6V8.1l-.05-.35q.35-3.4 3.45-3.2 3.35.2 3.45 3.2v.2z"/><path fill="#FFF" d="M11.85 8.15v-.4q-.1-3-3.45-3.2-3.1-.2-3.45 3.2L5 8.1v.05q.05.95.4 1.6h6.1l.35-1.6z"/></g><g id="w"><path d="M189.9 47.75q-5.2-12.45-13.3-23.7Q161.05 2.4 134.05 3.4q-3.4-.35-6.7.55-4.45 1.15-6.75 3.7-1.5-1.35-3.4-2.35Q103.8-2 88.35.75l-4.4.8Q68.35 4.1 55 11.35q-17.75 9.5-30.6 24.35l-.15.5-.15.5-1.4 1.5-.4.45-.5.5-.4.95-2.05 3.25q-.95 1.35-1.6 2.85l-.15.5-.5.5-.5.55-.15.5-.05.5-.05.5-.35.4-.45.55-.35.5-.15.55-.05.45-.1.55q-.75.55-1 1.45l-.75 1.9q-.65 1.05-.65 2.15l-.05.5-.45.45q-.85.85-.8 2.05.05.95-.65 1.55l-.35.45-.45 1.95-1.3 4.05q-.75 1.9-1.95 3.5l-.6.5-3.4.85q-.45.15-.85.35l-.55.5-.45.5-.35.55-.2.95q-.15.75 0 1.5l.25 1 .2.5 1 1 .5.45.9.6q27.05 7.7 53 .8 5.25-1.35 9.45-3.65-1.85 6.25-6.95 10.55l-.65 1.5-.75.95q-.35 1.25-.25 2.55.05 1 .45 2.05l1 .85 1.45 1.1q37.9.95 61.05-25.9 4.55-5.3 6.45-11.25 10.4 13.2 27.5 18.4 17.3 7 35.55 3.85.6-.5 1.25-.9l1.65-1.05.6-1.05.4-.5.15-.5-.25-6.55.2-.5-.05-.5-.05-.4q-.65-2.55-.85-5.15l-.15-3.45q-.05-5.6-2.1-10.9-.85-1.95-1.15-4.1m-6.1 11l.15 8.5q0 3.7 1.8 6.95l.15.2v.55Q163.25 77 142.1 64.6l-3.95-3.65-6.95-6.9-.45-.95-.3-.5-.55-.55-.25-.2-.15-.3-.8-.55-.25-.25-.05-.85-.85-.4-1.2-.5q-1.8.25-2.6 2.1l-3.05 7q-13.95 22.1-40.3 29.95-6.85 2.1-10.85 1.65l2.65-4.2q2.45-5.5 3.3-11.35l.5-1.55v-1l-.55-1.5-1.3-1.5-1.2-.4-1.4-.4-.45.05-2.45.75q-.8.55-1.1 1.25l-1.45.75q-3.15 1.65-6.5 2.85-21.8 5.15-44.35 1.85 3.95-10.7 8.6-21Q29.8 41.1 40.7 31.2 66.75 7.6 104.6 9.6l1.05.45q1.55.45 3 1.25l1.2.45 2.95 2.55q4.4 2.95 8.6 1.45h1.4q3.55-2.1 7.6-3.35 6.8-2.1 14.3-.3l.35.3.85.55q1.75.1 3.3.7 3.3 1.25 6.25 3.1l1.3.55q13.75 10.3 20.75 25.15 3.65 8.05 6.3 16.3z"/><path fill="#5E5752" d="M183.95 67.25l-.15-8.5q-2.65-8.25-6.3-16.3-7-14.85-20.75-25.15l-1.3-.55q-2.95-1.85-6.25-3.1-1.55-.6-3.3-.7l-.85-.55-.35-.3q-7.5-1.8-14.3.3-4.05 1.25-7.6 3.35h-1.4q-4.2 1.5-8.6-1.45l-2.95-2.55-1.2-.45q-1.45-.8-3-1.25l-1.05-.45q-37.85-2-63.9 21.6-10.9 9.9-16.85 23.1-4.65 10.3-8.6 21 22.55 3.3 44.35-1.85 3.35-1.2 6.5-2.85l1.45-.75q.3-.7 1.1-1.25l2.45-.75.45-.05 1.4.4 1.2.4 1.3 1.5.55 1.5v1l-.5 1.55Q74.65 80 72.2 85.5l-2.65 4.2q4 .45 10.85-1.65 26.35-7.85 40.3-29.95l3.05-7q.8-1.85 2.6-2.1l1.2.5.85.4.05.85.25.25.8.55.15.3.25.2.55.55.3.5.45.95 6.95 6.9 3.95 3.65q21.15 12.4 43.8 10.35v-.55l-.15-.2q-1.8-3.25-1.8-6.95z"/></g><path id="b" fill="none" stroke="#000" stroke-linecap="round" stroke-linejoin="round" stroke-width="3" d="M10.95-22.15l1.45 4.45 2.05 7.7 6.75 24q.6.6.8 1.3.3 1.1-.3 2.6-.7 1.55-2.2 2.65l-22.35 6.6q.05.25-2.15.85-3.85 1.1-5.4-.7l-.95-2.4-.05-.4-.15.05L-13 19.7l-.4-1.8-8.55-30.35.05-3.3-.15-.3q-.2-.8.3-1.35.45-2.55 1.75-2.8.85-.1 1.85.75l9.1-4.35 13.3-3.75.6.05q.35-.65.85-.8.9-.3 2.05.75-.65.25 3.2 5.4z"/><path id="e" fill="none" stroke="#000" stroke-linecap="round" stroke-linejoin="round" stroke-width="3" d="M20.25-28.45V27.4q-.15 1.15.15 4.9-.2 1.95-1.55 2.8-1.5 1.5-4.25 1.3h-26.9q-6.15.75-8.45-1.5-1.15-1.1-1.15-2.75l.2-1.2-.05-.6q0-1.35.45-2.3l-.1-.65h-.8l-.15-2.15V8.35l.05-4v-22.3l-.05-2.5.15-10.85q.4-4.65 4.6-4.8h.7l11.45-.35 6.8.05L4-36l2.25-.35 6.35.05.05-.3h7.6v8.15z"/><path id="g" fill="none" stroke="#000" stroke-linecap="round" stroke-linejoin="round" stroke-width="3" d="M21.4-32.3q-.2-1.95-1.55-2.8-1.5-1.5-4.25-1.3h-26.9q-6.15-.75-8.45 1.5-1.15 1.1-1.15 2.75l.2 1.2-.05.6q0 1.35.45 2.3-.7 3.75-1 9.55v41.45l.1 8.35q.4 4.65 4.6 4.8h.7l11.45.35 6.8-.05L5 36l2.25.35 6.35-.05.05.3h7.6v-63.95q-.15-1.1.15-4.95z"/><path id="i" fill="none" stroke="#000" stroke-linecap="round" stroke-linejoin="round" stroke-width="3" d="M16.1 19.05q-11 6.55-21.3 3.9-9-2.25-14.5-10.55-5.25-8-4.2-16.65 1.2-9.45 9.7-14.5 6.75-4.05 13.3-4.8 12.3-1.35 19.1 10.1 8.35 14 4.85 23.9-2.05 5.65-6.95 8.6z"/><path id="k" fill="none" stroke="#000" stroke-linecap="round" stroke-linejoin="round" stroke-width="3" d="M48.4-58.3q3.2.35 1.8 3l.2 88.9v7.35q1.05 3.25 1.05 8.2v1.35q.95 1 .65 4.9-.35 3.85-13.45 2.8l-1.85.05v.2l-73 .05q-7-.15-10.85-1.1-2.45-.05-3.7-1.55l-.85-1.55-.05-.15-.3-3.8v-96.2q.25-1.05.1-2.9l-.25-2.65q0-2.65 2.2-4.6l.2-.25q1.2-1.25 3.45-1.95l10.1.05h20.5l35.45.05h2.55l14.45-.05v.1h.6q3-.25 5.15.05l5.85-.3z"/><path id="n" fill="none" stroke="#000" stroke-linecap="round" stroke-linejoin="round" stroke-width="3" d="M4.75-13.1l7.8-.05 1.4-.1q9.15-.6 12.05 1.95 4.75 1.35 7.5 4.85 2.75 3.55 3.4 9.35l.15 7.9q0 6.55-2.8 12.5-4.7 9.9-15.15 9.9h-1.9v1.35l-1.6-1.25-10.85-.05-22.85-.15q-9.35.55-15.35-5.5-6.05-6.05-6.6-12.9-.55-6.85-1-9.25-.45-2.45-.45-8.1V-13.7q.25-.8.35-1.85l-.05-.35-.05-.95-.3-4.1q0-2.55 1.05-4.3l-.5-2q0-1.55.9-2.55.95-1.1 3.4-1.85h23.25l9.95.35 1.35-.15q4.1 0 4.1 4.45l-.25 1.7.1 1.4q0 1.05-.5 1.9l.45 3.9m.05 0v2.6l.05 2.3.15.15h2.75m-3-5.05l.05 1.25"/><path id="q" fill="none" stroke="#000" stroke-linecap="round" stroke-linejoin="round" stroke-width="3" d="M153.05 22.5l8.2 11.25q2.3 3.1 6.35 20 4 16.7 4 22.75 0 12.9-1.15 20.75-1.9 13.1-7.5 23.4-7.55 13.85-22.2 23.2l-1.6 1.05q-10.65 6.45-24.85 10.7l-9.95 2.6H85.1l-13.7-2.6q-19.7-4.4-33.95-11.75Q9.5 129.5 2.4 103.75 0 95 0 84.95q0-10.7 2.4-20.7 3.35-13.9 11.3-26.35Q33.2 7.35 74.5 1.75q24.1-3.3 33.95-.45 9.85 2.8 18.85 6.1 9 3.35 9.9 4.75l1.95.85q8.65 3.8 13.9 9.5z"/><path id="u" fill="none" stroke="#000" stroke-linecap="round" stroke-linejoin="round" stroke-width="3" d="M-14.95 43.45q.75-8.1.65-15.1-9.95-.1-13.7-1.35-2.9-1-2.9-3.2v-.2l-.7-1.85q-.85-2.95-1.15-8.05V1.75q0-30.75 3.9-30.4l2.45-1h11.95v-5.85l-.2-2.8q0-4.05 2.15-5 1.9-2.05 10.65-2.05Q9.4-45.35 9.4-42v.4l.4 2.15.1 4.75v5.05h16.85q2.3 0 3.5 1.9.8 1.3.8 2.45 0 .9-.35 1.65 1.65 5.65 2 16.6.25 8.25-.2 16.55v8.3q-.45 5.1-1.9 6.9l-.95 1.9q-1.35 1.8-3.55 1.75H10.5l.05 6.35V39l-.1.8q1.5.8 1.5 1.85 0 1.8-5.75 2.8l-14.65.95q-4.95 0-6.5-1.95l-.5-1.8q0-1.3.5 1.8z"/><path id="x" fill="none" stroke="#000" stroke-linecap="round" stroke-linejoin="round" stroke-width="2" d="M120.75 72.3Q97.6 99.15 59.7 98.2l-1.45-1.1-1-.85q-.4-1.05-.45-2.05-.1-1.3.25-2.55l.75-.95.65-1.5q5.1-4.3 6.95-10.55-4.2 2.3-9.45 3.65-25.95 6.9-53-.8l-.9-.6-.5-.45-1-1-.2-.5-.25-1q-.15-.75 0-1.5l.2-.95.35-.55.45-.5.55-.5q.4-.2.85-.35l3.4-.85.6-.5q1.2-1.6 1.95-3.5l1.3-4.05.45-1.95.35-.45q.7-.6.65-1.55-.05-1.2.8-2.05l.45-.45.05-.5q0-1.1.65-2.15l.75-1.9q.25-.9 1-1.45l.1-.55.05-.45.15-.55.35-.5.45-.55.35-.4.05-.5.05-.5.15-.5.5-.55.5-.5.15-.5q.65-1.5 1.6-2.85l2.05-3.25.4-.95.5-.5.4-.45 1.4-1.5.15-.5.15-.5Q37.25 20.85 55 11.35q13.35-7.25 28.95-9.8l4.4-.8Q103.8-2 117.2 5.3q1.9 1 3.4 2.35 2.3-2.55 6.75-3.7 3.3-.9 6.7-.55 27-1 42.55 20.65 8.1 11.25 13.3 23.7.3 2.15 1.15 4.1 2.05 5.3 2.1 10.9l.15 3.45q.2 2.6.85 5.15l.05.4.05.5-.2.5.25 6.55-.15.5-.4.5-.6 1.05-1.65 1.05q-.65.4-1.25.9-18.25 3.15-35.55-3.85-17.1-5.2-27.5-18.4-1.9 5.95-6.45 11.25z"/></defs><g transform="rotate(-45.14 209.701 -83.472) scale(.71122)"><use xlink:href="#a"/><use xlink:href="#b"/></g><use xlink:href="#c" transform="rotate(-23.165 318.453 -192.503) scale(.71121)"/><g transform="translate(54.7 170.45) scale(.71124)"><use xlink:href="#d"/><use xlink:href="#e"/></g><g transform="translate(91.8 170.45) scale(.71124)"><use xlink:href="#f"/><use xlink:href="#g"/></g><g transform="rotate(-104.846 120.37 15.323) scale(.71118)"><use xlink:href="#h"/><use xlink:href="#i"/></g><use xlink:href="#c" transform="matrix(-.7103 .03662 .03662 .7103 40.4 116.55)"/><g transform="matrix(.7103 -.03662 .03662 .7103 71.7 133.85)"><use xlink:href="#j"/><use xlink:href="#k"/></g><use xlink:href="#l" transform="matrix(.7103 -.03662 .03662 .7103 55.15 111)"/><g transform="rotate(-2.951 2871.032 -849.538) scale(.71124)"><use xlink:href="#m"/><use xlink:href="#n"/></g><use xlink:href="#o" transform="matrix(.7103 -.03662 .03662 .7103 42.8 143.8)"/><g transform="rotate(-10.419 119.53 56.512) scale(.71122)"><use xlink:href="#p"/><use xlink:href="#q"/></g><use xlink:href="#r" transform="matrix(.6995 -.12863 .12863 .6995 32.3 62.5)"/><use xlink:href="#s" transform="matrix(.74156 -.13635 .10995 .598 68 92.4)"/><g transform="matrix(.4409 -.37549 .37549 .4409 92.75 59.75)"><use xlink:href="#t"/><use xlink:href="#u"/></g><use xlink:href="#v" transform="rotate(-10.419 416.688 -88.358)"/><g transform="rotate(-10.419 63.134 111.085) scale(.71122)"><use xlink:href="#w"/><use xlink:href="#x"/></g></svg>