<svg xmlns="http://www.w3.org/2000/svg" role="img" xmlns:xlink="http://www.w3.org/1999/xlink" viewBox="-30.97 -26.97 263.18 349.18"><defs><g id="Symbol_61_0_Layer0_0_FILL"><path d="M 50.8 6.15 L 50.9 5.5 50.9 5.4 43.65 4.25 43.55 4.5 37.5 3.5 35.25 3.5 Q 33.85 3.25 32.8 2.65 L 26.4 1.55 Q 19 -0.05 15.35 0.15 L 14.7 0.05 Q 10.7 -0.45 9.6 3.85 L 7.75 14.2 4.5 34.25 1.85 50.35 Q 1.15 56.7 1.25 60.65 0.7 61.5 0.5 62.75 L 0.45 63.35 0.05 64.45 Q -0.2 66 0.7 67.25 2.5 69.8 8.5 70 L 34.2 74.15 Q 36.8 74.8 38.5 73.6 39.85 73 40.35 71.2 40.65 67.5 41 66.4 L 49.3 15.35 49.65 13.2 50.8 6.15 M 14.85 23.4 L 17.45 8.55 21.5 9 42.4 12.3 36.7 47.25 32.5 46.65 11.65 43.4 14.85 23.4 M 31.75 51.15 L 35.95 52 33.7 65.7 33.75 65.85 9.8 61.95 8.85 61.8 8.65 61.3 8.75 61 10.95 47.6 31.75 51.15 Z"/><path fill="#333" d="M 35.95 52 L 31.75 51.15 10.95 47.6 8.75 61 8.65 61.3 8.85 61.8 9.8 61.95 33.75 65.85 33.7 65.7 35.95 52 Z"/><path fill="#999" d="M 17.45 8.55 L 14.85 23.4 11.65 43.4 32.5 46.65 36.7 47.25 42.4 12.3 21.5 9 17.45 8.55 Z"/></g><g id="Symbol_63_0_Layer0_0_FILL"><path d="M 49.1 1.4 L 49.1 0.75 49.1 0.65 41.75 0.65 41.7 0.95 35.55 0.9 33.35 1.25 30.8 0.85 24.25 0.8 13.15 1.15 12.5 1.15 Q 8.45 1.3 8.05 5.75 L 7.9 16.25 7.9 36.55 7.9 52.9 Q 8.2 59.25 8.9 63.15 8.5 64.05 8.5 65.35 L 8.55 65.95 8.35 67.1 Q 8.35 68.7 9.45 69.75 11.65 71.95 17.6 71.2 L 43.6 71.2 Q 46.3 71.4 47.75 69.95 49.05 69.15 49.25 67.25 48.95 63.55 49.1 62.45 L 49.1 10.75 49.1 8.55 49.1 1.4 M 41.8 8.8 L 41.8 44.2 37.55 44.3 16.4 44.45 16.4 24.2 16.55 9.1 20.6 8.9 41.8 8.8 M 16.4 48.7 L 37.55 48.85 41.8 49.05 41.8 62.9 41.85 63.05 17.6 63.05 16.6 63.05 16.35 62.6 16.4 62.3 16.4 48.7 Z"/><path fill="#333" d="M 37.55 48.85 L 16.4 48.7 16.4 62.3 16.35 62.6 16.6 63.05 17.6 63.05 41.85 63.05 41.8 62.9 41.8 49.05 37.55 48.85 Z"/><path fill="#FFF" d="M 41.8 44.2 L 41.8 8.8 20.6 8.9 16.55 9.1 16.4 24.2 16.4 44.45 37.55 44.3 41.8 44.2 Z"/></g><g id="Symbol_65_0_Layer0_0_FILL"><path d="M 32.9 7.35 Q 31.5 3.75 27.9 2.15 15.4 -3.55 5.15 5.9 2.35 10.3 1.45 15.65 -0.5 27.55 0.15 39.5 0.7 49.8 9.85 54.7 22.75 61.7 31.2 53.25 33.85 50.65 35.25 46.5 36.05 44.15 36.3 41.8 L 37.3 27.35 Q 37.85 17.45 32.9 7.35 M 25.65 9.15 Q 28.9 14.2 28.9 16.5 L 29.35 30.9 Q 29.65 36.9 28.25 43.3 25.95 49.75 22 50.15 L 14.2 48.85 Q 10.75 48.15 8.85 44.95 8.05 40.9 7.75 36.85 6.8 23.5 10.75 10.6 12.55 8.45 15.3 7.65 19.65 6.35 23.9 8 L 25.65 9.15 Z"/><path fill="#999" d="M 28.9 16.5 Q 28.9 14.2 25.65 9.15 L 23.9 8 Q 19.65 6.35 15.3 7.65 12.55 8.45 10.75 10.6 6.8 23.5 7.75 36.85 8.05 40.9 8.85 44.95 10.75 48.15 14.2 48.85 L 22 50.15 Q 25.95 49.75 28.25 43.3 29.65 36.9 29.35 30.9 L 28.9 16.5 Z"/></g><g id="Symbol_67_0_Layer0_0_FILL"><path d="M 49.9 42.25 Q 52.2 34.6 53 32.55 L 55.55 25.4 57.9 19.1 59.75 13.9 Q 61.6 9.2 58.6 7.45 32.35 -6.5 2 5.75 -1.65 7.35 1.2 13.65 L 3.15 19.1 5.5 25.4 8.05 32.55 11.2 42.45 Q 6.4 49.1 6.5 57.7 6.55 66.25 14.25 73.15 21.95 80.05 31.35 78.95 40.7 77.8 46.95 72.3 53.15 66.8 54.75 59.8 56.35 52.75 49.9 42.25 M 51.1 12.5 Q 51.45 12.5 51.15 14.25 50.8 16 48.65 21.6 L 43.05 35.85 Q 37.2 32.4 29.6 32.75 23.1 33.05 18.15 36.05 L 14.25 26.25 10.3 14.35 10.05 12.95 Q 31.1 4.9 51.1 12.5 M 31.6 40.4 Q 36.3 40.4 40.2 43.05 L 41.1 43.7 Q 45.4 47 46.55 51.05 47.65 55.05 45.75 60.15 43.8 65.2 38.4 68.25 33 71.2 27.85 70.45 22.65 69.65 18.5 65.4 14.05 60.9 14.05 55.5 14.05 53.1 14.7 51.05 16.2 46.4 21.05 43.5 L 21.25 43.35 Q 26.35 40.4 31.6 40.4 Z"/><path fill="#4F4F4F" d="M 40.2 43.05 Q 36.3 40.4 31.6 40.4 26.35 40.4 21.25 43.35 L 21.05 43.5 Q 16.2 46.4 14.7 51.05 14.05 53.1 14.05 55.5 14.05 60.9 18.5 65.4 22.65 69.65 27.85 70.45 33 71.2 38.4 68.25 43.8 65.2 45.75 60.15 47.65 55.05 46.55 51.05 45.4 47 41.1 43.7 L 40.2 43.05 M 51.15 14.25 Q 51.45 12.5 51.1 12.5 31.1 4.9 10.05 12.95 L 10.3 14.35 14.25 26.25 18.15 36.05 Q 23.1 33.05 29.6 32.75 37.2 32.4 43.05 35.85 L 48.65 21.6 Q 50.8 16 51.15 14.25 Z"/></g><g id="Symbol_1363_0_Layer0_0_FILL"><path d="M 108.95 43.05 Q 107.75 35.8 107.85 28.1 87.2 24.9 57.05 25.85 27.3 26.75 23.15 30.45 20.75 32.7 20.25 37.55 L 19.75 44.95 16.1 59.35 Q 13.55 68.95 12.7 74 L 6.9 107 5.2 116.5 Q 2.7 133.15 2.15 137.6 1.6 142.05 8.15 146.95 14.65 151.8 24.1 155.65 33.5 159.45 43.1 161.5 52.7 163.5 60.4 163.95 71.1 164.65 82.8 163.3 100.4 162.05 113.5 157.95 126.55 153.85 125.8 149.4 125.05 144.9 121.45 117.65 L 121.3 116.5 116.45 86.5 Q 113.9 73.8 111.05 57.5 L 109.9 50 108.95 43.05 M 99.05 33 Q 100.3 45.7 108.65 92.7 L 112.85 116.5 Q 116.6 141.55 116.3 144.35 115.95 147.15 106.45 150.2 96.95 153.2 76.05 154.6 L 72.2 154.6 Q 54.2 155.75 33.5 148.4 12.8 141.05 12.7 136.3 12.55 131.5 14.8 116.5 L 16.55 106.35 Q 20.05 87 21.7 79.35 22.85 73.75 24.7 66.25 L 28.05 53.25 29.2 46.3 Q 29.8 42.25 30.85 40 31.75 36.8 35.85 35.4 39.6 34.15 48 33.8 52.8 33.55 68.65 33.5 L 72.9 33.5 74.9 33.45 99.05 33 Z"/><path fill="#4F4F4F" d="M 72.9 33.5 L 73 44.65 72.85 65.15 72.85 90.4 Q 72.65 93.9 72.55 104.5 L 72.55 129.4 72.4 144.5 72.2 154.6 76.05 154.6 75.8 129.4 75.45 65.6 75.75 47.5 Q 75.85 39.4 74.9 33.45 L 72.9 33.5 M 85.5 90.75 Q 82.7 91 81.9 93.8 80.65 97.9 84.95 100.45 90.75 101.5 91.45 96.4 92.15 91.3 85.5 90.75 M 83.55 71.65 Q 82 72.4 81.3 73.85 80.6 75.3 81.2 77.45 81.8 79.55 84.1 80.45 86.35 81.35 88.7 79.85 91 78.3 90.45 75.15 89.85 72 86.8 71.3 85.1 70.9 83.55 71.65 Z"/><path fill="#999" d="M 73 44.65 L 72.9 33.5 68.65 33.5 Q 52.8 33.55 48 33.8 39.6 34.15 35.85 35.4 31.75 36.8 30.85 40 29.8 42.25 29.2 46.3 L 28.05 53.25 24.7 66.25 Q 22.85 73.75 21.7 79.35 20.05 87 16.55 106.35 L 14.8 116.5 Q 12.55 131.5 12.7 136.3 12.8 141.05 33.5 148.4 54.2 155.75 72.2 154.6 L 72.4 144.5 72.55 129.4 72.55 104.5 Q 72.65 93.9 72.85 90.4 L 72.85 65.15 73 44.65 M 108.65 92.7 Q 100.3 45.7 99.05 33 L 74.9 33.45 Q 75.85 39.4 75.75 47.5 L 75.45 65.6 75.8 129.4 76.05 154.6 Q 96.95 153.2 106.45 150.2 115.95 147.15 116.3 144.35 116.6 141.55 112.85 116.5 L 108.65 92.7 M 81.3 73.85 Q 82 72.4 83.55 71.65 85.1 70.9 86.8 71.3 89.85 72 90.45 75.15 91 78.3 88.7 79.85 86.35 81.35 84.1 80.45 81.8 79.55 81.2 77.45 80.6 75.3 81.3 73.85 M 81.9 93.8 Q 82.7 91 85.5 90.75 92.15 91.3 91.45 96.4 90.75 101.5 84.95 100.45 80.65 97.9 81.9 93.8 Z"/></g><g id="Symbol_1379_0_Layer1_0_FILL"><path fill="#4F4F4F" d="M 22.2 10.4 L 22.2 8.65 Q 23.2 8.55 23.35 10.5 L 23.75 13.7 Q 24.05 14.9 24.65 15.1 25.25 15.25 25.65 14.65 26.05 14.05 26.05 13.2 L 26 9.4 Q 25.9 7.4 25.45 6.65 24.75 5.35 23.2 5.05 L 22 5 Q 21.3 3.5 20.3 3.2 L 18.95 3.05 16.45 3.6 Q 15.65 3.9 15.2 4.3 14.05 4.9 13.8 9.7 L 13.75 14.75 13.75 15.75 12.4 15.75 12.6 11.85 12.7 8.3 12.4 7.3 11.75 6.6 10.9 6.3 5.8 5.95 4.35 6.2 Q 3.9 6.35 3.6 6.65 2.5 8.25 2.2 15.55 L 2.15 15.8 Q 0.8 15.9 0.25 16.3 -0.3 16.8 -0.7 18.15 -2.25 23.85 -2 29.75 L -1.75 32.4 Q -1.15 36 0.95 39.1 3.05 42.2 6.2 44.05 9.35 45.85 13.1 46.05 16.85 46.25 20.15 44.7 L 22.35 43.2 Q 23.35 41.95 23.05 40.7 22.95 40 22.4 39.55 21.8 39.05 21.15 39.1 20.55 39.15 19.85 39.65 L 18.7 40.55 Q 17.9 41.1 16.3 41.45 13.05 42 9.8 40.65 6.55 39.25 4.7 36.5 2.55 33.35 2.4 28.55 2.35 25.3 3.35 20.25 L 7.25 19.75 11.25 19.7 19.05 19.2 23.25 18.65 Q 24.3 18.45 24.75 18.05 25.6 17.3 25.2 16.55 24.85 15.7 23.15 15.7 L 21.9 15.7 22.15 12.7 22.2 10.4 M 6.6 10.5 L 6.75 10.1 7.15 9.95 9.1 10.15 9.1 12.55 6.75 12.45 6.3 12.5 6.6 10.5 Z"/><path fill="#C7BAC6" d="M 6.75 10.1 L 6.6 10.5 6.3 12.5 6.75 12.45 9.1 12.55 9.1 10.15 7.15 9.95 6.75 10.1 Z"/></g><g id="Symbol_1380_0_Layer0_0_FILL"><path d="M 66.25 38.45 Q 59.35 28.1 57.3 21.6 55.5 11.65 49.65 5.05 40.5 -5.3 27.15 5.55 23 8.95 21.85 13.25 21.15 15.7 21.25 21.1 21.35 26.3 20.5 29.1 19.1 33.6 14.6 37.3 5.95 44.4 2.6 53 0 59.6 0 69 0 76 2.7 79.8 5.4 83.55 5.4 89.25 5.4 92.6 3.25 103.95 1.05 115.3 1.05 123.7 1.05 126 2.1 130.3 3.6 136.55 6.45 141.7 15.1 157.35 32.55 157.35 38.9 157.35 40.35 151.05 L 40.85 146.25 Q 40.9 143.6 41.1 143.2 41.9 141.25 50.75 137.85 61.1 133.8 65.55 130 71.7 124.7 75.7 114.65 79.2 105.8 79.2 98.85 79.2 91.4 73.8 82.95 70.9 78.35 70.1 76.65 68.4 73.15 68.4 69.7 68.4 67.85 70 62.8 71.6 57.8 71.6 53.8 71.6 46.4 66.25 38.45 M 49.8 26.1 Q 51.3 31.55 58 40.3 63.75 47.8 63.75 53.35 63.75 58.45 62.25 61.45 60.75 64.4 60.75 67 60.75 78.05 66.35 85.9 L 70.15 91.55 Q 71.9 94.85 71.9 98.85 71.9 106.3 68.75 113.35 64.9 121.9 57.45 126.85 54.25 128.95 46.6 130.1 39.05 131.2 35.15 133.9 33.1 135.3 32.25 140.35 L 31.05 147.85 Q 20.85 146 14.65 137 9.75 130 9.75 123.9 9.75 116.25 11.8 103.95 13.85 91.65 13.85 89.2 13.85 82.35 11.15 77 8.4 71.7 8.4 68.85 8.4 56.05 16.8 48.4 25.2 40.75 27.2 36.4 29.15 32 29.25 28.3 L 29.1 21.2 Q 29.1 16.65 30.15 14.2 39.8 2.5 45.3 11.65 47.05 14.6 48.4 19.9 L 49.8 26.1 Z"/><path fill="#9F9F9F" d="M 58 40.3 Q 51.3 31.55 49.8 26.1 L 48.4 19.9 Q 47.05 14.6 45.3 11.65 39.8 2.5 30.15 14.2 29.1 16.65 29.1 21.2 L 29.25 28.3 Q 29.15 32 27.2 36.4 25.2 40.75 16.8 48.4 8.4 56.05 8.4 68.85 8.4 71.7 11.15 77 13.85 82.35 13.85 89.2 13.85 91.65 11.8 103.95 9.75 116.25 9.75 123.9 9.75 130 14.65 137 20.85 146 31.05 147.85 L 32.25 140.35 Q 33.1 135.3 35.15 133.9 39.05 131.2 46.6 130.1 54.25 128.95 57.45 126.85 64.9 121.9 68.75 113.35 71.9 106.3 71.9 98.85 71.9 94.85 70.15 91.55 L 66.35 85.9 Q 60.75 78.05 60.75 67 60.75 64.4 62.25 61.45 63.75 58.45 63.75 53.35 63.75 47.8 58 40.3 Z"/></g><g id="Symbol_1381_0_Layer0_0_FILL"><path d="M 166.65 83.2 Q 166.5 74.15 163.65 57.65 160.8 41.1 154.65 32.8 148.5 24.45 145.65 21.85 142.75 19.2 137.25 15.2 131.75 11.2 123.05 7.75 L 119.15 6.25 Q 104.6 0.75 78.75 0.95 L 72 1.85 Q 32.1 7.7 13.25 39.6 0 61.95 0 88.7 0 95.35 0.95 101.45 8.25 139.45 38.95 153.2 69.65 166.95 100.65 161.95 131.65 156.9 146.45 141 161.25 125.1 164 108.7 166.75 92.25 166.65 83.2 M 145.4 38.4 Q 155.9 54.85 156.55 81.45 157.15 108.05 144.5 126.6 131.85 145.05 106.25 149.95 80.6 154.85 63.9 150.35 47.2 145.85 38.7 140.15 30.2 134.4 25.35 129.05 20.45 123.65 16.2 115.1 11.9 106.5 10.3 94.55 8.65 82.6 11.5 67.3 14.3 52 29.45 34.7 44.55 17.35 75.25 11.9 126.05 8.05 145.4 38.4 Z"/><path fill="#EAD8D8" d="M 156.55 81.45 Q 155.9 54.85 145.4 38.4 126.05 8.05 75.25 11.9 44.55 17.35 29.45 34.7 14.3 52 11.5 67.3 8.65 82.6 10.3 94.55 11.9 106.5 16.2 115.1 20.45 123.65 25.35 129.05 30.2 134.4 38.7 140.15 47.2 145.85 63.9 150.35 80.6 154.85 106.25 149.95 131.85 145.05 144.5 126.6 157.15 108.05 156.55 81.45 Z"/></g><g id="Symbol_1383_0_Layer0_0_FILL"><path d="M 34.45 -7.5 L 25.8 -7.25 Q 17.95 -6.95 14.5 -7.3 4.5 -7.45 -1.75 -6.9 -3.2 -11.35 -7.8 -14.65 -14 -19.1 -22.5 -19.3 -31.35 -19.5 -37.25 -14.8 -42 -11.05 -43.4 -4.95 -49 -5.7 -69.05 -5.3 -76.3 -5.35 -79.5 -1.9 -81.6 0.3 -81.6 3.1 L -81.45 6.05 Q -80.8 8.85 -78.15 8.85 -75.2 8.85 -74.65 6.2 -73.95 2.7 -73.7 2.5 -70.1 -0.95 -57.1 -0.55 L -44.25 0.55 -43.95 0.55 Q -43.9 5.85 -41.1 10.85 -36.05 19.9 -24.3 19.9 -9.85 19.9 -4.15 9.8 -1.5 5.05 -1.15 -0.75 L 2.95 -0.5 Q 25.5 -0.5 30.15 -1 L 31.3 -1.1 33.85 -1.35 Q 34.2 4.45 36.85 9.2 42.55 19.3 57 19.3 68.75 19.3 73.8 10.25 76.6 5.25 76.65 -0.05 L 76.95 -0.05 81.6 -0.6 81.6 -5.9 76.1 -5.55 Q 74.7 -11.65 69.95 -15.4 64.05 -20.1 55.2 -19.9 46.7 -19.7 40.5 -15.25 35.9 -11.95 34.45 -7.5 M 54.95 -12.95 Q 60.9 -13.3 64.75 -10.35 69.2 -6.95 69.2 0 69.2 3 66.95 6.65 63.45 12.3 56.7 12.3 46.9 12.3 42.8 4.75 41.5 2.4 40.95 -0.45 L 40.65 -2.9 Q 40.65 -6.8 45.1 -9.8 49.35 -12.65 54.95 -12.95 M -32.05 -9.6 Q -28.2 -12.55 -22.2 -12.2 -16.65 -11.9 -12.4 -9.05 -7.95 -6.05 -7.95 -2.15 -8.05 1.75 -10.1 5.5 -14.2 13.05 -24 13.05 -30.75 13.05 -34.25 7.4 -36.5 3.75 -36.5 0.75 -36.5 -6.2 -32.05 -9.6 Z"/></g><g id="Symbol_94_0_Layer0_0_FILL"><path fill="#9F9F9F" d="M 20.85 6.05 Q 21.9 5.55 21.9 3.8 21.9 0.65 18.5 0.1 15.45 -0.35 10.95 1.35 6.55 2.95 3.4 5.6 0 8.45 0 11 L 0.3 12.75 Q 1 14.3 3.15 14.3 4.4 14.3 5.7 13.1 L 8.1 10.4 Q 11.6 6.5 16.25 6.5 L 20.85 6.05 Z"/></g><g id="Symbol_96_0_Layer0_0_FILL"><path d="M 15.65 8.25 Q 15.65 4.85 13.3 2.5 L 11 0.85 Q 9.45 0 7.4 0.05 5.35 0.15 3.7 1.05 2 1.9 1 3.9 0 5.9 0.05 8 0.05 10.05 0.85 11.8 1.65 13.5 3.65 14.5 5.6 15.5 8.85 15.1 12.05 14.7 13.85 12.9 15.65 11.1 15.65 8.25 M 6.85 3.95 L 8.55 4.05 9.95 4.9 Q 11.7 6.85 10.8 8.75 9.9 10.6 7.4 10.8 L 5.65 10.65 Q 4.6 10.35 4.2 9.05 3.8 7.7 4.15 6.6 4.5 5.5 4.95 5.05 5.95 4.1 6.85 3.95 Z"/><path fill="#FFF" d="M 8.55 4.05 L 6.85 3.95 Q 5.95 4.1 4.95 5.05 4.5 5.5 4.15 6.6 3.8 7.7 4.2 9.05 4.6 10.35 5.65 10.65 L 7.4 10.8 Q 9.9 10.6 10.8 8.75 11.7 6.85 9.95 4.9 L 8.55 4.05 Z"/></g><g id="Symbol_112_0_Layer2_0_FILL"><path d="M 66.1 7.55 L 62.9 9.3 Q 59.15 11.35 54.8 12.55 L 45.05 14.55 33.35 15.95 Q 27.65 16.4 24 16.15 20.35 15.9 15.3 14.7 10.25 13.45 6.6 11.55 2.9 9.65 0.45 8.75 -2 7.85 -2.8 12.25 -3.6 16.65 1.4 27.3 6.4 37.9 12.1 42.6 17.8 47.2 22.7 48 27.6 48.8 33.8 47.45 39.95 46.1 45.5 41.8 51.05 37.5 54.3 31 L 58.4 22.2 Q 59.2 19.9 62.85 17.2 66.45 14.5 67.35 12.9 68.3 11.3 67.9 9.35 67.5 7.4 66.1 7.55 M 49.15 19.5 L 53.55 18.25 Q 52.55 22.8 39.3 25.7 26.05 28.55 18.25 27.35 10.4 26.15 8.15 25.05 5.85 23.95 5.1 22.65 4.3 21.35 2.65 16.55 3.65 17.2 7.65 19.05 11.6 20.9 18.5 21.45 25.4 21.95 32.1 21.65 L 49.15 19.5 M 42.65 31.4 L 49.15 29.25 46.8 32.3 Q 44.85 34.55 42.05 36.5 39.2 38.45 36.45 39.35 L 32.35 40.25 Q 26.1 40.95 20.2 38.65 14.65 36.55 10.95 32.4 19.95 34.65 28.45 33.95 36.9 33.25 42.65 31.4 Z"/><path fill="#FFF" d="M 49.15 29.25 L 42.65 31.4 Q 36.9 33.25 28.45 33.95 19.95 34.65 10.95 32.4 14.65 36.55 20.2 38.65 26.1 40.95 32.35 40.25 L 36.45 39.35 Q 39.2 38.45 42.05 36.5 44.85 34.55 46.8 32.3 L 49.15 29.25 M 53.55 18.25 L 49.15 19.5 32.1 21.65 Q 25.4 21.95 18.5 21.45 11.6 20.9 7.65 19.05 3.65 17.2 2.65 16.55 4.3 21.35 5.1 22.65 5.85 23.95 8.15 25.05 10.4 26.15 18.25 27.35 26.05 28.55 39.3 25.7 52.55 22.8 53.55 18.25 Z"/></g></defs><g><g><g transform="matrix(.94159 -.1317 .1317 .94159 56.2 250.25)"><use xlink:href="#Symbol_61_0_Layer0_0_FILL"/></g></g></g><g><g transform="rotate(1.259 -11192.672 5088.044) scale(.95073)"><use xlink:href="#Symbol_63_0_Layer0_0_FILL"/></g></g><g><g transform="matrix(.58888 .74103 .74434 -.58722 125.25 157)"><use xlink:href="#Symbol_65_0_Layer0_0_FILL"/></g></g><g><g transform="matrix(-.62535 -.71144 .71375 -.6229 182.45 173.2)"><use xlink:href="#Symbol_67_0_Layer0_0_FILL"/></g></g><g><g transform="matrix(-.34148 .88254 -.88612 -.33958 81.25 160.25)"><use xlink:href="#Symbol_65_0_Layer0_0_FILL"/></g></g><g><g transform="matrix(-.44601 .83525 -.83762 -.44347 58.05 139.5)"><use xlink:href="#Symbol_67_0_Layer0_0_FILL"/></g></g><g><g transform="matrix(.94867 -.0609 .06076 .94598 39.5 129.35)"><use xlink:href="#Symbol_1363_0_Layer0_0_FILL"/></g></g><g><g transform="matrix(.94867 -.0609 .06076 .94598 69 182.8)"><use xlink:href="#Symbol_1379_0_Layer1_0_FILL"/></g></g><g><g transform="matrix(-.94304 .11952 .10933 .86252 178.25 -24.9)"><use xlink:href="#Symbol_1380_0_Layer0_0_FILL"/></g></g><g><g transform="matrix(.94327 -.11801 .11816 .94235 7.7 32.9)"><use xlink:href="#Symbol_1381_0_Layer0_0_FILL"/></g></g><g><g transform="matrix(.94327 -.11801 .11816 .94235 92.8 99.3)"><use xlink:href="#Symbol_1383_0_Layer0_0_FILL"/></g></g><g><g transform="matrix(.94968 -.04288 .0428 .9488 54.4 57.05)"><use xlink:href="#Symbol_94_0_Layer0_0_FILL"/></g></g><g><g transform="matrix(-.93567 .16754 .1677 .93478 150.65 46.05)"><use xlink:href="#Symbol_94_0_Layer0_0_FILL"/></g></g><g><g transform="matrix(.94304 -.11952 .10933 .86252 -26.45 -2.65)"><use xlink:href="#Symbol_1380_0_Layer0_0_FILL"/></g></g><g><g transform="matrix(1.16393 -.1456 .17322 1.3814 63.55 92.8)"><use xlink:href="#Symbol_96_0_Layer0_0_FILL"/></g></g><g><g transform="matrix(1.1333 -.14177 .16336 1.30267 133.95 84.05)"><use xlink:href="#Symbol_96_0_Layer0_0_FILL"/></g></g><g id="mouth"><g transform="matrix(1.45444 -.1013 .09697 .94247 56.3 110.6)"><use xlink:href="#Symbol_112_0_Layer2_0_FILL"/></g></g></svg>