<svg xmlns="http://www.w3.org/2000/svg" role="img" xmlns:xlink="http://www.w3.org/1999/xlink" viewBox="-87.44 -123.94 170.87 243.62"><defs><g id="Symbol_1923_0_Layer0_0_FILL"><path d="M 41.2 0.75 L 41.2 0.1 41.2 0 33.85 0 33.8 0.3 27.65 0.25 25.45 0.6 22.9 0.2 16.35 0.15 5.25 0.5 4.6 0.5 Q 0.55 0.65 0.15 5.1 L 0 15.6 0 35.9 0 52.25 Q 0.3 58.6 1 62.5 0.6 63.4 0.6 64.7 L 0.65 65.3 0.45 66.45 Q 0.45 68.05 1.55 69.1 3.75 71.3 9.7 70.55 L 35.7 70.55 Q 38.4 70.75 39.85 69.3 41.15 68.5 41.35 66.6 41.05 62.9 41.2 61.8 L 41.2 10.1 41.2 7.9 41.2 0.75 M 8.5 23.55 L 8.65 8.45 12.7 8.25 33.9 8.15 33.9 43.55 29.65 43.65 8.5 43.8 8.5 23.55 Z"/><path fill="#232323" d="M 8.65 8.45 L 8.5 23.55 8.5 43.8 29.65 43.65 33.9 43.55 33.9 8.15 12.7 8.25 8.65 8.45 Z"/></g><g id="Symbol_1785_0_Layer0_0_FILL"><path d="M 12.3 -4.8 Q 7.85 -3.65 4.45 -0.85 -4.15 8.75 -2.9 21.75 L -2.3 29.9 Q -2.15 33.55 -0.8 37 L -0.65 38.65 -0.45 39.5 -0.35 39.9 Q -0.2 45.35 4.3 48.9 9.3 52.8 15.75 53.9 L 16.05 54.15 16.35 54.4 Q 33.5 56.5 35.7 38.65 37 28.25 37.4 17.7 37.6 12.8 36.3 8.05 35.4 4.7 33.55 1.7 L 31.35 -0.1 Q 30 -2 28.05 -3.45 26.55 -4.55 24.8 -4.9 L 24.75 -4.9 24.7 -4.95 24.65 -4.95 Q 19.9 -7 15.15 -5.35 L 12.3 -4.8 M 27.1 7 L 27.85 7.9 Q 29.4 19.9 28.6 32.25 28.45 34.45 27.75 36.65 L 27.8 37.15 27.9 37.55 Q 27.8 46.35 20.35 46.85 L 16.6 46.4 13.2 45.65 12.9 45.4 12.6 45.15 11.4 44.8 10.65 44.5 Q 10.05 44.3 9.6 43.95 L 9.2 43.25 9 42.85 8.9 42.45 8.65 42.15 8.35 41.9 7.75 37.95 Q 7.25 35.3 6.3 32.85 L 5.7 13 Q 5.65 10.7 6.7 8.3 7.7 6.5 9.25 5.05 L 9.75 4.65 Q 13.75 2.2 18.45 1.8 L 20.4 1.75 21.8 2.3 23 2.7 23.2 2.85 24.95 4.25 26.15 5.2 26.75 6.3 27.1 7 Z"/><path fill="#E5D2D2" d="M 27.85 7.9 L 27.1 7 26.75 6.3 26.15 5.2 24.95 4.25 23.2 2.85 23 2.7 21.8 2.3 20.4 1.75 18.45 1.8 Q 13.75 2.2 9.75 4.65 L 9.25 5.05 Q 7.7 6.5 6.7 8.3 5.65 10.7 5.7 13 L 6.3 32.85 Q 7.25 35.3 7.75 37.95 L 8.35 41.9 8.65 42.15 8.9 42.45 9 42.85 9.2 43.25 9.6 43.95 Q 10.05 44.3 10.65 44.5 L 11.4 44.8 12.6 45.15 12.9 45.4 13.2 45.65 16.6 46.4 20.35 46.85 Q 27.8 46.35 27.9 37.55 L 27.8 37.15 27.75 36.65 Q 28.45 34.45 28.6 32.25 29.4 19.9 27.85 7.9 Z"/></g><g id="Symbol_1926_0_Layer0_0_FILL"><path d="M 2.25 2.35 L 4.05 0.85 Q 3.1 1 2.25 2.35 M 38.05 17.9 Q 36.95 9.5 30.9 4.15 20.2 -2.35 9.9 3.85 -1.05 10.4 -0.45 23.35 -0.4 24.8 0.15 26.05 L 0.15 37.95 Q 0 38.4 0 39.75 L 0.1 44.6 0.3 44.6 0.25 45 0.5 47.45 Q 1.6 49.6 6 49.6 L 8.5 49.35 34 49.1 Q 35.95 48.4 37.15 47.15 38.25 45.95 38.25 44.85 L 38.2 44.45 Q 39 43.15 38.95 41 38.9 38.45 39.35 35.95 39.25 26.85 38.05 17.9 M 30.2 18.7 L 30.25 19.95 30.25 40.6 8.8 40.35 8.8 39.75 8.8 38.7 8.65 38.4 8.65 21.1 9 20.2 9.05 20 9.1 19.55 Q 9.9 16.95 11 14.45 12.25 11.7 14.5 10.25 15.65 10 16.25 9.5 L 19.7 8.95 Q 23 8.8 25.85 10.7 28.65 14.35 30.15 18.5 L 30.2 18.7 Z"/><path fill="#232323" d="M 30.25 19.95 L 30.2 18.7 30.15 18.5 Q 28.65 14.35 25.85 10.7 23 8.8 19.7 8.95 L 16.25 9.5 Q 15.65 10 14.5 10.25 12.25 11.7 11 14.45 9.9 16.95 9.1 19.55 L 9.05 20 9 20.2 8.65 21.1 8.65 38.4 8.8 38.7 8.8 39.75 8.8 40.35 30.25 40.6 30.25 19.95 Z"/></g><g id="Symbol_1928_0_Layer0_0_FILL"><path d="M 86.45 36.15 L 86.5 36.15 86.45 18.9 86.1 18.9 Q 85.65 13.35 81.4 8.15 79.3 5.55 76.3 4.65 54.3 -2.1 30.5 0.95 20.25 2 11 6.9 4.2 10.45 0.7 17.4 L 0.4 17.95 0.15 19 Q -0.1 20.05 0.05 21.15 L 0.2 22.75 0.2 23.4 0.15 23.4 0.15 105.2 0.45 108.85 0.5 109 1.3 110.5 Q 2.5 111.95 4.9 112 9.3 113.05 18 113.05 L 75.15 112.75 Q 87.85 113.8 88.15 110.05 88.45 106.3 87.55 105.35 L 87.55 104 Q 87.55 99.25 86.5 96.1 L 86.5 95.95 86.5 94.9 86.5 92.2 86.5 89 86.5 67.55 86.45 36.15 M 77.3 36.15 L 77.25 36.15 77.2 61.05 77.2 62.05 77.2 62.45 77.2 66.5 77.2 67.55 77.2 82.4 77.2 83.5 77.15 83.5 77.15 86.55 39.3 87.15 Q 16.15 87.1 9.85 87.3 L 9.85 36.15 9.9 36.15 9.9 18.9 9.75 18.9 9.8 18.65 9.7 18.2 Q 10.4 16.9 11.55 16 L 12 15.45 12.3 14.95 12.6 14.4 13.2 13.9 Q 13.95 13.35 14.8 12.9 L 15.95 12.4 16.65 12.1 17.4 11.6 Q 42.6 5.95 68.75 9.65 71 9.95 73.05 11.05 75.35 13.05 76.2 15.95 L 77.2 18.9 77.3 19.1 77.3 36.15 M 9.85 91.85 L 39.3 91.95 77.15 92.55 77.1 98.35 77.1 98.6 77.1 99.4 77.5 99.4 77.95 103.3 75.15 103.4 11.65 103.1 9.85 102.95 9.85 91.85 Z"/><path fill="#232323" d="M 39.3 91.95 L 9.85 91.85 9.85 102.95 11.65 103.1 75.15 103.4 77.95 103.3 77.5 99.4 77.1 99.4 77.1 98.6 77.1 98.35 77.15 92.55 39.3 91.95 Z"/><path fill="#151515" d="M 77.25 36.15 L 77.3 36.15 77.3 19.1 77.2 18.9 76.2 15.95 Q 75.35 13.05 73.05 11.05 71 9.95 68.75 9.65 42.6 5.95 17.4 11.6 L 16.65 12.1 15.95 12.4 14.8 12.9 Q 13.95 13.35 13.2 13.9 L 12.6 14.4 12.3 14.95 12 15.45 11.55 16 Q 10.4 16.9 9.7 18.2 L 9.8 18.65 9.75 18.9 9.9 18.9 9.9 36.15 9.85 36.15 9.85 87.3 Q 16.15 87.1 39.3 87.15 L 77.15 86.55 77.15 83.5 77.2 83.5 77.2 82.4 77.2 67.55 77.2 66.5 77.2 62.45 77.2 62.05 77.2 61.05 77.25 36.15 Z"/></g><g id="Symbol_1929_0_Layer0_0_FILL"><path d="M 7.65 18.35 L 8 17.95 Q 8.95 16.8 8.95 15.45 8.95 11.15 4.5 11.95 2.75 12.25 1.4 13.25 0 14.3 0 15.45 0 16.15 0.95 17.55 2.35 19.45 4.45 19.45 L 5.9 19.3 5.95 19.8 5.7 20.15 Q 5 21.35 5 22.25 L 5.2 25.25 5.3 28.8 6.85 29.2 Q 7.85 28.6 8.5 26.9 L 8.95 25.15 Q 8.95 23.65 7.75 20.4 L 7.75 19.7 7.65 18.35 M 16.85 8.8 Q 17.4 7.5 17.4 6.15 17.4 4.25 15.85 3 14.4 1.8 12.4 1.7 7.4 1.55 7.4 6.85 7.4 8.2 8.35 9.15 10 10.7 14.2 10.7 15.95 10.7 16.85 8.8 M 25.4 10.75 L 25.2 9.5 Q 30.45 9.05 30.45 5.7 30.45 3.2 28.65 1.6 27.05 0.2 24.7 0 22.4 -0.15 20.75 1 18.95 2.25 18.95 4.5 L 19.35 6.8 Q 20.25 9 22.4 9.45 L 22.35 9.65 Q 22.35 10.5 22.7 13.05 L 20.9 12.8 Q 16.6 12.5 13.6 14.75 10.3 17.25 10.3 22.05 10.3 23.5 12.8 26 15.5 28.7 19.35 29.25 L 19.3 30.55 Q 19.3 31.55 19.85 34.05 20.65 37.35 21.6 37.35 22.6 37.35 23.1 36.55 23.5 35.95 23.5 35.1 23.85 33.05 23.5 31.2 L 22.85 29.3 26.8 28.3 27.45 30.65 Q 28.15 32.7 28.65 32.75 29.9 32.4 30.25 31.3 L 30.3 29.9 Q 30.3 28.35 29.95 27.65 L 29.4 26.75 Q 31.5 25.05 31.5 23.2 31.5 18.7 28.2 15.8 27.05 14.8 25.75 14.15 L 25.75 13.85 25.4 10.75 M 40.2 11.85 Q 40.2 9.85 38.55 8.9 37.1 8.05 35 8.3 29.75 9 29.75 13.3 L 30.35 15.3 Q 31.6 17.1 35.1 17.1 37.9 17.1 39.2 15.4 40.2 14.05 40.2 11.85 Z"/></g><g id="Symbol_717_0_Layer0_0_FILL"><path d="M 43.75 33.4 Q 46.35 27.65 46.35 20 46.35 10.45 39.1 4.8 32.45 -0.4 23.2 0.05 13.6 0.5 7.25 6.85 0 14.1 0 26.5 0 32 3.7 36.5 10.2 44.35 25.95 44.35 38.8 44.35 43.75 33.4 M 25.2 7.7 Q 30.45 7.7 34.7 11 39.8 14.95 39.8 21.6 39.8 30.45 32.95 34.3 28.15 36.95 20.4 36.95 16.25 36.95 12.1 32.7 7.65 28.2 7.65 22.8 7.65 14.85 14.85 10.65 19.95 7.7 25.2 7.7 Z"/><path fill="#E5D2D2" d="M 34.7 11 Q 30.45 7.7 25.2 7.7 19.95 7.7 14.85 10.65 7.65 14.85 7.65 22.8 7.65 28.2 12.1 32.7 16.25 36.95 20.4 36.95 28.15 36.95 32.95 34.3 39.8 30.45 39.8 21.6 39.8 14.95 34.7 11 Z"/></g><g id="Symbol_1932_0_Layer0_0_FILL"><path d="M 165.9 79.9 Q 165.9 73.55 162.05 56.1 158.1 38.5 154.1 33.15 L 148.6 25.5 Q 147.05 23.2 143.9 20.05 140.85 17 129.2 10.05 L 123.05 7.75 Q 114.35 4.3 104.85 1.35 95.3 -1.6 72 1.85 32.1 7.7 13.25 39.6 0 61.95 0 88.7 0 151.15 82.25 165.15 L 100.9 165.15 Q 107.1 163.65 112.7 161.7 145.1 150.6 157.55 125.95 162.95 115.25 164.8 101.55 165.9 93.35 165.9 79.9 M 125.4 19.85 Q 137.8 26.5 145.4 38.4 155.9 54.85 155.9 79.95 155.9 102.9 148.9 119.3 137.95 144.9 112.7 152 103 154.7 91.25 154.7 43.95 154.7 23.35 124.55 16.55 114.55 13.4 102.2 11.45 94.4 11.45 88.7 11.45 68.6 20.35 51.65 L 22.2 52.4 Q 29.25 55.05 44.1 55.05 73.2 55.05 88.45 36.6 94 29.8 96.95 21.35 98.65 16.4 99.15 12.15 114.2 13.85 125.4 19.85 M 91.05 11.55 L 90.75 12.8 Q 89.5 18.35 85.85 26.4 85.1 28.05 82.15 31 78.3 34.95 73.25 38.2 58.5 47.75 39.9 47.75 L 27.7 46.75 23.75 45.85 Q 40.2 20.05 75.25 11.9 83.55 11.25 91.05 11.55 Z"/><path fill="#4F4F4F" d="M 90.75 12.8 L 91.05 11.55 Q 83.55 11.25 75.25 11.9 40.2 20.05 23.75 45.85 L 27.7 46.75 39.9 47.75 Q 58.5 47.75 73.25 38.2 78.3 34.95 82.15 31 85.1 28.05 85.85 26.4 89.5 18.35 90.75 12.8 Z"/><path fill="#E5D2D2" d="M 145.4 38.4 Q 137.8 26.5 125.4 19.85 114.2 13.85 99.15 12.15 98.65 16.4 96.95 21.35 94 29.8 88.45 36.6 73.2 55.05 44.1 55.05 29.25 55.05 22.2 52.4 L 20.35 51.65 Q 11.45 68.6 11.45 88.7 11.45 94.4 13.4 102.2 16.55 114.55 23.35 124.55 43.95 154.7 91.25 154.7 103 154.7 112.7 152 137.95 144.9 148.9 119.3 155.9 102.9 155.9 79.95 155.9 54.85 145.4 38.4 Z"/></g><g id="Symbol_1819_0_Layer0_0_FILL"><path d="M 106.25 24.7 Q 106.9 19.5 107.1 14.1 107.4 6.7 100.9 4.35 85.35 -1.4 68.1 0.45 49.6 4.05 36.55 17.55 28.25 26.05 19.1 33.7 14.1 37.8 7.6 38.1 1.15 38.5 0.1 43.6 -0.25 45.45 0.45 47 7.25 62.05 24.15 66.15 58.75 74.6 87.55 55 99.5 46.8 103.9 33.6 104.45 32.7 104.6 31.3 104.75 29.9 105.25 28.8 L 106 26.45 106.25 25.05 106.25 24.7 M 93.7 9.5 L 97.8 10.5 97.9 10.6 98.3 10.8 98.75 11.15 99.15 11.5 99.3 11.8 99.45 12.15 99.65 12.5 Q 99.5 12.9 99.5 13.25 99.25 15.75 99.45 18.3 L 99.3 22.3 Q 99 23.8 99.3 25.25 95.45 41.6 81 50.45 60.45 63 35.55 61.2 27.3 60 19.6 56.5 13.15 53.45 9.25 47.65 L 9.25 47.3 9.15 46.95 9 46.55 8.9 46.2 Q 23.05 43.2 32.3 31.75 47.05 13.45 69.8 7.65 79.25 6.35 88.55 7.85 L 93.7 9.5 Z"/><path fill="#4F4A48" d="M 97.8 10.5 L 93.7 9.5 88.55 7.85 Q 79.25 6.35 69.8 7.65 47.05 13.45 32.3 31.75 23.05 43.2 8.9 46.2 L 9 46.55 9.15 46.95 9.25 47.3 9.25 47.65 Q 13.15 53.45 19.6 56.5 27.3 60 35.55 61.2 60.45 63 81 50.45 95.45 41.6 99.3 25.25 99 23.8 99.3 22.3 L 99.45 18.3 Q 99.25 15.75 99.5 13.25 99.5 12.9 99.65 12.5 L 99.45 12.15 99.3 11.8 99.15 11.5 98.75 11.15 98.3 10.8 97.9 10.6 97.8 10.5 Z"/></g><g id="Symbol_1934_0_Layer0_0_FILL"><path fill="#A18E8E" d="M 2.95 89.7 L 6.5 92.35 Q 4.85 94.2 4.85 95.5 L 6.5 97.05 Q 7.45 96.85 9.85 94.95 L 13.45 98.15 14.05 98.65 11.85 101 12.4 101.2 Q 13.2 101.05 15.2 99.5 18.75 102 21.05 102 L 21.95 101.8 21.8 101.55 21.65 101.15 17.45 97.55 Q 19.2 95.95 19.2 95.5 19.2 94.65 18.95 94.6 L 18.65 94.75 Q 17.6 95.15 16.15 96.45 L 12.05 93.1 Q 13.5 91.75 13.5 91.1 13.5 90.3 13.3 90.05 L 13.1 89.65 Q 10.8 88.9 8.65 90.4 2 85.2 0 84.4 0.3 87.25 2.95 89.7 Z"/></g><g id="Symbol_1935_0_Layer0_0_FILL"><path fill="#A18E8E" d="M 102.35 23.35 L 102.65 23.1 Q 102.5 18.55 100.2 13.1 104.95 9.7 104.95 7.15 104.95 6.35 104.6 6.25 L 103.75 6.05 98.85 10.25 98.05 8.8 97.55 7.9 Q 103.05 2.45 103.05 1.45 103.05 0.6 102.85 0.55 L 102.1 0.35 Q 98.6 2.25 95.5 4.75 91.85 -0.1 88.1 0 L 87.95 0 87.9 0.8 Q 87.9 1.35 92 7.9 L 90.05 9.9 Q 85.8 14.6 82.8 20.05 86.3 18.7 94.15 11.25 L 95.4 13.2 Q 91.05 17 90.4 18.95 L 96.75 15.25 102.35 23.35 Z"/><path fill="#9F9F9F" d="M 102.65 23.1 L 102.35 23.35 102.4 23.45 102.65 23.1 Z"/></g><g id="Symbol_1947_0_Layer0_0_FILL"><path d="M 158.2 9.6 Q 158.8 8.6 158.8 7.55 158.8 2.35 145.1 3.9 141.3 4.3 137.85 5.15 134.9 0.7 131.85 0 L 86.5 0.15 79.55 0.55 72.3 0.15 26.95 0 Q 23.9 0.7 20.95 5.15 17.5 4.3 13.7 3.9 0 2.35 0 7.55 0 8.6 0.6 9.6 1.7 11.45 4.3 11.45 L 18.05 10.4 Q 16.05 14.55 16.05 16.95 16.05 24.5 16.2 25.75 16.85 32.65 20.05 37.8 29.4 53 59.85 53 69.35 53 74.55 49.65 L 79.4 45.8 Q 81.6 47.95 84.25 49.65 89.45 53 98.95 53 129.4 53 138.75 37.8 141.95 32.65 142.6 25.75 L 142.75 16.95 Q 142.75 14.55 140.75 10.4 L 154.5 11.45 Q 157.1 11.45 158.2 9.6 M 130.35 8.1 Q 133.05 11.8 133.85 15.4 134.4 17.75 134.4 22.65 134.4 30.65 129.6 36.3 121.9 45.3 103.45 45.3 88.5 45.3 85.3 41.25 L 83.5 38.45 Q 82.65 37.5 80.8 37.3 L 79.5 37.2 79.3 37.2 78 37.45 78 37.3 Q 76.15 37.5 75.3 38.45 L 73.5 41.25 Q 70.3 45.3 55.35 45.3 36.9 45.3 29.2 36.3 24.4 30.65 24.4 22.65 24.4 17.75 24.95 15.4 25.75 11.8 28.45 8.1 L 72.3 7.65 78 7.65 78 7.7 80.1 7.7 80.8 7.7 86.5 7.65 130.35 8.1 Z"/><path fill="#151515" d="M 133.85 15.4 Q 133.05 11.8 130.35 8.1 L 86.5 7.65 80.8 7.7 80.1 7.7 78 7.7 78 7.65 72.3 7.65 28.45 8.1 Q 25.75 11.8 24.95 15.4 24.4 17.75 24.4 22.65 24.4 30.65 29.2 36.3 36.9 45.3 55.35 45.3 70.3 45.3 73.5 41.25 L 75.3 38.45 Q 76.15 37.5 78 37.3 L 78 37.45 79.3 37.2 79.5 37.2 80.8 37.3 Q 82.65 37.5 83.5 38.45 L 85.3 41.25 Q 88.5 45.3 103.45 45.3 121.9 45.3 129.6 36.3 134.4 30.65 134.4 22.65 134.4 17.75 133.85 15.4 Z"/></g><g id="Symbol_104_0_Layer0_0_FILL"><path d="M 16.8 10.75 Q 16.95 9.3 15.8 8.45 L 15.85 8.15 15.85 7.8 15.85 7.75 Q 15.7 4.7 13.5 2.5 11.35 0.3 8.35 0.05 5.25 -0.2 3.2 1.9 1.15 4 0.9 7.75 L 0.9 8.15 0.95 8.15 1 8.7 Q 0.2 9.25 0.05 10.4 -0.1 11.55 0.55 12.3 1.5 13.5 4.45 13.5 L 12.15 13.45 Q 14.3 13.45 15.35 12.85 16.55 12.1 16.8 10.75 M 11.85 7.95 L 11.85 8.15 11.5 9.75 5.4 9.75 Q 5.05 9.1 5 8.15 L 5 8.1 4.95 7.75 Q 5.3 4.35 8.4 4.55 11.75 4.75 11.85 7.75 L 11.85 7.95 Z"/><path fill="#FFF" d="M 11.85 8.15 L 11.85 7.95 11.85 7.75 Q 11.75 4.75 8.4 4.55 5.3 4.35 4.95 7.75 L 5 8.1 5 8.15 Q 5.05 9.1 5.4 9.75 L 11.5 9.75 11.85 8.15 Z"/></g><g id="Symbol_741_0_Layer0_0_FILL"><path d="M 27.75 0 L 24.75 0 2.9 0.85 Q 0.9 1.3 0.35 2.15 0.05 2.6 0.05 3.95 L 0 5.95 Q 0.25 6.75 2.15 7.1 L 26.25 7.85 Q 31.65 7.85 31.65 4.1 31.65 3 30.9 1.75 29.8 0 27.75 0 Z"/></g><g id="Symbol_1981_0_Layer0_0_FILL"><path d="M 29.25 4.75 L 32.35 4.4 33.4 3.25 Q 33.75 2.4 33.35 1.8 32.85 1.05 31.2 0.85 22.8 0.05 14.55 2.65 6.35 5.3 0 10.9 1.5 12.4 5.2 10.3 16.45 4.15 29.25 4.75 M 70.1 10.5 Q 68.8 8.8 65.2 7.4 58 4.75 50.7 4.4 L 45.15 4.3 25.85 5.4 Q 19.9 5.95 16.2 7.05 11 8.55 7.8 11.55 5.15 13.95 4.8 16.8 4.6 18.6 5.5 20.25 6.4 21.9 8.05 22.65 9.4 23.3 11.3 23.25 L 14.65 22.9 Q 36.4 19.6 58.5 22.1 L 66.3 22.85 Q 69.4 23.05 70.85 21.85 72.95 20 71.8 14.85 70.95 11.65 70.1 10.5 M 61.15 13.7 L 64.3 13.3 64.5 13.25 65.85 14.7 Q 66.55 15.85 66.7 16.9 L 50.85 15.55 54.65 14.65 57.95 13.95 61.15 13.7 M 56.3 10.1 L 58.05 10.45 57.55 10.5 50.75 11.9 Q 42.3 13.8 35.35 14.75 L 32.7 15.2 Q 22 15.6 12.9 17.55 L 10.3 17.45 Q 12.65 14.1 17.55 12.45 20.55 11.5 26.35 11 L 45.6 9.35 49.85 9.5 56.3 10.1 M 72.2 7.05 Q 72.75 6.35 72.2 5.35 71.75 4.45 70.8 3.8 67.5 1.6 62.7 0.7 L 53.85 0 42.3 0.5 40.5 0.95 Q 39.45 1.6 39.85 2.55 40.15 3.25 41.45 3.45 L 50.2 4.15 59 4.55 Q 63.15 5.15 69.1 7.25 71.35 8.1 72.2 7.05 Z"/><path fill="#FFF" d="M 58.05 10.45 L 56.3 10.1 49.85 9.5 45.6 9.35 26.35 11 Q 20.55 11.5 17.55 12.45 12.65 14.1 10.3 17.45 L 12.9 17.55 Q 22 15.6 32.7 15.2 L 35.35 14.75 Q 42.3 13.8 50.75 11.9 L 57.55 10.5 58.05 10.45 M 64.3 13.3 L 61.15 13.7 57.95 13.95 54.65 14.65 50.85 15.55 66.7 16.9 Q 66.55 15.85 65.85 14.7 L 64.5 13.25 64.3 13.3 Z"/></g></defs><g><g><g transform="matrix(.87238 0 .04735 .87238 1.6 53.55)"><use xlink:href="#Symbol_1923_0_Layer0_0_FILL"/></g></g></g><g><g><g transform="matrix(.87238 0 -.04602 .87238 -36.5 53.55)"><use xlink:href="#Symbol_1923_0_Layer0_0_FILL"/></g></g></g><g><g><g transform="matrix(.53537 .55344 -.62694 .6065 61.55 20.45)"><use xlink:href="#Symbol_1785_0_Layer0_0_FILL"/></g></g></g><g><g><g transform="matrix(-.51523 .60956 .6662 .56308 -65.8 16.9)"><use xlink:href="#Symbol_1785_0_Layer0_0_FILL"/></g></g></g><g><g><g transform="rotate(-43.794 25.523 -9.754) scale(.87232)"><use xlink:href="#Symbol_1926_0_Layer0_0_FILL"/></g></g></g><g><g><g transform="scale(-.87231 .87231) rotate(-45.541 29.065 -16.63)"><use xlink:href="#Symbol_1926_0_Layer0_0_FILL"/></g></g></g><g><g><g transform="rotate(3.981 303.883 -503.463) scale(.87239)"><use xlink:href="#Symbol_1928_0_Layer0_0_FILL"/></g></g><g><g><g transform="rotate(3.981 -342.41 -230.422) scale(.87239)"><use xlink:href="#Symbol_1929_0_Layer0_0_FILL"/></g></g></g></g><g><g><g><g transform="rotate(-115.817 42.436 36.677) scale(.87238)"><use xlink:href="#Symbol_717_0_Layer0_0_FILL"/></g></g></g></g><g><g><g><g transform="scale(.87237 -.87237) rotate(68.859 55.858 -69.567)"><use xlink:href="#Symbol_717_0_Layer0_0_FILL"/></g></g></g></g><g><g transform="translate(-71.45 -115.25) scale(.87238)"><use xlink:href="#Symbol_1932_0_Layer0_0_FILL"/></g></g><g><g><g transform="translate(-76.5 -119.25) scale(.87238)"><use xlink:href="#Symbol_1819_0_Layer0_0_FILL"/></g></g></g><g><g><g transform="translate(-52.85 -90.5) scale(.87238)"><use xlink:href="#Symbol_1934_0_Layer0_0_FILL"/></g></g><g><g transform="translate(-52.85 -90.5) scale(.87238)"><use xlink:href="#Symbol_1935_0_Layer0_0_FILL"/></g></g></g><g><g><g transform="matrix(.8712 .04544 -.04544 .8712 -64.15 -57.75)"><use xlink:href="#Symbol_1947_0_Layer0_0_FILL"/></g></g></g><g><g><g transform="rotate(2.986 756.639 -542.857) scale(.93065)"><use xlink:href="#Symbol_104_0_Layer0_0_FILL"/></g></g></g><g><g><g transform="matrix(-.92938 -.04848 -.04848 .92938 37.95 -35.4)"><use xlink:href="#Symbol_104_0_Layer0_0_FILL"/></g></g></g><g><g><g transform="rotate(17.967 122.646 -121.307) scale(.87237)"><use xlink:href="#Symbol_741_0_Layer0_0_FILL"/></g></g></g><g><g><g transform="matrix(.84375 -.2216 .2216 .84375 14.617 -32.506)"><use xlink:href="#Symbol_741_0_Layer0_0_FILL"/></g></g></g><g id="mouth"><g transform="rotate(-3.952 -133.928 497.287) scale(.99804)"><use xlink:href="#Symbol_1981_0_Layer0_0_FILL"/></g></g></svg>