<svg xmlns="http://www.w3.org/2000/svg" role="img" xmlns:xlink="http://www.w3.org/1999/xlink" viewBox="0.50 -2.00 176.50 260.00"><defs><g id="a"><path d="M38.65 6.55q1.6-1.1-.95.55l.95-.55m-.7 5.05l-.25-4.5q-2.5-5.8-1.75-5.9-.9-1.25-1.9-1.2-.6 0-1.15.5l-.65-.2H17.1L6.25 1.95Q5.45.9 4.55.8 3.1.65 1.9 2.9q-.75.4-.75 1.2l.05.3L.15 7.5v30.45Q0 38.4 0 39.75l.1 4.85h.2l-.05.4.25 2.45Q1.6 49.6 6 49.6l2.5-.25L34 49.1q1.95-.7 3.15-1.95 1.1-1.2 1.1-2.3l-.45-1.4v-24.1l.15-7.75M30.3 7.9l-.2 3.85q0 5.4.15 8.2V40.6L8.8 40.35V38.7l-.15-.3V7.95l-.1-.45H26.2l4.1.4z"/><path fill="#E5D2D2" d="M30.1 11.75l.2-3.85-4.1-.4H8.55l.1.45V38.4l.15.3v1.65l21.45.25V19.95q-.15-2.8-.15-8.2z"/></g><g id="b"><path d="M3.2 20.65q-.7 2.1-1.85 4.05Q.4 26.3.5 27.65l-.2.3q-.5.85-.15 2.2.4 1.45 1.6 2.85l19.3 10.95q-.15.2 1.8 1.25 3.35 1.85 5.1.75l1.2-1.8.15-.35.15.1 2.15-3.65.65-1.4 5.05-9.1 1.6-1.8q5.95-9.6.35-19.25-5.2-9.1-16.1-8.7-6.9 1.55-11.3 7.45-4.7 6.3-8.65 13.2m29.85.9l-.15.85-7.35 13.2-.2.1-.45.8-.25.45-16.45-8.9 8.75-15.75.55-.9.1-.15q2.9-2.5 6.6-4.1 2.95-.25 5.45 1.25L32 10.3q.25.6 1.05 1.3 1.1 2.05.85 4.7l-.7 4.7-.15.35v.2z"/><path fill="#4C4D55" d="M32.9 22.4l.15-.85v-.2l.15-.35.7-4.7q.25-2.65-.85-4.7-.8-.7-1.05-1.3l-2.35-1.9q-2.5-1.5-5.45-1.25-3.7 1.6-6.6 4.1l-.1.15-.55.9L8.2 28.05l16.45 8.9.25-.45.45-.8.2-.1 7.35-13.2z"/></g><g id="c"><path d="M41.2 10.1V0h-7.35l-.05.3-6.15-.05-2.2.35L22.9.2 16.35.15 5.25.5H4.6Q.55.65.15 5.1L0 15.6V52.25Q.3 58.6 1 62.5q-.4.9-.4 2.2l.05.6-.2 1.15q0 1.6 1.1 2.65 2.2 2.2 8.15 1.45h26q2.7.2 4.15-1.25 1.3-.8 1.5-2.7-.3-3.7-.15-4.8V10.1M8.65 8.45l4.05-.2 21.2-.1v35.4l-4.25.1-21.15.15V23.55l.15-15.1m21 39.75l4.25.2v3.95H8.5v-4.3l21.15.15m2.8 10.3l1.45.05v3.7l.05.15H8.7l-.25-.45.05-.3V58.5h23.95z"/><path fill="#3E3F46" d="M33.9 58.55l-1.45-.05H8.5v3.15l-.05.3.25.45h25.25l-.05-.15v-3.7M12.7 8.25l-4.05.2-.15 15.1V43.8l21.15-.15 4.25-.1V8.15l-21.2.1z"/><path fill="#E5D2D2" d="M33.9 48.4l-4.25-.2-21.15-.15v4.3h25.4V48.4z"/></g><g id="d"><path d="M110.35 3.05Q111.7.5 108.6.15l-5.65.3q-2.1-.3-5-.05L5.65.25Q3.5.9 2.3 2.15l-.15.2Q0 4.25 0 6.8l.25 2.6q.15 1.75-.1 2.8v93l.3 3.65.05.15.8 1.5q1.2 1.45 3.6 1.5 4.4 1.05 13.1 1.05l30.1-.1-.2 3.3q-.5 7.25-.5 10.4v2.5q.45 2.3 2.7 2.3 2.8 0 3.25-4.45 0-5 .35-6.1v-7.95l5.45-.05-.2 5.55q.2 5.15 2.85 5.15 1.85 0 1.85-2.25l-.2-6.25-.05-2.2 35.75-.15q12.7 1.05 13-2.7.3-3.75-.6-4.7V104q0-4.75-1.05-7.9V89l-.15-85.95M87.6 16.2l-1 3.65q-1.9 10-6.75 15.1Q75.2 40 66.35 50.9q-6.5 8-8.85 11.55l-.55-.45-7.65-5.55q-12.2-9.2-16.65-21.7-.95-2.65-2.15-7.9-1.2-5.35-2.1-7.9l-1-4.25-.75-3.85-.6-1.8L75.1 9h.4l14.3-.05q-1.3.95-1.45 3.55l-.75 3.7m4.2 3.35q0-1.1.9-4.75l.9-3.85q0-1.4-.5-2l4.85-.05 3.3.05-.05 52.1V83.5h-.05v3.05l-11.65.2q2.4-4.25 4.6-12.6l-.25-1.1-.7-.5q-.95.8-1.7 2.85-.55 1.6-.55 2.25 0 2.9-4.1 6.8l-2.4 2.4-7.8.1v.1l-29.3.1H36.65q-11.4-.05-18.35.05l-1.4-4q-1.6-5.3-1.6-9.1l.7-5.05q-.95.4-1.3 3l-.7 4q-.7 1.75-.95 4.25l-.1 4q0 1.6.85 2.95l-3.95.05V12.8L9.5 9.05h11.15l-.2 1.15q0 2.1 3 13.6 3.1 11.9 4.75 15.6 3.95 8.8 15.25 19.3 10.6 9.9 14.6 9.9.65 0 1.3-.5l.45-.4q2.35-1.35 8.7-9.55L79.45 44q4.95-5.45 8.4-11.8 3.95-7.35 3.95-12.65m9.3 78.8v1.05h.4l.45 3.9-2.8.1-22.55-.05v-.05h-1v-.05q0-.7-2.1-4.25-2.25-3.85-4.55-6.85l-.05-.1 7.7.05v.1l24.55.35-.05 5.8m-91.25-6.5l9.6.15.9.6.25-.35-.15-.25 16.2-.05h5.6q-5.3 5.55-5.3 9.6 0 .5 1.6 1.65l-26.9-.1-1.8-.15v-11.1m44.7 6.05l-.25-3.4 3.15 5.35q.15 1.5.6 3.4h-4.3q.8-4.15.8-5.35m-6.75-5.95h2q-1.25 1-1.5 3.6-.55 5.2-1.25 5.95-.25-.25-2.2-.95l-2.25-.85 3-4.35 2.2-3.4m14.75.1q.65 1.4 3.2 4.4l3.9 4.55-4.85.7-3.3-5.85q-1.35-2.4-2.6-3.85l3.65.05z"/><path fill="#3E3F46" d="M65.75 96.45q-2.55-3-3.2-4.4L58.9 92q1.25 1.45 2.6 3.85l3.3 5.85 4.85-.7-3.9-4.55m-15.95-4.5h-2l-2.2 3.4-3 4.35 2.25.85q1.95.7 2.2.95.7-.75 1.25-5.95.25-2.6 1.5-3.6m4.5 2.55l.25 3.4q0 1.2-.8 5.35h4.3q-.45-1.9-.6-3.4L54.3 94.5M19.45 92l-9.6-.15v11.1l1.8.15 26.9.1q-1.6-1.15-1.6-1.65 0-4.05 5.3-9.6h-5.6l-16.2.05.15.25-.25.35-.9-.6m81.65 6.6v-.25l.05-5.8-24.55-.35v-.1l-7.7-.05.05.1q2.3 3 4.55 6.85 2.1 3.55 2.1 4.25v.05h1v.05l22.55.05 2.8-.1-.45-3.9h-.4v-.8M68.35 70.15q-2.95.05-2.95 2.8 0 3 3 3 1.15 0 2.05-.95.85-.9.85-1.95 0-2.9-2.95-2.9m19.1.55q.55-1.25.55-3.55 0-2.9-1.8-5.1-1.7-2.1-3.95-2.45-2.4-.35-3.95 1.7-1.8 2.35-1.8 7.3 0 1.35.9 2.65 1.55 2.25 5 2.25 3.8 0 5.05-2.8m7.25-26.6q.8-.9.8-1.95 0-2.45-2.8-2.6-2.8-.2-2.8 2.5l.25 1.25Q90.8 45 92.7 45q1.2 0 2-.9z"/><path fill="#4C4D55" d="M92.7 14.8q-.9 3.65-.9 4.75 0 5.3-3.95 12.65-3.45 6.35-8.4 11.8L68.5 58.15q-6.35 8.2-8.7 9.55l-.45.4q-.65.5-1.3.5-4 0-14.6-9.9-11.3-10.5-15.25-19.3-1.65-3.7-4.75-15.6-3-11.5-3-13.6l.2-1.15H9.5l.35 3.75v74.5l3.95-.05q-.85-1.35-.85-2.95l.1-4q.25-2.5.95-4.25l.7-4q.35-2.6 1.3-3l-.7 5.05q0 3.8 1.6 9.1l1.4 4q6.95-.1 18.35-.05H47.3l29.3-.1v-.1l7.8-.1 2.4-2.4q4.1-3.9 4.1-6.8 0-.65.55-2.25.75-2.05 1.7-2.85l.7.5.25 1.1q-2.2 8.35-4.6 12.6l11.65-.2V83.5h.05V61.05l.05-52.1-3.3-.05-4.85.05q.5.6.5 2l-.9 3.85m2.8 27.35q0 1.05-.8 1.95-.8.9-2 .9-1.9 0-2.55-1.7l-.25-1.25q0-2.7 2.8-2.5 2.8.15 2.8 2.6m-10.3 8.1q0 2.5-1.4 3.95-1.15-1.6-1.3-2.15l-.1-2q0-1.3.25-2.45 2.55-.9 2.55 2.65m2.8 16.9q0 2.3-.55 3.55-1.25 2.8-5.05 2.8-3.45 0-5-2.25-.9-1.3-.9-2.65 0-4.95 1.8-7.3 1.55-2.05 3.95-1.7 2.25.35 3.95 2.45 1.8 2.2 1.8 5.1M18.75 49q1.7-2.05 3.95-2.7 5.7-1.8 5.7 6.65 0 4.95-5 4.95-3.75 0-5.4-1.95-1.05-1.2-1.05-2.7 0-2.1 1.8-4.25m11.65 5.9q3.15 0 3.15 3.15 0 .9-.55 1.8-.85 1.35-2.6 1.35-1.9 0-2.7-1.35-.45-.8-.45-1.8 0-3.15 3.15-3.15m-2.5 11.15q0 1-.7 1.9-.9 1.1-2.4 1.1-1.85 0-2.6-1.4-.45-.75-.45-1.6 0-2.85 3.1-3 3.05-.1 3.05 3m37.5 6.9q0-2.75 2.95-2.8 2.95 0 2.95 2.9 0 1.05-.85 1.95-.9.95-2.05.95-3 0-3-3z"/><path fill="#464646" d="M27.2 67.95q.7-.9.7-1.9 0-3.1-3.05-3-3.1.15-3.1 3 0 .85.45 1.6.75 1.4 2.6 1.4 1.5 0 2.4-1.1m6.35-9.9q0-3.15-3.15-3.15t-3.15 3.15q0 1 .45 1.8.8 1.35 2.7 1.35 1.75 0 2.6-1.35.55-.9.55-1.8M22.7 46.3q-2.25.65-3.95 2.7-1.8 2.15-1.8 4.25 0 1.5 1.05 2.7 1.65 1.95 5.4 1.95 5 0 5-4.95 0-8.45-5.7-6.65m61.1 7.9q1.4-1.45 1.4-3.95 0-3.55-2.55-2.65-.25 1.15-.25 2.45l.1 2q.15.55 1.3 2.15z"/><path fill="#E5D2D2" d="M86.6 19.85l1-3.65.75-3.7q.15-2.6 1.45-3.55L75.5 9h-.4l-49.05.05.6 1.8.75 3.85 1 4.25q.9 2.55 2.1 7.9 1.2 5.25 2.15 7.9 4.45 12.5 16.65 21.7L56.95 62l.55.45q2.35-3.55 8.85-11.55Q75.2 40 79.85 34.95q4.85-5.1 6.75-15.1z"/></g><g id="e"><path d="M18.1-6.45q-1.75-6.5-8.65-9.55-6.5-2.9-13.9-1.45-7.85 1.35-11.75 6.7-4.5 6.05-2.1 15.1l.65 2.75q1.05 3.3 2.9 5.6 6 7.55 18.3 4.25Q16.3 13.55 18.7 4.7q1.2-4.45-.6-11.15M12.75-4.9l.35 1.3q.6 3.05.3 5.15l-.55 2.5-.65 1.55L10 8.8q-1.85 2.4-6 3.25l-6.55.2-3.65-1.05q-1.3-.45-2.95-1.5-1.65-1.05-3.2-3.1-1.95-2.55-1.95-5.2 0-7.35 4.2-11.4 3.8-3.65 9.05-3.55 5.2.1 8.15 1.7 2.95 1.6 4.15 3.65 1.15 2.05 1.5 3.3z"/><path fill="#CBA3A3" d="M13.1-3.6l-.35-1.3q-.35-1.25-1.5-3.3-1.2-2.05-4.15-3.65t-8.15-1.7q-5.25-.1-9.05 3.55-4.2 4.05-4.2 11.4 0 2.65 1.95 5.2 1.55 2.05 3.2 3.1 1.65 1.05 2.95 1.5l3.65 1.05 6.55-.2q4.15-.85 6-3.25l2.2-3.2.65-1.55.55-2.5q.3-2.1-.3-5.15z"/></g><path d="M-11.15-2.75l-.3 1.7q-.2 1.2.15 2.7.35 1.95 1.3 3.2 1.35 1.65 3.4 1.9 2.1.3 3.7-1.05l.8-.8.65-1.35Q-.9 1.8-1-1.85l-.2-2.3Q-1.6-6-2.8-7.45l-1-.95q-.8-.6-1.95-.75l-2.65.35q-.9.55-1.65 2.05l-.55 1.25-.55 2.75M-7.9-1.5l.3-1.5.3-1.35.3-.8.45-.65.3-.15.3.15.7.7.1.2.5 1.4q.15.65.15 1.9L-4.55.3l-.1 1.5q-.2.9-.7 1.15l-.5.15-.95-.2-.7-.75-.25-.7L-8 .25l.1-1.75M9.75-7.75l-1.9-.1q-.75.45-1.2 1.65L5.15-3l-1 1.55q-.4-3.4-.45-5.05-.1-1.45-.4-1.9-.5-.95-1.6-.85-1.05.1-1.5 1.1-.15.4-.15 1.3L.1-4.9l.35 2.5.15 5.8q0 .9.25 1.45.35.65 1.2.8l1.4-.2.95-1.05L7.1.75l.15 2.65-.1.45.1 1.05.25.6q.2.7.8.85.6.1 1-.6l.15-.3.1-.2.35-1.35.15-1.7.05-1.8.15-.8-.05-1 .05-1.65-.05-2.5.15-.4q.35-1.1-.6-1.8z" id="f"/><g id="g"><path d="M43.75 33.4q2.6-5.75 2.6-13.4 0-9.55-7.25-15.2Q32.45-.4 23.2.05 13.6.5 7.25 6.85 0 14.1 0 26.5q0 5.5 3.7 10 6.5 7.85 22.25 7.85 12.85 0 17.8-10.95M25.2 7.7q5.25 0 9.5 3.3 5.1 3.95 5.1 10.6 0 8.85-6.85 12.7-4.8 2.65-12.55 2.65-4.15 0-8.3-4.25-4.45-4.5-4.45-9.9 0-7.95 7.2-12.15Q19.95 7.7 25.2 7.7z"/><path fill="#E5D2D2" d="M34.7 11q-4.25-3.3-9.5-3.3t-10.35 2.95q-7.2 4.2-7.2 12.15 0 5.4 4.45 9.9 4.15 4.25 8.3 4.25 7.75 0 12.55-2.65 6.85-3.85 6.85-12.7 0-6.65-5.1-10.6z"/></g><g id="h"><path d="M165.9 79.9q0-6.35-3.85-23.8-3.95-17.6-6.15-20.85l-7.95-11.75q-5.6-6.6-15.3-10.8-.9-1.5-9.6-4.95t-18.2-6.4Q95.3-1.6 72 1.85 32.1 7.7 13.25 39.6 0 61.95 0 88.7q0 62.45 82.25 76.45h18.65q42.05-10.3 56.65-39.2 5.4-10.7 7.25-24.4 1.1-8.2 1.1-21.65m-20.5-41.5q10.5 16.45 10.5 41.55 0 22.95-7 39.35-15.15 35.4-57.65 35.4-47.3 0-67.9-30.15-6.8-10-9.95-22.35-1.95-7.8-1.95-13.5Q11.45 65.8 23 47q16.45-26.75 52.25-35.1 50.8-3.85 70.15 26.5z"/><path fill="#E5D2D2" d="M155.9 79.95q0-25.1-10.5-41.55-19.35-30.35-70.15-26.5Q39.45 20.25 23 47 11.45 65.8 11.45 88.7q0 5.7 1.95 13.5 3.15 12.35 9.95 22.35 20.6 30.15 67.9 30.15 42.5 0 57.65-35.4 7-16.4 7-39.35z"/></g><g id="i"><path d="M95.85-2.15l-.9.7q-1.2-1.5-3.3-2.7-7-4.1-22.65-3.65-40.15 5.4-63.25 33-8.85 10.6-13.7 22.9-4.15 10.6-4.15 19 0 16.35 6.8 31.8Q5.3 123 27.7 123q3.4 0 4.4-1.8.6-1.05.6-3.9l-2.85-5.95Q27 105.45 27 99.7q0-9.15 4.55-23.7l1.85-5.15Q32.35 75 31.3 80.5l.4 1.55.05.1q-.45.5-.45 1.15 0 1.3.25 1.65.5.7 2.4 1.1l21.15.75q21.7 0 21.7-5.9l.05-.1q2.5-3.35 4.9-10.4l.2-.6.55 7.5q0 2.05.15 2.7.25 1.2.95 2.05l.1.25.2.05.2.15.35-.1.7.1 2.95.2q11.7 0 19.15-2.4l.8-.25q.55.5 1.5.5 1 0 1.8-1.1l1.35.45q4.65-1.65 7.6-11.3 2.3-7.5 2.3-13.2-.7-9.75-1.95-16.35l.2.35q6.55 11.4 6.55 21.8 0 6.35-1.3 13.45l-1.05 6.25q-1.25.75-1.25 1.4 0 2.25 1.6 2.9 3.45 1.4 16.3 1.4l5.4-.55-1.2 5.15q0 8.6-5.6 19.2l-5.6 10 .2 1.5q.55 1.3 2.4 1.3l1.15-.1 2.05.3q20.5 0 30.85-18.05 3.45-6.1 5.3-13.5 1.35-5.3 1.35-8.35 0-10.8-2.25-16.6-2.15-5.5-3.8-10.55-1.2-6.75-4.3-17.05-4.7-15.65-8.05-21.5-3.45-5.9-9.9-11.65-6.65-6-15.5-10.95-11.75-7.4-27.85-2.4-6.15 1.95-10.5 5.05M169.8 81.1q-.6 12.75-4.1 17-2.1 2.55-16.85 11.25l-1.6 1Q149.3 104 151 94.6q0-7.5-.3-11.2l.3-1.6q0-5.8-13.6-4.25l-5.2.9v-.95l-.5-10.8-1.1-16q-3.6-16.35-10.15-22.8-2.55-2.55-4.35-2.1-1 .25-1.45 1.35l-.1.05q-.45.4-.45 1.7l1.3 4.05q1.3 3.65 1.3 5.15 0 8.5-1.75 19.75l-1 5.7.2-7.9q.3-10.75-1.3-20.9-3.15-20.15-12.7-20.15l-3.25.25v.3q8.5.45 11.75 17.85 1.75 9.45 1.75 22.95 0 6.9-1.55 14.2L108 74.3q-16.9 1.25-22.35 3.4l.45-8.35.4-8.65-.05-5.3q-.3-3.95-1.55-5.5l-.4.35-.8-1.95q-1.35 1.95-2.9 7.5l-2.4 8.4q-.35 1-4.9 8.4l-1.75 2.95q-2.2 1.5-5.4 2.55l-5.9-.1-24.95.1 1.2-7.9q1.4-7.85 1.4-9.2l-.15-1.4-.45-.4-1.4 2.9-.2-1.4-1-1.5q-7.4 9.15-11.2 22.05-3.3 11.05-3.3 22.35 0 1.2.7 4.6l1.1 5.6q-7.25-.05-16.3-12.8-8.3-11.6-8.3-17.3l-.7-8.35-.7-8.35q0-3.5 2.85-12.1 4.1-12.4 11.3-22.7Q32.45.5 74.5.5q6.95 0 11.35 2.65 4.15 2.5 6.8 2.65l.3.35 1.55.25q.7 0 6.9-3.45T114-.5q23.45 0 38.3 24.4 12.8 21.05 17.5 57.2M7.9 69.3l.65 1q2.4-17.25 9.55-29.05Q27.8 25.3 49.25 12.1 25.6 25.45 15.9 39.4 7.45 51.5 7.45 67.75q0 .85.45 1.55m85.95-50.65q.5-.5.5-2.45 0-3.95-7.05-4.2-6.25-.2-15.45 2.5-9.05 2.6-15.45 6.4-7.05 4.2-7.05 7.7 0 .75.15 1 .45.85 2.05.85.6 0 7.85-5.9 8.2-5.95 13.45-5.95l15.9.5q-4.55 8.15-4.55 15.95l.25 1.15q.35 1 .85 1.5l.95-.3q.2-8.9 4.1-14.4l2.6-3.25.65-.9.25-.2z"/><path fill="#232323" d="M165.7 98.1q3.5-4.25 4.1-17-4.7-36.15-17.5-57.2Q137.45-.5 114-.5q-6.4 0-12.6 3.45-6.2 3.45-6.9 3.45l-1.55-.25-.3-.35q-2.65-.15-6.8-2.65Q81.45.5 74.5.5 32.45.5 10.35 32.2 3.15 42.5-.95 54.9-3.8 63.5-3.8 67l.7 8.35.7 8.35q0 5.7 8.3 17.3 9.05 12.75 16.3 12.8l-1.1-5.6q-.7-3.4-.7-4.6 0-11.3 3.3-22.35 3.8-12.9 11.2-22.05l1 1.5.2 1.4 1.4-2.9.45.4.15 1.4q0 1.35-1.4 9.2l-1.2 7.9 24.95-.1 5.9.1q3.2-1.05 5.4-2.55l1.75-2.95q4.55-7.4 4.9-8.4l2.4-8.4q1.55-5.55 2.9-7.5l.8 1.95.4-.35q1.25 1.55 1.55 5.5l.05 5.3-.4 8.65-.45 8.35q5.45-2.15 22.35-3.4l.85-4.15q1.55-7.3 1.55-14.2 0-13.5-1.75-22.95-3.25-17.4-11.75-17.85v-.3l3.25-.25q9.55 0 12.7 20.15 1.6 10.15 1.3 20.9l-.2 7.9 1-5.7q1.75-11.25 1.75-19.75 0-1.5-1.3-5.15l-1.3-4.05q0-1.3.45-1.7l.1-.05q.45-1.1 1.45-1.35 1.8-.45 4.35 2.1 6.55 6.45 10.15 22.8l1.1 16 .5 10.8v.95l5.2-.9Q151 76 151 81.8l-.3 1.6q.3 3.7.3 11.2-1.7 9.4-3.75 15.75l1.6-1q14.75-8.7 16.85-11.25M94.35 16.2q0 1.95-.5 2.45l-.25.2-.65.9-2.6 3.25q-3.9 5.5-4.1 14.4l-.95.3q-.5-.5-.85-1.5l-.25-1.15q0-7.8 4.55-15.95l-15.9-.5q-5.25 0-13.45 5.95-7.25 5.9-7.85 5.9-1.6 0-2.05-.85-.15-.25-.15-1 0-3.5 7.05-7.7 6.4-3.8 15.45-6.4 9.2-2.7 15.45-2.5 7.05.25 7.05 4.2M8.55 70.3l-.65-1q-.45-.7-.45-1.55 0-16.25 8.45-28.35 9.7-13.95 33.35-27.3Q27.8 25.3 18.1 41.25q-7.15 11.8-9.55 29.05z"/></g><g id="j"><path d="M18.35-62.8q-8.7 3.65-14.25 8.95-6.15 5.9-6.45 12.45-3.85-4.2-8.9-5.1-6-1.05-13 2.55-5 2.6-9.05 6.75-24.35 6.4-40.25 34.65Q-80.05 9-83.75 22q-3.3 11.7-3.3 20.35 0 6.4.3 8.55.65 4.7 3.3 8.75l.8-.25q2.9-5.75 2.9-7.4l.05-2.9q5.65-17.6 20.85-32.8 4.15-4.15 8.8-7.75l3.5-2.6Q-25.9-8.85 3.4-13.95h15.65q16.1 3.75 30.1 16.4 11.5 10.4 17.15 22.1 6.85 14.15 11.2 31.3l2.3 8.5q1.1 3 2.55 3 1.1 0 1.75-.75.65-.75.65-1.95v-.35l1-1.2q.5-1.1.5-2.6 0-13.35.75-22.55.7-9.2-5.35-24.6-6.1-15.4-8.85-21.05t-7.05-11Q59.85-26 53.2-32.1q-6.55-4.8-12.8-7.15l-4.65-1.2.55-1.55q2-5.7 2-15.35 0-2.3-.5-4.7 1.3-.85 1.3-1.5 0-2-2.55-2.6-1.15-2.15-2.8-.25H32.6q-6.3.3-14.25 3.6m-7.4 11.15l7.15-2.5 7.8-2.75 5.5-2.05v.3l-.3 6.35-1 4.95-.3 1.15q-1 3.35-3.5 6l-.85.65q-2.5 1.55-9.7 2.3l2.65-2.5q3.2-3.35 4.6-5.8 1-1.85 1-3.25l-.1-.85-6.15 8q-3.15 3.9-8.15 3.95l-2.4.15L6.3-39q-1.1-1.25-2.8-1.45l1.2-2.3q2.4-4.7 4.35-7.05l1.9-1.85m15.2 24.05l-3.1-1-3.7-.75q3.55-.05 6.45-1.05 2.9-1 5.15-3 1.2-1.1 2.2-2.45 4.2 1.65 7.9 3.6 4.55 2.35 8.4 5.1 7.05 5 11.7 11.35l2.15 3.15 2.2 4.1q1.8 3.75 3.25 8.2l.25.9 2.4 8.6 1 4.05 1.05 4.3 4.3 20.3q-4.6-11.25-11-21.7l-.05-.1q-3.75-6.15-7.65-11.25-3.05-4.1-6.2-7.5l-5.6-5.55q-3.15-2.8-6.4-5-3.2-2.25-6.4-3.85-7.25-3.55-14.85-4.3H2.85l-2.75.2q-9.8.9-20.4 5-3.55 1.35-7.15 3.1-.8.35-1.55.75-10 5-19.5 12.1-3.25 2.4-6.45 5.1l-.4.4q-11.55 9.75-19 19.95 3.75-7.85 8.8-14.45l2.6-3.2 4.9-5.35 2.95-2.8Q-44.2-10.7-28.85-18.7l-.15-.25-2.1.6Q-44.55-14.3-59.15-.1l-5.6 5.75-.8.9q-5.6 6.15-9.6 12.15 1.95-6.65 4.75-12.85L-67.65.3q4.7-8.7 11.1-16.1l.25-.35q2.6-3.05 5.6-5.85l.4-.35q6.1-5.9 13.55-10.8-2.2 3-2.2 5.05l.3 1.5q.5 1.5 2.15 2.8 2.5 1.9 6.85 2.55l4.9.3h.15q11.8 0 18.7-4 1.6-.95 4.25-3.05 1.85-1.5 3-1.9l.2-.1-.2-.45-.15-.2.15-.2Q.25-32-.35-32.1l-1.8.45-.55.2Q-7.15-30-14.5-30l-3.15-.2-2.55.05.5.6.25.65 7.25.75 5.55.35q-5.35 3.05-8.2 3.05-8.7 0-13-1.6l-1.6-.6-3.7-1.3.6-.9q2-3.3 4.6-5.75 2.55-2.4 5.25-3.5 2.4-1 4.8-1l4.8.35 5.75 1.3 3.85 1.15 1.6.45 1.45-.3.7.1q.7 0 2.3-2.55l.15-.2 1.4 1.4.25.4q.8 1.3.8 2.55v.05q0 .6-1.3 1.8-1.3 1.25-1.3 1.55 0 .85.2.9l.2.1.15.05.05.15 1 .15q1.25 0 2.45-1.65l.15-.15q1.15.7 2 1.05 2.25.85 5.65 1.2-3.35.2-6.65 1.3 1.3.9 6.75 1.85l6.9.85q4.8 0 7.85 1.55t5.05 1.55l1.05-.2.2-.35-4.7-2.5-4.7-2.1z"/><path fill="#FFF" d="M-59.05 5.75Q-58 4.35-58 2.9l-.05-.75-4.9 5.35h.35q2.25 0 3.55-1.75M-29-12.4q.75-.4 1.55-.75 3.6-1.75 7.15-3.1-.35-1.15-1.2-1.95-1.35-1.3-3.25-1.35-1.9-.05-3.25 1.1l-.2.2q-1.25 1.25-1.25 3.4l.45 2.45m-9.65-14.2l-.3 1.8q0 1.35.95 2.9 1.5 2.4 4.45 2.4l2-.35q.9-.35 1.55-1.05l.35-.35Q-34-21.9-36.5-23.8q-1.65-1.3-2.15-2.8m6.1-2.55l-.6.9 3.7 1.3-.85-.9q-1-.95-2.25-1.3m19.5-8.65l-.05-1.25-4.8-.35q-2.4 0-4.8 1v.3q0 1.3.85 2.6 1.3 2.1 4.2 2.1 2.3 0 3.55-1.5 1.05-1.25 1.05-2.9M-48.5-.3q-1.05-.55-2.35-.55-1.95 0-3.3 1.2-1.5 1.3-1.5 3.6l.3 1.25.4-.4q3.2-2.7 6.45-5.1m-10.65.2l-.3-.3q-1.3-1.2-3.15-1.35-3.45-.3-4.3 2.45l-.3 2.15.6 2.25 1.05 1.45.8-.9 5.6-5.75m10.55-14.65q1.05-1.4 1.05-2.9 0-2-1.45-3.3L-50.7-22q-3 2.8-5.6 5.85l.15.7q1.1 2.5 4 2.5 2.25 0 3.55-1.8m114.9 28.4l.55 2.25q1.15 2.5 3.95 2.5 1.55 0 2.65-.9l-1.05-4.3-1-4.05-.55-.1q-4.55-.4-4.55 4.6M58.45-10.7l.3 1.85q.6 1.65 2.7 1.65 2.3 0 4.05-1.35l-2.2-4.1-2.15-3.15q-2.7.65-2.7 5.1M48-9l-.75.7 5.6 5.55.4-.8q.6-1.3.6-2.8l-.25-2.1q-.65-1.45-2.9-1.45-1.45 0-2.7.9m1.45-18.15q-3.85-2.75-8.4-5.1H41q-1.55 1.5-1.55 3.65 0 1.15 1.45 3.35 1.9 2.8 4.35 2.8 1.8 0 3.15-1.95.9-1.4 1.05-2.75m-10.75 6.2q-4 .9-4.25 3.8 3.2 1.6 6.4 3.85l.6-.8Q43-16.3 43-17.5q0-4.4-4.3-3.45m-34-6.3q-2-.2-3.35.9-1.5 1.3-1.5 3.75l.25 1.35 2.75-.2H9.5l.05-.8q0-2.1-1.5-3.55-.6-.55-1.3-.9l-2.05-.55M3.75-38l-1.2-.9q-1.6 2.55-2.3 2.55l-.7-.1-1.45.3-1.6-.45-.2 1.85.55 2.45.45.85.55-.2 1.8-.45q.6.1 1.7 1.25l-.15.2.15.2.2.45-.2.1 1.6-.45-.2-.1q-.2-.05-.2-.9 0-.3 1.3-1.55 1.3-1.2 1.3-1.8v-.05q0-1.25-.8-2.55l-.6-.7M63.6 6.05q2.1 0 3.3-1.75.8-1.3.8-2.5L67.45.05q-.8-2.25-3.9-2.45-4.2-.25-4.2 4.15 0 1.15.6 2.3 1.1 2 3.65 2M25.8-30.4l-.05.85q0 1 .4 1.95l4.7 2.1q1-.45 1.7-1.55.75-1.3.75-2.5 0-3.3-2.35-3.85-2.25 2-5.15 3m4-15.8l.3-1.15-1.8-.3q-3.45 0-4.3 2.65-.3.85-.3 2.05l.7 2.15 1.05 1.25.85-.65q2.5-2.65 3.5-6m-11.4-5.65l-.3-2.3-7.15 2.5-1.9 1.85.2.45q1.1 2.4 4.3 2.4 2.15 0 3.55-1.45 1.3-1.45 1.3-3.45z"/><path fill="#AA7878" d="M-13.1-39.05l.05 1.25q0 1.65-1.05 2.9-1.25 1.5-3.55 1.5-2.9 0-4.2-2.1-.85-1.3-.85-2.6v-.3q-2.7 1.1-5.25 3.5-2.6 2.45-4.6 5.75 1.25.35 2.25 1.3l.85.9 1.6.6q4.3 1.6 13 1.6 2.85 0 8.2-3.05l-5.55-.35-7.25-.75-.25-.65-.5-.6 2.55-.05 3.15.2q7.35 0 11.8-1.45l-.45-.85-.55-2.45.2-1.85-3.85-1.15-5.75-1.3m46.25 3.2q-1 1.35-2.2 2.45 2.35.55 2.35 3.85 0 1.2-.75 2.5-.7 1.1-1.7 1.55l4.7 2.5-.2.35-1.05.2q-2 0-5.05-1.55t-7.85-1.55l-6.9-.85q-5.45-.95-6.75-1.85 3.3-1.1 6.65-1.3-3.4-.35-5.65-1.2-.85-.35-2-1.05l-.15.15Q5.4-30 4.15-30l-1-.15-.05-.15-.15-.05-1.6.45q-1.15.4-3 1.9-2.65 2.1-4.25 3.05-6.9 4-18.7 4h-.15l-4.9-.3-.35.35q-.65.7-1.55 1.05l-2 .35q-2.95 0-4.45-2.4-.95-1.55-.95-2.9l.3-1.8-.3-1.5q0-2.05 2.2-5.05-7.45 4.9-13.55 10.8l-.4.35 1.7 1.05q1.45 1.3 1.45 3.3 0 1.5-1.05 2.9-1.3 1.8-3.55 1.8-2.9 0-4-2.5l-.15-.7-.25.35q-6.4 7.4-11.1 16.1l-2.75 5.55q-2.8 6.2-4.75 12.85 4-6 9.6-12.15L-66.6 5.1l-.6-2.25.3-2.15q.85-2.75 4.3-2.45 1.85.15 3.15 1.35l.3.3q14.6-14.2 28.05-18.25l2.1-.6.15.25Q-44.2-10.7-55.1-.65l-2.95 2.8.05.75q0 1.45-1.05 2.85-1.3 1.75-3.55 1.75h-.35l-2.6 3.2q-5.05 6.6-8.8 14.45 7.45-10.2 19-19.95l-.3-1.25q0-2.3 1.5-3.6 1.35-1.2 3.3-1.2 1.3 0 2.35.55Q-39-7.4-29-12.4l-.45-2.45q0-2.15 1.25-3.4l.2-.2q1.35-1.15 3.25-1.1 1.9.05 3.25 1.35.85.8 1.2 1.95 10.6-4.1 20.4-5l-.25-1.35q0-2.45 1.5-3.75 1.35-1.1 3.35-.9l2.05.55q.7.35 1.3.9 1.5 1.45 1.5 3.55l-.05.8h10.1q7.6.75 14.85 4.3.25-2.9 4.25-3.8Q43-21.9 43-17.5q0 1.2-1.55 3.4l-.6.8q3.25 2.2 6.4 5L48-9q1.25-.9 2.7-.9 2.25 0 2.9 1.45l.25 2.1q0 1.5-.6 2.8l-.4.8q3.15 3.4 6.2 7.5 3.9 5.1 7.65 11.25l.05.1q6.4 10.45 11 21.7l-4.3-20.3q-1.1.9-2.65.9-2.8 0-3.95-2.5l-.55-2.25q0-5 4.55-4.6l.55.1L69 .55l-.25-.9Q67.3-4.8 65.5-8.55 63.75-7.2 61.45-7.2q-2.1 0-2.7-1.65l-.3-1.85q0-4.45 2.7-5.1-4.65-6.35-11.7-11.35-.15 1.35-1.05 2.75-1.35 1.95-3.15 1.95-2.45 0-4.35-2.8-1.45-2.2-1.45-3.35 0-2.15 1.55-3.65h.05q-3.7-1.95-7.9-3.6M66.9 4.3q-1.2 1.75-3.3 1.75-2.55 0-3.65-2-.6-1.15-.6-2.3 0-4.4 4.2-4.15 3.1.2 3.9 2.45l.25 1.75q0 1.2-.8 2.5M23.05-28.6l3.1 1q-.4-.95-.4-1.95l.05-.85q-2.9 1-6.45 1.05l3.7.75M18.1-54.15l.3 2.3q0 2-1.3 3.45-1.4 1.45-3.55 1.45-3.2 0-4.3-2.4l-.2-.45Q7.1-47.45 4.7-42.75l-1.2 2.3q1.7.2 2.8 1.45l.9 1.45 2.4-.15q5-.05 8.15-3.95l6.15-8 .1.85q0 1.4-1 3.25-1.4 2.45-4.6 5.8l-2.65 2.5q7.2-.75 9.7-2.3L24.4-40.8l-.7-2.15q0-1.2.3-2.05.85-2.65 4.3-2.65l1.8.3 1-4.95.3-6.35v-.3l-5.5 2.05-7.8 2.75z"/></g><g id="k"><path d="M15 8.25q0-3.4-2.35-5.75Q10.5.3 7.5.05 4.4-.2 2.35 1.9 0 4.3 0 8.95l.2 3.25q1.15 3.1 6.15 3.1 5.7 0 7.65-2.75 1-1.45 1-4.3m-4-.3l-.15 1.6q-.7 1.5-3.6 1.5-3.2-1.6-3.2-2.35 0-4.35 3.5-4.15 3.45.2 3.45 3.4z"/><path fill="#FFF" d="M10.85 9.55l.15-1.6q0-3.2-3.45-3.4-3.5-.2-3.5 4.15 0 .75 3.2 2.35 2.9 0 3.6-1.5z"/></g><path d="M27.75 0h-3L2.9.85Q.9 1.3.35 2.15q-.3.45-.3 1.8l-.05 2q.25.8 2.15 1.15l24.1.75q5.4 0 5.4-3.75 0-1.1-.75-2.35Q29.8 0 27.75 0z" id="l"/><g id="m"><path d="M25.65 14.3q-.75-1.1-2.05-1.5-1.95-.6-4.95.65l-2.3 1.1q-1.4.7-2.4.95l-3.05.5q-6.65.6-9.95.15l-5.75-1.1-3.1-.05q-1 .35-1 .95 0 .5.6.8l1 .35q.65.3 1.8 1.15l1.5.5q.95.3 2.45 1.4 1.6 1.15 2.4 1.5l2.95.65 10.15.35 1.9-.15 1.4-.5 5.6-2.55q2.75-1.25 3.25-2.75.35-1.2-.45-2.4M11.6-10q-3.8-1-9.35-4.85-6.5-4.55-9.05-5.7-4.3-2-9.2-2.1-4.85-.1-9.25 1.7-7.5 3.05-13.15 11.15-3.8 5.45-7.7 15.6-1.1 3-1.1 4.6-.05 1.25.45 2.35.55 1.2 1.5 1.8 1.15.75 2.95.55l3.05-.7q23.5-7.45 47.85-7.6 4.4-.05 13.2.25l19.6 1.1L44 8.1q1.4-.2 2.25-1 1.9-1.9.2-6.25-1.4-3.9-3.45-7.7-2.2-4.25-4.75-5.3l-3.35-.5-3.5.55-9.9 2.25q-5.7.95-9.9-.15M6.25-4.55Q9.7-3.4 13.45-3.1q5.3.45 10.4-.9 2.85-.75 9.05-3.5 3.55 3.15 5.05 7.55L11.85-1.1l-22 .95q-.15-1.5-.45-2.55l5-.4 4.75-.3L4-4.3l2.25-.25m-33.4-.3l-5.65 1.6-.2.05q2.15-3.8 4.65-6.25 3.15-3.1 7.1-4.5 4.25-1.5 8.2-.6 1.85.45 4 1.55l3.65 2.15 3.6 2.3-3.4.25q-14.15 1.15-21.95 3.45m-9.55 9.9l.7-1.8.35.05q1.3.1 3.9-.85L-25.1.3l.05.3-.15 1.6-.05.25-11.45 2.6z"/><path fill="#FFF" d="M-36 3.25l-.7 1.8 11.45-2.6.05-.25.15-1.6-.05-.3-6.65 2.15q-2.6.95-3.9.85l-.35-.05m3.2-6.5l5.65-1.6q7.8-2.3 21.95-3.45l3.4-.25-3.6-2.3L-9.05-13q-2.15-1.1-4-1.55-3.95-.9-8.2.6-3.95 1.4-7.1 4.5Q-30.85-7-33-3.2l.2-.05m46.25.15q-3.75-.3-7.2-1.45L4-4.3l-4.85.9-4.75.3-5 .4q.3 1.05.45 2.55l22-.95L37.95.05q-1.5-4.4-5.05-7.55-6.2 2.75-9.05 3.5-5.1 1.35-10.4.9z"/></g></defs><use xlink:href="#a" transform="matrix(-.69946 -.38428 -.41998 .76445 56.35 169.6)"/><use xlink:href="#b" transform="matrix(.9736 .12347 -.12347 .9736 24 132.5)"/><use xlink:href="#c" transform="matrix(-.87225 0 0 .87225 75.85 191.5)"/><use xlink:href="#c" transform="matrix(-.87225 0 0 .87225 132 191.5)"/><use xlink:href="#a" transform="matrix(.6975 -.38788 .42392 .76227 116.5 169.2)"/><use xlink:href="#b" transform="matrix(-.9736 .12347 .12347 .9736 148.7 134)"/><use xlink:href="#d" transform="matrix(-.87225 0 0 .87225 133.9 125.65)"/><use xlink:href="#e" transform="matrix(-.87225 0 0 .87225 118.287 177.985)"/><use xlink:href="#f" transform="matrix(-.87225 0 0 .87225 118.287 177.985)"/><use xlink:href="#g" transform="rotate(-149.077 106.494 89.713) scale(.87224)"/><use xlink:href="#g" transform="matrix(.74596 -.45206 -.45206 -.74596 20.05 222.5)"/><use xlink:href="#h" transform="matrix(-.87064 -.05318 -.05318 .87064 165.1 33.25)"/><use xlink:href="#i" transform="matrix(-.87064 -.05318 -.05318 .87064 165.1 33.25)"/><use xlink:href="#j" transform="matrix(-.87064 -.05318 -.05318 .87064 89.015 63.515)"/><use xlink:href="#k" transform="matrix(-.87064 -.05318 -.05318 .87064 115.25 109.7)"/><g><use xlink:href="#k" transform="matrix(-.87064 -.05318 -.05318 .87064 61.4 106.95)"/></g><g><use xlink:href="#l" transform="matrix(-.8648 .1138 .1138 .8648 121 102.45)"/></g><g><use xlink:href="#l" transform="matrix(-.87064 -.05318 -.05318 .87064 70.2 96.25)"/></g><g><use xlink:href="#m" transform="matrix(-.64679 0 0 .64679 84.15 137)"/></g></svg>