<svg xmlns="http://www.w3.org/2000/svg" role="img" xmlns:xlink="http://www.w3.org/1999/xlink" viewBox="-124.92 -233.42 269.84 463.84"><defs><g id="Symbol_1652_0_Layer0_0_FILL"><path fill="#574E4E" d="M 60.25 17.6 L 58.6 10 42.3 13.4 25.6 16.85 Q 8.85 20.95 8.85 28.3 8.85 39.75 14.3 39.75 22.2 39.75 42.85 35.4 59.55 31.9 63.8 29.3 61.55 23.75 60.25 17.6 Z"/><path d="M 56.75 2.2 L 51 3.1 Q 44.05 3.1 30.4 6.65 L 10.05 12.45 Q 2.95 14.55 0.85 21.9 0 24.95 0 32.5 0 33.45 0.35 35.2 0.9 38.2 2.05 40.7 5.7 48.45 13.95 48.45 L 23.35 47.45 Q 34.4 46 43.7 44.05 59.9 40.6 67.2 36.25 65.3 32.85 63.8 29.3 59.55 31.9 42.85 35.4 22.2 39.75 14.3 39.75 8.85 39.75 8.85 28.3 8.85 20.95 25.6 16.85 L 42.3 13.4 58.6 10 56.8 2.35 56.75 2.2 Z"/></g><g id="Symbol_1653_0_Layer0_0_FILL"><path d="M 56.7 23.15 Q 55.25 11.4 55 4.35 54.2 2.7 52.85 2.1 51.35 1.45 47.45 1.2 L 14.6 0.05 Q 4.5 -0.35 1.5 2.9 0.9 3.55 0.6 4.65 0.15 5.05 0.15 6.55 L 0 7.3 Q -0.05 7.8 0.35 8.25 0.45 13.85 1.2 25.05 2.05 37.15 2.6 40.05 2.9 41.75 2.3 48.5 1.65 55.85 2 59.65 3.1 73.05 16.15 69.45 L 35.5 69.45 Q 49.25 71.2 54.3 69.45 57.45 68.35 57.45 65.5 57.45 56.1 56.7 51.5 L 56.7 23.15 M 45.2 10.2 Q 45.65 10.25 45.9 10.5 45.9 15.85 47.3 25.45 L 47.3 30.5 47.3 32.85 47.3 53.35 48 55.45 48 59.9 14.05 59.9 13.05 46.1 13.05 45.8 12.7 40.45 12.4 36 Q 11.5 20.8 10.5 12.4 L 10.5 10.15 12.25 10.15 Q 32.55 10.15 41.25 9.8 L 43.4 10.2 45.2 10.2 Z"/><path fill="#574E4E" d="M 24.45 47.05 Q 23.25 46 21.9 43.05 L 13.05 46.1 14.05 59.9 48 59.9 48 55.45 47.3 53.35 47.3 32.85 38.9 36.55 38.95 37.85 Q 38.95 38.45 37.85 40.4 L 36.6 42.45 Q 35.8 41.5 34.5 38.3 32.5 39.05 30.2 39.95 L 25.7 41.65 26.05 44.65 25.65 45.65 24.45 47.05 Z"/><path fill="#3C3232" d="M 47.3 32.85 L 47.3 30.5 Q 44.5 30.4 37.45 32.3 L 35.65 30.1 Q 34.3 28.85 33.35 29 32.3 29.15 32.3 31.05 32.3 31.9 32.8 33.6 L 27.9 35.05 23.95 36.3 Q 21.6 30.6 18.15 30.9 L 18.05 32.15 Q 18.05 33.1 19.75 37.75 15.55 39.2 12.7 40.45 L 13.05 45.8 13.05 46.1 21.9 43.05 Q 23.25 46 24.45 47.05 L 25.65 45.65 26.05 44.65 25.7 41.65 30.2 39.95 Q 32.5 39.05 34.5 38.3 35.8 41.5 36.6 42.45 L 37.85 40.4 Q 38.95 38.45 38.95 37.85 L 38.9 36.55 47.3 32.85 Z"/><path fill="#6A6161" d="M 45.9 10.5 Q 45.65 10.25 45.2 10.2 L 43.4 10.2 41.25 9.8 Q 32.55 10.15 12.25 10.15 L 10.5 10.15 10.5 12.4 Q 11.5 20.8 12.4 36 L 12.7 40.45 Q 15.55 39.2 19.75 37.75 18.05 33.1 18.05 32.15 L 18.15 30.9 Q 21.6 30.6 23.95 36.3 L 27.9 35.05 32.8 33.6 Q 32.3 31.9 32.3 31.05 32.3 29.15 33.35 29 34.3 28.85 35.65 30.1 L 37.45 32.3 Q 44.5 30.4 47.3 30.5 L 47.3 25.45 Q 45.9 15.85 45.9 10.5 Z"/></g><g id="Symbol_1664_0_Layer1_0_FILL"><path d="M 46.9 -121.55 Q 29.2 -135.55 5.9 -135.95 -1.4 -135.55 -0.65 -135.95 L -9.6 -135.65 Q -18.2 -134.75 -29.65 -132.7 -35.65 -131.55 -46.6 -124.1 -52.45 -120.05 -56.65 -114.3 -58.85 -111.3 -62.55 -104.55 -67.2 -96 -70.1 -84.75 L -71.45 -78.85 -71.3 -78.85 Q -72.55 -72.95 -73.55 -65.7 L -75.9 -32.1 Q -78.05 1.15 -78.05 10.15 L -76.05 65.85 Q -74.7 90.1 -72.95 103.8 L -73.4 105.45 Q -73.8 108.45 -72.7 111 L -72.75 111.85 -72.75 112.35 -73 112.9 -72.95 113.9 -71.05 116.85 Q -67 122.7 -60 125.6 -50.3 128.8 -40.15 130.6 L -31.8 132.5 Q -7.1 138.45 17.75 133.4 L 29.9 132.75 Q 44.95 131.4 59.35 127.65 63.8 126.45 66.8 123.25 L 68.5 121.15 Q 70.65 119.15 71.75 116.45 72.8 113.85 72.4 111.7 L 74.65 84.85 Q 77.3 52.85 77.3 39.2 77.3 26.1 76.8 19.85 L 76.8 -0.9 Q 75.85 -8.85 75.3 -21.4 L 74.45 -43.4 Q 73.55 -61.75 71.2 -74.8 L 71 -74.8 Q 69.85 -81.4 68.35 -86.75 61.9 -109.75 46.9 -121.55 M 20.95 -124.6 L 21.95 -124.3 Q 46.05 -117.65 56.9 -95.1 61.05 -86.55 63.7 -75.05 L 63.9 -75.05 63.95 -74.8 Q 65.5 -68.1 66.55 -60.4 68.75 -43.55 68.75 -17.5 68.75 -4.15 69.15 0.15 L 69.15 21.25 Q 69.7 27.15 69.7 38.9 L 69.05 54.35 68.5 62.05 66.65 84.2 64.15 112.1 64.25 112.1 64.3 112.35 63.6 113.6 Q 63.25 114.15 63.2 114.85 L 60.9 118.1 Q 59.2 120 56.8 120.95 55.25 121.5 53.95 122.3 L 50.65 123.15 42.2 124.2 39 124.5 37.4 124.8 19.15 126.4 Q 0.65 127.75 -18.1 126.9 L -18.7 126.9 -19.55 126.85 -19.75 126.85 -20.8 127.4 -22.2 127.15 -22.75 126.5 -24.2 126.3 -31.65 125.25 Q -47.75 121.65 -62.25 113.35 L -62.45 113 -62.6 112.7 -62.7 112.4 Q -63.75 111.45 -64.05 110.1 L -64.45 108.4 -64.85 108.4 -64.95 106.7 -65.1 104.8 -66.45 88.75 Q -68.35 68.65 -68.4 63.45 L -69.1 31.85 -69.2 27.1 -69.55 10 Q -69.55 3.3 -67.8 -28 L -66.3 -54.15 -66.2 -55.5 -65.95 -58.7 -65.8 -60.7 Q -64.2 -70.9 -62.4 -78.6 L -62.4 -78.7 -62.5 -78.7 Q -61.2 -84.85 -59.75 -89.45 -55.7 -102.65 -49.15 -110.45 -42.05 -118.95 -30.6 -122.95 -18.75 -127.1 -0.55 -127.1 10.6 -127.1 19.9 -124.85 L 20.95 -124.6 Z"/><path fill="#4F4F4F" d="M -18.1 126.9 L -18.65 126.8 -18.7 126.9 -18.1 126.9 M -65.25 -58.95 L -65.8 -60.7 -65.95 -58.7 -65.25 -58.95 M -23.85 -69.1 L -22.65 -69.3 -22.65 -69.4 -22.65 -69.65 -22.75 -69.6 -23.85 -69.1 M 64.3 112.35 L 64.25 112.1 64.15 112.1 64.3 112.35 Z"/><path fill="#625555" d="M -23.35 33.9 L -25.35 32.15 -29.15 32 -33.85 32.15 -33.9 33.35 Q -34 36 -35.2 36.85 -35.8 37.3 -36.45 37.4 L -36.75 37.5 -36.8 37.4 -37.85 37.15 Q -39.15 36.6 -39.65 35.05 -39.9 34.15 -39.75 32.8 L -39.65 32.3 -47.25 32 -54.2 31.95 -54.1 32.55 Q -53.6 35.65 -54.6 36.9 -55.25 37.85 -56.55 37.95 -57.8 38.05 -58.65 37.2 -59.4 36.45 -59.75 34.05 L -60 31.9 -69.1 31.85 -68.4 63.45 Q -68.35 68.65 -66.45 88.75 L -65.1 104.8 -64.95 106.7 -64.85 108.4 -64.45 108.4 -64.05 110.1 Q -63.75 111.45 -62.7 112.4 L -62.6 112.7 -62.45 113 -62.25 113.35 Q -47.75 121.65 -31.65 125.25 L -24.2 126.3 -23.45 123 -23.4 121.5 -24.65 121.1 -26 120.1 -26.1 119.8 -26.15 119.45 -26.2 119.15 -26.25 118.8 -26.2 118.5 -26.1 118.2 -25.65 117.55 -25.35 117.25 -24.75 116.95 -24.2 116.75 -23.55 116.6 -22.15 116.8 -21.3 114.7 -21.2 114.5 Q -20.85 113.15 -19.95 112 L -19.4 109.7 -19.6 109.7 -18.9 108.4 -18.15 107.2 -17.9 106.75 -18.85 106.65 Q -20.35 106.35 -21.15 105.45 -21.8 104.7 -21.85 103.6 -21.85 102.5 -21.2 101.7 -20.35 100.8 -19.1 100.55 -17.6 100.25 -14.7 101.05 L -14.45 101.15 -11.4 96.25 -7.55 90.3 Q -9 87.35 -10.35 79.9 -11.35 73.9 -12.55 62.9 L -14.2 63.4 -16.15 64 -18.1 63.95 Q -19.25 63.55 -19.65 62.25 -20.1 60.9 -19.4 59.9 -18.8 59.05 -17.25 58.35 L -13.15 57.1 Q -14 49.8 -15.6 44.15 L -16.45 40 -17.05 37.1 -19.05 36.4 -23.35 33.9 M 17.8 -106.75 Q 15.35 -102.25 13.7 -99.7 L 14.9 -98.4 Q 16.2 -96.6 15.4 -95.4 14.85 -94.55 13.5 -94.55 L 13.45 -94.55 13.35 -94.55 11.8 -94.95 11.45 -95.1 10.55 -95.45 7.45 -92.35 3.05 -88.95 -2.25 -84.35 -4 -82.7 -3.7 -82.4 -2.45 -80.8 Q -1.95 -79.8 -2.1 -78.75 -2.3 -77.6 -3.2 -77.15 L -5.2 -77.1 -7.35 -78.35 -8.1 -78.95 Q -12.25 -75.5 -15.95 -73.6 L -18.7 -71.8 -18.35 -70.15 -18 -64.3 Q -18 -62.85 -11.85 -42.2 L -7.85 -42.25 Q -6.65 -42.35 -5.95 -41.85 L -5.65 -41.5 -5.15 -41.2 -5.4 -40.9 -5.35 -40.7 Q -5.3 -40 -5.7 -39.4 -6.35 -38.45 -7.9 -37.9 L -10.45 -37.3 -5.55 -20.85 -2.95 -21.6 0.8 -21.75 Q 1.85 -21.2 2.2 -19.95 2.5 -18.7 1.85 -17.75 1.1 -16.6 -1.5 -16 L -3.9 -15.4 0.45 -0.45 Q 1.2 2.4 7.75 7.55 L 13.3 11.9 14.55 10.55 Q 16.55 8.65 17.95 8.6 19.05 8.55 19.4 9.75 19.9 10.05 20.05 10.6 20.3 11.35 19.7 12.7 L 17.95 15.7 Q 20.55 18.25 27.55 23.2 L 38.55 31.1 53.85 42.15 54.2 41.6 55.25 40.15 56.55 38.95 58.7 38.75 Q 59.9 39.1 60.45 40.05 60.95 40.85 60.85 41.9 60.75 42.9 60.15 43.75 L 58.95 45.25 58.75 45.65 Q 65.15 50.6 69.05 54.35 L 69.7 38.9 Q 69.7 27.15 69.15 21.25 L 69.15 0.15 Q 68.75 -4.15 68.75 -17.5 68.75 -43.55 66.55 -60.4 65.5 -68.1 63.95 -74.8 L 63.7 -75.05 Q 61.05 -86.55 56.9 -95.1 46.05 -117.65 21.95 -124.3 L 21.95 -123.5 22.05 -123.25 Q 22.35 -122.5 22.3 -121.45 21.95 -116 20.55 -112.3 19.8 -110.35 17.8 -106.75 Z"/><path fill="#333" d="M -66.2 -55.5 L -66.3 -54.15 -65.8 -54.3 -66.2 -55.5 M 21.95 -124.3 L 20.95 -124.6 19.9 -124.85 Q 18.75 -122.6 17.6 -118.95 L 17.65 -118.15 17.8 -118.9 Q 18.35 -121.45 19.1 -122.85 19.95 -124.3 20.9 -124.25 L 21.95 -123.5 21.95 -124.3 Z"/><path fill="#574E4E" d="M -65.2 -59 L -65.8 -60.7 -65.25 -58.95 -65.2 -59 M -22.65 -69.3 L -23.85 -69.1 Q -26.2 -68.05 -44.9 -61.55 L -44.65 -60.85 Q -44.25 -59.65 -44.3 -58.75 -44.35 -57.85 -44.8 -57.05 -44.85 -56.45 -44.95 -56.7 L -45.35 -56.35 -45.55 -56.2 Q -46 -55.9 -46.55 -55.85 -47.45 -55.75 -48.3 -56.4 -49.05 -56.95 -49.5 -57.9 L -50.05 -59.7 -50.05 -59.75 -65.8 -54.3 -66.3 -54.15 -67.8 -28 Q -69.55 3.3 -69.55 10 L -69.2 27.1 -60.65 27.1 -60.8 26 Q -61.1 23.85 -60.6 22.75 -60.1 21.7 -58.85 21.35 -57.55 21.05 -56.7 21.8 -56.15 22.35 -55.75 23.9 L -55.05 27.1 -47.7 27.1 -39.7 27.7 -39.75 26.75 Q -39.85 24.4 -38.75 23.1 -38.3 22.55 -37.65 22.3 L -37.6 22 -37.25 22 -37.2 22.2 -37.15 22.15 Q -36.1 21.9 -35.35 22.4 -34.3 23.15 -34.1 25.65 L -33.95 28.05 -24.7 28.45 Q -21.1 28.8 -18.8 29.5 L -14.3 18.8 -14.25 18.75 -15.45 18.35 Q -16.9 17.85 -17.7 17.1 -19.1 15.7 -18.8 13.95 -18.7 13.1 -18.1 12.45 -17.55 11.7 -16.7 11.5 -15.45 11.15 -13.05 12.3 L -11.5 13.05 Q -7.2 4.7 -3.25 0.65 L -3.2 0.6 -4.35 -2 -8.2 -14.4 Q -10.5 -14.05 -11.5 -15 -12.25 -15.7 -12.2 -16.8 -12.15 -17.9 -11.4 -18.65 -10.85 -19.2 -9.75 -19.6 L -14.5 -36.9 -17.25 -36.5 -20 -36 Q -20.8 -36.05 -21.45 -36.6 L -21.85 -37 -22.4 -37.15 -22.55 -37.5 Q -22.75 -37.75 -22.75 -38.55 L -22.55 -38.9 -22.5 -39.35 Q -22.4 -40.15 -21.9 -40.75 -20.75 -42.05 -17.35 -42.15 L -15.9 -42.15 Q -22.5 -66.75 -22.65 -69.3 M 21.2 65.8 Q 22.85 67.45 22.75 68.9 L 23.45 69.6 Q 23.05 70.5 22.5 70.5 L 22 70.35 21.4 70.65 19.55 70.85 Q 18.5 70.65 16.25 69.15 L 14.75 68.2 9.9 73.65 11.95 74.85 Q 13.65 76.1 14.05 77.7 14.25 78.6 13.95 79.4 L 13.7 79.95 13.65 80.1 13.55 80.3 13.1 80.5 12.85 80.6 10.75 80.45 Q 9.8 80.15 7.95 79.25 L 5.7 78.25 5.3 78.65 Q 1.5 82.75 -9.3 102.15 L -9.45 102.5 -8.6 102.7 Q -6.8 103.15 -5.9 103.8 -4.4 104.9 -4.8 106.35 -5 107.25 -5.75 107.75 L -6.15 107.95 -6.5 108.05 -9 108.2 -11.9 107.65 -12.75 110.05 -15.65 116.55 -16.2 117.9 Q -14.5 118.3 -12.8 118.85 L -10.15 120.25 -9.75 120.8 -9.75 121.15 -9.8 121.45 -9.9 121.75 -10.15 122.1 -17.65 122.65 -17.95 123.25 -18.65 126.8 -18.1 126.9 Q 0.65 127.75 19.15 126.4 L 37.4 124.8 39 124.5 42.2 124.2 50.65 123.15 53.95 122.3 Q 55.25 121.5 56.8 120.95 59.2 120 60.9 118.1 L 63.2 114.85 Q 63.25 114.15 63.6 113.6 L 64.3 112.35 64.15 112.1 66.65 84.2 68.5 62.05 58.5 53.4 55.6 50.8 53.6 53.65 52.65 54.6 Q 51.4 55.55 49.95 55.05 49.25 54.8 48.8 54.25 L 48.45 53.55 Q 48.3 53.3 48.3 52.95 L 48.3 52.75 48.3 52.65 Q 48.4 51.9 49.1 50.6 L 51.2 47 40.2 37.95 Q 37.8 41.5 26.5 54.65 L 18.75 63.65 21.2 65.8 Z"/><path fill="#626262" d="M 63.7 -75.05 L 63.95 -74.8 63.9 -75.05 63.7 -75.05 Z"/><path fill="#6A6161" d="M 17.65 -118.15 L 17.6 -118.95 Q 18.75 -122.6 19.9 -124.85 10.6 -127.1 -0.55 -127.1 -18.75 -127.1 -30.6 -122.95 -42.05 -118.95 -49.15 -110.45 -55.7 -102.65 -59.75 -89.45 -61.2 -84.85 -62.5 -78.7 L -62.4 -78.7 -62.4 -78.6 Q -64.2 -70.9 -65.8 -60.7 L -65.2 -59 -63.75 -59.5 Q -56.65 -61.45 -51.2 -63.15 L -51.85 -64.8 Q -52.5 -66.9 -51.9 -68.2 L -52 -68.85 -51.95 -69.6 -51.75 -70 -50.4 -69.65 -49.1 -69.7 Q -48.15 -69.4 -47.25 -67.65 L -46 -64.95 -45.95 -64.8 Q -31.35 -69.95 -19.4 -77.3 L -19.15 -77.45 -19.1 -77.45 -12.1 -82.3 Q -12.85 -83.5 -12.4 -84.9 L -12 -85.6 -12.1 -85.95 -11.65 -86.05 Q -11.1 -86.6 -10.3 -86.75 -8.9 -86.95 -7.55 -86 L -4.45 -88.75 5.6 -97.45 5.5 -97.5 Q 3.45 -98.35 2.75 -99.15 2.25 -99.75 2.1 -100.6 L 2.05 -101.25 1.65 -101.8 Q 2 -102.15 2.45 -102.35 3.3 -103.65 5.15 -103.65 L 8.4 -102.8 9.85 -102.1 10.75 -103.7 14.5 -110.2 16.75 -114.8 17.65 -118.15 M 8.05 21.05 Q 7.7 19.3 9.65 16.75 L 10.4 15.85 9.6 15.15 Q 2.55 9.15 -1.1 4 L -3.65 8.65 -6.15 13.95 -6.9 15.3 -6.35 15.55 Q -4.65 16.4 -4.1 17.05 -2.95 18.2 -3.35 19.5 -3.65 20.35 -4.6 20.8 L -6.5 21.2 -9.05 20.65 -9.65 22.55 -11.35 26.45 -12.85 30.45 -13.55 34 -14.1 35.45 -13.85 36.5 -13.05 40.65 -11.55 49 Q -10.55 53.7 -10.25 56.4 L -9.6 56.25 -6.4 56.15 Q -4.95 56.7 -4.5 58.1 -4.05 59.65 -5.1 60.75 -5.7 61.5 -6.95 61.85 L -9.2 62.2 -9.65 62.3 Q -8.35 75.15 -5.25 86.8 -0.55 79.7 1.85 76.65 L 1.5 76.3 Q 0.75 75.45 0.85 74.2 0.9 73 1.75 72.25 3.05 71.1 5.35 71.55 L 5.9 71.75 10.8 65.85 9.9 65.25 Q 8.75 64.35 8.35 63.3 7.95 62.1 8.6 60.8 9.25 59.5 10.5 59.25 12.15 58.95 14.6 60.7 L 14.9 60.9 23.4 50.75 Q 33.25 39.2 38.3 36.5 L 31.45 31.4 Q 21.4 24.35 15.2 19.65 L 14.15 21.15 12.35 23 Q 11.15 23.65 9.75 23 8.35 22.35 8.05 21.05 Z"/><path fill="#3C3232" d="M 19.1 -122.85 Q 18.35 -121.45 17.8 -118.9 L 17.65 -118.15 16.75 -114.8 14.5 -110.2 10.75 -103.7 9.85 -102.1 8.4 -102.8 5.15 -103.65 Q 3.3 -103.65 2.45 -102.35 2 -102.15 1.65 -101.8 L 2.05 -101.25 2.1 -100.6 Q 2.25 -99.75 2.75 -99.15 3.45 -98.35 5.5 -97.5 L 5.6 -97.45 -4.45 -88.75 -7.55 -86 Q -8.9 -86.95 -10.3 -86.75 -11.1 -86.6 -11.65 -86.05 L -12.1 -85.95 -12 -85.6 -12.4 -84.9 Q -12.85 -83.5 -12.1 -82.3 L -19.1 -77.45 -19.15 -77.45 -19.4 -77.3 Q -31.35 -69.95 -45.95 -64.8 L -46 -64.95 -47.25 -67.65 Q -48.15 -69.4 -49.1 -69.7 L -50.4 -69.65 -51.75 -70 -51.95 -69.6 -52 -68.85 -51.9 -68.2 Q -52.5 -66.9 -51.85 -64.8 L -51.2 -63.15 Q -56.65 -61.45 -63.75 -59.5 L -65.2 -59 -65.25 -58.95 -65.95 -58.7 -66.2 -55.5 -65.8 -54.3 -50.05 -59.75 -50.05 -59.7 -49.5 -57.9 Q -49.05 -56.95 -48.3 -56.4 -47.45 -55.75 -46.55 -55.85 -46 -55.9 -45.55 -56.2 L -45.35 -56.35 -44.95 -56.7 Q -44.85 -56.45 -44.8 -57.05 -44.35 -57.85 -44.3 -58.75 -44.25 -59.65 -44.65 -60.85 L -44.9 -61.55 Q -26.2 -68.05 -23.85 -69.1 L -22.75 -69.6 -22.65 -69.65 -22.65 -69.4 -22.65 -69.3 Q -22.5 -66.75 -15.9 -42.15 L -17.35 -42.15 Q -20.75 -42.05 -21.9 -40.75 -22.4 -40.15 -22.5 -39.35 L -22.55 -38.9 -22.75 -38.55 Q -22.75 -37.75 -22.55 -37.5 L -22.4 -37.15 -21.85 -37 -21.45 -36.6 Q -20.8 -36.05 -20 -36 L -17.25 -36.5 -14.5 -36.9 -9.75 -19.6 Q -10.85 -19.2 -11.4 -18.65 -12.15 -17.9 -12.2 -16.8 -12.25 -15.7 -11.5 -15 -10.5 -14.05 -8.2 -14.4 L -4.35 -2 -3.2 0.6 -3.25 0.65 Q -7.2 4.7 -11.5 13.05 L -13.05 12.3 Q -15.45 11.15 -16.7 11.5 -17.55 11.7 -18.1 12.45 -18.7 13.1 -18.8 13.95 -19.1 15.7 -17.7 17.1 -16.9 17.85 -15.45 18.35 L -14.25 18.75 -14.3 18.8 -18.8 29.5 Q -21.1 28.8 -24.7 28.45 L -33.95 28.05 -34.1 25.65 Q -34.3 23.15 -35.35 22.4 -36.1 21.9 -37.15 22.15 L -37.2 22.2 -37.25 22 -37.6 22 -37.65 22.3 Q -38.3 22.55 -38.75 23.1 -39.85 24.4 -39.75 26.75 L -39.7 27.7 -47.7 27.1 -55.05 27.1 -55.75 23.9 Q -56.15 22.35 -56.7 21.8 -57.55 21.05 -58.85 21.35 -60.1 21.7 -60.6 22.75 -61.1 23.85 -60.8 26 L -60.65 27.1 -69.2 27.1 -69.1 31.85 -60 31.9 -59.75 34.05 Q -59.4 36.45 -58.65 37.2 -57.8 38.05 -56.55 37.95 -55.25 37.85 -54.6 36.9 -53.6 35.65 -54.1 32.55 L -54.2 31.95 -47.25 32 -39.65 32.3 -39.75 32.8 Q -39.9 34.15 -39.65 35.05 -39.15 36.6 -37.85 37.15 L -36.8 37.4 -36.75 37.5 -36.45 37.4 Q -35.8 37.3 -35.2 36.85 -34 36 -33.9 33.35 L -33.85 32.15 -29.15 32 -25.35 32.15 -23.35 33.9 -19.05 36.4 -17.05 37.1 -16.45 40 -15.6 44.15 Q -14 49.8 -13.15 57.1 L -17.25 58.35 Q -18.8 59.05 -19.4 59.9 -20.1 60.9 -19.65 62.25 -19.25 63.55 -18.1 63.95 L -16.15 64 -14.2 63.4 -12.55 62.9 Q -11.35 73.9 -10.35 79.9 -9 87.35 -7.55 90.3 L -11.4 96.25 -14.45 101.15 -14.7 101.05 Q -17.6 100.25 -19.1 100.55 -20.35 100.8 -21.2 101.7 -21.85 102.5 -21.85 103.6 -21.8 104.7 -21.15 105.45 -20.35 106.35 -18.85 106.65 L -17.9 106.75 -18.15 107.2 -18.9 108.4 -19.6 109.7 -19.4 109.7 -19.95 112 Q -20.85 113.15 -21.2 114.5 L -21.3 114.7 -22.15 116.8 -23.55 116.6 -24.2 116.75 -24.75 116.95 -25.35 117.25 -25.65 117.55 -26.1 118.2 -26.2 118.5 -26.25 118.8 -26.2 119.15 -26.15 119.45 -26.1 119.8 -26 120.1 -24.65 121.1 -23.4 121.5 -23.45 123 -24.2 126.3 -22.75 126.5 -22.2 127.15 -20.8 127.4 -19.75 126.85 -19.55 126.85 -18.7 126.9 -18.65 126.8 -17.95 123.25 -17.65 122.65 -10.15 122.1 -9.9 121.75 -9.8 121.45 -9.75 121.15 -9.75 120.8 -10.15 120.25 -12.8 118.85 Q -14.5 118.3 -16.2 117.9 L -15.65 116.55 -12.75 110.05 -11.9 107.65 -9 108.2 -6.5 108.05 -6.15 107.95 -5.75 107.75 Q -5 107.25 -4.8 106.35 -4.4 104.9 -5.9 103.8 -6.8 103.15 -8.6 102.7 L -9.45 102.5 -9.3 102.15 Q 1.5 82.75 5.3 78.65 L 5.7 78.25 7.95 79.25 Q 9.8 80.15 10.75 80.45 L 12.85 80.6 13.1 80.5 13.55 80.3 13.65 80.1 13.7 79.95 13.95 79.4 Q 14.25 78.6 14.05 77.7 13.65 76.1 11.95 74.85 L 9.9 73.65 14.75 68.2 16.25 69.15 Q 18.5 70.65 19.55 70.85 L 21.4 70.65 22 70.35 22.5 70.5 Q 23.05 70.5 23.45 69.6 L 22.75 68.9 Q 22.85 67.45 21.2 65.8 L 18.75 63.65 26.5 54.65 Q 37.8 41.5 40.2 37.95 L 51.2 47 49.1 50.6 Q 48.4 51.9 48.3 52.65 L 48.3 52.75 48.3 52.95 Q 48.3 53.3 48.45 53.55 L 48.8 54.25 Q 49.25 54.8 49.95 55.05 51.4 55.55 52.65 54.6 L 53.6 53.65 55.6 50.8 58.5 53.4 68.5 62.05 69.05 54.35 Q 65.15 50.6 58.75 45.65 L 58.95 45.25 60.15 43.75 Q 60.75 42.9 60.85 41.9 60.95 40.85 60.45 40.05 59.9 39.1 58.7 38.75 L 56.55 38.95 55.25 40.15 54.2 41.6 53.85 42.15 38.55 31.1 27.55 23.2 Q 20.55 18.25 17.95 15.7 L 19.7 12.7 Q 20.3 11.35 20.05 10.6 19.9 10.05 19.4 9.75 19.05 8.55 17.95 8.6 16.55 8.65 14.55 10.55 L 13.3 11.9 7.75 7.55 Q 1.2 2.4 0.45 -0.45 L -3.9 -15.4 -1.5 -16 Q 1.1 -16.6 1.85 -17.75 2.5 -18.7 2.2 -19.95 1.85 -21.2 0.8 -21.75 L -2.95 -21.6 -5.55 -20.85 -10.45 -37.3 -7.9 -37.9 Q -6.35 -38.45 -5.7 -39.4 -5.3 -40 -5.35 -40.7 L -5.4 -40.9 -5.15 -41.2 -5.65 -41.5 -5.95 -41.85 Q -6.65 -42.35 -7.85 -42.25 L -11.85 -42.2 Q -18 -62.85 -18 -64.3 L -18.35 -70.15 -18.7 -71.8 -15.95 -73.6 Q -12.25 -75.5 -8.1 -78.95 L -7.35 -78.35 -5.2 -77.1 -3.2 -77.15 Q -2.3 -77.6 -2.1 -78.75 -1.95 -79.8 -2.45 -80.8 L -3.7 -82.4 -4 -82.7 -2.25 -84.35 3.05 -88.95 7.45 -92.35 10.55 -95.45 11.45 -95.1 11.8 -94.95 13.35 -94.55 13.45 -94.55 13.5 -94.55 Q 14.85 -94.55 15.4 -95.4 16.2 -96.6 14.9 -98.4 L 13.7 -99.7 Q 15.35 -102.25 17.8 -106.75 19.8 -110.35 20.55 -112.3 21.95 -116 22.3 -121.45 22.35 -122.5 22.05 -123.25 L 21.95 -123.5 20.9 -124.25 Q 19.95 -124.3 19.1 -122.85 M 9.65 16.75 Q 7.7 19.3 8.05 21.05 8.35 22.35 9.75 23 11.15 23.65 12.35 23 L 14.15 21.15 15.2 19.65 Q 21.4 24.35 31.45 31.4 L 38.3 36.5 Q 33.25 39.2 23.4 50.75 L 14.9 60.9 14.6 60.7 Q 12.15 58.95 10.5 59.25 9.25 59.5 8.6 60.8 7.95 62.1 8.35 63.3 8.75 64.35 9.9 65.25 L 10.8 65.85 5.9 71.75 5.35 71.55 Q 3.05 71.1 1.75 72.25 0.9 73 0.85 74.2 0.75 75.45 1.5 76.3 L 1.85 76.65 Q -0.55 79.7 -5.25 86.8 -8.35 75.15 -9.65 62.3 L -9.2 62.2 -6.95 61.85 Q -5.7 61.5 -5.1 60.75 -4.05 59.65 -4.5 58.1 -4.95 56.7 -6.4 56.15 L -9.6 56.25 -10.25 56.4 Q -10.55 53.7 -11.55 49 L -13.05 40.65 -13.85 36.5 -14.1 35.45 -13.55 34 -12.85 30.45 -11.35 26.45 -9.65 22.55 -9.05 20.65 -6.5 21.2 -4.6 20.8 Q -3.65 20.35 -3.35 19.5 -2.95 18.2 -4.1 17.05 -4.65 16.4 -6.35 15.55 L -6.9 15.3 -6.15 13.95 -3.65 8.65 -1.1 4 Q 2.55 9.15 9.6 15.15 L 10.4 15.85 9.65 16.75 Z"/></g><g id="Symbol_240_0_Layer0_0_FILL"><path d="M 40.75 36.7 Q 43.15 32.1 43.15 23.7 43.15 11.05 36.4 4.7 30.4 -0.95 21.6 0.2 12.9 1.35 6.75 8.25 0 15.8 0 26.8 0 32.25 3.05 37.2 8.5 46.05 21.4 46.05 35.85 46.05 40.75 36.7 M 21.75 7.05 Q 27.55 6.75 31.6 10.9 36.1 15.5 36.1 23.5 36.1 28.8 34.9 31.45 31.7 38.3 21.4 38.3 14.9 38.3 10.7 33.4 7.4 29.6 7.4 26.45 7.4 17.5 11.9 12.15 15.9 7.35 21.75 7.05 Z"/><path fill="#574E4E" d="M 31.6 10.9 Q 27.55 6.75 21.75 7.05 15.9 7.35 11.9 12.15 7.4 17.5 7.4 26.45 7.4 29.6 10.7 33.4 14.9 38.3 21.4 38.3 31.7 38.3 34.9 31.45 36.1 28.8 36.1 23.5 36.1 15.5 31.6 10.9 Z"/></g><g id="Symbol_241_0_Layer0_0_FILL"><path d="M 7.15 4.4 Q 7.7 3.6 7.7 2.75 7.7 0 5 0 2.3 0 2.3 2.75 L 2.55 4 Q 3.2 5.5 5 5.5 6.4 5.5 7.15 4.4 M 15.25 4.9 L 16.4 5.1 Q 18.25 5.1 18.75 2.75 18.75 0.5 16.4 0.5 14.05 0.5 14.05 2.75 L 14.25 3.95 14.4 4.4 15.25 4.9 M 21.2 8.7 L 20.75 8.55 Q 6.95 7.75 2.45 8.5 0 8.9 0 10.25 0 10.65 0.45 11.1 L 1.75 12.05 20.75 11.2 Q 21.6 11.05 22.4 10 L 22.1 9.15 21.2 8.7 Z"/></g><g id="Symbol_1666_0_Layer0_0_FILL"><path d="M 16.9 -10.6 Q 10.35 -9.65 6.4 -4.15 4.85 -2 4.45 0.55 2.2 14.4 3 28.4 3.15 30.45 2.8 32.35 0.65 43.95 9.5 51 14.2 54.75 20.25 54.25 34.85 53.15 37.5 39 39 30.9 39.25 22.5 39.4 16.85 38.2 11.4 38.6 9.45 38.1 7.6 L 37.05 3.55 Q 36.65 1.9 35.75 0.55 35.2 -2.35 33.2 -4.65 27 -11.75 16.9 -10.6 M 20.5 -3.05 L 20.7 -3.1 24.6 -2.6 25.05 -2.3 25.75 -1.85 26.35 -1.55 Q 29.85 2.2 30.85 7.35 32.1 14 32.25 20.85 31.9 21.5 31.85 22.2 L 31.75 23.55 Q 31.75 24.4 32 25.25 31.6 26.2 31.6 27.25 31.7 33.75 29.55 39.8 26.3 49.15 16.75 47 14.35 45.8 12.6 43.9 11.3 42.5 10.7 40.75 L 10.8 40.1 10.7 38.75 Q 10.7 38.15 10.35 37.7 10.5 32.3 10.3 26.95 L 9.7 12.1 Q 9.65 9.05 10.4 6.1 L 10.95 2.35 Q 11.6 1.25 12.65 0.5 16.3 -1.95 20.5 -3.05 Z"/><path fill="#574E4E" d="M 20.7 -3.1 L 20.5 -3.05 Q 16.3 -1.95 12.65 0.5 11.6 1.25 10.95 2.35 L 10.4 6.1 Q 9.65 9.05 9.7 12.1 L 10.3 26.95 Q 10.5 32.3 10.35 37.7 10.7 38.15 10.7 38.75 L 10.8 40.1 10.7 40.75 Q 11.3 42.5 12.6 43.9 14.35 45.8 16.75 47 26.3 49.15 29.55 39.8 31.7 33.75 31.6 27.25 31.6 26.2 32 25.25 31.75 24.4 31.75 23.55 L 31.85 22.2 Q 31.9 21.5 32.25 20.85 32.1 14 30.85 7.35 29.85 2.2 26.35 -1.55 L 25.75 -1.85 25.05 -2.3 24.6 -2.6 20.7 -3.1 Z"/></g><g id="Symbol_1667_0_Layer0_0_FILL"><path d="M 43.75 33.4 Q 46.35 27.65 46.35 20 46.35 10.45 39.1 4.8 32.45 -0.4 23.2 0.05 13.6 0.5 7.25 6.85 0 14.1 0 26.5 0 32 3.7 36.5 10.2 44.35 25.95 44.35 38.8 44.35 43.75 33.4 M 25.2 7.7 Q 30.45 7.7 34.7 11 39.8 14.95 39.8 21.6 39.8 30.45 32.95 34.3 28.15 36.95 20.4 36.95 16.25 36.95 12.1 32.7 7.65 28.2 7.65 22.8 7.65 14.85 14.85 10.65 19.95 7.7 25.2 7.7 Z"/><path fill="#574E4E" d="M 34.7 11 Q 30.45 7.7 25.2 7.7 19.95 7.7 14.85 10.65 7.65 14.85 7.65 22.8 7.65 28.2 12.1 32.7 16.25 36.95 20.4 36.95 28.15 36.95 32.95 34.3 39.8 30.45 39.8 21.6 39.8 14.95 34.7 11 Z"/></g><g id="Symbol_1668_0_Layer0_0_FILL"><path d="M 165.9 79.9 Q 165.9 73.55 162.05 56.1 158.1 38.5 155.9 35.25 L 147.95 23.5 Q 142.35 16.9 132.65 12.7 131.75 11.2 123.05 7.75 114.35 4.3 104.85 1.35 95.3 -1.6 72 1.85 32.1 7.7 13.25 39.6 0 61.95 0 88.7 0 151.15 82.25 165.15 L 100.9 165.15 Q 142.95 154.85 157.55 125.95 162.95 115.25 164.8 101.55 165.9 93.35 165.9 79.9 M 145.4 38.4 Q 155.9 54.85 155.9 79.95 155.9 102.9 148.9 119.3 133.75 154.7 91.25 154.7 43.95 154.7 23.35 124.55 16.55 114.55 13.4 102.2 11.45 94.4 11.45 88.7 11.45 65.8 23 47 39.45 20.25 75.25 11.9 126.05 8.05 145.4 38.4 Z"/><path fill="#FFF" d="M 155.9 79.95 Q 155.9 54.85 145.4 38.4 126.05 8.05 75.25 11.9 39.45 20.25 23 47 11.45 65.8 11.45 88.7 11.45 94.4 13.4 102.2 16.55 114.55 23.35 124.55 43.95 154.7 91.25 154.7 133.75 154.7 148.9 119.3 155.9 102.9 155.9 79.95 Z"/></g><g id="Symbol_197_0_Layer0_0_FILL"><path d="M 4.65 -9.65 Q 3.2 -9.5 1.95 -8.35 0.55 -7 -0.1 -5.4 -1.1 -3.65 -1.05 -1.4 -1 0.4 -0.25 1.7 L -0.2 2.4 Q 0.95 5.5 5.95 5.5 11.65 5.5 13.6 2.75 14.6 1.3 14.6 -1.55 14.6 -4.95 12.25 -7.3 10.1 -9.5 7.1 -9.75 L 4.95 -9.6 4.65 -9.65 M 3.3 -1.3 Q 2.8 -2.45 3.15 -3.7 L 3.9 -4.75 Q 4.9 -5.7 6.1 -5.75 L 7.7 -5.4 8.9 -4.9 Q 10.65 -2.95 9.25 -0.8 8.25 0.75 6.35 1 L 5.2 0.8 Q 3.85 0.1 3.3 -1.3 Z"/><path fill="#FFF" d="M 3.15 -3.7 Q 2.8 -2.45 3.3 -1.3 3.85 0.1 5.2 0.8 L 6.35 1 Q 8.25 0.75 9.25 -0.8 10.65 -2.95 8.9 -4.9 L 7.7 -5.4 6.1 -5.75 Q 4.9 -5.7 3.9 -4.75 L 3.15 -3.7 Z"/></g><g id="Symbol_94_0_Layer0_0_FILL"><path fill="#9F9F9F" d="M 20.85 6.05 Q 21.9 5.55 21.9 3.8 21.9 0.65 18.5 0.1 15.45 -0.35 10.95 1.35 6.55 2.95 3.4 5.6 0 8.45 0 11 L 0.3 12.75 Q 1 14.3 3.15 14.3 4.4 14.3 5.7 13.1 L 8.1 10.4 Q 11.6 6.5 16.25 6.5 L 20.85 6.05 Z"/></g><g id="Symbol_1670_0_Layer2_0_FILL"><path d="M 55.8 26.65 L 45.1 27.6 31.1 26.7 Q 26.6 26.45 26.6 29 26.6 29.85 26.9 30.25 27.6 31.35 30 31.35 L 45.5 31.4 Q 58.3 30.75 60.95 27.25 58.1 26.15 55.8 26.65 M 80.45 24.2 Q 80.45 23.15 77.35 18.85 73.5 13.5 66.95 6.95 60.35 0.4 44.15 2.4 31.35 4.4 17.9 9.45 4.4 14.5 2.2 17.85 0 21.2 0.2 22.8 0.8 24.3 2.85 24.3 L 25.2 23.05 59.3 23.45 71.7 25.1 78.4 26.2 Q 79.15 26.2 79.8 25.65 80.45 25.1 80.45 24.2 M 41.15 15.4 L 41.1 15.1 41.25 15.25 41.15 15.4 M 26.55 10.7 L 26.75 10.65 26.65 10.75 26.55 10.7 M 29.3 17.65 L 29.35 17.35 29.1 15.1 Q 28.95 12.45 36.75 12.45 38.1 12.45 37.5 12.6 37.7 13.5 37.3 16.35 L 37.5 17.45 36.5 17.45 29.3 17.65 Z"/></g><g id="Symbol_1671_0_Layer0_0_FILL"><path fill="#9F9F9F" d="M 11.95 60.8 Q 12.05 57.95 11.25 55.2 L 10.95 54.9 10.35 54.6 9.65 54.75 9 55.1 Q 8.5 55.95 8.45 57 L 8.4 59.7 7.75 61.45 Q 7.1 63.25 7.5 65.05 L 6.9 67.4 Q 6.45 69.3 6.7 71.25 L 6.4 72.55 6.25 73.35 6.05 73.6 5.5 74.05 5.2 74.3 4.6 74.35 3.55 74.05 3.4 73.75 3.15 73.15 3.1 72.85 3.15 72.3 3.2 71.75 3.2 71.5 3.65 70.2 3.8 69.4 4.35 68.35 4.6 67.9 4.45 66.45 3.6 64.15 3.15 64.35 2.1 64.65 Q -0.8 67.85 -1.45 72.05 -2.6 79.35 5 79.75 8.1 79.9 9.45 77.25 12.5 71.3 12.25 64.15 L 12.1 63.85 11.95 63.55 11.95 60.8 M 55.25 6.25 Q 54.1 6.3 53.45 7.15 L 53.35 10.3 Q 53.25 11.5 52.6 12.4 L 51.65 17.2 51.35 19.05 Q 49 25.85 44.45 21.2 43.85 20.6 44.05 19.65 44.75 15.8 48 13.25 L 47.5 12.4 47.1 12.5 46.3 12.6 Q 42.1 15.4 40.95 20.15 39.45 26.25 45.05 28.6 L 48.6 28.85 Q 55.1 27.1 56.3 20.3 57.55 13.1 56.05 6.55 L 55.35 6.25 55.25 6.25 M 112.95 21.3 L 112.3 21.45 111.95 21.6 111.05 23.4 Q 110.35 25.35 110 27.3 109 28.7 108.4 30.3 106.35 35.8 108.45 40.8 109.4 45.3 113.75 46.35 115.6 46.8 117.05 45.7 124 40.05 120.05 31.4 L 120.15 31.1 120.25 30.6 120.25 30.3 120.15 30.05 119.9 29.45 119.8 29.15 119.15 29.55 117.75 30.65 Q 117.2 31.5 116.95 32.45 116.5 34.05 116.75 35.7 116.55 36.2 116.5 36.75 L 116.5 37.9 116.25 38.95 116.1 39.45 115.6 39.95 Q 115.15 40.5 114.55 40.15 L 114.15 39.25 113 37.15 Q 112.8 36.05 112.9 34.95 L 113.3 30.05 113.95 27.65 Q 114.2 24.75 113.75 21.9 L 113.4 21.6 112.95 21.3 Z"/></g><g id="Symbol_1672_0_Layer0_0_FILL"><path d="M 90.75 37.2 Q 95 39.55 98.1 40.05 102.45 40.75 103 37.15 103.7 33 85.6 24.5 67.45 15.9 57.15 15.4 47.5 11.85 22.55 16 -2 20.1 -2.7 24.55 -2.9 25.75 -2.4 26.05 L -1.15 26.6 17 22 Q 34.15 18.7 47.8 20.95 67.35 24.1 81.7 31.95 L 90.75 37.2 M 86.8 19.4 Q 88.85 20.95 90.9 23.6 92.3 25.35 93.65 25.55 95.1 25.8 96.05 24.85 96.7 24.1 96.9 23.15 97.5 19.4 90.65 13.4 82.6 6.15 71.1 4.65 48.9 -2.65 15 2.6 2.35 4.65 -7.15 7.75 -16.1 10.65 -16.4 12.45 -16.55 13.55 -16.35 13.8 -16.15 14 -15.7 14.35 L -8.15 12.35 Q -0.75 10.15 5.85 8.95 28.35 4.9 52.9 8.9 78.1 13 86.8 19.4 Z"/></g><filter id="Filter_1" width="140%" height="140%" x="-20%" y="-20%" color-interpolation-filters="sRGB"><feColorMatrix in="SourceGraphic" result="result1" values="0 0 0 0 0 0 0 0 0 0 0 0 0 0 0 0 0 0 1 0"/></filter></defs><g id="character"><g transform="rotate(-8.457 -1513.619 1152.24) scale(1.08806)"><g><g transform="matrix(1.16425 -.49536 .50177 1.15564 -1.1 345.05)"><use xlink:href="#Symbol_1652_0_Layer0_0_FILL"/></g></g><g><g transform="matrix(1.25916 .1488 -.14755 1.2485 49.9 320.1)"><use xlink:href="#Symbol_1653_0_Layer0_0_FILL"/></g></g><g><g transform="matrix(1.25916 .1488 -.14755 1.2485 153.75 332.35)"><use xlink:href="#Symbol_1653_0_Layer0_0_FILL"/></g></g><g><g transform="matrix(1.25916 .1488 -.14755 1.2485 151.65 210.9)"><use xlink:href="#Symbol_1664_0_Layer1_0_FILL"/></g></g><g><g transform="matrix(1.25916 .1488 -.14755 1.2485 108.15 3.6)"><use xlink:href="#Symbol_240_0_Layer0_0_FILL"/></g></g><g><g><g transform="matrix(1.25916 .1488 -.14755 1.2485 121.2 21.45)"><use xlink:href="#Symbol_241_0_Layer0_0_FILL"/></g></g></g><g><g transform="matrix(1.25916 .1488 -.14755 1.2485 67.4 248.45)"><use xlink:href="#Symbol_1666_0_Layer0_0_FILL"/></g></g><g><g transform="matrix(1.25916 .1488 -.14755 1.2485 176.8 261.35)"><use xlink:href="#Symbol_1666_0_Layer0_0_FILL"/></g></g><g><g transform="matrix(1.25916 .1488 -.14755 1.2485 168.6 298.1)"><use xlink:href="#Symbol_1667_0_Layer0_0_FILL"/></g></g><g><g transform="matrix(1.25916 .1488 -.14755 1.2485 59.25 285.15)"><use xlink:href="#Symbol_1667_0_Layer0_0_FILL"/></g></g><g><g transform="matrix(1.25916 .1488 -.14755 1.2485 72.35 75.95)"><use xlink:href="#Symbol_1668_0_Layer0_0_FILL"/></g></g><g><g transform="matrix(1.25916 .1488 -.14755 1.2485 112.3 205.8)"><use xlink:href="#Symbol_197_0_Layer0_0_FILL"/></g></g><g><g transform="matrix(1.25916 .1488 -.14755 1.2485 209.9 216.55)"><use xlink:href="#Symbol_197_0_Layer0_0_FILL"/></g></g><g><g transform="matrix(1.25916 .14883 .14757 -1.24847 212.95 212)"><use filter="url(#Filter_1)" xlink:href="#Symbol_94_0_Layer0_0_FILL"/></g></g><g><g transform="matrix(-1.26709 .03813 -.04097 -1.25676 128.65 191.6)"><use filter="url(#Filter_1)" xlink:href="#Symbol_94_0_Layer0_0_FILL"/></g></g><g id="mouth"><g transform="matrix(1.25916 .1488 -.14755 1.2485 117.2 210.9)"><use xlink:href="#Symbol_1670_0_Layer2_0_FILL"/></g></g><g><g transform="matrix(1.26788 -.00989 .0098 1.25714 83.1 128.25)"><use xlink:href="#Symbol_1671_0_Layer0_0_FILL"/></g></g><g><g transform="translate(138.15 110.2)"><use xlink:href="#Symbol_1672_0_Layer0_0_FILL"/></g></g></g></g></svg>