<svg xmlns="http://www.w3.org/2000/svg" role="img" xmlns:xlink="http://www.w3.org/1999/xlink" viewBox="21.07 -12.18 175.61 243.36"><defs><g id="a"><path d="M19.6-4.05q.15-1.4-.65-2.1-1.25-2.65-5.65-4.4-5.7-2.3-13.4-2-8.1.35-13.4 3.5Q-19.6-5.5-19.6.6v.95q.1 6.05.8 10.7l.25 4.6v.65l-.35.15q-.7.45-.7 2.25 0 .8.4 1.55l.45.6-.2 11.1-.15 3.95q.05 2.45.45 4.65l.1 3.4q.4 1.4 1.35 2 4.35 10.7 17.7 10.7 10.05 0 15.3-6.85 1.9-2.5 3.6-7.8V-3.3l.2-.75m-7.2-.55q-.45.7-.35 1.5v8.45q-4.7.7-13.25 4.5-6.15 2.7-9.25 4.6l.15-6.5.2-6.4v-.7Q-8.35-4.8-4.55-6.7L6.1-6.9q4.35 0 6.3 2.3M4.85 33.65l7.2-3.05v9.85q-.2.4-.65 2.05-.6 1.7-1.65 2.95-3.3 3.8-11.6 3.8-5.85 0-8.3-8.35l-.35-1.35.35-1.45q5.65-.75 15-4.45m7.2-9.85v2.7q-4.85.55-13.9 2.9-4.95 1.25-8.1 2.4l-.6-8.75 6.05.25 16.55.5m-9.7-10.5l7.7-3.2 2-.95v10.2l-17.75-1.1 1.95-1.2 6.1-3.75z"/><path fill="#635F55" d="M10.05 10.1l-7.7 3.2-6.1 3.75-1.95 1.2 17.75 1.1V9.15l-2 .95m2 20.5l-7.2 3.05q-9.35 3.7-15 4.45l-.35 1.45.35 1.35q2.45 8.35 8.3 8.35 8.3 0 11.6-3.8 1.05-1.25 1.65-2.95.45-1.65.65-2.05V30.6z"/><path fill="#666" d="M12.05 26.5v-2.7l-16.55-.5-6.05-.25.6 8.75q3.15-1.15 8.1-2.4 9.05-2.35 13.9-2.9m0-29.6q-.1-.8.35-1.5-1.95-2.3-6.3-2.3l-10.65.2Q-8.35-4.8-10.1.85v.7l-.2 6.4-.15 6.5q3.1-1.9 9.25-4.6 8.55-3.8 13.25-4.5V-3.1z"/></g><g id="b"><path d="M19.1-24.1Q11.5-31.25 0-29.8q-11 1.4-19.1 9.55Q-27.75-11.5-27.75.3l.3 10.25-.3 3.25.75 8.15q1.45 8.1 5.05 8.1 10.85 0 15.95-1.2 8.85-2.15 8.35-8.25-.9-8.9 3.75-10.75-1.4 4.4-1.4 8.1 0 1.35 5 5.85 5.75 5.1 10.1 5.1l.6-.05.8.05q3.15 0 5.15-13 1.4-9.2 1.4-14.7 0-17.05-8.65-25.3M3.95-20.15q10.15 0 13.35 9.1 1.35 3.9 1.35 12.1 0 4.95-1 12.65l-.85 6.8q-2.45-1.65-3.75-3.15-1.2-1.35-1-4.15.45-3.15.35-4.45L11.45 7v-.2l-.55-1.7Q9.85 3.4 7.05 3.4 2.1 3.4-3.1 7.05q-7.1 4.85-3.45 12.45l-6.55.5-3.5.6q-1.5-.95-2.1-6.65l-.3-3.6.5-7.4q3-23.1 22.45-23.1z"/><path fill="#313131" d="M17.3-11.05q-3.2-9.1-13.35-9.1-19.45 0-22.45 23.1l-.5 7.4.3 3.6q.6 5.7 2.1 6.65l3.5-.6 6.55-.5Q-10.2 11.9-3.1 7.05 2.1 3.4 7.05 3.4q2.8 0 3.85 1.7l.55 1.7V7l.95 1.75q.1 1.3-.35 4.45-.2 2.8 1 4.15 1.3 1.5 3.75 3.15l.85-6.8q1-7.7 1-12.65 0-8.2-1.35-12.1z"/></g><g id="c"><path d="M32.15-38.45l-9.1-2.95H-.65v.3q-31.05 4.05-47.15 17Q-60.9-13.65-60.9-.95q0 5.15.5 6.85 1.3 4.2 6.05 6.35l17.35.35q4.7 1.05 12.3 5.9l14.65 9.75q20.9 13.15 40.1 13.15 13.55 0 23.4-13.9 3.35-4.75 5.65-10.25 1.85-4.45 1.85-6.05 0-4.15-1.85-12.6-1.85-8.4-3.3-10.95L48.2-26.6q-5.05-9.2-6.95-9.2-1.05 0-9.1-2.65m-31.4 6l20.9.15q16.45 4.8 24.6 19.45 6.05 10.9 6.05 23L50.85 14q-1.9 4.15-4.5 7.7-7.95 11.05-18.4 11.05-10.8 0-20.7-5.1-4.2-2.2-16.35-10.85Q-19.25 9.6-27 6.85-38.3 2.8-52.05 4.4-53.3.75-53.3-.85q0-9.75 13.4-18.9Q-24.25-30.4.75-32.45M3.6-15.6l10.6-.6q13 0 21.15 12.15l5.25 8.3q2.75 3.8 5.55 3.8 1.35 0 2.1-1.4.55-.95.55-1.85 0-1.2-8-11.95-7.9-10.7-10.4-12.9-5.9-3.75-21-2.75L-8-20.75q-3.15.25-9.45 3.8-6.75 3.8-7.25 6.35l6.9-2.2q7.15-2.25 10.75-2.25L3.6-15.6z"/><path fill="#313131" d="M21.65-32.3l-20.9-.15q-25 2.05-40.65 12.7-13.4 9.15-13.4 18.9 0 1.6 1.25 5.25Q-38.3 2.8-27 6.85q7.75 2.75 17.9 9.95Q3.05 25.45 7.25 27.65q9.9 5.1 20.7 5.1 10.45 0 18.4-11.05 2.6-3.55 4.5-7.7l1.45-3.85q0-12.1-6.05-23Q38.1-27.5 21.65-32.3M14.2-16.2l-10.6.6-10.65.55q-3.6 0-10.75 2.25l-6.9 2.2q.5-2.55 7.25-6.35 6.3-3.55 9.45-3.8L9.4-22.8q15.1-1 21 2.75 2.5 2.2 10.4 12.9 8 10.75 8 11.95 0 .9-.55 1.85-.75 1.4-2.1 1.4-2.8 0-5.55-3.8l-5.25-8.3Q27.2-16.2 14.2-16.2z"/></g><g id="d"><path d="M6.25-35.2l-2.2.4-2.55-.35-6.55.05-11.1.55h-.65q-4.05.25-4.35 4.7v10.5q.25 6.75.4 20.3l.25 16.35q.45 6.35 1.2 10.25-.4.9-.35 2.2l.05.6-.2 1.15q.05 1.6 1.15 2.6 2.25 2.2 8.2 1.35l26-.5q2.7.15 4.1-1.3 1.3-.8 1.45-2.75-.35-3.65-.2-4.75l-.9-51.7-.05-2.2-.15-7.15v-.75l-7.35.1-.05.3-6.15.05m7 43.2L9 8.2l-21.15.5-.35-20.25-.1-15.1 4.05-.25 21.2-.5.6 35.4M9.1 12.75l4.25.1.25 13.85.05.15-24.25.45h-1l-.25-.45.05-.3-.25-13.6 21.15-.2z"/><path fill="#333" d="M13.35 12.85l-4.25-.1-21.15.2.25 13.6-.05.3.25.45h1l24.25-.45-.05-.15-.25-13.85M9 8.2l4.25-.2-.6-35.4-21.2.5-4.05.25.1 15.1.35 20.25L9 8.2z"/></g><g id="e"><path d="M13.6-32.4v-.35q0-.85-.55-1.55H-10.9l-.45 1.35q-.3.75.1 1.5-.7 5.85-1.2 15.85-.8 15.8-.8 29.85v8.1l.35 2.65q-.65.55-.65 1.25l.3 1.9.75.95h23.35q.75-1.15.75-2.6l-.05-1.05q1.25-6.75 1.8-26.55.35-15.1.25-31v-.3m-7.35 3.65l.4.4L6.9-1.8l-.15 16.1-12.4-.85-.45-26.55q-.45-4.4.1-13.7l-.05-2.3 7.3.45 5-.1M7 21.8q-1.05.3-1.65 1.2l-6.55-.4-4.45.2v-3.7h1.25l8.55-.65 2.6-.5q.05 2.1.25 3.85z"/><path fill="#333" d="M5.35 23q.6-.9 1.65-1.2-.2-1.75-.25-3.85l-2.6.5-8.55.65h-1.25v3.7l4.45-.2 6.55.4z"/><path fill="#796C64" d="M6.65-28.35l-.4-.4-5 .1-7.3-.45.05 2.3q-.55 9.3-.1 13.7l.45 26.55 12.4.85.15-16.1-.25-26.55z"/></g><g id="g"><path d="M39.75-42.75Q36.45-55.3 21.4-62.9 6.9-70.2-10.2-69q-18.35 1.25-29.9 12.15l-3.45 3.75-.3-.05q-1.25.25-3.15 4.95-5.1 8.6-6.1 20.1-2.2 9.35-4.1 20.65-2.45 20.7-2.45 53.35l.7 9.45q1.7 8.95 6.85 8.95.6 0 23-15.2l18.35-12.55.1.1q.75 0 1.95-.7h.05q3.35 2.05 11 5.5l19.1 8.3q5.75 2.7 18.8 11.65 11.45 7.8 12.6 7.8 4.85 0 6.3-14 .55-5.15.55-16.05 0-22.35-4.2-39-3.75-14.85-15.75-42.9m-32.5-14.6q7.5 1.55 13.1 5.75Q33.7-41.65 41.5-12.2 47.05 9.1 48.15 15q2.1 10.95 2.1 24.1l-.1 7.1q-.25 4.05-1.15 6.55-8.35-5.65-26.2-13.9-11.6-5.4-18.7-7.7-1.3-.75-2.75-1.45-5.85-2.85-9.85-2.65-1.35-4.65-4.05-12.2L-18-1q0-.45 5.8-11.2 6.25-11.6 7.55-15.2L-5-29.5q-6.8 2.3-13.5 15.55-2.25 4.45-4.05 9.2L-24-.1l10.05 28.65q-3 1.2-5.65 3.15-5.15 2.75-13 8-11.3 7.6-16.25 11.65V51q-.8-5.45-.8-14.2 0-25.25 3.75-52.5l1.1-7.65 1.25-3.85Q-39.9-39-38.1-42.75q3.75-7.7 10.1-11.35 7.65-4.4 20.85-4.4 8.95 0 14.4 1.15M1.65-4.8q-.35-.3-.35-.5-2.95.4-6.3 2.25l-.65-1q-4.85-7.35-4.85.5l1.35 3.2q-3.6 2.75-3.6 4.8l.2 1.65.15.7q.55.25.95.6l1.5.25q1.25 0 3.75-2 1.75 2.7 3.25 2.7 1.15 0 1.75-1.2.4-.9.4-2.1L-2.2 2q4.15-4.2 4.15-5.45l-.3-1.35z"/><path fill="#313131" d="M20.35-51.6q-5.6-4.2-13.1-5.75Q1.8-58.5-7.15-58.5q-13.2 0-20.85 4.4-6.35 3.65-10.1 11.35-1.8 3.75-5.45 15.55l-1.25 3.85-1.1 7.65q-3.75 27.25-3.75 52.5 0 8.75.8 14.2v.35Q-43.9 47.3-32.6 39.7q7.85-5.25 13-8 2.65-1.95 5.65-3.15L-24-.1l1.45-4.65q1.8-4.75 4.05-9.2Q-11.8-27.2-5-29.5l.35 2.1q-1.3 3.6-7.55 15.2Q-18-1.45-18-1l5.45 15.85q2.7 7.55 4.05 12.2 4-.2 9.85 2.65 1.45.7 2.75 1.45 7.1 2.3 18.7 7.7Q40.65 47.1 49 52.75q.9-2.5 1.15-6.55l.1-7.1q0-13.15-2.1-24.1-1.1-5.9-6.65-27.2-7.8-29.45-21.15-39.4M1.3-5.3q0 .2.35.5l.3 1.35Q1.95-2.2-2.2 2l1.4 3.05q0 1.2-.4 2.1-.6 1.2-1.75 1.2-1.5 0-3.25-2.7-2.5 2-3.75 2l-1.5-.25q-.4-.35-.95-.6l-.15-.7-.2-1.65q0-2.05 3.6-4.8l-1.35-3.2q0-7.85 4.85-.5l.65 1Q-1.65-4.9 1.3-5.3z"/></g><g id="h"><path d="M71.3-41.65Q53.55-73.85 13.85-80.4-9.35-84.3-19-81.5q-9.6 2.8-18.4 6.1-8.85 3.3-9.8 4.75-9.85 4.05-15.65 10.55l-8.3 11.6q-2.35 3.2-6.9 20.7-4.45 17.4-4.65 23.75-.45 13.45.35 21.65 1.35 13.75 6.4 24.55Q-62.4 71.3-20.7 82.25l18.65.35Q80.7 70.1 82.85 7.65q.9-26.75-11.55-49.3M10.25-70.4q35.5 8.95 51.05 36Q72.2-15.45 71.4 7.45q-.2 5.7-2.45 13.45-3.55 12.3-10.7 22.2Q36.6 72.9-10.7 72.05q-42.5-.75-56.4-36.4-6.4-16.55-5.6-39.5.85-25.1 11.85-41.3 20.4-30 71.1-25.25z"/><path fill="#635F55" d="M61.3-34.4q-15.55-27.05-51.05-36-50.7-4.75-71.1 25.25-11 16.2-11.85 41.3-.8 22.95 5.6 39.5 13.9 35.65 56.4 36.4 47.3.85 68.95-28.95 7.15-9.9 10.7-22.2 2.25-7.75 2.45-13.45.8-22.9-10.1-41.85M11.8-50.25q0-2.8 4.75-3.35 4.75-.6 4.75 3.1 0 1.4-1.7 3.25-1.75 1.8-2.95 1.8-2 0-3.55-1.85-1.3-1.6-1.3-2.95m12.75.4q0-3.2 2.75-5.25t6.9-2.05q2.85 0 3.7 1.2 2.95.5 4.55 3.6 1.1 2.05 1.1 3.55 0 3.1-3.5 5.6-3.5 2.55-7.85 2.55-4.5 0-6.5-4.55-1.05-2.3-1.15-4.65m3.4 17.65l.25-.35q2.65-3.75 5-3.75 3.4 0 6.05 3 2.6 2.95 2.6 6.4 0 2.15-2.6 4.7-2.7 2.7-5.3 2.7-3.5 0-6.1-3.15-1.65-2-2.05-3.55l-1.2.1q-1.8 0-2.6-1.75-.55-1.05-.55-2.1 0-3.3 3.7-3.2 1.9.05 2.8.95M57.4-10.95q0 .95-.7 1.7-.7.7-1.5.7-2.65 0-2.65-2.9 0-2.4 2.45-2.35 2.4.05 2.4 2.85M52.35 34.1q0 1.4-1.45 2.8-1.5 1.4-3.2 1.4-2.3 0-3.55-2.35-.9-1.6-.9-2.85 0-.75 1.75-2.3 1.7-1.55 2.3-1.55 2.45 0 3.9 1.8 1.15 1.45 1.15 3.05m-8.1 9.9q2.35.25 4.05 1.6 1.85 1.55 1.85 3.7 0 2.05-1.7 3.75-1.75 1.7-3.85 1.7-3.3 0-5.1-3.1l-1.15-2.8q0-2.6 1.85-3.9 1.65-1.15 4.05-.95M28.4 20.5q.85 1.9.85 3.4 0 3.35-3.6 6.55-3.6 3.15-7.45 3.15-2.6 0-5.1-3.45-2.1-2.9-2.1-4.05 0-3.75 2.4-6.75 2.75-3.4 7-3.4l1.7.35q1.65.5 2.25.95 2.65.35 4.05 3.25m-21.6-.1q0 1.55-.95 2.6-1.05 1.05-2.8 1.05-2 0-2.8-1.75l-.4-1.85q0-3.25 3.5-3.55 3.45-.35 3.45 3.5m27.7 24.75q0 1.05-.8 1.65-.65.5-1.5.5-1.05 0-1.75-1.05-.6-.85-.6-1.5 0-2 2.35-1.7 2.3.3 2.3 2.1m-20.4 9.3l3.05 1.05q2.95 1.45 2.95 3.3 0 3.5-1.55 5.6-1.8 2.45-5.4 2.45-2.3 0-4.1-2.4Q7.5 62.4 7.5 60.6q0-2.1 2.05-4.1 2.1-2.05 4.55-2.05m-11.85 8.6q0 1.15-.9 1.8-.8.55-2 .55l-1.6-.3-.1-.75-.15-1.1q0-1.9 2.4-2.15 2.35-.25 2.35 1.95m-31.5-126.9q1.7-1.95 3.7-1.95.9 0 3.15 1.4 2.6 1.65 2.6 3.1 0 2.1-1.9 4.25-1.2 1.35-2.35 1.9 1.25 1.8 1.25 4.15 0 3.8-2.85 6.95-3.15 3.55-7.95 3.55-4.4 0-7.75-3.1-3.2-3-3.2-6.65 0-3.15 4.15-6.15 4.05-3 8.3-3l1.45.15-.15-1.2q0-1.65 1.55-3.4m-18.4 25.05q-2.4 2-3.85 2-1.55 0-2.7-2-.95-1.6-.95-2.6 0-4.7 5-4.85 2-.05 3.4 1 1.55 1.15 1.55 3.2 0 1.25-2.45 3.25M-64.9-22.5q1.05-.85 2.4-.8 3.5.2 3.5 5.15 0 1.05-.75 1.55-.5.3-1.1.3-5.15 0-5.15-3.95 0-1.35 1.1-2.25m21.7 19.65q-1.45-2.05-1.45-3.5 0-2.45 3.2-5.35 3.3-2.95 6.2-2.95 2.95 0 5.35 2.5 2.1 2.2 2.1 4 0 2.75-2.8 5.55Q-33.5.3-36.9.3q-4.05 0-6.3-3.15m-19.65.25q1.3 0 2.35.8 1.05.85 1.05 1.95 0 1.35-1.35 2.85t-2.55 1.5q-1.8 0-2.55-1.35-.4-.65-.4-1.35 0-4.45 3.45-4.4m24.45 43.9q2.3-1.6 5.7-1.25 3.25.35 5.65 2.25 2.55 2.05 2.55 4.8 0 2.55-3.15 5.85-3.4 3.55-6.65 3.55-4.85 0-6.25-4.95l-.4-4.65q0-3.8 2.55-5.6M-.8 8.95q-1 .7-2.35.7-1.4 0-2.05-1.2l-.45-1.7q0-3.4 3.05-3.15T.45 6.4q0 1.65-1.25 2.55m-47.65 22.2q0 1.05-1.1 1.95-1.05.85-2.35.85-1.95 0-2.7-1.55-.4-.8-.4-1.65 0-2.85 3.3-2.7 3.25.1 3.25 3.1M-51.2 45.5q-1.85 1.75-4 1.75-2.5 0-3.25-3.15l-.25-2.6q0-4.6 4.65-3.8 1.85.35 3.2 1.5 1.45 1.2 1.45 2.65 0 1.9-1.8 3.65m34 18.1q0 .75-1.65 2.2-1.9 1.6-3.65 1.85l-1.9-.4-.15-.9-.2-1.2q0-4.25 3.55-4.25 1.05 0 2.3.55 1.7.8 1.7 2.15z"/><path fill="#414D41" d="M-18.85 65.8q1.65-1.45 1.65-2.2 0-1.35-1.7-2.15-1.25-.55-2.3-.55-3.55 0-3.55 4.25l.2 1.2.15.9 1.9.4q1.75-.25 3.65-1.85m-25.8-72.15q0 1.45 1.45 3.5Q-40.95.3-36.9.3q3.4 0 6.3-2.9 2.8-2.8 2.8-5.55 0-1.8-2.1-4-2.4-2.5-5.35-2.5-2.9 0-6.2 2.95-3.2 2.9-3.2 5.35m61.8 61.85l-3.05-1.05q-2.45 0-4.55 2.05-2.05 2-2.05 4.1 0 1.8 1.55 3.85 1.8 2.4 4.1 2.4 3.6 0 5.4-2.45 1.55-2.1 1.55-5.6 0-1.85-2.95-3.3m12.1-31.6q0-1.5-.85-3.4-1.4-2.9-4.05-3.25-.6-.45-2.25-.95l-1.7-.35q-4.25 0-7 3.4-2.4 3-2.4 6.75 0 1.15 2.1 4.05 2.5 3.45 5.1 3.45 3.85 0 7.45-3.15 3.6-3.2 3.6-6.55M48.3 45.6q-1.7-1.35-4.05-1.6-2.4-.2-4.05.95-1.85 1.3-1.85 3.9l1.15 2.8q1.8 3.1 5.1 3.1 2.1 0 3.85-1.7 1.7-1.7 1.7-3.75 0-2.15-1.85-3.7m-21-100.7q-2.75 2.05-2.75 5.25.1 2.35 1.15 4.65 2 4.55 6.5 4.55 4.35 0 7.85-2.55 3.5-2.5 3.5-5.6 0-1.5-1.1-3.55-1.6-3.1-4.55-3.6-.85-1.2-3.7-1.2-4.15 0-6.9 2.05z"/><path fill="#4D4941" d="M-55.2 47.25q2.15 0 4-1.75 1.8-1.75 1.8-3.65 0-1.45-1.45-2.65-1.35-1.15-3.2-1.5-4.65-.8-4.65 3.8l.25 2.6q.75 3.15 3.25 3.15m5.65-14.15q1.1-.9 1.1-1.95 0-3-3.25-3.1-3.3-.15-3.3 2.7 0 .85.4 1.65.75 1.55 2.7 1.55 1.3 0 2.35-.85m46.4-23.45q1.35 0 2.35-.7Q.45 8.05.45 6.4q0-2.55-3.05-2.8t-3.05 3.15l.45 1.7q.65 1.2 2.05 1.2m-29.55 30.4q-3.4-.35-5.7 1.25-2.55 1.8-2.55 5.6l.4 4.65q1.4 4.95 6.25 4.95 3.25 0 6.65-3.55 3.15-3.3 3.15-5.85 0-2.75-2.55-4.8-2.4-1.9-5.65-2.25M-60.5-1.8q-1.05-.8-2.35-.8-3.45-.05-3.45 4.4 0 .7.4 1.35.75 1.35 2.55 1.35 1.2 0 2.55-1.5 1.35-1.5 1.35-2.85 0-1.1-1.05-1.95m-2-21.5q-1.35-.05-2.4.8-1.1.9-1.1 2.25 0 3.95 5.15 3.95.6 0 1.1-.3.75-.5.75-1.55 0-4.95-3.5-5.15m11-13.5q1.45 0 3.85-2 2.45-2 2.45-3.25 0-2.05-1.55-3.2-1.4-1.05-3.4-1-5 .15-5 4.85 0 1 .95 2.6 1.15 2 2.7 2m25.95-29q-2 0-3.7 1.95-1.55 1.75-1.55 3.4l.15 1.2-1.45-.15q-4.25 0-8.3 3-4.15 3-4.15 6.15 0 3.65 3.2 6.65 3.35 3.1 7.75 3.1 4.8 0 7.95-3.55Q-22.8-47.2-22.8-51q0-2.35-1.25-4.15 1.15-.55 2.35-1.9 1.9-2.15 1.9-4.25 0-1.45-2.6-3.1-2.25-1.4-3.15-1.4M1.35 64.85q.9-.65.9-1.8 0-2.2-2.35-1.95-2.4.25-2.4 2.15l.15 1.1.1.75 1.6.3q1.2 0 2-.55M33.7 46.8q.8-.6.8-1.65 0-1.8-2.3-2.1-2.35-.3-2.35 1.7 0 .65.6 1.5.7 1.05 1.75 1.05.85 0 1.5-.5M5.85 23q.95-1.05.95-2.6 0-3.85-3.45-3.5-3.5.3-3.5 3.55l.4 1.85q.8 1.75 2.8 1.75 1.75 0 2.8-1.05M50.9 36.9q1.45-1.4 1.45-2.8 0-1.6-1.15-3.05-1.45-1.8-3.9-1.8-.6 0-2.3 1.55-1.75 1.55-1.75 2.3 0 1.25.9 2.85 1.25 2.35 3.55 2.35 1.7 0 3.2-1.4m5.8-46.15q.7-.75.7-1.7 0-2.8-2.4-2.85-2.45-.05-2.45 2.35 0 2.9 2.65 2.9.8 0 1.5-.7m-28.5-23.3l-.25.35q-.9-.9-2.8-.95-3.7-.1-3.7 3.2 0 1.05.55 2.1.8 1.75 2.6 1.75l1.2-.1q.4 1.55 2.05 3.55 2.6 3.15 6.1 3.15 2.6 0 5.3-2.7 2.6-2.55 2.6-4.7 0-3.45-2.6-6.4-2.65-3-6.05-3-2.35 0-5 3.75M16.55-53.6q-4.75.55-4.75 3.35 0 1.35 1.3 2.95 1.55 1.85 3.55 1.85 1.2 0 2.95-1.8 1.7-1.85 1.7-3.25 0-3.7-4.75-3.1z"/></g><g id="i"><path d="M77.25-3.75q-2.65-11.6-6.1-13.2-3.9-3.25-46.85.9-37.65 3.6-48.3 5.95-12.7 2.8-37 5.5l-10.45 1.65Q-75.2-1.9-75.2-.05l-1.05 1.15q-1.2 1.85-1.2 4.9-.2 2.6.15 5.15v.05l-1 .75q-1.1 1.15-1.1 2.6 0 3.6 3.7 3.8l150-.35q1.95.1 3.05-1.2.75-.95.8-1.95l.3-.35q.95-1.2.95-2.65 0-6.1-2.15-15.6m-11.4-6.35l.9.25.45.4q.65.65 1.1 2.1v.1l.05.1.2.85.05.25.9 7.85.1 1.1q.45 5.3 1.5 8.45l-26.45-.05h-15.4l-99.1-.25.1-5.05-.2-2.8h.2l48.05-6.65q53.1-6.65 87.55-6.65z"/><path fill="#A89191" d="M44.65 11.3q-.05-3.75-3.7-4.95l-3.85-.5q-2.65 0-5.15 1.6-2.6 1.65-2.7 3.85h15.4M67.2-9.45l-.45-.4h-1q-2.75.15-4.7 1.8-2.1 1.85-2.1 4.7 0 1.6 1.4 3.7 1.85 2.8 4.75 2.8 2.4 0 4.4-1.35l-.9-7.85-.05-.25-.2-.85-.05-.1v-.1q-.45-1.45-1.1-2.1M-46.7 8.45q.65-.65.65-1.7 0-2.7-2.4-2.4-2.45.3-2.45 2.3 0 1.15.95 1.9.75.55 1.35.55 1.2 0 1.9-.65m81.95-8.7q0-2.7-2.75-2.6-2.75.1-2.75 2.85 0 1.15 1.1 1.9.9.6 2 .6.95 0 1.65-.85.75-.85.75-1.9M3.45-.5q2.4-1.65 2.4-4.1 0-1-.7-1.9L-7.2-5.15v.2q0 1.6 1.15 3.45 1.6 2.55 4.5 2.55 2.8 0 5-1.55z"/><path fill="#CCC" d="M66.75-9.85l-.9-.25q-34.45 0-87.55 6.65L-69.75 3.2h-.2l.2 2.8-.1 5.05 99.1.25q.1-2.2 2.7-3.85 2.5-1.6 5.15-1.6l3.85.5q3.65 1.2 3.7 4.95l26.45.05Q70.05 8.2 69.6 2.9l-.1-1.1q-2 1.35-4.4 1.35-2.9 0-4.75-2.8-1.4-2.1-1.4-3.7 0-2.85 2.1-4.7 1.95-1.65 4.7-1.8h1M5.85-4.6q0 2.45-2.4 4.1-2.2 1.55-5 1.55-2.9 0-4.5-2.55Q-7.2-3.35-7.2-4.95v-.2L5.15-6.5q.7.9.7 1.9M32.5-2.85q2.75-.1 2.75 2.6 0 1.05-.75 1.9-.7.85-1.65.85-1.1 0-2-.6-1.1-.75-1.1-1.9 0-2.75 2.75-2.85m-78.55 9.6q0 1.05-.65 1.7-.7.65-1.9.65-.6 0-1.35-.55-.95-.75-.95-1.9 0-2 2.45-2.3 2.4-.3 2.4 2.4z"/></g><g id="j"><path d="M88.1 32.6q3.95-3.3 6.35-7.55 2.55-4.55 2.65-9.3.1-5.05-2.7-9.4-2.95-4.45-7.6-5.8Q81-1.1 73.55 2.4q-2.2 1.05-5.95 3.35L61.7 9.2q-8.05 4.25-18.05 5.5-9.1 1.05-19.1-.4l-7.4-1.05-7.35.2q-3.9.75-6.7 3.35-3 2.8-3.1 6.35-.05 2.35 1.2 4.6 1.15 2.05 3.15 3.65 2.7 2.2 8.6 4.25L27.6 40.2l7.75 2.1 7.85 1.55.4.05.2.1 2.15.2.3-.05q10.95.65 24.2-3.1 11.2-3.2 17.65-8.45m-2.15-12.35l1.55.05.8.6.2.15q-3.1 5.15-8.55 8.65l-1.7-2.5q-1.45-2.05-1.65-3.55 4.3-2.65 9.35-3.4m-37.8 2.5l-.05-1.2q4.85-.9 9.3-2.4l.75 1.6q.8 1.5 1 2.35l.2 1.55.45 2.05 1.95 8.1.35 1.1-5.8.85-7.7.65h-.3l-.45-4.6.2-1.65-.2-1.75.3-6.65m-26.55-1.1l8.4.95-.6 2.85.1 2.05-.4 1.55-.4 1.55-.15 2.3L21 30.8l-3.95-1.25q.55-4.8 1.45-7.1l.45-1.2 2.65.4z"/><path fill="#FFF" d="M30 22.6l-8.4-.95-2.65-.4-.45 1.2q-.9 2.3-1.45 7.1L21 30.8l7.55 2.1.15-2.3.4-1.55.4-1.55-.1-2.05.6-2.85m18.1-1.05l.05 1.2-.3 6.65.2 1.75-.2 1.65.45 4.6h.3l7.7-.65 5.8-.85-.35-1.1-1.95-8.1-.45-2.05-.2-1.55q-.2-.85-1-2.35l-.75-1.6q-4.45 1.5-9.3 2.4m39.4-1.25l-1.55-.05q-5.05.75-9.35 3.4.2 1.5 1.65 3.55l1.7 2.5q5.45-3.5 8.55-8.65l-.2-.15-.8-.6z"/></g><g id="k"><path d="M83.55-12.55q-.1-.8-.95-1.55-1.2-1-3.25-.85l-160.55 6q-3.35.25-3.75 2.45v1.15q.2.9 1.25 1.65l1.05.55v.05q-.25 2.05 0 4.15.1 2.45 1.45 3.85l1.15.9q.05 1.45 4.1 2.15l11.25.9Q-38.6 10-24.95 11.7l51.85 2.75Q73 16 77.05 13.2q3.65-1.4 6.1-10.85 2-7.65 1.85-12.55-.05-1.15-1.15-2.1l-.3-.25M76.1-9.5q-1 2.6-1.35 6.9L74 4.6q-.85 3.25-2.85 3.35Q34.3 9.4-22.7 6.25l-18.05-1L-46 4.9l-7.55-.45-.3-.05-1.1-.05-19.35-1.4-.2.05.1-2.3-.25-4.05 19.55-.8 16.05-.65 4.35-.15 6.5-.3 25.5-1 14.65-.6L76.1-9.5z"/><path fill="#A89191" d="M-28.2-5.25l-6.5.3q-.25 1.9.95 3.1Q-32.5-.5-30.7-.9q.95-.25 1.65-1.1.7-.85.85-1.9v-1.35m-26.9 1.1Q-56.05-3-56.4-1.5q-.5 2.65 1.1 5.3l.35.55 1.1.05.3.05 7.55.45 5.25.35.75-.6q2.2-1.75 2.8-3.5.65-1.9-.4-4-.6-1.15-1.45-1.95l-16.05.65m64.9 2.5q1.9-2.1 2.15-5.2l-14.65.6q-.05 1.2.45 2.5.8 1.8 2.7 3.05Q2.6.75 4.7.75q2.95 0 5.1-2.4m48.55.4q-.8-1-2.1-1.4l-2.5.15Q52-1.65 51.5.45q-.4 1.7.25 3.1.85 1.85 2.5 2.05 1.35.2 2.75-.75l1.3-1.25q.75-1.05.8-2.4 0-1.4-.75-2.45z"/><path fill="#CCC" d="M-55.1-4.15l-19.55.8.25 4.05-.1 2.3.2-.05 19.35 1.4-.35-.55q-1.6-2.65-1.1-5.3.35-1.5 1.3-2.65m67.05-2.7q-.25 3.1-2.15 5.2Q7.65.75 4.7.75 2.6.75.45-.7q-1.9-1.25-2.7-3.05-.5-1.3-.45-2.5l-25.5 1v1.35q-.15 1.05-.85 1.9-.7.85-1.65 1.1-1.8.4-3.05-.95-1.2-1.2-.95-3.1l-4.35.15q.85.8 1.45 1.95 1.05 2.1.4 4-.6 1.75-2.8 3.5l-.75.6 18.05 1q57 3.15 93.85 1.7 2-.1 2.85-3.35l.75-7.2q.35-4.3 1.35-6.9L11.95-6.85m44.3 4.2q1.3.4 2.1 1.4.75 1.05.75 2.45-.05 1.35-.8 2.4L57 4.85q-1.4.95-2.75.75-1.65-.2-2.5-2.05-.65-1.4-.25-3.1.5-2.1 2.25-2.95l2.5-.15z"/></g><g id="m"><path d="M15 8.15V7.75q-.15-3.05-2.35-5.25Q10.5.3 7.5.05 4.4-.2 2.35 1.9.3 4 .05 7.75v.4H.1Q.3 11.9 2.35 14q2.05 2.1 5.15 1.85 3-.25 5.15-2.45Q14.8 11.25 15 8.15m-4-.2v.2q-.1 3-3.45 3.2-3.05.2-3.4-3.2l-.05-.4q.35-3.4 3.45-3.2 3.35.2 3.45 3.2v.2z"/><path fill="#FFF" d="M11 8.15v-.4q-.1-3-3.45-3.2-3.1-.2-3.45 3.2l.05.4q.35 3.4 3.4 3.2 3.35-.2 3.45-3.2z"/></g><path d="M18-13.3q-3.4-11.3-10.95-9.65-2.9.65-5.05 3.05-2.1 2.45-2.1 5L9.6-2.8l6 7.6-2.9-1.1Q5.85 1.4-2.85.95q-9.55-.45-15.6 1.7-7.1 2.55-7.1 8.2 0 1.15.85 2.3 1.5 2.15 5.1 2.15 2.3 0 3.3-.8l1.65-1.8q2.75-2.65 13.75-2.65 9 0 12.3 1.75l1.7 1.2q.75.55 1.75.55 1.2 0 3.1-1.95l1.65-2.05q1.7-.1 2.6-1.95.7-1.4.7-2.9l-2.25-7.05Q18.3-9.55 18-13.3z" id="n"/><path d="M8-10.5q-3.05-.05-8 3.6-4.35 3.2-8 7.55-3.65 4.3-3.65 6.2 0 .9.5 1.9.65 1.4 1.95 1.7Q-6.45 7.8-2.3 6 .05 4.95 4.45 3.45q3.6-1.4 5.15-2.9 2.05-2 2.05-5.45 0-5.5-3.65-5.6z" id="o"/><path fill="#9F9F9F" d="M20.85 6.05q1.05-.5 1.05-2.25 0-3.15-3.4-3.7-3.05-.45-7.55 1.25-4.4 1.6-7.55 4.25Q0 8.45 0 11l.3 1.75Q1 14.3 3.15 14.3q1.25 0 2.55-1.2l2.4-2.7q3.5-3.9 8.15-3.9l4.6-.45z" id="q"/><path id="f" fill="none" stroke="#000" stroke-linecap="round" stroke-linejoin="round" stroke-width="4" d="M13.6-32.4v.3q.1 15.9-.25 31-.55 19.8-1.8 26.55l.05 1.05q0 1.45-.75 2.6H-12.5l-.75-.95-.3-1.9q0-.7.65-1.25l-.35-2.65v-8.1q0-14.05.8-29.85.5-10 1.2-15.85-.4-.75-.1-1.5l.45-1.35h23.95q.55.7.55 1.55v.35z"/><path id="l" fill="none" stroke="#000" stroke-linecap="round" stroke-linejoin="round" stroke-width="4" d="M-82.65-3.15v.05q-.25 2.05 0 4.15.1 2.45 1.45 3.85l1.15.9q.05 1.45 4.1 2.15l11.25.9Q-38.6 10-24.95 11.7l51.85 2.75Q73 16 77.05 13.2q3.65-1.4 6.1-10.85 2-7.65 1.85-12.55-.05-1.15-1.15-2.1l-.3-.25q-.1-.8-.95-1.55-1.2-1-3.25-.85l-160.55 6"/><filter id="p" width="140%" height="140%" x="-20%" y="-20%" color-interpolation-filters="sRGB"><feColorMatrix in="SourceGraphic" result="result1" values="0 0 0 0 0 0 0 0 0 0 0 0 0 0 0 0 0 0 1 0"/></filter></defs><use xlink:href="#a" transform="rotate(10.909 -778.383 459.295) scale(.86293)"/><use xlink:href="#b" transform="matrix(.84734 .1633 -.1633 .84734 76.95 148)"/><use xlink:href="#c" transform="rotate(58.443 -83.13 179.405) scale(.8629)"/><use xlink:href="#d" transform="matrix(.86295 0 -.02551 .86295 92.35 195.85)"/><use xlink:href="#c" transform="rotate(32.402 -120.785 304.94) scale(.86289)"/><g transform="matrix(.86288 -.00745 .0646 .86241 137.7 199.1)"><use xlink:href="#e"/><use xlink:href="#f"/></g><use xlink:href="#g" transform="matrix(.86179 .04443 -.12225 .85777 122.25 157.7)"/><use xlink:href="#a" transform="matrix(-.7241 -.46936 -.46936 .7241 154.3 147.3)"/><use xlink:href="#b" transform="matrix(-.86179 -.04443 -.04443 .86179 152.75 135.2)"/><use xlink:href="#h" transform="rotate(-10.556 492.098 -496.062) scale(.86287)"/><use xlink:href="#i" transform="matrix(.3602 -.45932 -1.14014 -.06012 82.15 48.3)"/><use xlink:href="#i" transform="matrix(-.82664 .02074 -.05754 .806 94.65 53.45)"/><use xlink:href="#i" transform="matrix(.89682 -.24484 .22581 .76842 94.35 66.8)"/><use xlink:href="#j" transform="rotate(-6.09 919.014 -424.78) scale(.86284)"/><g transform="matrix(.82024 -.1341 .1369 .73479 98.95 93.15)"><use xlink:href="#k"/><use xlink:href="#l"/></g><use xlink:href="#m" transform="rotate(7.439 -414.456 919.851) scale(1.65806)"/><use xlink:href="#n" transform="rotate(18.937 14.989 202.572) scale(.68893)"/><use xlink:href="#o" transform="rotate(-10.558 146.88 -712.37) scale(.68894)"/><use filter="url(#p)" xlink:href="#q" transform="matrix(1.05713 -.11224 -.11224 -1.05713 118.7 64.05)"/></svg>