<svg xmlns="http://www.w3.org/2000/svg" role="img" xmlns:xlink="http://www.w3.org/1999/xlink" viewBox="-6.86 1.14 302.47 369.72"><defs><g id="Symbol_1785_0_Layer0_0_FILL"><path d="M 12.3 -4.8 Q 7.85 -3.65 4.45 -0.85 -4.15 8.75 -2.9 21.75 L -2.3 29.9 Q -2.15 33.55 -0.8 37 L -0.65 38.65 -0.45 39.5 -0.35 39.9 Q -0.2 45.35 4.3 48.9 9.3 52.8 15.75 53.9 L 16.05 54.15 16.35 54.4 Q 33.5 56.5 35.7 38.65 37 28.25 37.4 17.7 37.6 12.8 36.3 8.05 35.4 4.7 33.55 1.7 L 31.35 -0.1 Q 30 -2 28.05 -3.45 26.55 -4.55 24.8 -4.9 L 24.75 -4.9 24.7 -4.95 24.65 -4.95 Q 19.9 -7 15.15 -5.35 L 12.3 -4.8 M 27.1 7 L 27.85 7.9 Q 29.4 19.9 28.6 32.25 28.45 34.45 27.75 36.65 L 27.8 37.15 27.9 37.55 Q 27.8 46.35 20.35 46.85 L 16.6 46.4 13.2 45.65 12.9 45.4 12.6 45.15 11.4 44.8 10.65 44.5 Q 10.05 44.3 9.6 43.95 L 9.2 43.25 9 42.85 8.9 42.45 8.65 42.15 8.35 41.9 7.75 37.95 Q 7.25 35.3 6.3 32.85 L 5.7 13 Q 5.65 10.7 6.7 8.3 7.7 6.5 9.25 5.05 L 9.75 4.65 Q 13.75 2.2 18.45 1.8 L 20.4 1.75 21.8 2.3 23 2.7 23.2 2.85 24.95 4.25 26.15 5.2 26.75 6.3 27.1 7 Z"/><path fill="#E5D2D2" d="M 27.85 7.9 L 27.1 7 26.75 6.3 26.15 5.2 24.95 4.25 23.2 2.85 23 2.7 21.8 2.3 20.4 1.75 18.45 1.8 Q 13.75 2.2 9.75 4.65 L 9.25 5.05 Q 7.7 6.5 6.7 8.3 5.65 10.7 5.7 13 L 6.3 32.85 Q 7.25 35.3 7.75 37.95 L 8.35 41.9 8.65 42.15 8.9 42.45 9 42.85 9.2 43.25 9.6 43.95 Q 10.05 44.3 10.65 44.5 L 11.4 44.8 12.6 45.15 12.9 45.4 13.2 45.65 16.6 46.4 20.35 46.85 Q 27.8 46.35 27.9 37.55 L 27.8 37.15 27.75 36.65 Q 28.45 34.45 28.6 32.25 29.4 19.9 27.85 7.9 Z"/></g><g id="Symbol_1786_0_Layer0_0_FILL"><path d="M 37.55 12.15 Q 37 8.4 34.25 5.55 31.75 2.9 27.95 1.45 26 0.75 24.1 0.4 21.15 -0.1 15.85 0.2 L 11.9 0.45 9.2 1 5.65 2 Q 3.65 2.9 2.25 4.65 0.8 6.35 0.3 8.5 -0.2 10.55 0.25 13.85 L 0.15 13.85 0.15 37.95 Q 0 38.4 0 39.75 L 0.1 44.6 0.3 44.6 0.25 45 0.5 47.45 Q 1.6 49.6 6 49.6 L 8.5 49.35 34 49.1 Q 35.95 48.4 37.15 47.15 38.25 45.95 38.25 44.85 L 37.8 43.45 37.8 19.35 37.95 13.05 37.65 13.05 37.55 12.15 M 22.55 7.9 L 25 8.45 Q 27.1 9.15 28.55 10.75 29.6 11.8 29.95 13.05 L 30 13.2 30.1 15.8 Q 30.05 16.7 30.15 17.45 L 30.25 19.95 30.25 29.15 30.25 32.5 30.25 34.7 30.25 38.25 30.25 40.6 8.8 40.35 8.8 39.75 8.8 38.7 8.65 38.4 8.65 37.95 8.65 34.45 8.65 32.3 8.65 28.75 8.65 14.95 8.8 13.7 Q 9.1 11.8 9.55 10.95 10.6 9.15 13.35 8.25 L 15.45 7.7 22.55 7.9 Z"/><path fill="#AA94AB" d="M 8.65 37.95 L 9.5 37.9 22.95 37.9 30.25 38.25 30.25 34.7 27.2 34.5 8.65 34.45 8.65 37.95 M 8.65 28.75 L 8.65 32.3 22.6 32.25 28.75 32.55 30.25 32.5 30.25 29.15 20.5 28.75 8.65 28.75 Z"/><path fill="#E1CAE2" d="M 9.5 37.9 L 8.65 37.95 8.65 38.4 8.8 38.7 8.8 39.75 8.8 40.35 30.25 40.6 30.25 38.25 22.95 37.9 9.5 37.9 M 8.65 32.3 L 8.65 34.45 27.2 34.5 30.25 34.7 30.25 32.5 28.75 32.55 22.6 32.25 8.65 32.3 M 25 8.45 L 22.55 7.9 15.45 7.7 13.35 8.25 Q 10.6 9.15 9.55 10.95 9.1 11.8 8.8 13.7 L 8.65 14.95 8.65 28.75 20.5 28.75 30.25 29.15 30.25 19.95 30.15 17.45 Q 30.05 16.7 30.1 15.8 L 30 13.2 29.95 13.05 Q 29.6 11.8 28.55 10.75 27.1 9.15 25 8.45 Z"/></g><g id="Symbol_717_0_Layer0_0_FILL"><path d="M 43.75 33.4 Q 46.35 27.65 46.35 20 46.35 10.45 39.1 4.8 32.45 -0.4 23.2 0.05 13.6 0.5 7.25 6.85 0 14.1 0 26.5 0 32 3.7 36.5 10.2 44.35 25.95 44.35 38.8 44.35 43.75 33.4 M 25.2 7.7 Q 30.45 7.7 34.7 11 39.8 14.95 39.8 21.6 39.8 30.45 32.95 34.3 28.15 36.95 20.4 36.95 16.25 36.95 12.1 32.7 7.65 28.2 7.65 22.8 7.65 14.85 14.85 10.65 19.95 7.7 25.2 7.7 Z"/><path fill="#E5D2D2" d="M 34.7 11 Q 30.45 7.7 25.2 7.7 19.95 7.7 14.85 10.65 7.65 14.85 7.65 22.8 7.65 28.2 12.1 32.7 16.25 36.95 20.4 36.95 28.15 36.95 32.95 34.3 39.8 30.45 39.8 21.6 39.8 14.95 34.7 11 Z"/></g><g id="Symbol_1788_0_Layer0_0_FILL"><path d="M 41.2 0.75 L 41.2 0.1 41.2 0 33.85 0 33.8 0.3 27.65 0.25 25.45 0.6 22.9 0.2 16.35 0.15 5.25 0.5 4.6 0.5 Q 0.55 0.65 0.15 5.1 L 0 15.6 0 35.9 0 52.25 Q 0.3 58.6 1 62.5 0.6 63.4 0.6 64.7 L 0.65 65.3 0.45 66.45 Q 0.45 68.05 1.55 69.1 3.75 71.3 9.7 70.55 L 35.7 70.55 Q 38.4 70.75 39.85 69.3 41.15 68.5 41.35 66.6 41.05 62.9 41.2 61.8 L 41.2 10.1 41.2 7.9 41.2 0.75 M 8.5 23.55 L 8.65 8.45 12.7 8.25 33.9 8.15 33.9 43.55 29.65 43.65 8.5 43.8 8.5 23.55 M 29.65 48.2 L 33.9 48.4 33.9 62.25 33.95 62.4 9.7 62.4 8.7 62.4 8.45 61.95 8.5 61.65 8.5 48.05 29.65 48.2 Z"/><path fill="#AA94AB" d="M 33.9 48.4 L 29.65 48.2 8.5 48.05 8.5 61.65 8.45 61.95 8.7 62.4 9.7 62.4 33.95 62.4 33.9 62.25 33.9 48.4 Z"/><path fill="#E5D2D2" d="M 8.65 8.45 L 8.5 23.55 8.5 43.8 29.65 43.65 33.9 43.55 33.9 8.15 12.7 8.25 8.65 8.45 Z"/></g><g id="Symbol_1789_0_Layer1_0_FILL"><path d="M 86.45 36.3 L 86.35 3.05 Q 87.7 0.5 84.6 0.15 L 78.95 0.45 Q 76.85 0.15 73.95 0.4 L 5.65 0.25 Q 3.5 0.9 2.3 2.15 L 2.15 2.35 Q 0 4.25 0 6.8 L 0.25 9.4 Q 0.4 11.15 0.15 12.2 L 0.15 105.2 0.45 108.85 0.5 109 1.3 110.5 Q 2.5 111.95 4.9 112 9.3 113.05 18 113.05 L 75.15 112.75 Q 87.85 113.8 88.15 110.05 88.45 106.3 87.55 105.35 L 87.55 104 Q 87.55 99.15 86.45 95.95 L 86.5 94.65 86.5 94.05 86.5 85.25 86.5 85.05 86.5 73.15 86.45 61.4 86.45 36.3 M 74.55 9.4 Q 69.9 14.45 62.7 24.45 53.55 37.1 44.45 51.5 42 47.7 34.9 39.95 L 23.2 27.65 Q 16.3 17.1 12.3 11.65 L 10.3 9.05 12.3 9.05 73.95 8.9 74.95 8.95 74.55 9.4 M 9.85 18.95 L 12.25 22.4 Q 16.55 28.4 20.4 33.2 24.7 38.45 33.4 47.7 42.2 57.1 42.9 57.1 L 43.45 57.05 Q 44 57.5 44.95 57.5 48.5 57.5 77.25 15.2 L 77.2 61.4 77.2 71.8 77.2 72.15 77.2 73.25 77.15 82.6 39.3 83.2 Q 16.15 83.15 9.85 83.35 L 9.85 18.95 M 9.85 87.9 L 39.3 88 77.15 88.6 77.15 94.05 77.1 94.05 Q 77.35 99.5 77.95 103.3 L 75.15 103.4 11.65 103.1 9.85 102.95 9.85 87.9 Z"/><path fill="#AA94AB" d="M 39.3 88 L 9.85 87.9 9.85 102.95 11.65 103.1 75.15 103.4 77.95 103.3 Q 77.35 99.5 77.1 94.05 L 77.15 94.05 77.15 88.6 39.3 88 Z"/><path fill="#E1CAE2" d="M 12.25 22.4 L 9.85 18.95 9.85 83.35 Q 16.15 83.15 39.3 83.2 L 77.15 82.6 77.2 73.25 77.2 72.15 77.2 71.8 77.2 61.4 77.25 15.2 Q 48.5 57.5 44.95 57.5 44 57.5 43.45 57.05 L 42.9 57.1 Q 42.2 57.1 33.4 47.7 24.7 38.45 20.4 33.2 16.55 28.4 12.25 22.4 Z"/><path fill="#CCC" d="M 12.3 9.05 L 10.3 9.05 12.3 11.65 12.3 9.05 M 73.95 8.9 L 74.55 9.4 74.95 8.95 73.95 8.9 Z"/><path fill="#E5D2D2" d="M 74.55 9.4 L 73.95 8.9 12.3 9.05 12.3 11.65 Q 16.3 17.1 23.2 27.65 L 34.9 39.95 Q 42 47.7 44.45 51.5 53.55 37.1 62.7 24.45 69.9 14.45 74.55 9.4 Z"/></g><g id="Symbol_1789_0_Layer0_0_FILL"><path fill="#333" d="M 15 8.5 L 14.5 9.5 16.15 9.05 16.15 8.55 15 8.5 Z"/></g><g id="Symbol_1817_0_Layer1_0_FILL"><path fill="#A9798E" d="M 3.9 -9.2 Q 2.7 -8.6 1.6 -7.2 L -0.55 -9.7 Q -2.1 -11.1 -3.6 -10.95 L -5.95 -10.35 -8.05 -9.6 Q -9.3 -9.05 -10.8 -7.35 L -12.05 -5.8 -12.6 -4.6 -13.65 -3.05 -14.15 -0.8 -14.05 0.9 -13.25 2.2 -12.9 3.3 Q -12.4 4.45 -10.15 5.05 L -7.65 5.8 Q -5.1 6.65 -4.2 7.25 -3.4 7.75 -2.9 8.45 L -2.2 9.65 -1.3 10.65 0.85 10.55 Q 1.9 9.85 1.8 8.55 L 2.35 7.8 2.4 7.75 Q 4.55 5.7 7.35 4.7 L 8.95 4.15 10.35 3.3 12.95 1.05 Q 14.5 -1 14.1 -3.4 13.9 -4.75 12.5 -7.15 L 11.3 -8.65 Q 10.6 -9.2 8.85 -9.5 L 3.9 -9.2 M 0.4 -1 Q 1.1 -0.55 1.9 -0.7 2.75 -0.85 3.4 -1.6 L 4.2 -2.8 4.55 -3.75 Q 4.9 -4.6 5.95 -5.05 L 7.9 -5.2 9.4 -4.7 10 -3.55 Q 10.4 -2.45 10.25 -1.8 10.1 -1.3 9.35 -0.75 8.8 -0.25 7.15 0.6 L 3.4 2.6 Q 1.75 3.6 0.75 4.75 L 0.3 4.65 Q -0.5 4.5 -1.6 3.7 L -3.4 2.55 Q -4.2 2.2 -5.4 2 -7.75 1.55 -8.85 0.6 L -9.5 -0.1 -9.7 -0.85 -9.5 -1.4 Q -8.4 -3.8 -7.05 -4.95 -5.8 -6 -4.3 -6.35 L -3.45 -6.45 -2.45 -5.7 -1.7 -4.6 -0.9 -3.55 -0.55 -3.3 -0.55 -2.25 Q -0.35 -1.5 0.4 -1 Z"/></g><g id="Symbol_1818_0_Layer0_0_FILL"><path d="M 165.9 79.9 Q 165.9 73.55 162.05 56.1 158.1 38.5 155.9 35.25 L 147.95 23.5 Q 142.35 16.9 132.65 12.7 131.75 11.2 123.05 7.75 114.35 4.3 104.85 1.35 95.3 -1.6 72 1.85 32.1 7.7 13.25 39.6 0 61.95 0 88.7 0 151.15 82.25 165.15 L 100.9 165.15 Q 142.95 154.85 157.55 125.95 162.95 115.25 164.8 101.55 165.9 93.35 165.9 79.9 M 96.95 21.35 Q 98.65 16.4 99.15 12.15 131 15.8 145.4 38.4 155.9 54.85 155.9 79.95 155.9 102.9 148.9 119.3 133.75 154.7 91.25 154.7 43.95 154.7 23.35 124.55 16.55 114.55 13.4 102.2 11.45 94.4 11.45 88.7 11.45 68.6 20.35 51.65 L 22.2 52.4 Q 29.25 55.05 44.1 55.05 73.2 55.05 88.45 36.6 94 29.8 96.95 21.35 M 91.05 11.55 L 90.75 12.8 Q 89.5 18.35 85.85 26.4 85.1 28.05 82.15 31 78.3 34.95 73.25 38.2 58.5 47.75 39.9 47.75 L 27.7 46.75 23.75 45.85 Q 40.2 20.05 75.25 11.9 83.55 11.25 91.05 11.55 Z"/><path fill="#4F4F4F" d="M 90.75 12.8 L 91.05 11.55 Q 83.55 11.25 75.25 11.9 40.2 20.05 23.75 45.85 L 27.7 46.75 39.9 47.75 Q 58.5 47.75 73.25 38.2 78.3 34.95 82.15 31 85.1 28.05 85.85 26.4 89.5 18.35 90.75 12.8 Z"/><path fill="#E5D2D2" d="M 99.15 12.15 Q 98.65 16.4 96.95 21.35 94 29.8 88.45 36.6 73.2 55.05 44.1 55.05 29.25 55.05 22.2 52.4 L 20.35 51.65 Q 11.45 68.6 11.45 88.7 11.45 94.4 13.4 102.2 16.55 114.55 23.35 124.55 43.95 154.7 91.25 154.7 133.75 154.7 148.9 119.3 155.9 102.9 155.9 79.95 155.9 54.85 145.4 38.4 131 15.8 99.15 12.15 Z"/></g><g id="Symbol_1819_0_Layer0_0_FILL"><path d="M 106.25 24.7 Q 106.9 19.5 107.1 14.1 107.4 6.7 100.9 4.35 85.35 -1.4 68.1 0.45 49.6 4.05 36.55 17.55 28.25 26.05 19.1 33.7 14.1 37.8 7.6 38.1 1.15 38.5 0.1 43.6 -0.25 45.45 0.45 47 7.25 62.05 24.15 66.15 58.75 74.6 87.55 55 99.5 46.8 103.9 33.6 104.45 32.7 104.6 31.3 104.75 29.9 105.25 28.8 L 106 26.45 106.25 25.05 106.25 24.7 M 93.7 9.5 L 97.8 10.5 97.9 10.6 98.3 10.8 98.75 11.15 99.15 11.5 99.3 11.8 99.45 12.15 99.65 12.5 Q 99.5 12.9 99.5 13.25 99.25 15.75 99.45 18.3 L 99.3 22.3 Q 99 23.8 99.3 25.25 95.45 41.6 81 50.45 60.45 63 35.55 61.2 27.3 60 19.6 56.5 13.15 53.45 9.25 47.65 L 9.25 47.3 9.15 46.95 9 46.55 8.9 46.2 Q 23.05 43.2 32.3 31.75 47.05 13.45 69.8 7.65 79.25 6.35 88.55 7.85 L 93.7 9.5 Z"/><path fill="#4F4A48" d="M 97.8 10.5 L 93.7 9.5 88.55 7.85 Q 79.25 6.35 69.8 7.65 47.05 13.45 32.3 31.75 23.05 43.2 8.9 46.2 L 9 46.55 9.15 46.95 9.25 47.3 9.25 47.65 Q 13.15 53.45 19.6 56.5 27.3 60 35.55 61.2 60.45 63 81 50.45 95.45 41.6 99.3 25.25 99 23.8 99.3 22.3 L 99.45 18.3 Q 99.25 15.75 99.5 13.25 99.5 12.9 99.65 12.5 L 99.45 12.15 99.3 11.8 99.15 11.5 98.75 11.15 98.3 10.8 97.9 10.6 97.8 10.5 Z"/></g><g id="Symbol_740_0_Layer0_0_FILL"><path d="M 15 8.25 Q 15 4.85 12.65 2.5 10.5 0.3 7.5 0.05 4.4 -0.2 2.35 1.9 0 4.3 0 8.95 L 0.2 12.2 Q 1.35 15.3 6.35 15.3 12.05 15.3 14 12.55 15 11.1 15 8.25 M 11 7.95 L 10.85 9.55 Q 10.15 11.05 7.25 11.05 4.05 9.45 4.05 8.7 4.05 4.35 7.55 4.55 11 4.75 11 7.95 Z"/><path fill="#FFF" d="M 10.85 9.55 L 11 7.95 Q 11 4.75 7.55 4.55 4.05 4.35 4.05 8.7 4.05 9.45 7.25 11.05 10.15 11.05 10.85 9.55 Z"/></g><g id="Symbol_94_0_Layer0_0_FILL"><path fill="#9F9F9F" d="M 20.85 6.05 Q 21.9 5.55 21.9 3.8 21.9 0.65 18.5 0.1 15.45 -0.35 10.95 1.35 6.55 2.95 3.4 5.6 0 8.45 0 11 L 0.3 12.75 Q 1 14.3 3.15 14.3 4.4 14.3 5.7 13.1 L 8.1 10.4 Q 11.6 6.5 16.25 6.5 L 20.85 6.05 Z"/></g><g id="Symbol_1823_0_Layer2_0_FILL"><path d="M 103.6 10.9 Q 103.4 10.1 102.85 9.6 101.7 8.7 98.75 9.1 L 81.8 9.7 58.45 8.7 18.4 6.05 3.45 5.55 Q 0.45 5.65 -0.75 6.5 -2.3 7.6 -2.2 9.6 -2.2 10.9 -1.15 13.05 0.55 16.55 3.05 20 L 6.85 24.55 10.75 28.7 Q 13.5 31.25 18.35 33.9 27.05 38.75 34.9 40.3 49.75 43.1 67.85 35.4 76.6 31.7 85.5 25.95 92.6 21.35 101.05 14.7 L 101.6 14.25 103.35 12.2 Q 103.65 11.6 103.6 10.9 M 83.5 20.6 L 84.3 20.45 78.85 23.95 Q 70.2 29.2 61.75 32.35 53.7 35.25 47.25 35.95 39 36.8 32 34.6 29.6 33.8 26.5 32.4 19.95 29.3 15.65 25.7 L 14.55 24.7 Q 20 26.45 26.5 27.1 33.65 27.75 44.65 27.25 L 51.5 26.8 Q 56.3 26.3 66.9 24.2 L 83.5 20.6 M 42.15 12.65 L 69.9 13.9 Q 81.6 14.25 90.2 13.6 80.25 16.85 66.6 19.65 49.3 23.1 36.85 23.2 21.5 23.45 9.4 19.05 6.6 15.35 4.15 10.7 7.9 10.4 14.35 10.85 L 42.15 12.65 M 109.7 6.7 Q 109.9 5.6 109.1 4.9 108.3 4.1 105.9 3.6 87.55 0.15 73.95 1.9 71.4 2.3 70.25 2.85 68.55 3.7 68.9 4.8 69.15 5.8 70.6 6.2 L 73.85 6.45 80.7 6.1 Q 92.65 5.55 104.3 8.15 107.2 8.75 108.4 8.2 109.45 7.75 109.7 6.7 M -1.75 -1.15 Q -4.2 -0.85 -5.15 -0.2 -5.9 0.2 -6.25 0.95 -6.65 1.75 -6.25 2.4 -5.65 3.5 -3.95 3.75 L -1.1 3.7 Q 9.3 2.55 23.95 3.35 L 33.05 4.15 37.15 4.85 41.25 5.05 43.05 4.6 Q 44 4.1 44 3.35 44 2.3 42.45 1.75 L 39.9 1.35 35.15 0.35 28.3 -0.75 2.95 -1.5 -1.75 -1.15 Z"/><path fill="#FFF" d="M 69.9 13.9 L 42.15 12.65 14.35 10.85 Q 7.9 10.4 4.15 10.7 6.6 15.35 9.4 19.05 21.5 23.45 36.85 23.2 49.3 23.1 66.6 19.65 80.25 16.85 90.2 13.6 81.6 14.25 69.9 13.9 M 84.3 20.45 L 83.5 20.6 66.9 24.2 Q 56.3 26.3 51.5 26.8 L 44.65 27.25 Q 33.65 27.75 26.5 27.1 20 26.45 14.55 24.7 L 15.65 25.7 Q 19.95 29.3 26.5 32.4 29.6 33.8 32 34.6 39 36.8 47.25 35.95 53.7 35.25 61.75 32.35 70.2 29.2 78.85 23.95 L 84.3 20.45 Z"/></g><g id="Symbol_1829_0_Layer1_0_FILL"><path d="M 4 -19.95 Q 2.3 -22.05 0.2 -22.1 -2.65 -23.15 -5.8 -19.9 L -10.6 -13.3 -14.1 -8.4 -14.95 -7 Q -18.05 -8.55 -22.2 -9.55 -27.45 -10.85 -31.05 -10.5 -33.2 -10.3 -34.2 -9.5 -36.25 -9.45 -36.25 -4.6 L -30.85 8 Q -26.5 16.2 -22.6 18.95 L -22.1 20.45 Q -21.05 22.35 -18.3 22.35 L 18.3 22.35 Q 21.05 22.35 22.1 20.45 L 22.6 18.95 Q 26.5 16.2 30.85 8 L 36.25 -4.6 Q 36.25 -9.45 34.2 -9.5 33.2 -10.3 31.05 -10.5 27.45 -10.85 22.2 -9.55 18.55 -8.65 15.65 -7.3 L 13.65 -9.75 Q 9.95 -13.25 8.75 -14.75 L 6.7 -17.35 4 -19.95 M 0 -14.1 Q 6.1 -5 9.4 -1.15 9.5 -0.15 10.1 0.7 11.15 2.1 13.35 2.1 16.05 2.1 25.85 -3 L 27.35 -3.8 26.6 -2.6 Q 25.55 -0.85 24.7 1.25 L 19.6 10 17.1 14.25 -17.1 14.25 -19.6 10 -24.7 1.25 Q -25.55 -0.85 -26.55 -2.6 L -27.35 -3.8 -25.85 -3 Q -16.05 2.1 -13.35 2.1 -11.15 2.1 -10.1 0.7 -9.5 -0.15 -9.4 -1.15 -6.15 -5.05 0 -14.1 Z"/><path fill="#D9CBBF" d="M 9.4 -1.15 Q 6.1 -5 0 -14.1 -6.15 -5.05 -9.4 -1.15 -9.5 -0.15 -10.1 0.7 -11.15 2.1 -13.35 2.1 -16.05 2.1 -25.85 -3 L -26.55 -2.6 Q -25.55 -0.85 -24.7 1.25 L -19.6 10 -17.1 14.25 17.1 14.25 19.6 10 24.7 1.25 Q 25.55 -0.85 26.6 -2.6 L 25.85 -3 Q 16.05 2.1 13.35 2.1 11.15 2.1 10.1 0.7 9.5 -0.15 9.4 -1.15 M 0 -3.25 L 0.25 -3.3 0.25 -3.15 0.5 -3.1 Q 2.05 -2.5 3.3 -0.55 4.6 1.5 4.6 3.5 4.6 4.85 3.15 7.5 1.9 9.85 0.25 10.7 L 0.25 10.9 0 10.8 -0.25 10.9 -0.25 10.7 Q -1.85 9.85 -3.15 7.5 -4.6 4.85 -4.6 3.5 -4.6 1.5 -3.3 -0.55 -2.05 -2.5 -0.5 -3.1 L -0.25 -3.15 -0.25 -3.3 0 -3.25 M 15.25 11 Q 13.95 11 12.9 9.9 12 8.85 12 7.85 12 4.5 15.2 4.5 18.45 4.5 18.45 7.7 L 18.15 9.3 Q 17.4 11 15.25 11 M -18.15 9.3 L -18.45 7.7 Q -18.45 4.5 -15.2 4.5 -12 4.5 -12 7.85 -12 8.85 -12.9 9.9 -13.95 11 -15.25 11 -17.4 11 -18.15 9.3 Z"/><path fill="#FFF" d="M -18.45 7.7 L -18.15 9.3 Q -17.4 11 -15.25 11 -13.95 11 -12.9 9.9 -12 8.85 -12 7.85 -12 4.5 -15.2 4.5 -18.45 4.5 -18.45 7.7 M 12.9 9.9 Q 13.95 11 15.25 11 17.4 11 18.15 9.3 L 18.45 7.7 Q 18.45 4.5 15.2 4.5 12 4.5 12 7.85 12 8.85 12.9 9.9 M 0.25 -3.3 L 0 -3.25 -0.25 -3.3 -0.25 -3.15 -0.5 -3.1 Q -2.05 -2.5 -3.3 -0.55 -4.6 1.5 -4.6 3.5 -4.6 4.85 -3.15 7.5 -1.85 9.85 -0.25 10.7 L -0.25 10.9 0 10.8 0.25 10.9 0.25 10.7 Q 1.9 9.85 3.15 7.5 4.6 4.85 4.6 3.5 4.6 1.5 3.3 -0.55 2.05 -2.5 0.5 -3.1 L 0.25 -3.15 0.25 -3.3 Z"/></g><filter id="Filter_1" width="140%" height="140%" x="-20%" y="-20%" color-interpolation-filters="sRGB"><feColorMatrix in="SourceGraphic" result="result1" values="0 0 0 0 0 0 0 0 0 0 0 0 0 0 0 0 0 0 1 0"/></filter></defs><g><g transform="matrix(.83871 .58226 .6596 -.95007 206.95 216.65)"><use xlink:href="#Symbol_1785_0_Layer0_0_FILL"/></g></g><g><g transform="matrix(.22704 1.13414 1.13414 -.22704 178.05 204.85)"><use xlink:href="#Symbol_1786_0_Layer0_0_FILL"/></g></g><g><g><g transform="matrix(-.62975 .90709 .95013 .65965 255.35 137.8)"><use xlink:href="#Symbol_717_0_Layer0_0_FILL"/></g></g></g><g><g transform="matrix(1.15668 0 .13885 1.15668 163.25 282.1)"><use xlink:href="#Symbol_1788_0_Layer0_0_FILL"/></g></g><g><g transform="matrix(1.15668 0 -.17809 1.15668 116.85 282.1)"><use xlink:href="#Symbol_1788_0_Layer0_0_FILL"/></g></g><g><g transform="matrix(-.5487 .90495 -.98901 -.59972 92.5 218.1)"><use xlink:href="#Symbol_1785_0_Layer0_0_FILL"/></g></g><g><g transform="rotate(91.231 -39.793 164.286) scale(1.15664)"><use xlink:href="#Symbol_1786_0_Layer0_0_FILL"/></g></g><g><g transform="rotate(-5.983 1856.638 -864.045) scale(1.1567)"><use xlink:href="#Symbol_1789_0_Layer1_0_FILL"/></g><g transform="rotate(-5.983 1856.638 -864.045) scale(1.1567)"><use xlink:href="#Symbol_1789_0_Layer0_0_FILL"/></g></g><g><g transform="matrix(1.1504 -.1204 .1204 1.1504 158.1 264.1)"><use xlink:href="#Symbol_1817_0_Layer1_0_FILL"/></g></g><g><g><g transform="rotate(1.233 -8112.808 138.38) scale(1.15664)"><use xlink:href="#Symbol_717_0_Layer0_0_FILL"/></g></g></g><g><g transform="rotate(-5.983 527.017 -331.73) scale(1.1567)"><use xlink:href="#Symbol_1818_0_Layer0_0_FILL"/></g></g><g><g><g transform="matrix(1.15656 -.015 .015 1.15656 31.75 38.05)"><use xlink:href="#Symbol_1819_0_Layer0_0_FILL"/></g></g></g><g><g transform="rotate(-5.983 1332.323 -850.17) scale(1.1567)"><use xlink:href="#Symbol_740_0_Layer0_0_FILL"/></g></g><g><g transform="rotate(-5.983 1281.132 -1707.884) scale(1.1567)"><use xlink:href="#Symbol_740_0_Layer0_0_FILL"/></g></g><g><g transform="matrix(-1.08005 .414 .414 1.08005 202.65 94.75)"><use filter="url(#Filter_1)" xlink:href="#Symbol_94_0_Layer0_0_FILL"/></g></g><g><g transform="rotate(9.025 -629.366 627.87) scale(1.15665)"><use filter="url(#Filter_1)" xlink:href="#Symbol_94_0_Layer0_0_FILL"/></g></g><g id="mouth"><g transform="rotate(-5.983 1557.764 -798.023) scale(1.1567)"><use xlink:href="#Symbol_1823_0_Layer2_0_FILL"/></g></g><g><g transform="matrix(.89197 -.22748 .28583 1.12077 116.35 33.3)"><use xlink:href="#Symbol_1829_0_Layer1_0_FILL"/></g></g></svg>