<?xml version="1.0" encoding="UTF-8" standalone="no"?>
<svg
   ffdec:objectType="frame"
   height="100.56151"
   width="95.370674"
   version="1.1"
   id="svg6"
   xmlns:xlink="http://www.w3.org/1999/xlink"
   xmlns="http://www.w3.org/2000/svg"
   xmlns:svg="http://www.w3.org/2000/svg"
   xmlns:ffdec="https://www.free-decompiler.com/flash">
  <g
     transform="translate(48.366129,51.45)"
     id="g1">
    <use
       ffdec:characterId="17"
       height="119.15"
       id="rarity"
       transform="translate(-58.5,-60.65)"
       width="119.15"
       xlink:href="#sprite0" />
    <use
       ffdec:characterId="671"
       height="100.7"
       transform="translate(-48.35,-51.6)"
       width="95.349998"
       xlink:href="#shape0"
       id="use1" />
  </g>
  <defs
     id="defs6">
    <g
       id="shape0"
       transform="translate(47.95,50.8)">
      <path
         d="m 46.25,20.35 q -0.5,2.15 -1.7,4.15 -1.65,2.95 -3.95,4.15 -3.2,1.7 -7.45,0.4 -2.9,-0.9 -6.7,-3.7 -9.5,-7 -16.9,-17.3 L 8.75,6.9 Q 6.9,6.15 5.15,5.85 l 1.2,1.95 5.6,10.45 Q 15.1,24.35 16.8,29 l 0.65,2.55 q 0.2,1.3 -0.1,2.4 -0.45,1.45 -2.2,3.2 -6.75,6.9 -13,10 -8.2,3.95 -15.95,2.25 -3.5,-0.75 -5.95,-2.8 -2.3,-1.9 -4.6,-5.85 -3.15,-5.5 -5.45,-11.5 -1.95,-5.15 -1.2,-8.15 0.55,-2.45 3.3,-5.55 l 2.85,-2.8 -1.3,-2.35 q -5.65,-11.05 -7.8,-16.35 -1.15,-2.8 -0.95,-4.4 0.25,-1.8 2.1,-3.6 l -1,-3.15 q -0.6,-3.15 0.6,-4.95 l 1.5,-1.55 q 2.95,-2.15 8.3,-3.55 l 3.05,-0.2 q 1.75,0.25 3.05,2.05 0.95,1.2 1.7,3.45 l 0.15,0.45 1.05,-0.15 q 1.65,-0.2 2.85,0.4 1.25,0.65 2.2,2.3 l 1.45,3 0.4,0.9 0.1,-0.1 q 2.6,-1.9 3.6,-4.05 -3.5,-11.5 -2.7,-21.2 0.3,-2.95 1,-4.4 0.9,-1.8 2.8,-3.3 2,-1.6 4.35,-2.3 l 4.8,-0.35 q 3.2,0.55 6.85,3.5 3.1,2.45 6.65,6.45 9.35,10.35 15.9,22.85 6.5,12.45 9.7,26 1.05,4.25 1.15,7.5 l -0.2,3.25 -0.25,1.45 m -19.7,-10 0.9,1.4 Q 22.3,9.35 19.85,7.15 L 17.3,4.2 16.6,3.25 16.3,2.8 16.15,2.65 13.8,-0.15 Q 12.35,-2.2 10.35,-6.45 L 8.8,-9.95 7.35,-12.6 Q 6,-15.05 5.4,-16.75 4.95,-18.3 4.6,-20.2 4,-23.3 3.85,-25.45 l -0.05,-1.5 q 0,-0.8 0.4,-1.05 0.3,-0.2 0.7,0 l 0.35,0.2 0.5,1.05 q 0.9,3 2.35,6.25 l 0.95,-0.15 2.2,0.35 2.5,2 1.7,1.4 1.6,1.5 1.15,1.75 2,3.65 1.25,3.3 q 0.4,1.7 0.4,5.75 L 21.55,2 21.2,3 l 1.75,2.25 3.6,5.1 M 19.7,-32.6 18.25,-34.35 q -3.75,-4.45 -7.05,-7.35 -4.95,-4.25 -8.7,-3.1 -2.8,0.9 -4,4.1 -0.9,2.25 -0.65,5.85 0.2,3.1 1.2,6.9 l 2.05,6.7 2.55,7.45 2.1,4.9 q 3.2,6.9 7.8,13.2 2.15,2.95 4.6,5.7 l 1.15,1.25 5.7,5.6 1.6,1.4 1.15,0.95 q 2.95,2.35 5.5,3.65 l 0.8,0.4 q 1.8,0.85 3.05,0.55 1.15,-0.3 2.1,-1.4 L 39.55,22 q 1.1,-1.6 1.5,-3.75 l 0.1,-1.2 Q 41.3,14.65 40.6,11.1 38.4,0.05 33.5,-10.5 L 32.3,-13 Q 27.15,-23.35 19.7,-32.6 m -28.4,30.8 1.45,1.45 q 1.35,1 2.5,1.05 l 1.35,-0.15 1.3,-0.3 6.5,-0.3 Q 2.3,-3.75 0.55,-7.7 l -2.2,-5.3 q -1.4,1.25 -2.85,2.25 l -3.7,2.75 -1.45,1.45 -0.3,1.7 q 0.2,1.7 1.25,3.05 m -32.8,-12.55 q 0.4,-0.35 0.95,-0.3 l 0.95,0.4 q 0.45,0.45 0.55,1.35 l 0.05,2.25 0.3,2.2 0.85,1.7 q 0.4,1.2 -0.05,1.9 -0.7,0.95 -2,0.5 -0.85,-0.3 -1.6,-1.5 -1.5,-2.6 -0.85,-6.75 0.3,-1.35 0.85,-1.75 m -0.7,10.85 q 0.5,0.7 0.35,1.6 -0.1,0.95 -0.85,1.35 l -1.5,0.2 q -1.1,-0.2 -2,-1 -0.85,-0.75 -1.3,-1.85 -0.85,-2 -0.15,-4.5 0.4,-1.6 1.3,-2 0.55,-0.2 1.1,0 0.6,0.2 0.85,0.7 l 0.2,1.1 v 1.2 q 0.1,1.05 0.8,1.95 l 1.2,1.25 m 17.2,-15.05 5,-1.55 -0.5,-1 -0.65,-0.65 H -22 l -3.55,1.05 q -1.95,0.7 -3.05,1.9 l 0.65,1.55 2.95,-1.3 m -0.6,16.3 0.3,0.65 4.5,8.95 q 0.75,1.4 1.5,1.8 L -17,9.2 -11.2,7.85 Q -9.3,7.2 -7.85,6.25 L -9.1,5.55 q -1.75,-1 -2.95,-2 -2.25,-2 -3.15,-4.85 -0.9,-2.7 -0.5,-5.3 l 0.05,-0.45 q 0.6,-3.45 2.95,-5.1 l 1,-0.6 -0.9,-1.5 q -0.6,-1.25 -1.35,-1.4 l -1.25,0.15 -8.65,2.95 q -3.25,1.4 -4.7,2.85 0.6,2.7 2.95,7.45 M 1.05,10.95 0,9.4 -0.7,8.25 -0.75,8.3 q -4.75,5.3 -13.75,7.05 l -0.15,0.05 -1.55,0.25 q -2.3,0.25 -4.05,-0.05 l -3.15,3.6 q -1.65,1.9 -1.9,3.2 l 0.15,1.5 0.55,1.6 q 2.3,5.75 5.25,11 l 1.85,3 2.5,2.35 q 2.25,1.45 5.35,1.55 5.2,0.25 10.6,-2.7 3.95,-2.1 8.8,-6.65 1.2,-1.15 1.4,-1.9 Q 11.5,31.05 10.5,29 L 5.65,19 1.05,10.95 m 26.6,27.25 0.6,-1.4 0.85,-2.55 0.55,-1.2 q 0.5,-0.5 1.25,-0.45 0.75,0.05 1.15,0.55 0.55,0.7 0.35,2.15 L 31.75,39 q -0.65,1.95 -2.2,3 l -1.5,0.5 q -0.95,0 -1.4,-0.7 -0.55,-0.85 0,-1.9 l 1,-1.7 m -3.55,2.4 q -0.6,0.25 -1.25,0 -0.65,-0.25 -0.9,-0.85 -0.4,-0.75 0,-1.9 L 22.75,36 23.1,34.2 23.15,32.65 V 31 q 0.25,-0.6 0.9,-0.75 0.7,-0.15 1.15,0.3 0.45,0.4 0.55,1.45 l 0.35,3.7 q 0,2.05 -0.75,3.55 -0.45,1 -1.25,1.35"
         fill="#000000"
         fill-rule="evenodd"
         stroke="none"
         id="path1" />
      <path
         d="m 46.7,15.65 q 0.7,0.4 0.7,1.45 0.05,0.85 -0.45,1.9 l -0.7,1.35 0.25,-1.45 0.2,-3.25 M 4.9,-28 q -0.4,-0.2 -0.7,0 -0.4,0.25 -0.4,1.05 l 0.05,1.5 q 0.15,2.15 0.75,5.25 0.35,1.9 0.8,3.45 0.6,1.7 1.95,4.15 l 1.45,2.65 1.55,3.5 q 2,4.25 3.45,6.3 l 2.35,2.8 0.15,0.15 0.3,0.45 0.7,0.95 2.55,2.95 q 2.45,2.2 7.6,4.6 l -0.9,-1.4 0.6,0.4 Q 29,12 30.6,12.55 L 30.9,12.5 33,12.1 q 1.4,-0.35 1.8,-0.75 l 0.65,-1.15 q 2.4,-4.8 -1.95,-20.7 4.9,10.55 7.1,21.6 0.7,3.55 0.55,5.95 l -0.1,1.2 q -0.4,2.15 -1.5,3.75 l -0.35,0.4 q -0.95,1.1 -2.1,1.4 -1.25,0.3 -3.05,-0.55 l -0.8,-0.4 Q 30.7,21.55 27.75,19.2 L 26.6,18.25 25,16.85 19.3,11.25 18.15,10 Q 15.7,7.25 13.55,4.3 8.95,-2 5.75,-8.9 l -2.1,-4.9 -2.55,-7.45 -2.05,-6.7 q -1,-3.8 -1.2,-6.9 -0.25,-3.6 0.65,-5.85 1.2,-3.2 4,-4.1 3.75,-1.15 8.7,3.1 3.3,2.9 7.05,7.35 l 1.45,1.75 q -4.7,-4.85 -9.2,-7.6 -4.5,-2.75 -6.5,-1 -2.85,2 -1.3,6.65 L 4.9,-28 m -4.35,20.3 -1,1.4 q -0.8,0.95 -2.3,1.8 -0.85,0.5 -2.6,1.45 L -7.25,-2 -8.7,-1.8 q -1.05,-1.35 -1.25,-3.05 l 0.3,-1.7 1.45,-1.45 3.7,-2.75 q 1.45,-1 2.85,-2.25 l 2.2,5.3 M -25,-18.55 l -2.95,1.3 -0.65,-1.55 q 1.1,-1.2 3.05,-1.9 l 3.55,-1.05 h 0.85 l 0.65,0.65 0.5,1 -5,1.55 m 9.3,11.95 -1.25,0.75 q -3.45,2.1 -5.15,2.75 -1.85,0.7 -3.5,0.85 -2.35,-4.75 -2.95,-7.45 1.45,-1.45 4.7,-2.85 l 8.65,-2.95 1.25,-0.15 q 0.75,0.15 1.35,1.4 l 0.9,1.5 -1,0.6 q -2.35,1.65 -2.95,5.1 l -0.05,0.45"
         fill="#c46868"
         fill-rule="evenodd"
         stroke="none"
         id="path2" />
      <path
         d="M 4.9,-28 2.7,-34.55 Q 1.15,-39.2 4,-41.2 q 2,-1.75 6.5,1 4.5,2.75 9.2,7.6 7.45,9.25 12.6,19.6 l 1.2,2.5 q 4.35,15.9 1.95,20.7 l -0.65,1.15 q -0.4,0.4 -1.8,0.75 l -2.1,0.4 -0.3,0.05 Q 29,12 27.15,10.75 l -0.6,-0.4 -3.6,-5.1 L 21.2,3 l 0.35,-1 0.3,-2.95 q 0,-4.05 -0.4,-5.75 l -1.25,-3.3 -2,-3.65 -1.15,-1.75 -1.6,-1.5 -1.7,-1.4 -2.5,-2 -2.2,-0.35 -0.95,0.15 Q 6.65,-23.75 5.75,-26.75 L 5.25,-27.8 4.9,-28 M 0.55,-7.7 q 1.75,3.95 3.85,7.65 l -6.5,0.3 -1.3,0.3 -1.35,0.15 Q -5.9,0.65 -7.25,-0.35 L -8.7,-1.8 -7.25,-2 l 1.9,-1.05 q 1.75,-0.95 2.6,-1.45 1.5,-0.85 2.3,-1.8 l 1,-1.4 m -26.15,5.45 q 1.65,-0.15 3.5,-0.85 1.7,-0.65 5.15,-2.75 l 1.25,-0.75 q -0.4,2.6 0.5,5.3 0.9,2.85 3.15,4.85 1.2,1 2.95,2 l 1.25,0.7 Q -9.3,7.2 -11.2,7.85 L -17,9.2 -19.3,9.15 q -0.75,-0.4 -1.5,-1.8 l -4.5,-8.95 -0.3,-0.65"
         fill="#873d3d"
         fill-rule="evenodd"
         stroke="none"
         id="path3" />
      <path
         d="m -14.65,15.4 0.15,-0.05 Q -5.5,13.6 -0.75,8.3 L -0.7,8.25 0,9.4 l 1.05,1.55 -1.1,1.5 q -2.15,2.5 -5.4,4.95 l -6.15,4.1 -4.7,2.7 q -1.9,0.9 -3.3,1.15 l -3.45,-0.3 q -1.3,-0.45 -2.1,-1.15 l -0.15,-1.5 q 0.25,-1.3 1.9,-3.2 l 3.15,-3.6 q 1.75,0.3 4.05,0.05 l 0.2,0.45 1.35,-0.7"
         fill="#c2abab"
         fill-rule="evenodd"
         stroke="none"
         id="path4" />
      <path
         d="m -25.15,23.9 q 0.8,0.7 2.1,1.15 l 3.45,0.3 q 1.4,-0.25 3.3,-1.15 l 4.7,-2.7 6.15,-4.1 q 3.25,-2.45 5.4,-4.95 l 1.1,-1.5 4.6,8.05 4.85,10 q 1,2.05 0.65,3.15 -0.2,0.75 -1.4,1.9 -4.85,4.55 -8.8,6.65 -5.4,2.95 -10.6,2.7 -3.1,-0.1 -5.35,-1.55 l -2.5,-2.35 -1.85,-3 q -2.95,-5.25 -5.25,-11 l -0.55,-1.6"
         fill="#a18d8d"
         fill-rule="evenodd"
         stroke="none"
         id="path5" />
    </g>
    <g
       id="sprite1"
       transform="translate(17.4,15.85)">
      <use
         ffdec:characterId="31"
         height="57.200001"
         transform="matrix(0.5366,0,0,0.5366,-16.6582,-14.546)"
         width="70.75"
         xlink:href="#sprite2"
         id="use5" />
    </g>
    <g
       id="sprite2"
       transform="translate(-8.65,-10.35)">
      <use
         ffdec:characterId="30"
         height="57.200001"
         transform="translate(8.65,10.35)"
         width="70.75"
         xlink:href="#shape1"
         id="use6" />
    </g>
    <g
       id="shape1"
       transform="translate(-8.65,-10.35)">
      <path
         d="m 14.8,41.7 q 0.65,-1.75 2.65,-2.5 1.8,-0.8 3.7,-0.25 1.15,0.45 2.25,1.2 l 0.9,0.4 q 1.65,0.9 2.85,2.5 L 37.8,30.1 q 2.35,-2.8 3.75,-3.95 1.5,-1.15 4.25,-2.4 18.2,-8.85 27.65,-12.6 2.15,-0.8 3.25,-0.8 h 0.8 l 1.9,2.4 -0.2,0.8 q -0.2,1.1 -1.55,3 -5.85,8.25 -18.85,23.8 -1.85,2.35 -3.35,3.5 -1.4,1.15 -4.75,2.75 l -15.15,7.15 q 1.2,1.6 1.75,3.4 l 0.2,1 0.55,2.5 q 0.1,1.95 -1.1,3.55 -1.2,1.65 -3.05,1.9 l -1.3,0.05 q -1.65,0.2 -3.45,-0.65 -1.85,-0.9 -3,-2.6 L 25,60.95 23.8,62.1 q -2.6,2.85 -4.3,3.95 -2.85,1.8 -5.5,1.45 l -1.65,-0.5 -1.2,-0.7 -0.2,-0.2 q -1,-0.85 -1.6,-1.9 L 9.25,64 9.15,63.8 8.75,62.4 q -0.2,-0.8 -0.05,-1.7 0.25,-2.65 2.7,-5.05 1.5,-1.3 4.9,-3.15 L 17.7,51.55 16.05,50 q -1.35,-1.5 -1.8,-3.6 -0.4,-1.85 0.25,-3.45 l 0.3,-1.25"
         fill="#000000"
         fill-opacity="0.372549"
         fill-rule="evenodd"
         stroke="none"
         id="path6" />
    </g>
  </defs>
</svg>
