<?xml version="1.0" encoding="UTF-8" standalone="no"?>
<svg
   ffdec:objectType="frame"
   height="82.64518"
   width="80.688454"
   version="1.1"
   id="svg7"
   xmlns:xlink="http://www.w3.org/1999/xlink"
   xmlns="http://www.w3.org/2000/svg"
   xmlns:svg="http://www.w3.org/2000/svg"
   xmlns:ffdec="https://www.free-decompiler.com/flash">
  <g
     transform="translate(39.42619,36.395181)"
     id="g1">
    <use
       ffdec:characterId="17"
       height="119.15"
       id="rarity"
       transform="translate(-58.5,-60.65)"
       width="119.15"
       xlink:href="#sprite0" />
    <use
       ffdec:characterId="836"
       height="82.699997"
       transform="translate(-39.45,-36.4)"
       width="80.699997"
       xlink:href="#shape0"
       id="use1" />
  </g>
  <defs
     id="defs7">
    <g
       id="shape0"
       transform="translate(40,37.15)">
      <path
         d="m -2.95,-31.75 q 0.4,-0.2 2.85,-1.75 2.05,-1.25 4.7,-2.15 8.35,-2.75 15.3,0.2 2.35,1 4.35,2.55 l 0.05,0.05 q 2.35,-2.4 5.2,-2.9 l 3.15,0.05 q 1.65,0.35 2.9,1.3 1.4,1.1 2.55,3.3 1.75,3.45 2.4,9.6 0.75,7.55 -1.15,12.25 -1.2,3.05 -3.5,5.1 l -0.6,0.55 0.7,0.85 q 3.1,4.1 3.9,10.9 l 0.1,1.8 q 0,1.65 -1,4.85 -0.6,1.95 -1.55,2.5 l -0.3,0.15 0.3,1.55 -0.05,2.95 -0.55,3.5 q -0.75,2.7 -2.65,4.95 -1.9,2.15 -4.5,3.4 -2.2,1.1 -4.55,1.4 l -5.75,-0.2 1.7,2.65 0.75,1.1 0.7,0.65 q 0.4,0.45 0.35,1.1 -0.05,0.65 -0.45,1 l -1.05,0.55 -2.5,0.9 -3.35,0.9 -1.3,0.05 -1.1,-0.65 -0.3,-0.85 q -1.1,-4.1 -1.05,-6.25 l 0.15,-1.6 -1.3,0.15 -9.7,1.6 -1.3,0.1 -0.5,-0.1 -1.55,1.5 q 0.25,1 0.35,2.05 l 0.35,1.65 0.1,1.4 -0.05,1.25 Q -1.9,44.9 -3,45.2 l -1.8,0.05 -2.55,0.15 -2.6,0.1 -1.4,-0.35 q -1.05,-0.65 -1.15,-1.8 l 0.05,-1 q 0.3,-2.55 0.95,-3.65 l 0.75,-1.2 0.05,-0.1 -0.65,0.1 -4,0.9 -3.2,0.95 -2.45,0.1 -2.4,-0.45 -0.35,-0.25 -1.6,-0.5 q -4.6,-1.95 -8.15,-6.25 -3.3,-3.9 -5.1,-9.1 -1.7,-4.95 -1.3,-8.75 0.2,-2.35 1.15,-5.3 2.4,-7.65 6.7,-10.2 l 1.7,-0.75 -1.1,-1.55 q -1.9,-2.9 -2.6,-4.8 -0.7,-2.1 -0.8,-4.9 -0.15,-7.4 3,-13.8 1.4,-2.9 3,-4.55 1.55,-1.7 3.8,-2.9 5.65,-3.25 11.9,-2.35 3.1,0.45 5.8,2.05 2.35,1.35 4,3.35 l 0.4,-0.2 m 37.4,3.65 -0.2,-0.55 q -0.95,-1.95 -2.65,-2.5 l -2.3,-0.05 q -1.2,0.4 -2.05,1.3 l -1.1,1.35 q -0.65,0.75 -1.35,0.85 -0.5,0.05 -1.3,-0.35 l -1.2,-0.75 -1.25,-0.95 Q 19.3,-31 17.3,-31.85 l -0.65,-0.2 q -2.55,-0.65 -6.25,0 -4.9,0.85 -8.1,3 l -3,1.9 -2,0.6 -1.45,-0.25 -0.25,-0.1 -0.5,-0.1 q -0.5,-0.15 -1.05,-0.4 l -0.55,-0.3 -0.9,-0.65 -0.55,-0.35 q -4.25,-2.85 -8.9,-2.4 -2.35,0.25 -4.5,1.3 l -2.15,1.45 -1.5,1.45 q -1.7,2.1 -2.8,5.7 l -0.1,0.35 q -1.45,4.85 -0.85,8.7 0.35,2.35 1.35,4.35 1.3,2.7 3.75,4.75 1.45,1.25 2.55,0.95 0.8,-0.2 1.45,-1.15 1.35,-1.8 2.1,-5.2 1,-3.9 0.75,-6.6 l -0.1,-0.85 q -0.45,-3.1 -2.45,-5.1 -2.3,5 -1.4,8.65 l 0.15,-0.1 0.2,-0.65 0.5,-0.35 q 0.85,-0.2 1.1,0.6 v 0.75 l -0.4,2.3 q -0.35,1.5 -1.35,1.95 l -1.1,0.05 -0.1,-0.05 -1.4,-0.2 q -0.85,-0.45 -1.4,-1.9 -1.15,-3.05 -1,-6.35 l 0.2,-1.6 q 0.35,-2.45 1.45,-4.65 l 0.1,-0.2 q 0.85,-1.6 2.05,-2.6 1.7,-1.25 3.4,-0.8 0.95,0.25 1.95,1.25 l 0.75,0.8 q 1.4,1.8 2.3,3.95 l 0.55,1.55 0.05,0.2 q 0.85,2.95 0.6,5.9 -0.15,1.5 -0.85,4.65 -1.15,4.65 -2.65,6.95 l -0.9,1.15 2.25,-0.15 4.1,-0.75 4.4,-1.55 1.9,-1.55 0.05,-0.1 0.2,-0.3 -0.5,-0.35 -0.15,-0.15 -0.5,0.3 -2.5,0.85 -0.45,0.05 h -1.3 q -0.4,-0.1 -0.6,-0.25 l -0.3,-0.5 0.4,-0.6 0.45,-0.4 1,-0.5 q 0.7,-0.3 1,-0.55 l 0.8,-0.7 1.35,-0.95 0.85,-0.85 0.25,-0.15 q 0.4,-1.6 0.35,-3.4 l -1.25,-0.4 -3.1,-1.25 -0.65,-0.35 q -0.35,-0.35 -0.3,-0.7 0.1,-0.6 1.15,-0.7 2.45,-0.15 3.85,0.05 l -0.25,-1.45 -0.35,-1.8 -0.35,-1.75 -0.3,-0.95 -0.15,-0.45 -0.2,-0.4 v -0.05 l 0.1,-0.8 0.55,-0.65 0.1,-0.05 1.05,-0.05 q 0.6,0.2 1.05,0.7 l 0.1,0.15 0.4,0.65 0.5,1.45 0.55,2.55 0.35,1.9 q 0.7,4.75 -0.05,9.6 l -0.2,1.1 v 0.2 q 0.15,0.45 0.05,1.1 L 0.9,-4.5 q 1.55,0.5 2.75,2.05 l 0.45,0.7 3.8,0.65 4.7,-0.3 q 1.9,-0.4 3.45,-1.05 l 1.75,-0.6 h 0.1 l 0.5,-0.5 q 2.2,-1.8 4.9,-1.3 l 1.25,0.4 1.2,-0.1 h 1 q 0.45,-0.8 1.7,-1.15 L 29.8,-6 31.1,-6.35 q 1.45,-0.55 2.55,-2.15 2.4,-3.25 2.5,-8.05 0.1,-2.9 -0.9,-8.5 l -0.8,-3.05 m -11.15,8.45 -0.1,-0.35 -0.6,-1.85 -0.45,-0.9 q -0.1,-0.35 -0.05,-0.65 l 0.05,-0.3 q 0.1,-0.55 0.7,-0.95 l 0.35,-0.15 0.65,-0.05 0.55,0.1 0.4,0.25 0.65,1.1 0.45,1.4 0.15,0.55 0.2,-0.1 1.1,-0.7 0.65,-0.65 0.7,-0.55 1.25,0.15 q 0.6,0.45 0.6,1.1 v 0.25 q -0.15,0.6 -0.85,1.4 l -2.35,2.1 -0.75,0.4 0.2,2.35 q 0,1.7 -0.4,3.6 l -0.1,0.45 0.1,0.05 1.2,0.85 0.95,0.4 0.75,0.65 q 0.3,0.45 0,1.1 l -0.85,0.8 q -1.1,0.5 -3.15,-0.3 l -0.5,1.05 -0.8,1.2 -0.55,0.6 -0.75,0.05 q -0.35,-0.15 -0.35,-0.6 l 0.15,-0.75 0.75,-4.4 0.35,-3.25 q 0.15,-2.95 -0.3,-5.45 m 1.15,19.4 -0.8,-0.85 -1.25,-0.1 Q 21.6,-1.05 21,-0.45 20.4,0.2 20.25,1 q -0.1,0.65 0.1,1.75 0.35,1.55 1.05,2.35 0.75,0.85 3.05,1.8 2.8,1.2 5.1,2.95 L 26,6.3 24.85,4.9 24.65,4.8 q -1.25,0.35 -2.2,-0.6 -1,-0.8 -0.9,-2.1 0.05,-0.8 0.5,-1.4 0.5,-0.65 1.2,-0.8 l 1.3,0.1 -0.1,-0.25 m 7.35,7.6 0.65,0.7 q 1.95,2.2 2.9,4.15 l 0.35,-1.45 -0.05,-2.3 q -0.7,-5.25 -3,-8.55 l -0.9,-1.65 -1.4,0.3 q -1.7,0.2 -2.65,-0.35 L 27.35,-2 H 27.2 l 0.1,0.2 q 0.65,1.45 0.4,3.1 l -0.05,0.4 -0.5,1.5 0.55,0.35 q 2,1.45 4.1,3.8 m -32.3,-2 0.65,-1.1 Q 1.1,3 1.15,1.5 1.25,0.2 0.5,-0.3 -0.1,-0.7 -0.9,-0.5 l 0.25,0.15 Q 0.25,0.25 0.3,1.2 L 0.1,2.4 -0.4,3.5 Q -0.9,4.3 -1.7,4.45 -2.65,4.6 -3.25,4.1 L -3.35,4 -3.5,4.3 v 0.05 l -0.1,0.8 q -0.25,0.8 -1.65,1.8 -2.6,2 -4.55,4.35 l -1.2,1.8 q -1.05,1.95 -1.15,4.8 l 0.1,1.5 0.7,-2 0.95,-1.9 1.9,-2.8 q 1.35,-1.8 5.2,-4.9 L -0.5,5.55 V 5.35 M -10.4,7.05 -7,3.9 V 3.85 L -7.05,2.8 -6.95,1.6 -9.3,2.7 -12.5,3.45 -16.45,3.9 -18.9,3.65 Q -20.5,3.4 -21.3,3 l -0.4,0.05 -1.05,0.05 -2.55,-0.7 -1.95,-1.2 -0.95,0.25 q -2.05,0.75 -3.5,3.05 -0.65,1.1 -1.9,4.3 l -0.95,3.05 -0.45,3.1 q 0,1.65 0.65,4.15 1.3,4.65 3.7,8.1 2.75,3.95 6.55,5.7 l 1.8,0.9 q 1,0.6 1.4,1.35 l 0.15,0.3 v 0.05 l 1.4,-0.3 3.55,-1.1 4.25,-0.95 3.7,-0.3 -0.2,-0.7 Q -8.7,30.45 -10.4,28.1 l -1.15,-0.7 -0.55,-1.2 q -1,-1.45 -1.95,-4 l -0.65,-1.9 -0.2,-2.8 -0.05,-1.55 0.05,-1.6 0.75,-2.2 q 1.1,-2.4 3.75,-5.1 m -9,26.1 -0.65,-0.5 q -0.2,-0.35 0.1,-1.2 l 0.6,-1.7 0.25,-2.5 q 0.15,-3.55 0,-7.15 l -0.15,-2.1 -0.85,-3.85 -0.15,-1.05 0.05,-0.95 q 0.2,-0.65 0.75,-1 l 0.65,-0.3 q 0.9,-0.2 1.55,0.4 L -17,11.5 q 0.4,0.4 0.6,1.3 0.65,2.6 0.55,7.3 -0.05,3.9 -0.25,5.85 -0.35,3.2 -1.3,5.6 -0.5,1.15 -1.05,1.45 l -0.95,0.15 M 24.6,11.4 Q 22,10.35 20.8,9.65 18.65,8.5 17.7,6.95 17.15,6.05 16.65,3.95 16.2,2.4 16.2,1.2 L 11.65,2.35 10.25,2.45 8.7,2.3 6.65,1.95 4.8,1.55 H 4.75 L 4.35,3.4 3.85,4.7 Q 3.3,5.7 2.05,6.45 L 1.6,7 0.8,8.6 -0.3,9.85 q 2.7,0.5 5.4,1.8 l 3.3,1.85 q 4.15,-2.95 6.7,-4.3 l 0.85,-0.35 q 0.6,0 0.75,0.4 0.3,0.45 -0.5,1.25 l -5.45,4.35 1.7,0.95 q 1.2,0.65 2,1.2 l 3.4,2.7 q 0.9,0.8 0.6,1.35 -0.25,0.5 -0.85,0.4 Q 17.25,21.4 16.65,21 13,18.7 8.8,16.25 L 5.05,18.9 2.9,20.3 q -0.7,0.3 -1.1,0 -0.4,-0.4 0.15,-1.2 l 1.5,-1.85 q 0.9,-0.8 2.05,-1.65 l 1,-0.7 -2.45,-1.45 -2.25,-1.4 -2.15,-2.15 -1.1,1 -2.05,1.8 -0.15,0.4 -0.5,1.1 q -0.55,1.75 0.5,3.75 l 2.15,3.15 q 0.85,1.25 1.75,3.35 1.35,2.95 1.4,5.25 L 1.2,32.55 Q 5.55,31.4 7.9,31 l 6.95,-0.6 H 15 l 0.25,-0.35 q 1.05,-1.2 3.1,-1.85 l 3.6,-0.9 q 2.65,-0.85 4.65,-3 1.95,-2.15 2.7,-4.9 l 0.35,-2.65 q -0.1,-1.2 -0.6,-2.5 -2,-1.65 -4.45,-2.85 M -21,6.3 l 2.05,0.1 q 1.15,0.5 1.15,1.55 0,0.8 -0.8,1.4 l -1.2,0.6 -0.3,0.05 -1.55,0.15 Q -22.7,9.9 -23,8.95 q -0.35,-1.05 0.35,-1.8 0.45,-0.55 1.6,-0.8 L -21,6.3 m 12.85,13.35 q -0.35,1.8 -0.15,3.8 l 1.15,-1.05 1.3,-1.25 -1.2,-2.55 -0.25,-1.25 -0.85,2.3 m 4.15,4.5 -0.35,-0.6 -2.1,1.85 -0.9,0.7 0.1,0.1 1.05,1.25 2.7,-2 0.1,-0.1 -0.6,-1.2 m 0.45,9.9 q 0.6,-0.7 1,-1.8 0.55,-1.3 0.55,-2.3 0,-0.9 -0.6,-2.6 l -2.05,1.35 -0.6,0.3 q 1.4,2.6 1.2,4.5 V 34 l 0.3,0.3 0.2,-0.25 m -1.4,7.45 -0.6,-2.9 v -0.3 h -0.5 l 0.15,0.6 v 1.3 l 0.15,0.85 0.05,0.45 v 0.1 l 0.75,-0.1 M -9,39.3 l -0.55,0.95 -0.25,1.5 2.05,-0.05 -0.2,-0.55 -0.3,-1.3 -0.05,-1.6 -0.7,1.05 m 37.6,-8.95 q 1.5,-0.85 2.8,-2.4 1.25,-1.35 1.75,-2.5 L 33.85,22.5 34,19.95 32.6,17.9 32.25,20.45 q -1.1,4.5 -5.05,7.65 -3.05,2.5 -7.15,3.55 5.45,0.5 8.55,-1.3 m -11.2,7.4 Q 16.2,36.2 15.8,34.3 l -0.5,0.15 q -0.45,3.05 0.4,6.15 l 2.95,-1.05 -0.6,-0.9 -0.65,-0.9"
         fill="#000000"
         fill-rule="evenodd"
         stroke="none"
         id="path1" />
      <path
         d="m -27.4,-7.8 q -1,-2 -1.35,-4.35 -0.6,-3.85 0.85,-8.7 l 0.1,-0.35 q 1.1,-3.6 2.8,-5.7 l 1.5,-1.45 2.15,-1.45 q 2.15,-1.05 4.5,-1.3 4.65,-0.45 8.9,2.4 l 0.55,0.35 0.9,0.65 0.55,0.3 q 0.55,0.25 1.05,0.4 l 0.5,0.1 0.25,0.1 1.45,0.25 2,-0.6 3,-1.9 q 3.2,-2.15 8.1,-3 3.7,-0.65 6.25,0 l 0.65,0.2 q 2,0.85 3.75,2.1 l 1.25,0.95 1.2,0.75 q 0.8,0.4 1.3,0.35 0.7,-0.1 1.35,-0.85 l 1.1,-1.35 q 0.85,-0.9 2.05,-1.3 l 2.3,0.05 q 1.7,0.55 2.65,2.5 l 0.2,0.55 q 0.05,2.1 -0.75,3.4 -0.55,1.05 -2,2.05 l -1.15,0.7 v -0.25 q 0,-0.65 -0.6,-1.1 l -1.25,-0.15 -0.7,0.55 -0.65,0.65 -1.1,0.7 -0.2,0.1 -0.15,-0.55 -0.45,-1.4 -0.65,-1.1 -0.4,-0.25 -0.55,-0.1 -0.65,0.05 -0.35,0.15 q -0.6,0.4 -0.7,0.95 l -0.05,0.3 q -0.05,0.3 0.05,0.65 l 0.45,0.9 0.6,1.85 0.1,0.35 -0.45,0.55 q -2.15,2.75 -5.75,4.25 -3.3,1.35 -7.1,1.35 -3.4,0 -6.3,-0.95 -2.7,-0.8 -4.35,-2.2 l -0.35,-1.9 -0.55,-2.55 -0.5,-1.45 -0.4,-0.65 -0.1,-0.15 q -0.45,-0.5 -1.05,-0.7 l -1.05,0.05 -0.1,0.05 -0.55,0.65 -0.1,0.8 v 0.05 l 0.2,0.4 0.15,0.45 0.3,0.95 0.35,1.75 q -0.8,0.45 -2.15,0.9 l -1.5,0.45 Q -9.8,-17.2 -12,-18.1 l -0.75,-0.3 -0.05,-0.2 -0.55,-1.55 q -0.9,-2.15 -2.3,-3.95 l -0.75,-0.8 q -1,-1 -1.95,-1.25 -1.7,-0.45 -3.4,0.8 -1.2,1 -2.05,2.6 l -0.1,0.2 q -1.1,2.2 -1.45,4.65 l -0.2,1.6 q -0.15,3.3 1,6.35 0.55,1.45 1.4,1.9 l 1.4,0.2 0.1,0.05 1.1,-0.05 q 1,-0.45 1.35,-1.95 l 0.4,-2.3 v -0.75 q -0.25,-0.8 -1.1,-0.6 l -0.5,0.35 -0.2,0.65 -0.15,0.1 q -0.9,-3.65 1.4,-8.65 2,2 2.45,5.1 -0.5,4.5 -1.95,6.9 -1.35,2.35 -3.35,2.75 L -25,-6.5 Q -26.65,-7 -27.35,-7.75 L -27.4,-7.8"
         fill="#696b82"
         fill-rule="evenodd"
         stroke="none"
         id="path2" />
      <path
         d="M 27.65,1.7 27.7,1.3 q 0.25,-1.65 -0.4,-3.1 L 27.2,-2 h 0.15 l 0.35,0.2 q 0.95,0.55 2.65,0.35 l 1.4,-0.3 0.9,1.65 q 2.3,3.3 3,8.55 l 0.05,2.3 -0.35,1.45 Q 34.4,10.25 32.45,8.05 L 31.8,7.35 30.95,4.9 q -1.4,-1.9 -1.7,-3 l -1.6,-0.2 m -48.4,33.75 -0.15,-0.3 q -0.4,-0.75 -1.4,-1.35 l -1.8,-0.9 q -3.8,-1.75 -6.55,-5.7 -2.4,-3.45 -3.7,-8.1 Q -35,16.6 -35,14.95 l 0.45,-3.1 0.95,-3.05 q 1.25,-3.2 1.9,-4.3 1.45,-2.3 3.5,-3.05 l 0.95,-0.25 1.95,1.2 2.55,0.7 1.05,-0.05 0.4,-0.05 q 0.8,0.4 2.4,0.65 L -16.45,3.9 -12.5,3.45 -9.3,2.7 -6.95,1.6 -7.05,2.8 -7,3.85 V 3.9 l -3.4,3.15 -2.25,1.15 -3.25,1.65 -0.8,0.45 -0.55,0.95 q -0.65,-0.6 -1.55,-0.4 l -0.65,0.3 q -0.55,0.35 -0.75,1 l -0.05,0.95 0.15,1.05 0.85,3.85 0.15,2.1 q 0.15,3.6 0,7.15 l -0.25,2.5 -0.6,1.7 q -0.3,0.85 -0.1,1.2 l 0.65,0.5 q -0.45,1.25 -1.05,1.95 l -0.3,0.35 M -21,6.3 -21.05,6.35 q -1.15,0.25 -1.6,0.8 -0.7,0.75 -0.35,1.8 0.3,0.95 1.35,1.2 l 1.55,-0.15 0.3,-0.05 1.2,-0.6 q 0.8,-0.6 0.8,-1.4 0,-1.05 -1.15,-1.55 L -21,6.3"
         fill="#827169"
         fill-rule="evenodd"
         stroke="none"
         id="path3" />
      <path
         d="m -27.4,-7.8 0.05,0.05 q 0.7,0.75 2.35,1.25 l 2.8,0.25 q 2,-0.4 3.35,-2.75 1.45,-2.4 1.95,-6.9 l 0.1,0.85 q 0.25,2.7 -0.75,6.6 -0.75,3.4 -2.1,5.2 -0.65,0.95 -1.45,1.15 -1.1,0.3 -2.55,-0.95 -2.45,-2.05 -3.75,-4.75 m 14.65,-10.6 0.75,0.3 q 2.2,0.9 3.95,0.55 l 1.5,-0.45 q 1.35,-0.45 2.15,-0.9 l 0.35,1.8 0.25,1.45 q -1.4,-0.2 -3.85,-0.05 -1.05,0.1 -1.15,0.7 -0.05,0.35 0.3,0.7 l 0.65,0.35 3.1,1.25 1.25,0.4 q 0.05,1.8 -0.35,3.4 l -0.25,0.15 -0.85,0.85 -1.35,0.95 -0.8,0.7 q -0.3,0.25 -1,0.55 l -1,0.5 -0.45,0.4 -0.4,0.6 0.3,0.5 q 0.2,0.15 0.6,0.25 h 1.3 l 0.45,-0.05 2.5,-0.85 0.5,-0.3 0.15,0.15 0.5,0.35 -0.2,0.3 -0.05,0.1 -1.9,1.55 -4.4,1.55 -4.1,0.75 -2.25,0.15 0.9,-1.15 q 1.5,-2.3 2.65,-6.95 0.7,-3.15 0.85,-4.65 0.25,-2.95 -0.6,-5.9 m 12.1,1.75 q 1.65,1.4 4.35,2.2 2.9,0.95 6.3,0.95 3.8,0 7.1,-1.35 3.6,-1.5 5.75,-4.25 l 0.45,-0.55 q 0.45,2.5 0.3,5.45 l -0.35,3.25 -0.75,4.4 -0.15,0.75 q 0,0.45 0.35,0.6 l 0.75,-0.05 0.55,-0.6 0.8,-1.2 0.5,-1.05 q 2.05,0.8 3.15,0.3 l 0.85,-0.8 q 0.3,-0.65 0,-1.1 l -0.75,-0.65 -0.95,-0.4 -1.2,-0.85 -0.1,-0.05 0.1,-0.45 q 0.4,-1.9 0.4,-3.6 l -0.2,-2.35 0.75,-0.4 2.35,-2.1 q 0.7,-0.8 0.85,-1.4 l 1.15,-0.7 q 1.45,-1 2,-2.05 0.8,-1.3 0.75,-3.4 l 0.8,3.05 q 1,5.6 0.9,8.5 -0.1,4.8 -2.5,8.05 -1.1,1.6 -2.55,2.15 L 29.8,-6 28.45,-5.7 q -1.25,0.35 -1.7,1.15 h -1 l -1.2,0.1 -1.25,-0.4 q -2.7,-0.5 -4.9,1.3 l -0.5,0.5 h -0.1 l -1.75,0.6 Q 14.5,-1.8 12.6,-1.4 L 7.9,-1.1 4.1,-1.75 3.65,-2.45 Q 2.45,-4 0.9,-4.5 l -1.75,-0.15 q 0.1,-0.65 -0.05,-1.1 v -0.2 l 0.2,-1.1 q 0.75,-4.85 0.05,-9.6"
         fill="#525367"
         fill-rule="evenodd"
         stroke="none"
         id="path4" />
      <path
         d="m 27.65,1.7 1.6,0.2 q 0.3,1.1 1.7,3 L 31.8,7.35 Q 29.7,5 27.7,3.55 L 27.15,3.2 27.65,1.7 m -48.4,33.75 0.3,-0.35 q 0.6,-0.7 1.05,-1.95 L -18.45,33 q 0.55,-0.3 1.05,-1.45 0.95,-2.4 1.3,-5.6 0.2,-1.95 0.25,-5.85 0.1,-4.7 -0.55,-7.3 -0.2,-0.9 -0.6,-1.3 l -0.25,-0.25 0.55,-0.95 0.8,-0.45 3.25,-1.65 2.25,-1.15 q -2.65,2.7 -3.75,5.1 l -0.75,2.2 -0.05,1.6 0.05,1.55 0.2,2.8 0.65,1.9 q 0.95,2.55 1.95,4 l 0.55,1.2 1.15,0.7 q 1.7,2.35 2.35,4.05 l 0.2,0.7 -3.7,0.3 -4.25,0.95 -3.55,1.1 -1.4,0.3 V 35.45 M 24.6,11.4 q 2.45,1.2 4.45,2.85 0.5,1.3 0.6,2.5 L 29.3,19.4 q -0.75,2.75 -2.7,4.9 -2,2.15 -4.65,3 l -3.6,0.9 q -2.05,0.65 -3.1,1.85 L 15,30.4 H 14.85 L 7.9,31 Q 5.55,31.4 1.2,32.55 L 1.65,29.7 Q 1.6,27.4 0.25,24.45 -0.65,22.35 -1.5,21.1 l -2.15,-3.15 q -1.05,-2 -0.5,-3.75 l 0.5,-1.1 0.15,-0.4 2.05,-1.8 1.1,-1 2.15,2.15 2.25,1.4 2.45,1.45 -1,0.7 q -1.15,0.85 -2.05,1.65 l -1.5,1.85 q -0.55,0.8 -0.15,1.2 0.4,0.3 1.1,0 L 5.05,18.9 8.8,16.25 q 4.2,2.45 7.85,4.75 0.6,0.4 0.95,0.45 0.6,0.1 0.85,-0.4 0.3,-0.55 -0.6,-1.35 L 14.45,17 q -0.8,-0.55 -2,-1.2 L 10.75,14.85 16.2,10.5 Q 17,9.7 16.7,9.25 16.55,8.85 15.95,8.85 L 15.1,9.2 q -2.55,1.35 -6.7,4.3 L 5.1,11.65 Q 2.4,10.35 -0.3,9.85 L 0.8,8.6 1.6,7 2.05,6.45 Q 3.3,5.7 3.85,4.7 L 4.35,3.4 4.75,1.55 H 4.8 l 1.85,0.4 2.05,0.35 1.55,0.15 1.4,-0.1 4.55,-1.15 q 0,1.2 0.45,2.75 0.5,2.1 1.05,3 0.95,1.55 3.1,2.7 1.2,0.7 3.8,1.75"
         fill="#685a53"
         fill-rule="evenodd"
         stroke="none"
         id="path5" />
      <path
         d="m 24.45,-0.25 0.1,0.25 -1.3,-0.1 q -0.7,0.15 -1.2,0.8 -0.45,0.6 -0.5,1.4 -0.1,1.3 0.9,2.1 0.95,0.95 2.2,0.6 l 0.2,0.1 1.15,1.4 3.55,3.55 Q 27.25,8.1 24.45,6.9 22.15,5.95 21.4,5.1 20.7,4.3 20.35,2.75 20.15,1.65 20.25,1 20.4,0.2 21,-0.45 q 0.6,-0.6 1.4,-0.75 l 1.25,0.1 0.8,0.85 M -0.5,5.35 v 0.2 L -3.3,7.8 q -3.85,3.1 -5.2,4.9 l -1.9,2.8 -0.95,1.9 -0.7,2 -0.1,-1.5 q 0.1,-2.85 1.15,-4.8 l 1.2,-1.8 q 1.95,-2.35 4.55,-4.35 1.4,-1 1.65,-1.8 l 0.1,-0.8 V 4.3 L -3.35,4 -3.25,4.1 Q -2.65,4.6 -1.7,4.45 -0.9,4.3 -0.4,3.5 L 0.1,2.4 0.3,1.2 Q 0.25,0.25 -0.65,-0.35 L -0.9,-0.5 q 0.8,-0.2 1.4,0.2 0.75,0.5 0.65,1.8 -0.05,1.5 -1,2.75 l -0.65,1.1 m 17.9,32.4 0.65,0.9 0.6,0.9 -2.95,1.05 q -0.85,-3.1 -0.4,-6.15 l 0.5,-0.15 q 0.4,1.9 1.6,3.45 m 11.2,-7.4 q -3.1,1.8 -8.55,1.3 4.1,-1.05 7.15,-3.55 3.95,-3.15 5.05,-7.65 l 0.35,-2.55 1.4,2.05 -0.15,2.55 -0.7,2.95 q -0.5,1.15 -1.75,2.5 -1.3,1.55 -2.8,2.4 M -9,39.3 l 0.7,-1.05 0.05,1.6 0.3,1.3 0.2,0.55 -2.05,0.05 0.25,-1.5 L -9,39.3 m 4.05,2.2 -0.75,0.1 V 41.5 L -5.75,41.05 -5.9,40.2 v -1.3 l -0.15,-0.6 h 0.5 v 0.3 l 0.6,2.9 m 1.4,-7.45 -0.2,0.25 -0.3,-0.3 v -0.5 q 0.2,-1.9 -1.2,-4.5 l 0.6,-0.3 2.05,-1.35 q 0.6,1.7 0.6,2.6 0,1 -0.55,2.3 -0.4,1.1 -1,1.8 m -0.45,-9.9 0.6,1.2 -0.1,0.1 -2.7,2 -1.05,-1.25 -0.1,-0.1 0.9,-0.7 2.1,-1.85 0.35,0.6 m -4.15,-4.5 0.85,-2.3 0.25,1.25 1.2,2.55 -1.3,1.25 -1.15,1.05 q -0.2,-2 0.15,-3.8"
         fill="#57463d"
         fill-rule="evenodd"
         stroke="none"
         id="path6" />
    </g>
    <g
       id="sprite1"
       transform="translate(17.4,15.85)">
      <use
         ffdec:characterId="31"
         height="57.200001"
         transform="matrix(0.5366,0,0,0.5366,-16.6582,-14.546)"
         width="70.75"
         xlink:href="#sprite2"
         id="use6" />
    </g>
    <g
       id="sprite2"
       transform="translate(-8.65,-10.35)">
      <use
         ffdec:characterId="30"
         height="57.200001"
         transform="translate(8.65,10.35)"
         width="70.75"
         xlink:href="#shape1"
         id="use7" />
    </g>
    <g
       id="shape1"
       transform="translate(-8.65,-10.35)">
      <path
         d="m 14.8,41.7 q 0.65,-1.75 2.65,-2.5 1.8,-0.8 3.7,-0.25 1.15,0.45 2.25,1.2 l 0.9,0.4 q 1.65,0.9 2.85,2.5 L 37.8,30.1 q 2.35,-2.8 3.75,-3.95 1.5,-1.15 4.25,-2.4 18.2,-8.85 27.65,-12.6 2.15,-0.8 3.25,-0.8 h 0.8 l 1.9,2.4 -0.2,0.8 q -0.2,1.1 -1.55,3 -5.85,8.25 -18.85,23.8 -1.85,2.35 -3.35,3.5 -1.4,1.15 -4.75,2.75 l -15.15,7.15 q 1.2,1.6 1.75,3.4 l 0.2,1 0.55,2.5 q 0.1,1.95 -1.1,3.55 -1.2,1.65 -3.05,1.9 l -1.3,0.05 q -1.65,0.2 -3.45,-0.65 -1.85,-0.9 -3,-2.6 L 25,60.95 23.8,62.1 q -2.6,2.85 -4.3,3.95 -2.85,1.8 -5.5,1.45 l -1.65,-0.5 -1.2,-0.7 -0.2,-0.2 q -1,-0.85 -1.6,-1.9 L 9.25,64 9.15,63.8 8.75,62.4 q -0.2,-0.8 -0.05,-1.7 0.25,-2.65 2.7,-5.05 1.5,-1.3 4.9,-3.15 L 17.7,51.55 16.05,50 q -1.35,-1.5 -1.8,-3.6 -0.4,-1.85 0.25,-3.45 l 0.3,-1.25"
         fill="#000000"
         fill-opacity="0.372549"
         fill-rule="evenodd"
         stroke="none"
         id="path7" />
    </g>
  </defs>
</svg>
