<?xml version="1.0" encoding="UTF-8" standalone="no"?>
<svg
   ffdec:objectType="frame"
   height="74.900833"
   width="87.802048"
   version="1.1"
   id="svg5"
   sodipodi:docname="ITEM Back Tentacles.svg"
   xmlns:inkscape="http://www.inkscape.org/namespaces/inkscape"
   xmlns:sodipodi="http://sodipodi.sourceforge.net/DTD/sodipodi-0.dtd"
   xmlns:xlink="http://www.w3.org/1999/xlink"
   xmlns="http://www.w3.org/2000/svg"
   xmlns:svg="http://www.w3.org/2000/svg"
   xmlns:ffdec="https://www.free-decompiler.com/flash">
  <sodipodi:namedview
     id="namedview5"
     pagecolor="#ffffff"
     bordercolor="#000000"
     borderopacity="0.25"
     inkscape:showpageshadow="2"
     inkscape:pageopacity="0.0"
     inkscape:pagecheckerboard="0"
     inkscape:deskcolor="#d1d1d1"
     fit-margin-top="5"
     fit-margin-left="5"
     fit-margin-right="5"
     fit-margin-bottom="5" />
  <g
     transform="translate(44.921469,37.45)"
     id="g1">
    <use
       ffdec:characterId="17"
       height="119.15"
       id="rarity"
       transform="translate(-58.5,-60.65)"
       width="119.15"
       xlink:href="#sprite0" />
    <use
       ffdec:characterId="777"
       height="74.900002"
       transform="translate(-44.9,-37.45)"
       width="87.800003"
       xlink:href="#shape0"
       id="use1" />
  </g>
  <defs
     id="defs5">
    <g
       id="shape0"
       transform="translate(45.45,38.2)">
      <path
         d="M 32,-31.05 Q 27.6,-34.2 22.25,-33 l -0.3,0.25 -0.85,1.05 q -0.3,0.4 -0.3,0.85 l -0.15,0.65 q 2,4.75 5.05,9.2 0.85,1.3 0.15,2.7 -1.45,3.25 -4.75,5.1 -4.95,2.8 -7.6,7.7 l 0.2,3.35 q 1.45,2.9 2,6.15 0.2,0.85 0.85,1.6 2.6,2.85 6.55,2.7 l 2.05,-0.1 0.25,0.15 0.05,0.2 V 8.8 9 Q 16.85,13.45 11.7,5.3 L 11.15,4.2 Q 6.95,5.1 2.95,6.6 2.55,9.65 0.3,12.55 L -0.1,13 -0.3,13.25 q -1.15,1.1 -2.75,1.55 L -3.2,14.75 -3.6,14.6 -3.8,14.5 -3.85,14.45 -4.05,14.2 -4.1,14 v -0.2 l 0.05,-0.2 0.1,-0.25 0.25,-0.1 0.25,-0.1 0.4,-0.1 0.25,-0.4 q 1.4,-1.9 2.15,-4.1 0.6,-1.8 0.35,-3.85 L -0.4,4.5 -0.5,4.3 -0.6,3.65 -0.8,2.95 -0.95,2.55 q -4.35,-6.8 -12.6,-5.95 l -4.65,-0.1 q -4.6,-0.85 -7.5,-4.7 -1.8,0.45 -3.3,1.5 l -0.8,0.55 -0.9,0.55 -0.1,0.65 -0.05,0.2 -0.05,0.25 q -0.1,0.35 -0.35,0.65 l -0.05,0.4 v 0.45 0.2 0.65 q 2.9,3.2 6.15,0.4 l 0.45,-0.35 q 1.4,-1 3.1,-0.85 l 0.4,0.45 0.1,0.2 v 0.2 l -0.25,1.05 q -0.25,1.1 -0.95,2 l -0.3,0.4 q -7.2,4.6 -11.65,-2.5 -0.4,-0.65 -0.4,-1.5 0,-5 4.7,-7.1 l 0.5,-0.05 1.05,-0.05 V -9.9 l 1.65,0.1 -0.65,-1.25 q -0.75,-1.5 -0.9,-3.05 -1.8,1.35 -4.65,-0.05 -1.35,-0.7 -2,-2.1 -0.5,-3.35 1.25,-6.1 1.7,-2.65 4.4,-3.85 l 0.4,-0.2 0.85,-0.05 q 3.15,-0.2 4.5,2.4 l 2.3,-1.2 2,-0.65 0.45,-0.3 0.05,-0.2 0.1,-0.2 0.15,-0.2 q 0.25,-0.3 0.25,-0.65 v -0.25 -0.2 l -0.15,-0.2 -0.35,-0.65 q -9.95,-2.45 -15.4,5.55 -6.15,9.15 -4.9,20.15 0.25,1.95 1.95,2.75 3.1,1.5 4.45,4.1 0.65,1.3 0.85,2.85 0.15,1.15 -0.3,2.15 l -0.1,0.8 -0.3,2.35 q -0.05,1.6 0.3,3.2 l 1.15,3.3 q 1.6,2.55 4.4,2.85 h 1.75 l 8.65,-0.55 0.05,0.1 -0.4,0.3 -0.35,0.2 -0.15,0.25 -0.15,0.2 -1.1,1.15 -1.3,1.4 q -1.8,1.05 -3.5,1.6 l -0.65,1.15 -0.05,0.2 v 0.2 l -0.05,0.25 0.35,0.35 0.6,0.7 0.15,0.2 q 9.05,2 13.85,-5.3 0.6,-0.95 1.75,-1.05 1.45,0.3 2.2,1.65 l 0.35,0.65 q 3.2,1.5 6.1,-0.4 L 2,24.1 2.55,23.5 3.45,22.6 3.8,22.45 4.05,22.4 4.5,22.25 l 0.9,0.2 0.75,0.35 q 0.3,1.05 0.2,2 l -0.4,1.15 0.5,0.7 0.3,0.5 0.35,0.6 0.05,0.05 0.8,1.5 q 2.7,1.45 5.55,2.5 8.95,2.35 15.9,-3.2 L 29.55,27.75 29.7,27.1 29.5,26.65 29.4,26.45 29.35,26 29.3,25.8 29,25.4 q -5.8,3.8 -13.25,3.4 l -1.8,-0.35 -0.3,-0.2 -0.2,-0.2 -0.5,-0.5 -0.35,-0.4 -0.05,-0.2 v -0.2 l 0.1,-0.45 0.3,-0.4 0.2,-0.15 0.15,-0.05 0.35,-0.05 0.5,0.1 0.1,0.05 0.35,0.1 4.2,-0.8 3.15,-1.05 0.2,-0.05 q 3.95,-1.65 7.4,-4.4 l 0.25,-0.2 q 2,-1.65 3.4,-3.9 v -0.2 -0.2 l 0.05,-0.25 q 0.6,-0.75 0.55,-1.7 L 33.5,9.5 V 9.4 L 33.2,6.95 33.05,5.65 Q 32.1,2.7 32.55,-0.6 q 0.8,-6.25 4.2,-11.85 l 0.25,-0.8 q 0.8,-1.25 1,-2.75 0.35,-3.2 -0.7,-6.25 l -0.8,-2.8 q -1.15,-3.15 -3.65,-5.3 L 32,-31.05 m -3.3,27.8 Q 25.4,3.2 17.9,1.65 L 16.5,0.3 15.45,-0.95 15.25,-3.1 q -0.1,-1.45 0.65,-2.8 l 1.05,-1.2 q 0.6,-0.85 1.6,-1 l 0.5,0.4 0.15,0.2 0.05,0.2 -0.6,1.05 -0.1,0.15 -0.6,1.15 -0.05,0.2 v 0.25 0.2 l -0.1,0.2 0.15,0.45 0.1,0.4 0.1,0.65 q 4.25,2.85 7.5,-1.7 l 0.6,-1 V -5.95 -6.7 -6.8 -7.25 l -1.1,-1.1 -0.85,-0.8 -0.05,-0.45 V -10 l 0.2,-0.65 0.25,-0.2 0.45,-0.15 0.05,-0.05 0.75,0.1 0.6,0.15 q 2.55,1.35 2.55,4.05 v 2.25 0.35 l -0.4,0.9 m 5.45,-13.85 q -0.9,1.15 -2.4,2.2 -2.25,1.65 -4.6,0 l -0.6,-0.65 -0.1,-0.6 -0.05,-0.85 0.05,-1.1 0.1,-0.2 q 0.4,-0.6 1,-0.25 l 0.15,0.25 0.2,0.35 v 0.05 l 0.15,0.2 0.15,0.15 1.2,0.3 h 0.65 l 0.3,-0.2 q 0.45,-0.25 0.75,-0.65 l 0.25,-0.2 0.05,-0.25 0.5,-0.9 0.55,-0.8 0.1,-0.65 -0.15,-1.05 -0.3,-1.1 -0.15,-0.2 -0.7,-0.85 -0.55,-0.55 -0.1,-0.05 -0.05,-0.05 -1.3,-0.1 -0.85,0.25 -0.15,0.2 -0.55,0.45 -0.25,0.1 -0.25,0.05 -0.45,-0.1 -0.2,-0.25 -0.25,-0.4 0.05,-0.4 v -0.9 q -0.1,-0.55 0.1,-1.05 l 0.8,-0.55 1.2,-0.3 0.45,-0.1 q 2.6,-0.3 4.5,1.35 l 0.25,0.25 q 0.45,0.5 0.55,1.15 2.55,4.5 -0.05,8 m -59.9,-17.4 q 6.2,-1.35 10.4,2.35 2.85,2.5 1.8,6.3 -1.5,5.65 -7.3,7.35 -0.95,0.3 -1.4,1.3 l -0.55,1.75 Q -20.7,-7.5 -12,-8 -3.75,-8.55 0.7,-1.65 1.85,0.1 2.45,1.85 L 3.1,1.55 q 2.75,-1.2 5.7,-1.7 -0.7,-4.95 1.65,-9.05 1.7,-2.95 4.25,-5.2 3.1,-2.75 6.55,-5.05 -0.25,-1.1 -1.05,-1.85 -1.55,-1.45 -2.55,-3.35 l -1.35,-2.1 q -0.4,-2 -0.15,-4.05 0.7,-6.25 7,-7.4 12.6,0.1 17.25,11.45 4.65,11.5 -1.9,21.95 -1.05,1.75 -1.75,3.7 v 0.25 1.25 1.3 1.7 l 0.1,0.25 0.2,0.4 0.15,0.85 v 0.45 0.2 q 2.7,9.35 -3.85,16.2 l -2.2,2.1 q 1.35,1.65 1.55,3.9 0.15,1.2 -0.3,2.35 Q 23.95,39 11.35,35.9 7.2,34.85 4.1,32.1 2.55,30.65 2.2,29.05 q -4.8,2.2 -9.65,-0.6 -7.15,7.5 -17.3,4 Q -26,32 -26.7,30.8 -28,28.4 -27.15,26.4 -31,26.05 -34.25,22.55 -38.8,17.65 -37.65,11 l 0.55,-4.1 -0.25,-0.2 -0.2,-0.2 -1,-0.95 -0.65,-0.5 q -7.45,-4.35 -6.05,-13.3 l 0.75,-4 q 1.7,-7.8 6.35,-14.45 4.5,-6.55 12.4,-7.8 m 42.65,46.3 0.25,-0.45 0.5,-0.65 0.7,0.1 q 0.15,0 0.25,0.15 0.65,2 -0.35,4 -0.8,1.6 -2.1,2.85 Q 9.65,21.3 4.45,16.55 1.3,13.7 3.85,10.4 5.15,8.65 7.35,8.35 l 1.5,-0.4 Q 9.55,8.1 9.5,8.7 l -0.05,0.45 -1.35,0.9 -0.85,0.4 -0.75,0.4 -0.55,0.9 -0.2,0.4 q 2.7,5.25 8.65,2.05 1.55,-0.9 2.5,-2.4 m -24.2,4.1 0.1,-0.6 0.6,-0.4 0.55,-0.2 0.55,0.15 0.2,0.3 0.05,0.1 q 0.85,1.45 0.75,2.85 -0.2,1.7 -2,3.3 -1.1,0.95 -2.5,1.45 l -4.35,-0.35 -0.6,-0.8 -0.3,-1.1 0.15,-0.65 q 0.15,-0.55 0.65,-0.8 0.5,-0.3 1,0 l 0.65,0.45 q 3.75,-0.2 4.5,-3.7 m -21.2,-32.1 0.2,-0.05 0.55,-2.25 q 0.85,-2.3 2.35,-3.9 l -0.05,-0.15 -0.15,-0.4 -0.15,-0.2 -0.35,-0.25 -0.3,-0.1 -1.85,-0.1 -1.2,0.75 -0.6,0.6 -1.7,2.15 -0.05,0.2 -0.05,0.2 -0.15,0.45 -0.1,0.2 v 0.25 0.2 0.4 0.45 l 0.2,0.2 0.3,0.25 0.5,0.45 0.15,0.15 0.3,0.15 0.4,0.1 1.75,0.25 M -10.4,6.75 -10,5.9 -9.8,4.65 -9.6,2.7 l 0.25,-0.4 0.4,-0.45 0.45,0.4 0.55,0.45 q 0.55,1.25 0.8,2.55 0.2,1.25 -0.15,2.4 V 8.3 l 0.1,0.65 v 0.2 q -4.3,7.9 -12.95,4 -4.6,-2.05 -3.55,-6.95 1.1,-5.1 6.1,-6.65 l 1.9,0.25 q 0.5,0.15 0.7,0.6 v 0.45 l -0.2,0.4 -0.1,0.15 -0.8,0.25 -0.2,0.05 -0.8,0.15 -0.25,0.2 -0.25,0.25 -0.15,0.1 -0.2,0.1 -0.35,0.15 -1.45,2.15 -0.65,1.5 0.05,0.4 0.05,0.45 v 0.4 l 0.25,0.45 0.15,0.45 0.15,0.4 1.25,0.8 2.5,1 0.15,0.05 q 4.3,-0.1 5.4,-3.9 l 0.05,-0.05"
         fill="#000000"
         fill-rule="evenodd"
         stroke="none"
         id="path1" />
      <path
         d="m 18.55,-6.1 h 0.05 l 0.35,0.25 0.45,1.25 0.15,0.75 q 1.45,0.8 3.15,0.25 l 3.55,-3.1 v 0.75 0.65 l -0.6,1 q -3.25,4.55 -7.5,1.7 l -0.1,-0.65 -0.1,-0.4 -0.15,-0.45 0.1,-0.2 v -0.2 -0.25 l 0.05,-0.2 0.6,-1.15 m 9.35,-11.85 0.3,-0.2 0.35,-0.2 0.8,-1.05 0.55,-0.7 q -0.1,-1.9 0.35,-3.7 0.15,-0.5 0.45,-0.85 l 0.55,0.55 0.7,0.85 0.15,0.2 0.3,1.1 0.15,1.05 -0.1,0.65 -0.55,0.8 -0.5,0.9 -0.05,0.25 -0.25,0.2 q -0.3,0.4 -0.75,0.65 l -0.3,0.2 H 29.4 l -1.2,-0.3 -0.15,-0.15 -0.15,-0.2 v -0.05 m -52.6,15.85 -0.45,0.35 q -3.25,2.8 -6.15,-0.4 V -2.8 -3 -3.45 l 0.05,-0.4 q 0.25,-0.3 0.35,-0.65 l 0.05,-0.25 0.05,-0.2 0.1,-0.65 0.9,-0.55 0.8,-0.55 0.3,0.1 0.35,0.5 0.25,0.5 -0.2,0.45 -0.3,0.8 0.05,1 v 1 l 3.85,0.25 M 8.1,10.05 8.2,10.7 v 1 l 0.3,0.5 0.4,0.45 q 3.7,0.1 7.4,-1 l 0.6,0.15 q -0.95,1.5 -2.5,2.4 -5.95,3.2 -8.65,-2.05 l 0.2,-0.4 0.55,-0.9 0.75,-0.4 0.85,-0.4 m -38.15,-32.3 q 0.5,0.5 0.3,1.4 l -0.05,0.75 q 0.4,1.25 1.3,2.3 l 0.2,0.7 -0.2,0.9 -1.75,-0.25 -0.4,-0.1 -0.3,-0.15 -0.15,-0.15 -0.5,-0.45 -0.3,-0.25 -0.2,-0.2 v -0.45 -0.4 -0.2 -0.25 l 0.1,-0.2 0.15,-0.45 0.05,-0.2 0.05,-0.2 1.7,-2.15 m 13.75,23.95 -0.2,1 -0.1,0.75 -0.3,0.55 -0.3,0.7 q 0.45,1.85 2.3,2.55 l 0.45,0.2 h 1.65 q 1.05,-0.6 2.25,-0.75 l 0.15,0.05 -0.05,0.05 q -1.1,3.8 -5.4,3.9 l -0.15,-0.05 -2.5,-1 Q -19.8,8.5 -20.35,6.7 l -0.05,-0.4 0.65,-1.5 1.45,-2.15 0.35,-0.15 0.2,-0.1 0.15,-0.1 0.25,-0.25 0.25,-0.2 0.8,-0.15"
         fill="#b1a9b8"
         fill-rule="evenodd"
         stroke="none"
         id="path2" />
      <path
         d="m -0.1,13 -0.1,0.35 0.25,0.3 Q 2.1,16.9 3.1,20.8 l 0.15,0.4 q 2.85,1.2 5.9,1.8 3.35,-1.3 6.8,-2.1 7.3,-0.9 10.8,-6.75 2,-3.25 1.35,-7.25 -0.85,-5.35 0.6,-10.15 l 0.4,-0.9 V -4.5 l 1.35,-3.1 q 2.45,-4.6 3.7,-9.5 2.6,-3.5 0.05,-8 -0.1,-0.65 -0.55,-1.15 l -0.7,-1.65 Q 32.3,-29.4 32,-31.05 l 0.85,0.7 q 2.5,2.15 3.65,5.3 l 0.8,2.8 q 1.05,3.05 0.7,6.25 -0.2,1.5 -1,2.75 l -0.25,0.8 q -3.4,5.6 -4.2,11.85 -0.45,3.3 0.5,6.25 l 0.15,1.3 0.3,2.45 v 0.1 l 0.3,3.65 q 0.05,0.95 -0.55,1.7 L 33.2,15.1 v 0.2 0.2 q -1.4,2.25 -3.4,3.9 l -0.25,0.2 q -3.45,2.75 -7.4,4.4 l -0.2,0.05 -3.15,1.05 -4.2,0.8 -0.35,-0.1 -0.1,-0.05 -0.5,-0.1 -0.35,0.05 -0.15,0.05 -0.2,0.15 -0.3,0.4 -0.1,0.45 v 0.2 l 0.05,0.2 0.35,0.4 0.5,0.5 0.2,0.2 0.3,0.2 1.8,0.35 Q 23.2,29.2 29,25.4 l 0.3,0.4 0.05,0.2 0.05,0.45 0.1,0.2 0.2,0.45 -0.15,0.65 -0.15,0.85 q -6.95,5.55 -15.9,3.2 -2.85,-1.05 -5.55,-2.5 l -0.8,-1.5 -0.05,-0.05 -0.35,-0.6 -0.3,-0.5 -0.5,-0.7 0.4,-1.15 q 0.1,-0.95 -0.2,-2 L 5.4,22.45 4.5,22.25 4.05,22.4 3.8,22.45 3.45,22.6 2.55,23.5 2,24.1 1.45,24.55 q -2.9,1.9 -6.1,0.4 L -5,24.3 q -0.75,-1.35 -2.2,-1.65 -1.15,0.1 -1.75,1.05 -4.8,7.3 -13.85,5.3 l -0.15,-0.2 -0.6,-0.7 -0.35,-0.35 0.05,-0.25 v -0.2 l 0.05,-0.2 0.65,-1.15 q 1.7,-0.55 3.5,-1.6 l 1.3,-1.4 1.1,-1.15 0.15,-0.2 0.15,-0.25 0.35,-0.2 0.4,-0.3 -0.05,-0.1 -8.65,0.55 h -1.75 q -2.8,-0.3 -4.4,-2.85 l -1.15,-3.3 q -0.35,-1.6 -0.3,-3.2 l 0.3,-2.35 0.1,-0.8 q 0.45,-1 0.3,-2.15 Q -32,5.1 -32.65,3.8 -34,1.2 -37.1,-0.3 q -1.7,-0.8 -1.95,-2.75 -1.25,-11 4.9,-20.15 5.45,-8 15.4,-5.55 l 0.35,0.65 0.15,0.2 v 0.2 0.25 q 0,0.35 -0.25,0.65 l -0.15,0.2 -0.1,0.2 -0.05,0.2 -0.45,0.3 -2,0.65 -0.1,-1.45 -6.7,0.25 -0.85,0.05 -0.4,0.2 -0.5,0.1 q -7.25,4.7 -7.85,13.25 -0.4,5.1 0.55,10 l 4.75,6.55 0.5,-0.05 q 3.7,1.85 4.55,6.4 1.35,7.15 8.95,9.25 5.65,-1.35 11.05,-3.4 -0.75,3.5 -4.5,3.7 l -0.65,-0.45 q -0.5,-0.3 -1,0 -0.5,0.25 -0.65,0.8 l -0.15,0.65 0.3,1.1 0.6,0.8 4.35,0.35 q 1.4,-0.5 2.5,-1.45 1.8,-1.6 2,-3.3 0.1,-1.4 -0.75,-2.85 l -0.05,-0.1 0.15,-0.05 0.55,-1.45 q 0.65,-1.8 1,-3.75 L -3.2,7.9 -3.4,6.85 -3.55,5.9 -3.6,5.65 -5.2,3.85 -6.3,2.65 q -5.65,-3.6 -11.9,-6.15 l 4.65,0.1 q 8.25,-0.85 12.6,5.95 l 0.15,0.4 0.2,0.7 0.1,0.65 0.1,0.2 0.1,0.2 q 0.25,2.05 -0.35,3.85 -0.75,2.2 -2.15,4.1 l -0.25,0.4 -0.4,0.1 -0.25,0.1 -0.25,0.1 -0.1,0.25 -0.05,0.2 V 14 l 0.05,0.2 0.2,0.25 0.05,0.05 0.2,0.1 0.4,0.15 0.15,0.05 q 1.6,-0.45 2.75,-1.55 L -0.1,13"
         fill="#605967"
         fill-rule="evenodd"
         stroke="none"
         id="path3" />
      <path
         d="m -0.1,13 0.4,-0.45 q 2.25,-2.9 2.65,-5.95 4,-1.5 8.2,-2.4 L 11.7,5.3 Q 16.85,13.45 25.45,9 V 8.8 8.55 L 25.4,8.35 25.15,8.2 23.1,8.3 Q 19.15,8.45 16.55,5.6 15.9,4.85 15.7,4 15.15,0.75 13.7,-2.15 L 13.5,-5.5 q 2.65,-4.9 7.6,-7.7 3.3,-1.85 4.75,-5.1 0.7,-1.4 -0.15,-2.7 -3.05,-4.45 -5.05,-9.2 l 0.15,-0.65 q 0,-0.45 0.3,-0.85 l 0.85,-1.05 0.3,-0.25 q 5.35,-1.2 9.75,1.95 0.3,1.65 0.95,3.15 l 0.7,1.65 -0.25,-0.25 q -1.9,-1.65 -4.5,-1.35 l -0.45,0.1 -1.2,0.3 -0.8,0.55 q -0.2,0.5 -0.1,1.05 v 0.9 l -0.05,0.4 0.25,0.4 0.2,0.25 0.45,0.1 0.25,-0.05 0.25,-0.1 0.55,-0.45 0.15,-0.2 0.85,-0.25 1.3,0.1 0.05,0.05 0.1,0.05 q -0.3,0.35 -0.45,0.85 -0.45,1.8 -0.35,3.7 l -0.55,0.7 -0.8,1.05 -0.35,0.2 -0.3,0.2 -0.2,-0.35 -0.15,-0.25 q -0.6,-0.35 -1,0.25 l -0.1,0.2 -0.05,1.1 0.05,0.85 0.1,0.6 0.6,0.65 q 2.35,1.65 4.6,0 1.5,-1.05 2.4,-2.2 -1.25,4.9 -3.7,9.5 l -1.35,3.1 v -2.25 q 0,-2.7 -2.55,-4.05 l -0.6,-0.15 -0.75,-0.1 -0.05,0.05 -0.45,0.15 -0.25,0.2 -0.2,0.65 v 0.4 l 0.05,0.45 0.85,0.8 1.1,1.1 v 0.45 0.1 L 22.7,-3.6 Q 21,-3.05 19.55,-3.85 L 19.4,-4.6 18.95,-5.85 18.6,-6.1 h -0.05 l 0.1,-0.15 0.6,-1.05 -0.05,-0.2 -0.15,-0.2 -0.5,-0.4 q -1,0.15 -1.6,1 l -1.05,1.2 q -0.75,1.35 -0.65,2.8 l 0.2,2.15 1.05,1.25 1.4,1.35 q 7.5,1.55 10.8,-4.9 -1.45,4.8 -0.6,10.15 0.65,4 -1.35,7.25 Q 23.25,20 15.95,20.9 12.5,21.7 9.15,23 6.1,22.4 3.25,21.2 L 3.1,20.8 Q 2.1,16.9 0.05,13.65 L -0.2,13.35 -0.1,13 m -21.15,-38.25 -2.3,1.2 q -1.35,-2.6 -4.5,-2.4 l 6.7,-0.25 0.1,1.45 m -8.05,-0.95 q -2.7,1.2 -4.4,3.85 -1.75,2.75 -1.25,6.1 0.65,1.4 2,2.1 2.85,1.4 4.65,0.05 0.15,1.55 0.9,3.05 l 0.65,1.25 -1.65,-0.1 v 0.05 l -1.05,0.05 -0.5,0.05 q -4.7,2.1 -4.7,7.1 0,0.85 0.4,1.5 4.45,7.1 11.65,2.5 l 0.3,-0.4 q 0.7,-0.9 0.95,-2 l 0.25,-1.05 v -0.2 l -0.1,-0.2 -0.4,-0.45 q -1.7,-0.15 -3.1,0.85 l -3.85,-0.25 v -1 l -0.05,-1 0.3,-0.8 0.2,-0.45 -0.25,-0.5 -0.35,-0.5 -0.3,-0.1 q 1.5,-1.05 3.3,-1.5 2.9,3.85 7.5,4.7 6.25,2.55 11.9,6.15 l 1.1,1.2 1.6,1.8 0.05,0.25 0.15,0.95 0.2,1.05 -0.4,2 q -0.35,1.95 -1,3.75 l -0.55,1.45 -0.15,0.05 -0.2,-0.3 -0.55,-0.15 -0.55,0.2 -0.6,0.4 -0.1,0.6 q -5.4,2.05 -11.05,3.4 -7.6,-2.1 -8.95,-9.25 -0.85,-4.55 -4.55,-6.4 l -0.5,0.05 -4.75,-6.55 q -0.95,-4.9 -0.55,-10 0.6,-8.55 7.85,-13.25 l 0.5,-0.1 M 8.1,10.05 9.45,9.15 9.5,8.7 Q 9.55,8.1 8.85,7.95 l -1.5,0.4 q -2.2,0.3 -3.5,2.05 -2.55,3.3 0.6,6.15 5.2,4.75 11.7,1.25 1.3,-1.25 2.1,-2.85 1,-2 0.35,-4 -0.1,-0.15 -0.25,-0.15 l -0.7,-0.1 -0.5,0.65 -0.25,0.45 -0.6,-0.15 q -3.7,1.1 -7.4,1 L 8.5,12.2 8.2,11.7 v -1 L 8.1,10.05 m -38.15,-32.3 0.6,-0.6 1.2,-0.75 1.85,0.1 0.3,0.1 0.35,0.25 0.15,0.2 0.15,0.4 0.05,0.15 q -1.5,1.6 -2.35,3.9 l -0.55,2.25 -0.2,0.05 0.2,-0.9 -0.2,-0.7 q -0.9,-1.05 -1.3,-2.3 l 0.05,-0.75 q 0.2,-0.9 -0.3,-1.4 M -16.3,1.7 -16.1,1.65 -15.3,1.4 -15.2,1.25 -15,0.85 V 0.4 q -0.2,-0.45 -0.7,-0.6 l -1.9,-0.25 q -5,1.55 -6.1,6.65 -1.05,4.9 3.55,6.95 8.65,3.9 12.95,-4 V 8.95 L -7.3,8.3 V 7.65 Q -6.95,6.5 -7.15,5.25 -7.4,3.95 -7.95,2.7 L -8.5,2.25 -8.95,1.85 -9.35,2.3 -9.6,2.7 -9.8,4.65 -10,5.9 -10.4,6.75 -10.55,6.7 q -1.2,0.15 -2.25,0.75 h -1.65 l -0.45,-0.2 q -1.85,-0.7 -2.3,-2.55 l 0.3,-0.7 0.3,-0.55 0.1,-0.75 0.2,-1"
         fill="#938a9a"
         fill-rule="evenodd"
         stroke="none"
         id="path4" />
    </g>
    <g
       id="sprite1"
       transform="translate(17.4,15.85)">
      <use
         ffdec:characterId="31"
         height="57.200001"
         transform="matrix(0.5366,0,0,0.5366,-16.6582,-14.546)"
         width="70.75"
         xlink:href="#sprite2"
         id="use4" />
    </g>
    <g
       id="sprite2"
       transform="translate(-8.65,-10.35)">
      <use
         ffdec:characterId="30"
         height="57.200001"
         transform="translate(8.65,10.35)"
         width="70.75"
         xlink:href="#shape1"
         id="use5" />
    </g>
    <g
       id="shape1"
       transform="translate(-8.65,-10.35)">
      <path
         d="m 14.8,41.7 q 0.65,-1.75 2.65,-2.5 1.8,-0.8 3.7,-0.25 1.15,0.45 2.25,1.2 l 0.9,0.4 q 1.65,0.9 2.85,2.5 L 37.8,30.1 q 2.35,-2.8 3.75,-3.95 1.5,-1.15 4.25,-2.4 18.2,-8.85 27.65,-12.6 2.15,-0.8 3.25,-0.8 h 0.8 l 1.9,2.4 -0.2,0.8 q -0.2,1.1 -1.55,3 -5.85,8.25 -18.85,23.8 -1.85,2.35 -3.35,3.5 -1.4,1.15 -4.75,2.75 l -15.15,7.15 q 1.2,1.6 1.75,3.4 l 0.2,1 0.55,2.5 q 0.1,1.95 -1.1,3.55 -1.2,1.65 -3.05,1.9 l -1.3,0.05 q -1.65,0.2 -3.45,-0.65 -1.85,-0.9 -3,-2.6 L 25,60.95 23.8,62.1 q -2.6,2.85 -4.3,3.95 -2.85,1.8 -5.5,1.45 l -1.65,-0.5 -1.2,-0.7 -0.2,-0.2 q -1,-0.85 -1.6,-1.9 L 9.25,64 9.15,63.8 8.75,62.4 q -0.2,-0.8 -0.05,-1.7 0.25,-2.65 2.7,-5.05 1.5,-1.3 4.9,-3.15 L 17.7,51.55 16.05,50 q -1.35,-1.5 -1.8,-3.6 -0.4,-1.85 0.25,-3.45 l 0.3,-1.25"
         fill="#000000"
         fill-opacity="0.372549"
         fill-rule="evenodd"
         stroke="none"
         id="path5" />
    </g>
  </defs>
</svg>
