<?xml version="1.0" encoding="UTF-8" standalone="no"?>
<svg
   ffdec:objectType="frame"
   height="58.099998"
   width="54.261818"
   version="1.1"
   id="svg4"
   xmlns:xlink="http://www.w3.org/1999/xlink"
   xmlns="http://www.w3.org/2000/svg"
   xmlns:svg="http://www.w3.org/2000/svg"
   xmlns:ffdec="https://www.free-decompiler.com/flash">
  <g
     transform="translate(32.458182,33.8)"
     id="g1">
    <use
       ffdec:characterId="17"
       height="119.15"
       id="rarity"
       transform="translate(-58.5,-60.65)"
       width="119.15"
       xlink:href="#sprite0" />
    <use
       ffdec:characterId="1141"
       height="58.099998"
       transform="translate(-32.45,-33.8)"
       width="54.25"
       xlink:href="#shape0"
       id="use1" />
  </g>
  <defs
     id="defs4">
    <g
       id="shape0"
       transform="translate(31.15,31.9)">
      <path
         d="m 6.4,7.3 q -3.55,3.05 -9,4 -3,0.5 -5.6,-0.95 L -10.25,9.7 -10.45,9.45 -10.5,9.3 -10.45,9.15 -10.35,9 -10.2,8.85 Q -2,9.6 3.05,3.15 q 3.15,-4.1 4.8,-9 L 8.1,-6.4 q 0.2,-1 0.7,-1.9 0.7,-2.35 -0.8,-4.35 -1.2,-1.55 -3.2,-1.95 -3.1,0.7 -5.85,-0.35 -0.9,-0.3 -1.5,-1.05 -3.05,-3.7 -2.9,-8.15 -3.65,2.4 -5.15,6.15 l -0.2,1.4 q 0.2,2.65 -1.2,4.05 -1.15,1.1 -3.4,1.4 l -0.65,0.4 -0.9,1.2 -0.95,2.35 v 0.35 0.3 l -0.05,0.2 q 0.95,1.2 2.25,2.1 l 0.95,0.8 q 6.45,2.05 13.05,2 -5.85,3.1 -12.4,2.65 -2.1,-0.15 -4,-1.05 -3.7,2.25 -6.15,6 l -1,2 0.1,2.45 0.25,2.65 Q -16.55,21.5 -4.35,20 -1.15,19.6 1.8,18.65 5.3,17.5 8.55,15.9 l 4.1,-2.25 q 3.25,-2.05 4.2,-5.8 0.75,-2.9 -0.05,-5.8 -0.85,-2.3 -3.05,-3.55 l -1.8,-0.75 -0.7,1.85 Q 10.3,2.45 8.8,4.6 L 6.4,7.3 m -6.8,-39.2 q 4.3,1.25 2.15,5.15 -0.85,1.5 -1.05,3.15 l 0.15,0.5 v 0.8 0.5 l 0.1,0.2 0.2,0.3 0.3,0.5 q 7.45,-0.55 11.7,5.35 2.55,3.55 1.85,7.65 4.15,2.25 6.5,6.5 2.1,3.95 1.45,8.4 -1,7.15 -6.85,11.35 -2.75,2 -5.9,3.35 l -4.7,2.05 q -4.35,1.9 -9.1,2.25 -7.45,0.5 -14.45,-1.5 -7.65,-2.25 -11.9,-8.8 -1,-1.55 -1.15,-3.4 -0.4,-4.6 1.95,-8.3 2.05,-3.2 5.2,-5.25 l 1.9,-1 q -2.1,-2.05 -2.1,-5.05 0,-1.55 0.75,-2.95 1.15,-3.6 4.2,-6 1.05,-0.8 2.3,-1.35 0.15,-5.6 4.9,-9.2 l 4.65,-3.15 q 3.25,-2 6.95,-2.05"
         fill="#000000"
         fill-rule="evenodd"
         stroke="none"
         id="path1" />
      <path
         d="m -12,-12.55 q 3.05,0.45 3.85,3.45 0.2,0.7 -0.25,1.3 -1.8,2.25 -4.6,1.6 -2.25,-0.5 -3.55,-2.2 -0.4,-0.55 -0.4,-1.15 l 0.9,-1.2 0.65,-0.4 q 2.25,-0.3 3.4,-1.4 M 8.8,4.6 10.4,3.65 10.75,3.6 q 4.8,0.3 2.7,4.35 l -1.4,1.9 Q 9.2,12.9 5.85,11.5 5.3,11.3 5.4,10.6 5.55,8.75 6.4,7.3 L 8.8,4.6 m -10.95,-14 0.45,0.1 0.25,0.15 0.25,0.3 0.15,0.7 -0.1,0.3 -0.4,0.5 -0.15,0.1 -0.1,0.05 -0.35,0.05 -0.4,-0.1 L -2.85,-7.4 -3,-7.6 -3.1,-7.75 -3.25,-7.9 v -0.15 l 0.05,-0.35 0.05,-0.3 0.05,-0.15 0.35,-0.35 0.2,-0.1 0.1,-0.05 0.3,-0.05 m -8.25,22.9 0.4,0.15 0.3,0.15 0.15,0.15 0.15,0.3 0.1,0.2 v 0.15 0.15 0.15 l -0.1,0.2 -0.15,0.3 -0.1,0.15 -0.25,0.15 -0.5,0.2 -0.45,-0.15 -0.25,-0.1 -0.4,-0.7 0.05,-0.8 0.1,-0.15 0.2,-0.15 0.2,-0.2 0.2,-0.05 0.35,-0.05 V 13.5"
         fill="#ffffff"
         fill-rule="evenodd"
         stroke="none"
         id="path2" />
      <path
         d="m -12,-12.55 q 1.4,-1.4 1.2,-4.05 l 0.2,-1.4 q 1.5,-3.75 5.15,-6.15 -0.15,4.45 2.9,8.15 0.6,0.75 1.5,1.05 2.75,1.05 5.85,0.35 2,0.4 3.2,1.95 1.5,2 0.8,4.35 -0.5,0.9 -0.7,1.9 l -0.25,0.55 q -1.65,4.9 -4.8,9 Q -2,9.6 -10.2,8.85 l -0.15,0.15 -0.1,0.15 -0.05,0.15 0.05,0.15 0.2,0.25 2.05,0.65 q 2.6,1.45 5.6,0.95 5.45,-0.95 9,-4 -0.85,1.45 -1,3.3 -0.1,0.7 0.45,0.9 3.35,1.4 6.2,-1.65 l 1.4,-1.9 Q 15.55,3.9 10.75,3.6 L 10.4,3.65 8.8,4.6 q 1.5,-2.15 2.45,-5 l 0.7,-1.85 1.8,0.75 q 2.2,1.25 3.05,3.55 0.8,2.9 0.05,5.8 -0.95,3.75 -4.2,5.8 L 8.55,15.9 Q 5.3,17.5 1.8,18.65 -1.15,19.6 -4.35,20 -16.55,21.5 -24.9,13.25 l -0.25,-2.65 -0.1,-2.45 1,-2 q 2.45,-3.75 6.15,-6 1.9,0.9 4,1.05 6.55,0.45 12.4,-2.65 -6.6,0.05 -13.05,-2 l -0.95,-0.8 q -1.3,-0.9 -2.25,-2.1 l 0.05,-0.2 v -0.3 -0.35 l 0.95,-2.35 q 0,0.6 0.4,1.15 1.3,1.7 3.55,2.2 2.8,0.65 4.6,-1.6 0.45,-0.6 0.25,-1.3 -0.8,-3 -3.85,-3.45 m 1.6,26.05 v 0.05 l -0.35,0.05 -0.2,0.05 -0.2,0.2 -0.2,0.15 -0.1,0.15 -0.05,0.8 0.4,0.7 0.25,0.1 0.45,0.15 0.5,-0.2 0.25,-0.15 0.1,-0.15 0.15,-0.3 0.1,-0.2 V 14.75 14.6 14.45 L -9.4,14.25 -9.55,13.95 -9.7,13.8 -10,13.65 -10.4,13.5 m 8.25,-22.9 -0.3,0.05 -0.1,0.05 -0.2,0.1 -0.35,0.35 -0.05,0.15 -0.05,0.3 -0.05,0.35 v 0.15 l 0.15,0.15 0.1,0.15 0.15,0.2 0.3,0.15 0.4,0.1 0.35,-0.05 0.1,-0.05 0.15,-0.1 0.4,-0.5 0.1,-0.3 -0.15,-0.7 -0.25,-0.3 -0.25,-0.15 -0.45,-0.1"
         fill="#826760"
         fill-rule="evenodd"
         stroke="none"
         id="path3" />
    </g>
    <g
       id="sprite1"
       transform="translate(17.4,15.85)">
      <use
         ffdec:characterId="31"
         height="57.200001"
         transform="matrix(0.5366,0,0,0.5366,-16.6582,-14.546)"
         width="70.75"
         xlink:href="#sprite2"
         id="use3" />
    </g>
    <g
       id="sprite2"
       transform="translate(-8.65,-10.35)">
      <use
         ffdec:characterId="30"
         height="57.200001"
         transform="translate(8.65,10.35)"
         width="70.75"
         xlink:href="#shape1"
         id="use4" />
    </g>
    <g
       id="shape1"
       transform="translate(-8.65,-10.35)">
      <path
         d="m 14.8,41.7 q 0.65,-1.75 2.65,-2.5 1.8,-0.8 3.7,-0.25 1.15,0.45 2.25,1.2 l 0.9,0.4 q 1.65,0.9 2.85,2.5 L 37.8,30.1 q 2.35,-2.8 3.75,-3.95 1.5,-1.15 4.25,-2.4 18.2,-8.85 27.65,-12.6 2.15,-0.8 3.25,-0.8 h 0.8 l 1.9,2.4 -0.2,0.8 q -0.2,1.1 -1.55,3 -5.85,8.25 -18.85,23.8 -1.85,2.35 -3.35,3.5 -1.4,1.15 -4.75,2.75 l -15.15,7.15 q 1.2,1.6 1.75,3.4 l 0.2,1 0.55,2.5 q 0.1,1.95 -1.1,3.55 -1.2,1.65 -3.05,1.9 l -1.3,0.05 q -1.65,0.2 -3.45,-0.65 -1.85,-0.9 -3,-2.6 L 25,60.95 23.8,62.1 q -2.6,2.85 -4.3,3.95 -2.85,1.8 -5.5,1.45 l -1.65,-0.5 -1.2,-0.7 -0.2,-0.2 q -1,-0.85 -1.6,-1.9 L 9.25,64 9.15,63.8 8.75,62.4 q -0.2,-0.8 -0.05,-1.7 0.25,-2.65 2.7,-5.05 1.5,-1.3 4.9,-3.15 L 17.7,51.55 16.05,50 q -1.35,-1.5 -1.8,-3.6 -0.4,-1.85 0.25,-3.45 l 0.3,-1.25"
         fill="#000000"
         fill-opacity="0.372549"
         fill-rule="evenodd"
         stroke="none"
         id="path4" />
    </g>
  </defs>
</svg>
