<?xml version="1.0" encoding="UTF-8" standalone="no"?>
<svg
   ffdec:objectType="frame"
   height="56.301922"
   width="82.83091"
   version="1.1"
   id="svg5"
   sodipodi:docname="ITEM Advanced Alloy Mask.svg"
   xmlns:inkscape="http://www.inkscape.org/namespaces/inkscape"
   xmlns:sodipodi="http://sodipodi.sourceforge.net/DTD/sodipodi-0.dtd"
   xmlns:xlink="http://www.w3.org/1999/xlink"
   xmlns="http://www.w3.org/2000/svg"
   xmlns:svg="http://www.w3.org/2000/svg"
   xmlns:ffdec="https://www.free-decompiler.com/flash">
  <sodipodi:namedview
     id="namedview5"
     pagecolor="#ffffff"
     bordercolor="#000000"
     borderopacity="0.25"
     inkscape:showpageshadow="2"
     inkscape:pageopacity="0.0"
     inkscape:pagecheckerboard="0"
     inkscape:deskcolor="#d1d1d1"
     fit-margin-top="5"
     fit-margin-left="5"
     fit-margin-right="5"
     fit-margin-bottom="5" />
  <g
     transform="translate(41.537692,25.1)"
     id="g1">
    <use
       ffdec:characterId="17"
       height="119.15"
       id="rarity"
       transform="translate(-58.5,-60.65)"
       width="119.15"
       xlink:href="#sprite0" />
    <use
       ffdec:characterId="962"
       height="56.299999"
       transform="translate(-41.55,-25.1)"
       width="82.849998"
       xlink:href="#shape0"
       id="use1" />
  </g>
  <defs
     id="defs5">
    <g
       id="shape0"
       transform="translate(88.35,26.45)">
      <path
         d="m -26.35,-25.65 q 11.8,-1.75 19.25,6.65 0.7,0.75 0.75,1.9 0.15,6.7 0.7,13.3 0.65,8.45 -1.65,16.2 -0.5,1.65 -2.2,2.3 -4.7,1.75 -9.2,3.7 0.45,4.85 -3.2,6.95 l -3,1.05 q -16.65,2.8 -33.5,3.45 -1.25,0.05 -1.65,-1.2 l -1.5,-3.75 q -8.15,0.85 -16.8,-0.1 -0.8,-0.1 -1.15,-0.9 -1.6,-3.95 -2,-8.15 -0.75,-3.25 -0.8,-6.6 -1.75,0.1 -3.45,-1.45 -2.9,-2.65 -2.55,-6.45 1,-10.6 4.6,-20.55 0.9,-2.55 3.7,-3.75 l 4.85,-2.25 q 1.9,-0.95 3.9,-1.15 6.65,0.95 11.85,5.6 1.85,1.65 3.15,3.65 1.55,2.35 1.45,5.25 l 0.85,3.4 q 0.35,1.95 0.2,3.9 l 0.2,-0.05 2.6,0.1 q -0.5,-3.1 0.55,-6.1 0.3,-0.85 1.1,-1.25 h 0.15 l 0.5,-0.1 q 4,-0.2 7.85,0.85 1.35,0.4 1.85,1.7 l -0.1,1.85 q 0.8,-0.75 1.95,-0.95 l 0.9,-0.15 q -0.2,-1.55 0.6,-2.8 v -0.25 l 0.05,-0.2 0.05,-0.2 v -0.2 q -3.75,-5.6 1.45,-10.65 3.05,-3.05 7.7,-2.6 m -42.35,5.25 -0.55,-0.35 -1.7,0.1 q -2.65,0.35 -4.95,1.85 l -3.15,2.05 -0.1,0.05 -0.05,0.3 -1.75,6.15 -0.05,0.15 -0.2,0.65 q -1.4,5.3 -2,10.75 l 1.15,1.65 q 0.3,-3.65 1,-7.2 0.3,-1.5 1.2,-2.3 0.6,-0.6 1.5,-0.85 h 0.15 l 0.8,0.05 q 0.65,1.45 0.85,3 0.3,2.3 -0.45,4.85 -0.35,1.15 -0.35,2.45 -0.35,8.8 2.35,16.95 l 3.75,-0.1 0.2,-1.55 q 0.45,-2.15 1.65,-3.8 l 0.35,-0.15 0.65,-0.15 0.05,-0.05 q 8.85,-0.25 17.45,1.25 l 4.25,0.95 q 0.15,-3.6 2.1,-6.35 L -43.8,9.5 -39,8.8 q -1.45,-0.5 -1.6,-2.05 l -0.05,-0.4 -0.4,-4.75 -0.45,1.75 q 0.6,1.15 0.05,2.25 l -0.35,0.65 q -1.45,2.2 -4.5,2 -1.75,-0.15 -2.8,-1.35 l -0.2,0.75 q 0.2,1 0.05,1.85 -0.4,2.6 -4.1,3.1 -5,0.7 -5.8,-3.9 V 8.5 l -0.55,0.4 q -5.7,2.3 -7.85,-2.65 -0.5,-1.25 -0.55,-2.65 -0.1,-3.8 0.4,-7.4 l 0.6,-3.25 q 0.15,-0.55 0.8,-0.7 l 0.45,-0.1 5.65,0.35 0.55,0.25 q 1.35,0.6 2.45,1.8 l -0.05,-1.5 q -0.55,-0.9 -0.7,-1.95 l -0.05,-0.15 -0.25,-1.25 -0.65,-2.15 -0.35,-1.75 -6.05,-4.05 -3.4,-2.15 m -6.55,4.6 q 1.75,-0.1 3.05,1.1 l 0.5,0.85 q 0.8,5.35 -4.35,4.5 -1.4,-0.25 -1.8,-1.6 -1,-3.6 2.6,-4.85 m 12.35,12.3 -0.85,0.1 v 0.85 1.3 0.35 2.65 l 0.05,2.75 1.3,0.1 0.1,-0.35 q -0.3,-1.35 0,-2.6 0.2,-1 1.1,-1.5 h 0.05 q -0.1,-1.9 1.2,-2.95 V -2.85 -3 l -0.15,-0.1 q -0.8,-0.1 -1.45,-0.55 h -0.15 l -1.2,0.15 m 9.6,2.65 q -1.2,0.6 -2.6,0.65 -0.8,0.05 -1.2,0.55 0.55,1.05 0.85,2.15 0.55,2 0.45,4.1 l 0.15,0.45 0.05,0.2 0.05,0.2 0.1,0.2 0.05,0.25 1.2,-0.1 0.55,-0.25 0.5,-0.15 0.45,-0.65 0.2,-0.2 0.35,-0.15 0.35,-0.5 V 5.75 l -0.05,-0.3 V 5.25 L -51.9,5 V 4.6 4.15 l -0.35,-1.3 q -0.05,-1.8 -0.35,-3.6 v -0.1 l -0.5,-0.05 -0.2,0.05 m 5.9,-7.5 q 0.9,4.2 1.05,8.6 l 0.25,2.75 1.6,0.1 0.4,-1.95 0.15,-0.65 q 0.1,-2.15 0.6,-4.3 l 0.5,-1.25 0.25,-1.95 0.15,-0.65 q -1.7,-1.2 -4.95,-0.7 m 35.55,-8.15 q -3.3,-3.3 -8.2,-3.5 l -9.8,0.5 -0.2,0.2 -0.3,0.4 -0.6,0.85 -0.15,0.3 0.45,-0.1 q 5.05,0.15 9.75,1.75 1.5,0.55 2.7,1.5 l 0.2,0.45 0.1,0.2 0.2,0.85 v 1.1 0.05 l 0.4,0.15 0.3,0.15 q 1.55,4.2 -0.55,7.25 l 0.15,0.1 q 0.4,0.8 0.3,1.75 l -0.05,1.05 0.35,0.85 q 0.1,0.45 0.05,0.9 l 0.2,0.4 0.5,0.6 q 2.55,-1 5.15,-1.4 -0.3,-8.25 -0.95,-16.35 m -8.25,10.1 -0.05,-1.95 -0.15,-1.15 q -0.15,-1.25 0.65,-2.05 l 0.1,-0.6 -0.25,-0.4 -0.35,-0.2 -1.1,-0.4 -0.8,-0.35 h -0.3 l -0.35,-0.05 -0.65,-0.15 -0.45,-0.15 -6.9,-0.85 -0.05,0.8 q 0.3,1.2 0.05,2.75 l -0.65,2.15 0.05,0.05 q 0.8,0.2 1.6,0.6 l 0.5,-0.3 0.35,-0.1 0.5,-0.05 v -0.05 q 3.5,-0.8 5.6,0.95 l 1.2,1.4 0.35,0.7 0.2,0.95 0.8,-0.55 0.1,-1 m -15.35,1.7 -0.7,0.3 -0.65,0.2 -0.1,5.35 q 0.05,1.5 -0.45,2.8 v 0.4 0.45 0.45 q 3.05,0.9 5.3,-1.45 v -5.6 l 0.1,-2.75 v -0.1 l -3.5,-0.05 m 7.4,2.15 0.05,0.2 v 0.2 0.25 l -0.05,0.2 -0.1,0.2 0.1,0.45 0.15,1.9 0.25,2.8 0.25,0.2 0.4,0.25 h 0.95 L -26,3.85 -25.95,3.65 -25.8,2.6 q -0.05,-1.15 0.5,-2.15 V 0 l 0.1,-1.7 0.4,-2.8 -0.3,-0.15 -2.8,0.25 -0.15,1.8 v 0.05 m 9.5,14.45 6.65,-2 0.2,-0.25 0.2,-0.2 0.15,-0.2 L -11.2,9 -10.85,3.9 -12.9,4.4 -15.5,4.55 -17.25,4 -18.15,3.1 -18.5,2.75 V 2.1 1.45 l -0.3,-0.85 0.05,-0.85 -0.15,-0.25 -0.1,-0.2 0.1,-1.75 V -2.9 l -0.15,0.1 -2.35,1.95 -0.2,1 q -0.8,3.75 -2.5,7.15 l -0.7,0.45 -0.55,0.1 -1,0.1 1.35,0.05 3.3,0.35 q 1,0.15 1.2,1.15 0.35,1.45 0.45,2.95 l 1.5,-0.55 M -28.2,7.65 q -0.9,-0.3 -1.55,-0.9 l -1.35,1.35 2.2,-0.15 1.55,-0.05 h 0.55 l -1.4,-0.25 m 5.8,5.35 -0.05,-0.55 -0.25,-1.7 -1.6,-0.1 -4.75,-0.15 -1.7,0.05 -1.6,0.1 -0.95,0.1 -1.75,0.15 q -4.1,0.5 -8.1,1.65 v 0.2 l -0.05,0.75 -0.15,2.95 v 0.15 0.2 l -0.1,0.9 -0.5,1.05 -0.3,0.2 -0.4,0.2 -0.45,0.1 h -0.15 l -0.55,-0.2 -0.35,-0.15 -0.05,-0.05 -5.35,-0.2 Q -58.7,17.25 -65.5,17.5 l -1.4,0.05 v 0.1 0.1 l 0.05,0.45 -0.05,0.4 v 0.2 l -0.05,0.25 -0.1,0.4 v 0.15 l 7.55,-0.5 q 1.25,-0.1 1.9,1 0.6,1.05 1.05,2.15 l 0.65,1.95 18.55,-1.7 1.75,-0.2 11.4,-1.6 0.05,-0.25 0.25,-0.6 q 0.25,-0.65 0.2,-1.3 -0.1,-1 0.3,-1.95 l -0.1,-0.7 q 0,-0.8 0.6,-1.45 L -22.4,14 v -1 m -15.7,-0.05 0.7,0.35 q 3.4,1.7 -0.15,4.2 -1,0.65 -1.8,-0.2 l -0.1,-0.1 -0.4,-0.55 q -0.55,-0.8 -0.55,-1.45 v -0.4 l 0.2,-0.55 q 0.5,-0.8 2.1,-1.3 m 11.45,-0.05 0.55,0.15 0.4,0.15 0.05,0.05 0.35,0.45 q 0.35,0.45 0.3,1.05 l -0.15,0.7 q -0.35,0.6 -1.05,0.8 h -0.45 l -0.65,-0.1 -0.55,-0.4 -0.45,-0.65 v -0.5 l 0.1,-0.55 q 0.25,-0.7 0.9,-1 l 0.25,-0.05 0.4,-0.1"
         fill="#000000"
         fill-rule="evenodd"
         stroke="none"
         id="path1" />
      <path
         d="m -70.95,-20.65 2.25,0.25 3.4,2.15 6.05,4.05 0.35,1.75 0.65,2.15 0.25,1.25 0.05,0.15 -1.7,1.65 -0.55,-0.25 -5.65,-0.35 -0.45,0.1 q -0.65,0.15 -0.8,0.7 l -0.6,3.25 -5,0.55 q -1.45,0 -2.5,-1 l -1.35,-0.1 q -0.2,-1.55 -0.85,-3 l -0.8,-0.05 h -0.15 q -0.9,0.25 -1.5,0.85 Q -81,-8.1 -81,-10.1 l 0.05,-0.15 1.75,-6.15 0.15,-0.35 3.15,-2.05 q 2.3,-1.5 4.95,-1.85 m -4.3,4.85 q -3.6,1.25 -2.6,4.85 0.4,1.35 1.8,1.6 5.15,0.85 4.35,-4.5 l -0.5,-0.85 q -1.3,-1.2 -3.05,-1.1 m 11.55,14.55 0.15,-1.1 q 0.3,-0.35 0.45,-0.8 l 0.2,-0.35 1.2,-0.15 h 0.15 q 0.65,0.45 1.45,0.55 l 0.15,0.1 v 0.15 0.05 q -1.3,1.05 -1.2,2.95 h -0.05 q -0.9,0.5 -1.1,1.5 -0.3,1.25 0,2.6 L -62.4,4.6 -63.7,4.5 -63.75,1.75 V -0.9 l 0.05,-0.35 m 51.85,-15.25 q 0.65,8.1 0.95,16.35 -2.6,0.4 -5.15,1.4 l -0.5,-0.6 -0.2,-0.4 q 0.05,-0.45 -0.05,-0.9 l -0.35,-0.85 0.05,-1.05 Q -17,-3.5 -17.4,-4.3 l -0.15,-0.1 q 2.1,-3.05 0.55,-7.25 l -0.3,-0.15 -0.4,-0.15 V -12 -13.1 l -0.2,-0.85 -0.1,-0.2 -0.2,-0.45 q -1.2,-0.95 -2.7,-1.5 -4.7,-1.6 -9.75,-1.75 l -0.45,0.1 0.15,-0.3 0.6,-0.85 0.3,-0.4 0.2,-0.2 9.8,-0.5 q 4.9,0.2 8.2,3.5 m -35.55,8.15 q 3.25,-0.5 4.95,0.7 l -0.15,0.65 -0.25,1.95 -0.5,1.25 q -0.5,2.15 -0.6,4.3 L -44.1,1.15 -44.5,3.1 -46.1,3 -46.35,0.25 q -0.15,-4.4 -1.05,-8.6 m -5.9,7.5 0.2,-0.05 0.5,0.05 v 0.1 q 0.3,1.8 0.35,3.6 l 0.35,1.3 V 4.6 5 l 0.05,0.25 v 0.2 l 0.05,0.3 V 5.9 l -0.35,0.5 -0.35,0.15 -0.2,0.2 -0.45,0.65 -0.5,0.15 -0.55,0.25 -1.2,0.1 -0.05,-0.25 -0.1,-0.2 -0.05,-0.2 -0.05,-0.2 -0.15,-0.45 q 0.1,-2.1 -0.45,-4.1 -0.3,-1.1 -0.85,-2.15 0.4,-0.5 1.2,-0.55 1.4,-0.05 2.6,-0.65 m 25.25,-1.7 V -2.6 l 0.15,-1.8 2.8,-0.25 0.3,0.15 -0.4,2.8 -0.1,1.7 v 0.45 q -0.55,1 -0.5,2.15 L -25.95,3.65 -26,3.85 -26.05,4.1 H -27 l -0.4,-0.25 -0.25,-0.2 -0.25,-2.8 -0.15,-1.9 -0.1,-0.45 0.1,-0.2 0.05,-0.2 v -0.25 -0.2 l -0.05,-0.2 m -7.4,-2.15 3.5,0.05 v 0.1 l -0.1,2.75 v 5.6 q -2.25,2.35 -5.3,1.45 V 4.8 4.35 3.95 q 0.5,-1.3 0.45,-2.8 l 0.1,-5.35 0.65,-0.2 0.7,-0.3"
         fill="#d9d9d9"
         fill-rule="evenodd"
         stroke="none"
         id="path2" />
      <path
         d="m -21.2,-5.8 -0.35,-0.7 -1.2,-1.4 q -2.1,-1.75 -5.6,-0.95 v 0.05 l -0.5,0.05 -0.35,0.1 -0.5,0.3 q -0.8,-0.4 -1.6,-0.6 l -0.05,-0.05 0.65,-2.15 q 0.25,-1.55 -0.05,-2.75 l 0.05,-0.8 6.9,0.85 0.45,0.15 0.65,0.15 0.35,0.05 h 0.3 l 0.8,0.35 1.1,0.4 0.35,0.2 0.25,0.4 -0.1,0.6 q -0.8,0.8 -0.65,2.05 l 0.15,1.15 0.05,1.95 -1.1,0.6 m -3.1,16.45 0.15,0.1 0.2,0.25 0.15,0.25 q 1.05,0.9 1.4,1.75 v 1 l -0.5,0.45 q -0.6,0.65 -0.6,1.45 l -1.5,0.95 q -2.95,1.45 -6.2,2.1 l -2.05,0.35 -4,0.3 -3.25,-0.1 q -0.35,0.55 -0.95,0.9 -7.55,1.8 -15.1,1.85 -0.45,-1.1 -1.05,-2.15 -0.65,-1.1 -1.9,-1 l -7.55,0.5 v -0.15 l 0.1,-0.4 0.05,-0.25 v -0.2 l 0.05,-0.4 -0.05,-0.45 v -0.1 l 1.4,-0.15 q 6.8,-0.25 13.95,1.15 l 5.35,0.2 0.05,0.05 0.35,0.15 0.55,0.2 h 0.15 l 0.45,-0.1 0.4,-0.2 0.3,-0.2 0.5,-1.05 0.1,-0.9 v -0.2 -0.15 l 0.15,-2.95 0.05,-0.75 v -0.2 q 4,-1.15 8.1,-1.65 l 1.75,-0.15 0.95,-0.1 1.6,-0.1 1.7,-0.05 4.75,0.15 m -13.8,2.3 q -1.6,0.5 -2.1,1.3 l -0.2,0.55 v 0.4 q 0,0.65 0.55,1.45 l 0.4,0.55 0.1,0.1 q 0.8,0.85 1.8,0.2 3.55,-2.5 0.15,-4.2 l -0.7,-0.35 m 11.45,-0.05 -0.4,0.1 -0.25,0.05 q -0.65,0.3 -0.9,1 l -0.1,0.55 v 0.5 l 0.45,0.65 0.55,0.4 0.65,0.1 h 0.45 q 0.7,-0.2 1.05,-0.8 l 0.15,-0.7 q 0.05,-0.6 -0.3,-1.05 l -0.35,-0.45 -0.05,-0.05 -0.4,-0.15 -0.55,-0.15"
         fill="#afafaf"
         fill-rule="evenodd"
         stroke="none"
         id="path3" />
      <path
         d="m -57.95,-8.9 q 0.15,1.05 0.7,1.95 l 0.05,1.5 q -1.1,-1.2 -2.45,-1.8 l 1.7,-1.65 m -9.75,5.1 q -0.5,3.6 -0.4,7.4 0.05,1.4 0.55,2.65 2.15,4.95 7.85,2.65 l 0.55,-0.4 v 0.2 q 0.8,4.6 5.8,3.9 3.7,-0.5 4.1,-3.1 0.15,-0.85 -0.05,-1.85 l 0.2,-0.75 q 1.05,1.2 2.8,1.35 3.05,0.2 4.5,-2 L -41.45,5.6 Q -40.9,4.5 -41.5,3.35 l 0.45,-1.75 0.4,4.75 0.05,0.4 q 0.15,1.55 1.6,2.05 l -4.8,0.7 -0.75,0.45 q -1.95,2.75 -2.1,6.35 l -4.25,-0.95 q -8.6,-1.5 -17.45,-1.25 l -0.05,0.05 -0.65,0.15 -0.35,0.15 q -1.2,1.65 -1.65,3.8 l -0.2,1.55 -3.75,0.1 q -2.7,-8.15 -2.35,-16.95 0,-1.3 0.35,-2.45 0.75,-2.55 0.45,-4.85 l 1.35,0.1 q 1.05,1 2.5,1 l 5,-0.55 m -12.15,-2.75 q -0.9,0.8 -1.2,2.3 -0.7,3.55 -1,7.2 L -83.2,1.3 q 0.6,-5.45 2,-10.75 l 0.2,-0.65 q 0,2 1.15,3.55 m 16.95,3.05 -0.2,0.35 q -0.15,0.45 -0.45,0.8 l -0.15,1.1 h -0.05 v -1.3 -0.85 l 0.85,-0.1 m 41.7,-2.3 1.1,-0.6 -0.1,1 -0.8,0.55 -0.2,-0.95 m -7,13.45 1.4,0.25 h -0.55 l -1.55,0.05 -2.2,0.15 1.35,-1.35 q 0.65,0.6 1.55,0.9 m 9.65,4.25 -1.5,0.55 q -0.1,-1.5 -0.45,-2.95 -0.2,-1 -1.2,-1.15 L -25,8 l -1.35,-0.05 1,-0.1 0.55,-0.1 0.7,-0.45 q 1.7,-3.4 2.5,-7.15 l 0.2,-1 2.35,-1.95 0.15,-0.1 v 0.45 l -0.1,1.75 0.1,0.2 0.15,0.25 -0.05,0.85 0.3,0.85 V 2.1 2.75 l 0.35,0.35 0.9,0.9 1.75,0.55 2.6,-0.15 2.05,-0.5 -0.35,5.1 -0.15,0.25 -0.15,0.2 -0.2,0.2 -0.2,0.25 -6.65,2 m -4.95,4 0.1,0.7 q -0.4,0.95 -0.3,1.95 0.05,0.65 -0.2,1.3 l -0.25,0.6 -0.05,0.25 -11.4,1.6 -1.75,0.2 -18.55,1.7 -0.65,-1.95 q 7.55,-0.05 15.1,-1.85 0.6,-0.35 0.95,-0.9 l 3.25,0.1 4,-0.3 2.05,-0.35 q 3.25,-0.65 6.2,-2.1 l 1.5,-0.95"
         fill="#9c9c9c"
         fill-rule="evenodd"
         stroke="none"
         id="path4" />
    </g>
    <g
       id="sprite1"
       transform="translate(17.4,15.85)">
      <use
         ffdec:characterId="31"
         height="57.200001"
         transform="matrix(0.5366,0,0,0.5366,-16.6582,-14.546)"
         width="70.75"
         xlink:href="#sprite2"
         id="use4" />
    </g>
    <g
       id="sprite2"
       transform="translate(-8.65,-10.35)">
      <use
         ffdec:characterId="30"
         height="57.200001"
         transform="translate(8.65,10.35)"
         width="70.75"
         xlink:href="#shape1"
         id="use5" />
    </g>
    <g
       id="shape1"
       transform="translate(-8.65,-10.35)">
      <path
         d="m 14.8,41.7 q 0.65,-1.75 2.65,-2.5 1.8,-0.8 3.7,-0.25 1.15,0.45 2.25,1.2 l 0.9,0.4 q 1.65,0.9 2.85,2.5 L 37.8,30.1 q 2.35,-2.8 3.75,-3.95 1.5,-1.15 4.25,-2.4 18.2,-8.85 27.65,-12.6 2.15,-0.8 3.25,-0.8 h 0.8 l 1.9,2.4 -0.2,0.8 q -0.2,1.1 -1.55,3 -5.85,8.25 -18.85,23.8 -1.85,2.35 -3.35,3.5 -1.4,1.15 -4.75,2.75 l -15.15,7.15 q 1.2,1.6 1.75,3.4 l 0.2,1 0.55,2.5 q 0.1,1.95 -1.1,3.55 -1.2,1.65 -3.05,1.9 l -1.3,0.05 q -1.65,0.2 -3.45,-0.65 -1.85,-0.9 -3,-2.6 L 25,60.95 23.8,62.1 q -2.6,2.85 -4.3,3.95 -2.85,1.8 -5.5,1.45 l -1.65,-0.5 -1.2,-0.7 -0.2,-0.2 q -1,-0.85 -1.6,-1.9 L 9.25,64 9.15,63.8 8.75,62.4 q -0.2,-0.8 -0.05,-1.7 0.25,-2.65 2.7,-5.05 1.5,-1.3 4.9,-3.15 L 17.7,51.55 16.05,50 q -1.35,-1.5 -1.8,-3.6 -0.4,-1.85 0.25,-3.45 l 0.3,-1.25"
         fill="#000000"
         fill-opacity="0.372549"
         fill-rule="evenodd"
         stroke="none"
         id="path5" />
    </g>
  </defs>
</svg>
