<?xml version="1.0" encoding="UTF-8" standalone="no"?>
<svg
   ffdec:objectType="frame"
   height="77.043121"
   width="66.995773"
   version="1.1"
   id="svg4"
   xmlns:xlink="http://www.w3.org/1999/xlink"
   xmlns="http://www.w3.org/2000/svg"
   xmlns:svg="http://www.w3.org/2000/svg"
   xmlns:ffdec="https://www.free-decompiler.com/flash">
  <g
     transform="translate(33.317647,35.809)"
     id="g1">
    <use
       ffdec:characterId="17"
       height="119.15"
       id="rarity"
       transform="translate(-58.5,-60.65)"
       width="119.15"
       xlink:href="#sprite0" />
    <use
       ffdec:characterId="275"
       height="77.050003"
       transform="translate(-33.3,-35.8)"
       width="67"
       xlink:href="#shape0"
       id="use1" />
  </g>
  <defs
     id="defs4">
    <g
       id="shape0"
       transform="translate(33,38.3)">
      <path
         d="m 14.95,-26.8 q -1.35,-3.5 -4.5,-5.05 v -0.1 Q 8.2,-33.1 5.4,-32.85 l -1.9,0.3 q -1.55,0.45 -3.05,1.4 -4.05,2.5 -6.4,8.05 -2.1,5.05 -0.75,8.45 l 0.75,1.4 0.7,1.5 0.2,0.55 q 0.4,1.45 -0.25,2.45 l -0.05,0.1 q -0.9,1.5 -3.9,1.3 -3.9,-0.05 -7.55,-1.05 -3.9,-1 -7.5,-3.1 -1.25,1.95 -2.05,4.05 l -0.7,2.5 -0.2,1.25 -0.1,0.8 q -0.25,2.5 0.15,5 l 7.4,-1.45 q 4.85,-1 7.15,-1.85 l 2,-0.65 2,0.2 0.6,0.6 0.5,0.9 0.35,0.8 q 1.65,4.8 0.55,9.7 l -0.4,1.45 -0.25,0.9 -0.45,1.05 -0.5,1.1 Q -9.35,17.1 -11,19.4 l -0.85,1.35 -4.45,5.65 q -0.55,0.65 -0.55,1.1 -0.05,0.55 0.75,1.25 l 2.1,1.8 2.65,1.65 q 2.25,1.05 4.6,1.3 l 6.15,-0.35 3.45,-0.7 Q 4.65,31.95 5.95,31.1 3.7,21.05 3.95,5.1 4.05,3 4.6,2.15 6,-0.05 10.15,0.7 q 4,0.7 7.65,2.8 3.65,2.15 6.25,5.3 3.15,-2.4 4.4,-6.35 l 0.4,-2.1 q 0.25,-1.8 0,-3.5 l -0.55,-2.1 h -1.5 l -4.5,-0.05 -2,-0.05 -8.4,-0.9 -0.7,-0.1 Q 10.3,-6.6 9.95,-7.05 9.65,-7.55 9.8,-8.2 q 0,-0.6 0.45,-1.05 L 12,-10.8 q 3,-2.4 3.75,-7.75 0.55,-4.4 -0.55,-7.55 l -0.25,-0.7 m -15.75,10.25 -0.15,-0.6 -0.2,-0.35 -0.35,-1.1 0.1,-1.85 0.3,-1.25 0.9,-1.65 0.25,-0.55 0.25,-0.45 0.85,-1.1 1.6,-1.05 1.6,-0.65 H 5.4 5.9 6.25 l 1,0.2 0.4,0.1 H 7.8 q 1.2,0.4 2,1.8 l 0.15,0.2 0.1,0.25 0.05,0.05 0.05,0.2 0.5,1.45 q 0.55,2 -0.3,3.8 l -0.55,1 v 0.1 q -0.45,1.45 -1.45,2.7 -1.55,2 -3.5,2.2 L 3.1,-13.3 2.75,-13.35 1.2,-13.7 0.1,-14.85 -0.8,-16.55 M -31.95,5.3 q -1.65,-4.65 -0.75,-10.2 0.9,-5.05 3.6,-9.9 1.7,-2.95 3.65,-3.25 1.25,-0.25 2.65,0.45 l 2.35,1.5 q 3.9,2.6 8.5,3 -1.5,-3.25 -0.35,-8.35 1,-4.45 3.4,-8.15 2.5,-3.9 6.1,-6.15 3.85,-2.35 8.35,-2.55 4.8,-0.15 8.4,2.2 2.9,1.85 4.7,5.05 1.8,3.05 2.2,6.6 0.85,6.5 -2.55,13.65 l 5,0.4 q 3.05,0.3 4.75,-0.75 0.4,-0.15 1.05,-0.65 l 1.05,-0.5 q 1.4,-0.05 2.3,1.35 0.55,0.8 0.8,2.6 l 0.7,6.05 q 0.15,3.4 -0.5,6.1 -0.8,3.1 -2.8,5.7 -1.95,2.6 -4.7,4.25 -2.5,1.45 -4.2,0.7 -0.8,-0.35 -1.5,-1.35 L 19.1,11.3 Q 17.6,9.3 14.75,7.9 12.8,7 9.2,5.95 q -0.4,9.95 0.95,19.9 0.35,2.6 1,3.85 l 1.1,1.85 q 0.5,1.05 0.2,1.9 Q 12.2,34.3 10.5,35.15 -1,40.3 -10.15,38.05 -15,36.8 -19.05,33.5 -20.9,31.9 -21.9,30 q -1.1,-2.15 -0.5,-4.15 0.35,-1.1 2.2,-3.25 2.85,-3.3 5.15,-6.8 4.6,-6.8 3.3,-11.6 -2.1,1.2 -6.5,1.8 -4.7,0.6 -6.55,1.45 l -2.05,1 -2.1,0.3 q -1.95,-0.4 -3,-3.45"
         fill="#000000"
         fill-rule="evenodd"
         stroke="none"
         id="path1" />
      <path
         d="m -27.35,-2.9 0.1,-0.8 0.2,-1.25 0.7,-2.5 q 0.8,-2.1 2.05,-4.05 3.6,2.1 7.5,3.1 3.65,1 7.55,1.05 3,0.2 3.9,-1.3 l 0.05,-0.1 q 0.65,-1 0.25,-2.45 l -0.2,-0.55 -0.7,-1.5 -0.75,-1.4 q -1.35,-3.4 0.75,-8.45 2.35,-5.55 6.4,-8.05 1.5,-0.95 3.05,-1.4 l 1.9,-0.3 q 2.8,-0.25 5.05,0.9 v 0.1 q 3.15,1.55 4.5,5.05 l -0.9,-0.1 -1.8,-0.5 -1.9,-0.35 q -0.95,0.05 -2.7,0.9 l -0.4,-0.1 -1,-0.2 H 5.9 5.4 4.35 l -1.6,0.65 -1.6,1.05 -0.85,1.1 -0.25,0.45 -0.25,0.55 -0.9,1.65 -0.3,1.25 -0.1,1.85 0.35,1.1 0.2,0.35 0.15,0.6 -0.5,1.35 -0.25,3.1 q -0.25,2.25 -1.1,3.45 -0.8,1 -2.6,1.9 -2.4,1.15 -5.65,1.95 l -5.9,1.2 -5.15,0.65 -3.5,-0.2 -0.7,0.3 -1.2,-0.05 m 38.55,-3.45 0.7,0.1 8.4,0.9 2,0.05 4.5,0.05 h 1.5 l 0.55,2.1 q 0.25,1.7 0,3.5 L 26.8,0.2 23.2,-0.1 19.65,-0.8 Q 18.4,-1.3 16.6,-2.4 L 13.7,-4.25 12.6,-4.9 11.7,-5.6 11.2,-6.35 M -11.35,32.2 -14,30.55 l -2.1,-1.8 q -0.8,-0.7 -0.75,-1.25 0,-0.45 0.55,-1.1 l 4.45,-5.65 0.85,-1.35 q 1.65,-2.3 2.75,-4.55 l 0.5,-1.1 0.45,-1.05 0.25,-0.9 0.4,-1.45 q 1.1,-4.9 -0.55,-9.7 l -0.35,-0.8 -0.5,-0.9 H -8 q 1.25,0.2 2.3,1.55 0.95,1.35 1.95,4.65 0.65,1.95 0.85,3.1 0.5,2.45 0.15,5.2 v 1.65 q -0.15,1.7 -1.45,4.8 l -1.2,2.95 q -2.05,5.15 -4.25,7.85 -0.85,1.15 -1.7,1.5 m 21.4,-56.8 1.75,-0.1 q 0.95,0.2 1.35,0.95 l 0.4,1.35 0.4,1.4 -0.05,1.35 -0.2,1.4 -0.25,2.1 q -0.2,1 -1.1,2.15 -1.15,1.6 -2.7,2.8 -0.65,0.6 -1.2,0.7 l -2.4,-0.05 -1.35,-0.3 q -0.8,-0.2 -1.25,-0.6 -0.55,-0.5 -0.7,-1.2 v -0.7 l 0.35,0.05 1.75,0.2 q 1.95,-0.2 3.5,-2.2 1,-1.25 1.45,-2.7 v -0.1 l 0.55,-1 q 0.85,-1.8 0.3,-3.8 l -0.5,-1.45 -0.05,-0.2 -0.05,-0.05"
         fill="#646464"
         fill-rule="evenodd"
         stroke="none"
         id="path2" />
      <path
         d="m -27.35,-2.9 1.2,0.05 0.7,-0.3 3.5,0.2 5.15,-0.65 5.9,-1.2 q 3.25,-0.8 5.65,-1.95 1.8,-0.9 2.6,-1.9 0.85,-1.2 1.1,-3.45 l 0.25,-3.1 0.5,-1.35 0.9,1.7 1.1,1.15 1.55,0.35 v 0.7 q 0.15,0.7 0.7,1.2 0.45,0.4 1.25,0.6 l 1.35,0.3 2.4,0.05 q 0.55,-0.1 1.2,-0.7 1.55,-1.2 2.7,-2.8 0.9,-1.15 1.1,-2.15 l 0.25,-2.1 0.2,-1.4 0.05,-1.35 -0.4,-1.4 -0.4,-1.35 q -0.4,-0.75 -1.35,-0.95 l -1.75,0.1 -0.1,-0.25 -0.15,-0.2 q -0.8,-1.4 -2,-1.8 H 7.65 q 1.75,-0.85 2.7,-0.9 l 1.9,0.35 1.8,0.5 0.9,0.1 0.25,0.7 q 1.1,3.15 0.55,7.55 Q 15,-13.2 12,-10.8 l -1.75,1.55 Q 9.8,-8.8 9.8,-8.2 q -0.15,0.65 0.15,1.15 0.35,0.45 1.25,0.7 l 0.5,0.75 0.9,0.7 1.1,0.65 2.9,1.85 q 1.8,1.1 3.05,1.6 l 3.55,0.7 3.6,0.3 2.05,0.15 -0.4,2.1 Q 27.2,6.4 24.05,8.8 21.45,5.65 17.8,3.5 14.15,1.4 10.15,0.7 6,-0.05 4.6,2.15 4.05,3 3.95,5.1 q -0.25,15.95 2,26 -1.3,0.85 -3.1,1.35 l -3.45,0.7 -6.15,0.35 q -2.35,-0.25 -4.6,-1.3 0.85,-0.35 1.7,-1.5 2.2,-2.7 4.25,-7.85 l 1.2,-2.95 q 1.3,-3.1 1.45,-4.8 V 13.45 Q -2.4,10.7 -2.9,8.25 -3.1,7.1 -3.75,5.15 -4.75,1.85 -5.7,0.5 -6.75,-0.85 -8,-1.05 h -0.05 l -0.6,-0.6 -2,-0.2 -2,0.65 q -2.3,0.85 -7.15,1.85 l -7.4,1.45 q -0.4,-2.5 -0.15,-5"
         fill="#525252"
         fill-rule="evenodd"
         stroke="none"
         id="path3" />
    </g>
    <g
       id="sprite1"
       transform="translate(17.4,15.85)">
      <use
         ffdec:characterId="31"
         height="57.200001"
         transform="matrix(0.5366,0,0,0.5366,-16.6582,-14.546)"
         width="70.75"
         xlink:href="#sprite2"
         id="use3" />
    </g>
    <g
       id="sprite2"
       transform="translate(-8.65,-10.35)">
      <use
         ffdec:characterId="30"
         height="57.200001"
         transform="translate(8.65,10.35)"
         width="70.75"
         xlink:href="#shape1"
         id="use4" />
    </g>
    <g
       id="shape1"
       transform="translate(-8.65,-10.35)">
      <path
         d="m 14.8,41.7 q 0.65,-1.75 2.65,-2.5 1.8,-0.8 3.7,-0.25 1.15,0.45 2.25,1.2 l 0.9,0.4 q 1.65,0.9 2.85,2.5 L 37.8,30.1 q 2.35,-2.8 3.75,-3.95 1.5,-1.15 4.25,-2.4 18.2,-8.85 27.65,-12.6 2.15,-0.8 3.25,-0.8 h 0.8 l 1.9,2.4 -0.2,0.8 q -0.2,1.1 -1.55,3 -5.85,8.25 -18.85,23.8 -1.85,2.35 -3.35,3.5 -1.4,1.15 -4.75,2.75 l -15.15,7.15 q 1.2,1.6 1.75,3.4 l 0.2,1 0.55,2.5 q 0.1,1.95 -1.1,3.55 -1.2,1.65 -3.05,1.9 l -1.3,0.05 q -1.65,0.2 -3.45,-0.65 -1.85,-0.9 -3,-2.6 L 25,60.95 23.8,62.1 q -2.6,2.85 -4.3,3.95 -2.85,1.8 -5.5,1.45 l -1.65,-0.5 -1.2,-0.7 -0.2,-0.2 q -1,-0.85 -1.6,-1.9 L 9.25,64 9.15,63.8 8.75,62.4 q -0.2,-0.8 -0.05,-1.7 0.25,-2.65 2.7,-5.05 1.5,-1.3 4.9,-3.15 L 17.7,51.55 16.05,50 q -1.35,-1.5 -1.8,-3.6 -0.4,-1.85 0.25,-3.45 l 0.3,-1.25"
         fill="#000000"
         fill-opacity="0.372549"
         fill-rule="evenodd"
         stroke="none"
         id="path4" />
    </g>
  </defs>
</svg>
