<?xml version="1.0" encoding="UTF-8" standalone="no"?>
<svg
   ffdec:objectType="frame"
   height="73.418678"
   width="63.68021"
   version="1.1"
   id="svg5"
   sodipodi:docname="ITEM Alloy Mask (face).svg"
   xmlns:inkscape="http://www.inkscape.org/namespaces/inkscape"
   xmlns:sodipodi="http://sodipodi.sourceforge.net/DTD/sodipodi-0.dtd"
   xmlns:xlink="http://www.w3.org/1999/xlink"
   xmlns="http://www.w3.org/2000/svg"
   xmlns:svg="http://www.w3.org/2000/svg"
   xmlns:ffdec="https://www.free-decompiler.com/flash">
  <sodipodi:namedview
     id="namedview5"
     pagecolor="#ffffff"
     bordercolor="#000000"
     borderopacity="0.25"
     inkscape:showpageshadow="2"
     inkscape:pageopacity="0.0"
     inkscape:pagecheckerboard="0"
     inkscape:deskcolor="#d1d1d1"
     fit-margin-top="5"
     fit-margin-left="5"
     fit-margin-right="5"
     fit-margin-bottom="5" />
  <g
     transform="translate(28.928125,35.307143)"
     id="g1">
    <use
       ffdec:characterId="17"
       height="119.15"
       id="rarity"
       transform="translate(-58.5,-60.65)"
       width="119.15"
       xlink:href="#sprite0" />
    <use
       ffdec:characterId="961"
       height="73.400002"
       transform="translate(-28.95,-35.3)"
       width="63.700001"
       xlink:href="#shape0"
       id="use1" />
  </g>
  <defs
     id="defs5">
    <g
       id="shape0"
       transform="translate(75.75,36.65)">
      <path
         d="m -45.1,-36.4 q 6.6,-0.9 12.45,1.35 0.65,0.25 0.8,1 1.85,9.7 2.05,19.7 0.1,4.7 1.3,9.2 l 0.2,0.25 0.2,0.2 0.2,0.25 0.25,0.4 0.25,0.65 q 4.4,8.2 10.3,15.5 3.85,4.85 5,10.75 0.25,1.25 -0.7,2.2 -0.85,0.85 -2.05,1.15 -5.25,4.9 -12.05,6.55 -1.05,0.3 -1.85,-0.5 L -36.8,24.7 q -1.95,-0.55 -3.9,0 l -9.7,2.7 -0.85,0.7 -9.65,6.4 -0.4,0.4 q -3,3.3 -6.2,0.75 -1.3,-1 -2.05,-2.45 -5.5,-3.8 -6.15,-9.9 -0.15,-1.2 0.5,-2.35 7.6,-12.95 15.95,-25.4 2.75,-4.1 4.9,-8.45 -0.8,-6.35 -0.85,-12.9 -0.05,-4.3 1.2,-8.25 0.4,-1.2 1.7,-1.4 l 7.2,-0.95 m -0.65,5.1 -1.3,0.2 -2.55,0.8 v 0.85 12.3 l 0.1,3.8 h 0.1 q 3.7,1.75 5.15,4.8 1.8,-1.05 4.25,-0.85 0.45,-0.6 1.25,-0.65 l 0.35,-0.2 0.25,-0.05 0.45,-0.1 0.35,0.1 2.25,-0.75 0.15,0.05 -0.5,-6.5 -0.55,-12.35 v -0.45 l -0.05,-1.2 v -0.05 L -38,-31.6 h -0.6 l -7.15,0.3 m 3.8,1.95 q 3.7,1.4 0.8,3.95 -1.15,1 -2.2,-0.2 -1.85,-2.1 0.6,-3.65 l 0.3,-0.05 0.5,-0.05 m 0,12.65 q 1.8,0.15 2.25,1.85 l 0.1,1.05 q -2.3,3.7 -4.45,-0.05 -0.4,-0.75 0,-1.55 0.7,-1.3 2.1,-1.3 m -8.65,8.55 -7.4,12.3 0.15,-0.1 0.2,-0.05 0.5,-0.1 1.1,0.4 0.3,0.15 q 0.55,0.75 0.4,1.7 -0.2,1 -1.05,1.45 L -57.1,7.65 -58.2,7.4 -58.95,6.3 -59,5.75 l -1.2,1.9 2.45,1.5 q 0.6,0.35 1.25,0.3 3.25,-5.55 7.15,-10.6 1.45,-1.95 2.4,-4.2 l -3.15,-3.75 -0.5,0.95 m 10.85,1.6 -2.2,0.5 -0.75,0.2 q -0.3,5.65 -1.2,11.2 -0.5,2.95 -0.55,5.95 l 6.05,-0.6 -0.75,-11.2 q -0.1,-3.1 -0.6,-6.05 m 9.3,9.05 q -2.4,-3.45 -3.65,-7.35 l -0.55,-2.7 -0.1,-1.2 -1.25,1.15 0.8,6.8 0.1,0.05 q 2.45,2.9 3.9,6.5 l 1.1,2.5 2.6,-1.55 -0.65,-0.9 -0.1,-0.05 -0.65,-0.1 -0.55,-0.4 -0.45,-0.65 0.1,-1.05 0.05,-0.05 -0.7,-1 m -2.15,8.7 -0.65,-1.95 -0.85,0.5 -0.2,0.15 q -0.05,2.9 -1.9,4.9 -0.5,0.55 -1.25,0.65 l -1.95,0.25 0.1,0.95 v 0.05 l -0.2,2.65 q 2.5,0 4.95,0.75 1.5,0.4 2.65,1.55 l 5.8,5.25 q 0.95,-0.15 1.75,-0.65 l 6.7,-4.65 -2,-3.15 -5.25,-7.95 -0.05,-0.1 -0.15,0.1 q -2.7,2.2 -6.55,2.05 l -0.75,-0.5 -0.2,-0.85 m 10.9,9.35 q 0.6,1.2 -1.65,2.6 -0.7,0.45 -1.35,-0.2 -0.95,-1.05 -1,-1.85 -0.1,-1.3 2.05,-2.05 1.55,0.7 1.95,1.5 m -12.9,-14.6 0.05,0.15 h 0.05 l -0.1,-0.15 m -6.8,0.1 1.05,0.4 0.3,0.15 0.2,0.25 0.1,0.2 0.2,0.4 V 7.9 q 0,0.6 -0.4,1.05 L -40.2,9.2 q -2.35,1.1 -2.9,-1.25 V 7.3 l 0.1,-0.2 0.3,-0.4 0.5,-0.45 0.3,-0.1 0.5,-0.1 m -7.25,3.55 h -0.05 q -2.1,0.5 -3.15,-0.3 l -3.2,4.6 q -0.3,0.45 -0.9,0.35 l -1.1,-0.3 -0.25,-0.2 -0.35,-0.45 -0.2,-0.4 -3.25,-2.6 -0.5,-0.45 -0.85,1.25 -2.15,3.35 -3.85,5.65 h -0.05 l -0.1,0.25 -0.3,0.6 -0.45,0.9 -0.85,1.9 0.05,0.2 0.4,0.65 0.45,0.65 q 0.6,0.65 0.8,1.5 l 0.2,0.25 1.55,1.3 q 1.25,1 2.2,2.35 Q -57.7,25.6 -50,22 q 1.55,-0.7 3.25,-1.35 2.25,-0.85 4.5,-1.15 l 0.05,-1.75 0.05,-0.6 -0.05,-0.3 -0.05,-1.1 -5.15,-0.65 q -1.45,-0.3 -1.4,-1.75 v -0.1 L -48.6,9.9 V 9.65 L -48.65,9.6 M -66.9,22.5 v -0.05 q 0.7,-1.3 2.05,-1.35 1.8,0.2 2.25,1.9 l 0.1,1.05 -0.2,0.3 q -2.2,3.2 -4.25,-0.4 -0.4,-0.7 0.05,-1.45"
         fill="#000000"
         fill-rule="evenodd"
         stroke="none"
         id="path1" />
      <path
         d="m -49.6,-29.45 q 1.85,-1.15 3.85,-1.85 l 7.15,-0.3 h 0.6 l 2,1.3 v 0.45 l 0.55,12.35 q -2.05,3.85 -6.5,6.1 l -2.55,-0.05 q -3.9,-2.2 -5.1,-5.7 v -12.3 m 7.65,12.75 q -1.4,0 -2.1,1.3 -0.4,0.8 0,1.55 2.15,3.75 4.45,0.05 l -0.1,-1.05 q -0.45,-1.7 -2.25,-1.85 m 0,-12.65 -0.5,0.05 -0.3,0.05 q -2.45,1.55 -0.6,3.65 1.05,1.2 2.2,0.2 2.9,-2.55 -0.8,-3.95 m 22.3,47.8 q -0.6,1.45 -2.05,2.1 -0.4,-0.8 -1.95,-1.5 -2.15,0.75 -2.05,2.05 -6.45,-0.15 -8,-7 -0.5,-2.2 1.1,-2.9 l 0.2,0.85 0.75,0.5 q 3.85,0.15 6.55,-2.05 h 0.2 l 5.25,7.95 m -41.45,-8.15 3.25,2.6 0.2,0.4 0.35,0.45 0.25,0.2 1.1,0.3 q 0.6,0.1 0.9,-0.35 l 3.2,-4.6 q 1.05,0.8 3.15,0.3 h 0.05 l 0.05,0.3 -0.2,3.35 q -0.65,2.1 -2.6,4.05 l -4.7,4.5 q -3,2.7 -6.6,2.55 l 0.2,-0.3 -0.1,-1.05 q -0.45,-1.7 -2.25,-1.9 -1.35,0.05 -2.05,1.35 v 0.05 q -1.3,-1.15 -1.55,-2.4 l 3.85,-5.65 2.15,-3.35 1.35,-0.8"
         fill="#d9d9d9"
         fill-rule="evenodd"
         stroke="none"
         id="path2" />
      <path
         d="m -49.6,-17.15 q 1.2,3.5 5.1,5.7 l 2.55,0.05 q 4.45,-2.25 6.5,-6.1 l 0.5,6.5 -0.15,-0.05 -2.25,0.75 -0.35,-0.1 -0.45,0.1 -0.25,0.05 -0.35,0.2 q -0.8,0.05 -1.25,0.65 -2.45,-0.2 -4.25,0.85 -1.45,-3.05 -5.15,-4.8 h -0.1 l -0.1,-3.8 m 29.95,35.6 2,3.15 -6.7,4.65 q -0.8,0.5 -1.75,0.65 l -5.8,-5.25 Q -33.05,20.5 -34.55,20.1 -37,19.35 -39.5,19.35 l 0.2,-2.65 v -0.05 l -0.1,-0.95 1.95,-0.25 q 0.75,-0.1 1.25,-0.65 1.85,-2 1.9,-4.9 l 0.2,-0.15 0.85,-0.5 0.65,1.95 q -1.6,0.7 -1.1,2.9 1.55,6.85 8,7 0.05,0.8 1,1.85 0.65,0.65 1.35,0.2 2.25,-1.4 1.65,-2.6 1.45,-0.65 2.05,-2.1 m -48.8,1.65 q 0.25,1.25 1.55,2.4 -0.45,0.75 -0.05,1.45 2.05,3.6 4.25,0.4 3.6,0.15 6.6,-2.55 l 4.7,-4.5 q 1.95,-1.95 2.6,-4.05 v 0.1 q -0.05,1.45 1.4,1.75 l 5.15,0.65 0.05,1.1 0.05,0.3 -0.05,0.6 -0.05,1.75 q -2.25,0.3 -4.5,1.15 -1.7,0.65 -3.25,1.35 -7.7,3.6 -14.55,8.65 -0.95,-1.35 -2.2,-2.35 L -68.3,27 -68.5,26.75 q -0.2,-0.85 -0.8,-1.5 l -0.45,-0.65 -0.4,-0.65 -0.05,-0.2 0.85,-1.9 0.45,-0.9 0.3,-0.6 0.1,-0.25 h 0.05"
         fill="#afafaf"
         fill-rule="evenodd"
         stroke="none"
         id="path3" />
      <path
         d="m -39.75,-6.55 q 0.5,2.95 0.6,6.05 l 0.75,11.2 -6.05,0.6 q 0.05,-3 0.55,-5.95 0.9,-5.55 1.2,-11.2 l 0.75,-0.2 2.2,-0.5 m -10.85,-1.6 0.5,-0.95 3.15,3.75 q -0.95,2.25 -2.4,4.2 -3.9,5.05 -7.15,10.6 -0.65,0.05 -1.25,-0.3 l -2.45,-1.5 1.2,-1.9 0.05,0.55 0.75,1.1 1.1,0.25 0.7,-0.05 q 0.85,-0.45 1.05,-1.45 0.15,-0.95 -0.4,-1.7 l -0.3,-0.15 -1.1,-0.4 -0.5,0.1 -0.2,0.05 -0.15,0.1 7.4,-12.3 m 20.15,10.65 0.7,1 -0.05,0.05 -0.1,1.05 0.45,0.65 0.55,0.4 0.65,0.1 0.1,0.05 0.65,0.9 -2.6,1.55 -1.1,-2.5 q -1.45,-3.6 -3.9,-6.5 l -0.1,-0.05 -0.8,-6.8 1.25,-1.15 0.1,1.2 0.55,2.7 q 1.25,3.9 3.65,7.35 m -10.95,3.55 -0.5,0.1 -0.3,0.1 -0.5,0.45 -0.3,0.4 -0.1,0.2 v 0.65 q 0.55,2.35 2.9,1.25 l 0.25,-0.25 q 0.4,-0.45 0.4,-1.05 V 7.45 l -0.2,-0.4 -0.1,-0.2 -0.2,-0.25 -0.3,-0.15 -1.05,-0.4"
         fill="#9c9c9c"
         fill-rule="evenodd"
         stroke="none"
         id="path4" />
    </g>
    <g
       id="sprite1"
       transform="translate(17.4,15.85)">
      <use
         ffdec:characterId="31"
         height="57.200001"
         transform="matrix(0.5366,0,0,0.5366,-16.6582,-14.546)"
         width="70.75"
         xlink:href="#sprite2"
         id="use4" />
    </g>
    <g
       id="sprite2"
       transform="translate(-8.65,-10.35)">
      <use
         ffdec:characterId="30"
         height="57.200001"
         transform="translate(8.65,10.35)"
         width="70.75"
         xlink:href="#shape1"
         id="use5" />
    </g>
    <g
       id="shape1"
       transform="translate(-8.65,-10.35)">
      <path
         d="m 14.8,41.7 q 0.65,-1.75 2.65,-2.5 1.8,-0.8 3.7,-0.25 1.15,0.45 2.25,1.2 l 0.9,0.4 q 1.65,0.9 2.85,2.5 L 37.8,30.1 q 2.35,-2.8 3.75,-3.95 1.5,-1.15 4.25,-2.4 18.2,-8.85 27.65,-12.6 2.15,-0.8 3.25,-0.8 h 0.8 l 1.9,2.4 -0.2,0.8 q -0.2,1.1 -1.55,3 -5.85,8.25 -18.85,23.8 -1.85,2.35 -3.35,3.5 -1.4,1.15 -4.75,2.75 l -15.15,7.15 q 1.2,1.6 1.75,3.4 l 0.2,1 0.55,2.5 q 0.1,1.95 -1.1,3.55 -1.2,1.65 -3.05,1.9 l -1.3,0.05 q -1.65,0.2 -3.45,-0.65 -1.85,-0.9 -3,-2.6 L 25,60.95 23.8,62.1 q -2.6,2.85 -4.3,3.95 -2.85,1.8 -5.5,1.45 l -1.65,-0.5 -1.2,-0.7 -0.2,-0.2 q -1,-0.85 -1.6,-1.9 L 9.25,64 9.15,63.8 8.75,62.4 q -0.2,-0.8 -0.05,-1.7 0.25,-2.65 2.7,-5.05 1.5,-1.3 4.9,-3.15 L 17.7,51.55 16.05,50 q -1.35,-1.5 -1.8,-3.6 -0.4,-1.85 0.25,-3.45 l 0.3,-1.25"
         fill="#000000"
         fill-opacity="0.372549"
         fill-rule="evenodd"
         stroke="none"
         id="path5" />
    </g>
  </defs>
</svg>
