<?xml version="1.0" encoding="UTF-8" standalone="no"?>
<svg
   ffdec:objectType="frame"
   height="90.564285"
   width="95.886108"
   version="1.1"
   id="svg8"
   xmlns:xlink="http://www.w3.org/1999/xlink"
   xmlns="http://www.w3.org/2000/svg"
   xmlns:svg="http://www.w3.org/2000/svg"
   xmlns:ffdec="https://www.free-decompiler.com/flash">
  <g
     transform="translate(48.861111,47.7)"
     id="g1">
    <use
       ffdec:characterId="17"
       height="119.15"
       id="rarity"
       transform="translate(-58.5,-60.65)"
       width="119.15"
       xlink:href="#sprite0" />
    <use
       ffdec:characterId="704"
       height="90.650002"
       transform="translate(-48.85,-47.8)"
       width="95.849998"
       xlink:href="#shape0"
       id="use1" />
  </g>
  <defs
     id="defs8">
    <g
       id="shape0"
       transform="translate(48.45,47)">
      <path
         d="m -23.15,-0.35 -1.1,1.65 -0.65,1.05 0.3,-0.05 2.75,-0.95 -0.8,-1.15 -0.4,-0.65 -0.1,0.1 m 49,10.45 q -6.7,-1.3 -11.45,0.55 -1.8,0.7 -3.6,1.95 l 0.35,0.8 q 1.15,3.3 1.05,4.95 -0.1,2.3 -2,5.3 -2.7,4.35 -6.25,7.2 -4,3.2 -8.45,3.85 l -3.35,0.25 h -3.3 L -14.5,34.5 q -1.25,-0.6 -2.5,-3.05 l -0.85,-1.65 -0.3,0.2 q -1,0.55 -3.5,0.95 -2.7,0.5 -5.3,1.5 l -2.35,0.85 q -1.4,0.25 -2.3,-0.4 -0.65,-0.5 -1.35,-2.2 -4.85,-12.9 -12.8,-17.6 l -1.55,-0.95 q -0.8,-0.7 -1.05,-1.45 -0.5,-1.45 1.25,-3.8 5.85,-7.3 15.85,-11.2 3.3,-1.25 5.75,-1.45 l 2,0.25 0.65,-0.15 0.1,-0.05 v -0.1 q 2.35,0.4 3.5,2.55 l 1.15,2 0.1,0.15 q 2.1,-2.05 2.85,-4.7 l 0.65,-2.1 -1.1,-3.6 q -0.6,-2.95 -0.1,-4.85 0.45,-1.7 2.2,-3.9 6.6,-8.65 14.95,-12.65 2.7,-1.2 4.75,-1.6 l 6,0.15 q -0.25,-1.1 0,-2.6 0.55,-2.8 2.05,-5.15 2.7,-4.1 6.65,-4.8 l 4.75,0.15 2.7,0.5 q 3.35,1.1 4.95,4.75 0.8,1.85 0.95,4.1 v 1.6 0.2 0.1 l -0.1,0.9 q -0.2,1.7 -0.6,2.7 -0.5,1.25 -1.85,2.7 l -1.55,1.35 5,17.5 5.3,20.9 1.9,7.8 1.65,6 1.7,5.3 1.55,7.5 q 0.35,2.15 0,3.25 -0.5,1.65 -2.4,2.55 -1.35,0.65 -3.4,0.7 -2.3,0.1 -3.55,-0.5 Q 36.25,42.35 35.3,40.3 34.65,38.95 34.05,36.35 31.4,24.6 27.35,11.05 L 27.1,10.25 25.85,10.1 m -2.45,-18.65 -0.55,-2.6 -3.6,-15.1 -0.45,-0.95 -1.25,-0.65 -5.45,-1.3 q -3.05,-0.55 -5.45,0 -2,0.55 -4.55,2 -6.65,3.9 -11.2,10.15 -1,1.4 -1.15,2.35 -0.15,0.9 0.3,2.3 0.7,2.55 2.55,6.35 l 3.85,8.35 1.45,3.2 2.05,4.5 1.65,3.55 Q 2.7,12.9 4.1,11.4 L 6.5,8.95 q 3.65,-3.3 9.1,-4.4 L 25.75,4.25 24.9,-0.8 23.95,-5.65 23.4,-8.55 m 3.1,-32.7 -0.7,-0.2 -2.15,-0.2 -1.8,0.25 -1.75,0.85 -1.4,1.55 -0.55,0.85 -0.05,0.25 -0.25,1 -0.05,0.4 q -0.2,2.45 1.15,3.8 0.5,0.5 1.4,0.95 l 2.15,0.7 1.25,0.3 q 2.3,0.3 4.15,-1.2 1.75,-1.5 1.75,-3.9 l -0.05,-0.7 v -0.2 l -0.1,-0.55 -0.1,-0.45 -0.3,-1.2 q -0.6,-1.5 -2.3,-2.2 l -0.3,-0.1 m 2.45,26.75 -2.3,-8.95 -0.55,-2.4 -1.15,0.15 0.35,1.65 2.15,10 0.45,2.05 2.55,13.35 0.55,3.4 1.15,4.05 q 4.05,14.3 5.65,21.55 1.5,6.45 2.25,8.45 l 2.1,-0.2 Q 41.7,34.25 40.8,30.95 l -1.35,-4.3 Q 38.4,23.4 37.4,19.05 L 28.95,-14.5 m -41,43.15 0.45,0.45 1.6,0.35 3.6,-0.15 3.55,-0.75 Q 1.9,26.9 6,20.35 l 0.55,-0.9 -1.8,0.8 -2,0.7 -0.7,0.05 -1.1,0.45 h -0.3 q -1.25,0 -2.35,-1.25 L -2.95,17.8 -3,17.7 -4.85,13.3 -7.2,7.95 -9.25,3.5 l -2.5,-5.25 q -1,2.45 -2.95,4.55 -3.6,3.75 -8.7,4.65 l 2.1,3.95 1.4,2.6 2.85,5.3 2.3,4.3 2.4,4.55 0.3,0.5 m -18.25,-23 0.15,-0.95 0.45,-0.75 0.15,-0.4 q 0.15,-1.75 1.05,-3.3 -7.95,2.6 -13.6,8.9 1.35,0.75 2.6,1.8 1.8,1.45 3.5,3.45 l 2,2.7 1.15,1.75 3.15,5.7 1.25,2.6 q 4.5,-1.4 6.95,-1.8 l 1.3,-0.2 -1.45,-2.8 -3.9,-7.2 L -28.5,10 -29.2,8.8 q -1.1,-1.9 -1.1,-3.15"
         fill="#000000"
         fill-rule="evenodd"
         stroke="none"
         id="path1" />
      <path
         d="m -3.5,-3.6 q 0.4,0.5 0.95,0.7 l 0.9,0.05 q 0.85,-0.2 1.25,-1.35 l 0.15,-0.75 q 0,-0.6 -0.4,-1.05 L -1.6,-6.65 -2.75,-6.5 q -0.6,0.2 -0.9,0.7 -0.7,1.2 0.15,2.2 m 1.05,-8.55 1.3,-0.05 q 0.7,-0.3 1,-0.95 0.25,-0.6 0.05,-1.3 -0.2,-0.7 -0.8,-1.05 l -1.3,-0.25 q -0.75,0.15 -1.15,0.7 -0.55,0.7 -0.3,1.65 0.25,0.9 1.2,1.25 m -5.4,-2.9 -0.8,0.7 -0.15,1.05 q 0.1,0.5 0.55,0.8 0.45,0.35 0.95,0.3 0.5,-0.05 0.9,-0.4 0.4,-0.35 0.45,-0.85 0.15,-1.15 -1,-1.6 l -0.45,-0.05 -0.45,0.05 m 7.6,-7 -0.15,0.65 q -0.1,1.25 1,1.75 1.05,0.6 2,-0.2 1,-0.75 0.65,-1.95 -0.35,-1.2 -1.5,-1.35 -0.8,-0.15 -1.45,0.4 l -0.55,0.7 M -3.55,2.35 -7.4,-6 q -1.85,-3.8 -2.55,-6.35 -0.45,-1.4 -0.3,-2.3 0.15,-0.95 1.15,-2.35 4.55,-6.25 11.2,-10.15 2.55,-1.45 4.55,-2 2.4,-0.55 5.45,0 l 5.45,1.3 1.25,0.65 0.45,0.95 3.6,15.1 0.55,2.6 q -0.5,0.75 -1.5,1.2 -0.9,0.4 -2.6,0.75 -8.5,1.7 -16.15,5 Q 0.6,-0.5 -0.8,0.55 L -2.8,2 -3.55,2.35 M 6.05,-5.9 Q 6.75,-6.15 7.1,-6.85 7.45,-7.6 7.25,-8.3 L 6.6,-9.3 5.5,-9.8 q -1.4,-0.1 -2.05,1.15 -0.4,0.75 -0.05,1.6 0.3,0.8 1.15,1.2 l 1.5,-0.05 m -2.7,-9.85 q -0.85,0.8 -0.45,1.85 0.45,1.05 1.55,1.05 0.9,0 1.4,-0.75 l 0.25,-0.7 q 0.2,-1.15 -0.85,-1.65 -1,-0.6 -1.9,0.2 m 4.5,-1.9 q 0.9,0.9 2.1,0.4 1.2,-0.5 1.1,-1.8 -0.1,-1.25 -1.3,-1.7 l -1.55,0.2 q -0.65,0.4 -0.85,1.25 -0.15,1 0.5,1.65 m 6.65,-5.45 q -1.15,0 -1.65,1 -0.45,1.1 0.2,1.9 0.65,0.9 1.8,0.7 1.2,-0.25 1.45,-1.4 0.25,-1.2 -0.75,-1.85 L 14.5,-23.1 m 1.15,9.75 q -1.15,0 -1.85,0.95 -0.65,0.9 -0.25,2 0.25,0.65 0.9,1 0.6,0.4 1.3,0.35 1.25,0 1.95,-1.1 0.55,-1.1 -0.1,-2.2 -0.75,-1.1 -1.95,-1 m -6.2,-11 q 0.6,-0.35 0.8,-1.05 0.2,-0.75 -0.15,-1.4 l -1.05,-0.85 -1.4,0.05 q -1.15,0.5 -1.05,1.75 0.05,0.6 0.45,1.1 0.4,0.5 1,0.65 0.7,0.15 1.4,-0.25"
         fill="#344a67"
         fill-rule="evenodd"
         stroke="none"
         id="path2" />
      <path
         d="m -0.25,-22.05 0.55,-0.7 q 0.65,-0.55 1.45,-0.4 1.15,0.15 1.5,1.35 0.35,1.2 -0.65,1.95 -0.95,0.8 -2,0.2 -1.1,-0.5 -1,-1.75 l 0.15,-0.65 m -7.6,7 0.45,-0.05 0.45,0.05 q 1.15,0.45 1,1.6 -0.05,0.5 -0.45,0.85 -0.4,0.35 -0.9,0.4 -0.5,0.05 -0.95,-0.3 -0.45,-0.3 -0.55,-0.8 l 0.15,-1.05 0.8,-0.7 m 5.4,2.9 q -0.95,-0.35 -1.2,-1.25 -0.25,-0.95 0.3,-1.65 0.4,-0.55 1.15,-0.7 l 1.3,0.25 q 0.6,0.35 0.8,1.05 0.2,0.7 -0.05,1.3 -0.3,0.65 -1,0.95 l -1.3,0.05 M -3.5,-3.6 q -0.85,-1 -0.15,-2.2 0.3,-0.5 0.9,-0.7 L -1.6,-6.65 -0.65,-6 q 0.4,0.45 0.4,1.05 L -0.4,-4.2 q -0.4,1.15 -1.25,1.35 L -2.55,-2.9 Q -3.1,-3.1 -3.5,-3.6 m 27.45,-2.05 0.95,4.85 -1.05,0.1 -2,0.1 -2,0.1 Q 15.1,-0.05 10.5,2.4 6.75,4.35 2.45,7.9 l -2.5,2.15 -2.05,-4.5 Q -1,5.4 3.65,2.15 q 4.6,-3.3 12,-5.15 7.35,-1.9 8.3,-2.65 m 3.5,-8.4 q 0.4,-0.35 0.95,-0.4 l 0.55,-0.05 8.45,33.55 q 1,4.35 2.05,7.6 l 1.35,4.3 q 0.9,3.3 1.35,7.65 l -2.1,0.2 Q 39.3,36.8 37.8,30.35 36.2,23.1 32.15,8.8 L 31,4.75 30.45,1.35 27.9,-12 27.45,-14.05 m -18,-10.3 q -0.7,0.4 -1.4,0.25 -0.6,-0.15 -1,-0.65 -0.4,-0.5 -0.45,-1.1 -0.1,-1.25 1.05,-1.75 l 1.4,-0.05 1.05,0.85 q 0.35,0.65 0.15,1.4 -0.2,0.7 -0.8,1.05 m 6.2,11 q 1.2,-0.1 1.95,1 0.65,1.1 0.1,2.2 -0.7,1.1 -1.95,1.1 -0.7,0.05 -1.3,-0.35 -0.65,-0.35 -0.9,-1 -0.4,-1.1 0.25,-2 0.7,-0.95 1.85,-0.95 m -1.15,-9.75 1.05,0.35 q 1,0.65 0.75,1.85 -0.25,1.15 -1.45,1.4 -1.15,0.2 -1.8,-0.7 -0.65,-0.8 -0.2,-1.9 0.5,-1 1.65,-1 m -6.65,5.45 q -0.65,-0.65 -0.5,-1.65 0.2,-0.85 0.85,-1.25 l 1.55,-0.2 q 1.2,0.45 1.3,1.7 0.1,1.3 -1.1,1.8 -1.2,0.5 -2.1,-0.4 m -4.5,1.9 q 0.9,-0.8 1.9,-0.2 1.05,0.5 0.85,1.65 l -0.25,0.7 q -0.5,0.75 -1.4,0.75 -1.1,0 -1.55,-1.05 -0.4,-1.05 0.45,-1.85 m 2.7,9.85 -1.5,0.05 Q 3.7,-6.25 3.4,-7.05 3.05,-7.9 3.45,-8.65 4.1,-9.9 5.5,-9.8 l 1.1,0.5 0.65,1 q 0.2,0.7 -0.15,1.45 -0.35,0.7 -1.05,0.95 m -5.1,27.35 1.1,-0.45 0.7,-0.05 2,-0.7 1.8,-0.8 -0.55,0.9 q -4.1,6.55 -8.85,8.2 l -3.55,0.75 -3.6,0.15 -1.6,-0.35 -0.45,-0.45 q 3.45,-0.5 7.5,-2.95 3.35,-2 5.5,-4.25 m -15.7,2.15 -2.3,-4.3 q 3.9,-0.4 8.2,-2.95 L -5.9,14.2 -4.85,13.3 -3,17.7 q -3.25,3.2 -7.55,4.9 -2.3,0.85 -3.9,0.95 l -0.3,0.05 M -19.9,14 -21.3,11.4 -18,10.95 q 1,-0.3 2.8,-1.5 3.95,-2.65 5.95,-5.95 L -7.2,7.95 Q -7.6,8.1 -7.95,8.4 L -9.3,9.6 q -4.2,3.8 -9.7,4.25 L -19.9,14 m -19.6,-3.05 1.6,-1 5.4,-3.1 2.2,-1.2 q 0,1.25 1.1,3.15 l 0.7,1.2 -0.9,0.55 -4.55,2.35 -1.85,1.25 -0.2,0.25 q -1.7,-2 -3.5,-3.45 m 13.95,4.2 3.9,7.2 -3,0.4 q -2,0.2 -2.7,0.5 l -1.8,0.95 -0.55,0.35 -3.15,-5.7 0.45,-0.3 5.45,-2.65 1.4,-0.75"
         fill="#ffffff"
         fill-rule="evenodd"
         stroke="none"
         id="path3" />
      <path
         d="m 17.85,-36.9 0.25,-1 0.05,-0.25 0.55,-0.85 1.4,-1.55 1.75,-0.85 1.8,-0.25 2.15,0.2 0.7,0.2 0.15,1.75 -0.1,1 -0.75,1.45 L 25,-36 q -1.75,1.9 -4.25,1.65 -1.3,-0.15 -2,-0.8 -0.8,-0.7 -0.85,-1.55 l -0.05,-0.2"
         fill="#c1b692"
         fill-rule="evenodd"
         stroke="none"
         id="path4" />
      <path
         d="m 26.5,-41.25 0.3,0.1 q 1.7,0.7 2.3,2.2 l 0.3,1.2 0.1,0.45 0.1,0.55 v 0.2 l 0.05,0.7 q 0,2.4 -1.75,3.9 -1.85,1.5 -4.15,1.2 l -1.25,-0.3 -2.15,-0.7 q -0.9,-0.45 -1.4,-0.95 -1.35,-1.35 -1.15,-3.8 l 0.05,-0.4 0.05,0.2 q 0.05,0.85 0.85,1.55 0.7,0.65 2,0.8 2.5,0.25 4.25,-1.65 l 0.8,-1.05 0.75,-1.45 0.1,-1 -0.15,-1.75"
         fill="#948a68"
         fill-rule="evenodd"
         stroke="none"
         id="path5" />
      <path
         d="m -23.15,-0.35 0.1,-0.1 0.4,0.65 0.8,1.15 -2.75,0.95 -0.3,0.05 0.65,-1.05 1.1,-1.65 m 19.6,2.7 0.75,-0.35 2,-1.45 q 1.4,-1.05 3.95,-2.15 7.65,-3.3 16.15,-5 1.7,-0.35 2.6,-0.75 1,-0.45 1.5,-1.2 l 0.55,2.9 Q 23,-4.9 15.65,-3 8.25,-1.15 3.65,2.15 -1,5.4 -2.1,5.55 L -3.55,2.35 M 24.9,-0.8 25.75,4.25 15.6,4.55 q -5.45,1.1 -9.1,4.4 L 4.1,11.4 Q 2.7,12.9 1.6,13.6 L -0.05,10.05 2.45,7.9 q 4.3,-3.55 8.05,-5.5 4.6,-2.45 9.35,-2.9 l 2,-0.1 2,-0.1 1.05,-0.1 M 0.95,21.45 q -2.15,2.25 -5.5,4.25 -4.05,2.45 -7.5,2.95 l -0.3,-0.5 -2.4,-4.55 0.3,-0.05 q 1.6,-0.1 3.9,-0.95 4.3,-1.7 7.55,-4.9 l 0.05,0.1 1.25,2.4 q 1.1,1.25 2.35,1.25 h 0.3 M -17.05,19.3 -19.9,14 -19,13.85 Q -13.5,13.4 -9.3,9.6 L -7.95,8.4 Q -7.6,8.1 -7.2,7.95 l 2.35,5.35 -1.05,0.9 -2.95,2.15 q -4.3,2.55 -8.2,2.95 m -4.25,-7.9 -2.1,-3.95 q 5.1,-0.9 8.7,-4.65 1.95,-2.1 2.95,-4.55 l 2.5,5.25 q -2,3.3 -5.95,5.95 -1.8,1.2 -2.8,1.5 l -3.3,0.45 m -18.2,-0.45 q -1.25,-1.05 -2.6,-1.8 5.65,-6.3 13.6,-8.9 -0.9,1.55 -1.05,3.3 l -0.15,0.4 -0.45,0.75 -0.15,0.95 -2.2,1.2 -5.4,3.1 -1.6,1 m 11,-0.95 2.95,5.15 -1.4,0.75 -5.45,2.65 -0.45,0.3 -1.15,-1.75 -2,-2.7 0.2,-0.25 1.85,-1.25 4.55,-2.35 0.9,-0.55 m 6.85,12.35 1.45,2.8 -1.3,0.2 q -2.45,0.4 -6.95,1.8 l -1.25,-2.6 0.55,-0.35 1.8,-0.95 q 0.7,-0.3 2.7,-0.5 l 3,-0.4"
         fill="#ab5a5a"
         fill-rule="evenodd"
         stroke="none"
         id="path6" />
      <path
         d="m 27.45,-14.05 -2.15,-10 -0.35,-1.65 1.15,-0.15 0.55,2.4 2.3,8.95 -0.55,0.05 q -0.55,0.05 -0.95,0.4"
         fill="#b1b1b1"
         fill-rule="evenodd"
         stroke="none"
         id="path7" />
    </g>
    <g
       id="sprite1"
       transform="translate(17.4,15.85)">
      <use
         ffdec:characterId="31"
         height="57.200001"
         transform="matrix(0.5366,0,0,0.5366,-16.6582,-14.546)"
         width="70.75"
         xlink:href="#sprite2"
         id="use7" />
    </g>
    <g
       id="sprite2"
       transform="translate(-8.65,-10.35)">
      <use
         ffdec:characterId="30"
         height="57.200001"
         transform="translate(8.65,10.35)"
         width="70.75"
         xlink:href="#shape1"
         id="use8" />
    </g>
    <g
       id="shape1"
       transform="translate(-8.65,-10.35)">
      <path
         d="m 14.8,41.7 q 0.65,-1.75 2.65,-2.5 1.8,-0.8 3.7,-0.25 1.15,0.45 2.25,1.2 l 0.9,0.4 q 1.65,0.9 2.85,2.5 L 37.8,30.1 q 2.35,-2.8 3.75,-3.95 1.5,-1.15 4.25,-2.4 18.2,-8.85 27.65,-12.6 2.15,-0.8 3.25,-0.8 h 0.8 l 1.9,2.4 -0.2,0.8 q -0.2,1.1 -1.55,3 -5.85,8.25 -18.85,23.8 -1.85,2.35 -3.35,3.5 -1.4,1.15 -4.75,2.75 l -15.15,7.15 q 1.2,1.6 1.75,3.4 l 0.2,1 0.55,2.5 q 0.1,1.95 -1.1,3.55 -1.2,1.65 -3.05,1.9 l -1.3,0.05 q -1.65,0.2 -3.45,-0.65 -1.85,-0.9 -3,-2.6 L 25,60.95 23.8,62.1 q -2.6,2.85 -4.3,3.95 -2.85,1.8 -5.5,1.45 l -1.65,-0.5 -1.2,-0.7 -0.2,-0.2 q -1,-0.85 -1.6,-1.9 L 9.25,64 9.15,63.8 8.75,62.4 q -0.2,-0.8 -0.05,-1.7 0.25,-2.65 2.7,-5.05 1.5,-1.3 4.9,-3.15 L 17.7,51.55 16.05,50 q -1.35,-1.5 -1.8,-3.6 -0.4,-1.85 0.25,-3.45 l 0.3,-1.25"
         fill="#000000"
         fill-opacity="0.372549"
         fill-rule="evenodd"
         stroke="none"
         id="path8" />
    </g>
  </defs>
</svg>
