<?xml version="1.0" encoding="UTF-8" standalone="no"?>
<svg
   ffdec:objectType="frame"
   height="88.949997"
   width="72.029999"
   version="1.1"
   id="svg8"
   xmlns:xlink="http://www.w3.org/1999/xlink"
   xmlns="http://www.w3.org/2000/svg"
   xmlns:svg="http://www.w3.org/2000/svg"
   xmlns:ffdec="https://www.free-decompiler.com/flash">
  <g
     transform="translate(37.3,44.35)"
     id="g1">
    <use
       ffdec:characterId="17"
       height="119.15"
       id="rarity"
       transform="translate(-58.5,-60.65)"
       width="119.15"
       xlink:href="#sprite0" />
    <use
       ffdec:characterId="709"
       height="89.150002"
       transform="translate(-37.35,-44.55)"
       width="72.099998"
       xlink:href="#shape0"
       id="use1" />
  </g>
  <defs
     id="defs8">
    <g
       id="shape0"
       transform="translate(36.95,43.75)">
      <path
         d="m 15.75,-28.05 -0.3,0.25 -0.55,-0.1 -2.3,-0.15 q 0.15,-0.7 0.65,-1.65 l 1.25,-2.05 1.25,-1.8 2.45,-2.5 q 1.25,-1.05 3.15,-2.15 l 1.1,-0.4 q 0.7,-0.1 0.9,0.5 0.1,0.35 -0.2,0.95 l -0.9,1.85 -0.8,1.1 -0.95,1.2 -1.65,1.95 -1.2,1.2 -0.95,1.15 -0.95,0.65 m -48.05,48 q 0.05,-4.6 2.05,-12.05 0.75,-2.95 1.45,-4.6 1,-2.25 2.95,-5.05 4.4,-6.2 10.25,-11.2 l 2.95,-2.4 q 7.7,-5.8 16.7,-8.95 3.2,-1.1 3.25,-2.9 0,-0.8 -0.7,-1.65 l -1.45,-1.3 q -1.8,-1.5 -4.1,-4.75 -0.95,-1.25 -1.2,-2.1 -0.4,-1.45 0.45,-2.3 2.9,0.25 5.8,3.75 1.95,2.35 2.2,4.2 l 0.1,1.75 0.3,1.65 q 0.3,0.85 1.15,1.25 l 1.5,-0.1 q -0.35,0.6 0,1.4 0.25,0.7 0.95,1.15 0.45,0.35 1.3,0.65 l 1.45,0.5 q 1.1,0.55 2.2,1.65 l 1.85,2.2 5.3,7.45 1.7,3.15 q 1.35,2.6 2.15,5.1 1,3 1.85,8.6 l 0.25,1.65 q -0.4,3.8 -1.7,6.65 l -1.7,3 Q 25.2,18.9 23.55,20.1 21.3,21.85 18.85,21.75 17.5,21.7 16.4,21.05 L 15.65,20.5 15.9,19.45 v -1.8 l 0.15,-1.7 0.1,-0.3 q 0.5,0 0.85,0.3 l 0.2,0.25 0.05,0.05 q 0.4,0.25 1.1,0 2.2,-0.7 3.65,-3.05 1.15,-1.8 1.7,-4.5 0.85,-4.15 0.4,-8.3 -0.5,-4.25 -2.35,-7.85 -1.9,-3.65 -4.5,-4.85 L 17,-12.9 15.95,-14.6 13.8,-17.05 12.85,-18 q -1.65,-1.8 -2.8,-2.45 l -1.3,-0.4 q -0.85,0 -1.55,0.7 l -0.95,1.5 Q 5.6,-17.3 5.5,-16.6 l -0.1,1.5 -0.05,1.5 -0.3,1.4 -0.1,1.35 -0.1,0.45 -1.95,2.45 Q 1.1,-5.2 0.5,-2.6 -0.15,0.65 1,3.15 L 2.25,5.2 v 0.6 q 0.2,3 -0.2,5.45 l -0.7,3.45 q -0.4,1.95 -0.5,5.25 l -0.1,2.2 0.1,3.85 -0.5,0.6 -1.4,1.35 q -1.35,1.1 -2.55,1.5 l -2.5,0.3 V 29.7 l 0.15,-1.5 0.25,-3.05 v -0.9 l -0.1,-1.7 q -0.15,-1.1 -0.75,-1.2 -0.4,-0.15 -0.7,0.25 -0.85,-0.6 -1.9,-0.35 -1,0.3 -1.55,1.3 l -0.5,0.15 -0.8,0.85 q -0.5,1 -0.6,1.95 l -0.15,1.2 -0.25,1.2 -0.05,0.45 -0.25,1.5 q -0.25,2.05 0.15,3.15 l -0.55,0.3 q -1.8,0.9 -4.1,0.9 -3.6,0.05 -6.75,-1.75 -3.25,-1.85 -5,-4.9 -0.95,-1.6 -1.9,-4.55 L -32.3,19.95 M -7.35,-15.8 q 0.05,0.9 0.9,1.35 1,0.45 2.45,-0.5 l 1.85,-1.3 q 1.1,-0.8 1.95,-1.1 l 1.15,-0.35 q 0.7,-0.25 1.1,-0.55 0.55,-0.35 0.75,-1 0.2,-0.65 -0.15,-1.1 l -2.35,-0.1 -2.2,1 q -1.35,0.65 -2.25,0.95 l -2.1,0.85 q -1.15,0.75 -1.1,1.85 m -0.35,5.5 -0.35,-0.95 -1.1,-0.75 -1.65,0.2 -0.3,0.1 q 0.1,-0.6 -0.3,-0.85 l -1.3,0.1 -2,1.05 q -2.3,1.35 -4.2,3.25 -2.75,2.75 -4.25,6.15 -0.4,0.95 -0.3,1.6 l 0.25,0.85 0.6,0.65 q 1.2,1 2.8,0.85 0.85,-0.15 2.6,-1.1 -0.85,2.85 -0.85,4.25 0,1.65 0.8,2.75 0.8,1.35 2.35,1.4 1.65,0 3.15,-2 1.8,-2.5 2.9,-7.3 l 0.9,-3.9 1.2,-3.75 q 0.55,-1.25 0.3,-1.9 l -0.8,-0.65 -0.45,-0.05 m -0.1,-2.9 q 0.4,-0.7 0.1,-1.4 -0.3,-0.75 -1.05,-0.95 l -1.25,0.05 -0.85,0.9 q -0.25,0.6 0.05,1.3 l 0.8,0.9 q 0.65,0.25 1.3,0 0.65,-0.25 0.9,-0.8 M -24.25,4.65 Q -24.3,4 -24.85,3.75 h -0.1 Q -25.8,3.4 -26.9,4.4 l -1.3,1.4 -0.75,1.4 q -0.2,0.9 0.15,1.6 0.45,0.8 1.2,0.95 l 0.15,0.05 q 0.85,0.05 1.4,-0.45 0.6,-0.5 0.95,-1.75 l 0.7,-2.1 0.15,-0.85"
         fill="#1c1c1c"
         fill-rule="evenodd"
         stroke="none"
         id="path1" />
      <path
         d="m 15.75,-28.05 0.95,-0.65 0.95,-1.15 1.2,-1.2 1.65,-1.95 0.95,-1.2 0.8,-1.1 0.9,-1.85 q 0.3,-0.6 0.2,-0.95 -0.2,-0.6 -0.9,-0.5 l -1.1,0.4 q -1.9,1.1 -3.15,2.15 l -2.45,2.5 -1.25,1.8 -1.25,2.05 q -0.5,0.95 -0.65,1.65 l 2.3,0.15 0.55,0.1 0.3,-0.25 m 19.3,45.95 q -0.5,7.6 -4.75,14.1 -4.25,6.65 -11,9.7 -3.05,1.4 -7.15,2.25 l -7.5,1.05 -5.2,0.4 -5.15,-0.45 -2,-0.5 -2,-0.45 -3.85,-0.35 -5.25,-1.1 q -4.8,-1.3 -7.1,-2.6 -2.85,-1.7 -6.25,-5.7 -2.95,-3.5 -3.8,-6.05 -0.5,-1.5 -0.8,-4.55 L -36.9,18.1 q 0.15,-2.5 1.35,-8 1.4,-5.95 2.65,-8.7 0.8,-1.85 2.55,-4.5 5.65,-8.55 13.75,-15.05 8.15,-6.45 17.75,-10 l -3.35,-4.2 q -2.2,-2.55 -2.4,-4.6 -0.3,-1.9 0.95,-4.05 1.1,-2 2.65,-2.55 l 3.4,0.25 q 5.2,1.8 9.25,8.5 2.5,-3.65 6.3,-5.7 2.3,-1.25 4.15,-1.25 l 2.15,0.55 q 1,0.6 1.5,1.55 1.1,2.2 -1.05,5.55 -2.15,3.45 -6.4,7.6 5.55,5.2 9.4,11.4 4,6.55 5.65,13.55 1.05,4.25 1.6,11.7 0.3,5.15 0.1,7.75 M 30.35,6.7 30.1,5.05 q -0.85,-5.6 -1.85,-8.6 -0.8,-2.5 -2.15,-5.1 l -1.7,-3.15 -5.3,-7.45 -1.85,-2.2 q -1.1,-1.1 -2.2,-1.65 l -1.45,-0.5 q -0.85,-0.3 -1.3,-0.65 -0.7,-0.45 -0.95,-1.15 -0.35,-0.8 0,-1.4 l -1.5,0.1 Q 9,-27.1 8.7,-27.95 L 8.4,-29.6 8.3,-31.35 q -0.25,-1.85 -2.2,-4.2 -2.9,-3.5 -5.8,-3.75 -0.85,0.85 -0.45,2.3 0.25,0.85 1.2,2.1 2.3,3.25 4.1,4.75 l 1.45,1.3 q 0.7,0.85 0.7,1.65 -0.05,1.8 -3.25,2.9 -9,3.15 -16.7,8.95 l -2.95,2.4 q -5.85,5 -10.25,11.2 -1.95,2.8 -2.95,5.05 -0.7,1.65 -1.45,4.6 -2,7.45 -2.05,12.05 v 0.4 q 0.15,7.3 4,11.7 2.1,2.45 5.6,4.15 l 4.45,1.75 q 3.15,1.05 5.15,1.3 l 4.5,0.4 2.55,0.6 2.5,0.55 Q -1,41.25 3,40.85 l 7.55,-1.1 5.75,-1.5 q 3,-1.05 5.15,-2.65 1.95,-1.5 4.05,-4.15 2.3,-2.95 3.35,-5.3 Q 30.95,21.8 31,15.85 31.1,12.2 30.35,6.7 M -13.15,33 q -0.4,-1.1 -0.15,-3.15 l 0.25,-1.5 0.05,-0.45 0.25,-1.2 0.15,-1.2 q 0.1,-0.95 0.6,-1.95 l 0.8,-0.85 0.5,-0.15 0.6,0.25 q 0.35,0.4 0.1,1.3 l -0.4,2.3 v 1.25 l -0.3,1.15 -0.1,1.65 -0.2,1.15 q 0,1.05 1.05,1.85 l 1.2,-2.1 0.2,-0.65 0.35,-0.95 0.05,-1 0.05,-0.05 0.2,-0.85 v -0.9 l 0.2,-0.9 0.1,-1.25 v -0.25 l -0.05,-1.85 0.3,-0.95 0.1,-0.15 q 0.3,-0.4 0.7,-0.25 0.6,0.1 0.75,1.2 l 0.1,1.7 v 0.9 l -0.25,3.05 -0.15,1.5 v 0.05 l -0.3,1.95 q -0.3,0.85 -0.95,1.95 l -0.5,0.9 -0.5,0.75 q -0.6,0.6 -1.4,0.6 -0.7,0.05 -1.3,-0.3 l -0.9,-0.8 -1.15,-1.6 -0.05,-0.2 m 14,-7 -0.1,-3.85 0.1,-2.2 q 0.1,-3.3 0.5,-5.25 l 0.7,-3.45 Q 2.45,8.8 2.25,5.8 V 5.2 L 1,3.15 Q -0.15,0.65 0.5,-2.6 1.1,-5.2 2.9,-7.95 l 1.95,-2.45 0.1,-0.45 0.1,-1.35 0.3,-1.4 0.05,-1.5 0.1,-1.5 q 0.1,-0.7 0.75,-2.05 l 0.95,-1.5 q 0.7,-0.7 1.55,-0.7 l 1.3,0.4 q 1.15,0.65 2.8,2.45 l 0.95,0.95 2.15,2.45 1.05,1.7 0.25,0.6 q 2.6,1.2 4.5,4.85 1.85,3.6 2.35,7.85 0.45,4.15 -0.4,8.3 -0.55,2.7 -1.7,4.5 -1.45,2.35 -3.65,3.05 -0.7,0.25 -1.1,0 L 17.2,16.2 17,15.95 q -0.15,-0.35 0.15,-0.8 l 0.8,-0.85 q 1.65,-1.35 2.3,-3.95 0.45,-1.5 0.65,-4.55 -1.8,2.45 -4.95,3.7 l -1.9,0.55 -4.4,0.2 L 8,9.95 6.25,9.3 5.15,8.55 4.75,8.15 V 8.8 L 4.65,11 4.3,13.1 4,15.95 q -0.25,4.65 0.1,8.5 0.2,3.25 1.35,4.85 1.8,-3.65 1.75,-7.55 l 0.1,-2 0.3,-0.85 0.55,-0.6 0.2,-0.15 1,-0.15 q 0.55,0.05 0.8,0.45 l 0.25,1.1 0.05,0.7 0.3,0.6 q 0.5,0.6 1,0.6 l 0.55,-0.25 0.4,-0.85 0.4,-2.05 v -1.45 l 0.3,-2.4 0.2,-1.2 0.15,-1 q 0.2,-0.6 0.9,-0.8 0.65,-0.15 1.1,0.25 0.45,0.4 0.55,1.1 v 1.45 l -0.15,1.4 -0.1,0.3 -0.15,1.7 v 1.8 l -0.25,1.05 -0.05,0.3 -0.2,1 -0.95,1.75 -0.8,0.7 Q 13.1,24.6 12.2,24.65 L 10.6,24.6 10.2,24.4 Q 9.8,26.9 9,29.35 8.2,31.5 7.25,32.3 6.35,33 5.1,33 3.85,33 3,32.2 2.35,31.65 1.9,30.55 1.1,28.8 0.9,26.45 L 0.85,26 m 12.3,-39 h 0.6 l -0.3,-0.3 -2.55,-2.4 -1.55,-1.4 -0.2,-0.1 -0.15,0.15 q -0.45,0.85 -0.45,1.65 l 0.1,1.45 -0.15,1.15 -0.05,0.45 4.7,-0.65 M 13.1,-8.95 10.4,-8.7 Q 8.6,-8.3 7.6,-7.4 L 6.7,-6.15 5.2,-3.6 q -0.65,1.4 -0.75,2.2 -0.1,0.65 0.05,1.35 l 0.4,1.4 Q 5.4,2.4 6.45,3.7 L 7.6,5 Q 8.45,5.7 10,5.95 13.35,6.55 16.15,4.8 L 17.2,4 18,2.85 q 0.7,-1.4 1.3,-4.6 L 19.45,-3.55 18.8,-5.2 Q 17.75,-7.05 16.55,-8.1 L 15.45,-8.85 14.4,-9 13.1,-8.95 m -1.1,7.6 -0.2,-1 q 0,-0.85 0.5,-1.8 0.5,-0.85 1.35,-1.35 l 1.2,-0.4 h 0.6 q 1.15,0.3 1.75,1.25 0.55,0.95 0.45,2.15 -0.05,1.35 -0.85,2.25 -0.6,0.6 -1.5,0.8 L 13.6,0.35 Q 12.8,0 12.3,-0.75 L 12,-1.35 m -23.1,-10.35 -0.05,0.2 q -0.2,0.45 -0.75,0.9 l -2.6,1.65 q -4,2.55 -5.85,6.9 -0.35,0.8 -0.15,1.25 0.65,-0.1 2.15,-0.85 2.15,-1.2 3,-2.1 l 1.15,-1 0.3,-0.05 0.9,0.2 h 0.05 q 0.65,0.35 0.7,1 0.05,0.65 -0.7,1.95 L -14.5,2.1 q -0.9,2.85 -0.15,4.1 0.8,-0.2 1.5,-1.25 1.45,-2.25 2.35,-7 l 1.35,-5.65 0.1,-0.2 0.55,-1.4 0.55,-0.75 0.55,-0.25 0.45,0.05 0.8,0.65 q 0.25,0.65 -0.3,1.9 l -1.2,3.75 -0.9,3.9 q -1.1,4.8 -2.9,7.3 -1.5,2 -3.15,2 -1.55,-0.05 -2.35,-1.4 -0.8,-1.1 -0.8,-2.75 0,-1.4 0.85,-4.25 -1.75,0.95 -2.6,1.1 -1.6,0.15 -2.8,-0.85 l -0.6,-0.65 -0.25,-0.85 q -0.1,-0.65 0.3,-1.6 1.5,-3.4 4.25,-6.15 1.9,-1.9 4.2,-3.25 l 2,-1.05 1.3,-0.1 q 0.4,0.25 0.3,0.85"
         fill="#000000"
         fill-rule="evenodd"
         stroke="none"
         id="path2" />
      <path
         d="m 17,15.95 q -0.35,-0.3 -0.85,-0.3 l 0.15,-1.4 V 12.8 q -0.1,-0.7 -0.55,-1.1 -0.45,-0.4 -1.1,-0.25 l -0.5,-1.25 -0.1,-0.15 1.9,-0.55 q 3.15,-1.25 4.95,-3.7 -0.2,3.05 -0.65,4.55 -0.65,2.6 -2.3,3.95 l -0.8,0.85 Q 16.85,15.6 17,15.95 M 13.15,-13 l -4.7,0.65 0.05,-0.45 0.15,-1.15 -0.1,-1.45 q 0,-0.8 0.45,-1.65 l 0.15,-0.15 0.2,0.1 1.55,1.4 2.55,2.4 0.3,0.3 h -0.6"
         fill="#ba8a8a"
         fill-rule="evenodd"
         stroke="none"
         id="path3" />
      <path
         d="m -7.35,-15.8 q -0.05,-1.1 1.1,-1.85 l 2.1,-0.85 q 0.9,-0.3 2.25,-0.95 l 2.2,-1 2.35,0.1 q 0.35,0.45 0.15,1.1 -0.2,0.65 -0.75,1 -0.4,0.3 -1.1,0.55 l -1.15,0.35 q -0.85,0.3 -1.95,1.1 l -1.85,1.3 q -1.45,0.95 -2.45,0.5 -0.85,-0.45 -0.9,-1.35 M 4.5,-0.05 Q 4.35,-0.75 4.45,-1.4 4.55,-2.2 5.2,-3.6 L 6.7,-6.15 7.6,-7.4 q 1,-0.9 2.8,-1.3 l 2.7,-0.25 0.4,0.2 q 0.85,0.55 1.2,1.45 l 0.15,1.4 -1.2,0.4 q -0.85,0.5 -1.35,1.35 -0.5,0.95 -0.5,1.8 l 0.2,1 -0.25,0.2 -2.6,1.4 Q 7.6,0.85 6.25,0.7 5.15,0.55 4.5,-0.05 M 18.6,24.9 q 0.6,-0.05 1.15,0.4 0.55,0.45 0.6,1.05 l -0.1,0.75 -0.45,1.1 -0.95,1.4 -1.8,0.1 q -1,-0.45 -0.9,-1.55 0,-0.65 0.45,-1.45 l 0.8,-1.15 Q 17.95,25 18.6,24.9 M -7.8,-13.2 q -0.25,0.55 -0.9,0.8 -0.65,0.25 -1.3,0 l -0.8,-0.9 q -0.3,-0.7 -0.05,-1.3 l 0.85,-0.9 1.25,-0.05 q 0.75,0.2 1.05,0.95 0.3,0.7 -0.1,1.4 M -24.25,4.65 -24.4,5.5 -25.1,7.6 q -0.35,1.25 -0.95,1.75 -0.55,0.5 -1.4,0.45 L -27.6,9.75 Q -28.35,9.6 -28.8,8.8 -29.15,8.1 -28.95,7.2 l 0.75,-1.4 1.3,-1.4 q 1.1,-1 1.95,-0.65 h 0.1 q 0.55,0.25 0.6,0.9"
         fill="#ffffff"
         fill-rule="evenodd"
         stroke="none"
         id="path4" />
      <path
         d="M 4.5,-0.05 Q 5.15,0.55 6.25,0.7 7.6,0.85 9.15,0.25 l 2.6,-1.4 0.25,-0.2 0.3,0.6 q 0.5,0.75 1.3,1.1 l 1.7,0.2 q 0.9,-0.2 1.5,-0.8 0.8,-0.9 0.85,-2.25 0.1,-1.2 -0.45,-2.15 -0.6,-0.95 -1.75,-1.25 h -0.6 L 14.7,-7.3 q -0.35,-0.9 -1.2,-1.45 l -0.4,-0.2 1.3,-0.05 1.05,0.15 1.1,0.75 q 1.2,1.05 2.25,2.9 l 0.65,1.65 -0.15,1.8 Q 18.7,1.45 18,2.85 L 17.2,4 16.15,4.8 Q 13.35,6.55 10,5.95 8.45,5.7 7.6,5 L 6.45,3.7 Q 5.4,2.4 4.9,1.35 l -0.4,-1.4"
         fill="#dfcdcd"
         fill-rule="evenodd"
         stroke="none"
         id="path5" />
      <path
         d="m -10.7,22.55 q 0.55,-1 1.55,-1.3 1.05,-0.25 1.9,0.35 l -0.1,0.15 -0.3,0.95 0.05,1.85 v 0.25 l -0.1,1.25 -0.2,0.9 v 0.9 l -0.2,0.85 -0.05,0.05 -0.05,1 -0.35,0.95 -0.2,0.65 -1.2,2.1 Q -11,32.65 -11,31.6 l 0.2,-1.15 0.1,-1.65 0.3,-1.15 V 26.4 l 0.4,-2.3 q 0.25,-0.9 -0.1,-1.3 l -0.6,-0.25 m 24.75,-12.5 0.1,0.15 0.5,1.25 q -0.7,0.2 -0.9,0.8 l -0.15,1 -0.2,1.2 -0.3,2.4 v 1.45 l -0.4,2.05 -0.4,0.85 -0.55,0.25 q -0.5,0 -1,-0.6 l -0.3,-0.6 -0.05,-0.7 -0.25,-1.1 Q 9.9,18.05 9.35,18 l -1,0.15 -0.2,0.15 -0.55,0.6 -0.3,0.85 -0.1,2 Q 7.25,25.65 5.45,29.3 4.3,27.7 4.1,24.45 3.75,20.6 4,15.95 L 4.3,13.1 4.65,11 4.75,8.8 V 8.15 l 0.4,0.4 1.1,0.75 1.75,0.65 1.65,0.3 4.4,-0.2 M -7.7,-10.3 l -0.55,0.25 -0.55,0.75 -0.55,1.4 -0.1,0.2 -1.35,5.65 q -0.9,4.75 -2.35,7 -0.7,1.05 -1.5,1.25 -0.75,-1.25 0.15,-4.1 l 1.55,-3.75 q 0.75,-1.3 0.7,-1.95 -0.05,-0.65 -0.7,-1 H -13 l -0.9,-0.2 -0.3,0.05 -1.15,1 q -0.85,0.9 -3,2.1 -1.5,0.75 -2.15,0.85 -0.2,-0.45 0.15,-1.25 1.85,-4.35 5.85,-6.9 l 2.6,-1.65 q 0.55,-0.45 0.75,-0.9 l 0.05,-0.2 0.3,-0.1 1.65,-0.2 1.1,0.75 0.35,0.95"
         fill="#873535"
         fill-rule="evenodd"
         stroke="none"
         id="path6" />
      <path
         d="m -32.3,19.95 0.85,3.05 q 0.95,2.95 1.9,4.55 1.75,3.05 5,4.9 3.15,1.8 6.75,1.75 2.3,0 4.1,-0.9 l 0.55,-0.3 0.05,0.2 1.15,1.6 0.9,0.8 q 0.6,0.35 1.3,0.3 0.8,0 1.4,-0.6 l 0.5,-0.75 0.5,-0.9 q 0.65,-1.1 0.95,-1.95 l 0.3,-1.95 2.5,-0.3 q 1.2,-0.4 2.55,-1.5 L 0.35,26.6 0.85,26 0.9,26.45 q 0.2,2.35 1,4.1 Q 2.35,31.65 3,32.2 3.85,33 5.1,33 6.35,33 7.25,32.3 8.2,31.5 9,29.35 9.8,26.9 10.2,24.4 l 0.4,0.2 1.6,0.05 q 0.9,-0.05 1.45,-0.4 l 0.8,-0.7 0.95,-1.75 0.2,-1 0.05,-0.3 0.75,0.55 q 1.1,0.65 2.45,0.7 2.45,0.1 4.7,-1.65 1.65,-1.2 3.4,-3.75 l 1.7,-3 q 1.3,-2.85 1.7,-6.65 0.75,5.5 0.65,9.15 -0.05,5.95 -2.15,10.3 -1.05,2.35 -3.35,5.3 -2.1,2.65 -4.05,4.15 -2.15,1.6 -5.15,2.65 l -5.75,1.5 -7.55,1.1 q -4,0.4 -6.55,-0.05 l -2.5,-0.55 -2.55,-0.6 -4.5,-0.4 q -2,-0.25 -5.15,-1.3 L -22.7,36.2 q -3.5,-1.7 -5.6,-4.15 -3.85,-4.4 -4,-11.7 v -0.4 m 50.9,4.95 q -0.65,0.1 -1.2,0.65 l -0.8,1.15 q -0.45,0.8 -0.45,1.45 -0.1,1.1 0.9,1.55 l 1.8,-0.1 0.95,-1.4 0.45,-1.1 0.1,-0.75 Q 20.3,25.75 19.75,25.3 19.2,24.85 18.6,24.9"
         fill="#0f0f0f"
         fill-rule="evenodd"
         stroke="none"
         id="path7" />
    </g>
    <g
       id="sprite1"
       transform="translate(17.4,15.85)">
      <use
         ffdec:characterId="31"
         height="57.200001"
         transform="matrix(0.5366,0,0,0.5366,-16.6582,-14.546)"
         width="70.75"
         xlink:href="#sprite2"
         id="use7" />
    </g>
    <g
       id="sprite2"
       transform="translate(-8.65,-10.35)">
      <use
         ffdec:characterId="30"
         height="57.200001"
         transform="translate(8.65,10.35)"
         width="70.75"
         xlink:href="#shape1"
         id="use8" />
    </g>
    <g
       id="shape1"
       transform="translate(-8.65,-10.35)">
      <path
         d="m 14.8,41.7 q 0.65,-1.75 2.65,-2.5 1.8,-0.8 3.7,-0.25 1.15,0.45 2.25,1.2 l 0.9,0.4 q 1.65,0.9 2.85,2.5 L 37.8,30.1 q 2.35,-2.8 3.75,-3.95 1.5,-1.15 4.25,-2.4 18.2,-8.85 27.65,-12.6 2.15,-0.8 3.25,-0.8 h 0.8 l 1.9,2.4 -0.2,0.8 q -0.2,1.1 -1.55,3 -5.85,8.25 -18.85,23.8 -1.85,2.35 -3.35,3.5 -1.4,1.15 -4.75,2.75 l -15.15,7.15 q 1.2,1.6 1.75,3.4 l 0.2,1 0.55,2.5 q 0.1,1.95 -1.1,3.55 -1.2,1.65 -3.05,1.9 l -1.3,0.05 q -1.65,0.2 -3.45,-0.65 -1.85,-0.9 -3,-2.6 L 25,60.95 23.8,62.1 q -2.6,2.85 -4.3,3.95 -2.85,1.8 -5.5,1.45 l -1.65,-0.5 -1.2,-0.7 -0.2,-0.2 q -1,-0.85 -1.6,-1.9 L 9.25,64 9.15,63.8 8.75,62.4 q -0.2,-0.8 -0.05,-1.7 0.25,-2.65 2.7,-5.05 1.5,-1.3 4.9,-3.15 L 17.7,51.55 16.05,50 q -1.35,-1.5 -1.8,-3.6 -0.4,-1.85 0.25,-3.45 l 0.3,-1.25"
         fill="#000000"
         fill-opacity="0.372549"
         fill-rule="evenodd"
         stroke="none"
         id="path8" />
    </g>
  </defs>
</svg>
