<?xml version="1.0" encoding="UTF-8" standalone="no"?>
<svg
   ffdec:objectType="frame"
   height="70.349998"
   width="86.026039"
   version="1.1"
   id="svg7"
   xmlns:xlink="http://www.w3.org/1999/xlink"
   xmlns="http://www.w3.org/2000/svg"
   xmlns:svg="http://www.w3.org/2000/svg"
   xmlns:ffdec="https://www.free-decompiler.com/flash">
  <g
     transform="translate(42.659091,29.35)"
     id="g1">
    <use
       ffdec:characterId="17"
       height="119.15"
       id="rarity"
       transform="translate(-58.5,-60.65)"
       width="119.15"
       xlink:href="#sprite0" />
    <use
       ffdec:characterId="695"
       height="70.5"
       transform="translate(-42.65,-29.5)"
       width="86"
       xlink:href="#shape0"
       id="use1" />
  </g>
  <defs
     id="defs7">
    <g
       id="shape0"
       transform="translate(42.25,28.7)">
      <path
         d="m -15.8,-22.25 q 0.9,-1.8 3.3,-2.9 1.35,-0.55 4.35,-1.15 l 7.7,-1.8 11.8,-0.45 5,0.6 q 1.9,0.4 2.85,1.05 1.35,1 2.1,3.65 l 0.35,1.25 6.15,-0.3 q 4.85,-0.1 7.35,0.8 3,1.1 5.7,4.1 2.1,2.35 2.7,4.8 0.8,3.45 -1.35,7.35 -0.55,2.2 -2,5.5 l -3,6.7 q -1.8,3.65 -3.65,6.3 l -1.9,2.55 q 0.7,4.9 -0.95,11.45 -1.35,5.25 -3.4,8.35 -2.9,4.3 -7,5.6 l -4.25,0.6 q -6.2,0 -9.8,-3.05 Q 4.4,37.2 3.35,34.9 2.65,33.25 2.45,31.55 l -4.7,-0.15 -8.05,-1.1 v 5.3 l -0.2,1.75 q -0.5,1.25 -2.15,1.8 l -2.9,0.25 -3.1,-0.05 -2.15,-0.3 q -1.2,-0.45 -2,-1.95 l -0.9,-2.7 -0.35,-1.85 0.1,-4.7 0.05,-1.35 q -2.55,-1.35 -5.35,-3.4 -8.85,-6.3 -11.45,-12.9 -1.35,-3.5 -1.55,-8.2 -0.1,-3 0.9,-7.45 1,-4.35 1.55,-5.3 h 0.05 l 1.75,-1.9 q 2.25,-1.95 7.75,-3.75 l 8.7,-2.35 5.2,-0.9 q 0.1,-1.7 0.55,-2.6 m 16.6,-0.35 -7.2,1.85 -2.45,0.95 q -1.55,0.8 -1.5,1.95 l 4.6,0.85 3.45,0.3 7.65,-0.05 q 2.4,-0.25 6.7,-2.25 2.1,-0.95 2.9,-1.65 1.05,-0.95 0.8,-1.75 l -2.5,-0.45 -2.65,0.05 -3.05,-0.45 -2.8,0.15 -3.95,0.5 m -11.15,11.95 0.1,0.95 0.75,0.55 q 2.4,1.1 4.4,1.5 l 3.75,0.35 Q 2.5,-7 4.8,-7.35 6.7,-7.6 9.05,-8.45 l 4.05,-1.75 1.85,-1.2 q 0.6,-0.7 0.9,-2.35 l 0.1,-0.95 -3.45,1.5 -3.9,1.45 -4.65,0.55 q -5.2,0.25 -9.7,-0.25 l -4.7,-0.75 0.1,1.55 m 48.15,-1.3 -0.7,-1.25 q -1.8,-2.3 -5.15,-3.1 l -0.8,-0.15 -6.9,0.25 -2.2,0.35 -0.8,3.85 -1.05,3.05 q -0.9,1.65 -2.9,2.95 -1.25,0.85 -3.8,1.95 l -5.1,1.9 Q 5.5,-1.4 0.7,-1.4 l -8.3,-0.8 -4.95,-1.7 q -2.15,-0.95 -2.8,-1.85 -0.7,-1 -0.8,-3.45 l -0.1,-5.45 -12.45,3.95 q -2.65,0.85 -4.15,1.8 -2.15,1.3 -2.75,3.2 -0.45,1.5 0.1,3.15 l 0.05,0.05 q 0.45,1.55 1.65,2.75 1.7,1.75 5.55,3.3 10.7,4.3 22.2,5.35 13.4,1.25 23.9,-2.35 5.9,-2.05 10.75,-5.6 5.1,-3.7 8.3,-8.65 1.2,-1.9 1.15,-3.1 l -0.25,-1.15 m -6.3,2.8 q -0.35,-0.5 -0.4,-1 l -0.05,-0.9 0.1,-0.65 v -0.05 l 0.1,-0.3 0.8,-0.95 q 1.45,-1 2.8,-0.4 0.8,0.35 1.15,1.25 0.4,0.85 0.2,1.75 -0.15,0.75 -0.7,1.35 l -1.3,0.8 q -0.7,0.25 -1.5,0 -0.8,-0.25 -1.2,-0.9 m -64.15,2.75 q 0.65,-0.5 1.35,-0.55 1.6,-0.15 2.55,1.05 l 0.15,0.2 0.3,0.55 q 0.35,0.95 -0.1,2 -0.65,1.5 -2.25,1.65 -0.85,0.1 -1.7,-0.35 -0.8,-0.5 -1.15,-1.35 -0.35,-0.85 -0.1,-1.75 0.25,-0.9 0.95,-1.45 M 2.2,15.15 q -12.25,0.4 -27.3,-3.75 -6.35,-1.8 -9.7,-3.85 l -0.75,-0.45 0.65,1.5 q 1.65,3.3 5.85,6.95 5.15,4.4 10.1,6.4 3.05,1.2 9.85,2.45 l 5.7,0.95 5.75,0.3 L 7.15,25 7.35,22.65 8.1,16.3 Q 7.85,15.75 7.75,14.75 l -5.55,0.4 m -21.6,13.6 q 0.05,3 0.55,4.4 l 0.3,0.5 0.45,0.05 2.55,-0.05 V 29.8 29.35 L -19.4,28.4 v 0.35 m 33.7,-0.1 Q 10.5,30.3 7.15,31 q 0.65,2.2 2.55,3.4 1.3,0.9 4,1.45 l 2.5,0.3 q 2,-0.05 3.9,-1.3 1.7,-1.15 2.85,-3 1.7,-2.7 2.65,-7.85 L 26,21.55 q -5.05,4.15 -11.7,7.1 M 28.55,7.85 Q 21.4,12.2 12.7,13.95 v 0.1 l 0.15,2.05 -1,6.15 -0.3,1.45 q 3.55,-1.35 7.2,-3.6 4.75,-3 7.85,-6.45 0.35,-0.75 0.95,-1.1 1.65,-2.15 3.3,-5 l 1,-1.85 -3.3,2.15 M 1.15,21.2 Q 0.75,20.4 0.9,19.55 1,19.1 1.25,18.75 q 0.3,-0.55 1,-0.8 l 2.2,0.1 0.9,0.85 q 0.7,1.1 -0.05,2.3 -0.65,1.15 -2,1.15 -1.4,0.1 -2.15,-1.15"
         fill="#000000"
         fill-rule="evenodd"
         stroke="none"
         id="path1" />
      <path
         d="m 0.8,-22.6 3.95,-0.5 2.8,-0.15 3.05,0.45 2.65,-0.05 2.5,0.45 q 0.25,0.8 -0.8,1.75 -0.8,0.7 -2.9,1.65 -4.3,2 -6.7,2.25 l -7.65,0.05 -3.45,-0.3 -4.6,-0.85 q -0.05,-1.15 1.5,-1.95 l 2.45,-0.95 7.2,-1.85"
         fill="#aa4d4d"
         fill-rule="evenodd"
         stroke="none"
         id="path2" />
      <path
         d="m -10.35,-10.65 -0.1,-1.55 4.7,0.75 q 4.5,0.5 9.7,0.25 l 4.65,-0.55 3.9,-1.45 3.45,-1.5 -0.1,0.95 q -0.3,1.65 -0.9,2.35 l -1.85,1.2 -4.05,1.75 Q 6.7,-7.6 4.8,-7.35 2.5,-7 -1.35,-7.3 L -5.1,-7.65 q -2,-0.4 -4.4,-1.5 l -0.75,-0.55 -0.1,-0.95"
         fill="#823737"
         fill-rule="evenodd"
         stroke="none"
         id="path3" />
      <path
         d="m -35.45,-2.5 -0.05,-0.05 q -0.55,-1.65 -0.1,-3.15 0.6,-1.9 2.75,-3.2 1.5,-0.95 4.15,-1.8 l 12.45,-3.95 0.1,5.45 q 0.1,2.45 0.8,3.45 0.65,0.9 2.8,1.85 l 4.95,1.7 8.3,0.8 q 4.8,0 7.7,-0.75 l 5.1,-1.9 q 2.55,-1.1 3.8,-1.95 2,-1.3 2.9,-2.95 l 1.05,-3.05 0.8,-3.85 2.2,-0.35 6.9,-0.25 0.8,0.15 q 3.35,0.8 5.15,3.1 l 0.7,1.25 q -0.45,1.45 -2.1,3.4 -5.55,6.3 -14.25,9.8 Q 13.5,4.45 4.2,4.9 -3.65,5.25 -13.3,3.7 -19.4,2.75 -30.6,0.1 q -3.75,-0.85 -4.85,-2.6 m 2.8,-3.9 q -0.7,0.55 -0.95,1.45 -0.25,0.9 0.1,1.75 0.35,0.85 1.15,1.35 0.85,0.45 1.7,0.35 1.6,-0.15 2.25,-1.65 0.45,-1.05 0.1,-2 l -0.3,-0.55 -0.15,-0.2 Q -29.7,-7.1 -31.3,-6.95 -32,-6.9 -32.65,-6.4 M 31.5,-9.15 q 0.4,0.65 1.2,0.9 0.8,0.25 1.5,0 l 1.3,-0.8 q 0.55,-0.6 0.7,-1.35 0.2,-0.9 -0.2,-1.75 -0.35,-0.9 -1.15,-1.25 -1.35,-0.6 -2.8,0.4 l -0.8,0.95 -0.1,0.3 v 0.05 l -0.1,0.65 0.05,0.9 q 0.05,0.5 0.4,1"
         fill="#858585"
         fill-rule="evenodd"
         stroke="none"
         id="path4" />
      <path
         d="m -35.45,-2.5 q 1.1,1.75 4.85,2.6 11.2,2.65 17.3,3.6 9.65,1.55 17.5,1.2 9.3,-0.45 17.25,-3.65 8.7,-3.5 14.25,-9.8 1.65,-1.95 2.1,-3.4 l 0.25,1.15 Q 38.1,-9.6 36.9,-7.7 33.7,-2.75 28.6,0.95 23.75,4.5 17.85,6.55 7.35,10.15 -6.05,8.9 -17.55,7.85 -28.25,3.55 -32.1,2 -33.8,0.25 -35,-0.95 -35.45,-2.5"
         fill="#5e5e5e"
         fill-rule="evenodd"
         stroke="none"
         id="path5" />
      <path
         d="M -19.4,28.75 V 28.4 l 3.85,0.95 v 0.45 3.85 l -2.55,0.05 -0.45,-0.05 -0.3,-0.5 q -0.5,-1.4 -0.55,-4.4 m 21.6,-13.6 5.55,-0.4 q 0.1,1 0.35,1.55 L 7.35,22.65 7.15,25 2.35,25.65 -3.4,25.35 -9.1,24.4 q -6.8,-1.25 -9.85,-2.45 -4.95,-2 -10.1,-6.4 -4.2,-3.65 -5.85,-6.95 l -0.65,-1.5 0.75,0.45 q 3.35,2.05 9.7,3.85 15.05,4.15 27.3,3.75 M 1.15,21.2 q 0.75,1.25 2.15,1.15 1.35,0 2,-1.15 0.75,-1.2 0.05,-2.3 l -0.9,-0.85 -2.2,-0.1 q -0.7,0.25 -1,0.8 Q 1,19.1 0.9,19.55 0.75,20.4 1.15,21.2 m 27.4,-13.35 3.3,-2.15 -1,1.85 q -1.65,2.85 -3.3,5 -0.6,0.35 -0.95,1.1 -3.1,3.45 -7.85,6.45 -3.65,2.25 -7.2,3.6 l 0.3,-1.45 1,-6.15 -0.15,-2.05 v -0.1 q 8.7,-1.75 15.85,-6.1"
         fill="#4b4b4b"
         fill-rule="evenodd"
         stroke="none"
         id="path6" />
    </g>
    <g
       id="sprite1"
       transform="translate(17.4,15.85)">
      <use
         ffdec:characterId="31"
         height="57.200001"
         transform="matrix(0.5366,0,0,0.5366,-16.6582,-14.546)"
         width="70.75"
         xlink:href="#sprite2"
         id="use6" />
    </g>
    <g
       id="sprite2"
       transform="translate(-8.65,-10.35)">
      <use
         ffdec:characterId="30"
         height="57.200001"
         transform="translate(8.65,10.35)"
         width="70.75"
         xlink:href="#shape1"
         id="use7" />
    </g>
    <g
       id="shape1"
       transform="translate(-8.65,-10.35)">
      <path
         d="m 14.8,41.7 q 0.65,-1.75 2.65,-2.5 1.8,-0.8 3.7,-0.25 1.15,0.45 2.25,1.2 l 0.9,0.4 q 1.65,0.9 2.85,2.5 L 37.8,30.1 q 2.35,-2.8 3.75,-3.95 1.5,-1.15 4.25,-2.4 18.2,-8.85 27.65,-12.6 2.15,-0.8 3.25,-0.8 h 0.8 l 1.9,2.4 -0.2,0.8 q -0.2,1.1 -1.55,3 -5.85,8.25 -18.85,23.8 -1.85,2.35 -3.35,3.5 -1.4,1.15 -4.75,2.75 l -15.15,7.15 q 1.2,1.6 1.75,3.4 l 0.2,1 0.55,2.5 q 0.1,1.95 -1.1,3.55 -1.2,1.65 -3.05,1.9 l -1.3,0.05 q -1.65,0.2 -3.45,-0.65 -1.85,-0.9 -3,-2.6 L 25,60.95 23.8,62.1 q -2.6,2.85 -4.3,3.95 -2.85,1.8 -5.5,1.45 l -1.65,-0.5 -1.2,-0.7 -0.2,-0.2 q -1,-0.85 -1.6,-1.9 L 9.25,64 9.15,63.8 8.75,62.4 q -0.2,-0.8 -0.05,-1.7 0.25,-2.65 2.7,-5.05 1.5,-1.3 4.9,-3.15 L 17.7,51.55 16.05,50 q -1.35,-1.5 -1.8,-3.6 -0.4,-1.85 0.25,-3.45 l 0.3,-1.25"
         fill="#000000"
         fill-opacity="0.372549"
         fill-rule="evenodd"
         stroke="none"
         id="path7" />
    </g>
  </defs>
</svg>
