<?xml version="1.0" encoding="UTF-8" standalone="no"?>
<svg
   ffdec:objectType="frame"
   height="69.209305"
   width="87.755707"
   version="1.1"
   id="svg6"
   xmlns:xlink="http://www.w3.org/1999/xlink"
   xmlns="http://www.w3.org/2000/svg"
   xmlns:svg="http://www.w3.org/2000/svg"
   xmlns:ffdec="https://www.free-decompiler.com/flash">
  <g
     transform="translate(47.2,31.288889)"
     id="g1">
    <use
       ffdec:characterId="17"
       height="119.15"
       id="rarity"
       transform="translate(-58.5,-60.65)"
       width="119.15"
       xlink:href="#sprite0" />
    <use
       ffdec:characterId="459"
       height="69.199997"
       transform="translate(-47.2,-31.3)"
       width="87.75"
       xlink:href="#shape0"
       id="use1" />
  </g>
  <defs
     id="defs6">
    <g
       id="shape0"
       transform="translate(46.8,30.5)">
      <path
         d="m -8.15,-30.4 q 8.4,-0.8 13.5,5.6 1.85,-1.95 4.45,-2.4 6,-0.85 6.35,4.4 0.15,2.15 -0.7,4.05 3.6,0.55 6.8,1.8 l 1.3,-1.45 2.35,-2 0.35,-0.1 0.45,-0.1 q 1.6,0.4 3.05,1.3 l 5.1,-5.95 0.65,-1.05 0.2,-0.25 0.2,-0.2 0.1,-0.2 0.05,-0.25 q 0.6,-0.7 1.5,-0.95 l 0.65,-0.15 0.55,0.15 0.45,0.2 q 1,2.3 -0.05,5.05 l -0.9,3.1 q -1,4.95 -2.55,9.65 l -0.4,1.85 -0.4,1.05 0.7,0.95 Q 40.8,1.15 40.95,10.15 41.2,24.2 30.5,32.85 27.45,35.3 23.75,36.5 12.5,40.15 0.95,37.8 l -2.8,-0.85 q -5.3,-2.35 -10.65,-0.4 -4.7,1.75 -9.6,1.15 -8.45,-1.05 -14.15,-6.7 -2.1,0.85 -4.95,0.65 l -0.7,0.1 q -2.5,0.55 -4.5,-0.8 l -0.35,-0.65 -0.05,-0.65 3.35,-4.7 1.35,-1.5 0.05,-0.2 0.1,-0.25 1.3,-1.4 0.05,-2.95 0.6,-4.7 q 0.25,-1.6 0.95,-3 Q -38,7.75 -36.3,4.9 L -36.4,4.7 -36.6,4.5 -36.8,3.2 V 2.85 l -0.45,-1.4 -0.3,-1.3 -0.2,-0.85 0.1,-0.8 -0.1,-1.3 v -4.05 q 0,-0.8 0.5,-1.3 l 0.4,-0.15 0.6,-0.2 q 2.05,0.15 4,0.95 l 1.6,0.6 q 1.35,1.25 3,2.05 l 0.2,0.1 4.35,-3.15 q -5,-3.65 -1.45,-8.4 2.9,-3.85 7.65,-5 l 3.5,-0.9 q -0.5,-1.05 -0.45,-2.15 0.2,-5.3 5.7,-5.95 v -0.05 m -25.1,42 -0.15,0.35 -0.35,1.95 q -0.85,2.75 -0.7,5.75 l 0.05,3.45 0.1,0.2 0.1,0.25 0.2,0.4 0.1,0.45 v 0.4 q 4.2,6.5 12.25,7.4 4.85,0.5 9.6,-1.35 4.55,-1.75 8.9,0.2 11.25,4 23,1.25 12.7,-2.95 15,-15.6 0.3,-1.65 0.85,-3.2 V 13.3 11.8 8.8 7.1 Q 35,5.9 34.65,4.55 33.7,0.6 31.25,-2.75 L 30.4,-4.3 q -7.75,-8.7 -19.45,-9.85 -0.65,-0.05 -0.8,-0.7 l -0.05,-0.2 -0.35,-0.55 -0.25,-1.05 0.05,-0.45 0.05,-0.2 0.15,-0.2 0.35,-0.45 0.35,-0.45 0.15,-0.4 0.7,-1.3 0.9,-2.15 q -2.3,-1 -3.45,1.6 -0.95,2.25 -3.15,3 -2.2,-1.25 -2.35,-2.95 l -1.2,-1.3 -1.4,-1.45 Q -3.3,-26.8 -8.7,-25.1 l 1.95,6.75 q 0.15,0.45 -0.3,0.8 l -0.65,0.5 -0.9,0.4 -3.8,0.2 q -3.1,-0.75 -5.85,1 -1.45,1 -2.55,2.3 2.15,1.7 3.9,3.75 l 1.1,1.4 0.15,0.25 q 0.5,0.7 0.05,1.3 l -0.35,0.3 -4.5,3.15 q -0.85,0.6 -1.85,1 -3.2,2.3 -5.75,5.35 L -30.7,6.9 q -1.45,2.2 -2.55,4.7 m 26.9,-26.2 2,-0.35 0.95,0.1 q 1.45,0.2 2.9,0.75 l 4.6,-1.2 q 2.1,-0.2 3.85,0.55 0.8,0.35 1,1.1 l -2.1,1.6 -2.5,1.35 q -2,0.9 -4.3,1.4 -1.6,0.35 -3.05,1.2 -3.3,2.05 -5.3,5.25 v 0.2 l -0.2,0.4 -0.35,0.45 v 0.2 0.65 L -9,-0.5 l -0.15,0.2 -0.9,0.05 -0.25,-0.2 q -0.75,-3.7 1.1,-6.75 l 1.75,-2.25 1.35,-1.25 0.2,-0.2 h -1.6 l -1.75,0.6 -2.1,1.35 -1.65,1.2 -0.35,0.1 -0.45,-0.1 -0.05,-0.2 -0.1,-0.2 v -0.1 -0.1 -0.25 q 0.9,-2.15 2.65,-3.6 l 2,-1.35 q 1.45,-0.7 2.95,-1.05 M 0.3,11.25 v 0.05 l -0.5,0.55 -0.5,0.2 -0.5,-0.15 -2.2,2 -1.45,1.35 -4.9,5.75 -4.25,4.95 -0.45,0.2 -0.55,0.15 -0.65,-0.15 -0.55,-0.45 -0.35,-0.4 -0.1,-0.65 0.1,-1.05 2.7,-2.7 -2.15,-1.65 q -3.25,-2.6 -5.9,-5.95 l -0.35,-0.5 q -0.65,-0.85 -0.9,-1.95 l 0.2,-0.55 q 0.75,-1.8 3.05,-2 3.95,-0.35 7.55,0.85 l 1.35,-0.1 0.25,-1.9 0.5,-1.95 0.15,-0.55 0.9,-2.3 0.3,-0.2 L -8.65,2 -8.2,1.95 q 1.75,0.6 3.2,1.65 2.3,1.6 4,4.2 l 0.2,0.35 q 2.15,-1.9 4.75,-3.2 l 0.5,-0.1 V 4.8 L 4.9,5 5.45,5.35 5.5,5.6 V 5.8 L 5.45,6 4.6,6.8 V 6.95 L 4.55,7.15 4.45,7.35 0.5,10.5 0.45,10.65 0.3,11.25 m 17.3,-13.45 0.5,0.1 q 1.4,1.85 2.1,4 l 0.35,1.8 0.1,0.15 7.85,-6.05 0.2,-0.05 0.35,-0.1 0.95,0.25 0.55,0.3 0.1,0.2 0.05,0.25 v 0.4 l -0.15,0.7 -0.4,1.05 -0.05,0.6 -0.55,1.3 -1.15,5.15 -0.8,2.8 q 1.3,0.6 2.45,1.55 l 0.1,0.25 0.15,0.45 0.05,0.2 -0.05,0.4 -0.3,0.65 q -2.7,1.5 -4.95,-1.05 l -4.5,-1 -0.3,-0.5 -0.3,-0.8 L 20.1,10.4 20.25,9.7 20,8.9 19.75,7.8 19.6,7.6 19.55,7.55 19.35,7.5 19.05,7.3 18.85,7.05 18.7,6.85 18.6,6.45 Q 18.45,6.1 18.6,5.8 V 5.55 L 18.65,5.5 17.15,1.35 16.45,-1 l 0.1,-0.2 0.15,-0.45 0.15,-0.2 0.3,-0.2 0.45,-0.15 m 16.35,-14.35 0.1,-0.5 0.8,-2.55 -4.5,4.35 q -0.6,0.5 -1.45,0.25 l -1.2,-1 -0.6,-0.65 -0.9,1.25 -0.2,0.25 0.25,0.15 4.5,3.2 2.05,2.05 v -0.4 q 0,-0.9 0.35,-1.75 0.25,-2.35 0.8,-4.65 m -66.65,16.7 1.3,-1.35 0.25,-0.3 0.65,-0.65 -0.65,-0.5 -0.5,-0.15 -0.5,-0.35 q -0.8,-0.5 -1.75,-0.6 l -0.25,-0.05 h -0.4 -0.2 l -0.05,0.2 v 0.45 1.05 0.4 l 0.1,0.65 0.05,0.15 0.6,1.6 0.25,0.7 0.25,-0.3 0.85,-0.95 M -7.15,5.85 -7.2,5.8 -7.25,6.05 -7.4,6.85 -7.9,8.15 -8,8.35 q 0.1,0.9 -0.15,1.75 l -0.4,1.35 -0.35,0.75 -0.55,0.1 H -9.5 l -0.35,0.05 h -0.1 -0.3 l -7.45,-0.2 1.95,2.25 2.55,2.55 1.4,1.2 0.4,0.3 0.65,-0.7 7.7,-7.45 -1.3,-1.45 -0.1,-0.1 -1.05,-1.3 -0.8,-0.9 -0.25,-0.4 -0.25,-0.2 -0.35,-0.1 m -31.55,21.95 -1.2,-2.65 -1.15,1.4 -1.4,1.95 -0.1,0.15 h 0.25 l 2.45,-0.3 1.35,-0.25 -0.2,-0.3 M 26.25,7.8 26.4,7 Q 26.55,6.2 26.85,5.5 26.8,4.7 27.05,4 l 0.3,-1.7 q -1,0.55 -1.95,1.2 l -1.65,1.25 -1.9,1.55 0.65,1.7 0.2,0.65 0.05,0.2 0.1,0.35 0.15,0.05 2.4,0.5 h 0.1 V 9.65 L 25.7,8.7 25.8,8.5 26,8.3 26.15,8.2 26.2,8.1 26.25,7.8"
         fill="#000000"
         fill-rule="evenodd"
         stroke="none"
         id="path1" />
      <path
         d="m 0.65,-23.35 1.2,2.45 q 0.4,1.2 -0.15,2.35 -1.25,2.6 -4.3,3 -3.4,0.45 -5.1,-1.5 l 0.65,-0.5 q 0.45,-0.35 0.3,-0.8 L -8.7,-25.1 q 5.4,-1.7 9.35,1.75 m -9.25,6.7 0.45,0.5 0.45,0.15 0.5,0.2 0.35,0.2 0.5,1 q -1.5,0.35 -2.95,1.05 l -2,1.35 q -1.75,1.45 -2.65,3.6 v 0.25 0.1 0.1 l 0.1,0.2 0.05,0.2 0.45,0.1 0.35,-0.1 1.65,-1.2 2.1,-1.35 1.75,-0.6 h 1.6 l -0.2,0.2 -1.35,1.25 -1.75,2.25 q -1.85,3.05 -1.1,6.75 l 0.25,0.2 0.9,-0.05 0.15,-0.2 0.15,-0.45 V -1.6 -1.8 l 0.35,-0.45 0.2,-0.4 v -0.2 q 2,-3.2 5.3,-5.25 1.45,-0.85 3.05,-1.2 2.3,-0.5 4.3,-1.4 l 2.5,-1.35 2.1,-1.6 q -0.2,-0.75 -1,-1.1 Q 6.2,-15.5 4.1,-15.3 l -4.6,1.2 q -1.45,-0.55 -2.9,-0.75 l 4.05,-0.9 q 9.3,-1.55 13.75,5.6 0.35,0.6 0.25,1.35 -0.95,5.55 -4.55,10.25 -4.25,5.5 -9.8,9.8 L 0.45,10.65 0.5,10.5 4.45,7.35 4.55,7.15 4.6,6.95 V 6.8 L 5.45,6 5.5,5.8 V 5.6 L 5.45,5.35 4.9,5 4.45,4.8 v 0.05 l -0.5,0.1 q -2.6,1.3 -4.75,3.2 L -1,7.8 Q -2.7,5.2 -5,3.6 -6.45,2.55 -8.2,1.95 L -8.65,2 -8.9,2.15 l -0.3,0.2 -0.9,2.3 -0.15,0.55 -0.5,1.95 -0.25,1.9 -1.35,0.1 q -3.6,-1.2 -7.55,-0.85 -2.3,0.2 -3.05,2 l -0.2,0.55 q 0.25,1.1 0.9,1.95 l 0.35,0.5 q 2.65,3.35 5.9,5.95 l -7.25,0.5 q -8.85,-0.4 -10,-8.15 1.1,-2.5 2.55,-4.7 l 2.65,-3.55 Q -25.5,0.3 -22.3,-2 q 1,-0.4 1.85,-1 l 4.5,-3.15 0.35,-0.3 q 0.45,-0.6 -0.05,-1.3 L -15.8,-8 -16.9,-9.4 q -1.75,-2.05 -3.9,-3.75 1.1,-1.3 2.55,-2.3 2.75,-1.75 5.85,-1 l 3.8,-0.2 m 7.9,28.7 -2.7,1.85 2.2,-2 0.5,0.15 m -0.15,-10 V 2 L -1.35,1.9 H -1.4 l 0.6,0.3 -0.05,-0.15 m -6.4,4 0.05,-0.25 0.05,0.05 -0.1,0.2 m 2.8,2.7 0.1,0.1 1.3,1.45 -7.7,7.45 -1.05,0.4 -1.4,-1.2 -2.55,-2.55 q 2.8,-0.7 5.5,-2.05 h 0.3 0.1 L -9.5,12.3 h 0.05 l 0.55,-0.1 0.35,-0.75 2.35,-1.5 1.75,-1.2"
         fill="#777777"
         fill-rule="evenodd"
         stroke="none"
         id="path2" />
      <path
         d="m 0.65,-23.35 1.4,1.45 1.2,1.3 q 0.15,1.7 2.35,2.95 2.2,-0.75 3.15,-3 1.15,-2.6 3.45,-1.6 l -0.9,2.15 -0.7,1.3 -0.15,0.4 -0.35,0.45 -0.35,0.45 -0.15,0.2 -0.05,0.2 -0.05,0.45 0.25,1.05 0.35,0.55 0.05,0.2 q 0.15,0.65 0.8,0.7 11.7,1.15 19.45,9.85 l 0.85,1.55 Q 33.7,0.6 34.65,4.55 35,5.9 35.7,7.1 v 1.7 3 1.5 0.2 q -0.55,1.55 -0.85,3.2 -2.3,12.65 -15,15.6 -11.75,2.75 -23,-1.25 -4.35,-1.95 -8.9,-0.2 -4.75,1.85 -9.6,1.35 -8.05,-0.9 -12.25,-7.4 v -0.4 l -0.1,-0.45 -0.2,-0.4 -0.1,-0.25 -0.1,-0.2 -0.05,-3.45 q -0.15,-3 0.7,-5.75 l 0.35,-1.95 0.15,-0.35 q 1.15,7.75 10,8.15 l 7.25,-0.5 2.15,1.65 -2.7,2.7 -0.1,1.05 0.1,0.65 0.35,0.4 0.55,0.45 0.65,0.15 0.55,-0.15 0.45,-0.2 4.25,-4.95 4.9,-5.75 1.45,-1.35 2.7,-1.85 0.5,-0.2 0.5,-0.55 v -0.05 q 5.55,-4.3 9.8,-9.8 3.6,-4.7 4.55,-10.25 0.1,-0.75 -0.25,-1.35 -4.45,-7.15 -13.75,-5.6 l -4.05,0.9 -0.95,-0.1 -2,0.35 -0.5,-1 -0.35,-0.2 -0.5,-0.2 -0.45,-0.15 -0.45,-0.5 0.9,-0.4 q 1.7,1.95 5.1,1.5 3.05,-0.4 4.3,-3 0.55,-1.15 0.15,-2.35 l -1.2,-2.45 m 16.95,21.15 -0.45,0.15 -0.3,0.2 -0.15,0.2 -0.15,0.45 -0.1,0.2 0.7,2.35 1.5,4.15 -0.05,0.05 V 5.8 q -0.15,0.3 0,0.65 l 0.1,0.4 0.15,0.2 0.2,0.25 0.3,0.2 0.2,0.05 0.05,0.05 0.15,0.2 0.25,1.1 0.25,0.8 -0.15,0.7 -0.15,0.4 0.3,0.8 0.3,0.5 4.5,1 Q 27.3,15.65 30,14.15 L 30.3,13.5 30.35,13.1 30.3,12.9 30.15,12.45 30.05,12.2 Q 28.9,11.25 27.6,10.65 l 0.8,-2.8 1.15,-5.15 0.55,-1.3 0.05,-0.6 0.4,-1.05 0.15,-0.7 v -0.4 L 30.65,-1.6 30.55,-1.8 30,-2.1 29.05,-2.35 28.7,-2.25 28.5,-2.2 20.65,3.85 20.55,3.7 20.2,1.9 q -0.7,-2.15 -2.1,-4 l -0.5,-0.1"
         fill="#646464"
         fill-rule="evenodd"
         stroke="none"
         id="path3" />
      <path
         d="m 26.2,-15.4 0.9,-1.25 0.6,0.65 1.2,1 q 0.85,0.25 1.45,-0.25 l 4.5,-4.35 -0.8,2.55 -0.1,0.5 -0.9,0.95 -1.75,2.9 -0.55,0.9 -4.5,-3.2 -0.05,-0.4 m -60.75,11.6 h 0.4 l 0.25,0.05 q 0.95,0.1 1.75,0.6 l 0.5,0.35 0.5,0.15 0.65,0.5 -0.65,0.65 -0.25,0.3 -1.3,1.35 -1.15,-1.7 q -0.5,-0.75 -0.45,-1.55 l 0.05,-0.25 -0.3,-0.4 V -3.8 m 27.3,9.85 0.1,-0.2 0.35,0.1 0.25,0.2 0.25,0.4 0.8,0.9 1.05,1.3 -1.75,1.2 -2.35,1.5 0.4,-1.35 Q -7.9,9.25 -8,8.35 l 0.1,-0.2 0.5,-1.3 0.15,-0.8 m -8.5,8.35 -1.95,-2.25 7.45,0.2 q -2.7,1.35 -5.5,2.05 m -26.7,14.1 1.4,-1.95 1.15,-1.4 1.2,2.65 -1.15,0.55 -2.45,0.3 -0.15,-0.15 M 25.4,3.5 Q 26.35,2.85 27.35,2.3 L 27.05,4 Q 26.8,4.7 26.85,5.5 26.55,6.2 26.4,7 L 26.25,7.8 26.2,7.85 26.15,8.1 V 8.2 L 26,8.3 25.8,8.5 25.7,8.7 25.5,9.65 25.4,9.75 23,9.25 22.75,8.85 22.7,8.65 22.5,8 21.85,6.3 l 1.9,-1.55 0.6,0.2 1.05,-1.45"
         fill="#ffffff"
         fill-rule="evenodd"
         stroke="none"
         id="path4" />
      <path
         d="m 30.75,-11.8 0.55,-0.9 1.75,-2.9 0.9,-0.95 q -0.55,2.3 -0.8,4.65 -0.35,0.85 -0.35,1.75 v 0.4 l -2.05,-2.05 m -65.3,8 v 0.05 l 0.3,0.4 -0.05,0.25 q -0.05,0.8 0.45,1.55 l 1.15,1.7 -0.85,0.95 -0.25,0.3 -0.25,-0.7 -0.6,-1.6 -0.05,-0.15 -0.1,-0.65 V -2.1 -3.15 -3.6 l 0.05,-0.2 h 0.2"
         fill="#ffffff"
         fill-opacity="0"
         fill-rule="evenodd"
         stroke="none"
         id="path5" />
    </g>
    <g
       id="sprite1"
       transform="translate(17.4,15.85)">
      <use
         ffdec:characterId="31"
         height="57.200001"
         transform="matrix(0.5366,0,0,0.5366,-16.6582,-14.546)"
         width="70.75"
         xlink:href="#sprite2"
         id="use5" />
    </g>
    <g
       id="sprite2"
       transform="translate(-8.65,-10.35)">
      <use
         ffdec:characterId="30"
         height="57.200001"
         transform="translate(8.65,10.35)"
         width="70.75"
         xlink:href="#shape1"
         id="use6" />
    </g>
    <g
       id="shape1"
       transform="translate(-8.65,-10.35)">
      <path
         d="m 14.8,41.7 q 0.65,-1.75 2.65,-2.5 1.8,-0.8 3.7,-0.25 1.15,0.45 2.25,1.2 l 0.9,0.4 q 1.65,0.9 2.85,2.5 L 37.8,30.1 q 2.35,-2.8 3.75,-3.95 1.5,-1.15 4.25,-2.4 18.2,-8.85 27.65,-12.6 2.15,-0.8 3.25,-0.8 h 0.8 l 1.9,2.4 -0.2,0.8 q -0.2,1.1 -1.55,3 -5.85,8.25 -18.85,23.8 -1.85,2.35 -3.35,3.5 -1.4,1.15 -4.75,2.75 l -15.15,7.15 q 1.2,1.6 1.75,3.4 l 0.2,1 0.55,2.5 q 0.1,1.95 -1.1,3.55 -1.2,1.65 -3.05,1.9 l -1.3,0.05 q -1.65,0.2 -3.45,-0.65 -1.85,-0.9 -3,-2.6 L 25,60.95 23.8,62.1 q -2.6,2.85 -4.3,3.95 -2.85,1.8 -5.5,1.45 l -1.65,-0.5 -1.2,-0.7 -0.2,-0.2 q -1,-0.85 -1.6,-1.9 L 9.25,64 9.15,63.8 8.75,62.4 q -0.2,-0.8 -0.05,-1.7 0.25,-2.65 2.7,-5.05 1.5,-1.3 4.9,-3.15 L 17.7,51.55 16.05,50 q -1.35,-1.5 -1.8,-3.6 -0.4,-1.85 0.25,-3.45 l 0.3,-1.25"
         fill="#000000"
         fill-opacity="0.372549"
         fill-rule="evenodd"
         stroke="none"
         id="path6" />
    </g>
  </defs>
</svg>
