<?xml version="1.0" encoding="UTF-8" standalone="no"?>
<svg
   ffdec:objectType="frame"
   height="81.718048"
   width="85.359436"
   version="1.1"
   id="svg6"
   sodipodi:docname="ITEM Ancestor's Skull.svg"
   xmlns:inkscape="http://www.inkscape.org/namespaces/inkscape"
   xmlns:sodipodi="http://sodipodi.sourceforge.net/DTD/sodipodi-0.dtd"
   xmlns:xlink="http://www.w3.org/1999/xlink"
   xmlns="http://www.w3.org/2000/svg"
   xmlns:svg="http://www.w3.org/2000/svg"
   xmlns:ffdec="https://www.free-decompiler.com/flash">
  <sodipodi:namedview
     id="namedview6"
     pagecolor="#ffffff"
     bordercolor="#000000"
     borderopacity="0.25"
     inkscape:showpageshadow="2"
     inkscape:pageopacity="0.0"
     inkscape:pagecheckerboard="0"
     inkscape:deskcolor="#d1d1d1"
     fit-margin-top="5"
     fit-margin-left="5"
     fit-margin-right="5"
     fit-margin-bottom="5" />
  <g
     transform="translate(42.58629,43.618049)"
     id="g1">
    <use
       ffdec:characterId="17"
       height="119.15"
       id="rarity"
       transform="translate(-58.5,-60.65)"
       width="119.15"
       xlink:href="#sprite0" />
    <use
       ffdec:characterId="1290"
       height="81.699997"
       transform="translate(-42.6,-43.6)"
       width="85.349998"
       xlink:href="#shape0"
       id="use1" />
  </g>
  <defs
     id="defs6">
    <g
       id="shape0"
       transform="translate(41.3,41.7)">
      <path
         d="m 25.4,-2.55 0.45,-0.65 1.9,-1.85 2.25,-1.1 q 3.25,-1.15 6.55,-0.55 l -0.4,-2.5 -0.3,-1.6 -0.85,-3.6 q -1.3,-4.25 -4.3,-8 -2.85,-3.55 -6.8,-6.2 -6.5,-4.4 -15.85,-6.2 l 0.35,3.35 0.05,2.05 q 0.1,1.2 0.45,2 1.65,-0.35 4.85,1.1 l 4.7,2.2 q 1.3,0.6 1.55,1.3 0.2,0.6 -0.35,1.9 l -1.4,4.3 q -0.85,2.8 -1.5,4.25 -0.6,1.15 -1.25,1.05 -0.65,-0.1 -0.75,-0.85 l 0.15,-1.2 1.85,-6.6 0.05,-1 -0.6,-0.6 -2.95,-1.25 q -1.7,-0.85 -2.55,-0.9 l -1.8,0.15 -1.5,-0.2 -0.05,0.05 q -0.8,0.85 -3.6,2.25 l -0.2,0.15 0.1,0.25 2.65,3.75 0.35,0.95 -0.25,0.65 -0.6,0.3 Q 5.15,-15.35 4.5,-16 L 0.95,-19.9 0,-21.15 l -0.35,-1.3 q 0.15,-1.1 1.55,-1.95 l 2,-1.1 1.35,-0.7 0.6,-0.3 v -0.35 L 5,-31.1 4.55,-34.05 4,-35.25 l -0.1,-0.2 -6,-0.15 q -3.05,0.35 -6.3,1.65 -5.55,2.25 -11.7,7.4 -7,5.85 -9.95,11.25 l -0.6,1.25 q -1.15,2.4 -2.15,5.6 -2.8,8.8 -2.6,14.7 0.1,3.6 1.2,6.75 l 0.15,-0.7 q 0.75,-3.25 2.4,-4.6 1.6,-1.3 3.85,-1.2 1.85,0.1 3.2,1.05 1.5,1.15 1.65,2.85 v 0.1 q 0.1,0.65 -0.2,1.1 l -1,0.65 -1.15,-0.25 -1.15,-1.1 q -0.5,-0.35 -1.7,-0.35 l -0.65,0.1 q -0.4,0.15 -0.7,0.8 l -0.7,2.05 -0.1,1.05 0.35,1.3 0.15,0.4 q 0.5,0.7 0.65,2 L -29,19.6 q 0.05,1.85 -0.55,3.65 l -0.55,2 q -0.25,1.15 0.25,2 l 1.6,1.3 q 1.8,1.05 2.75,0.9 1.05,-0.1 2.2,-1.45 l 1.65,-2.15 q 0.45,-0.45 1.1,-0.8 l 1.9,-0.7 q 2.15,-0.45 3.45,0.55 0.7,0.45 0.7,1.15 l -0.05,0.35 1.4,-0.05 4.8,-1.25 q 3.25,-0.95 5.2,-0.9 l 2.3,0.3 q 0.35,-1.85 1.1,-3.65 0.85,-2.2 2.2,-3.5 1.8,-1.55 4.35,-1.8 l 2.05,0.2 1.6,1.05 1.4,1.45 0.5,1.4 0.25,0.9 0.8,-1.4 q 0.95,-1.25 2.6,-1.7 l 1.05,-0.2 -0.05,-0.7 0.2,-1.8 0.15,-1.05 -0.05,-0.85 0.15,-1.1 L 17.6,10.6 17.45,9.35 17.6,8 17.75,6.65 v -1 Q 17.95,5 18.4,4.95 19.05,4.85 19.25,5.6 l 0.05,1.15 q 0,1.15 0.5,3.4 l 0.25,1.85 0.3,0.85 0.2,1.15 0.5,1.9 q 0.5,1.65 0.25,2.75 l 1.4,-0.7 0.85,-0.25 q 1.2,-0.15 2.35,0.9 l 1.1,1.25 0.05,-0.1 0.5,-0.5 0.65,-0.55 0.65,-0.25 0.75,-0.2 1.45,-0.05 q 0.85,0.1 1.3,0.6 l 0.4,0.6 0.05,0.15 0.7,2.2 0.1,0.2 1.05,0.05 2.15,-0.95 q 1.05,-0.6 1.6,-1.65 l 0.15,-0.35 q 0.35,-0.95 0,-1.8 l -0.75,-1.1 -0.6,-0.6 -2.9,0.35 q -4.05,0 -6.85,-1.65 l -0.8,-0.5 Q 23.9,11.95 23.05,8.85 22.7,7.7 22.7,5.75 22.7,2.5 23.95,-0.2 l 1.45,-2.35 m -39.45,-6.6 2.3,-1 q 2.6,-0.85 4.55,-0.8 l 3.6,0.65 q 7.7,2.2 10.2,6.85 l 0.3,0.6 Q 8.5,0.55 7.8,4.9 7.3,8.35 5.55,11.25 3.75,14.3 0.95,16 q -2.1,1.3 -5.05,2.05 l -5.2,0.75 -2.95,-0.2 q -4.35,-0.65 -7.35,-3.35 -1.3,-1.1 -1.5,-2.3 -0.15,-0.6 0.1,-1.15 l 0.05,-0.2 q 0.3,-0.75 0.95,-0.95 0.85,-0.35 2.7,0.65 l 0.95,0.5 q 2.9,1.35 6.3,1.5 l 4.8,-0.55 -1.85,-0.7 q -1.8,-0.9 -3.7,-3.2 l -1.05,-1.8 -0.1,-2.4 0.15,-2.6 q 0.5,-4.15 4.85,-7.3 l -0.8,-0.05 q -1.15,0.05 -3.45,1.1 -2.85,1.3 -3.6,2.65 l -0.7,1.85 -0.25,0.75 v 0.5 Q -15.8,2.8 -16.9,4.15 L -17.85,5.1 -19,5.6 -19.7,5.7 -21.65,5.55 Q -22.9,5.35 -23.35,5 l -1.25,-1.55 -0.75,-1.05 -0.25,-2.5 0.2,-1.4 0.15,-1.35 0.5,-1.3 0.7,-1.1 q 0.55,-0.5 1.25,-0.4 0.65,0 1.15,0.65 l 0.4,0.9 0.3,1.1 v 1 l 0.15,1.15 V -1.1 q 0.5,-3.25 3.25,-5.75 l 3.5,-2.3 m 9.85,39.2 -2.7,0.5 -2.65,1 q -4.4,1.4 -10.65,-0.2 l -0.25,0.25 q -2.75,3 -6,2.95 -1.2,0 -2.85,-0.6 -1.7,-0.55 -2.55,-1.25 l -1.6,-1.65 -1.25,-1.85 q -0.4,-0.9 -0.3,-2.35 l 0.55,-3 L -35,23.3 q -5.3,-5.65 -6.15,-14.7 -0.65,-6.9 1.8,-16.05 2.65,-9.6 7.05,-15.35 2.05,-2.65 5.5,-5.8 10.4,-9.75 19.75,-12.15 12.3,-3.15 28.05,3.95 3.5,1.55 5.8,3.2 l 3.85,3.5 q 5.15,5.05 6.95,8.65 1.35,2.7 2.6,7.8 1.1,5 1.4,8.45 l 0.15,2.45 0.1,0.4 Q 42.2,-1.1 42,0.5 L 41.35,3.4 40.6,6.15 40.1,8.6 q 0,1.5 0.65,2.4 l 1.1,1.05 q 2.45,2.3 2.2,6.3 -0.15,2.55 -1.4,4.5 -1.15,1.75 -3.05,2.8 -1.6,0.85 -3.35,1 l -0.1,0.45 -1.1,4.05 -1,2.1 -2.45,3.75 -1.35,1.15 -2.05,0.5 q -1.45,0.1 -2.4,-0.6 -1.2,-0.9 -1.4,-3.4 L 24.2,32.3 h -1.1 q -1.35,-0.1 -1.9,-0.5 l -0.85,-0.9 -0.05,-0.1 -0.15,0.1 q -1.2,1.2 -2,1.55 l -1.4,0.3 -1.7,-0.15 -1.3,-0.65 -2.05,4.35 q -1.45,2.6 -3.4,3.35 L 6,40 Q 4.85,39.9 3.85,39.25 2.75,38.5 1.15,35.95 L -1,32.3 Q -1.8,31 -2.4,30.55 -3.05,30.15 -4.2,30.05 M 34.35,8.4 Q 34.4,5.15 36.4,1.35 L 37.05,0.15 37.1,-2.1 H 37 l -3.8,0.25 -0.4,0.15 0.4,0.3 q 0.9,0.9 1.4,2.45 0.4,1.65 0.2,3.1 L 34,6.45 32.75,8 30.45,9.5 30.8,9.65 q 1.8,0.8 3.7,0.85 L 34.35,8.4 m -12.25,17.95 0.45,0.8 Q 23,27.6 23.35,27.4 L 23.75,27 25,25.7 25.05,24.65 25,23.5 24.75,22.85 24.6,22.15 24.15,21.55 23.7,21.25 q -0.15,-0.05 -0.6,0.3 l -0.6,0.35 q 0.3,1.9 -0.25,3.85 L 22.1,26.3 v 0.05 m 6.35,0.1 q 0.4,0.75 0.25,1.6 l 0.1,1.5 0.25,2.65 q 1.5,-2.45 2.25,-5.35 l 0.15,-0.7 -0.2,-0.2 -0.5,-0.75 -0.15,-0.7 Q 29.8,22.65 29.7,21.65 29.5,21.6 29.2,21.9 l -0.3,0.45 -0.75,0.6 V 23 l 0.05,0.3 0.1,1.7 -0.05,1.1 0.2,0.35 M 3.65,28.65 7,34.3 8.75,30.15 q 0.4,-1.5 0.75,-2.2 L 9.75,27.55 9.5,24.35 Q 9.15,22.15 8.6,20.75 L 7.8,19.7 6.5,19.6 Q 5,20 4.3,21.25 3.8,22.1 3.6,23.7 l -0.35,2.1 -0.2,1.85 0.6,1 m 11.8,-0.95 q 0.35,0.45 0.8,0.35 l 0.35,-0.15 0.8,-0.7 1.15,-1.25 0.9,-0.4 V 23.9 q -0.35,-1.8 -1,-3.1 -1.1,-0.35 -1.85,0.2 -0.35,0.3 -0.8,1.4 -0.65,1.9 -0.7,3.3 l -0.1,1.45 0.45,0.55"
         fill="#000000"
         fill-rule="evenodd"
         stroke="none"
         id="path1" />
      <path
         d="m -19,5.6 1.15,-0.5 0.95,-0.95 q 1.1,-1.35 1.15,-2.6 v -0.5 l 0.25,-0.75 0.7,-1.85 q 0.75,-1.35 3.6,-2.65 2.3,-1.05 3.45,-1.1 l 0.8,0.05 q -4.35,3.15 -4.85,7.3 l -0.15,2.6 0.1,2.4 1.05,1.8 q 1.9,2.3 3.7,3.2 l 1.85,0.7 -4.8,0.55 q -3.4,-0.15 -6.3,-1.5 l -0.7,-0.75 Q -18.65,9.2 -19,7.25 V 5.6 m 53.35,2.8 0.15,2.1 Q 32.6,10.45 30.8,9.65 L 30.45,9.5 32.75,8 34,6.45 34.8,4.15 Q 35,2.7 34.6,1.05 34.1,-0.5 33.2,-1.4 L 32.8,-1.7 33.2,-1.85 37,-2.1 h 0.1 l -0.05,2.25 -0.65,1.2 q -2,3.8 -2.05,7.05"
         fill="#0b0b0b"
         fill-rule="evenodd"
         stroke="none"
         id="path2" />
      <path
         d="m -30.65,-14.05 0.6,-1.25 q 2.95,-5.4 9.95,-11.25 6.15,-5.15 11.7,-7.4 3.25,-1.3 6.3,-1.65 l 6,0.15 0.1,0.2 0.55,1.2 0.45,2.95 0.15,4.25 v 0.35 l -0.6,0.3 -1.35,0.7 -2,1.1 q -1.4,0.85 -1.55,1.95 l 0.35,1.3 0.95,1.25 3.55,3.9 q 0.65,0.65 1.3,0.6 l 0.6,-0.3 0.25,-0.65 -0.35,-0.95 -2.65,-3.75 -0.1,-0.25 0.2,-0.15 q 2.8,-1.4 3.6,-2.25 l 0.05,-0.05 1.5,0.2 1.8,-0.15 q 0.85,0.05 2.55,0.9 l 2.95,1.25 0.6,0.6 -0.05,1 -1.85,6.6 -0.15,1.2 q 0.1,0.75 0.75,0.85 0.65,0.1 1.25,-1.05 0.65,-1.45 1.5,-4.25 l 1.4,-4.3 q 0.55,-1.3 0.35,-1.9 -0.25,-0.7 -1.55,-1.3 l -4.7,-2.2 q -3.2,-1.45 -4.85,-1.1 -0.35,-0.8 -0.45,-2 L 8.4,-31.45 8.05,-34.8 q 9.35,1.8 15.85,6.2 3.95,2.65 6.8,6.2 3,3.75 4.3,8 l 0.85,3.6 0.3,1.6 0.4,2.5 Q 33.25,-7.3 30,-6.15 l -2.25,1.1 -1.9,1.85 -0.45,0.65 -1.1,0.25 Q 18,-0.7 14.2,-0.95 10.65,-1.2 6.9,-2.85 L 6.6,-3.45 Q 4.1,-8.1 -3.6,-10.3 l -3.6,-0.65 q -1.95,-0.05 -4.55,0.8 l -2.3,1 -3.05,0.65 -4.05,1.55 q -2.4,0.8 -4.15,0.5 -1.45,-0.25 -2.7,-1.25 -1.2,-0.95 -1.85,-2.35 -0.9,-1.85 -0.8,-4 m 57.3,27.8 0.8,0.5 q 2.8,1.65 6.85,1.65 l 2.9,-0.35 0.6,0.6 0.75,1.1 q 0.35,0.85 0,1.8 l -2.25,0.45 -3.55,-0.1 -0.4,-0.6 q -0.45,-0.5 -1.3,-0.6 l -1.45,0.05 -0.75,0.2 Q 27.75,17.95 27,17.3 26.3,16.7 26.15,16.2 25.7,15.1 26.35,14.1 l 0.3,-0.35 M -29,19.6 -29.15,18.25 q -0.15,-1.3 -0.65,-2 l -0.15,-0.4 -0.35,-1.3 0.1,-1.05 0.7,-2.05 q 0.3,-0.65 0.7,-0.8 l 0.65,-0.1 q 1.2,0 1.7,0.35 l 1.15,1.1 1.15,0.25 1,-0.65 q 0.3,-0.45 0.2,-1.1 l 0.3,0.1 1.65,1.2 q -0.25,0.55 -0.1,1.15 0.2,1.2 1.5,2.3 3,2.7 7.35,3.35 l 2.95,0.2 q -1.9,1.6 -4.65,2.3 l -5.7,0.6 q -6,-0.1 -9.35,-2.1"
         fill="#191919"
         fill-rule="evenodd"
         stroke="none"
         id="path3" />
      <path
         d="m -30.65,-14.05 q -0.1,2.15 0.8,4 0.65,1.4 1.85,2.35 1.25,1 2.7,1.25 1.75,0.3 4.15,-0.5 l 4.05,-1.55 3.05,-0.65 -3.5,2.3 q -2.75,2.5 -3.25,5.75 v 0.25 L -20.95,-2 v -1 l -0.3,-1.1 -0.4,-0.9 q -0.5,-0.65 -1.15,-0.65 -0.7,-0.1 -1.25,0.4 l -0.7,1.1 -0.5,1.3 -0.15,1.35 -0.2,1.4 0.25,2.5 0.75,1.05 1.25,1.55 q 0.45,0.35 1.7,0.55 L -19.7,5.7 -19,5.6 v 1.65 q 0.35,1.95 1.95,3.8 l 0.7,0.75 -0.95,-0.5 q -1.85,-1 -2.7,-0.65 -0.65,0.2 -0.95,0.95 l -0.05,0.2 -1.65,-1.2 -0.3,-0.1 V 10.4 Q -23.1,8.7 -24.6,7.55 -25.95,6.6 -27.8,6.5 q -2.25,-0.1 -3.85,1.2 -1.65,1.35 -2.4,4.6 L -34.2,13 q -1.1,-3.15 -1.2,-6.75 -0.2,-5.9 2.6,-14.7 1,-3.2 2.15,-5.6 M 6.9,-2.85 q 3.75,1.65 7.3,1.9 3.8,0.25 10.1,-1.35 l 1.1,-0.25 -1.45,2.35 q -1.25,2.7 -1.25,5.95 0,1.95 0.35,3.1 0.85,3.1 3.6,4.9 l -0.3,0.35 q -0.65,1 -0.2,2.1 0.15,0.5 0.85,1.1 0.75,0.65 1.85,1.15 l -0.65,0.25 -0.65,0.55 -0.5,0.5 -0.05,0.1 -1.1,-1.25 q -1.15,-1.05 -2.35,-0.9 l -0.85,0.25 -1.4,0.7 q 0.25,-1.1 -0.25,-2.75 L 20.55,14 20.35,12.85 20.05,12 19.8,10.15 Q 19.3,7.9 19.3,6.75 L 19.25,5.6 Q 19.05,4.85 18.4,4.95 17.95,5 17.75,5.65 v 1 L 17.6,8 l -0.15,1.35 0.15,1.25 -0.15,1.15 -0.15,1.1 0.05,0.85 -0.15,1.05 -0.2,1.8 0.05,0.7 -1.05,0.2 q -1.65,0.45 -2.6,1.7 l -0.8,1.4 -0.25,-0.9 -0.5,-1.4 -1.4,-1.45 -1.6,-1.05 -2.05,-0.2 q -2.55,0.25 -4.35,1.8 -1.35,1.3 -2.2,3.5 -0.75,1.8 -1.1,3.65 l -2.3,-0.3 q -1.95,-0.05 -5.2,0.9 l -4.8,1.25 -1.4,0.05 0.05,-0.35 q 0,-0.7 -0.7,-1.15 -1.3,-1 -3.45,-0.55 l -1.9,0.7 q -0.65,0.35 -1.1,0.8 L -23.3,28 q -1.15,1.35 -2.2,1.45 -0.95,0.15 -2.75,-0.9 l -1.6,-1.3 q -0.5,-0.85 -0.25,-2 l 0.55,-2 q 0.6,-1.8 0.55,-3.65 3.35,2 9.35,2.1 l 5.7,-0.6 q 2.75,-0.7 4.65,-2.3 l 5.2,-0.75 Q -1.15,17.3 0.95,16 3.75,14.3 5.55,11.25 7.3,8.35 7.8,4.9 8.5,0.55 6.9,-2.85 m 31.65,21.9 -0.15,0.35 q -0.55,1.05 -1.6,1.65 L 34.65,22 33.6,21.95 l -0.1,-0.2 -0.7,-2.2 -0.05,-0.15 3.55,0.1 2.25,-0.45"
         fill="#121212"
         fill-rule="evenodd"
         stroke="none"
         id="path4" />
      <path
         d="M 28.45,26.45 28.25,26.1 28.3,25 28.2,23.3 28.15,23 v -0.05 l 0.75,-0.6 0.3,-0.45 q 0.3,-0.3 0.5,-0.25 0.1,1 0.9,2.85 l 0.15,0.7 0.5,0.75 0.2,0.2 -0.15,0.7 q -0.75,2.9 -2.25,5.35 l -0.25,-2.65 -0.1,-1.5 q 0.15,-0.85 -0.25,-1.6 M 22.1,26.35 V 26.3 l 0.15,-0.55 Q 22.8,23.8 22.5,21.9 l 0.6,-0.35 q 0.45,-0.35 0.6,-0.3 l 0.45,0.3 0.45,0.6 0.15,0.7 L 25,23.5 25.05,24.65 25,25.7 23.75,27 23.35,27.4 Q 23,27.6 22.55,27.15 L 22.1,26.35 M 15.45,27.7 15,27.15 15.1,25.7 q 0.05,-1.4 0.7,-3.3 0.45,-1.1 0.8,-1.4 0.75,-0.55 1.85,-0.2 0.65,1.3 1,3.1 v 1.65 l -0.9,0.4 -1.15,1.25 -0.8,0.7 -0.35,0.15 q -0.45,0.1 -0.8,-0.35 m -11.8,0.95 -0.6,-1 0.2,-1.85 0.35,-2.1 Q 3.8,22.1 4.3,21.25 5,20 6.5,19.6 l 1.3,0.1 0.8,1.05 q 0.55,1.4 0.9,3.6 l 0.25,3.2 -0.25,0.4 q -0.35,0.7 -0.75,2.2 L 7,34.3 3.65,28.65"
         fill="#ffffff"
         fill-rule="evenodd"
         stroke="none"
         id="path5" />
    </g>
    <g
       id="sprite1"
       transform="translate(17.4,15.85)">
      <use
         ffdec:characterId="31"
         height="57.200001"
         transform="matrix(0.5366,0,0,0.5366,-16.6582,-14.546)"
         width="70.75"
         xlink:href="#sprite2"
         id="use5" />
    </g>
    <g
       id="sprite2"
       transform="translate(-8.65,-10.35)">
      <use
         ffdec:characterId="30"
         height="57.200001"
         transform="translate(8.65,10.35)"
         width="70.75"
         xlink:href="#shape1"
         id="use6" />
    </g>
    <g
       id="shape1"
       transform="translate(-8.65,-10.35)">
      <path
         d="m 14.8,41.7 q 0.65,-1.75 2.65,-2.5 1.8,-0.8 3.7,-0.25 1.15,0.45 2.25,1.2 l 0.9,0.4 q 1.65,0.9 2.85,2.5 L 37.8,30.1 q 2.35,-2.8 3.75,-3.95 1.5,-1.15 4.25,-2.4 18.2,-8.85 27.65,-12.6 2.15,-0.8 3.25,-0.8 h 0.8 l 1.9,2.4 -0.2,0.8 q -0.2,1.1 -1.55,3 -5.85,8.25 -18.85,23.8 -1.85,2.35 -3.35,3.5 -1.4,1.15 -4.75,2.75 l -15.15,7.15 q 1.2,1.6 1.75,3.4 l 0.2,1 0.55,2.5 q 0.1,1.95 -1.1,3.55 -1.2,1.65 -3.05,1.9 l -1.3,0.05 q -1.65,0.2 -3.45,-0.65 -1.85,-0.9 -3,-2.6 L 25,60.95 23.8,62.1 q -2.6,2.85 -4.3,3.95 -2.85,1.8 -5.5,1.45 l -1.65,-0.5 -1.2,-0.7 -0.2,-0.2 q -1,-0.85 -1.6,-1.9 L 9.25,64 9.15,63.8 8.75,62.4 q -0.2,-0.8 -0.05,-1.7 0.25,-2.65 2.7,-5.05 1.5,-1.3 4.9,-3.15 L 17.7,51.55 16.05,50 q -1.35,-1.5 -1.8,-3.6 -0.4,-1.85 0.25,-3.45 l 0.3,-1.25"
         fill="#000000"
         fill-opacity="0.372549"
         fill-rule="evenodd"
         stroke="none"
         id="path6" />
    </g>
  </defs>
</svg>
