<?xml version="1.0" encoding="UTF-8" standalone="no"?>
<svg
   ffdec:objectType="frame"
   height="90.264572"
   width="85.844185"
   version="1.1"
   id="svg3"
   sodipodi:docname="ITEM Ancestor's Bones.svg"
   xmlns:inkscape="http://www.inkscape.org/namespaces/inkscape"
   xmlns:sodipodi="http://sodipodi.sourceforge.net/DTD/sodipodi-0.dtd"
   xmlns:xlink="http://www.w3.org/1999/xlink"
   xmlns="http://www.w3.org/2000/svg"
   xmlns:svg="http://www.w3.org/2000/svg"
   xmlns:ffdec="https://www.free-decompiler.com/flash">
  <sodipodi:namedview
     id="namedview3"
     pagecolor="#ffffff"
     bordercolor="#000000"
     borderopacity="0.25"
     inkscape:showpageshadow="2"
     inkscape:pageopacity="0.0"
     inkscape:pagecheckerboard="0"
     inkscape:deskcolor="#d1d1d1"
     fit-margin-top="5"
     fit-margin-left="5"
     fit-margin-right="5"
     fit-margin-bottom="5" />
  <g
     transform="translate(37.9,46.351613)"
     id="g1">
    <use
       ffdec:characterId="17"
       height="119.15"
       id="rarity"
       transform="translate(-58.5,-60.65)"
       width="119.15"
       xlink:href="#sprite0" />
    <use
       ffdec:characterId="850"
       height="90.25"
       transform="translate(-37.9,-46.35)"
       width="85.849998"
       xlink:href="#shape0"
       id="use1" />
  </g>
  <defs
     id="defs3">
    <g
       id="shape0"
       transform="translate(38.45,47.1)">
      <path
         d="M 1.1,3.3 1.8,3.95 1.7,4 -9.15,13.2 q -6.65,5.75 -11.1,8.9 -1.55,1.15 -1.8,2.05 -0.4,1.3 1.15,3.35 l 1.9,2.9 q 0.8,1.7 0.5,3.15 -0.2,1.1 -1,1.95 -0.8,0.8 -1.9,1 -1.05,0.2 -2.1,-0.4 -1,-0.6 -1.35,-1.65 l -0.2,-2.25 q -0.05,-1.4 -0.65,-2.05 -1,-1 -3.7,-0.35 l -1.75,0.2 q -1.25,-0.3 -1.75,-1.95 -0.35,-1.5 0.35,-3 0.7,-1.45 2.05,-2.4 1.2,-0.8 2.25,-0.75 l 1.35,0.3 1.35,0.25 q 1.05,0.05 2.15,-0.8 l 1.75,-1.7 4.65,-4 4.9,-3.8 3.5,-3.4 Q -5.15,5.4 -0.55,1.85 L 1.1,3.3 m 35.6,25.05 0.05,0.05 0.1,0.3 q 0.4,0.9 1.25,1.55 l 1.7,1.05 1.6,1.1 0.85,1.4 q 0.2,0.9 -0.25,1.45 -0.8,0 -1.75,-0.55 l -1.6,-1.05 q -2.05,-1.5 -3.5,-0.6 -0.7,0.45 -1.2,1.9 -0.55,1.6 -1.1,2.1 -0.85,0.85 -2.25,0.5 -1.3,-0.35 -2,-1.45 -1.15,-1.85 -0.3,-4.85 l 0.55,-2.2 0.05,-2.25 Q 28.65,25.7 27.2,23.95 L 14.1,8.9 9,3.4 4.45,-0.75 -0.25,-4.8 q -8.5,-7.4 -15.95,-16.95 -1.6,-2.05 -2.9,-1.9 -0.85,0.1 -1.65,1.1 l -1.3,1.8 q -1.4,1.7 -3.9,1.95 -2,0.2 -4.4,-0.65 -1.85,-0.7 -2.45,-1.75 -0.4,-0.7 -0.3,-1.6 0.1,-0.85 0.55,-1.55 0.8,-1.25 2.5,-2.2 1.95,-1.1 3.4,-1.1 l 2.3,0.05 q 1.3,-0.05 1.85,-0.75 l 0.4,-0.75 q 0.9,-0.65 0.95,-1.7 0.05,-0.8 -0.55,-1.75 l -1.2,-1.6 q -1.35,-1.95 -1.15,-3.9 0.15,-2.3 2.15,-3.25 1.95,-0.95 4.95,0.6 2.6,1.35 2.95,3.2 0.2,1.05 -0.4,2.9 -0.7,1.95 -0.65,2.85 0.1,1.5 1.95,3.75 l 7.25,9.05 q 10.65,13.4 17,20.3 l 10.75,11.1 q 6.75,6.85 10.6,11.35 l 4.2,4.55 M 20.25,-13.35 13,-6.2 l -0.75,0.9 -2.15,-2.5 8.2,-9 q 2.05,-2.25 2.55,-3.65 0.5,-1.35 0.4,-4.2 -0.1,-5.5 0.3,-8.2 0.3,-1.7 0.9,-2.4 l 1.1,-0.65 1.2,0.15 q 0.5,0.3 0.9,1.4 0.5,1.65 0.5,3.55 v 1.8 q 0.1,1 0.6,1.55 0.65,0.7 1.8,0.7 1.05,-0.05 1.9,-0.7 l 1.45,-1.45 1.25,-1.65 q 1.75,-2 3.5,-1.7 2.05,0.45 3,3.95 0.9,3.55 -0.2,5.45 -0.8,1.3 -2.8,2.4 -3.4,1.9 -7.25,2.65 l -2.65,0.5 -2.6,0.8 q -1.5,0.75 -3.9,3.15"
         fill="#111111"
         fill-rule="evenodd"
         stroke="none"
         id="path1" />
      <path
         d="m -9.45,-40.95 q 1.45,2.6 0.65,6.4 l -0.25,1.95 q 0.1,0.7 0.9,1.8 7.25,10 15.2,19.45 l 7.3,-8.25 q 1.55,-1.75 1.9,-2.8 0.3,-0.85 0.3,-2.55 l -0.1,-4.15 q -0.05,-2.5 0.2,-4.15 0.75,-5.1 4.05,-6.95 1.4,-0.85 3.15,-0.85 1.75,-0.05 3.2,0.75 1.4,0.75 2.35,2.2 0.95,1.45 1.1,3.1 1.25,-1.3 2.95,-1.9 l 3.5,-0.45 q 1.75,0.2 3.3,1.15 1.6,0.95 2.55,2.45 1.1,1.65 1.75,4.95 0.6,3.1 0.25,4.95 -0.65,4.3 -4.95,7.15 -2.95,2 -8.4,3.2 -4.1,0.85 -5.65,1.8 l -2.1,1.65 -1.95,1.95 -4.8,4.85 -1.4,1.65 6.5,7 10.3,11 7.4,8.9 0.3,0.35 q 1,0.3 2.2,1.15 2.55,1.75 3.8,3.65 1.7,2.55 1.25,5.05 -0.2,1.55 -1.2,2.8 -1,1.25 -2.45,1.8 l -3,0.3 q -1.6,-0.2 -2.8,-1.2 -1.2,2.6 -4.95,3.6 -2.45,0.7 -4.3,0.05 -1.2,-0.4 -2.75,-1.95 -2.1,-2 -2.75,-4.05 -0.5,-1.55 -0.25,-3.65 l 0.65,-3.7 0.05,-1.15 Q 23.45,27.75 22.7,26.9 L 12.35,14.65 5.6,7.5 4.45,8.45 Q 0.9,11.05 -5.3,16.5 l -9.65,8.15 q -0.95,0.75 -1,1.35 l 0.4,1 q 2.5,4.25 2.15,7.15 -0.25,2.25 -1.9,4.15 -1.55,1.75 -3.8,2.75 -2.05,0.8 -3.55,0.8 -2.55,-0.05 -4.65,-2.05 -2,-1.9 -2.65,-4.6 L -33.2,35 q -1.6,-0.6 -2.8,-1.85 -2.15,-2.35 -2.4,-6.15 -0.15,-2.65 0.8,-4.5 0.85,-1.65 3.1,-3.45 3.85,-3.15 6.9,-2.55 l 1.45,0.2 q 0.45,-0.05 1.2,-0.6 4.2,-2.9 9.9,-7.65 l 9.55,-8 1.8,-1.35 q -8.1,-7.25 -15.15,-15.7 -3.85,2.9 -6.85,3.25 -2.15,0.2 -5.1,-0.7 -4.9,-1.5 -6.65,-4.35 -0.95,-1.6 -1,-3.65 0,-1.9 0.8,-3.7 1.55,-3.25 5.35,-5.35 2.05,-1.1 3.95,-1.4 -0.9,-2.05 -1,-4.3 -0.1,-2.7 0.95,-5 1.15,-2.4 3.4,-3.85 2.3,-1.5 4.8,-1.45 2.2,0.15 4.8,1.35 4.4,1.95 5.95,4.8 m 29.7,27.6 q 2.4,-2.4 3.9,-3.15 l 2.6,-0.8 2.65,-0.5 q 3.85,-0.75 7.25,-2.65 2,-1.1 2.8,-2.4 1.1,-1.9 0.2,-5.45 -0.95,-3.5 -3,-3.95 -1.75,-0.3 -3.5,1.7 l -1.25,1.65 -1.45,1.45 q -0.85,0.65 -1.9,0.7 -1.15,0 -1.8,-0.7 -0.5,-0.55 -0.6,-1.55 v -1.8 q 0,-1.9 -0.5,-3.55 -0.4,-1.1 -0.9,-1.4 l -1.2,-0.15 -1.1,0.65 q -0.6,0.7 -0.9,2.4 -0.4,2.7 -0.3,8.2 0.1,2.85 -0.4,4.2 -0.5,1.4 -2.55,3.65 l -8.2,9 2.15,2.5 0.75,-0.9 7.25,-7.15 M 36.7,28.35 32.5,23.8 Q 28.65,19.3 21.9,12.45 L 11.15,1.35 q -6.35,-6.9 -17,-20.3 L -13.1,-28 q -1.85,-2.25 -1.95,-3.75 -0.05,-0.9 0.65,-2.85 0.6,-1.85 0.4,-2.9 -0.35,-1.85 -2.95,-3.2 -3,-1.55 -4.95,-0.6 -2,0.95 -2.15,3.25 -0.2,1.95 1.15,3.9 l 1.2,1.6 q 0.6,0.95 0.55,1.75 -0.05,1.05 -0.95,1.7 l -0.4,0.75 q -0.55,0.7 -1.85,0.75 l -2.3,-0.05 q -1.45,0 -3.4,1.1 -1.7,0.95 -2.5,2.2 -0.45,0.7 -0.55,1.55 -0.1,0.9 0.3,1.6 0.6,1.05 2.45,1.75 2.4,0.85 4.4,0.65 2.5,-0.25 3.9,-1.95 l 1.3,-1.8 q 0.8,-1 1.65,-1.1 1.3,-0.15 2.9,1.9 7.45,9.55 15.95,16.95 L 4.45,-0.75 9,3.4 14.1,8.9 27.2,23.95 q 1.45,1.75 1.7,2.85 l -0.05,2.25 -0.55,2.2 q -0.85,3 0.3,4.85 0.7,1.1 2,1.45 1.4,0.35 2.25,-0.5 0.55,-0.5 1.1,-2.1 0.5,-1.45 1.2,-1.9 1.45,-0.9 3.5,0.6 l 1.6,1.05 Q 41.2,35.25 42,35.25 42.45,34.7 42.25,33.8 L 41.4,32.4 39.8,31.3 38.1,30.25 Q 37.25,29.6 36.85,28.7 L 36.75,28.4 36.7,28.35 M 1.1,3.3 -0.55,1.85 q -4.6,3.55 -8.05,6.9 l -3.5,3.4 -4.9,3.8 -4.65,4 -1.75,1.7 q -1.1,0.85 -2.15,0.8 l -1.35,-0.25 -1.35,-0.3 q -1.05,-0.05 -2.25,0.75 -1.35,0.95 -2.05,2.4 -0.7,1.5 -0.35,3 0.5,1.65 1.75,1.95 l 1.75,-0.2 q 2.7,-0.65 3.7,0.35 0.6,0.65 0.65,2.05 l 0.2,2.25 q 0.35,1.05 1.35,1.65 1.05,0.6 2.1,0.4 1.1,-0.2 1.9,-1 0.8,-0.85 1,-1.95 0.3,-1.45 -0.5,-3.15 l -1.9,-2.9 q -1.55,-2.05 -1.15,-3.35 0.25,-0.9 1.8,-2.05 4.45,-3.15 11.1,-8.9 L 1.7,4 1.8,3.95 1.1,3.3"
         fill="#000000"
         fill-rule="evenodd"
         stroke="none"
         id="path2" />
    </g>
    <g
       id="sprite1"
       transform="translate(17.4,15.85)">
      <use
         ffdec:characterId="31"
         height="57.200001"
         transform="matrix(0.5366,0,0,0.5366,-16.6582,-14.546)"
         width="70.75"
         xlink:href="#sprite2"
         id="use2" />
    </g>
    <g
       id="sprite2"
       transform="translate(-8.65,-10.35)">
      <use
         ffdec:characterId="30"
         height="57.200001"
         transform="translate(8.65,10.35)"
         width="70.75"
         xlink:href="#shape1"
         id="use3" />
    </g>
    <g
       id="shape1"
       transform="translate(-8.65,-10.35)">
      <path
         d="m 14.8,41.7 q 0.65,-1.75 2.65,-2.5 1.8,-0.8 3.7,-0.25 1.15,0.45 2.25,1.2 l 0.9,0.4 q 1.65,0.9 2.85,2.5 L 37.8,30.1 q 2.35,-2.8 3.75,-3.95 1.5,-1.15 4.25,-2.4 18.2,-8.85 27.65,-12.6 2.15,-0.8 3.25,-0.8 h 0.8 l 1.9,2.4 -0.2,0.8 q -0.2,1.1 -1.55,3 -5.85,8.25 -18.85,23.8 -1.85,2.35 -3.35,3.5 -1.4,1.15 -4.75,2.75 l -15.15,7.15 q 1.2,1.6 1.75,3.4 l 0.2,1 0.55,2.5 q 0.1,1.95 -1.1,3.55 -1.2,1.65 -3.05,1.9 l -1.3,0.05 q -1.65,0.2 -3.45,-0.65 -1.85,-0.9 -3,-2.6 L 25,60.95 23.8,62.1 q -2.6,2.85 -4.3,3.95 -2.85,1.8 -5.5,1.45 l -1.65,-0.5 -1.2,-0.7 -0.2,-0.2 q -1,-0.85 -1.6,-1.9 L 9.25,64 9.15,63.8 8.75,62.4 q -0.2,-0.8 -0.05,-1.7 0.25,-2.65 2.7,-5.05 1.5,-1.3 4.9,-3.15 L 17.7,51.55 16.05,50 q -1.35,-1.5 -1.8,-3.6 -0.4,-1.85 0.25,-3.45 l 0.3,-1.25"
         fill="#000000"
         fill-opacity="0.372549"
         fill-rule="evenodd"
         stroke="none"
         id="path3" />
    </g>
  </defs>
</svg>
