<?xml version="1.0" encoding="UTF-8" standalone="no"?>
<svg
   ffdec:objectType="frame"
   height="91.25"
   width="32.412903"
   version="1.1"
   id="svg3"
   xmlns:xlink="http://www.w3.org/1999/xlink"
   xmlns="http://www.w3.org/2000/svg"
   xmlns:svg="http://www.w3.org/2000/svg"
   xmlns:ffdec="https://www.free-decompiler.com/flash">
  <g
     transform="translate(16.556452,47.35)"
     id="g1">
    <use
       ffdec:characterId="17"
       height="119.15"
       id="rarity"
       transform="translate(-58.5,-60.65)"
       width="119.15"
       xlink:href="#sprite0" />
    <use
       ffdec:characterId="554"
       height="91.650002"
       transform="translate(-16.55,-47.35)"
       width="32.400002"
       xlink:href="#shape0"
       id="use1" />
  </g>
  <defs
     id="defs3">
    <g
       id="shape0"
       transform="translate(16.15,46.55)">
      <path
         d="m 0.05,38.35 -1.9,-0.1 -0.75,-0.4 -0.35,-0.15 q -2.65,1.15 -5.9,5 -1.15,1.45 -2.1,2 l -2.75,-0.1 q -1.05,-0.9 -0.65,-2.9 0.55,-2.8 4.05,-6.3 3.3,-3.3 5.85,-4.45 H -4.4 V 30.7 l -1.25,0.6 q -2,1.15 -3.65,2.75 l -1.25,1.3 q -0.75,0.7 -1.45,0.95 -1.35,0.5 -2.65,-0.35 -1.35,-0.85 -1.5,-2.3 -0.1,-1.55 1.35,-3.5 1.65,-2.1 4.3,-4.05 l 2.9,-1.9 q -1.2,0.35 -1.95,0.85 l -1.15,0.9 -1.2,0.7 -1.95,-0.1 q -1,-0.4 -1.35,-1.35 -0.7,-1.85 1.2,-4.05 1.7,-2 4.1,-3.1 2.4,-1.1 5,-1.1 L -4.35,17 -4.3,16.8 V 16.4 16.05 15.7 15.35 14.95 14.6 14.25 13.9 13.5 13.15 12.8 12.45 12.05 11.7 11.35 10.95 10.6 10.25 9.9 9.5 9.15 8.8 8.45 8.05 7.7 7.35 6.95 6.6 6.25 5.9 5.5 5.15 4.8 4.45 4.05 3.7 3.35 2.95 2.6 2.25 1.9 1.5 1.15 0.8 0.45 0.05 -0.3 -0.65 -1 -1.4 -1.75 -2.1 l 0.15,-0.4 V -2.85 -3.2 -3.55 -3.95 -4.3 -4.65 -5 -5.4 -5.75 -6.1 -6.5 -6.85 -7.2 -7.55 -7.95 -8.3 -8.65 -9 v -0.4 -0.35 -0.35 -0.4 -0.35 -0.35 -0.35 -0.4 -0.35 -0.35 -0.35 -0.4 -0.35 -0.35 -0.35 -0.4 -0.35 -0.35 -0.4 l 0.1,-0.35 v -0.35 -0.35 -0.4 -0.35 -0.35 -0.35 -0.4 -0.35 -0.35 -0.4 -0.35 -0.35 -0.35 -0.4 -0.35 -0.25 l -3.8,0.3 -3.35,0.15 q -2.05,-0.25 -2.8,-1.75 -0.85,-1.65 0.5,-3.85 l 1.2,-1.6 1.2,-1.65 1.15,-2 1.4,-1.9 2.45,-3.7 6.15,-8.55 6.15,8.55 2.45,3.7 1.4,1.9 1.15,2 1.2,1.65 1.2,1.6 q 1.35,2.2 0.5,3.85 -0.75,1.5 -2.8,1.75 L 7.95,-21.7 4.15,-22 v 0.25 0.35 0.4 0.35 0.35 0.35 0.4 0.35 0.35 0.4 0.35 0.35 0.35 0.4 0.35 0.35 l 0.1,0.35 v 0.4 0.35 0.35 0.4 0.35 0.35 0.35 0.4 0.35 0.35 0.35 0.4 0.35 0.35 0.35 0.4 0.35 0.35 0.4 0.35 0.35 0.35 0.4 0.35 0.35 0.35 0.4 0.35 0.35 0.4 0.35 0.35 0.35 0.4 0.35 0.35 0.35 L 4.4,-2.1 V -1.75 -1.4 -1 -0.65 -0.3 0.05 0.45 0.8 1.15 1.5 1.9 2.25 2.6 2.95 3.35 3.7 4.05 4.45 4.8 5.15 5.5 5.9 6.25 6.6 6.95 7.35 7.7 8.05 8.45 8.8 9.15 9.5 v 0.4 0.35 0.35 0.35 0.4 0.35 0.35 0.4 0.35 0.35 0.35 0.4 0.35 0.35 0.35 0.4 0.35 0.35 0.35 0.4 L 4.45,17 5,16.95 q 2.6,0 5,1.1 2.4,1.1 4.1,3.1 1.9,2.2 1.2,4.05 -0.35,0.95 -1.35,1.35 L 12,26.65 10.8,25.95 9.65,25.05 Q 8.9,24.55 7.7,24.2 l 2.9,1.9 q 2.65,1.95 4.3,4.05 1.45,1.95 1.35,3.5 -0.15,1.45 -1.5,2.3 -1.3,0.85 -2.65,0.35 -0.7,-0.25 -1.45,-0.95 L 9.4,34.05 Q 7.75,32.45 5.75,31.3 L 4.5,30.7 v 0.25 h 0.05 q 2.55,1.15 5.85,4.45 3.5,3.5 4.05,6.3 0.4,2 -0.65,2.9 l -2.75,0.1 -2.1,-2 q -3.25,-3.85 -5.9,-5 l -0.35,0.15 -0.75,0.4 -1.9,0.1"
         fill="#000000"
         fill-rule="evenodd"
         stroke="none"
         id="path1" />
    </g>
    <g
       id="sprite1"
       transform="translate(17.4,15.85)">
      <use
         ffdec:characterId="31"
         height="57.200001"
         transform="matrix(0.5366,0,0,0.5366,-16.6582,-14.546)"
         width="70.75"
         xlink:href="#sprite2"
         id="use2" />
    </g>
    <g
       id="sprite2"
       transform="translate(-8.65,-10.35)">
      <use
         ffdec:characterId="30"
         height="57.200001"
         transform="translate(8.65,10.35)"
         width="70.75"
         xlink:href="#shape1"
         id="use3" />
    </g>
    <g
       id="shape1"
       transform="translate(-8.65,-10.35)">
      <path
         d="m 14.8,41.7 q 0.65,-1.75 2.65,-2.5 1.8,-0.8 3.7,-0.25 1.15,0.45 2.25,1.2 l 0.9,0.4 q 1.65,0.9 2.85,2.5 L 37.8,30.1 q 2.35,-2.8 3.75,-3.95 1.5,-1.15 4.25,-2.4 18.2,-8.85 27.65,-12.6 2.15,-0.8 3.25,-0.8 h 0.8 l 1.9,2.4 -0.2,0.8 q -0.2,1.1 -1.55,3 -5.85,8.25 -18.85,23.8 -1.85,2.35 -3.35,3.5 -1.4,1.15 -4.75,2.75 l -15.15,7.15 q 1.2,1.6 1.75,3.4 l 0.2,1 0.55,2.5 q 0.1,1.95 -1.1,3.55 -1.2,1.65 -3.05,1.9 l -1.3,0.05 q -1.65,0.2 -3.45,-0.65 -1.85,-0.9 -3,-2.6 L 25,60.95 23.8,62.1 q -2.6,2.85 -4.3,3.95 -2.85,1.8 -5.5,1.45 l -1.65,-0.5 -1.2,-0.7 -0.2,-0.2 q -1,-0.85 -1.6,-1.9 L 9.25,64 9.15,63.8 8.75,62.4 q -0.2,-0.8 -0.05,-1.7 0.25,-2.65 2.7,-5.05 1.5,-1.3 4.9,-3.15 L 17.7,51.55 16.05,50 q -1.35,-1.5 -1.8,-3.6 -0.4,-1.85 0.25,-3.45 l 0.3,-1.25"
         fill="#000000"
         fill-opacity="0.372549"
         fill-rule="evenodd"
         stroke="none"
         id="path3" />
    </g>
  </defs>
</svg>
