<?xml version="1.0" encoding="UTF-8" standalone="no"?>
<svg
   ffdec:objectType="frame"
   height="83.025002"
   width="81.501251"
   version="1.1"
   id="svg4"
   sodipodi:docname="ITEM Ancestor's Jaw.svg"
   xmlns:inkscape="http://www.inkscape.org/namespaces/inkscape"
   xmlns:sodipodi="http://sodipodi.sourceforge.net/DTD/sodipodi-0.dtd"
   xmlns:xlink="http://www.w3.org/1999/xlink"
   xmlns="http://www.w3.org/2000/svg"
   xmlns:svg="http://www.w3.org/2000/svg"
   xmlns:ffdec="https://www.free-decompiler.com/flash">
  <sodipodi:namedview
     id="namedview4"
     pagecolor="#ffffff"
     bordercolor="#000000"
     borderopacity="0.25"
     inkscape:showpageshadow="2"
     inkscape:pageopacity="0.0"
     inkscape:pagecheckerboard="0"
     inkscape:deskcolor="#d1d1d1"
     fit-margin-top="5"
     fit-margin-left="5"
     fit-margin-right="5"
     fit-margin-bottom="5" />
  <g
     transform="translate(41.50125,42.025)"
     id="g1">
    <use
       ffdec:characterId="17"
       height="119.15"
       id="rarity"
       transform="translate(-58.5,-60.65)"
       width="119.15"
       xlink:href="#sprite0" />
    <use
       ffdec:characterId="1062"
       height="83.050003"
       transform="translate(-41.5,-42.05)"
       width="81.5"
       xlink:href="#shape0"
       id="use1" />
  </g>
  <defs
     id="defs4">
    <g
       id="shape0"
       transform="translate(88.3,43.4)">
      <path
         d="m -17.45,39.35 -3,0.3 -3.05,-0.35 -12.05,-1.25 -12.1,-1.3 Q -61.8,34.65 -70.6,29.3 -74.65,26.9 -76.55,24 -77.9,22 -78.85,17.95 -81.5,6.65 -79.75,-4.9 -82.6,-6 -84,-6.8 q -2.2,-1.35 -3.25,-3.15 -1.45,-2.4 -0.9,-6 0.55,-3.8 3.25,-6.9 2.7,-3.05 6.45,-4.15 1.8,-0.55 2.3,-1.1 0.5,-0.65 0.6,-2.15 0.5,-4.15 2.95,-7.55 2.5,-3.5 6.2,-4.85 3.85,-1.45 7.95,0 4.15,1.5 5.85,5.1 2.25,4.8 -0.7,13.05 -1.15,3.25 -1.15,4.8 0,1.2 1,4.65 2.25,7 2.8,14.3 l 0.05,-0.15 0.75,-1.3 q 1.25,-2.45 2.7,-3.1 l 1.75,-0.3 0.15,-2.75 -0.1,-0.85 q -0.25,-0.4 -1.25,-0.75 -1.95,-0.6 -3.3,-2.4 -1.3,-1.75 -1.4,-3.9 -0.1,-2 0.8,-4 0.9,-1.95 2.5,-3.35 3,-2.65 7.65,-3.15 0.85,-4.35 2.1,-8.3 1.1,-3.7 3,-4.75 1.45,-0.8 4.4,-0.4 2.45,0.3 3.8,1.1 1.8,1.1 2.65,3.45 0.7,2 0.55,4.55 -0.15,3.2 -2.2,10.55 -1.9,6.7 -1.65,10.55 l 0.5,3.7 0.85,3.1 q 0.6,1.2 1.8,2.1 1.75,-1.6 4.8,-1.4 2.2,0.1 3.65,1 1.8,1.1 2.15,2.95 l 0.1,0.7 1.25,-0.05 2,0.3 1.65,0.95 q 1.6,1.35 1.95,3.2 l 0.2,1.95 q 0,2.1 -0.5,3.45 l -1.95,4.45 q -0.9,2.05 -1.35,2.6 l -0.5,0.55 q 0.85,1.7 0.85,5.45 -0.1,5.4 -1.3,8.5 -0.85,2.1 -2.3,3.65 -1.6,1.65 -3.6,2.2 m -50.95,-67.4 0.25,3.15 q 0.1,1.75 -0.7,2.8 -0.75,1 -2.35,1.45 l -2.9,0.5 q -1.85,0.3 -3.3,1.25 -1.6,1.05 -2.3,2.6 -0.55,1.3 -0.15,2.2 0.35,0.95 2,1.55 l 3.75,0.9 q 2.15,0.6 2.9,1.95 0.6,1.1 0.3,2.75 l -0.8,2.85 q -1.3,4 -1.05,9.15 0.1,3.55 1.15,9.3 0.6,3.35 1.5,4.8 1.3,2.05 4.95,4 6.5,3.3 16.3,5.05 l 17.6,1.95 10,0.85 1.85,-0.15 q 0.95,-0.35 1.35,-1.5 0.35,-0.95 0.2,-2.2 l -0.2,-2.2 q -0.1,-1.25 0.3,-2.1 -3.7,2.85 -8.4,2.2 -2.6,-0.3 -4.5,-2 -2.05,-1.8 -1.9,-4.15 -3.65,2.6 -6.95,3 l -3.8,-0.25 q -1.95,-0.6 -3.25,-1.95 -1.35,-1.4 -1.65,-3.35 -0.3,-2.05 0.7,-3.65 -2.8,-0.05 -5.3,-1.6 -2.55,-1.55 -3.8,-4.05 -1.2,-2.4 -1.7,-7.45 -1.1,-10.95 -2.5,-16.15 -1.05,-3.75 -0.9,-5.5 0.1,-1.45 1.35,-4.6 l 1.3,-4.55 q 0.5,-1.8 0.05,-2.9 -0.35,-0.95 -1.3,-1.5 -0.9,-0.55 -1.95,-0.5 -1.9,0.05 -3.65,1.75 -2.65,2.65 -2.5,6.3 m 44.85,46.1 1.85,-0.9 0.2,-1.45 0.45,-2.55 0.6,-2.55 0.95,-2.7 0.4,-2.1 0.15,-2.55 q 0,-0.4 -0.15,-0.55 l -0.6,-0.2 -1.25,0.15 -0.55,0.95 -0.95,2.9 -0.25,0.8 -2.4,11.25 1.55,-0.5 m 11.05,-10.4 -0.35,0.4 -1.45,5.8 q -0.35,1.6 -0.3,2.75 l 0.2,0.1 0.9,-2.75 0.9,-3.15 q 0.35,-1.75 0.1,-3.15 M -37.6,14 q 1.65,-0.95 2.6,-1.35 l 0.3,-1.2 q 1.2,-2.75 1.65,-4.2 0.45,-1.25 0.7,-3.15 0.4,-2.5 -0.3,-3.65 -0.55,0.05 -1.15,0.85 -1.5,1.85 -2.75,4.5 l -1.35,3.5 -1.95,5.7 v 0.05 q 1,-0.3 2.25,-1.05 m -7.3,-7.95 0.8,0.4 0.6,-2.55 0.1,-1.05 -0.45,-1.4 -0.8,-1.8 -1.15,2.5 -0.5,1.45 -0.2,1.35 -0.1,0.55 q 1.15,0.3 1.7,0.55 m -18.4,8 q 0.55,-0.95 1.65,-1.35 l 2.1,0.15 q 0.95,0.45 1.4,1.55 0.4,1.15 0,2.15 -0.4,1 -1.5,1.45 l -2.15,0.1 q -1.2,-0.4 -1.7,-1.65 -0.45,-1.25 0.2,-2.4 M -67.65,8.8 -67.9,7.85 q -0.05,-1.1 0.75,-2.05 0.8,-0.9 1.9,-1 1.1,-0.1 2.05,0.65 0.95,0.7 1.15,1.8 0.15,1.15 -0.55,2.15 -0.65,1 -1.75,1.2 -1.4,0.3 -2.55,-0.65 L -67.65,8.8"
         fill="#000000"
         fill-rule="evenodd"
         stroke="none"
         id="path1" />
      <path
         d="m -68.4,-28.05 q -0.15,-3.65 2.5,-6.3 1.75,-1.7 3.65,-1.75 1.05,-0.05 1.95,0.5 0.95,0.55 1.3,1.5 0.45,1.1 -0.05,2.9 l -1.3,4.55 q -1.25,3.15 -1.35,4.6 -0.15,1.75 0.9,5.5 1.4,5.2 2.5,16.15 0.5,5.05 1.7,7.45 1.25,2.5 3.8,4.05 2.5,1.55 5.3,1.6 -1,1.6 -0.7,3.65 0.3,1.95 1.65,3.35 1.3,1.35 3.25,1.95 l 3.8,0.25 q 3.3,-0.4 6.95,-3 -0.15,2.35 1.9,4.15 1.9,1.7 4.5,2 4.7,0.65 8.4,-2.2 -0.4,0.85 -0.3,2.1 l 0.2,2.2 q 0.15,1.25 -0.2,2.2 -0.4,1.15 -1.35,1.5 l -1.85,0.15 -10,-0.85 -17.6,-1.95 q -9.8,-1.75 -16.3,-5.05 -3.65,-1.95 -4.95,-4 Q -71,17.7 -71.6,14.35 -72.65,8.6 -72.75,5.05 -73,-0.1 -71.7,-4.1 l 0.8,-2.85 q 0.3,-1.65 -0.3,-2.75 -0.75,-1.35 -2.9,-1.95 l -3.75,-0.9 q -1.65,-0.6 -2,-1.55 -0.4,-0.9 0.15,-2.2 0.7,-1.55 2.3,-2.6 1.45,-0.95 3.3,-1.25 l 2.9,-0.5 q 1.6,-0.45 2.35,-1.45 0.8,-1.05 0.7,-2.8 l -0.25,-3.15 m 0.75,36.85 0.75,1.15 q 1.15,0.95 2.55,0.65 1.1,-0.2 1.75,-1.2 0.7,-1 0.55,-2.15 -0.2,-1.1 -1.15,-1.8 -0.95,-0.75 -2.05,-0.65 -1.1,0.1 -1.9,1 -0.8,0.95 -0.75,2.05 l 0.25,0.95 m 4.35,5.25 q -0.65,1.15 -0.2,2.4 0.5,1.25 1.7,1.65 l 2.15,-0.1 q 1.1,-0.45 1.5,-1.45 0.4,-1 0,-2.15 -0.45,-1.1 -1.4,-1.55 l -2.1,-0.15 q -1.1,0.4 -1.65,1.35"
         fill="#111111"
         fill-rule="evenodd"
         stroke="none"
         id="path2" />
      <path
         d="M -44.9,6.05 Q -45.45,5.8 -46.6,5.5 l 0.1,-0.55 0.2,-1.35 0.5,-1.45 1.15,-2.5 0.8,1.8 0.45,1.4 -0.1,1.05 -0.6,2.55 -0.8,-0.4 m 7.3,7.95 q -1.25,0.75 -2.25,1.05 V 15 l 1.95,-5.7 1.35,-3.5 q 1.25,-2.65 2.75,-4.5 0.6,-0.8 1.15,-0.85 0.7,1.15 0.3,3.65 -0.25,1.9 -0.7,3.15 -0.45,1.45 -1.65,4.2 l -0.3,1.2 q -0.95,0.4 -2.6,1.35 m 25.1,-6.35 q 0.25,1.4 -0.1,3.15 l -0.9,3.15 -0.9,2.75 -0.2,-0.1 q -0.05,-1.15 0.3,-2.75 l 1.45,-5.8 0.35,-0.4 m -11.05,10.4 -1.55,0.5 2.4,-11.25 0.25,-0.8 0.95,-2.9 0.55,-0.95 1.25,-0.15 0.6,0.2 q 0.15,0.15 0.15,0.55 l -0.15,2.55 -0.4,2.1 -0.95,2.7 -0.6,2.55 -0.45,2.55 -0.2,1.45 -1.85,0.9"
         fill="#e9e9e9"
         fill-rule="evenodd"
         stroke="none"
         id="path3" />
    </g>
    <g
       id="sprite1"
       transform="translate(17.4,15.85)">
      <use
         ffdec:characterId="31"
         height="57.200001"
         transform="matrix(0.5366,0,0,0.5366,-16.6582,-14.546)"
         width="70.75"
         xlink:href="#sprite2"
         id="use3" />
    </g>
    <g
       id="sprite2"
       transform="translate(-8.65,-10.35)">
      <use
         ffdec:characterId="30"
         height="57.200001"
         transform="translate(8.65,10.35)"
         width="70.75"
         xlink:href="#shape1"
         id="use4" />
    </g>
    <g
       id="shape1"
       transform="translate(-8.65,-10.35)">
      <path
         d="m 14.8,41.7 q 0.65,-1.75 2.65,-2.5 1.8,-0.8 3.7,-0.25 1.15,0.45 2.25,1.2 l 0.9,0.4 q 1.65,0.9 2.85,2.5 L 37.8,30.1 q 2.35,-2.8 3.75,-3.95 1.5,-1.15 4.25,-2.4 18.2,-8.85 27.65,-12.6 2.15,-0.8 3.25,-0.8 h 0.8 l 1.9,2.4 -0.2,0.8 q -0.2,1.1 -1.55,3 -5.85,8.25 -18.85,23.8 -1.85,2.35 -3.35,3.5 -1.4,1.15 -4.75,2.75 l -15.15,7.15 q 1.2,1.6 1.75,3.4 l 0.2,1 0.55,2.5 q 0.1,1.95 -1.1,3.55 -1.2,1.65 -3.05,1.9 l -1.3,0.05 q -1.65,0.2 -3.45,-0.65 -1.85,-0.9 -3,-2.6 L 25,60.95 23.8,62.1 q -2.6,2.85 -4.3,3.95 -2.85,1.8 -5.5,1.45 l -1.65,-0.5 -1.2,-0.7 -0.2,-0.2 q -1,-0.85 -1.6,-1.9 L 9.25,64 9.15,63.8 8.75,62.4 q -0.2,-0.8 -0.05,-1.7 0.25,-2.65 2.7,-5.05 1.5,-1.3 4.9,-3.15 L 17.7,51.55 16.05,50 q -1.35,-1.5 -1.8,-3.6 -0.4,-1.85 0.25,-3.45 l 0.3,-1.25"
         fill="#000000"
         fill-opacity="0.372549"
         fill-rule="evenodd"
         stroke="none"
         id="path4" />
    </g>
  </defs>
</svg>
