<?xml version="1.0" encoding="UTF-8" standalone="no"?>
<svg
   ffdec:objectType="frame"
   height="79.581535"
   width="81.451279"
   version="1.1"
   id="svg4"
   sodipodi:docname="ITEM Amoeba.svg"
   xmlns:inkscape="http://www.inkscape.org/namespaces/inkscape"
   xmlns:sodipodi="http://sodipodi.sourceforge.net/DTD/sodipodi-0.dtd"
   xmlns:xlink="http://www.w3.org/1999/xlink"
   xmlns="http://www.w3.org/2000/svg"
   xmlns:svg="http://www.w3.org/2000/svg"
   xmlns:ffdec="https://www.free-decompiler.com/flash">
  <sodipodi:namedview
     id="namedview4"
     pagecolor="#ffffff"
     bordercolor="#000000"
     borderopacity="0.25"
     inkscape:showpageshadow="2"
     inkscape:pageopacity="0.0"
     inkscape:pagecheckerboard="0"
     inkscape:deskcolor="#d1d1d1"
     fit-margin-top="5"
     fit-margin-left="5"
     fit-margin-right="5"
     fit-margin-bottom="5" />
  <g
     transform="translate(41.716667,44.75)"
     id="g1">
    <use
       ffdec:characterId="17"
       height="119.15"
       id="rarity"
       transform="translate(-58.5,-60.65)"
       width="119.15"
       xlink:href="#sprite0" />
    <use
       ffdec:characterId="1012"
       height="79.800003"
       transform="translate(-41.7,-44.95)"
       width="81.449997"
       xlink:href="#shape0"
       id="use1" />
  </g>
  <defs
     id="defs4">
    <g
       id="shape0"
       transform="translate(88.5,46.3)">
      <path
         d="m -63.6,30.45 q -1.2,0.15 -2.95,0.8 l -2.85,1.05 -4.25,0.45 q -1.8,-0.2 -3.85,-0.95 -2.65,-1.05 -4.35,-2.65 L -85.35,25 q -2.25,-3.05 -2.75,-4.9 -0.5,-1.65 -0.4,-4.2 0.15,-7.5 2.75,-14 2.8,-7.05 8,-11.5 l 5.8,-4.05 5.55,-3.4 q 3.1,-1.75 5.85,-2.65 l 5.55,-1.35 q 8.2,-1.6 13.75,-1.5 l 1.35,-0.4 3.75,-0.85 q 4.7,-1.15 6.75,-3.4 l 1.5,-2.2 q 1.15,-2.1 1.15,-3.6 0,-1.2 -0.65,-2.3 -0.65,-1.1 -1.7,-1.7 -2.2,-1.35 -4.75,-0.5 -0.8,0.2 -1.2,0.7 l -0.55,2 q -0.3,2.2 -1.95,3.6 -1.8,1.65 -4.5,1.65 -2.05,0 -3.6,-1.1 -1.5,-1.05 -2.1,-2.95 -0.55,-1.85 -0.1,-3.75 0.75,-3.35 4.3,-5.9 2.7,-1.9 6.05,-2.6 l 6.65,-0.25 q 4.2,0.6 6.55,2.75 l 2.15,2.55 q 1.25,2.05 1.65,3.35 0.85,2.95 -0.1,6.35 -1.45,5.2 -6.45,9.7 -0.9,0.8 -1.75,1.45 l 1.8,0.95 3.45,3 4.05,3.95 q 2.4,2.4 3.35,3.8 1,1.45 2.45,4.75 l 2.85,4.65 q 3.45,5.8 3.75,11.5 0.15,2.3 -0.35,6.9 -0.3,2.7 -0.75,4 -1.3,3.45 -5.5,5.7 -5.9,3.2 -12.55,2 l -3.7,-0.85 -3.75,-0.3 q -1.4,0.15 -3.3,0.95 l -3.15,1.35 q -6.55,2.45 -16.5,-0.65 l -3.45,-1.05 -3.5,-0.25 m 1.65,-34.7 0.8,-0.2 2.35,-0.15 2.2,0.15 q 1.05,0.25 2.25,1.25 2.65,2.2 2.45,4.85 0,0.7 -0.35,1.55 -0.9,2.85 -2.85,4.55 -2.25,2.1 -4.95,1.85 Q -61.65,9.5 -63.6,8.4 -64.85,7.8 -65.55,7 -66.2,6.25 -66.65,4.75 L -67,2.7 l 2.3,-1.5 1,-0.9 q 1.6,-1.6 1.75,-3.95 v -0.6 M -13.9,22.1 q 0.6,-1.05 0.9,-3.2 0.75,-6.3 -0.6,-10.3 -0.65,-1.95 -2.25,-4.55 l -2.65,-4.4 -2.1,-3.8 q -1.35,-2.2 -5.6,-6.45 -1.85,-1.8 -2.85,-2.6 -1.7,-1.35 -3.3,-1.95 -2.1,-0.85 -6.15,-0.95 l -11,0.3 q -6,0.65 -10.55,2.7 -2.45,1.1 -7.05,4 -6,3.75 -8.5,6.6 -4.5,5.25 -5.95,14.7 -0.55,3.5 -0.05,5.6 0.55,2.4 2.9,5.1 2.7,3.15 5.4,3.4 1.4,0.15 4.2,-0.75 4.2,-1.4 7,-1.4 2.6,0 7.1,1.5 4.85,1.6 7.05,1.8 3.4,0.3 6.6,-0.9 3.5,-1.75 5.35,-2.2 l 6.35,0.2 6.4,1.05 q 3.1,0.15 6,-1 2.35,-0.9 3.35,-2.5"
         fill="#000000"
         fill-rule="evenodd"
         stroke="none"
         id="path1" />
      <path
         d="m -61.95,-4.25 -0.1,-0.8 Q -62.5,-6.6 -64.2,-7.3 l -3.15,-0.15 -2.9,1.35 q -1.5,0.9 -4.1,3.1 -1.55,1.4 -1.95,2.5 -0.35,1.1 0.1,2.25 0.5,1.15 1.5,1.7 l 1.75,0.5 2.55,0.05 1.95,-0.6 1.45,-0.7 0.35,2.05 q 0.45,1.5 1.1,2.25 0.7,0.8 1.95,1.4 1.95,1.1 3.55,1.2 2.7,0.25 4.95,-1.85 1.95,-1.7 2.85,-4.55 0.35,-0.85 0.35,-1.55 0.2,-2.65 -2.45,-4.85 -1.2,-1 -2.25,-1.25 l -2.2,-0.15 -2.35,0.15 -0.8,0.2 M -13.9,22.1 q -1,1.6 -3.35,2.5 -2.9,1.15 -6,1 l -6.4,-1.05 -6.35,-0.2 q -1.85,0.45 -5.35,2.2 -3.2,1.2 -6.6,0.9 -2.2,-0.2 -7.05,-1.8 -4.5,-1.5 -7.1,-1.5 -2.8,0 -7,1.4 -2.8,0.9 -4.2,0.75 -2.7,-0.25 -5.4,-3.4 -2.35,-2.7 -2.9,-5.1 -0.5,-2.1 0.05,-5.6 1.45,-9.45 5.95,-14.7 2.5,-2.85 8.5,-6.6 4.6,-2.9 7.05,-4 4.55,-2.05 10.55,-2.7 l 11,-0.3 q 4.05,0.1 6.15,0.95 1.6,0.6 3.3,1.95 1,0.8 2.85,2.6 4.25,4.25 5.6,6.45 l 2.1,3.8 2.65,4.4 q 1.6,2.6 2.25,4.55 1.35,4 0.6,10.3 -0.3,2.15 -0.9,3.2 m -59.4,-4.05 q 0.8,-0.2 1.45,-0.9 0.6,-0.65 0.65,-1.5 0.1,-0.85 -0.3,-1.65 -0.45,-0.75 -1.25,-1.15 L -74.4,12.6 q -0.9,0.15 -1.5,0.75 -0.6,0.55 -0.75,1.45 -0.2,0.9 0.15,1.7 0.4,0.85 1.3,1.3 l 1.9,0.25 m 51.8,-5.15 q -1.1,0.25 -1.85,1.2 -0.75,0.95 -0.85,2.1 -0.15,1.25 0.55,2.2 0.55,0.7 1.75,1.15 l 2.5,0.2 q 1.65,-0.4 2.15,-2.2 0.65,-2.05 -0.75,-3.6 -0.65,-0.7 -1.6,-1 l -1.9,-0.05"
         fill="#5f645e"
         fill-opacity="0.498039"
         fill-rule="evenodd"
         stroke="none"
         id="path2" />
      <path
         d="M -67,2.7 -68.45,3.4 -70.4,4 -72.95,3.95 -74.7,3.45 q -1,-0.55 -1.5,-1.7 -0.45,-1.15 -0.1,-2.25 0.4,-1.1 1.95,-2.5 2.6,-2.2 4.1,-3.1 l 2.9,-1.35 3.15,0.15 q 1.7,0.7 2.15,2.25 l 0.1,0.8 v 0.6 Q -62.1,-1.3 -63.7,0.3 l -1,0.9 -2.3,1.5 m 45.5,10.2 1.9,0.05 q 0.95,0.3 1.6,1 1.4,1.55 0.75,3.6 -0.5,1.8 -2.15,2.2 l -2.5,-0.2 q -1.2,-0.45 -1.75,-1.15 -0.7,-0.95 -0.55,-2.2 0.1,-1.15 0.85,-2.1 0.75,-0.95 1.85,-1.2 m -51.8,5.15 -1.9,-0.25 q -0.9,-0.45 -1.3,-1.3 -0.35,-0.8 -0.15,-1.7 0.15,-0.9 0.75,-1.45 0.6,-0.6 1.5,-0.75 l 1.65,0.25 q 0.8,0.4 1.25,1.15 0.4,0.8 0.3,1.65 -0.05,0.85 -0.65,1.5 -0.65,0.7 -1.45,0.9"
         fill="#ffffff"
         fill-opacity="0.498039"
         fill-rule="evenodd"
         stroke="none"
         id="path3" />
    </g>
    <g
       id="sprite1"
       transform="translate(17.4,15.85)">
      <use
         ffdec:characterId="31"
         height="57.200001"
         transform="matrix(0.5366,0,0,0.5366,-16.6582,-14.546)"
         width="70.75"
         xlink:href="#sprite2"
         id="use3" />
    </g>
    <g
       id="sprite2"
       transform="translate(-8.65,-10.35)">
      <use
         ffdec:characterId="30"
         height="57.200001"
         transform="translate(8.65,10.35)"
         width="70.75"
         xlink:href="#shape1"
         id="use4" />
    </g>
    <g
       id="shape1"
       transform="translate(-8.65,-10.35)">
      <path
         d="m 14.8,41.7 q 0.65,-1.75 2.65,-2.5 1.8,-0.8 3.7,-0.25 1.15,0.45 2.25,1.2 l 0.9,0.4 q 1.65,0.9 2.85,2.5 L 37.8,30.1 q 2.35,-2.8 3.75,-3.95 1.5,-1.15 4.25,-2.4 18.2,-8.85 27.65,-12.6 2.15,-0.8 3.25,-0.8 h 0.8 l 1.9,2.4 -0.2,0.8 q -0.2,1.1 -1.55,3 -5.85,8.25 -18.85,23.8 -1.85,2.35 -3.35,3.5 -1.4,1.15 -4.75,2.75 l -15.15,7.15 q 1.2,1.6 1.75,3.4 l 0.2,1 0.55,2.5 q 0.1,1.95 -1.1,3.55 -1.2,1.65 -3.05,1.9 l -1.3,0.05 q -1.65,0.2 -3.45,-0.65 -1.85,-0.9 -3,-2.6 L 25,60.95 23.8,62.1 q -2.6,2.85 -4.3,3.95 -2.85,1.8 -5.5,1.45 l -1.65,-0.5 -1.2,-0.7 -0.2,-0.2 q -1,-0.85 -1.6,-1.9 L 9.25,64 9.15,63.8 8.75,62.4 q -0.2,-0.8 -0.05,-1.7 0.25,-2.65 2.7,-5.05 1.5,-1.3 4.9,-3.15 L 17.7,51.55 16.05,50 q -1.35,-1.5 -1.8,-3.6 -0.4,-1.85 0.25,-3.45 l 0.3,-1.25"
         fill="#000000"
         fill-opacity="0.372549"
         fill-rule="evenodd"
         stroke="none"
         id="path4" />
    </g>
  </defs>
</svg>
