<?xml version="1.0" encoding="UTF-8" standalone="no"?>
<svg
   ffdec:objectType="frame"
   height="96.714516"
   width="95.008095"
   version="1.1"
   id="svg5"
   xmlns:xlink="http://www.w3.org/1999/xlink"
   xmlns="http://www.w3.org/2000/svg"
   xmlns:svg="http://www.w3.org/2000/svg"
   xmlns:ffdec="https://www.free-decompiler.com/flash">
  <g
     transform="translate(47.802381,48.75)"
     id="g1">
    <use
       ffdec:characterId="17"
       height="119.15"
       id="rarity"
       transform="translate(-58.5,-60.65)"
       width="119.15"
       xlink:href="#sprite0" />
    <use
       ffdec:characterId="562"
       height="96.699997"
       transform="translate(-47.8,-48.75)"
       width="95"
       xlink:href="#shape0"
       id="use1" />
  </g>
  <defs
     id="defs5">
    <g
       id="shape0"
       transform="translate(47.4,47.95)">
      <path
         d="m 11.8,-19.9 0.1,-0.1 0.1,-0.1 0.15,-0.15 0.15,-0.15 0.1,-0.1 0.15,-0.1 0.15,-0.15 0.1,-0.1 0.15,-0.15 0.15,-0.15 0.1,-0.1 0.1,-0.1 0.15,-0.15 0.15,-0.1 0.1,-0.15 0.15,-0.1 0.15,-0.15 0.1,-0.1 0.15,-0.15 0.15,-0.1 0.1,-0.15 0.1,-0.1 0.15,-0.1 0.15,-0.15 0.1,-0.15 0.15,-0.1 0.15,-0.15 0.05,-0.15 0.15,-0.1 0.1,-0.15 0.15,-0.15 0.15,-0.1 0.1,-0.1 0.15,-0.15 0.1,-0.15 0.15,-0.1 0.15,-0.15 0.1,-0.1 0.15,-0.1 0.1,-0.15 0.15,-0.15 0.15,-0.1 0.1,-0.1 0.15,-0.15 0.1,-0.1 0.15,-0.15 0.1,-0.1 0.15,-0.15 0.15,-0.1 0.1,-0.15 0.15,-0.1 0.15,-0.15 0.1,-0.1 0.1,-0.1 0.2,-0.15 0.1,-0.15 0.1,-0.1 0.15,-0.15 0.15,-0.1 0.1,-0.1 0.15,-0.15 0.15,-0.15 0.1,-0.1 0.15,-0.1 0.15,-0.15 0.1,-0.15 0.1,-0.1 0.15,-0.1 v -0.05 h 0.1 l 0.05,-0.1 0.1,-0.1 0.15,-0.15 0.15,-0.15 0.1,-0.1 0.15,-0.1 0.15,-0.15 0.1,-0.1 0.1,-0.15 0.15,-0.1 0.15,-0.15 0.1,-0.1 0.15,-0.15 0.15,-0.1 0.1,-0.15 0.15,-0.1 0.1,-0.1 0.15,-0.15 0.15,-0.15 0.1,-0.1 0.15,-0.15 0.1,-0.1 0.15,-0.1 0.15,-0.15 0.1,-0.15 0.15,-0.1 0.1,-0.1 0.15,-0.15 0.15,-0.15 0.1,-0.1 0.15,-0.15 0.1,-0.1 0.15,-0.1 0.1,-0.15 0.15,-0.15 0.15,-0.1 0.1,-0.1 0.15,-0.15 0.15,-0.1 0.1,-0.15 0.1,-0.1 0.15,-0.15 0.15,-0.1 0.1,-0.15 0.15,-0.1 0.15,-0.15 0.1,-0.1 0.15,-0.1 0.15,-0.15 0.1,-0.15 0.15,-0.1 0.15,-0.15 0.1,-0.1 0.1,-0.1 0.15,-0.15 0.15,-0.15 0.1,-0.1 0.15,-0.1 0.15,-0.15 0.05,-0.05 -0.15,-0.35 q -0.75,-1.65 -0.15,-2.65 0.5,-0.65 1.3,-0.75 0.75,-0.05 1.35,0.55 l 0.35,0.6 0.1,-0.1 0.1,-0.1 0.15,-0.15 0.15,-0.1 0.1,-0.1 0.15,-0.15 0.1,-0.15 0.15,-0.1 0.1,-0.1 0.15,-0.15 0.15,-0.15 0.1,-0.1 0.15,-0.15 0.15,-0.1 0.1,-0.1 0.1,-0.15 0.15,-0.15 0.15,-0.1 0.1,-0.1 0.15,-0.15 0.15,-0.1 0.1,-0.15 0.15,-0.1 0.15,-0.15 0.1,-0.1 0.1,-0.15 0.2,-0.1 0.1,-0.15 0.1,-0.1 0.15,-0.15 0.15,-0.1 0.1,-0.15 0.15,-0.1 0.15,-0.15 0.1,-0.1 0.15,-0.1 0.15,-0.15 0.1,-0.15 0.1,-0.1 0.15,-0.1 0.15,-0.15 0.1,-0.15 0.15,-0.1 0.15,-0.15 0.1,-0.1 0.15,-0.1 0.1,-0.15 0.15,-0.15 0.1,-0.1 0.15,-0.1 0.15,-0.15 0.1,-0.1 0.15,-0.15 0.1,-0.1 0.15,-0.15 0.15,-0.1 0.1,-0.15 0.15,-0.1 0.15,-0.15 0.1,-0.1 0.15,-0.15 0.1,-0.1 0.15,-0.15 0.1,-0.1 0.15,-0.15 0.15,-0.1 0.1,-0.1 0.15,-0.15 0.15,-0.15 0.1,-0.1 0.1,-0.1 0.15,-0.15 0.15,-0.15 0.1,-0.1 q 0.1,0 0.2,-0.1 l 0.15,-0.1 0.1,-0.1 0.2,-0.1 0.2,-0.05 h 0.2 l 0.25,0.05 0.45,0.1 0.2,0.2 q 2.35,-0.25 4.35,2.75 v -0.05 q 2.3,4.95 -2.4,8.45 l -3.15,2.55 -4.1,3.7 q 0.1,1.15 -0.35,1.65 -0.35,0.45 -1.05,0.5 l -0.85,-0.1 Q 29.8,-23.5 24.8,-18.6 l -1.1,0.7 -0.25,0.25 1.2,0.95 -0.1,0.2 q -0.15,0.5 -0.15,2 v 3.05 l -0.1,0.05 q -2.2,3.35 -5.55,6.15 l -3.15,2.7 q -1.45,1.3 -3.15,2.3 -4.9,4.55 -10.1,8.7 4.2,3.65 0.45,7.6 L 0.65,18 0.05,18.85 -3,21.7 Q -3.35,22 -3.8,22.15 L -3.95,22.3 -4.2,22.5 -4.45,22.75 -5,23 q -2.3,1.95 -5.35,1.1 L -12,23.35 q -1.05,2.1 -2.5,3.9 l -0.3,1 -0.8,1 q -0.65,1.45 -1.75,2.6 l -1.5,1.45 q -6.25,7.75 -13.9,14.2 -1.75,1.4 -3.9,1.25 -0.6,-0.1 -1.05,-0.5 -5.95,-4.9 -9.55,-11.4 -0.4,-0.8 0.25,-1.45 5.65,-5.5 11.75,-10.65 1.6,-1.3 3.6,-1.75 l 4.7,-0.6 2.4,-0.45 0.65,-0.8 1.15,-1.25 q 1.4,-5.2 4.7,-9.05 l -0.1,-0.3 q -0.55,-1.75 0.5,-3.75 0.45,-0.9 2.4,-3.05 L -14.7,3.2 -14.8,2.45 -14.55,1 q 0.3,-1.1 0.9,-1.55 0.6,-0.5 1.85,-0.4 l 0.9,0.25 2.8,-2.85 2.45,-2.25 -0.3,-0.4 -0.8,-1.55 Q -7,-8.8 -6.35,-9.4 q 0.4,-0.35 1,-0.35 l 1.1,0.4 1.2,1.2 6.15,-5.1 8.6,-6.5 0.1,-0.15 m 31.65,-23.55 -1.3,-1.4 -0.05,0.05 -0.1,0.1 -0.15,0.15 -0.15,0.15 -0.1,0.1 -0.15,0.1 -0.15,0.15 -0.1,0.1 -0.15,0.15 -0.1,0.1 -0.15,0.15 -0.1,0.1 -0.15,0.15 -0.15,0.1 -0.1,0.15 -0.15,0.1 -0.15,0.15 -0.1,0.1 -0.15,0.15 -0.1,0.1 -0.15,0.15 -0.15,0.1 -0.1,0.1 -0.15,0.15 -0.1,0.15 -0.15,0.1 -0.1,0.1 -0.15,0.15 -0.15,0.1 -0.1,0.15 -0.15,0.15 -0.15,0.1 -0.1,0.1 -0.1,0.15 -0.15,0.15 -0.15,0.1 -0.1,0.1 -0.15,0.15 -0.15,0.1 -0.1,0.15 -0.15,0.1 -0.15,0.15 -0.1,0.1 -0.1,0.15 -0.2,0.1 -0.1,0.15 -0.1,0.1 -0.15,0.15 -0.15,0.1 -0.1,0.15 -0.15,0.1 -0.15,0.15 -0.1,0.1 -0.15,0.1 -0.15,0.15 -0.1,0.15 -0.1,0.1 -0.15,0.1 -0.15,0.15 -0.1,0.1 -0.15,0.15 -0.15,0.15 -0.1,0.1 -0.15,0.1 -0.1,0.15 -0.15,0.15 -0.1,0.1 -0.15,0.1 -0.15,0.15 -0.1,0.1 -0.15,0.15 -0.1,0.1 -0.15,0.15 -0.15,0.1 0.1,0.2 0.7,1.4 0.15,0.2 1.15,1.25 2.75,-2.45 6.3,-5.85 0.2,-0.55 0.1,-0.75 v -0.4 l -0.6,-0.75 m -11.8,11.05 -0.6,-0.5 -0.75,-0.55 -0.15,0.1 -0.15,0.1 -0.1,0.1 -0.15,0.15 -0.15,0.15 -0.1,0.1 -0.1,0.1 -0.15,0.15 -0.15,0.1 -0.1,0.15 -0.15,0.15 -0.15,0.1 -0.1,0.1 -0.15,0.15 -0.15,0.1 -0.1,0.15 -0.15,0.1 -0.15,0.15 -0.1,0.1 -0.1,0.15 -0.15,0.1 -0.15,0.15 -0.1,0.1 -0.15,0.1 -0.15,0.15 -0.1,0.15 -0.15,0.1 -0.1,0.1 -0.15,0.15 -0.1,0.1 -0.15,0.15 -0.15,0.15 -0.1,0.1 -0.15,0.1 -0.1,0.15 -0.15,0.15 -0.15,0.1 -0.1,0.1 -0.15,0.15 -0.1,0.1 -0.15,0.15 -0.15,0.15 -0.1,0.1 -0.15,0.1 -0.1,0.15 -0.15,0.1 -0.15,0.15 -0.1,0.1 -0.15,0.15 -0.15,0.1 -0.1,0.15 -0.1,0.1 -0.15,0.15 -0.15,0.1 -0.1,0.1 -0.15,0.15 -0.15,0.15 -0.1,0.1 -0.15,0.1 -0.15,0.15 -0.1,0.1 -0.1,0.15 -0.15,0.15 -0.15,0.1 -0.1,0.1 -0.15,0.15 -0.15,0.15 -0.1,0.1 -0.15,0.1 -0.15,0.15 -0.1,0.1 -0.1,0.15 -0.2,0.15 -0.1,0.1 -0.1,0.1 -0.15,0.15 -0.15,0.1 -0.1,0.15 -0.15,0.1 -0.15,0.15 -0.1,0.1 -0.15,0.15 -0.1,0.1 -0.15,0.15 -0.1,0.1 -0.15,0.1 -0.15,0.15 -0.1,0.15 -0.15,0.1 -0.1,0.1 -0.15,0.15 -0.15,0.1 -0.1,0.15 -0.15,0.15 -0.1,0.1 -0.15,0.1 -0.15,0.15 -0.1,0.15 -0.15,0.1 h -0.15 l -0.15,0.15 -0.15,0.1 -0.1,0.15 -0.15,0.15 -0.15,0.1 -0.1,0.1 -0.1,0.15 -0.15,0.1 -0.15,0.15 -0.1,0.1 -0.15,0.15 -0.15,0.1 -0.1,0.15 -0.15,0.1 -0.15,0.15 -0.1,0.1 -0.1,0.1 -0.15,0.15 -0.15,0.15 -0.1,0.1 -0.15,0.15 -0.15,0.1 -0.1,0.1 -0.15,0.15 -0.15,0.15 -0.1,0.1 -0.1,0.1 -0.15,0.15 -0.15,0.15 -0.1,0.1 -0.15,0.1 -0.15,0.15 -0.1,0.1 v 0.05 l -0.55,0.35 q -4.9,3.4 -13.05,11 l 0.8,0.75 q 2.6,-2.4 7.05,-5.6 5.8,-4.1 10.95,-7.3 l 4.35,-3.5 10.1,-9.5 -0.7,-1.15 -0.15,-0.3 -0.1,-0.1 m -12.4,21.9 q 1.5,-1.3 1.65,-4.9 -0.3,0.3 -0.8,-0.5 l -3.4,2.5 -7.1,5.2 Q 3.3,-3.35 -6.8,6.65 l -1.65,1.6 -0.1,0.05 -1.8,1.6 -0.75,0.75 -0.85,0.75 -1,0.15 -1.3,0.5 q -1.05,0.3 -1.45,0.7 l -0.65,1.1 -0.25,0.75 -0.6,1.4 -0.55,0.9 -1.45,3.5 -0.85,2.4 q -1.15,2.25 -3.6,3.05 -2.15,1.05 -4.65,0.95 h -1.85 l -7.65,6.4 -4.05,3.3 q 2.7,3.5 6.35,6.85 2.9,-1.7 5.2,-4.2 l 2.7,-2.65 q 1.4,-2.2 3.35,-4.05 l 2.15,-2.15 0.7,-1.05 1.2,-1.1 0.5,-0.75 2.45,-2.55 q 1.35,-1.55 3.35,-5.2 l 3.35,-5.2 Q -8.8,12.4 -5.5,10.1 l 5.45,-3.8 4.4,-3.85 3.5,-3.3 2.35,-2.15 9.05,-7.5 M -7.9,2.9 l 4,-3.75 1,-1 -0.2,-0.25 -0.55,-0.8 -5.45,5.15 -0.3,0.3 -3.7,3.95 q -0.45,0.85 -0.3,1.55 L -7.9,2.9 m 3.65,10.7 q -1.3,0.95 -2.5,0.95 1.05,0.4 2.3,0 l 0.35,-0.35 0.4,-0.1 q 0.55,-0.05 0.9,0.3 -0.05,2.25 -2.6,2.8 l -1.35,0.2 q -1.35,-0.2 -2.35,-1.1 -0.7,1.1 -1.1,2.45 l -0.65,1.9 q 1.4,1 3.15,0.3 L -4,17.65 Q -1.45,15.25 0.55,12.5 -0.4,11.8 -0.8,10.95 l -3.45,2.65"
         fill="#000000"
         fill-rule="evenodd"
         stroke="none"
         id="path1" />
      <path
         d="m 33.55,-33.95 -0.15,-0.2 -0.7,-1.4 -0.1,-0.2 0.15,-0.1 0.15,-0.15 0.1,-0.1 0.15,-0.15 0.1,-0.1 0.15,-0.15 0.15,-0.1 0.1,-0.1 0.15,-0.15 0.1,-0.15 0.15,-0.1 0.1,-0.1 0.15,-0.15 0.15,-0.15 0.1,-0.1 0.15,-0.15 0.15,-0.1 0.1,-0.1 0.1,-0.15 0.15,-0.15 0.15,-0.1 0.1,-0.1 0.15,-0.15 0.15,-0.1 0.1,-0.15 0.15,-0.1 0.15,-0.15 0.1,-0.1 0.1,-0.15 0.2,-0.1 0.1,-0.15 0.1,-0.1 0.15,-0.15 0.15,-0.1 0.1,-0.15 0.15,-0.1 0.15,-0.15 0.1,-0.1 0.15,-0.1 0.15,-0.15 0.1,-0.15 0.1,-0.1 0.15,-0.1 0.15,-0.15 0.1,-0.15 0.15,-0.1 0.15,-0.15 0.1,-0.1 0.15,-0.1 0.1,-0.15 0.15,-0.15 0.1,-0.1 0.15,-0.1 0.15,-0.15 0.1,-0.1 0.15,-0.15 0.1,-0.1 0.15,-0.15 0.15,-0.1 0.1,-0.15 0.15,-0.1 0.15,-0.15 0.1,-0.1 0.15,-0.15 0.1,-0.1 0.15,-0.15 0.1,-0.1 0.15,-0.15 0.15,-0.1 0.1,-0.1 0.15,-0.15 0.15,-0.15 0.1,-0.1 0.05,-0.05 1.3,1.4 q -3.65,4.65 -8.5,8.4 l -1.4,1.1 m -20.6,16.9 v -0.05 l 0.1,-0.1 0.15,-0.15 0.15,-0.1 0.1,-0.1 0.15,-0.15 0.15,-0.15 0.1,-0.1 0.1,-0.1 0.15,-0.15 0.15,-0.15 0.1,-0.1 0.15,-0.1 0.15,-0.15 0.1,-0.1 0.15,-0.15 0.15,-0.15 0.1,-0.1 0.1,-0.1 0.15,-0.15 0.15,-0.1 0.1,-0.15 0.15,-0.1 0.15,-0.15 0.1,-0.1 0.15,-0.15 0.15,-0.1 0.1,-0.15 0.1,-0.1 0.15,-0.1 0.15,-0.15 0.1,-0.15 0.15,-0.1 0.15,-0.15 h 0.15 l 0.15,-0.1 0.1,-0.15 0.15,-0.15 0.15,-0.1 0.1,-0.1 0.15,-0.15 0.1,-0.15 0.15,-0.1 0.15,-0.15 0.1,-0.1 0.15,-0.1 0.1,-0.15 0.15,-0.15 0.15,-0.1 0.1,-0.1 0.15,-0.15 0.1,-0.1 0.15,-0.15 0.1,-0.1 0.15,-0.15 0.15,-0.1 0.1,-0.15 0.15,-0.1 0.15,-0.15 0.1,-0.1 0.1,-0.1 0.2,-0.15 0.1,-0.15 0.1,-0.1 0.15,-0.15 0.15,-0.1 0.1,-0.1 0.15,-0.15 0.15,-0.15 0.1,-0.1 0.15,-0.1 0.15,-0.15 0.1,-0.15 0.1,-0.1 0.15,-0.15 0.15,-0.1 0.1,-0.1 0.15,-0.15 0.15,-0.15 0.1,-0.1 0.15,-0.1 0.15,-0.15 0.1,-0.1 0.1,-0.15 0.15,-0.1 0.15,-0.15 0.1,-0.1 0.15,-0.15 0.15,-0.1 0.1,-0.15 0.15,-0.1 0.1,-0.1 0.15,-0.15 0.15,-0.15 0.1,-0.1 0.15,-0.15 0.1,-0.1 0.15,-0.1 0.15,-0.15 0.1,-0.15 0.15,-0.1 0.1,-0.1 0.15,-0.15 0.15,-0.15 0.1,-0.1 0.15,-0.15 0.1,-0.1 0.15,-0.1 0.1,-0.15 0.15,-0.15 0.15,-0.1 0.1,-0.1 0.15,-0.15 0.15,-0.1 0.1,-0.15 0.1,-0.1 0.15,-0.15 0.15,-0.1 0.1,-0.15 0.15,-0.1 0.15,-0.15 0.1,-0.1 0.15,-0.1 0.15,-0.15 0.1,-0.15 0.15,-0.1 0.15,-0.15 0.1,-0.1 0.1,-0.1 0.15,-0.15 0.15,-0.15 0.1,-0.1 0.15,-0.1 0.15,-0.1 0.75,0.55 0.6,0.5 -4.8,4.1 -2.4,1.95 -0.4,0.4 -4.65,4.15 -0.85,0.55 -0.1,0.2 -0.1,0.25 -3.1,2.75 q -1,0.1 -2.3,1"
         fill="#ffffff"
         fill-rule="evenodd"
         stroke="none"
         id="path2" />
      <path
         d="m 33.55,-33.95 1.4,-1.1 q 4.85,-3.75 8.5,-8.4 l 0.6,0.75 v 0.4 l -0.1,0.75 -0.2,0.55 -6.3,5.85 -2.75,2.45 -1.15,-1.25 m -20.6,16.9 q 1.3,-0.9 2.3,-1 l 3.1,-2.75 0.1,-0.25 0.1,-0.2 0.85,-0.55 4.65,-4.15 0.4,-0.4 2.4,-1.95 4.8,-4.1 0.1,0.1 0.15,0.3 0.7,1.15 -10.1,9.5 -4.35,3.5 q -5.15,3.2 -10.95,7.3 -4.45,3.2 -7.05,5.6 l -0.8,-0.75 q 8.15,-7.6 13.05,-11 l 0.55,-0.35 M -7.9,2.9 -13.4,8.05 q -0.15,-0.7 0.3,-1.55 l 3.7,-3.95 0.3,-0.3 5.45,-5.15 0.55,0.8 0.2,0.25 -1,1 -4,3.75"
         fill="#8c8c8c"
         fill-rule="evenodd"
         stroke="none"
         id="path3" />
      <path
         d="M 19.25,-10.5 10.2,-3 7.85,-0.85 4.35,2.45 -0.05,6.3 -5.5,10.1 q -3.3,2.3 -5.05,4.35 l -3.35,5.2 q -2,3.65 -3.35,5.2 l -2.45,2.55 -0.5,0.75 -1.2,1.1 -0.7,1.05 -2.15,2.15 q -1.95,1.85 -3.35,4.05 l -2.7,2.65 q -2.3,2.5 -5.2,4.2 -3.65,-3.35 -6.35,-6.85 l 4.05,-3.3 7.65,-6.4 h 1.85 q 2.5,0.1 4.65,-0.95 2.45,-0.8 3.6,-3.05 l 0.85,-2.4 1.45,-3.5 0.55,-0.9 0.6,-1.4 0.25,-0.75 0.65,-1.1 q 0.4,-0.4 1.45,-0.7 l 1.3,-0.5 1,-0.15 0.85,-0.75 0.75,-0.75 1.8,-1.6 0.1,-0.05 1.65,-1.6 Q 3.3,-3.35 9.6,-8.2 l 7.1,-5.2 3.4,-2.5 q 0.5,0.8 0.8,0.5 -0.15,3.6 -1.65,4.9"
         fill="#646464"
         fill-rule="evenodd"
         stroke="none"
         id="path4" />
    </g>
    <g
       id="sprite1"
       transform="translate(17.4,15.85)">
      <use
         ffdec:characterId="31"
         height="57.200001"
         transform="matrix(0.5366,0,0,0.5366,-16.6582,-14.546)"
         width="70.75"
         xlink:href="#sprite2"
         id="use4" />
    </g>
    <g
       id="sprite2"
       transform="translate(-8.65,-10.35)">
      <use
         ffdec:characterId="30"
         height="57.200001"
         transform="translate(8.65,10.35)"
         width="70.75"
         xlink:href="#shape1"
         id="use5" />
    </g>
    <g
       id="shape1"
       transform="translate(-8.65,-10.35)">
      <path
         d="m 14.8,41.7 q 0.65,-1.75 2.65,-2.5 1.8,-0.8 3.7,-0.25 1.15,0.45 2.25,1.2 l 0.9,0.4 q 1.65,0.9 2.85,2.5 L 37.8,30.1 q 2.35,-2.8 3.75,-3.95 1.5,-1.15 4.25,-2.4 18.2,-8.85 27.65,-12.6 2.15,-0.8 3.25,-0.8 h 0.8 l 1.9,2.4 -0.2,0.8 q -0.2,1.1 -1.55,3 -5.85,8.25 -18.85,23.8 -1.85,2.35 -3.35,3.5 -1.4,1.15 -4.75,2.75 l -15.15,7.15 q 1.2,1.6 1.75,3.4 l 0.2,1 0.55,2.5 q 0.1,1.95 -1.1,3.55 -1.2,1.65 -3.05,1.9 l -1.3,0.05 q -1.65,0.2 -3.45,-0.65 -1.85,-0.9 -3,-2.6 L 25,60.95 23.8,62.1 q -2.6,2.85 -4.3,3.95 -2.85,1.8 -5.5,1.45 l -1.65,-0.5 -1.2,-0.7 -0.2,-0.2 q -1,-0.85 -1.6,-1.9 L 9.25,64 9.15,63.8 8.75,62.4 q -0.2,-0.8 -0.05,-1.7 0.25,-2.65 2.7,-5.05 1.5,-1.3 4.9,-3.15 L 17.7,51.55 16.05,50 q -1.35,-1.5 -1.8,-3.6 -0.4,-1.85 0.25,-3.45 l 0.3,-1.25"
         fill="#000000"
         fill-opacity="0.372549"
         fill-rule="evenodd"
         stroke="none"
         id="path5" />
    </g>
  </defs>
</svg>
