<?xml version="1.0" encoding="UTF-8" standalone="no"?>
<svg
   ffdec:objectType="frame"
   height="81"
   width="44.865383"
   version="1.1"
   id="svg5"
   xmlns:xlink="http://www.w3.org/1999/xlink"
   xmlns="http://www.w3.org/2000/svg"
   xmlns:svg="http://www.w3.org/2000/svg"
   xmlns:ffdec="https://www.free-decompiler.com/flash">
  <g
     transform="translate(23.65,40.6)"
     id="g1">
    <use
       ffdec:characterId="17"
       height="119.15"
       id="rarity"
       transform="translate(-58.5,-60.65)"
       width="119.15"
       xlink:href="#sprite0" />
    <use
       ffdec:characterId="866"
       height="81"
       transform="translate(-23.65,-40.6)"
       width="44.849998"
       xlink:href="#shape0"
       id="use1" />
  </g>
  <defs
     id="defs5">
    <g
       id="shape0"
       transform="translate(24.2,41.35)">
      <path
         d="m -23.2,-23 0.2,-3.05 0.25,-2.2 q 0.6,-1.15 3.1,-1.7 l 13.7,-1.25 q -0.45,-0.95 -0.45,-2 l 0.25,-1.95 0.35,-1.3 0.8,-1.25 1.35,-1.45 2.85,-1.7 2.4,-0.5 2.15,0.45 2.75,1.2 1.15,1.05 q 1.55,1.9 1.4,5 l -0.3,1.7 -0.7,1.25 7.45,0.65 q 3.65,0.25 4.7,1.95 0.55,1 0.45,3.35 -0.5,7.45 -1,10.4 Q 18.05,-5.5 12.9,2 10.1,6.05 6.65,9.25 L 4.35,28.75 3.5,35.1 q -0.3,1.85 -0.9,2.65 -1.15,1.5 -4.8,1.6 l -10.15,0.3 -2.8,-0.5 q -1.05,-0.7 -1.35,-2.45 -0.35,-1.8 0.05,-5.95 l 0.5,-2.25 q 0.65,-1.25 1.65,-1.45 -1.2,-0.85 -1.5,-2.65 -0.25,-1.25 0.05,-3.15 Q -15.5,19 -14.8,18.1 -13.55,16.4 -9.55,16 -10.1,13.55 -9.9,11.1 -13.55,8 -16.5,3.95 -20.75,-1.9 -22.95,-8.9 q -1.5,-4.85 -1.2,-8.4 l 0.95,-5.7 m 22.3,-9.35 q 0.55,0.8 1.5,1.1 l 1.85,0.1 q 0.9,-0.25 1.55,-1 0.7,-0.75 0.75,-1.65 0.1,-0.95 -0.3,-1.85 l -1.3,-1.3 q -0.9,-0.5 -1.95,-0.35 -1,0.15 -1.7,0.85 l -0.8,1.15 q -0.55,1.6 0.4,2.95 m 1.4,18.05 v 1.65 l 6.4,0.6 q 1.45,0.15 2,0.75 l 0.4,0.9 q 0.05,0.6 -0.25,1 Q 8.65,-9 7.4,-8.9 L 0.5,-8.55 0,4.55 Q -0.1,5.9 -0.5,6.5 -1,7.15 -1.9,7.2 -2.75,7.25 -3.3,6.65 -3.85,6.05 -3.95,4.8 l 0.05,-3.25 0.4,-3.2 0.45,-6.7 -5.7,0.45 q -2.3,0.3 -3.35,-0.4 l -0.4,-0.3 q -0.65,-0.65 -0.65,-1.75 0,-1.25 1.15,-1.95 0.85,-0.5 2.5,-0.5 h 6.7 q 0.2,-3.35 0.7,-5.65 l 0.3,-1.85 0.4,-1.4 q 0.45,-0.8 1.15,-0.55 0.7,0.25 0.7,1.6 l 0.05,6.35 m -17.15,6.45 q 1.75,4.2 4.4,7.9 3.7,5.1 8.7,8.5 L -2.4,9 Q -1.9,9.05 -1.25,8.6 7,3.65 11.45,-5.95 q 4,-8.45 4,-19 l -2.8,-0.3 Q 6.6,-25.8 -0.5,-25.45 l -15.95,1.6 q -0.7,0.1 -1,0.35 l -0.55,1 -0.1,1.2 -0.3,2.1 -0.3,2.1 q -0.25,2.65 0.95,6.25 l 1.1,3 m 16.7,21.9 q -1.9,1 -3.05,1 l -1.85,-0.45 0.2,2.4 q 0.2,2.1 -0.45,2.95 -0.95,1.25 -3.1,1.15 l -2.05,0.1 -0.75,0.7 q -0.3,0.5 -0.1,0.95 2.4,0.1 3.15,1.45 0.35,0.55 0.35,2.6 0,2.05 -0.3,2.65 -0.6,1.45 -3.55,2.25 l -0.2,2.6 9.1,-0.05 0.8,-0.2 q 0.3,-0.25 0.4,-0.9 L 0.9,18.7 1.6,14.55 2.05,12.8 l -2,1.25"
         fill="#000000"
         fill-rule="evenodd"
         stroke="none"
         id="path1" />
      <path
         d="m 0.5,-14.3 q 2.7,-1.55 5.2,-3.45 l 5.05,-3.9 q 1.4,-1.05 1.75,-1.8 0.4,-0.85 0.15,-1.8 l 2.8,0.3 q 0,10.55 -4,19 Q 7,3.65 -1.25,8.6 -1.9,9.05 -2.4,9 L -3.55,8.55 q -5,-3.4 -8.7,-8.5 -2.65,-3.7 -4.4,-7.9 l 0.9,-0.05 3.25,-0.7 0.4,0.3 q 1.05,0.7 3.35,0.4 l 5.7,-0.45 -0.45,6.7 -0.4,3.2 -0.05,3.25 q 0.1,1.25 0.65,1.85 0.55,0.6 1.4,0.55 Q -1,7.15 -0.5,6.5 -0.1,5.9 0,4.55 L 0.5,-8.55 7.4,-8.9 q 1.25,-0.1 1.65,-0.5 0.3,-0.4 0.25,-1 l -0.4,-0.9 q -0.55,-0.6 -2,-0.75 l -6.4,-0.6 v -1.65"
         fill="#7d7360"
         fill-rule="evenodd"
         stroke="none"
         id="path2" />
      <path
         d="m 12.65,-25.25 q 0.25,0.95 -0.15,1.8 -0.35,0.75 -1.75,1.8 l -5.05,3.9 q -2.5,1.9 -5.2,3.45 l -0.05,-6.35 q 0,-1.35 -0.7,-1.6 -0.7,-0.25 -1.15,0.55 l -0.4,1.4 -0.3,1.85 q -0.5,2.3 -0.7,5.65 h -6.7 q -1.65,0 -2.5,0.5 -1.15,0.7 -1.15,1.95 0,1.1 0.65,1.75 l -3.25,0.7 -0.9,0.05 -1.1,-3 q -1.2,-3.6 -0.95,-6.25 l 0.3,-2.1 0.3,-2.1 0.1,-1.2 0.55,-1 q 0.3,-0.25 1,-0.35 l 15.95,-1.6 q 7.1,-0.35 13.15,0.2"
         fill="#9b8f78"
         fill-rule="evenodd"
         stroke="none"
         id="path3" />
      <path
         d="m 0.05,14.05 2,-1.25 -0.45,1.75 -0.7,4.15 -2.25,14.55 q -0.1,0.65 -0.4,0.9 l -0.8,0.2 -9.1,0.05 0.2,-2.6 q 2.95,-0.8 3.55,-2.25 0.3,-0.6 0.3,-2.65 0,-2.05 -0.35,-2.6 -0.75,-1.35 -3.15,-1.45 -0.2,-0.45 0.1,-0.95 l 0.75,-0.7 2.05,-0.1 q 2.15,0.1 3.1,-1.15 0.65,-0.85 0.45,-2.95 l -0.2,-2.4 1.85,0.45 q 1.15,0 3.05,-1"
         fill="#6a6253"
         fill-rule="evenodd"
         stroke="none"
         id="path4" />
    </g>
    <g
       id="sprite1"
       transform="translate(17.4,15.85)">
      <use
         ffdec:characterId="31"
         height="57.200001"
         transform="matrix(0.5366,0,0,0.5366,-16.6582,-14.546)"
         width="70.75"
         xlink:href="#sprite2"
         id="use4" />
    </g>
    <g
       id="sprite2"
       transform="translate(-8.65,-10.35)">
      <use
         ffdec:characterId="30"
         height="57.200001"
         transform="translate(8.65,10.35)"
         width="70.75"
         xlink:href="#shape1"
         id="use5" />
    </g>
    <g
       id="shape1"
       transform="translate(-8.65,-10.35)">
      <path
         d="m 14.8,41.7 q 0.65,-1.75 2.65,-2.5 1.8,-0.8 3.7,-0.25 1.15,0.45 2.25,1.2 l 0.9,0.4 q 1.65,0.9 2.85,2.5 L 37.8,30.1 q 2.35,-2.8 3.75,-3.95 1.5,-1.15 4.25,-2.4 18.2,-8.85 27.65,-12.6 2.15,-0.8 3.25,-0.8 h 0.8 l 1.9,2.4 -0.2,0.8 q -0.2,1.1 -1.55,3 -5.85,8.25 -18.85,23.8 -1.85,2.35 -3.35,3.5 -1.4,1.15 -4.75,2.75 l -15.15,7.15 q 1.2,1.6 1.75,3.4 l 0.2,1 0.55,2.5 q 0.1,1.95 -1.1,3.55 -1.2,1.65 -3.05,1.9 l -1.3,0.05 q -1.65,0.2 -3.45,-0.65 -1.85,-0.9 -3,-2.6 L 25,60.95 23.8,62.1 q -2.6,2.85 -4.3,3.95 -2.85,1.8 -5.5,1.45 l -1.65,-0.5 -1.2,-0.7 -0.2,-0.2 q -1,-0.85 -1.6,-1.9 L 9.25,64 9.15,63.8 8.75,62.4 q -0.2,-0.8 -0.05,-1.7 0.25,-2.65 2.7,-5.05 1.5,-1.3 4.9,-3.15 L 17.7,51.55 16.05,50 q -1.35,-1.5 -1.8,-3.6 -0.4,-1.85 0.25,-3.45 l 0.3,-1.25"
         fill="#000000"
         fill-opacity="0.372549"
         fill-rule="evenodd"
         stroke="none"
         id="path5" />
    </g>
  </defs>
</svg>
