<?xml version="1.0" encoding="UTF-8" standalone="no"?>
<svg
   ffdec:objectType="frame"
   height="76.682106"
   width="65.266586"
   version="1.1"
   id="svg5"
   xmlns:xlink="http://www.w3.org/1999/xlink"
   xmlns="http://www.w3.org/2000/svg"
   xmlns:svg="http://www.w3.org/2000/svg"
   xmlns:ffdec="https://www.free-decompiler.com/flash">
  <g
     transform="translate(30.16087,42.7)"
     id="g1">
    <use
       ffdec:characterId="17"
       height="119.15"
       id="rarity"
       transform="translate(-58.5,-60.65)"
       width="119.15"
       xlink:href="#sprite0" />
    <use
       ffdec:characterId="535"
       height="76.699997"
       transform="translate(-30.15,-42.7)"
       width="65.25"
       xlink:href="#shape0"
       id="use1" />
  </g>
  <defs
     id="defs5">
    <g
       id="shape0"
       transform="translate(29.75,41.9)">
      <path
         d="m 29.35,-41.9 q 3.65,1.65 3.45,6.25 -0.05,1.25 0.05,2.55 0.75,13.25 1.9,26.4 1.15,13.25 0.55,26.6 -0.1,1.85 -0.6,3.55 -0.4,1.55 -2.15,2 l 0.35,0.65 q 0.25,0.6 0.15,1.3 v 0.2 q -0.85,1.65 -2.15,3 l -1.55,1.3 Q 27,35.6 22.2,34.55 L 19.6,34.2 q -20.65,-0.95 -41.1,-0.5 -0.75,0 -1.1,-0.7 -0.75,-1.5 -0.55,-3.2 -0.8,-2 -1.05,-4.25 l -0.1,-3.05 q -1.45,-5.95 -1.75,-12.2 -0.15,-2.6 -0.6,-5.15 -1.9,-12.4 -2.7,-25.1 l -0.4,-6.65 q -0.25,-5.75 5.25,-6.4 20.9,-2.6 41.55,-7 l 8.6,-1.5 3.7,-0.4 M -14.8,21.85 q 1.3,-0.6 3.05,-0.7 l 1.2,-0.05 5.6,-0.3 9.35,-0.55 q 13,0.15 25.45,-0.35 -0.3,-5.45 0.2,-10.75 0.5,-4.55 0.05,-9.05 l -0.65,-6.6 q -1.4,-13.1 -2.25,-26.4 l -0.45,-2.8 q -13.2,1.15 -26,4.7 -8.15,2.2 -16.6,3.1 h -0.1 l -1.85,0.25 v 0.05 q 0.1,0.7 0.05,1.5 -0.15,5.05 0.85,9.95 1.2,5.65 1.5,11.5 0.3,5.65 0.45,11.35 l 0.15,0.25 0.2,1.05 -0.05,1.3 0.05,0.2 0.1,0.25 0.05,0.2 v 0.2 0.45 0.2 0.2 l 0.2,0.65 -0.05,2.15 -0.05,1.05 0.05,0.25 0.1,0.2 0.05,0.2 -0.05,0.45 -0.3,1.25 -0.35,1.3 -0.25,0.15 -0.75,-0.05 -0.2,-0.45 -0.3,-1.3 V 16.6 l -0.5,-1 -1.2,-12.05 -0.65,-7.05 q -0.65,-1.75 -0.75,-3.65 l -0.25,-4.75 q -1.45,-4.25 -2.25,-8.75 -0.55,-2.95 -0.25,-6.05 l -0.15,-0.05 -1.15,0.2 0.7,10.6 0.85,9 1.5,13.3 q 0.9,6.75 1.5,13.55 0.6,0.85 0.6,1.9 l 0.25,2.4 0.3,1.5 0.45,-0.5 -0.2,-0.45 -0.1,-0.45 q 1.05,-1.65 2.85,-2.45 m 39.85,7.2 1,-1.1 0.85,-0.85 1.35,-1.3 0.15,-0.2 q -17,-0.55 -34.9,0.5 -3.55,0.2 -7,-0.05 l -0.45,2.1 q 19.55,-0.15 39,0.9"
         fill="#000000"
         fill-rule="evenodd"
         stroke="none"
         id="path1" />
      <path
         d="m 14.4,-12.2 q -0.35,-0.4 -0.05,-0.9 2,-3.9 5.35,-0.55 l 1.9,2.45 2.3,0.2 1.35,0.55 0.2,0.25 0.1,0.2 0.1,0.4 0.05,0.25 q -1.15,1.4 -2.8,2.2 0.15,1.75 -0.25,3.7 -1.1,5.1 -4.1,8.4 1.2,2.95 2,6.05 l 0.8,4.15 -0.15,0.45 -0.4,0.6 -0.25,0.25 q -3.7,-0.9 -5.15,-5.15 l -1,-3.05 Q 11.5,9.8 7.75,10.5 3.35,11.3 -0.4,10.3 L -1,12.25 q -0.6,1.75 -1.65,3.2 l -0.25,1.5 -0.75,1.95 -0.35,0.15 -0.5,0.2 -0.55,-0.2 -0.3,-0.15 Q -5.9,18.25 -5.8,17.35 -5.7,16.3 -5.85,15.25 L -4.4,8.6 -7.85,5.9 Q -9.45,4.4 -9.9,2.15 l -0.55,-3.95 h -0.05 q -1.2,0.05 -1.6,-1.15 -1.2,-3.55 2.15,-4.65 1.35,-5.2 5.8,-9.4 2.25,-2.15 5,-3.25 L 1.45,-24.2 1.9,-27 q 0.3,-2.25 2.55,-2.4 1.05,0.45 1.75,1.1 3.4,1.9 4.75,6 l 2.15,7.3 1.15,4.15 1.1,-0.1 -0.95,-1.25 m -7.9,-4.85 -0.75,0.15 -0.45,2.3 -0.05,1.75 -0.5,2.1 -0.15,0.95 4.3,-0.5 -2.4,-6.75 m 4.45,13.2 -0.2,-0.45 -0.3,-0.65 v -0.1 L 3.5,-3.85 1.4,4.6 Q 7.5,6.05 12.35,2 q -0.9,-2.9 -1.4,-5.85 m 5.6,-0.8 0.35,-1.2 -1.1,0.1 0.6,2 0.15,-0.9 M -1.7,-12.2 -3.25,-10.35 -4,-8.6 l 3.3,-0.5 0.65,-4.9 -1.65,1.8 m -1.8,14.45 0.25,0.35 0.7,-2.15 0.1,-1.1 0.4,-1.7 V -2.7 L -5,-2.2 q 0.2,2.45 1.5,4.45"
         fill="#614c4c"
         fill-rule="evenodd"
         stroke="none"
         id="path2" />
      <path
         d="m -16.35,16.6 v 0.25 l 0.3,1.3 0.2,0.45 0.75,0.05 0.25,-0.15 0.35,-1.3 0.3,-1.25 0.05,-0.45 -0.05,-0.2 -0.1,-0.2 -0.05,-0.25 0.05,-1.05 0.05,-2.15 -0.2,-0.65 V 10.8 10.6 10.15 9.95 L -14.5,9.75 -14.6,9.5 -14.65,9.3 -14.6,8 -14.8,6.95 -14.95,6.7 Q -15.1,1 -15.4,-4.65 q -0.3,-5.85 -1.5,-11.5 -1,-4.9 -0.85,-9.95 0.05,-0.8 -0.05,-1.5 v -0.05 l 1.85,-0.25 h 0.1 q 8.45,-0.9 16.6,-3.1 12.8,-3.55 26,-4.7 l 0.45,2.8 q 0.85,13.3 2.25,26.4 l 0.65,6.6 q 0.45,4.5 -0.05,9.05 -0.5,5.3 -0.2,10.75 Q 17.4,20.4 4.4,20.25 l -9.35,0.55 -5.6,0.3 -1.2,0.05 q -1.75,0.1 -3.05,0.7 -1.9,-1.5 -1.65,-4.6 l 0.1,-0.65 m 32.9,-21.25 -0.15,0.9 -0.6,-2 1.1,-0.1 -0.35,1.2 m -5.6,0.8 Q 11.45,-0.9 12.35,2 7.5,6.05 1.4,4.6 l 2.1,-8.45 6.95,-1.2 v 0.1 l 0.3,0.65 0.2,0.45 m -4.45,-13.2 2.4,6.75 -4.3,0.5 0.15,-0.95 0.5,-2.1 0.05,-1.75 0.45,-2.3 0.75,-0.15 m 7.9,4.85 0.95,1.25 -1.1,0.1 L 13.1,-15 10.95,-22.3 Q 9.6,-26.4 6.2,-28.3 5.5,-28.95 4.45,-29.4 2.2,-29.25 1.9,-27 l -0.45,2.8 -0.6,3.95 q -2.75,1.1 -5,3.25 -4.45,4.2 -5.8,9.4 -3.35,1.1 -2.15,4.65 0.4,1.2 1.6,1.15 h 0.05 l 0.55,3.95 q 0.45,2.25 2.05,3.75 l 3.45,2.7 -1.45,6.65 q 0.15,1.05 0.05,2.1 -0.1,0.9 0.45,1.55 l 0.3,0.15 0.55,0.2 0.5,-0.2 0.35,-0.15 0.75,-1.95 0.25,-1.5 Q -1.6,14 -1,12.25 l 0.6,-1.95 q 3.75,1 8.15,0.2 3.75,-0.7 6.65,-2.25 l 1,3.05 q 1.45,4.25 5.15,5.15 L 20.8,16.2 21.2,15.6 21.35,15.15 20.55,11 q -0.8,-3.1 -2,-6.05 3,-3.3 4.1,-8.4 0.4,-1.95 0.25,-3.7 1.65,-0.8 2.8,-2.2 l -0.05,-0.25 -0.1,-0.4 -0.1,-0.2 -0.2,-0.25 -1.35,-0.55 -2.3,-0.2 -1.9,-2.45 q -3.35,-3.35 -5.35,0.55 -0.3,0.5 0.05,0.9 M -3.5,2.25 Q -4.8,0.25 -5,-2.2 l 2.95,-0.5 v 0.35 l -0.4,1.7 -0.1,1.1 -0.7,2.15 -0.25,-0.35 m 1.8,-14.45 1.65,-1.8 -0.65,4.9 -3.3,0.5 0.75,-1.75 1.55,-1.85"
         fill="#bcbcbc"
         fill-rule="evenodd"
         stroke="none"
         id="path3" />
      <path
         d="m -16.35,16.6 -0.1,0.65 q -0.25,3.1 1.65,4.6 -1.8,0.8 -2.85,2.45 l 0.1,0.45 0.2,0.45 -0.45,0.5 -0.3,-1.5 -0.25,-2.4 q 0,-1.05 -0.6,-1.9 -0.6,-6.8 -1.5,-13.55 l -1.5,-13.3 -0.85,-9 -0.7,-10.6 1.15,-0.2 0.15,0.05 q -0.3,3.1 0.25,6.05 0.8,4.5 2.25,8.75 l 0.25,4.75 q 0.1,1.9 0.75,3.65 l 0.65,7.05 1.2,12.05 0.5,1 m 41.4,12.45 Q 5.6,28 -13.95,28.15 l 0.45,-2.1 q 3.45,0.25 7,0.05 17.9,-1.05 34.9,-0.5 l -0.15,0.2 -1.35,1.3 -0.85,0.85 -1,1.1"
         fill="#ffffff"
         fill-rule="evenodd"
         stroke="none"
         id="path4" />
    </g>
    <g
       id="sprite1"
       transform="translate(17.4,15.85)">
      <use
         ffdec:characterId="31"
         height="57.200001"
         transform="matrix(0.5366,0,0,0.5366,-16.6582,-14.546)"
         width="70.75"
         xlink:href="#sprite2"
         id="use4" />
    </g>
    <g
       id="sprite2"
       transform="translate(-8.65,-10.35)">
      <use
         ffdec:characterId="30"
         height="57.200001"
         transform="translate(8.65,10.35)"
         width="70.75"
         xlink:href="#shape1"
         id="use5" />
    </g>
    <g
       id="shape1"
       transform="translate(-8.65,-10.35)">
      <path
         d="m 14.8,41.7 q 0.65,-1.75 2.65,-2.5 1.8,-0.8 3.7,-0.25 1.15,0.45 2.25,1.2 l 0.9,0.4 q 1.65,0.9 2.85,2.5 L 37.8,30.1 q 2.35,-2.8 3.75,-3.95 1.5,-1.15 4.25,-2.4 18.2,-8.85 27.65,-12.6 2.15,-0.8 3.25,-0.8 h 0.8 l 1.9,2.4 -0.2,0.8 q -0.2,1.1 -1.55,3 -5.85,8.25 -18.85,23.8 -1.85,2.35 -3.35,3.5 -1.4,1.15 -4.75,2.75 l -15.15,7.15 q 1.2,1.6 1.75,3.4 l 0.2,1 0.55,2.5 q 0.1,1.95 -1.1,3.55 -1.2,1.65 -3.05,1.9 l -1.3,0.05 q -1.65,0.2 -3.45,-0.65 -1.85,-0.9 -3,-2.6 L 25,60.95 23.8,62.1 q -2.6,2.85 -4.3,3.95 -2.85,1.8 -5.5,1.45 l -1.65,-0.5 -1.2,-0.7 -0.2,-0.2 q -1,-0.85 -1.6,-1.9 L 9.25,64 9.15,63.8 8.75,62.4 q -0.2,-0.8 -0.05,-1.7 0.25,-2.65 2.7,-5.05 1.5,-1.3 4.9,-3.15 L 17.7,51.55 16.05,50 q -1.35,-1.5 -1.8,-3.6 -0.4,-1.85 0.25,-3.45 l 0.3,-1.25"
         fill="#000000"
         fill-opacity="0.372549"
         fill-rule="evenodd"
         stroke="none"
         id="path5" />
    </g>
  </defs>
</svg>
