<?xml version="1.0" encoding="UTF-8" standalone="no"?>
<svg
   ffdec:objectType="frame"
   height="75.65696"
   width="93.776588"
   version="1.1"
   id="svg5"
   sodipodi:docname="ITEM Asteroid Belt.svg"
   xmlns:inkscape="http://www.inkscape.org/namespaces/inkscape"
   xmlns:sodipodi="http://sodipodi.sourceforge.net/DTD/sodipodi-0.dtd"
   xmlns:xlink="http://www.w3.org/1999/xlink"
   xmlns="http://www.w3.org/2000/svg"
   xmlns:svg="http://www.w3.org/2000/svg"
   xmlns:ffdec="https://www.free-decompiler.com/flash">
  <sodipodi:namedview
     id="namedview5"
     pagecolor="#ffffff"
     bordercolor="#000000"
     borderopacity="0.25"
     inkscape:showpageshadow="2"
     inkscape:pageopacity="0.0"
     inkscape:pagecheckerboard="0"
     inkscape:deskcolor="#d1d1d1"
     fit-margin-top="5"
     fit-margin-left="5"
     fit-margin-right="5"
     fit-margin-bottom="5" />
  <g
     transform="translate(48.95,38.656957)"
     id="g1">
    <use
       ffdec:characterId="17"
       height="119.15"
       id="rarity"
       transform="translate(-58.5,-60.65)"
       width="119.15"
       xlink:href="#sprite0" />
    <use
       ffdec:characterId="782"
       height="75.650002"
       transform="translate(-48.95,-38.65)"
       width="93.800003"
       xlink:href="#shape0"
       id="use1" />
  </g>
  <defs
     id="defs5">
    <g
       id="shape0"
       transform="translate(49.5,39.4)">
      <path
         d="m 24.8,-29.8 q 6.4,0.25 4.8,6.65 -0.65,2.35 -2.3,4.25 -8.75,9.95 -19.45,17.75 -10.8,7.85 -22.3,14.45 l -9.8,5.4 q -4.95,2.8 -10,1.75 -0.55,-0.15 -0.55,-0.75 0.15,-7.55 6.4,-12.65 l 1.95,-1.75 0.15,-0.2 -0.1,-0.15 q 4.9,-5.2 10.2,-10.05 l 2.6,-1.75 0.2,-0.2 0.2,-0.2 0.35,-0.45 0.35,-0.2 0.5,-0.25 1.25,-1.25 2.55,-1.95 Q 5.75,-23.15 23,-29.1 q 0.7,-0.25 1.3,-0.65 h 0.5 v -0.05 m 0.6,3.7 q -8.45,2.8 -16.2,6.9 L 5.65,-17 q -0.5,0.35 -1.15,0.45 l -3.45,2.65 -3.35,2.05 q -0.3,0.5 -0.85,0.85 l -1.85,1.1 -0.75,0.8 -0.95,0.7 -0.35,0.2 -14.2,13.1 q -5.65,5.5 -9.65,12.2 11.85,-4.4 23,-11.7 11.75,-7.65 22.35,-16.65 6.5,-5.5 11.4,-12.45 0.6,-0.9 0.45,-1.95 l -0.15,-0.2 -0.4,-0.2 -0.2,-0.05 H 25.4 M -30.25,3 q -3.45,3.65 -6.55,7.65 -4.15,5.35 -6.7,11.6 l -0.05,0.4 v 0.25 l -0.15,0.6 -0.05,0.25 -0.1,0.2 -0.15,0.2 v 0.85 0.9 1.7 0.65 l 0.25,0.4 0.1,0.25 0.25,0.4 q 5.35,3.6 12.1,1.95 Q -15.9,27.45 -2.25,19.1 9.4,11.95 19.9,3.05 29,-4.7 35.55,-14.6 l 1.5,-2.85 q 1.05,-2.05 1.6,-4.25 l 0.9,-2.55 0.05,-0.45 0.05,-0.2 0.05,-0.65 v -0.2 l 0.1,-0.2 0.1,-0.25 v -0.4 l 0.05,-0.65 -0.15,-0.85 q -0.25,-0.85 -0.25,-1.75 l -0.25,-0.45 -0.2,-0.6 -0.3,-0.9 -0.95,-1.2 q -1.55,-0.65 -3.2,-0.75 l -4.75,-0.6 -3.95,0.4 -1.85,0.25 -6,2.4 q -8,3.45 -15.3,8.25 -10.95,7.15 -21.25,15.25 -6.35,5 -11.8,10.8 M 29.3,-39.25 q 7.45,-0.95 12.55,3.85 1.9,1.8 2.2,4.45 1.4,11.6 -5.85,20.95 l -3.65,4.75 q -7.4,9.3 -17,16.75 -12.3,9.5 -26,16.85 -14.55,7.8 -31,7.9 -3.6,0 -6.45,-2.15 -4.2,-3.2 -3.5,-8.65 0.95,-7.65 5.5,-14.2 2.15,-3.15 4.85,-5.75 7.4,-9.4 17.15,-16.55 16.1,-11.85 33.2,-22.15 8.4,-5.05 18,-6.05"
         fill="#000000"
         fill-rule="evenodd"
         stroke="none"
         id="path1" />
      <path
         d="m 24.8,-29.8 v 0.05 h -0.5 q -0.6,0.4 -1.3,0.65 -17.25,5.95 -31.2,17.75 l -2.55,1.95 -1.25,1.25 -0.5,0.25 -0.35,0.2 -0.35,0.45 -0.2,0.2 -0.2,0.2 -2.6,1.75 q -5.3,4.85 -10.2,10.05 l 0.1,0.15 -0.15,0.2 -1.95,1.75 q -6.25,5.1 -6.4,12.65 0,0.6 0.55,0.75 5.05,1.05 10,-1.75 l 9.8,-5.4 q 11.5,-6.6 22.3,-14.45 10.7,-7.8 19.45,-17.75 1.65,-1.9 2.3,-4.25 1.6,-6.4 -4.8,-6.65 m 1.4,-0.9 0.2,-0.05 q 3.35,-0.35 6.05,1.45 l 0.15,0.3 0.15,0.2 0.4,0.75 v 0.5 0.75 1 l -0.45,1.25 -0.5,2 -1,2.25 -0.05,0.5 v 0.25 l -0.4,0.55 q -7.9,11.9 -19.5,20.9 -11.1,8.6 -22.95,16 l -2.05,0.9 q -9.35,5.3 -20.2,6.75 -2.45,-0.2 -4.4,-1.25 v -0.75 l -0.1,-1 0.1,-1 0.65,-1.45 q 1,-3.65 2.9,-7 l 4,-6.3 4.15,-4.65 4.45,-4.85 4.55,-3.8 q 2.9,-2.55 6.2,-4.55 l 0.2,-0.25 0.15,-0.25 4.65,-2.95 9.85,-5.95 1.05,-0.8 3.75,-1.95 0.2,-0.15 0.25,-0.25 0.55,-0.25 1.5,-0.5 3.8,-1.9 q 5.75,-2.55 11.7,-4.45"
         fill="#cdb696"
         fill-rule="evenodd"
         stroke="none"
         id="path2" />
      <path
         d="m 18.1,-31.3 6,-2.4 1.85,-0.25 3.95,-0.4 4.75,0.6 q 1.65,0.1 3.2,0.75 l 0.95,1.2 0.3,0.9 0.2,0.6 0.25,0.45 q 0,0.9 0.25,1.75 l 0.15,0.85 -0.05,0.65 v 0.4 l -0.1,0.25 -0.1,0.2 v 0.2 l -0.05,0.65 -0.05,0.2 -0.05,0.45 -0.9,2.55 q -0.55,2.2 -1.6,4.25 l -1.5,2.85 Q 29,-4.7 19.9,3.05 9.4,11.95 -2.25,19.1 -15.9,27.45 -31.3,31.25 -38.05,32.9 -43.4,29.3 l -0.25,-0.4 -0.1,-0.25 -0.25,-0.4 V 27.6 25.9 25 24.15 l 0.15,-0.2 0.1,-0.2 0.05,-0.25 0.15,-0.6 v -0.25 l 0.05,-0.4 q 2.55,-6.25 6.7,-11.6 3.1,-4 6.55,-7.65 -4.45,5.15 -8.2,10.8 v 0.25 l -0.05,0.25 -0.05,0.25 -1.55,3 q -0.55,1.05 -0.6,2.25 l -0.4,0.55 -0.1,0.2 -0.05,0.5 -0.1,2.75 v 2.25 l 0.1,0.25 0.35,0.55 0.6,0.7 q 10.1,2.7 20,-1.85 l 0.25,-0.15 0.25,-0.25 1.35,-0.35 q 1.9,-0.65 3.5,-1.75 7.05,-3.25 13.4,-7.75 0.5,-0.65 1.25,-1 1.1,-0.5 1.85,-1.5 L 3.25,12 q 1.8,-1.45 3.7,-2.8 L 7.25,8.75 7.4,8.45 8.25,8.05 9.05,7.55 Q 9.6,6.75 10.4,6.2 q 10,-7.3 18.3,-16.3 2.8,-2.95 4.95,-6.45 4.95,-8.05 0.9,-15.8 L 33.35,-33 q -2.2,-1.05 -4.55,-1.1 -5.45,0.9 -10.7,2.8"
         fill="#ffdbaa"
         fill-rule="evenodd"
         stroke="none"
         id="path3" />
      <path
         d="m 26.2,-30.7 q -5.95,1.9 -11.7,4.45 l -3.8,1.9 -1.5,0.5 -0.55,0.25 -0.25,0.25 -0.2,0.15 -3.75,1.95 -1.05,0.8 -9.85,5.95 -4.65,2.95 -0.15,0.25 -0.2,0.25 q -3.3,2 -6.2,4.55 l -4.55,3.8 -4.45,4.85 -4.15,4.65 -4,6.3 q -1.9,3.35 -2.9,7 l -0.65,1.45 -0.1,1 0.1,1 v 0.75 q 1.95,1.05 4.4,1.25 10.85,-1.45 20.2,-6.75 l 2.05,-0.9 q 11.85,-7.4 22.95,-16 11.6,-9 19.5,-20.9 l 0.4,-0.55 v -0.25 l 0.05,-0.5 1,-2.25 0.5,-2 0.45,-1.25 v -1 -0.75 -0.5 l -0.4,-0.75 -0.15,-0.2 -0.15,-0.3 q -2.7,-1.8 -6.05,-1.45 l -0.2,0.05 m -8.1,-0.6 q 5.25,-1.9 10.7,-2.8 2.35,0.05 4.55,1.1 l 1.2,0.65 q 4.05,7.75 -0.9,15.8 -2.15,3.5 -4.95,6.45 -8.3,9 -18.3,16.3 Q 9.6,6.75 9.05,7.55 L 8.25,8.05 7.4,8.45 7.25,8.75 6.95,9.2 q -1.9,1.35 -3.7,2.8 l -1.7,0.95 q -0.75,1 -1.85,1.5 -0.75,0.35 -1.25,1 -6.35,4.5 -13.4,7.75 -1.6,1.1 -3.5,1.75 l -1.35,0.35 -0.25,0.25 -0.25,0.15 q -9.9,4.55 -20,1.85 l -0.6,-0.7 -0.35,-0.55 -0.1,-0.25 V 23.8 l 0.1,-2.75 0.05,-0.5 0.1,-0.2 0.4,-0.55 q 0.05,-1.2 0.6,-2.25 l 1.55,-3 0.05,-0.25 0.05,-0.25 V 13.8 q 3.75,-5.65 8.2,-10.8 5.45,-5.8 11.8,-10.8 10.3,-8.1 21.25,-15.25 7.3,-4.8 15.3,-8.25"
         fill="#fff4e5"
         fill-rule="evenodd"
         stroke="none"
         id="path4" />
    </g>
    <g
       id="sprite1"
       transform="translate(17.4,15.85)">
      <use
         ffdec:characterId="31"
         height="57.200001"
         transform="matrix(0.5366,0,0,0.5366,-16.6582,-14.546)"
         width="70.75"
         xlink:href="#sprite2"
         id="use4" />
    </g>
    <g
       id="sprite2"
       transform="translate(-8.65,-10.35)">
      <use
         ffdec:characterId="30"
         height="57.200001"
         transform="translate(8.65,10.35)"
         width="70.75"
         xlink:href="#shape1"
         id="use5" />
    </g>
    <g
       id="shape1"
       transform="translate(-8.65,-10.35)">
      <path
         d="m 14.8,41.7 q 0.65,-1.75 2.65,-2.5 1.8,-0.8 3.7,-0.25 1.15,0.45 2.25,1.2 l 0.9,0.4 q 1.65,0.9 2.85,2.5 L 37.8,30.1 q 2.35,-2.8 3.75,-3.95 1.5,-1.15 4.25,-2.4 18.2,-8.85 27.65,-12.6 2.15,-0.8 3.25,-0.8 h 0.8 l 1.9,2.4 -0.2,0.8 q -0.2,1.1 -1.55,3 -5.85,8.25 -18.85,23.8 -1.85,2.35 -3.35,3.5 -1.4,1.15 -4.75,2.75 l -15.15,7.15 q 1.2,1.6 1.75,3.4 l 0.2,1 0.55,2.5 q 0.1,1.95 -1.1,3.55 -1.2,1.65 -3.05,1.9 l -1.3,0.05 q -1.65,0.2 -3.45,-0.65 -1.85,-0.9 -3,-2.6 L 25,60.95 23.8,62.1 q -2.6,2.85 -4.3,3.95 -2.85,1.8 -5.5,1.45 l -1.65,-0.5 -1.2,-0.7 -0.2,-0.2 q -1,-0.85 -1.6,-1.9 L 9.25,64 9.15,63.8 8.75,62.4 q -0.2,-0.8 -0.05,-1.7 0.25,-2.65 2.7,-5.05 1.5,-1.3 4.9,-3.15 L 17.7,51.55 16.05,50 q -1.35,-1.5 -1.8,-3.6 -0.4,-1.85 0.25,-3.45 l 0.3,-1.25"
         fill="#000000"
         fill-opacity="0.372549"
         fill-rule="evenodd"
         stroke="none"
         id="path5" />
    </g>
  </defs>
</svg>
