<?xml version="1.0" encoding="UTF-8" standalone="no"?>
<svg
   ffdec:objectType="frame"
   height="69.59552"
   width="75.093475"
   version="1.1"
   id="svg4"
   xmlns:xlink="http://www.w3.org/1999/xlink"
   xmlns="http://www.w3.org/2000/svg"
   xmlns:svg="http://www.w3.org/2000/svg"
   xmlns:ffdec="https://www.free-decompiler.com/flash">
  <g
     transform="translate(39.038931,31.25)"
     id="g1">
    <use
       ffdec:characterId="17"
       height="119.15"
       id="rarity"
       transform="translate(-58.5,-60.65)"
       width="119.15"
       xlink:href="#sprite0" />
    <use
       ffdec:characterId="462"
       height="69.599998"
       transform="translate(-39.05,-31.25)"
       width="75.099998"
       xlink:href="#shape0"
       id="use1" />
  </g>
  <defs
     id="defs4">
    <g
       id="shape0"
       transform="translate(38.65,30.45)">
      <path
         d="m 1.45,-23.45 v -0.6 L 1.5,-25.3 1.4,-26.2 q -0.6,-0.4 -1.1,0.45 l -0.8,1.5 -0.2,0.8 -0.8,1.35 -0.1,0.2 q -0.35,1.25 -0.95,2.4 l -1.45,2.55 -0.7,0.35 -0.05,0.05 -0.6,0.15 -0.6,-0.45 q -1.05,-0.85 -1.65,-2 -0.85,-1.55 -1.05,-3.65 -0.15,-1.75 -1.4,-2.95 l -0.95,1 q -0.7,0.85 -0.65,2 2.2,3.45 1.5,7 -0.25,1.1 -1.5,1.1 -1.1,0 -2.05,-0.6 -0.95,-0.05 -1.7,0.5 l -0.6,0.95 0.6,0.4 0.7,0.35 q 3.25,-0.4 6.05,1.15 l 0.3,0.45 0.15,0.3 v 0.15 l 0.05,0.35 v 0.05 l -0.05,0.4 -0.15,0.45 -0.3,0.45 -1.1,0.5 -1.6,0.5 -1.65,0.25 -0.65,0.35 -2.1,1.05 -0.8,0.35 -1.45,1 -1.45,1.05 -4.6,4.15 -1.25,0.85 -0.3,0.45 -1.6,2.3 q -0.65,1.05 -1.6,1.95 l -0.3,0.25 -0.25,0.65 -1.55,2.75 -0.15,0.4 -0.9,2.2 -0.35,0.85 q 0.05,1.45 -0.2,2.85 l -0.35,4.45 q -0.1,2.85 1.05,5.4 l 0.2,0.2 0.7,0.85 1.1,1.7 0.3,0.45 2.35,1.1 q 3.1,1.35 6.35,2.25 11.9,1.75 23.95,1.2 7.6,-1.6 14.95,-4 3.7,-1.2 7.1,-3 l 1.2,-1.45 q 1.7,-1.7 2.75,-3.8 l 1.5,-3.1 v -0.2 -0.45 l 0.1,-0.85 0.4,-1.1 v -0.2 L 31.1,14.75 V 14.1 q 0,-0.5 0.3,-0.85 Q 32.75,7 29.75,1.5 26.85,-3.85 22,-7.3 l -3.8,-2.15 q -2.85,-1.3 -5.75,-2.1 -5.4,-1.5 -11.2,-1.2 l -0.7,0.65 q -0.5,0.4 -1.15,0.45 l -0.7,-0.2 -0.25,-0.1 -0.15,-0.05 -0.5,-0.85 -0.05,-0.15 0.05,-0.5 0.15,-0.4 0.3,-0.5 0.25,-0.65 -0.1,-0.4 q 0.65,-2.25 1.7,-4.4 l 0.95,-2.2 0.4,-1.1 v -0.3 M -4.35,18.3 -4.55,18.2 -4.9,18 q -1.25,-1.85 -1,-3.95 L -6.1,13.4 Q -6.6,11.25 -4.5,9.55 -2.7,8.2 -0.6,7.5 1.05,6.95 2.45,5.8 L 2.55,5.55 2.75,5.15 3,4.7 3.05,4.5 3.25,3.2 3.4,1.95 V 1.3 L 3.3,1.1 2.95,0.45 2.8,0 q -1.35,-1.6 -3.5,-1.25 -2,0.3 -3.55,1.7 l -0.05,0.2 q 0,0.55 -0.15,1.1 L -4.8,2.8 -4.9,3.2 q -0.3,5 -5.4,2.85 -1.15,-0.5 -1.4,-1.7 -1.35,-6.1 4.3,-9.35 2.95,-1.65 6.15,-2.15 Q 7.95,-7.35 8.4,1.3 8.65,6.25 5.9,9.15 3.95,11.1 0.65,12.1 l -1.25,0.4 q 1.8,2.5 0.25,4.8 l -1.2,1.3 q -1.3,1.15 -2.5,-0.15 L -4.1,18.4 -4.35,18.3 M 4.8,-17.8 q 13.9,0.25 24,9.45 l 2.3,2.6 q 5.2,7 5.35,15.55 0.05,2.6 -0.45,5.15 v 0.2 l -0.05,0.45 -0.1,0.8 -0.35,1.1 q -0.8,6.95 -6.3,11.6 -6.15,5.2 -14.2,7.3 -8.55,2.2 -17.4,2.65 -15.2,0.8 -28.75,-5.1 -3,-1.3 -4.6,-4.2 -4.35,-7.7 -2.15,-16.5 0.05,-1.5 0.55,-2.85 0.8,-2.35 2.1,-4.5 l 2.8,-4.05 q 3.1,-4.7 7.75,-8.05 2.75,-1.95 5.85,-3.3 l -1.85,-1.75 q -0.85,-3.4 1.4,-5.95 1.3,-1.55 3.3,-2.2 -0.5,-1.35 -0.5,-2.75 l 0.45,-3.25 q 2.05,-4.45 6.5,-4.6 1.5,-0.05 2.7,1 1.9,1.7 2.45,4.25 0.55,-2.3 2.3,-4.05 1.25,-1.35 2.9,-1.65 6.3,2.35 4.15,9.2 -0.6,1.9 -1.55,3.65 l 1.4,-0.2 m -7.2,38.75 q 4.95,1.2 2.65,6 -1.45,3 -4.65,0.9 -3.9,-2.6 -0.4,-5.8 1.1,-1 2.4,-1.1"
         fill="#000000"
         fill-rule="evenodd"
         stroke="none"
         id="path1" />
      <path
         d="M -31.05,9.8 -30.9,9.4 -29.35,6.65 -29.1,6 -28.8,5.75 q 0.95,-0.9 1.6,-1.95 l 1.6,-2.3 0.3,-0.45 1.25,-0.85 4.6,-4.15 1.45,-1.05 1.45,-1 0.8,-0.35 2.1,-1.05 0.65,-0.35 1.65,-0.25 1.6,-0.5 1.1,-0.5 0.3,-0.45 0.15,-0.45 0.05,-0.4 v -0.05 L -8.2,-10.7 v -0.15 l -0.15,-0.3 -0.3,-0.45 q -2.8,-1.55 -6.05,-1.15 l -0.7,-0.35 -0.6,-0.4 0.6,-0.95 q 0.75,-0.55 1.7,-0.5 0.95,0.6 2.05,0.6 1.25,0 1.5,-1.1 0.7,-3.55 -1.5,-7 -0.05,-1.15 0.65,-2 l 0.95,-1 q 1.25,1.2 1.4,2.95 0.2,2.1 1.05,3.65 0.6,1.15 1.65,2 l 0.6,0.45 0.6,-0.15 0.05,-0.05 0.7,-0.35 1.45,-2.55 q 0.6,-1.15 0.95,-2.4 l 0.1,-0.2 0.8,-1.35 0.2,-0.8 0.8,-1.5 q 0.5,-0.85 1.1,-0.45 l 0.1,0.9 -0.05,1.25 v 0.6 L 1,-22.05 h 0.05 l -0.95,2.2 q -1.05,2.15 -1.7,4.4 l 0.1,0.4 -0.25,0.65 -0.3,0.5 -0.15,0.4 -0.05,0.5 0.05,0.15 0.5,0.85 0.15,0.05 0.25,0.1 0.7,0.2 q 0.65,-0.05 1.15,-0.45 l 0.7,-0.65 q 5.8,-0.3 11.2,1.2 2.65,2 4.25,5.8 1.1,2.7 0.45,5.55 -1.4,6.3 -5.65,11.05 -1.6,1.75 -3.65,2.9 -4,2.25 -8.2,3.55 Q 1.2,15 -0.6,12.5 l 1.25,-0.4 q 3.3,-1 5.25,-2.95 2.75,-2.9 2.5,-7.85 -0.45,-8.65 -9.65,-8.45 -3.2,0.5 -6.15,2.15 -5.65,3.25 -4.3,9.35 0.25,1.2 1.4,1.7 5.1,2.15 5.4,-2.85 L -4.8,2.8 -4.45,1.75 Q -4.3,1.2 -4.3,0.65 l 0.05,-0.2 Q -2.7,-0.95 -0.7,-1.25 1.45,-1.6 2.8,0 L 2.95,0.45 3.3,1.1 3.4,1.3 V 1.95 L 3.25,3.2 3.05,4.5 3,4.7 2.75,5.15 2.55,5.55 2.45,5.8 q -1.4,1.15 -3.05,1.7 -2.1,0.7 -3.9,2.05 -2.1,1.7 -1.6,3.85 l 0.2,0.65 q -0.25,2.1 1,3.95 l 0.35,0.2 0.2,0.1 q -6.6,1.25 -13.6,0.35 -9.1,-1.15 -13,-8.6 l -0.1,-0.25"
         fill="#6d6d6d"
         fill-rule="evenodd"
         stroke="none"
         id="path2" />
      <path
         d="m -31.05,9.8 0.1,0.25 q 3.9,7.45 13,8.6 7,0.9 13.6,-0.35 l 0.25,0.1 0.05,0.05 q 1.2,1.3 2.5,0.15 l 1.2,-1.3 Q 3.85,16 7.85,13.75 9.9,12.6 11.5,10.85 15.75,6.1 17.15,-0.2 17.8,-3.05 16.7,-5.75 q -1.6,-3.8 -4.25,-5.8 2.9,0.8 5.75,2.1 L 22,-7.3 q 4.85,3.45 7.75,8.8 3,5.5 1.65,11.75 -0.3,0.35 -0.3,0.85 v 0.65 l 0.05,0.4 v 0.2 l -0.4,1.1 -0.1,0.85 v 0.45 0.2 l -1.5,3.1 q -1.05,2.1 -2.75,3.8 l -1.2,1.45 q -3.4,1.8 -7.1,3 -7.35,2.4 -14.95,4 -12.05,0.55 -23.95,-1.2 -3.25,-0.9 -6.35,-2.25 l -2.35,-1.1 -0.3,-0.45 -1.1,-1.7 -0.7,-0.85 -0.2,-0.2 q -1.15,-2.55 -1.05,-5.4 l 0.35,-4.45 q 0.25,-1.4 0.2,-2.85 l 0.35,-0.85 0.9,-2.2 M -2.4,20.95 q -1.3,0.1 -2.4,1.1 -3.5,3.2 0.4,5.8 3.2,2.1 4.65,-0.9 2.3,-4.8 -2.65,-6"
         fill="#585858"
         fill-rule="evenodd"
         stroke="none"
         id="path3" />
    </g>
    <g
       id="sprite1"
       transform="translate(17.4,15.85)">
      <use
         ffdec:characterId="31"
         height="57.200001"
         transform="matrix(0.5366,0,0,0.5366,-16.6582,-14.546)"
         width="70.75"
         xlink:href="#sprite2"
         id="use3" />
    </g>
    <g
       id="sprite2"
       transform="translate(-8.65,-10.35)">
      <use
         ffdec:characterId="30"
         height="57.200001"
         transform="translate(8.65,10.35)"
         width="70.75"
         xlink:href="#shape1"
         id="use4" />
    </g>
    <g
       id="shape1"
       transform="translate(-8.65,-10.35)">
      <path
         d="m 14.8,41.7 q 0.65,-1.75 2.65,-2.5 1.8,-0.8 3.7,-0.25 1.15,0.45 2.25,1.2 l 0.9,0.4 q 1.65,0.9 2.85,2.5 L 37.8,30.1 q 2.35,-2.8 3.75,-3.95 1.5,-1.15 4.25,-2.4 18.2,-8.85 27.65,-12.6 2.15,-0.8 3.25,-0.8 h 0.8 l 1.9,2.4 -0.2,0.8 q -0.2,1.1 -1.55,3 -5.85,8.25 -18.85,23.8 -1.85,2.35 -3.35,3.5 -1.4,1.15 -4.75,2.75 l -15.15,7.15 q 1.2,1.6 1.75,3.4 l 0.2,1 0.55,2.5 q 0.1,1.95 -1.1,3.55 -1.2,1.65 -3.05,1.9 l -1.3,0.05 q -1.65,0.2 -3.45,-0.65 -1.85,-0.9 -3,-2.6 L 25,60.95 23.8,62.1 q -2.6,2.85 -4.3,3.95 -2.85,1.8 -5.5,1.45 l -1.65,-0.5 -1.2,-0.7 -0.2,-0.2 q -1,-0.85 -1.6,-1.9 L 9.25,64 9.15,63.8 8.75,62.4 q -0.2,-0.8 -0.05,-1.7 0.25,-2.65 2.7,-5.05 1.5,-1.3 4.9,-3.15 L 17.7,51.55 16.05,50 q -1.35,-1.5 -1.8,-3.6 -0.4,-1.85 0.25,-3.45 l 0.3,-1.25"
         fill="#000000"
         fill-opacity="0.372549"
         fill-rule="evenodd"
         stroke="none"
         id="path4" />
    </g>
  </defs>
</svg>
