<?xml version="1.0" encoding="UTF-8" standalone="no"?>
<svg
   ffdec:objectType="frame"
   height="74.379608"
   width="59.585369"
   version="1.1"
   id="svg5"
   xmlns:xlink="http://www.w3.org/1999/xlink"
   xmlns="http://www.w3.org/2000/svg"
   xmlns:svg="http://www.w3.org/2000/svg"
   xmlns:ffdec="https://www.free-decompiler.com/flash">
  <g
     transform="translate(33.466949,39)"
     id="g1">
    <use
       ffdec:characterId="17"
       height="119.15"
       id="rarity"
       transform="translate(-58.5,-60.65)"
       width="119.15"
       xlink:href="#sprite0" />
    <use
       ffdec:characterId="1129"
       height="74.400002"
       transform="translate(-33.45,-39)"
       width="59.549999"
       xlink:href="#shape0"
       id="use1" />
  </g>
  <defs
     id="defs5">
    <g
       id="shape0"
       transform="translate(32.15,37.1)">
      <path
         d="M 3.3,-0.25 4.05,-0.3 q 2.25,-6.3 9.25,-7.9 2.15,-0.5 3.9,-1.8 l 0.3,-0.2 0.2,-0.55 0.2,-0.3 0.3,-1.3 v -0.1 Q 17.75,-20.9 14,-28.5 l -1.1,-1.6 q -1.4,3.7 -4.65,5.75 -0.55,0.35 -1.2,0 -2.25,-1.4 -3.8,-3.6 l -1.2,-1.5 q -0.15,3.45 -2.7,5.3 -0.7,0.55 -1.6,0.2 -9.75,-3.75 -18.15,2 -1.2,0.85 -2.1,2.05 -1.1,1.5 -1.55,3.4 4.5,-1.05 7.15,2.35 2.8,3.5 0.35,7.5 -3.65,5.85 -10.55,4.05 -2.1,-0.55 -3.5,-2.3 -2.15,-2.7 -1.35,-6.35 0.5,-2.15 2,-3.95 1.5,-9.5 10.4,-13.35 2.35,-1.05 4.85,-1.55 l 11.7,0.45 q -0.1,-2.95 0.6,-5.65 0.15,-0.7 0.9,-0.85 2.8,-0.65 5.1,1.25 2.2,1.85 3.95,4.05 1.25,-1.85 2.15,-4.15 0.7,-1.9 2.65,-2.1 3,0.95 4.65,3.9 3.9,7.25 5.6,15.35 0.65,3.45 0.25,7 -0.65,6.15 -7.05,7.55 -3.3,0.7 -4.3,3.95 3.9,1.05 7.5,3.45 3.8,2.6 5.25,7.1 2.35,7.85 2.85,16.15 v 0.35 q 0.55,2.85 0.15,5.65 -0.2,1.8 -1.95,2.35 -7.5,2.45 -15.45,1.1 L 6.5,36.35 Q -3.6,35.8 -13.05,32 l -8.35,-3.55 q -4.6,-2 -6.5,-6.3 -0.3,-0.8 0,-1.6 1.65,-4.15 4.3,-7.7 l 3.3,-4.15 q 4.75,-5.2 11.7,-6.95 5.9,-1.5 11.9,-2 M -15.8,11.5 q -1.3,1.2 -2.3,2.75 l -3.25,5.2 -0.75,1.75 q 5.8,3.85 12.5,6.05 l 10.3,3.1 2.15,0.35 11.3,1.1 q 4.35,0.55 8.35,-0.95 l -0.8,-6.9 Q 21.15,17.35 18.2,11.4 L 18.1,11.15 Q 16.3,7.8 12.55,6.5 7.95,4.95 2.9,4.95 -5.55,5.05 -12.85,9.25 -14.5,10.2 -15.8,11.5 M 3.65,23.55 q -0.3,2.8 -3.35,3.2 -2.85,0.35 -4.4,-1.9 -1.15,-1.75 -0.6,-3.3 0.3,-0.95 1.15,-1.8 1.2,-1.15 2.7,-1.3 4.7,0.15 4.5,4.75 v 0.35 m -14.7,-5 q 0.1,0.9 -0.65,2.05 -0.7,1.3 -2.2,0.9 l -0.25,-0.05 -1.5,-0.3 q -3.4,-2.15 -0.9,-5.15 0.5,-0.65 1.2,-0.85 l 0.6,-0.15 q 3.85,-0.3 3.55,2.9 0.15,0.3 0.15,0.65 m 25.35,9.2 q -1.85,-0.45 -2.05,-1.8 -0.45,-0.65 -0.4,-1.55 0.15,-2.2 2.2,-2.55 3.9,0.1 3.4,3.55 -0.2,1 -1,1.55 -0.7,1.2 -2.15,0.8 m -34.95,-36.85 0.2,-0.5 0.1,-0.55 v -0.15 l -0.1,-0.1 q 0,-2.25 -3.1,-2.6 -1.1,0 -1.9,0.7 -1.45,1.3 -0.95,3.1 0.75,2.9 3.4,2.2 l 0.65,-0.25 0.1,-0.05 q 1.05,-0.45 1.45,-1.5 l 0.15,-0.3"
         fill="#000000"
         fill-rule="evenodd"
         stroke="none"
         id="path1" />
      <path
         d="m -20.65,-9.1 -0.15,0.3 q -0.4,1.05 -1.45,1.5 l -0.1,0.05 L -23,-7 q -2.65,0.7 -3.4,-2.2 -0.5,-1.8 0.95,-3.1 0.8,-0.7 1.9,-0.7 3.1,0.35 3.1,2.6 l 0.1,0.1 v 0.15 l -0.1,0.55 -0.2,0.5"
         fill="#ffffff"
         fill-rule="evenodd"
         stroke="none"
         id="path2" />
      <path
         d="m 18.1,11.15 q 0.7,2.2 0,4.75 -0.8,3 -3.4,4.85 -4.9,3.6 -11.05,2.8 V 23.2 q 0.2,-4.6 -4.5,-4.75 -1.5,0.15 -2.7,1.3 -0.85,0.85 -1.15,1.8 L -6.4,20.9 q -2.45,-0.9 -4.65,-2.35 0,-0.35 -0.15,-0.65 0.3,-3.2 -3.55,-2.9 l -0.6,0.15 Q -16,13.9 -15.9,12.2 l 0.1,-0.7 q 1.3,-1.3 2.95,-2.25 7.3,-4.2 15.75,-4.3 5.05,0 9.65,1.55 3.75,1.3 5.55,4.65"
         fill="#939393"
         fill-rule="evenodd"
         stroke="none"
         id="path3" />
      <path
         d="m 18.1,11.15 0.1,0.25 q 2.95,5.95 3.5,12.55 l 0.8,6.9 q -4,1.5 -8.35,0.95 L 2.85,30.7 0.7,30.35 -9.6,27.25 q -6.7,-2.2 -12.5,-6.05 l 0.75,-1.75 3.25,-5.2 q 1,-1.55 2.3,-2.75 l -0.1,0.7 q -0.1,1.7 0.55,2.95 -0.7,0.2 -1.2,0.85 -2.5,3 0.9,5.15 l 1.5,0.3 0.25,0.05 q 1.5,0.4 2.2,-0.9 0.75,-1.15 0.65,-2.05 2.2,1.45 4.65,2.35 l 1.7,0.65 q -0.55,1.55 0.6,3.3 1.55,2.25 4.4,1.9 3.05,-0.4 3.35,-3.2 6.15,0.8 11.05,-2.8 2.6,-1.85 3.4,-4.85 0.7,-2.55 0,-4.75 m -3.8,16.6 q 1.45,0.4 2.15,-0.8 0.8,-0.55 1,-1.55 0.5,-3.45 -3.4,-3.55 -2.05,0.35 -2.2,2.55 -0.05,0.9 0.4,1.55 0.2,1.35 2.05,1.8"
         fill="#6d6d6d"
         fill-rule="evenodd"
         stroke="none"
         id="path4" />
    </g>
    <g
       id="sprite1"
       transform="translate(17.4,15.85)">
      <use
         ffdec:characterId="31"
         height="57.200001"
         transform="matrix(0.5366,0,0,0.5366,-16.6582,-14.546)"
         width="70.75"
         xlink:href="#sprite2"
         id="use4" />
    </g>
    <g
       id="sprite2"
       transform="translate(-8.65,-10.35)">
      <use
         ffdec:characterId="30"
         height="57.200001"
         transform="translate(8.65,10.35)"
         width="70.75"
         xlink:href="#shape1"
         id="use5" />
    </g>
    <g
       id="shape1"
       transform="translate(-8.65,-10.35)">
      <path
         d="m 14.8,41.7 q 0.65,-1.75 2.65,-2.5 1.8,-0.8 3.7,-0.25 1.15,0.45 2.25,1.2 l 0.9,0.4 q 1.65,0.9 2.85,2.5 L 37.8,30.1 q 2.35,-2.8 3.75,-3.95 1.5,-1.15 4.25,-2.4 18.2,-8.85 27.65,-12.6 2.15,-0.8 3.25,-0.8 h 0.8 l 1.9,2.4 -0.2,0.8 q -0.2,1.1 -1.55,3 -5.85,8.25 -18.85,23.8 -1.85,2.35 -3.35,3.5 -1.4,1.15 -4.75,2.75 l -15.15,7.15 q 1.2,1.6 1.75,3.4 l 0.2,1 0.55,2.5 q 0.1,1.95 -1.1,3.55 -1.2,1.65 -3.05,1.9 l -1.3,0.05 q -1.65,0.2 -3.45,-0.65 -1.85,-0.9 -3,-2.6 L 25,60.95 23.8,62.1 q -2.6,2.85 -4.3,3.95 -2.85,1.8 -5.5,1.45 l -1.65,-0.5 -1.2,-0.7 -0.2,-0.2 q -1,-0.85 -1.6,-1.9 L 9.25,64 9.15,63.8 8.75,62.4 q -0.2,-0.8 -0.05,-1.7 0.25,-2.65 2.7,-5.05 1.5,-1.3 4.9,-3.15 L 17.7,51.55 16.05,50 q -1.35,-1.5 -1.8,-3.6 -0.4,-1.85 0.25,-3.45 l 0.3,-1.25"
         fill="#000000"
         fill-opacity="0.372549"
         fill-rule="evenodd"
         stroke="none"
         id="path5" />
    </g>
  </defs>
</svg>
