<?xml version="1.0" encoding="UTF-8" standalone="no"?>
<svg
   ffdec:objectType="frame"
   height="55.651451"
   width="60.968632"
   version="1.1"
   id="svg5"
   xmlns:xlink="http://www.w3.org/1999/xlink"
   xmlns="http://www.w3.org/2000/svg"
   xmlns:svg="http://www.w3.org/2000/svg"
   xmlns:ffdec="https://www.free-decompiler.com/flash">
  <g
     transform="translate(29.802632,32.284783)"
     id="g1">
    <use
       ffdec:characterId="17"
       height="119.15"
       id="rarity"
       transform="translate(-58.5,-60.65)"
       width="119.15"
       xlink:href="#sprite0" />
    <use
       ffdec:characterId="1085"
       height="55.650002"
       transform="translate(-29.8,-32.3)"
       width="60.950001"
       xlink:href="#shape0"
       id="use1" />
  </g>
  <defs
     id="defs5">
    <g
       id="shape0"
       transform="translate(76.6,33.65)">
      <path
         d="m -54.9,1.25 -2.4,0.15 q -1.4,-0.25 -1.85,-1.4 -0.3,-0.9 0.3,-2.55 3.05,-7.15 11.65,-13.55 2.95,-2.15 8.05,-5.4 l 3.95,-2.55 2.6,-1.4 2.75,-0.2 q 1.2,0.3 2.5,1.7 1.45,1.6 2.05,3.35 0.7,2 0.1,3.7 -0.65,1.85 -3.35,3.8 -2.1,1.45 -5.55,3.4 l -0.15,0.05 -0.5,0.3 -5.4,3 -7.1,4.4 q -4.2,2.4 -7.65,3.2 m 12.35,-16.4 q -7.3,4.55 -11.7,12.05 2.8,-0.65 6.2,-2.7 l 5.7,-3.75 0.55,-0.3 3.9,-5.3 3.55,-4.55 -8.2,4.55 M -23.1,-31.1 q 3.4,2.3 5.35,5.25 2.3,3.55 2.1,7.2 -0.3,4.75 -5.35,9.9 l -2.95,2.8 q -14.4,18 -32.15,27.15 -2.65,1.4 -4,0.4 -1.1,-0.8 -0.85,-2.55 0.2,-1.05 1.2,-2.55 1.9,-2.85 4.8,-6 -5.1,2.1 -8.1,3.55 l -3.1,1.45 -3.25,0.9 -3.4,-0.3 q -1.8,-0.55 -2.75,-1.9 -2,-2.7 -0.2,-7.45 1.2,-3.15 4.45,-8 5,-7.25 10.3,-12.95 13.1,-14.4 26.75,-18.65 3.3,-0.95 5.2,-0.75 2.7,0.25 5.95,2.5 m 1.7,8.05 -1.25,-1.5 -0.95,-0.9 -1.95,-1.5 q -2,-1.5 -3.25,-1.75 -1.6,-0.35 -4.15,0.55 -10.25,3.5 -19.55,12.3 -6.9,6.6 -14.8,17.95 l -1.6,2.5 q -1.9,3.1 -2.4,5.4 -0.2,1.05 0.3,1.5 l 1.15,0.15 2.65,-0.9 17,-7.25 q 8.7,-3.85 13.35,-6.45 6.8,-3.8 11.5,-8.1 l 0.45,-0.45 0.7,-0.65 q 1.5,-1.6 2.4,-2.95 l 0.45,-0.85 0.7,-1.65 0.25,-1.1 q 0.15,-1.45 -0.25,-2.75 l -0.75,-1.6 m -14.4,9.9 q 3.95,-2.15 6.2,-4.1 0.85,-0.75 0.85,-1.35 -0.05,-0.65 -0.9,-1.6 l -0.2,0.2 -6.15,7 0.2,-0.15 m -5.15,17.65 -5.25,2.3 -0.25,0.25 -7.55,8.2 q 3.15,-1.65 6.8,-4.35 l 6.35,-5 4.25,-3.55 -4.35,2.15"
         fill="#000000"
         fill-rule="evenodd"
         stroke="none"
         id="path1" />
      <path
         d="m -54.9,1.25 q 3.45,-0.8 7.65,-3.2 l 7.1,-4.4 5.4,-3 0.5,-0.3 0.15,-0.05 q 3.45,-1.95 5.55,-3.4 2.7,-1.95 3.35,-3.8 0.6,-1.7 -0.1,-3.7 -0.6,-1.75 -2.05,-3.35 -1.3,-1.4 -2.5,-1.7 l -2.75,0.2 -2.6,1.4 -3.95,2.55 q -5.1,3.25 -8.05,5.4 -8.6,6.4 -11.65,13.55 -0.6,1.65 -0.3,2.55 0.45,1.15 1.85,1.4 l 2.4,-0.15 m -14,3.35 1.6,-2.5 q 7.9,-11.35 14.8,-17.95 9.3,-8.8 19.55,-12.3 2.55,-0.9 4.15,-0.55 1.25,0.25 3.25,1.75 l 1.95,1.5 0.95,0.9 1.25,1.5 q 0.45,2 0.65,4.1 l 0.05,0.65 0.05,0.7 -0.7,1.65 -0.45,0.85 -1.1,0.05 q -1.05,1.65 -2.75,3.25 l -1.55,1.25 -1.65,1.15 -3.75,2.25 q -9.4,5.4 -15.25,8.05 -8.7,3.9 -16.3,5.3 l -3.6,-0.3 Q -68.6,5.4 -68.9,4.6"
         fill="#e8a9e0"
         fill-rule="evenodd"
         stroke="none"
         id="path2" />
      <path
         d="m -68.9,4.6 q 0.3,0.8 1.15,1.3 l 3.6,0.3 q 7.6,-1.4 16.3,-5.3 5.85,-2.65 15.25,-8.05 l 3.75,-2.25 1.65,-1.15 1.55,-1.25 q 1.7,-1.6 2.75,-3.25 l 1.1,-0.05 q -0.9,1.35 -2.4,2.95 l -0.7,0.65 -0.45,0.45 q -4.7,4.3 -11.5,8.1 -4.65,2.6 -13.35,6.45 l -17,7.25 -2.65,0.9 L -71,11.5 q -0.5,-0.45 -0.3,-1.5 0.5,-2.3 2.4,-5.4 m 48.25,-22.2 -0.05,-0.7 -0.05,-0.65 q -0.2,-2.1 -0.65,-4.1 l 0.75,1.6 q 0.4,1.3 0.25,2.75 l -0.25,1.1"
         fill="#cc8bc4"
         fill-rule="evenodd"
         stroke="none"
         id="path3" />
      <path
         d="m -35.8,-13.15 -0.2,0.15 6.15,-7 0.2,-0.2 q 0.85,0.95 0.9,1.6 0,0.6 -0.85,1.35 -2.25,1.95 -6.2,4.1 m -5.15,17.65 4.35,-2.15 -4.25,3.55 -6.35,5 q -3.65,2.7 -6.8,4.35 l 7.55,-8.2 0.25,-0.25 5.25,-2.3"
         fill="#bdbdbd"
         fill-rule="evenodd"
         stroke="none"
         id="path4" />
    </g>
    <g
       id="sprite1"
       transform="translate(17.4,15.85)">
      <use
         ffdec:characterId="31"
         height="57.200001"
         transform="matrix(0.5366,0,0,0.5366,-16.6582,-14.546)"
         width="70.75"
         xlink:href="#sprite2"
         id="use4" />
    </g>
    <g
       id="sprite2"
       transform="translate(-8.65,-10.35)">
      <use
         ffdec:characterId="30"
         height="57.200001"
         transform="translate(8.65,10.35)"
         width="70.75"
         xlink:href="#shape1"
         id="use5" />
    </g>
    <g
       id="shape1"
       transform="translate(-8.65,-10.35)">
      <path
         d="m 14.8,41.7 q 0.65,-1.75 2.65,-2.5 1.8,-0.8 3.7,-0.25 1.15,0.45 2.25,1.2 l 0.9,0.4 q 1.65,0.9 2.85,2.5 L 37.8,30.1 q 2.35,-2.8 3.75,-3.95 1.5,-1.15 4.25,-2.4 18.2,-8.85 27.65,-12.6 2.15,-0.8 3.25,-0.8 h 0.8 l 1.9,2.4 -0.2,0.8 q -0.2,1.1 -1.55,3 -5.85,8.25 -18.85,23.8 -1.85,2.35 -3.35,3.5 -1.4,1.15 -4.75,2.75 l -15.15,7.15 q 1.2,1.6 1.75,3.4 l 0.2,1 0.55,2.5 q 0.1,1.95 -1.1,3.55 -1.2,1.65 -3.05,1.9 l -1.3,0.05 q -1.65,0.2 -3.45,-0.65 -1.85,-0.9 -3,-2.6 L 25,60.95 23.8,62.1 q -2.6,2.85 -4.3,3.95 -2.85,1.8 -5.5,1.45 l -1.65,-0.5 -1.2,-0.7 -0.2,-0.2 q -1,-0.85 -1.6,-1.9 L 9.25,64 9.15,63.8 8.75,62.4 q -0.2,-0.8 -0.05,-1.7 0.25,-2.65 2.7,-5.05 1.5,-1.3 4.9,-3.15 L 17.7,51.55 16.05,50 q -1.35,-1.5 -1.8,-3.6 -0.4,-1.85 0.25,-3.45 l 0.3,-1.25"
         fill="#000000"
         fill-opacity="0.372549"
         fill-rule="evenodd"
         stroke="none"
         id="path5" />
    </g>
  </defs>
</svg>
