<?xml version="1.0" encoding="UTF-8" standalone="no"?>
<svg
   ffdec:objectType="frame"
   height="61.139488"
   width="77.776665"
   version="1.1"
   id="svg5"
   xmlns:xlink="http://www.w3.org/1999/xlink"
   xmlns="http://www.w3.org/2000/svg"
   xmlns:svg="http://www.w3.org/2000/svg"
   xmlns:ffdec="https://www.free-decompiler.com/flash">
  <g
     transform="translate(37.216667,28.512821)"
     id="g1">
    <use
       ffdec:characterId="17"
       height="119.15"
       id="rarity"
       transform="translate(-58.5,-60.65)"
       width="119.15"
       xlink:href="#sprite0" />
    <use
       ffdec:characterId="909"
       height="61.150002"
       transform="translate(-37.2,-28.5)"
       width="77.75"
       xlink:href="#shape0"
       id="use1" />
  </g>
  <defs
     id="defs5">
    <g
       id="shape0"
       transform="translate(37.75,29.25)">
      <path
         d="m 8.95,-5.55 11.5,1.5 2.8,-0.05 1.85,-0.95 q 3.35,-2.1 6.65,-2.1 4,0 6.3,2.7 2.1,2.4 1.95,6.1 -0.15,2.9 -1.95,6.2 1.3,2.1 0.7,4.7 Q 38.1,15.2 36,16.5 l -1.35,0.8 q -0.8,0.45 -1.1,1.05 l -0.4,2 q -0.35,2.8 -2.75,4.7 -2.4,1.9 -5.2,1.6 -0.05,1.6 -1.3,3 -1.15,1.25 -2.8,1.8 -2.4,0.8 -6.7,0.1 L 7.8,30.4 1.2,29.45 -3,29.3 l -4.15,-0.05 -7.95,-0.6 -7.95,-1.1 q -6.15,-0.9 -9.2,-2.1 -3.15,-1.3 -4.2,-3.25 -0.7,-1.2 -0.9,-4.05 l -0.4,-7.75 q -0.1,-6.05 0.4,-11.1 l 0.75,-5.8 1.6,-11.85 q 0.45,-2.7 1,-3.65 0.95,-1.6 3.85,-3.15 5.45,-2.75 11.6,-3.65 6.15,-0.95 12.15,0.05 3.1,0.5 8.75,2.2 1.95,0.65 2.45,1.25 0.8,0.9 0.8,3.45 -0.05,7.5 1.5,14.7 0.1,0.7 0.35,1 0.35,0.4 1.5,0.6 m 19,20.75 0.5,-0.65 0.45,-0.35 1.6,-0.85 1.4,-0.65 q 1.45,-0.85 1.8,-1.65 L 33.6,11 Q 32.75,10.55 32.45,9.55 L 32.3,8.85 V 8.7 l 0.1,-1.25 q 0.2,-0.8 0.75,-1.9 l 0.9,-1.85 q 1.15,-2.35 0.2,-3.95 -0.5,-0.85 -1.55,-1.2 l -2.05,-0.2 -1.3,0.45 0.2,0.25 0.05,0.05 q 1.2,1.3 1.3,3.15 l 0.05,0.35 -0.3,1.5 q -0.75,1.7 -2.9,2.2 l -3.8,0.1 Q 23.2,6.4 22.85,6.05 22.4,5.6 22.6,4.45 V 4.4 L 22.9,2.65 23,2.3 H 22.95 22.9 L 20.6,2 Q 13.3,0.6 6.5,0.3 L 4.4,0.05 Q 3.25,-0.25 2.6,-0.9 1.8,-1.65 1.6,-3.05 L 1.5,-5.6 q 0,-2.3 -0.95,-6.85 l -0.8,-4.75 q -0.8,0.45 -1.65,0.85 -4.6,2.15 -9.65,3.25 -8.05,1.75 -14.45,-0.1 -2.15,-0.55 -3.65,-1.55 L -31.5,0 q -0.8,9.35 0,16.8 l 0.45,1.75 q 0.65,1.2 2.9,1.8 7.15,2.1 19.85,2.85 14.8,0.85 20.15,1.85 l 5.45,1.1 q 1.65,0.2 2.2,-0.35 l 0.45,-0.9 0.25,-1.1 q 0.5,-1.75 2.2,-2.3 l 2.9,-0.25 q 1.85,-0.1 2.5,-1.3 0.3,-0.7 0.05,-2.05 -0.3,-1.5 -0.15,-2.15 L 27.95,15.2 M 17.25,12.9 18,12 18.8,11.55 q 1.25,-0.55 3.05,-0.4 1.6,0.1 2.7,0.7 l 0.15,0.1 q 0.75,0.55 1.15,1.4 l 0.05,0.2 0.2,1.1 v 0.55 l -0.1,0.4 -0.3,0.8 -0.45,0.8 -0.15,0.2 -0.95,1.1 -1.5,0.2 L 20.5,18.35 19.95,18 19.4,17.7 18.8,16.95 18.5,16.45 q -0.9,-0.25 -1.35,-0.9 -0.55,-0.8 -0.25,-1.9 l 0.35,-0.75 m 9.9,-12.6 -2.05,1.6 -0.9,0.3 0.1,0.4 0.1,0.7 0.2,0.6 2.8,-0.15 q 0.7,-0.25 1.1,-0.9 0.4,-0.7 0.15,-1.35 l -1,-1.15 -0.2,-0.25 -0.3,0.2 M 23.7,14.4 23.65,14.3 V 14.25 Q 23.45,13.7 22.7,13.5 h -2.1 -0.3 l -0.15,0.05 -0.1,0.6 0.4,0.9 0.7,1.05 1.05,0.05 0.9,-0.2 0.45,-0.8 0.15,-0.75 m -12.35,2.85 2.25,-0.2 0.7,0.05 q 1.2,0.05 1.65,0.4 l 0.65,0.85 0.2,0.45 q 0.8,1.8 0.85,2.8 v 0.3 q -0.1,1.6 -1.35,2.15 l -1.65,0.15 -1.4,-0.45 -0.9,-0.95 -0.3,-0.2 -0.65,-0.15 -0.8,-0.2 q -0.95,-0.5 -0.85,-1.9 v -0.4 q 0.2,-2 1.6,-2.7 m 4.2,4.15 -0.25,-0.65 Q 15,20.45 15,20 l -0.25,-0.75 -0.4,-0.05 -1.6,0.1 -0.45,0.1 -0.2,0.5 0.3,0.7 0.15,0.25 0.4,0.15 q 0.65,0.1 1.15,0.45 l 0.35,0.2 0.55,0.05 0.55,-0.3 m -38.3,-37.6 -1.35,-0.3 q -0.95,-0.3 -1.2,-1.4 -0.15,-1.05 0.55,-1.75 0.45,-0.5 1.6,-0.8 l 2.45,-0.15 1.3,0.45 0.55,0.8 q 0.5,1.25 -0.25,2.3 -0.7,1 -2.05,1.1 l -1.6,-0.25 m 20.6,-5.7 -0.45,-0.15 -4.25,-1 -7.75,-0.4 q -6.45,0.4 -12.15,3.15 -1.55,0.85 -2,1.5 l -0.4,1.1 1.05,0.5 q 4.05,1.5 8.1,1.5 3.9,0.1 8.9,-1.2 l 3.15,-1 q 2.95,-1 4.35,-1.95 l 1.2,-0.9 0.95,-0.75 0.1,-0.05 -0.8,-0.35 m -6.2,-0.7 0.25,0.15 q 0.7,0.45 0.85,1.65 0.1,0.75 -0.3,1.35 -0.45,0.8 -2.05,1.1 l -2.55,0.15 -1.55,-0.35 -0.95,-0.95 q -0.45,-1.1 0.4,-2.05 0.65,-0.7 1.95,-1 l 2.2,-0.2 1.75,0.15"
         fill="#000000"
         fill-rule="evenodd"
         stroke="none"
         id="path1" />
      <path
         d="m -1.9,-16.35 q 0.85,-0.4 1.65,-0.85 l 0.8,4.75 Q 1.5,-7.9 1.5,-5.6 l 0.1,2.55 q 0.2,1.4 1,2.15 0.65,0.65 1.8,0.95 L 6.5,0.3 Q 13.3,0.6 20.6,2 l 2.3,0.3 H 22.95 23 L 22.9,2.65 22.6,4.4 v 0.05 q -0.2,1.15 0.25,1.6 0.35,0.35 1.1,0.35 l 3.8,-0.1 Q 29.9,5.8 30.65,4.1 L 30.95,2.6 30.9,2.25 Q 30.8,0.4 29.6,-0.9 l -0.05,-0.05 -0.2,-0.25 1.3,-0.45 2.05,0.2 q 1.05,0.35 1.55,1.2 0.95,1.6 -0.2,3.95 l -0.9,1.85 Q 32.6,6.65 32.4,7.45 L 32.3,8.7 v 0.15 l 0.15,0.7 q 0.3,1 1.15,1.45 l 0.1,0.05 q -0.35,0.8 -1.8,1.65 l -1.4,0.65 -1.6,0.85 -0.45,0.35 -0.5,0.65 h -1.2 -0.65 v -0.55 l -0.2,-1.1 -0.05,-0.2 q -0.4,-0.85 -1.15,-1.4 l -0.15,-0.1 q -1.1,-0.6 -2.7,-0.7 -1.8,-0.15 -3.05,0.4 L 18,12 17.25,12.9 Q 16.45,13 15.5,13.55 L 13.65,14.7 Q 11.3,16.1 6.8,16.65 -4.45,18.1 -10.35,13.6 q -1.8,-1.35 -2.75,-3.2 -1,-2.05 -0.4,-3.95 0.4,-1.25 1.6,-2.45 l 2.35,-1.85 5.75,-3.9 q 1.55,-1.15 2.05,-1.85 1,-1.55 0.6,-5.1 l -0.7,-6.1 -0.05,-1.55 M 20.6,13.5 h 2.1 q 0.75,0.2 0.95,0.75 v 0.05 l 0.05,0.1 -2.85,-0.8 -0.25,-0.1 m -28.95,-36.1 -1.75,-0.15 -2.2,0.2 q -1.3,0.3 -1.95,1 -0.85,0.95 -0.4,2.05 l 0.95,0.95 1.55,0.35 2.55,-0.15 q 1.6,-0.3 2.05,-1.1 0.4,-0.6 0.3,-1.35 -0.15,-1.2 -0.85,-1.65 l -0.25,-0.15 m 6.2,0.7 0.8,0.35 -0.1,0.05 -0.95,0.75 -1.2,0.9 q -1.4,0.95 -4.35,1.95 l -3.15,1 q -5,1.3 -8.9,1.2 -4.05,0 -8.1,-1.5 l -1.05,-0.5 0.4,-1.1 q 0.45,-0.65 2,-1.5 5.7,-2.75 12.15,-3.15 l 7.75,0.4 4.25,1 0.45,0.15 m -20.6,5.7 1.6,0.25 q 1.35,-0.1 2.05,-1.1 0.75,-1.05 0.25,-2.3 l -0.55,-0.8 -1.3,-0.45 -2.45,0.15 q -1.15,0.3 -1.6,0.8 -0.7,0.7 -0.55,1.75 0.25,1.1 1.2,1.4 l 1.35,0.3"
         fill="#1e1e1e"
         fill-rule="evenodd"
         stroke="none"
         id="path2" />
      <path
         d="m -1.9,-16.35 0.05,1.55 0.7,6.1 q 0.4,3.55 -0.6,5.1 -0.5,0.7 -2.05,1.85 L -9.55,2.15 -11.9,4 q -1.2,1.2 -1.6,2.45 -0.6,1.9 0.4,3.95 0.95,1.85 2.75,3.2 5.9,4.5 17.15,3.05 4.5,-0.55 6.85,-1.95 L 15.5,13.55 Q 16.45,13 17.25,12.9 l -0.35,0.75 q -0.3,1.1 0.25,1.9 0.45,0.65 1.35,0.9 l 0.3,0.5 0.6,0.75 0.55,0.3 0.55,0.35 2.15,0.35 1.5,-0.2 0.95,-1.1 0.15,-0.2 0.45,-0.8 0.3,-0.8 0.1,-0.4 h 0.65 1.2 l -0.25,0.55 q -0.15,0.65 0.15,2.15 0.25,1.35 -0.05,2.05 -0.65,1.2 -2.5,1.3 l -2.9,0.25 q -1.7,0.55 -2.2,2.3 l -0.25,1.1 -0.45,0.9 q -0.55,0.55 -2.2,0.35 l -5.45,-1.1 Q 6.5,24.05 -8.3,23.2 -21,22.45 -28.15,20.35 q -2.25,-0.6 -2.9,-1.8 L -31.5,16.8 q -0.8,-7.45 0,-16.8 l 1.85,-14.75 q 1.5,1 3.65,1.55 6.4,1.85 14.45,0.1 5.05,-1.1 9.65,-3.25 m 13.25,33.6 q -1.4,0.7 -1.6,2.7 v 0.4 q -0.1,1.4 0.85,1.9 l 0.8,0.2 0.65,0.15 0.3,0.2 0.9,0.95 1.4,0.45 1.65,-0.15 Q 17.55,23.5 17.65,21.9 V 21.6 Q 17.6,20.6 16.8,18.8 L 16.6,18.35 15.95,17.5 Q 15.5,17.15 14.3,17.1 l -0.7,-0.05 -2.25,0.2"
         fill="#111111"
         fill-rule="evenodd"
         stroke="none"
         id="path3" />
      <path
         d="m 27.15,0.3 0.3,-0.2 0.2,0.25 1,1.15 Q 28.9,2.15 28.5,2.85 28.1,3.5 27.4,3.75 L 24.6,3.9 24.4,3.3 24.3,2.6 24.2,2.2 25.1,1.9 27.15,0.3 m -6.55,13.2 0.25,0.1 2.85,0.8 -0.15,0.75 -0.45,0.8 -0.9,0.2 -1.05,-0.05 -0.7,-1.05 -0.4,-0.9 0.1,-0.6 0.15,-0.05 h 0.3 M 15.55,21.4 15,21.7 14.45,21.65 14.1,21.45 Q 13.6,21.1 12.95,21 l -0.4,-0.15 -0.15,-0.25 -0.3,-0.7 0.2,-0.5 0.45,-0.1 1.6,-0.1 0.4,0.05 L 15,20 q 0,0.45 0.3,0.75 l 0.25,0.65"
         fill="#2d2d2d"
         fill-rule="evenodd"
         stroke="none"
         id="path4" />
    </g>
    <g
       id="sprite1"
       transform="translate(17.4,15.85)">
      <use
         ffdec:characterId="31"
         height="57.200001"
         transform="matrix(0.5366,0,0,0.5366,-16.6582,-14.546)"
         width="70.75"
         xlink:href="#sprite2"
         id="use4" />
    </g>
    <g
       id="sprite2"
       transform="translate(-8.65,-10.35)">
      <use
         ffdec:characterId="30"
         height="57.200001"
         transform="translate(8.65,10.35)"
         width="70.75"
         xlink:href="#shape1"
         id="use5" />
    </g>
    <g
       id="shape1"
       transform="translate(-8.65,-10.35)">
      <path
         d="m 14.8,41.7 q 0.65,-1.75 2.65,-2.5 1.8,-0.8 3.7,-0.25 1.15,0.45 2.25,1.2 l 0.9,0.4 q 1.65,0.9 2.85,2.5 L 37.8,30.1 q 2.35,-2.8 3.75,-3.95 1.5,-1.15 4.25,-2.4 18.2,-8.85 27.65,-12.6 2.15,-0.8 3.25,-0.8 h 0.8 l 1.9,2.4 -0.2,0.8 q -0.2,1.1 -1.55,3 -5.85,8.25 -18.85,23.8 -1.85,2.35 -3.35,3.5 -1.4,1.15 -4.75,2.75 l -15.15,7.15 q 1.2,1.6 1.75,3.4 l 0.2,1 0.55,2.5 q 0.1,1.95 -1.1,3.55 -1.2,1.65 -3.05,1.9 l -1.3,0.05 q -1.65,0.2 -3.45,-0.65 -1.85,-0.9 -3,-2.6 L 25,60.95 23.8,62.1 q -2.6,2.85 -4.3,3.95 -2.85,1.8 -5.5,1.45 l -1.65,-0.5 -1.2,-0.7 -0.2,-0.2 q -1,-0.85 -1.6,-1.9 L 9.25,64 9.15,63.8 8.75,62.4 q -0.2,-0.8 -0.05,-1.7 0.25,-2.65 2.7,-5.05 1.5,-1.3 4.9,-3.15 L 17.7,51.55 16.05,50 q -1.35,-1.5 -1.8,-3.6 -0.4,-1.85 0.25,-3.45 l 0.3,-1.25"
         fill="#000000"
         fill-opacity="0.372549"
         fill-rule="evenodd"
         stroke="none"
         id="path5" />
    </g>
  </defs>
</svg>
