<?xml version="1.0" encoding="UTF-8" standalone="no"?>
<svg
   ffdec:objectType="frame"
   height="61.549999"
   width="30.196268"
   version="1.1"
   id="svg4"
   xmlns:xlink="http://www.w3.org/1999/xlink"
   xmlns="http://www.w3.org/2000/svg"
   xmlns:svg="http://www.w3.org/2000/svg"
   xmlns:ffdec="https://www.free-decompiler.com/flash">
  <g
     transform="translate(16.496269,31.05)"
     id="g1">
    <use
       ffdec:characterId="17"
       height="119.15"
       id="rarity"
       transform="translate(-58.5,-60.65)"
       width="119.15"
       xlink:href="#sprite0" />
    <use
       ffdec:characterId="183"
       height="61.599998"
       transform="translate(-16.5,-31.05)"
       width="30.200001"
       xlink:href="#shape0"
       id="use1" />
  </g>
  <defs
     id="defs4">
    <g
       id="shape0"
       transform="translate(16.2,33.55)">
      <path
         d="m -10.15,-28.8 4.1,-0.85 -0.05,-0.4 q -0.25,-1.5 0.65,-2.4 l 1.2,-0.75 1.95,-0.35 2.35,0.25 2.1,0.25 q 1.25,0.25 1.7,1.2 0.35,0.75 -0.1,2 l 2.3,0.2 q 2.5,0.3 3.65,0.85 2,0.85 2.55,2.55 l 0.3,1.6 -0.05,1.6 q 0,1.4 0.5,4.2 1.5,9.7 0.75,21.75 -0.55,8.25 -2.55,21.8 -0.3,1.75 -0.8,2.25 Q 9.75,27.8 8.3,28 H 5.75 L -3.2,27.85 q -5.3,-0.1 -8.6,-1.4 -2.55,-1.1 -3.5,-2.75 -0.65,-1.2 -0.75,-3.95 -0.7,-25.5 1.95,-43.7 0.4,-2.45 1.25,-3.4 0.85,-0.9 2.7,-1.45 m 18.3,12.7 -0.65,-3.75 q -0.35,-2.2 -0.25,-3.8 0.1,-0.65 -0.15,-0.9 L 6.3,-24.8 q -5,-0.25 -7.7,-0.1 -4.25,0.25 -7.45,1.4 l -1.1,9.05 0.25,-0.05 7.95,-0.45 7.2,0.45 3,0.35 -0.3,-1.95 M 8.85,-4.9 8.8,-9.4 7.45,-9.75 4.4,-10.15 1.3,-10.25 -2.15,-10.5 H -6.2 l -4.05,0.2 h -0.05 q -0.75,9.25 -0.7,18.55 l 0.55,-0.05 1.7,0.2 1.7,0.25 2.65,0.1 2.65,0.05 2.9,0.6 L 4,9.85 H 5.4 L 6.75,9.95 8,10.2 Q 8.75,2.65 8.85,-4.9 m -9,-1.55 0.8,1.8 0.7,1.8 0.35,0.9 q 0.15,0.7 -0.2,1.3 Q 1.2,0 0.55,0.2 l -1.4,0.05 H -1.1 l 0.05,0.2 0.65,3.5 q 0.2,0.9 0.05,1.55 -0.2,0.95 -1,1.1 Q -2.3,6.75 -3,5.55 L -3.9,3.25 -4.7,0.85 -5.2,-0.5 v -0.3 l -0.4,-0.95 q -0.1,-1 0.75,-1.6 l 1.75,-0.25 1.15,0.25 -0.3,-1.4 -0.2,-1.45 0.05,-0.9 0.05,-0.75 0.4,-0.55 0.65,-0.15 q 0.35,0.05 0.6,0.3 l 0.25,0.6 v 0.5 l 0.3,0.7 M 6.2,22.35 7.4,14.85 5.8,14.35 4,14.25 0.55,13.7 -2.95,13.05 -6,12.95 l -4.9,-0.85 0.3,7.65 0.35,1.35 q 0.35,0.5 1.4,0.7 l 7.5,0.85 7.55,-0.3"
         fill="#000000"
         fill-rule="evenodd"
         stroke="none"
         id="path1" />
      <path
         d="m 8.15,-16.1 0.3,1.95 -3,-0.35 -7.2,-0.45 -7.95,0.45 -0.25,0.05 1.1,-9.05 q 3.2,-1.15 7.45,-1.4 2.7,-0.15 7.7,0.1 l 0.8,0.25 q 0.25,0.25 0.15,0.9 -0.1,1.6 0.25,3.8 l 0.65,3.75 m -1.95,38.45 -7.55,0.3 -7.5,-0.85 q -1.05,-0.2 -1.4,-0.7 l -0.35,-1.35 -0.3,-7.65 4.9,0.85 3.05,0.1 3.5,0.65 3.45,0.55 1.8,0.1 1.6,0.5 -1.2,7.5"
         fill="#878787"
         fill-rule="evenodd"
         stroke="none"
         id="path2" />
      <path
         d="m -0.15,-6.45 -0.3,-0.7 v -0.5 l -0.25,-0.6 q -0.25,-0.25 -0.6,-0.3 l -0.65,0.15 -0.4,0.55 -0.05,0.75 -0.05,0.9 0.2,1.45 0.3,1.4 -1.15,-0.25 -1.75,0.25 q -0.85,0.6 -0.75,1.6 l 0.4,0.95 v 0.3 l 0.5,1.35 0.8,2.4 0.9,2.3 q 0.7,1.2 1.65,1.05 0.8,-0.15 1,-1.1 Q -0.2,4.85 -0.4,3.95 L -1.05,0.45 -1.1,0.25 h 0.25 L 0.55,0.2 Q 1.2,0 1.5,-0.65 q 0.35,-0.6 0.2,-1.3 l -0.35,-0.9 -0.7,-1.8 -0.8,-1.8 m 9,1.55 Q 8.75,2.65 8,10.2 L 6.75,9.95 5.4,9.85 H 4 L 1.15,9.4 -1.75,8.8 -4.4,8.75 -7.05,8.65 -8.75,8.4 -10.45,8.2 -11,8.25 q -0.05,-9.3 0.7,-18.55 h 0.05 l 4.05,-0.2 h 4.05 l 3.45,0.25 3.1,0.1 3.05,0.4 1.35,0.35 0.05,4.5"
         fill="#d1d5b2"
         fill-rule="evenodd"
         stroke="none"
         id="path3" />
    </g>
    <g
       id="sprite1"
       transform="translate(17.4,15.85)">
      <use
         ffdec:characterId="31"
         height="57.200001"
         transform="matrix(0.5366,0,0,0.5366,-16.6582,-14.546)"
         width="70.75"
         xlink:href="#sprite2"
         id="use3" />
    </g>
    <g
       id="sprite2"
       transform="translate(-8.65,-10.35)">
      <use
         ffdec:characterId="30"
         height="57.200001"
         transform="translate(8.65,10.35)"
         width="70.75"
         xlink:href="#shape1"
         id="use4" />
    </g>
    <g
       id="shape1"
       transform="translate(-8.65,-10.35)">
      <path
         d="m 14.8,41.7 q 0.65,-1.75 2.65,-2.5 1.8,-0.8 3.7,-0.25 1.15,0.45 2.25,1.2 l 0.9,0.4 q 1.65,0.9 2.85,2.5 L 37.8,30.1 q 2.35,-2.8 3.75,-3.95 1.5,-1.15 4.25,-2.4 18.2,-8.85 27.65,-12.6 2.15,-0.8 3.25,-0.8 h 0.8 l 1.9,2.4 -0.2,0.8 q -0.2,1.1 -1.55,3 -5.85,8.25 -18.85,23.8 -1.85,2.35 -3.35,3.5 -1.4,1.15 -4.75,2.75 l -15.15,7.15 q 1.2,1.6 1.75,3.4 l 0.2,1 0.55,2.5 q 0.1,1.95 -1.1,3.55 -1.2,1.65 -3.05,1.9 l -1.3,0.05 q -1.65,0.2 -3.45,-0.65 -1.85,-0.9 -3,-2.6 L 25,60.95 23.8,62.1 q -2.6,2.85 -4.3,3.95 -2.85,1.8 -5.5,1.45 l -1.65,-0.5 -1.2,-0.7 -0.2,-0.2 q -1,-0.85 -1.6,-1.9 L 9.25,64 9.15,63.8 8.75,62.4 q -0.2,-0.8 -0.05,-1.7 0.25,-2.65 2.7,-5.05 1.5,-1.3 4.9,-3.15 L 17.7,51.55 16.05,50 q -1.35,-1.5 -1.8,-3.6 -0.4,-1.85 0.25,-3.45 l 0.3,-1.25"
         fill="#000000"
         fill-opacity="0.372549"
         fill-rule="evenodd"
         stroke="none"
         id="path4" />
    </g>
  </defs>
</svg>
