<?xml version="1.0" encoding="UTF-8" standalone="no"?>
<svg
   ffdec:objectType="frame"
   height="71.208656"
   width="76.328629"
   version="1.1"
   id="svg5"
   sodipodi:docname="ITEM Amoeba.svg"
   xmlns:inkscape="http://www.inkscape.org/namespaces/inkscape"
   xmlns:sodipodi="http://sodipodi.sourceforge.net/DTD/sodipodi-0.dtd"
   xmlns:xlink="http://www.w3.org/1999/xlink"
   xmlns="http://www.w3.org/2000/svg"
   xmlns:svg="http://www.w3.org/2000/svg"
   xmlns:ffdec="https://www.free-decompiler.com/flash">
  <sodipodi:namedview
     id="namedview5"
     pagecolor="#ffffff"
     bordercolor="#000000"
     borderopacity="0.25"
     inkscape:showpageshadow="2"
     inkscape:pageopacity="0.0"
     inkscape:pagecheckerboard="0"
     inkscape:deskcolor="#d1d1d1"
     fit-margin-top="5"
     fit-margin-left="5"
     fit-margin-right="5"
     fit-margin-bottom="5" />
  <g
     transform="translate(39.253579,37.9)"
     id="g1">
    <use
       ffdec:characterId="17"
       height="119.15"
       id="rarity"
       transform="translate(-58.5,-60.65)"
       width="119.15"
       xlink:href="#sprite0" />
    <use
       ffdec:characterId="1224"
       height="71.25"
       transform="translate(-39.25,-37.95)"
       width="76.300003"
       xlink:href="#shape0"
       id="use1" />
  </g>
  <defs
     id="defs5">
    <g
       id="shape0"
       transform="translate(37.95,36.05)">
      <path
         d="m 34.95,0.7 1.8,6.9 q 0.75,3.8 0.6,6.95 -0.15,3.7 -1.6,6.85 -1.6,3.45 -4.35,5.4 -3.2,2.25 -9.4,2.9 l -3.95,0.15 -3.7,-0.8 q -1.85,-0.7 -2.65,-0.45 -0.6,0.1 -1.8,1.35 -2.2,2.15 -5.4,3.3 -3,1.05 -6.3,0.95 -5.7,-0.2 -12.15,-3.75 -1.65,-0.95 -2.5,-1.1 l -2.6,0.25 -2.6,0.95 -6.8,-0.25 q -2.65,-1.05 -5,-3.75 -1.85,-2.05 -2.65,-4.3 -1.15,-3.15 -0.75,-7.65 0.65,-8.95 5.25,-17 4.5,-8.05 11.8,-13.25 3.1,-2.15 6.45,-3.7 4.7,-2.1 9.85,-2.9 -0.15,-0.8 -0.85,-1.85 -1.8,-3 -3.65,-4 -1.25,-0.75 -4.2,-1.1 l -3.2,-0.05 q -2.05,0.25 -4.2,1.7 l -3.65,2.95 q 1.05,1.1 1.6,2.65 0.6,1.55 0.4,3.05 -0.1,1.6 -1,2.95 -0.95,1.35 -2.35,2.05 -1.45,0.65 -3.1,0.45 -1.6,-0.25 -2.75,-1.35 -1.8,-1.75 -1.8,-4.75 0.05,-3.05 2.1,-6.1 1.55,-2.25 4.6,-4.65 5.45,-4.45 10.45,-4.7 l 4.1,0.25 3.85,0.9 q 4.1,1.65 6.9,6.3 1.6,2.7 1.75,4.95 l 7.45,0.7 q 2.9,0.55 5.75,1.55 5.95,2.15 10.5,5.8 4.95,3.95 7.45,9.1 0.95,2 2.3,6.15 m -15.8,23.3 5,-0.45 q 2.95,-0.5 4.1,-1.4 1.4,-1.05 2.4,-3.4 1.25,-2.7 1.35,-5.05 0.15,-1.95 -0.85,-5.85 l -1.7,-5.8 q -1.4,-4.2 -2.65,-6.35 -2.85,-4.9 -8.45,-8.15 -4.65,-2.7 -11.2,-3.9 l -8.3,-0.55 q -10.2,0.9 -19.85,11 -10.15,10.65 -10.15,21.25 -0.1,3.85 1.45,6.35 0.95,1.45 2.35,2.35 1.5,0.9 3.1,0.9 l 2.5,-0.6 2.55,-0.9 q 2.5,-0.65 4.85,0.05 1.05,0.3 2.45,1.1 l 2.35,1.35 q 4.25,2.3 9.1,2.3 3,0 4.75,-1.2 L 6.15,25.35 8,23.55 q 2,-1.3 5.55,-0.7 l 2.8,0.65 2.8,0.5 M 5.4,-2 7.45,-1.9 9.4,-1.25 10.95,0.3 12.3,2.25 q 0.6,1.25 0.6,3.2 0.1,1.75 -0.5,2.9 -0.5,1 -2,2.3 L 8.8,11.8 7.35,12.05 5.9,12 3.45,11.95 Q 2.05,11.85 1.1,11.35 L -0.55,10.1 Q -1.85,8.9 -2.3,7.7 -3.1,6 -2.35,3.9 -1.8,2.2 -0.2,0.65 2.3,-1.7 5.4,-2"
         fill="#000000"
         fill-rule="evenodd"
         stroke="none"
         id="path1" />
      <path
         d="m -9.6,-0.55 q -3.05,1.3 -5.35,1.2 l -1.9,-0.5 q -1.05,-0.55 -1.35,-1.4 -0.3,-0.6 -0.2,-1.7 0.4,-2.35 2.65,-4.7 l 2.95,-2.5 2,-0.95 q 2.55,-1 4.45,-0.45 1.15,0.3 1.95,1.15 0.9,0.85 0.9,2 0.1,0.9 -0.4,2.25 -0.35,1.1 -0.65,1.65 -1.25,2.3 -5.05,3.95 m 33,17.5 q -0.75,-1 -0.4,-2.3 0.4,-1.3 1.65,-1.75 l 1.55,-0.15 q 0.9,0.05 1.55,0.55 0.95,0.9 0.75,2.4 l -0.45,1.6 q -0.55,0.75 -1.3,0.95 -0.8,0.15 -1.9,-0.35 L 23.4,16.95 m -46.2,-8.9 q -0.6,-0.85 -0.5,-1.85 0.05,-1.05 0.7,-1.75 1,-0.9 2.35,-0.65 0.8,0.1 1.4,0.65 0.65,0.5 0.85,1.25 0.25,0.75 0.05,1.5 -0.15,0.85 -0.7,1.35 -0.95,0.9 -2.2,0.65 -1.25,-0.15 -1.95,-1.15"
         fill="#ffffff"
         fill-rule="evenodd"
         stroke="none"
         id="path2" />
      <path
         d="m -9.6,-0.55 q 3.8,-1.65 5.05,-3.95 0.3,-0.55 0.65,-1.65 0.5,-1.35 0.4,-2.25 0,-1.15 -0.9,-2 -0.8,-0.85 -1.95,-1.15 -1.9,-0.55 -4.45,0.45 l -2,0.95 -2.95,2.5 q -2.25,2.35 -2.65,4.7 -0.1,1.1 0.2,1.7 0.3,0.85 1.35,1.4 l 1.9,0.5 q 2.3,0.1 5.35,-1.2 M 5.4,-2 Q 2.3,-1.7 -0.2,0.65 -1.8,2.2 -2.35,3.9 -3.1,6 -2.3,7.7 q 0.45,1.2 1.75,2.4 l 1.65,1.25 q 0.95,0.5 2.35,0.6 L 5.9,12 7.35,12.05 8.8,11.8 10.4,10.65 q 1.5,-1.3 2,-2.3 0.6,-1.15 0.5,-2.9 0,-1.95 -0.6,-3.2 L 10.95,0.3 9.4,-1.25 7.45,-1.9 5.4,-2 m 13.75,26 -2.8,-0.5 -2.8,-0.65 Q 10,22.25 8,23.55 l -1.85,1.8 -1.85,1.7 q -1.75,1.2 -4.75,1.2 -4.85,0 -9.1,-2.3 L -11.9,24.6 q -1.4,-0.8 -2.45,-1.1 -2.35,-0.7 -4.85,-0.05 l -2.55,0.9 -2.5,0.6 q -1.6,0 -3.1,-0.9 -1.4,-0.9 -2.35,-2.35 -1.55,-2.5 -1.45,-6.35 0,-10.6 10.15,-21.25 9.65,-10.1 19.85,-11 l 8.3,0.55 q 6.55,1.2 11.2,3.9 5.6,3.25 8.45,8.15 1.25,2.15 2.65,6.35 l 1.7,5.8 q 1,3.9 0.85,5.85 -0.1,2.35 -1.35,5.05 -1,2.35 -2.4,3.4 -1.15,0.9 -4.1,1.4 l -5,0.45 M -22.8,8.05 q 0.7,1 1.95,1.15 1.25,0.25 2.2,-0.65 0.55,-0.5 0.7,-1.35 0.2,-0.75 -0.05,-1.5 -0.2,-0.75 -0.85,-1.25 -0.6,-0.55 -1.4,-0.65 -1.35,-0.25 -2.35,0.65 -0.65,0.7 -0.7,1.75 -0.1,1 0.5,1.85 m 46.2,8.9 1.45,0.95 q 1.1,0.5 1.9,0.35 0.75,-0.2 1.3,-0.95 L 28.5,15.7 Q 28.7,14.2 27.75,13.3 27.1,12.8 26.2,12.75 l -1.55,0.15 q -1.25,0.45 -1.65,1.75 -0.35,1.3 0.4,2.3"
         fill="#5f645e"
         fill-opacity="0.498039"
         fill-rule="evenodd"
         stroke="none"
         id="path3" />
      <path
         d="m 34.95,0.7 1.8,6.9 q 0.75,3.8 0.6,6.95 -0.15,3.7 -1.6,6.85 -1.6,3.45 -4.35,5.4 -3.2,2.25 -9.4,2.9 l -3.95,0.15 -3.7,-0.8 q -1.85,-0.7 -2.65,-0.45 -0.6,0.1 -1.8,1.35 -2.2,2.15 -5.4,3.3 -3,1.05 -6.3,0.95 -5.7,-0.2 -12.15,-3.75 -1.65,-0.95 -2.5,-1.1 l -2.6,0.25 -2.6,0.95 -6.8,-0.25 q -2.65,-1.05 -5,-3.75 -1.85,-2.05 -2.65,-4.3 -1.15,-3.15 -0.75,-7.65 0.65,-8.95 5.25,-17 4.5,-8.05 11.8,-13.25 3.1,-2.15 6.45,-3.7 4.7,-2.1 9.85,-2.9 -0.15,-0.8 -0.85,-1.85 -1.8,-3 -3.65,-4 -1.25,-0.75 -4.2,-1.1 l -3.2,-0.05 q -2.05,0.25 -4.2,1.7 l -3.65,2.95 q 1.05,1.1 1.6,2.65 0.6,1.55 0.4,3.05 -0.1,1.6 -1,2.95 -0.95,1.35 -2.35,2.05 -1.45,0.65 -3.1,0.45 -1.6,-0.25 -2.75,-1.35 -1.8,-1.75 -1.8,-4.75 0.05,-3.05 2.1,-6.1 1.55,-2.25 4.6,-4.65 5.45,-4.45 10.45,-4.7 l 4.1,0.25 3.85,0.9 q 4.1,1.65 6.9,6.3 1.6,2.7 1.75,4.95 l 7.45,0.7 q 2.9,0.55 5.75,1.55 5.95,2.15 10.5,5.8 4.95,3.95 7.45,9.1 0.95,2 2.3,6.15 z"
         fill="none"
         stroke="#000000"
         stroke-linecap="round"
         stroke-linejoin="round"
         stroke-width="2"
         id="path4" />
    </g>
    <g
       id="sprite1"
       transform="translate(17.4,15.85)">
      <use
         ffdec:characterId="31"
         height="57.200001"
         transform="matrix(0.5366,0,0,0.5366,-16.6582,-14.546)"
         width="70.75"
         xlink:href="#sprite2"
         id="use4" />
    </g>
    <g
       id="sprite2"
       transform="translate(-8.65,-10.35)">
      <use
         ffdec:characterId="30"
         height="57.200001"
         transform="translate(8.65,10.35)"
         width="70.75"
         xlink:href="#shape1"
         id="use5" />
    </g>
    <g
       id="shape1"
       transform="translate(-8.65,-10.35)">
      <path
         d="m 14.8,41.7 q 0.65,-1.75 2.65,-2.5 1.8,-0.8 3.7,-0.25 1.15,0.45 2.25,1.2 l 0.9,0.4 q 1.65,0.9 2.85,2.5 L 37.8,30.1 q 2.35,-2.8 3.75,-3.95 1.5,-1.15 4.25,-2.4 18.2,-8.85 27.65,-12.6 2.15,-0.8 3.25,-0.8 h 0.8 l 1.9,2.4 -0.2,0.8 q -0.2,1.1 -1.55,3 -5.85,8.25 -18.85,23.8 -1.85,2.35 -3.35,3.5 -1.4,1.15 -4.75,2.75 l -15.15,7.15 q 1.2,1.6 1.75,3.4 l 0.2,1 0.55,2.5 q 0.1,1.95 -1.1,3.55 -1.2,1.65 -3.05,1.9 l -1.3,0.05 q -1.65,0.2 -3.45,-0.65 -1.85,-0.9 -3,-2.6 L 25,60.95 23.8,62.1 q -2.6,2.85 -4.3,3.95 -2.85,1.8 -5.5,1.45 l -1.65,-0.5 -1.2,-0.7 -0.2,-0.2 q -1,-0.85 -1.6,-1.9 L 9.25,64 9.15,63.8 8.75,62.4 q -0.2,-0.8 -0.05,-1.7 0.25,-2.65 2.7,-5.05 1.5,-1.3 4.9,-3.15 L 17.7,51.55 16.05,50 q -1.35,-1.5 -1.8,-3.6 -0.4,-1.85 0.25,-3.45 l 0.3,-1.25"
         fill="#000000"
         fill-opacity="0.372549"
         fill-rule="evenodd"
         stroke="none"
         id="path5" />
    </g>
  </defs>
</svg>
