<?xml version="1.0" encoding="UTF-8" standalone="no"?>
<svg
   ffdec:objectType="frame"
   height="66.762794"
   width="84.605957"
   version="1.1"
   id="svg6"
   xmlns:xlink="http://www.w3.org/1999/xlink"
   xmlns="http://www.w3.org/2000/svg"
   xmlns:svg="http://www.w3.org/2000/svg"
   xmlns:ffdec="https://www.free-decompiler.com/flash">
  <g
     transform="translate(42.92193,30.9)"
     id="g1">
    <use
       ffdec:characterId="17"
       height="119.15"
       id="rarity"
       transform="translate(-58.5,-60.65)"
       width="119.15"
       xlink:href="#sprite0" />
    <use
       ffdec:characterId="460"
       height="66.75"
       transform="translate(-42.9,-30.9)"
       width="84.599998"
       xlink:href="#shape0"
       id="use1" />
  </g>
  <defs
     id="defs6">
    <g
       id="shape0"
       transform="translate(42.5,30.1)">
      <path
         d="m -3.85,-27.4 q 6.3,0.25 10.95,4.6 1.4,1.35 2.05,3.2 4.4,-4.1 10.55,-4.5 0.85,-0.05 1.35,0.65 2.55,3.3 0.95,7.3 l 3.3,0.25 q 3.4,0.65 6.45,-0.7 l 0.7,-0.6 0.45,-0.45 0.2,-1.1 -0.05,-1.05 -3.05,-2.6 -0.75,-0.85 -0.05,-1.5 0.45,-1.7 q 1.2,-1.8 3.1,-2.9 l 1.45,-0.75 2,0.35 0.8,0.7 -0.05,0.2 -0.3,0.45 h -0.6 l -0.5,-0.05 q -1.85,0.6 -3,2.15 -0.45,0.55 -0.55,1.2 3.65,1.9 4.05,5.6 0.45,4.7 -4.2,6.45 -1.4,0.55 -2.85,0.7 l -5.3,0.6 3.55,1.4 q 3.45,1.5 6.05,4.15 8,7.95 8.75,18.95 0.35,5.9 -2.9,10.85 -2.4,3.55 -6.05,5.85 -5.25,3.3 -11.4,4.6 l -4.15,0.9 Q 9.6,36.45 1.55,36 l -4.45,0.15 q -16.6,2.1 -31.55,-4.4 -4.25,-1.85 -6.45,-5.95 -2.15,-4 -1.45,-8.75 0.3,-2.4 1.3,-4.65 2.5,-5.85 6.45,-10.95 7.95,-10.35 20,-15.6 l 4.95,-1.75 q -0.95,-2.55 -0.7,-5.3 0.4,-4.6 5.3,-5.95 l 1.2,-0.25 m 15,16.25 q 0.95,-1.55 3.1,-1.45 2.6,-2.2 3.8,-5.4 0.3,-0.8 0.2,-1.65 -5.6,2.5 -10.35,7.45 l -0.15,0.15 Q 7.15,-11.5 6.5,-11.55 5.95,-11.6 5.35,-12.1 L 5,-12.45 q -1.3,-1.4 -0.9,-3.55 0.45,-2.55 -1.85,-4 -2.7,-1.65 -5.75,-1.65 l -0.9,0.45 h -0.05 l -0.45,0.4 0.1,0.35 0.45,1.8 0.05,0.55 q 0.45,2.95 -0.15,5.9 l -0.1,0.3 q -0.2,0.75 -1.05,0.9 l -0.4,0.1 q -11.45,2.1 -19.45,10.45 l -2.3,2.55 q -3.55,4.35 -6.1,9.25 -2.2,4.2 -2.65,8.8 v 0.65 0.95 0.35 l 1.7,2.35 0.8,1.1 q 6.75,4.1 14.35,5.15 l 2.5,0.25 L -14,31 9.25,30.15 11,30 l 2,-0.15 7.75,-1.2 q 5.1,-1.25 9.4,-3.9 l 0.45,-0.3 1.8,-1.35 2.25,-2.5 q 2.9,-4.2 2.65,-9.3 L 36.05,8.35 35.9,8 Q 35.7,7.3 35.65,6.6 32.15,-1 24.8,-5.35 23.6,-6.05 22.15,-6.35 21.25,-6.5 20.4,-7 l -1.2,0.2 q -4.05,0.4 -7.55,-1.4 -1.45,-0.75 -0.85,-2.3 l 0.35,-0.65 m -1,3.3 q 1.15,0.65 1.95,1.7 l 0.3,0.15 0.9,0.4 0.6,0.4 0.1,0.2 0.6,0.65 0.6,0.65 0.05,0.2 Q 9.5,-2.75 4.05,-5.8 L 2.8,-6.1 q -6.2,-0.35 -9.45,4.95 L -7,-1.1 -7.4,-1.15 -7.6,-1.4 -7.85,-1.8 -7.95,-2.25 -8,-2.65 q 1.1,-2.65 3.3,-4.55 l 1.5,-1.1 2.2,-1.05 q -0.8,-1.3 -0.85,-3.1 v -0.7 q 0.1,-1.15 0.8,-1.95 l 0.3,-0.15 0.55,-0.2 0.6,0.15 0.8,1.05 0.2,1.1 0.35,0.5 1.95,2.7 1.3,0.2 q 2.7,0.45 5.15,1.9 M 24.9,1.65 25,1.5 25.2,1.35 25.85,1.25 V 1.2 q 3.75,3.2 2.85,8.75 -0.25,1.5 -1.35,2.55 -1.55,0.75 -3.25,0.3 l -0.15,-0.15 -0.6,2.8 -1.15,2.65 -0.6,0.45 -0.5,0.4 q -2.6,0.9 -5,-0.35 -1.75,-1.3 -1.95,-3.45 L 14.1,14.1 q -0.55,-1.55 -0.45,-3.25 0.1,-0.9 0.75,-1.5 L 14.7,9.2 14.8,9.15 h 0.25 0.2 L 15.8,9.2 q 1.05,1.55 1.35,3.55 V 13 l 0.05,0.7 0.05,0.55 0.05,0.6 0.1,0.6 0.2,0.2 0.05,0.05 0.3,0.3 0.45,0.15 1.45,-0.35 0.4,-0.55 V 15.2 l 0.35,-0.7 q 1.05,-2.5 1,-5.25 V 9.15 L 21.55,8.1 21.7,7.9 l 0.15,-0.25 0.2,-0.2 0.4,-0.2 0.8,0.1 q 0.65,0.35 0.9,1.05 l 0.2,0.7 q 0.35,0.25 0.5,0.65 l 0.3,0.35 0.25,0.1 0.2,-0.25 Q 26.35,8.8 26.15,7.3 L 26.05,5.55 25.65,4.7 Q 25.4,4.2 25.5,3.65 L 24.85,2.75 Q 24.55,2.4 24.7,1.95 l 0.2,-0.3 m -43.5,8.15 -0.8,1.2 -0.95,1 q -2.85,1.8 -5.65,0.1 l -1.05,-1.1 -0.1,-0.2 0.2,-2.4 0.8,-1.65 L -26,6.5 q 0.05,-0.75 0.55,-1.35 l 0.3,-0.6 q 1.65,-2.55 4,-4.45 l 1.85,-1.25 1.65,-0.6 V -1.8 q 0.65,0.15 0.5,0.8 l -0.15,0.4 v 0.05 q -0.5,0.4 -1.15,0.6 l -0.15,0.2 -0.2,0.25 -0.2,0.1 -0.45,0.2 -2.15,2.6 -1,1.25 v 0.2 l -0.05,0.45 -0.75,1.75 -0.5,1 -0.05,0.05 v 0.15 0.7 l 0.45,0.65 0.3,-0.05 q 0.75,-0.15 1.4,-0.6 0.85,-0.7 1.45,-2 0.4,-0.95 1.15,-1.75 l 0.75,-1.3 0.45,-0.4 1.3,-0.05 0.65,0.6 q 0.15,1.65 -0.75,3.1 l -1.65,2.05 -0.15,0.6 m -4.95,-31.8 -0.3,0.05 -1.55,0.6 -1.3,1.1 -0.65,1 -0.05,0.2 0.1,0.65 0.15,0.45 0.3,0.2 0.7,0.3 1.4,-0.75 0.9,-0.7 5.65,-1.5 q -2.1,-2.4 -5.35,-1.6 m -0.6,-3.4 q 5.15,-1 8.05,2.95 0.8,1.1 1.15,2.4 l -0.05,0.25 -0.05,0.65 v 0.85 l 0.05,0.65 -0.1,0.2 -0.1,0.2 -0.35,0.4 -0.25,0.25 -0.35,0.2 -0.7,0.1 -0.7,-0.1 q -3.1,0.3 -5.65,2 -2.05,1.35 -4.55,0.5 -4.05,-2.35 -2.5,-6.55 1.5,-4.25 6.1,-4.95 m -7.1,45.15 0.1,-0.15 0.2,-0.2 q 2.3,-1.05 4.9,-1.5 l 1.9,-0.25 q 4.65,0.7 8.2,3.8 3.95,-3.3 8.95,-4 7.35,-0.8 12.75,3.95 1.4,1.25 2.55,2.8 l 0.25,0.35 3.1,-1.25 q 4.2,-1.7 8.55,-3.05 5.25,-1.6 8.7,1.35 l 0.1,0.05 0.3,0.2 0.25,0.15 0.05,0.25 0.05,0.2 0.05,0.2 0.25,0.45 0.1,0.4 -0.1,0.2 -0.15,0.2 H 29.7 L 29.35,23.95 29.1,23.7 28.95,23.55 28.9,23.35 28.85,23.3 24.55,22.6 q -6.3,-0.3 -12,3.6 Q 7.9,29.4 4.45,24.95 -3.35,18 -12.3,23.5 q -1.75,1.1 -3.4,2.3 l -0.45,0.05 -0.65,-0.1 -0.25,-0.2 -1.25,-0.7 -1.6,-1.3 -2.05,-1.95 q -2.95,-1.25 -6.2,-1 l -1.95,0.35 -0.3,0.25 -0.2,0.4 -0.5,0.45 -0.2,0.15 -0.3,0.1 -0.3,-0.2 -0.3,-0.4 -0.05,-0.2 0.2,-0.4 0.2,-0.45 0.1,-0.2 v -0.2 l 0.25,-0.25 0.25,-0.25"
         fill="#000000"
         fill-rule="evenodd"
         stroke="none"
         id="path1" />
      <path
         d="M 8.3,24.2 11.65,23.3 8.55,24.55 8.3,24.2"
         fill="#8c7676"
         fill-rule="evenodd"
         stroke="none"
         id="path2" />
      <path
         d="m 7.75,-12.05 3.4,0.9 -0.35,0.65 q -0.6,1.55 0.85,2.3 3.5,1.8 7.55,1.4 1.8,1.8 2.6,4.35 0.55,1.8 0.35,3.35 -0.8,0.35 -1.2,1.3 -0.45,0.9 -0.15,1.85 l -0.2,0.2 q -1,-0.8 -2.5,-1.25 -2,0.25 -2.25,2.3 l -0.5,2.75 q -5.5,3 -12.05,3.45 -11.25,0.85 -21.9,-1.7 l 0.15,-0.6 1.65,-2.05 q 0.9,-1.45 0.75,-3.1 l -0.65,-0.6 0.75,-0.75 0.4,-0.15 q 1.15,-0.3 1.9,-1.1 L -13.5,1 l 0.05,-0.2 0.05,-0.25 -0.1,-0.4 -0.15,-0.45 -0.15,-0.2 -0.3,-0.2 -1.1,-0.4 -2.1,0.55 V -0.6 l 0.15,-0.4 q 0.15,-0.65 -0.5,-0.8 v 0.05 l -1.65,0.6 -1.85,1.25 q -2.35,1.9 -4,4.45 l -0.3,0.6 q -0.5,0.6 -0.55,1.35 l -0.15,0.25 Q -27.75,4.9 -26.5,1.8 l 1.05,-2.25 q 8,-8.35 19.45,-10.45 l 0.4,-0.1 q 0.85,-0.15 1.05,-0.9 l 0.1,-0.3 q 0.6,-2.95 0.15,-5.9 l -0.05,-0.55 -0.45,-1.8 0.4,-0.75 0.9,-0.45 q 3.05,0 5.75,1.65 2.3,1.45 1.85,4 -0.4,2.15 0.9,3.55 l 0.35,0.35 q 0.6,0.5 1.15,0.55 0.65,0.05 1.25,-0.5 m 2.4,4.2 Q 7.7,-9.3 5,-9.75 l -1.3,-0.2 -1.95,-2.7 -0.35,-0.5 -0.2,-1.1 -0.8,-1.05 -0.6,-0.15 -0.55,0.2 -0.3,0.15 q -0.7,0.8 -0.8,1.95 v 0.7 q 0.05,1.8 0.85,3.1 l -2.2,1.05 -1.5,1.1 q -2.2,1.9 -3.3,4.55 l 0.05,0.4 0.1,0.45 0.25,0.4 0.2,0.25 0.4,0.05 0.35,-0.05 Q -3.4,-6.45 2.8,-6.1 l 1.25,0.3 q 5.45,3.05 11.2,2.3 L 15.2,-3.7 14.6,-4.35 14,-5 13.9,-5.2 13.3,-5.6 12.4,-6 12.1,-6.15 Q 11.3,-7.2 10.15,-7.85 M -23.9,8.05 -23.8,8.3 -23.95,8.25 V 8.1 l 0.05,-0.05"
         fill="#bfb5b5"
         fill-rule="evenodd"
         stroke="none"
         id="path3" />
      <path
         d="M 7.75,-12.05 7.9,-12.2 q 4.75,-4.95 10.35,-7.45 0.1,0.85 -0.2,1.65 -1.2,3.2 -3.8,5.4 -2.15,-0.1 -3.1,1.45 l -3.4,-0.9 M 19.2,-6.8 20.4,-7 q 0.85,0.5 1.75,0.65 1.45,0.3 2.65,1 Q 32.15,-1 35.65,6.6 35.7,7.3 35.9,8 l -0.75,0.2 q -6.8,5.65 -3.9,13.65 0.35,0.95 1.15,1.25 l -1.8,1.35 -0.45,0.3 -0.05,-0.2 -0.3,-0.65 0.15,-0.2 0.1,-0.2 -0.1,-0.4 L 29.7,22.65 29.65,22.45 29.6,22.25 29.55,22 29.3,21.85 29,21.65 28.9,21.6 Q 25.45,18.65 20.2,20.25 15.85,21.6 11.65,23.3 L 8.3,24.2 Q 7.15,22.65 5.75,21.4 0.35,16.65 -7,17.45 q -5,0.7 -8.95,4 -3.55,-3.1 -8.2,-3.8 l -1.9,0.25 q -2.6,0.45 -4.9,1.5 l -0.2,0.2 -0.1,0.15 -2.65,0.2 V 20 h -0.55 q -1.35,0.65 -2.05,1.75 V 20.8 20.15 q 0.45,-4.6 2.65,-8.8 2.55,-4.9 6.1,-9.25 l 2.3,-2.55 -1.05,2.25 q -1.25,3.1 0.35,4.95 l -0.8,1.65 -0.2,2.4 0.1,0.2 1.05,1.1 q 2.8,1.7 5.65,-0.1 l 0.95,-1 0.8,-1.2 q 10.65,2.55 21.9,1.7 6.55,-0.45 12.05,-3.45 l -0.3,1 v 0.1 H 14.8 L 14.7,9.2 14.4,9.35 q -0.65,0.6 -0.75,1.5 -0.1,1.7 0.45,3.25 l 0.05,1.05 q 0.2,2.15 1.95,3.45 2.4,1.25 5,0.35 l 0.5,-0.4 0.6,-0.45 1.15,-2.65 0.6,-2.8 0.15,0.15 q 1.7,0.45 3.25,-0.3 1.1,-1.05 1.35,-2.55 Q 29.6,4.4 25.85,1.2 V 1.25 L 25.2,1.35 25,1.5 24.9,1.65 23.05,0.7 22.15,0.9 Q 22.35,-0.65 21.8,-2.45 21,-5 19.2,-6.8"
         fill="#ada3a3"
         fill-rule="evenodd"
         stroke="none"
         id="path4" />
      <path
         d="m 35.9,8 0.15,0.35 1.25,2.95 q 0.25,5.1 -2.65,9.3 l -2.25,2.5 q -0.8,-0.3 -1.15,-1.25 -2.9,-8 3.9,-13.65 L 35.9,8 m -5.75,16.75 q -4.3,2.65 -9.4,3.9 L 13,29.85 11,30 9.25,30.15 -14,31 -17.15,30.95 -19.65,30.7 Q -27.25,29.65 -34,25.55 l -0.8,-1.1 -1.7,-2.35 v -0.35 q 0.7,-1.1 2.05,-1.75 h 0.55 v -0.05 l 2.65,-0.2 -0.25,0.25 -0.25,0.25 v 0.2 l -0.1,0.2 -0.2,0.45 -0.2,0.4 0.05,0.2 0.3,0.4 0.3,0.2 0.3,-0.1 0.2,-0.15 0.5,-0.45 0.2,-0.4 0.3,-0.25 1.95,-0.35 q 3.25,-0.25 6.2,1 l 2.05,1.95 1.6,1.3 1.25,0.7 0.25,0.2 0.65,0.1 0.45,-0.05 q 1.65,-1.2 3.4,-2.3 8.95,-5.5 16.75,1.45 3.45,4.45 8.1,1.25 5.7,-3.9 12,-3.6 l 4.35,0.75 0.05,0.2 0.15,0.15 0.25,0.25 0.35,-0.05 h 0.1 l 0.3,0.65 0.05,0.2 m -8,-23.85 0.9,-0.2 1.85,0.95 -0.2,0.3 q -0.15,0.45 0.15,0.8 l 0.65,0.9 Q 25.4,4.2 25.65,4.7 l 0.4,0.85 0.1,1.75 q 0.2,1.5 -0.55,2.65 L 25.15,10.1 24.85,9.75 Q 24.7,9.35 24.35,9.1 L 24.15,8.4 Q 23.9,7.7 23.25,7.35 l -0.8,-0.1 -0.4,0.2 -0.2,0.2 -0.15,0.25 -0.15,0.2 0.05,1.05 v 0.1 q 0.05,2.75 -1,5.25 l -0.35,0.7 v 0.05 l -0.4,0.55 -1.45,0.35 -0.45,-0.35 -0.3,-0.1 -0.05,-0.05 -0.2,-0.2 -0.1,-0.6 -0.05,-0.6 L 17.2,13.7 17.15,13 v -0.25 q -0.3,-2 -1.35,-3.55 L 15.25,9.15 h -0.2 v -0.1 l 0.3,-1 0.5,-2.75 Q 16.1,3.25 18.1,3 q 1.5,0.45 2.5,1.25 l 0.35,0.3 V 4.5 L 20.8,4.05 Q 20.5,3.1 20.95,2.2 21.35,1.25 22.15,0.9 M -25.4,-21.35 -23.55,-22 q 3.25,-0.8 5.35,1.6 l -5.65,1.5 -0.9,0.7 -1.4,0.75 -0.7,-0.3 -0.3,-0.2 -0.15,-0.45 -0.1,-0.65 0.05,-0.2 0.65,-1 1.3,-1.1 m 8.1,20.8 2.1,-0.55 1.1,0.4 0.3,0.2 0.15,0.2 0.15,0.45 0.1,0.4 -0.05,0.25 -0.05,0.2 -0.15,0.45 q -0.75,0.8 -1.9,1.1 l -0.4,0.15 -0.75,0.75 -1.3,0.05 -0.45,0.4 -0.75,1.3 q -0.75,0.8 -1.15,1.75 -0.6,1.3 -1.45,2 -0.65,0.45 -1.4,0.6 l -0.55,-1.05 -0.05,-0.2 -0.1,-0.25 0.5,-1 0.75,-1.75 0.05,-0.45 v -0.2 l 1,-1.25 2.15,-2.6 0.45,-0.2 0.2,-0.1 0.2,-0.25 0.15,-0.2 q 0.65,-0.2 1.15,-0.6"
         fill="#955555"
         fill-rule="evenodd"
         stroke="none"
         id="path5" />
    </g>
    <g
       id="sprite1"
       transform="translate(17.4,15.85)">
      <use
         ffdec:characterId="31"
         height="57.200001"
         transform="matrix(0.5366,0,0,0.5366,-16.6582,-14.546)"
         width="70.75"
         xlink:href="#sprite2"
         id="use5" />
    </g>
    <g
       id="sprite2"
       transform="translate(-8.65,-10.35)">
      <use
         ffdec:characterId="30"
         height="57.200001"
         transform="translate(8.65,10.35)"
         width="70.75"
         xlink:href="#shape1"
         id="use6" />
    </g>
    <g
       id="shape1"
       transform="translate(-8.65,-10.35)">
      <path
         d="m 14.8,41.7 q 0.65,-1.75 2.65,-2.5 1.8,-0.8 3.7,-0.25 1.15,0.45 2.25,1.2 l 0.9,0.4 q 1.65,0.9 2.85,2.5 L 37.8,30.1 q 2.35,-2.8 3.75,-3.95 1.5,-1.15 4.25,-2.4 18.2,-8.85 27.65,-12.6 2.15,-0.8 3.25,-0.8 h 0.8 l 1.9,2.4 -0.2,0.8 q -0.2,1.1 -1.55,3 -5.85,8.25 -18.85,23.8 -1.85,2.35 -3.35,3.5 -1.4,1.15 -4.75,2.75 l -15.15,7.15 q 1.2,1.6 1.75,3.4 l 0.2,1 0.55,2.5 q 0.1,1.95 -1.1,3.55 -1.2,1.65 -3.05,1.9 l -1.3,0.05 q -1.65,0.2 -3.45,-0.65 -1.85,-0.9 -3,-2.6 L 25,60.95 23.8,62.1 q -2.6,2.85 -4.3,3.95 -2.85,1.8 -5.5,1.45 l -1.65,-0.5 -1.2,-0.7 -0.2,-0.2 q -1,-0.85 -1.6,-1.9 L 9.25,64 9.15,63.8 8.75,62.4 q -0.2,-0.8 -0.05,-1.7 0.25,-2.65 2.7,-5.05 1.5,-1.3 4.9,-3.15 L 17.7,51.55 16.05,50 q -1.35,-1.5 -1.8,-3.6 -0.4,-1.85 0.25,-3.45 l 0.3,-1.25"
         fill="#000000"
         fill-opacity="0.372549"
         fill-rule="evenodd"
         stroke="none"
         id="path6" />
    </g>
  </defs>
</svg>
