<?xml version="1.0" encoding="UTF-8" standalone="no"?>
<svg
   ffdec:objectType="frame"
   height="97.463364"
   width="89.112122"
   version="1.1"
   id="svg4"
   sodipodi:docname="ITEM Alloy Armor.svg"
   xmlns:inkscape="http://www.inkscape.org/namespaces/inkscape"
   xmlns:sodipodi="http://sodipodi.sourceforge.net/DTD/sodipodi-0.dtd"
   xmlns:xlink="http://www.w3.org/1999/xlink"
   xmlns="http://www.w3.org/2000/svg"
   xmlns:svg="http://www.w3.org/2000/svg"
   xmlns:ffdec="https://www.free-decompiler.com/flash">
  <sodipodi:namedview
     id="namedview4"
     pagecolor="#ffffff"
     bordercolor="#000000"
     borderopacity="0.25"
     inkscape:showpageshadow="2"
     inkscape:pageopacity="0.0"
     inkscape:pagecheckerboard="0"
     inkscape:deskcolor="#d1d1d1"
     fit-margin-top="5"
     fit-margin-left="5"
     fit-margin-right="5"
     fit-margin-bottom="5" />
  <g
     transform="translate(45.71,49)"
     id="g1">
    <use
       ffdec:characterId="17"
       height="119.15"
       id="rarity"
       transform="translate(-58.5,-60.65)"
       width="119.15"
       xlink:href="#sprite0" />
    <use
       ffdec:characterId="753"
       height="97.449997"
       transform="translate(-45.7,-49)"
       width="89.099998"
       xlink:href="#shape0"
       id="use1" />
  </g>
  <defs
     id="defs4">
    <g
       id="shape0"
       transform="translate(46.25,49.75)">
      <path
         d="m 25.55,-20.45 -0.35,1.8 0.05,0.45 0.05,0.65 12.55,0.6 -0.55,-3.35 -0.4,-1.25 -0.1,-1.95 -1,-2.3 -0.95,-2.2 -9.2,0.4 -0.1,0.15 v 0.25 l 0.05,0.2 0.05,0.2 -0.05,0.8 q -0.1,2.45 -0.05,5 v 0.55 m -3.5,5.15 0.15,-3.2 q 0.05,-0.8 0.45,-1.5 v -1.05 q 0,-0.5 0.25,-0.85 0,-2.3 0.4,-4.5 l 0.2,-1.05 -6.45,0.6 -2.8,4 0.15,0.7 0.15,0.2 0.25,0.2 0.6,0.45 1.5,-0.15 q 2.65,-0.75 4.25,1.05 v 0.2 l -0.05,0.2 -0.05,0.2 -0.15,0.25 q -4.75,3.8 -8.8,0.5 l -0.55,-0.5 -0.5,0.55 1.1,2.05 0.7,1.45 q 2.15,5.2 1.9,11.15 l 2.9,0.45 2.35,0.95 q 8.95,0.3 17.1,-3.6 l 0.55,-1.7 q 0.7,-2.7 0.55,-5.5 l -7.5,0.7 -3.2,-0.15 -2.55,-0.2 q -2,-0.1 -2.9,-1.65 v -0.25 m -14.2,-8 1.1,1.3 0.65,-1.2 -0.3,-0.45 -1.3,-3 L 6.9,-28.8 6.65,-29 6.35,-29.2 6.2,-29.3 H 3.7 l -1.35,1.1 q 2.95,2 5.5,4.9 m -46.1,42.05 q -4.55,-3 -6.25,-7.85 -2.2,-5.15 -1.65,-10.95 1.35,-14.45 11.9,-24.7 3.75,-3.65 8.35,-5.7 0.25,-3.75 0.25,-7.55 0.05,-3.65 0.9,-7.1 l 0.05,-0.85 q 0.45,-1.65 1.45,-2.95 l 0.45,-0.5 0.35,-0.15 0.55,-0.15 v -0.05 q 6.35,0.15 5.9,6.7 -0.1,1.6 0.2,3.2 0.7,3.45 0.45,6.75 h 1.4 l 0.05,-1.3 q 0.15,-1.45 0.7,-2.75 v -0.45 l 0.25,-1.05 0.35,-0.65 0.2,-0.85 0.6,-1.95 0.1,-0.2 0.15,-0.2 0.8,-0.7 0.3,-0.2 0.6,-0.1 v -0.05 l 1.1,0.1 0.9,0.3 q 1.05,1.05 1.35,2.55 l 0.45,2.8 q 0.5,1.1 0.35,2.35 l 0.05,3 -0.05,0.45 3.3,1.2 1.2,-1.15 q 1.95,-1.4 4.15,-1.9 6.35,-1.2 8.85,4.1 l 0.7,1.85 2.75,-3.45 q 0.25,-0.35 0.8,-0.4 l 20.3,-1.55 q 3.35,1.95 4.6,6.1 3.35,10.8 0.8,21.85 -0.9,3.75 -4.7,5.1 l -4.95,1.5 q 4.7,10.6 3,22.4 -0.3,2 -1.65,3.55 -6.25,7.25 -16.15,6.7 -5.4,-0.3 -9.4,-3.75 l -1.85,-1.8 q -0.9,5 -3.25,9.85 -1.35,2.8 -3.9,4.65 -10.6,7.75 -23.25,3.15 -4.2,-1.5 -6.55,-5.3 -1.25,-2.05 -1.25,-4.55 -0.8,-1.4 -0.6,-3 l 0.2,-1.05 -2.25,-1 q -1.3,-0.6 -2,-1.8 -3.1,-5.3 -0.6,-10 l -0.85,-0.55 m 32.8,-38.25 v 0.1 q 1.95,8.75 1.55,18 -0.2,3.7 -1.15,7.3 -0.6,6.25 -4.05,11.4 l 2.25,-0.65 Q 7.25,12.4 9.35,-2.1 q 0.3,-2.1 0.2,-4.25 l -0.2,-4.3 -0.6,-1.75 Q 5.85,-20.2 -1.6,-24.55 l -1.9,-1 q -1.95,-0.95 -4,-1.5 0.7,1.1 1.1,2.4 0.4,1.15 0.35,2.45 l 0.45,1.25 0.15,1.45 m 35.5,-3.2 q 3.95,1.8 0.35,4.1 -0.75,0.45 -1.35,-0.2 -2.5,-2.75 1,-3.9 M 25.6,2.2 22.2,2.3 22.95,7.15 q 1.4,-0.8 3.1,-1 H 26.2 L 26.65,6.05 29.25,6 28.6,2.6 28.5,1.9 25.6,2.2 m 1.1,6.5 q -1.25,0.25 -2.5,0.8 l -0.65,0.2 q 0.7,2.85 1.75,5.6 l 0.7,-0.2 1.5,0.05 3.45,0.35 -0.3,-3 -0.9,-4.1 -3.05,0.3 m 0.8,9.15 -1.7,0.2 h -0.1 l -0.05,0.1 Q 25,20.4 23.55,21.4 l 0.7,2.15 0.25,0.8 0.35,0.7 0.15,1.95 0.1,0.6 3.55,-2.7 q 2.85,-2.75 2.5,-6.85 L 31.1,17.5 27.5,17.85 M 7.1,13.4 5.65,14.75 5.75,15.2 q 0.9,-1.15 2.35,-1.65 6.05,-2.1 9.75,2.85 0.6,0.85 1.7,1.1 l 1.6,-0.3 0.1,-0.25 0.1,-0.4 0.05,-0.2 Q 18.15,9.5 17.85,2.05 L 16.05,1.8 13.95,1.25 Q 12.25,8.15 7.1,13.4 m 15.25,12.15 -0.7,-1.6 -0.4,-1.55 -0.2,-0.25 -2.65,-0.35 -0.75,-0.2 q -0.7,0.5 -1.1,1.3 l -0.65,0.8 q -0.6,1.35 -0.7,2.8 l -0.2,1.75 -0.05,0.2 q 4.1,1.4 7.9,0.15 l -0.2,-0.8 v -1.75 l -0.3,-0.5 M -5.4,31 q -2.95,2.8 -7.05,3.4 -9.3,1.3 -17.7,-1.4 l 0.85,2.6 0.85,2.25 1.2,1.35 q 0.5,0.4 0.6,1 8.9,5.75 19,1.05 8.75,-4 9.9,-13.75 V 21.05 17.6 L 2.2,17.45 -2.5,20.05 Q -0.4,26.3 -5.4,31 M 12.1,18.5 Q 11.35,17.85 10.2,17.75 L 9.1,18.4 8.75,18.65 Q 8.3,19.1 8.2,19.7 l -0.35,1.05 v 0.25 0.2 0.45 q 0.7,2 2.15,3.6 l 1.05,1.3 1.75,1 q -0.35,-2.15 0.35,-4.3 0.45,-1.65 1.6,-2.9 -1.4,-0.8 -2.65,-1.85 m -20,-51.4 q -0.3,-1.8 -0.25,-3.6 l -0.4,-1.1 q -0.15,-1.15 -0.6,-2.15 -0.1,-0.4 -0.1,0 0,1.05 -0.45,1.95 l -0.25,0.4 -0.05,0.85 -0.2,1.95 -0.1,0.25 0.05,1.05 0.05,0.4 2.4,0.4 -0.1,-0.4 m -11.85,0.45 1.5,-0.3 -0.1,-1.25 -0.4,-5.8 -0.4,-1.95 q -0.05,-2.4 -0.75,-4.65 l -0.05,-0.05 -0.55,-0.15 h -0.3 l -0.1,0.2 -0.1,0.45 -0.2,0.4 -0.1,0.25 q -0.55,5 -0.3,10.05 0.1,1.7 -0.1,3.3 l 1.95,-0.5 m -20.7,35.4 0.85,5.15 q 1.35,5.2 6.25,7.75 3.95,2.05 8.4,2.5 5.05,0.55 9.95,0 l 0.15,-0.15 0.45,0.05 h 0.1 l 0.35,-0.05 Q -8.4,13.5 -7.75,5.85 L -7.3,-0.8 q 0.9,-13.65 -4.45,-25.85 l -0.3,-1.15 h -3.1 l -3.7,0.65 q -11.6,2.7 -17.65,13.4 -4.65,8.1 -3.95,16.7 m 10.75,-20.3 1.4,0.1 1,0.25 q 2.4,3.75 -0.9,7.3 -1.8,1.95 -4.3,0.85 -2.1,-2.6 -0.45,-5.8 1.1,-2.15 3.25,-2.7 m -4.3,14.3 1.6,0.1 1.05,0.25 q 2.3,4.85 -2.4,7.3 l -1.6,-0.05 q -1,-0.55 -1.6,-1.5 -0.3,-1.65 0.25,-3.25 0.55,-1.7 2.05,-2.7 L -34.5,-2.95 -34,-3 v -0.05 m 13.1,32.85 q 6.2,0.3 12.55,-2.45 1.3,-0.6 1.55,-2.05 0.3,-1.9 0.2,-3.75 l -2.4,0.6 -5.65,1.15 -6.15,0.65 q -6.75,0.05 -12.75,-2.6 l -0.05,1.55 q 0,1.3 0.4,2.6 l 0.5,0.65 0.5,0.6 q 5.6,2.8 11.3,3.05 m 2,-3.65 0.4,0.1 0.35,0.15 0.25,0.25 0.25,0.4 0.25,0.45 v 0.4 q 0,0.5 -0.3,0.9 l -0.1,0.2 q -1.35,0.8 -2.15,0.4 -0.65,-0.4 -0.9,-1.65 v -0.4 l 0.2,-0.45 q 0.25,-0.4 0.75,-0.6 l 0.25,-0.1 0.5,-0.1 v -0.05 l 0.25,0.1 m -9.4,-1.35 h 0.15 l 0.6,0.1 0.6,0.65 0.1,0.65 q 0.05,0.35 -0.2,0.65 l -0.65,0.55 -0.6,0.05 -0.55,-0.1 -0.45,-0.45 -0.25,-0.4 -0.05,-0.45 0.05,-0.4 0.1,-0.25 0.75,-0.5 0.4,-0.1"
         fill="#000000"
         fill-rule="evenodd"
         stroke="none"
         id="path1" />
      <path
         d="m 25.6,-26 q 0.45,1.25 0.35,3.05 l -0.4,2.5 V -21 q -0.05,-2.55 0.05,-5 m -13.5,6.95 q 4.05,3.3 8.8,-0.5 l 0.15,-0.25 0.05,-0.2 0.05,-0.2 v -0.2 q -1.6,-1.8 -4.25,-1.05 l -1.5,0.15 -0.6,-0.45 -0.25,-0.2 -0.15,-0.2 -0.15,-0.7 2.8,-4 6.45,-0.6 -0.2,1.05 q -0.4,2.2 -0.4,4.5 -0.25,0.35 -0.25,0.85 V -20 q -0.4,0.7 -0.45,1.5 l -0.15,3.2 -2.75,1.6 -2.95,0.25 q -2.45,-0.65 -3.5,-2.05 l -0.7,-1.45 q -0.2,-0.95 -0.05,-2.1 m 15.4,5.85 3.2,0.15 7.5,-0.7 q 0.15,2.8 -0.55,5.5 l -0.75,0.5 q -5.9,3.3 -10.1,-1.3 -0.55,-0.6 -0.4,-1.45 0.25,-1.75 1.1,-2.7 m -18.75,0.8 q -0.55,0.45 -1.35,0.6 -7.2,1.65 -11.5,-4.55 -1.05,-1.5 -1.35,-3.15 l -0.15,-1.45 0.2,-2.15 q 0.35,-1.9 1.9,-2.45 l 1.9,1 Q 5.85,-20.2 8.75,-12.4 M 26.2,6.15 25.65,3.35 25.6,2.2 28.5,1.9 28.6,2.6 29.25,6 26.65,6.05 26.2,6.15 m 1.3,9 v -2.5 l -0.8,-3.95 3.05,-0.3 0.9,4.1 0.3,3 -3.45,-0.35 m -3,9.2 q 2.25,-1.6 2.45,-4.6 0.05,-1.05 0.55,-1.9 l 3.6,-0.35 0.05,0.55 q 0.35,4.1 -2.5,6.85 L 25.1,27.6 25,27 24.85,25.05 24.5,24.35 m -9.5,3.9 q 3.8,-0.95 7.35,-2.7 l 0.3,0.5 v 1.75 l 0.2,0.8 q -3.8,1.25 -7.9,-0.15 L 15,28.25 m -33.85,-55.4 q 6.4,0.6 6.85,7.3 0.8,12.8 -9.05,21.45 -6.05,5.3 -14,4.4 -4.1,-0.45 -5.4,-3.05 -0.7,-8.6 3.95,-16.7 6.05,-10.7 17.65,-13.4 M -34,-3.05 V -3 l -0.5,0.05 -0.15,0.05 q -1.5,1 -2.05,2.7 -0.55,1.6 -0.25,3.25 0.6,0.95 1.6,1.5 l 1.6,0.05 q 4.7,-2.45 2.4,-7.3 l -1.05,-0.25 -1.6,-0.1 m 4.3,-14.3 q -2.15,0.55 -3.25,2.7 -1.65,3.2 0.45,5.8 2.5,1.1 4.3,-0.85 3.3,-3.55 0.9,-7.3 l -1,-0.25 -1.4,-0.1 m 8.9,41.3 q 1,0.9 1.85,2.1 l 0.05,0.1 -0.25,-0.1 v 0.05 l -0.5,0.1 -0.25,0.1 q -0.5,0.2 -0.75,0.6 l -0.2,0.45 v 0.4 q 0.25,1.25 0.9,1.65 l -0.95,0.4 q -5.7,-0.25 -11.3,-3.05 l -0.5,-0.6 -0.5,-0.65 q -0.4,-1.3 -0.4,-2.6 l 0.05,-1.55 q 6,2.65 12.75,2.6 m -7.5,0.85 -0.4,0.1 -0.75,0.5 -0.1,0.25 -0.05,0.4 0.05,0.45 0.25,0.4 0.45,0.45 0.55,0.1 0.6,-0.05 0.65,-0.55 q 0.25,-0.3 0.2,-0.65 l -0.1,-0.65 -0.6,-0.65 -0.6,-0.1 h -0.15"
         fill="#d9d9d9"
         fill-rule="evenodd"
         stroke="none"
         id="path2" />
      <path
         d="m 25.6,-26 0.05,-0.8 -0.05,-0.2 -0.05,-0.2 v -0.25 l 0.1,-0.15 9.2,-0.4 0.95,2.2 1,2.3 0.1,1.95 0.4,1.25 0.55,3.35 -12.55,-0.6 -0.05,-0.65 -0.05,-0.45 0.35,-1.8 0.4,-2.5 q 0.1,-1.8 -0.35,-3.05 m -12.75,10.5 q 1.05,1.4 3.5,2.05 l 2.95,-0.25 2.75,-1.6 v 0.25 q 0.9,1.55 2.9,1.65 l 2.55,0.2 q -0.85,0.95 -1.1,2.7 -0.15,0.85 0.4,1.45 4.2,4.6 10.1,1.3 l 0.75,-0.5 -0.55,1.7 q -8.15,3.9 -17.1,3.6 L 17.65,-3.9 14.75,-4.35 Q 15,-10.3 12.85,-15.5 m -4.1,3.1 0.6,1.75 0.2,4.3 q 0.1,2.15 -0.2,4.25 -2.1,14.5 -16.2,18.75 L -9.1,17.3 q 3.45,-5.15 4.05,-11.4 0.95,-3.6 1.15,-7.3 0.4,-9.25 -1.55,-18 v -0.1 q 0.3,1.65 1.35,3.15 4.3,6.2 11.5,4.55 0.8,-0.15 1.35,-0.6 m 21.3,-10.3 q -3.5,1.15 -1,3.9 0.6,0.65 1.35,0.2 3.6,-2.3 -0.35,-4.1 M 26.2,6.15 h -0.15 q -1.7,0.2 -3.1,1 L 22.2,2.3 l 3.4,-0.1 0.05,1.15 0.55,2.8 m 1.3,9 L 26,15.1 25.3,15.3 Q 24.25,12.55 23.55,9.7 L 24.2,9.5 q 1.25,-0.55 2.5,-0.8 l 0.8,3.95 v 2.5 m -3,9.2 -0.25,-0.8 -0.7,-2.15 q 1.45,-1 2.1,-3.25 l 0.05,-0.1 h 0.1 l 1.7,-0.2 q -0.5,0.85 -0.55,1.9 -0.2,3 -2.45,4.6 m -9.5,3.9 0.2,-1.75 q 0.1,-1.45 0.7,-2.8 l 0.65,-0.8 q 0.4,-0.8 1.1,-1.3 l 0.75,0.2 2.65,0.35 0.2,0.25 0.4,1.55 0.7,1.6 Q 18.8,27.3 15,28.25 M 12.1,18.5 q 1.25,1.05 2.65,1.85 -1.15,1.25 -1.6,2.9 -0.7,2.15 -0.35,4.3 l -1.75,-1 L 10,25.25 Q 8.55,23.65 7.85,21.65 V 21.2 21 20.75 L 8.2,19.7 Q 8.3,19.1 8.75,18.65 L 9.1,18.4 10.2,17.75 q 1.15,0.1 1.9,0.75 m -30.95,-45.65 3.7,-0.65 h 3.1 l 0.3,1.15 q 5.35,12.2 4.45,25.85 l -0.45,6.65 q -0.65,7.65 -6.2,12.35 l -0.35,0.05 h -0.1 L -14.85,18.2 -15,18.35 q -4.9,0.55 -9.95,0 -4.45,-0.45 -8.4,-2.5 -4.9,-2.55 -6.25,-7.75 l -0.85,-5.15 q 1.3,2.6 5.4,3.05 7.95,0.9 14,-4.4 9.85,-8.65 9.05,-21.45 -0.45,-6.7 -6.85,-7.3 m -1.95,51.1 6.15,-0.65 5.65,-1.15 2.4,-0.6 q 0.1,1.85 -0.2,3.75 -0.25,1.45 -1.55,2.05 -6.35,2.75 -12.55,2.45 l 0.95,-0.4 q 0.8,0.4 2.15,-0.4 l 0.1,-0.2 q 0.3,-0.4 0.3,-0.9 v -0.4 l -0.25,-0.45 -0.25,-0.4 -0.25,-0.25 -0.35,-0.15 -0.4,-0.1 -0.05,-0.1 q -0.85,-1.2 -1.85,-2.1"
         fill="#afafaf"
         fill-rule="evenodd"
         stroke="none"
         id="path3" />
    </g>
    <g
       id="sprite1"
       transform="translate(17.4,15.85)">
      <use
         ffdec:characterId="31"
         height="57.200001"
         transform="matrix(0.5366,0,0,0.5366,-16.6582,-14.546)"
         width="70.75"
         xlink:href="#sprite2"
         id="use3" />
    </g>
    <g
       id="sprite2"
       transform="translate(-8.65,-10.35)">
      <use
         ffdec:characterId="30"
         height="57.200001"
         transform="translate(8.65,10.35)"
         width="70.75"
         xlink:href="#shape1"
         id="use4" />
    </g>
    <g
       id="shape1"
       transform="translate(-8.65,-10.35)">
      <path
         d="m 14.8,41.7 q 0.65,-1.75 2.65,-2.5 1.8,-0.8 3.7,-0.25 1.15,0.45 2.25,1.2 l 0.9,0.4 q 1.65,0.9 2.85,2.5 L 37.8,30.1 q 2.35,-2.8 3.75,-3.95 1.5,-1.15 4.25,-2.4 18.2,-8.85 27.65,-12.6 2.15,-0.8 3.25,-0.8 h 0.8 l 1.9,2.4 -0.2,0.8 q -0.2,1.1 -1.55,3 -5.85,8.25 -18.85,23.8 -1.85,2.35 -3.35,3.5 -1.4,1.15 -4.75,2.75 l -15.15,7.15 q 1.2,1.6 1.75,3.4 l 0.2,1 0.55,2.5 q 0.1,1.95 -1.1,3.55 -1.2,1.65 -3.05,1.9 l -1.3,0.05 q -1.65,0.2 -3.45,-0.65 -1.85,-0.9 -3,-2.6 L 25,60.95 23.8,62.1 q -2.6,2.85 -4.3,3.95 -2.85,1.8 -5.5,1.45 l -1.65,-0.5 -1.2,-0.7 -0.2,-0.2 q -1,-0.85 -1.6,-1.9 L 9.25,64 9.15,63.8 8.75,62.4 q -0.2,-0.8 -0.05,-1.7 0.25,-2.65 2.7,-5.05 1.5,-1.3 4.9,-3.15 L 17.7,51.55 16.05,50 q -1.35,-1.5 -1.8,-3.6 -0.4,-1.85 0.25,-3.45 l 0.3,-1.25"
         fill="#000000"
         fill-opacity="0.372549"
         fill-rule="evenodd"
         stroke="none"
         id="path4" />
    </g>
  </defs>
</svg>
