<?xml version="1.0" encoding="UTF-8" standalone="no"?>
<svg
   ffdec:objectType="frame"
   height="94.579247"
   width="92.893524"
   version="1.1"
   id="svg5"
   sodipodi:docname="ITEM Advanced Alloy Hat.svg"
   xmlns:inkscape="http://www.inkscape.org/namespaces/inkscape"
   xmlns:sodipodi="http://sodipodi.sourceforge.net/DTD/sodipodi-0.dtd"
   xmlns:xlink="http://www.w3.org/1999/xlink"
   xmlns="http://www.w3.org/2000/svg"
   xmlns:svg="http://www.w3.org/2000/svg"
   xmlns:ffdec="https://www.free-decompiler.com/flash">
  <sodipodi:namedview
     id="namedview5"
     pagecolor="#ffffff"
     bordercolor="#000000"
     borderopacity="0.25"
     inkscape:showpageshadow="2"
     inkscape:pageopacity="0.0"
     inkscape:pagecheckerboard="0"
     inkscape:deskcolor="#d1d1d1"
     fit-margin-top="5"
     fit-margin-left="5"
     fit-margin-right="5"
     fit-margin-bottom="5" />
  <g
     transform="translate(47.350543,48.85)"
     id="g1">
    <use
       ffdec:characterId="17"
       height="119.15"
       id="rarity"
       transform="translate(-58.5,-60.65)"
       width="119.15"
       xlink:href="#sprite0" />
    <use
       ffdec:characterId="1170"
       height="94.599998"
       transform="translate(-47.35,-48.85)"
       width="92.900002"
       xlink:href="#shape0"
       id="use1" />
  </g>
  <defs
     id="defs5">
    <g
       id="shape0"
       transform="translate(46.05,46.95)">
      <path
         d="m -28.05,6.55 q 9.25,-0.3 15.6,5.95 l 0.05,-2 -0.1,-0.15 -0.1,-0.15 -0.1,-0.2 -0.1,-0.5 Q -20,4.9 -28.35,3.6 h -1 q -4.95,0.5 -4.95,-4.1 0,-4.25 1.15,-8.3 l 0.55,-2.3 q 1.4,-4.2 5.65,-5.45 l 3.5,-0.75 q 8,-0.75 14.7,2.65 0.3,-2.1 1.25,-4 l 1.15,-3.95 q 0.75,-2.05 2.45,-2.9 0.2,-1.55 1.85,-2.55 4.35,-2.65 9.45,-2.7 l 1.15,-0.05 0.05,-0.25 0.4,-2.15 0.1,-0.2 0.1,-0.15 0.1,-0.15 0.05,-0.35 0.35,-0.65 0.05,-0.3 0.1,-0.65 0.65,-1.15 0.3,-1 1.4,-2.7 0.4,-1.2 0.05,-0.15 0.25,-0.35 0.15,-0.15 0.05,-0.2 0.05,-0.15 0.35,-0.6 0.05,-0.2 0.1,-0.2 0.05,-0.05 0.2,-0.25 0.1,-0.5 0.75,-0.8 q 0.25,-0.8 0.95,-1.3 l 1.1,-0.35 q 1.65,0.2 1.95,1.8 l 0.05,1 q 1.8,7.4 1.3,14.95 l 0.4,0.15 0.3,0.15 0.35,0.4 q 1.25,-2.7 3,-5.2 l 1.4,-1.7 q 0.15,-0.7 0.85,-1.1 0.5,-0.35 1.05,-0.35 2.85,1.3 2.25,4.9 l -0.55,4.9 -0.15,0.8 q 0.15,1.55 -0.05,3.1 l -0.35,2.15 -0.2,2.25 q 0.95,1.5 1.2,3.3 1.3,-1.35 2.95,-1.65 3.3,0.6 5.35,3.4 2.6,-2.6 6,-3.9 l 0.75,-0.15 q 2.5,0.85 2.15,3.55 -0.1,0.7 -0.55,1.3 l -0.6,2.8 q -0.15,0.95 -0.7,1.75 l -0.1,0.35 -0.15,0.3 -0.2,0.35 q -0.45,2.15 -2,3.25 l 0.35,1.4 q 1.5,7.55 1.65,15.5 0.1,5.05 -1.4,9.75 -1,3.05 -4.5,3.55 -2.5,0.4 -4.95,1.15 -4.6,1.45 -8.95,-0.2 -0.85,-0.3 -1.05,-1.2 -0.25,-1.2 0.5,-2.25 l 0.1,-3.15 -0.05,-0.75 -5.5,0.25 -2.95,-0.1 -0.5,-0.65 Q 14.95,17.05 15,14.8 l 0.05,-3.1 Q 14.1,8.1 13.95,4.35 V 4.15 L 13,4.1 12.85,6.2 Q 12.9,7.55 12.4,8.8 11.55,15.15 5.1,17 L 0.4,16.85 q -4.3,-1.6 -5,-5.75 l -1.85,1.15 -1.45,0.2 -0.45,3.1 -0.25,1.5 1.4,1.8 q 1,1.35 1.1,2.95 0.1,0.9 -0.5,1.6 l -0.2,1.7 -1.05,4.25 q -0.5,1.95 -1.3,3.85 0.05,3.65 -3.95,4.1 l -0.1,1.4 q -0.6,3.8 -2.75,6.85 -0.4,0.55 -1,0.9 -4.35,2.5 -7.35,-0.3 l -1.8,-1.45 q -1.75,-1.95 -2.1,-4.55 -0.2,-1.35 0.05,-2.45 l -2.6,-0.05 q -6.3,-0.1 -12.2,-1.8 -0.75,-0.25 -0.95,-1 -2.05,-6.45 -2.15,-13.35 -0.05,-5.75 4.5,-9.6 2.3,-1.85 5,-3.05 4.15,-1.8 8.5,-2.3 m 7.3,-18.1 -4.3,0.5 q -0.8,0.15 -1.35,0.75 l -1.1,2.95 -0.2,0.95 h 2.1 q 2.85,0.1 5.7,0.95 l 0.3,-0.65 0.55,-1 v -0.15 -0.1 l 0.05,-0.2 0.05,-0.35 q 0.4,-0.45 0.45,-1 l 0.3,-1.1 v -0.5 l 0.1,-1 -2.65,-0.05 m -7.55,9.8 v 0.3 l 0.35,0.05 6.3,1.4 q 2.45,0.65 4.75,1.6 L -14,3 -7.25,6.6 -5.9,4.8 q 1.35,-2.25 2.15,-4.75 v -0.3 L -3.9,-1.4 -4.45,-3.4 Q -5.3,-5.1 -6.55,-6.5 -7.8,-7.95 -9.5,-8.8 l -0.6,-0.3 -1.15,-0.8 q -1.9,-0.8 -3.8,-1.2 l -0.3,0.55 q 0.1,0.95 -0.2,1.8 l -0.3,1.45 -0.1,0.15 -0.2,0.35 -0.15,0.15 -0.05,0.35 -0.25,0.65 -0.1,0.15 -0.05,0.15 v 0.15 l -0.55,1 -0.45,1 -0.5,0.25 -0.5,0.15 -0.75,-0.3 -0.3,-0.2 -8.15,-1.6 -0.35,3.15 M 0.5,-20 0,-20.2 l -0.75,-0.25 -0.4,-0.15 q -1.25,3.85 -2.8,7.5 l 1.55,-0.15 h 0.9 q -0.25,-1.05 0.05,-2.1 l 0.8,-2.75 q 0.4,-1.2 1.25,-1.75 L 0.5,-20 M 1.3,0.4 Q 1.2,2.35 0.5,4.2 -0.35,6.45 -1.65,8.2 V 8.35 8.5 q 0.5,1.3 1.35,2.35 l 1.25,1.2 q 3.55,1.5 6.25,-1.2 L 7.3,10.5 7.5,10.05 7.7,9.7 Q 8.6,6.85 8.8,3.85 L 7.15,3.7 Q 5.45,3.55 5.35,1.9 5.25,0.8 5.6,0.15 5.2,-0.35 5.45,-1 6.25,-3.3 6.55,-5.75 L 6.25,-7.6 5.95,-9.2 5.35,-9.15 -0.7,-8 -0.75,-7.95 Q 1.5,-4.4 1.3,0.4 m 18.1,-14.8 q 1.75,0.2 3.2,-1 l 0.35,-0.8 0.25,-0.5 0.2,-0.65 0.2,-0.5 1.05,-7.35 0.25,-3.25 -0.95,1.85 -0.35,0.6 -1.8,3.8 -0.8,1.3 -1.4,3.15 -0.55,0.9 -0.15,0.65 -0.1,0.35 0.2,0.95 v 0.05 q 0.05,0.3 0.3,0.45 h 0.1 m -3.75,-24.2 -0.05,-0.35 -0.1,0.35 -2.7,7.8 -0.05,0.15 -0.15,2.85 -0.1,1.1 -0.1,0.35 0.35,1.15 q 0.05,0.25 0.25,0.4 h 0.95 q 1,-0.6 1.5,-1.6 0.6,-4.55 0.3,-9.15 l -0.1,-3.05 m -7.3,13.65 V -25 H 8.3 l -0.5,-0.05 -5.05,0.4 0.95,0.55 q 2.2,1.5 3.8,4.2 l 0.25,0.45 0.1,0.2 1.8,4.05 q 1.05,3 1.25,6.15 0.25,3.15 -0.4,6.45 L 10.05,-1.1 10,-1 25.1,-1.65 q 0.45,-2.3 0.4,-4.7 -0.05,-1.4 0.3,-2.65 l -0.2,-2.75 q -2.45,2.4 -6.4,2.05 l -0.9,-0.1 q -1,-0.15 -1.75,-0.8 l -0.8,-0.75 -0.65,-0.95 q -1.05,-1.95 0.35,-4.1 l 0.3,-0.3 0.05,-0.2 0.05,-0.3 0.1,-0.15 0.1,-0.2 0.05,-0.15 0.1,-0.5 0.35,-0.95 0.2,-1.15 0.2,-1 q -4.55,3 -7.6,-1.15 -0.95,-1.3 -1,-2.5 m 7.55,17.8 Q 19.15,-6.1 17,-3.6 16.05,-2.5 14.9,-3.4 12.85,-5 14.85,-6.7 L 15.9,-7.15 M 30.2,-7.8 30.05,-7.75 29.8,-6.9 v 0.15 l 0.15,2.6 q 0.05,1 -0.25,1.95 0.2,1.5 -0.05,2.6 -0.55,2.6 -3.6,3.25 0.85,1.6 1,3.75 l 0.5,4.75 q 0.75,2.4 1,4.9 l 0.35,5.05 2.3,-0.3 Q 31,21.15 31.1,20.35 l -0.05,-1.15 -0.3,-3.1 q -0.4,-3.8 -0.3,-7.65 0.05,-1.3 1.3,-1.55 L 33.9,6.35 34.6,6.1 q 1.7,-0.55 3.3,-0.8 l 1,0.05 L 38.8,4.3 Q 38.45,0.45 37.3,-3.2 36,-7.4 32.95,-10.75 31.85,-8.7 30.2,-7.8 m 11.15,-0.45 1.2,-3.55 0.6,-1.95 q -1.55,0.5 -3.2,2 l -0.2,0.15 -0.4,0.3 0.85,1.55 1,1.55 0.05,0.15 0.05,-0.1 0.05,-0.1 m -3.3,28.2 0.45,-0.15 Q 39.3,13.5 39,7.1 36.55,7.75 34.2,8.7 l -1,0.3 0.25,2.6 0.1,1.95 v 1.15 q 1.05,3.35 0.6,6.5 l 3.9,-1.25 m -1.25,-9.7 0.45,0.1 0.35,0.35 0.2,0.45 -0.05,0.35 -0.45,0.65 -0.15,0.1 L 36.8,12.3 36.4,12.2 36.2,12 35.9,11.7 35.85,11.55 35.8,11.2 35.85,10.9 Q 36,10.6 36.3,10.45 l 0.5,-0.2 M 18.3,4.3 18.35,5.45 q 0.8,3.35 0.95,6.85 l 0.1,3.75 h 1.25 L 20.6,15.95 Q 19.25,10.75 19.8,5.15 L 20,4.1 18.3,4.15 V 4.3 M -8,-0.2 q 3.5,1.55 0.25,3.6 -0.75,0.45 -1.3,-0.25 -2,-2.45 1.05,-3.35 m -31.65,29 0.4,2.35 q 13.75,1.75 27.5,-0.1 0.25,-0.9 0.35,-1.8 l 0.45,-3.3 0.55,-2.9 -3,-3.5 -2.9,-3.05 q -3.5,-3.5 -8.2,-4.3 0.7,3.4 0.8,7.1 0.1,3.8 -1.1,7.1 l -0.45,0.35 -10.2,-0.6 -0.45,-0.55 q -0.05,-1.3 -0.55,-2.45 l -0.2,-1.15 -0.2,-1.45 q -0.55,-2 -0.5,-4.05 -1.35,1.35 -2.5,3.05 -0.4,0.55 -0.4,1.3 0,4 0.6,7.95 m 5.3,-11.65 0.05,1.95 0.1,0.35 q 0.15,0.4 0.15,0.8 v 0.35 q 0.4,0.6 0.55,1.25 l 0.35,1.5 q 3.1,0.2 6.15,-0.1 l -0.05,-4.55 -0.15,-2.1 -0.05,-0.55 q -0.4,-1.9 -0.2,-3.9 -4.25,0.35 -7.45,2.45 l 0.1,0.3 q 0.35,1.05 0.45,2.25 m 14.9,25.45 0.25,-0.2 q 0.95,-2.35 1.2,-4.9 l -4.85,0.15 -0.3,1.2 q -0.1,2.7 1.95,4.15 0.9,0.1 1.75,-0.4"
         fill="#000000"
         fill-rule="evenodd"
         stroke="none"
         id="path1" />
      <path
         d="m -20.75,-11.55 2.65,0.05 -0.1,1 v 0.5 l -0.3,1.1 q -0.05,0.55 -0.45,1 l -0.05,0.35 -0.05,0.2 v 0.1 0.15 l -0.55,1 -0.3,0.65 q -2.85,-0.85 -5.7,-0.95 h -2.1 l 0.2,-0.95 1.1,-2.95 q 0.55,-0.6 1.35,-0.75 l 4.3,-0.5 m 57.55,21.8 -0.5,0.2 Q 36,10.6 35.85,10.9 l -0.05,0.3 0.05,0.35 0.05,0.15 0.3,0.3 0.2,0.2 0.4,0.1 0.35,-0.05 0.15,-0.1 0.45,-0.65 0.05,-0.35 -0.2,-0.45 -0.35,-0.35 -0.45,-0.1 m 1.25,9.7 -3.9,1.25 q 0.45,-3.15 -0.6,-6.5 V 13.55 L 33.45,11.6 33.2,9 l 1,-0.3 q 2.35,-0.95 4.8,-1.6 0.3,6.4 -0.5,12.7 l -0.45,0.15 m -72.4,-2.8 q -0.1,-1.2 -0.45,-2.25 l -0.1,-0.3 q 3.2,-2.1 7.45,-2.45 -0.2,2 0.2,3.9 l 0.05,0.55 0.15,2.1 0.05,4.55 q -3.05,0.3 -6.15,0.1 l -0.35,-1.5 q -0.15,-0.65 -0.55,-1.25 v -0.35 q 0,-0.4 -0.15,-0.8 l -0.1,-0.35 -0.05,-1.95"
         fill="#9c9c9c"
         fill-rule="evenodd"
         stroke="none"
         id="path2" />
      <path
         d="m -27.95,-1.4 -0.15,-0.25 -0.2,-0.1 0.35,-3.15 8.15,1.6 0.3,0.2 0.75,0.3 0.5,-0.15 0.5,-0.25 0.45,-1 0.55,-1 v -0.15 l 0.05,-0.15 0.1,-0.15 0.25,-0.65 0.05,-0.35 0.15,-0.15 0.2,-0.35 0.1,-0.15 0.3,-1.45 q 0.3,-0.85 0.2,-1.8 l 0.3,-0.55 q 1.9,0.4 3.8,1.2 l 1.15,0.8 0.6,0.3 0.4,0.7 q 1.65,3.2 -0.65,6.05 -1.45,1.8 -3.35,3.05 -1.1,0.7 -2.5,0.65 L -16.9,1.6 Q -19.2,0.65 -21.65,0 l -6.3,-1.4 M 19,-14.9 l -0.2,-0.95 0.1,-0.35 0.15,-0.65 0.55,-0.9 1.4,-3.15 0.8,-1.3 1.8,-3.8 0.35,-0.6 0.95,-1.85 -0.25,3.25 -1.05,7.35 -0.2,0.5 -0.2,0.65 -0.25,0.5 -0.35,0.8 q -1.45,1.2 -3.2,1 L 19,-14.9 m -3.5,-23.7 h 0.15 l 0.1,3.05 q 0.3,4.6 -0.3,9.15 -0.5,1 -1.5,1.6 H 13 q -0.2,-0.15 -0.25,-0.4 l -0.35,-1.15 0.1,-0.35 0.1,-1.1 0.15,-2.85 0.05,-0.15 2.7,-7.8 m -7.2,13.6 0.05,0.05 q 0.05,1.2 1,2.5 3.05,4.15 7.6,1.15 l -0.2,1 -0.2,1.15 -0.35,0.95 -0.1,0.5 -0.05,0.15 -0.1,0.2 -0.1,0.15 -0.05,0.3 -0.05,0.2 -0.3,0.3 q -1.4,2.15 -0.35,4.1 l 0.65,0.95 0.8,0.75 q 0.75,0.65 1.75,0.8 l 0.9,0.1 Q 17.6,-7.45 13.65,-8 12,-8.2 10.9,-9.05 10.7,-12.2 9.65,-15.2 l 0.15,-0.3 0.25,-0.3 -0.35,-0.7 -1.8,-2.75 H 7.85 l -0.1,-0.2 -0.25,-0.45 q -1.6,-2.7 -3.8,-4.2 l -0.95,-0.55 5.05,-0.4 0.5,0.05 m 21.5,18.25 0.3,-0.75 0.1,-0.3 q 1.65,-0.9 2.75,-2.95 3.05,3.35 4.35,7.55 1.15,3.65 1.5,7.5 l 0.1,1.05 -1,-0.05 Q 36.3,5.55 34.6,6.1 L 33.9,6.35 Q 31.4,5.4 30.3,2.45 L 29.65,0.4 q 0.25,-1.1 0.05,-2.6 0.3,-0.95 0.25,-1.95 l -0.15,-2.6 m 11.4,-1.45 -1,-1.55 -0.85,-1.55 0.4,-0.3 0.2,-0.15 q 1.65,-1.5 3.2,-2 l -0.6,1.95 -1.2,3.55 -0.15,0.05 m -54.6,27.75 v 0.5 q -0.4,6.2 -6.7,8.55 l -0.95,0.35 q -8.2,2.85 -16.8,0.65 -1,-0.25 -1.8,-0.8 -0.6,-3.95 -0.6,-7.95 0,-0.75 0.4,-1.3 1.15,-1.7 2.5,-3.05 -0.05,2.05 0.5,4.05 l 0.2,1.45 0.2,1.15 q 0.5,1.15 0.55,2.45 l 0.45,0.55 10.2,0.6 0.45,-0.35 q 1.2,-3.3 1.1,-7.1 -0.1,-3.7 -0.8,-7.1 4.7,0.8 8.2,4.3 l 2.9,3.05"
         fill="#d9d9d9"
         fill-rule="evenodd"
         stroke="none"
         id="path3" />
      <path
         d="m -16.9,1.6 1.3,0.05 q 1.4,0.05 2.5,-0.65 1.9,-1.25 3.35,-3.05 2.3,-2.85 0.65,-6.05 l -0.4,-0.7 q 1.7,0.85 2.95,2.3 1.25,1.4 2.1,3.1 l 0.55,2 0.15,1.15 v 0.3 Q -4.55,2.55 -5.9,4.8 L -7.25,6.6 -14,3 -16.9,1.6 M 0.5,-20 l 0.1,0.15 q -0.85,0.55 -1.25,1.75 l -0.8,2.75 q -0.3,1.05 -0.05,2.1 h -0.9 l -1.55,0.15 q 1.55,-3.65 2.8,-7.5 l 0.4,0.15 0.75,0.25 0.5,0.2 m 18.7,10.3 q 3.95,0.35 6.4,-2.05 L 25.8,-9 q -0.35,1.25 -0.3,2.65 0.05,2.4 -0.4,4.7 L 10,-1 10.05,-1.1 10.5,-2.6 q 0.65,-3.3 0.4,-6.45 1.1,0.85 2.75,1.05 3.95,0.55 5.55,-1.7 m -3.3,2.55 -1.05,0.45 q -2,1.7 0.05,3.3 1.15,0.9 2.1,-0.2 2.15,-2.5 -1.1,-3.55 M 29.65,0.4 30.3,2.45 q 1.1,2.95 3.6,3.9 L 31.75,6.9 q -1.25,0.25 -1.3,1.55 -0.1,3.85 0.3,7.65 l 0.3,3.1 0.05,1.15 q -0.1,0.8 0.1,1.45 l -2.3,0.3 -0.35,-5.05 q -0.25,-2.5 -1,-4.9 L 27.05,7.4 Q 26.9,5.25 26.05,3.65 29.1,3 29.65,0.4 m -43.05,19.15 3,3.5 -0.55,2.9 -0.45,3.3 q -0.1,0.9 -0.35,1.8 -13.75,1.85 -27.5,0.1 l -0.4,-2.35 q 0.8,0.55 1.8,0.8 8.6,2.2 16.8,-0.65 l 0.95,-0.35 q 6.3,-2.35 6.7,-8.55 v -0.5 M -8,-0.2 q -3.05,0.9 -1.05,3.35 0.55,0.7 1.3,0.25 Q -4.5,1.35 -8,-0.2 M 18.3,4.3 V 4.15 L 20,4.1 19.8,5.15 q -0.55,5.6 0.8,10.8 l 0.05,0.1 H 19.4 L 19.3,12.3 Q 19.15,8.8 18.35,5.45 L 18.3,4.3"
         fill="#afafaf"
         fill-rule="evenodd"
         stroke="none"
         id="path4" />
    </g>
    <g
       id="sprite1"
       transform="translate(17.4,15.85)">
      <use
         ffdec:characterId="31"
         height="57.200001"
         transform="matrix(0.5366,0,0,0.5366,-16.6582,-14.546)"
         width="70.75"
         xlink:href="#sprite2"
         id="use4" />
    </g>
    <g
       id="sprite2"
       transform="translate(-8.65,-10.35)">
      <use
         ffdec:characterId="30"
         height="57.200001"
         transform="translate(8.65,10.35)"
         width="70.75"
         xlink:href="#shape1"
         id="use5" />
    </g>
    <g
       id="shape1"
       transform="translate(-8.65,-10.35)">
      <path
         d="m 14.8,41.7 q 0.65,-1.75 2.65,-2.5 1.8,-0.8 3.7,-0.25 1.15,0.45 2.25,1.2 l 0.9,0.4 q 1.65,0.9 2.85,2.5 L 37.8,30.1 q 2.35,-2.8 3.75,-3.95 1.5,-1.15 4.25,-2.4 18.2,-8.85 27.65,-12.6 2.15,-0.8 3.25,-0.8 h 0.8 l 1.9,2.4 -0.2,0.8 q -0.2,1.1 -1.55,3 -5.85,8.25 -18.85,23.8 -1.85,2.35 -3.35,3.5 -1.4,1.15 -4.75,2.75 l -15.15,7.15 q 1.2,1.6 1.75,3.4 l 0.2,1 0.55,2.5 q 0.1,1.95 -1.1,3.55 -1.2,1.65 -3.05,1.9 l -1.3,0.05 q -1.65,0.2 -3.45,-0.65 -1.85,-0.9 -3,-2.6 L 25,60.95 23.8,62.1 q -2.6,2.85 -4.3,3.95 -2.85,1.8 -5.5,1.45 l -1.65,-0.5 -1.2,-0.7 -0.2,-0.2 q -1,-0.85 -1.6,-1.9 L 9.25,64 9.15,63.8 8.75,62.4 q -0.2,-0.8 -0.05,-1.7 0.25,-2.65 2.7,-5.05 1.5,-1.3 4.9,-3.15 L 17.7,51.55 16.05,50 q -1.35,-1.5 -1.8,-3.6 -0.4,-1.85 0.25,-3.45 l 0.3,-1.25"
         fill="#000000"
         fill-opacity="0.372549"
         fill-rule="evenodd"
         stroke="none"
         id="path5" />
    </g>
  </defs>
</svg>
