<?xml version="1.0" encoding="UTF-8" standalone="no"?>
<svg
   ffdec:objectType="frame"
   height="69.403847"
   width="42.378948"
   version="1.1"
   id="svg5"
   xmlns:xlink="http://www.w3.org/1999/xlink"
   xmlns="http://www.w3.org/2000/svg"
   xmlns:svg="http://www.w3.org/2000/svg"
   xmlns:ffdec="https://www.free-decompiler.com/flash">
  <g
     transform="translate(18.7,33.95)"
     id="g1">
    <use
       ffdec:characterId="17"
       height="119.15"
       id="rarity"
       transform="translate(-58.5,-60.65)"
       width="119.15"
       xlink:href="#sprite0" />
    <use
       ffdec:characterId="552"
       height="69.400002"
       transform="translate(-18.7,-33.95)"
       width="42.400002"
       xlink:href="#shape0"
       id="use1" />
  </g>
  <defs
     id="defs5">
    <g
       id="shape0"
       transform="translate(18.3,33.15)">
      <path
         d="m -0.7,-28.3 -1.35,0.05 -1.3,0.3 q -0.95,0.6 -1.3,2.25 l -0.15,1.35 -0.05,0.5 -0.25,0.8 1.3,0.8 1.5,0.6 q 0.85,0.8 0.8,2.8 v 2.5 l -0.2,1.6 v 0.2 l 0.35,0.25 2,1.55 H 0.7 l -0.35,-1.3 q -0.15,-0.7 -0.15,-1.9 l -0.1,-1.9 -0.15,-1.75 q 0.15,-0.8 1.45,-1.85 1.4,-1.1 1.65,-1.8 0.4,-1 -0.15,-2.5 Q 2.5,-27 1.8,-27.55 0.95,-28.3 -0.7,-28.3 M -12.85,5.05 q 1.1,-2.3 1.3,-3.7 0.25,-1.6 -0.2,-3.2 -0.4,-1.55 -1.3,-2.55 l -1.15,-0.95 -1.05,-1.05 q -0.85,-0.95 -1,-2.25 -0.2,-1.3 0.25,-2.55 0.8,-2.2 3.3,-3.7 2.55,-1.55 5.75,-1.4 l 0.5,0.05 0.15,-0.35 q 0.2,-0.55 0,-0.95 l -0.55,-0.55 -0.85,-0.4 q -1.75,-0.85 -2.2,-3.25 -0.2,-1.4 0.2,-4.1 l 0.5,-2.15 0.85,-1.55 q 1.3,-2.1 2.35,-2.7 l 2.05,-0.7 2.25,-0.2 3.05,0.1 q 2,0.35 3.6,1.7 1.55,1.35 2.25,3.25 0.55,1.55 0.55,3.85 l -0.15,2.5 q -0.55,2.15 -2.25,3.5 l -0.95,0.9 q -0.35,0.55 -0.2,1.5 l 0.25,1.55 -0.1,1.8 0.6,-0.35 1.8,-1.45 q 2.6,-2.05 6.25,-2 3.6,0.1 6.15,2.25 2.15,1.85 3.65,5.4 0.95,2.3 1.15,4.1 0.35,2.3 -0.25,4.6 -0.6,2.3 -1.9,4.2 -1.35,1.9 -3.35,3.15 -2.05,1.3 -4.3,1.75 1.55,3.35 1.95,7.1 0.35,3.75 -0.5,7.35 -0.8,3.2 -2.5,5.8 -1.8,2.8 -4.35,4.45 -4,2.5 -9.85,2.4 -5.35,-0.25 -9.5,-2.45 -2.45,-1.25 -4.6,-3.45 -1.9,-1.75 -2.55,-3.55 -0.55,-1.35 -0.55,-4.75 0.05,-3.4 0.4,-5 l 1.85,-4.95 3.2,-7.05 M 8.3,10.6 8.15,10.2 6.95,6.65 5.85,4.2 Q 3.85,-0.45 4.2,-7.3 4.2,-8.1 3.9,-8.25 H 3 q -2.5,0.8 -5,-0.4 L -4.1,-9.9 q -1.3,-0.8 -2.2,-1.05 -2.15,-0.45 -3.8,0.9 l -0.3,0.4 q -0.1,0.45 0.75,0.85 0.8,0.5 1.6,1.75 l 0.75,1.65 1.25,3.25 q 0.55,1.85 0.55,3.4 L -5.6,2.3 q -0.25,1.65 -1.2,3.8 l -2.1,4.5 -0.75,1.85 -0.8,1.9 -1.2,3.4 -0.75,3.15 q -0.05,1.5 0.5,2.95 0.5,1.5 1.55,2.55 1.45,1.55 4.25,2.5 5.6,2.15 9.6,0.65 2.15,-0.8 3.8,-2.65 1.55,-1.75 2.3,-4 1.45,-4.25 -0.15,-9.2 L 8.3,10.6 m 3,-20.55 q -0.8,0.45 -1.05,0.8 -0.35,0.5 -0.35,1.65 0,2.85 0.25,4.75 0.4,2.65 1.95,6.1 2.55,0 4.4,-1.9 1.8,-2 1.6,-4.5 L 17.75,-5 q -0.85,-2.9 -2.55,-4.5 -1.15,-1 -2.15,-1 l -1.75,0.55"
         fill="#000000"
         fill-rule="evenodd"
         stroke="none"
         id="path1" />
      <path
         d="m -9.65,12.45 q 1.3,-0.6 3.65,-0.6 L -3.2,12 q 1.5,0.25 2.55,0.9 1.25,0.75 1.75,0.65 0.45,-0.05 1.1,-0.75 1.2,-1.1 2.2,-1.55 1.8,-1 3.9,-0.65 l 1.15,3.1 q 1.6,4.95 0.15,9.2 -0.75,2.25 -2.3,4 -1.65,1.85 -3.8,2.65 -4,1.5 -9.6,-0.65 -2.8,-0.95 -4.25,-2.5 -1.05,-1.05 -1.55,-2.55 -0.55,-1.45 -0.5,-2.95 l 0.75,-3.15 1.2,-3.4 0.8,-1.9"
         fill="#ded4a2"
         fill-rule="evenodd"
         stroke="none"
         id="path2" />
      <path
         d="m -4.85,-23.85 0.05,-0.5 0.15,-1.35 q 0.35,-1.65 1.3,-2.25 l 1.3,-0.3 1.35,-0.05 q 0.55,0.45 0.85,1.2 0.3,0.75 0.2,1.55 -0.1,0.8 -0.6,1.45 -0.55,0.65 -1.25,0.9 -1.65,0.7 -3,-0.35 l -0.35,-0.3 m -3.2,16.8 0.4,-0.35 q 0.65,-0.5 1.55,-0.55 1.1,-0.15 1.85,0.3 0.85,0.4 1.45,1.45 0.6,0.95 1.15,3.3 0.45,1.65 0.45,2.7 0,1.55 -1,2.45 -1,0.9 -2.3,0.55 -0.65,-0.1 -1.1,-0.5 l 0.1,-1.05 q 0,-1.55 -0.55,-3.4 L -7.3,-5.4 -8.05,-7.05"
         fill="#ffffff"
         fill-rule="evenodd"
         stroke="none"
         id="path3" />
      <path
         d="m -4.85,-23.85 0.35,0.3 q 1.35,1.05 3,0.35 0.7,-0.25 1.25,-0.9 0.5,-0.65 0.6,-1.45 0.1,-0.8 -0.2,-1.55 -0.3,-0.75 -0.85,-1.2 1.65,0 2.5,0.75 0.7,0.55 1.1,1.8 0.55,1.5 0.15,2.5 -0.25,0.7 -1.65,1.8 -1.3,1.05 -1.45,1.85 l 0.15,1.75 0.1,1.9 q 0,1.2 0.15,1.9 l 0.35,1.3 H 0.65 l -2,-1.55 -0.35,-0.25 v -0.2 l 0.2,-1.6 v -2.5 q 0.05,-2 -0.8,-2.8 l -1.5,-0.6 -1.3,-0.8 0.25,-0.8 m -3.2,16.8 q -0.8,-1.25 -1.6,-1.75 -0.85,-0.4 -0.75,-0.85 l 0.3,-0.4 q 1.65,-1.35 3.8,-0.9 0.9,0.25 2.2,1.05 l 2.1,1.25 q 2.5,1.2 5,0.4 H 3.9 Q 4.2,-8.1 4.2,-7.3 3.85,-0.45 5.85,4.2 l 1.1,2.45 1.2,3.55 0.15,0.4 Q 6.2,10.25 4.4,11.25 3.4,11.7 2.2,12.8 1.55,13.5 1.1,13.55 0.6,13.65 -0.65,12.9 -1.7,12.25 -3.2,12 L -6,11.85 q -2.35,0 -3.65,0.6 L -8.9,10.6 -6.8,6.1 q 0.95,-2.15 1.2,-3.8 0.45,0.4 1.1,0.5 1.3,0.35 2.3,-0.55 1,-0.9 1,-2.45 0,-1.05 -0.45,-2.7 Q -2.2,-5.25 -2.8,-6.2 -3.4,-7.25 -4.25,-7.65 -5,-8.1 -6.1,-7.95 -7,-7.9 -7.65,-7.4 l -0.4,0.35"
         fill="#ffffff"
         fill-opacity="0"
         fill-rule="evenodd"
         stroke="none"
         id="path4" />
    </g>
    <g
       id="sprite1"
       transform="translate(17.4,15.85)">
      <use
         ffdec:characterId="31"
         height="57.200001"
         transform="matrix(0.5366,0,0,0.5366,-16.6582,-14.546)"
         width="70.75"
         xlink:href="#sprite2"
         id="use4" />
    </g>
    <g
       id="sprite2"
       transform="translate(-8.65,-10.35)">
      <use
         ffdec:characterId="30"
         height="57.200001"
         transform="translate(8.65,10.35)"
         width="70.75"
         xlink:href="#shape1"
         id="use5" />
    </g>
    <g
       id="shape1"
       transform="translate(-8.65,-10.35)">
      <path
         d="m 14.8,41.7 q 0.65,-1.75 2.65,-2.5 1.8,-0.8 3.7,-0.25 1.15,0.45 2.25,1.2 l 0.9,0.4 q 1.65,0.9 2.85,2.5 L 37.8,30.1 q 2.35,-2.8 3.75,-3.95 1.5,-1.15 4.25,-2.4 18.2,-8.85 27.65,-12.6 2.15,-0.8 3.25,-0.8 h 0.8 l 1.9,2.4 -0.2,0.8 q -0.2,1.1 -1.55,3 -5.85,8.25 -18.85,23.8 -1.85,2.35 -3.35,3.5 -1.4,1.15 -4.75,2.75 l -15.15,7.15 q 1.2,1.6 1.75,3.4 l 0.2,1 0.55,2.5 q 0.1,1.95 -1.1,3.55 -1.2,1.65 -3.05,1.9 l -1.3,0.05 q -1.65,0.2 -3.45,-0.65 -1.85,-0.9 -3,-2.6 L 25,60.95 23.8,62.1 q -2.6,2.85 -4.3,3.95 -2.85,1.8 -5.5,1.45 l -1.65,-0.5 -1.2,-0.7 -0.2,-0.2 q -1,-0.85 -1.6,-1.9 L 9.25,64 9.15,63.8 8.75,62.4 q -0.2,-0.8 -0.05,-1.7 0.25,-2.65 2.7,-5.05 1.5,-1.3 4.9,-3.15 L 17.7,51.55 16.05,50 q -1.35,-1.5 -1.8,-3.6 -0.4,-1.85 0.25,-3.45 l 0.3,-1.25"
         fill="#000000"
         fill-opacity="0.372549"
         fill-rule="evenodd"
         stroke="none"
         id="path5" />
    </g>
  </defs>
</svg>
