<?xml version="1.0" encoding="UTF-8" standalone="no"?>
<svg
   ffdec:objectType="frame"
   height="72.891945"
   width="76.829933"
   version="1.1"
   id="svg5"
   xmlns:xlink="http://www.w3.org/1999/xlink"
   xmlns="http://www.w3.org/2000/svg"
   xmlns:svg="http://www.w3.org/2000/svg"
   xmlns:ffdec="https://www.free-decompiler.com/flash">
  <g
     transform="translate(41.823684,34.15)"
     id="g1">
    <use
       ffdec:characterId="17"
       height="119.15"
       id="rarity"
       transform="translate(-58.5,-60.65)"
       width="119.15"
       xlink:href="#sprite0" />
    <use
       ffdec:characterId="461"
       height="72.900002"
       transform="translate(-41.8,-34.15)"
       width="76.800003"
       xlink:href="#shape0"
       id="use1" />
  </g>
  <defs
     id="defs5">
    <g
       id="shape0"
       transform="translate(41.4,33.35)">
      <path
         d="m -1,-15.15 q 0.5,-2.75 2.25,-5.4 1.15,-1.7 1.75,-3.7 v -0.85 l 0.2,-1.05 0.2,-0.65 -0.2,-0.45 -0.15,-0.65 -0.1,-0.4 -0.3,-0.15 -1.15,0.15 q -2.9,4.75 -5.25,9.9 l -0.4,0.4 -0.45,-0.05 q -3.05,-1 -4.1,-4.25 -0.6,-2.05 -2.6,-2.95 l -1.05,-0.2 h -0.3 -0.15 l -0.75,0.25 q -0.7,0.25 -1.25,0.8 l -0.4,0.45 q 0.2,1.85 0.9,3.65 0.6,1.5 1.6,2.95 l 0.65,0.95 q 0.4,0.5 -0.15,1.05 -2.2,2.4 -4.55,-0.05 l -0.8,-0.9 q -2.25,0.55 -3.95,2.35 -0.4,0.4 -0.45,1 l 0.05,0.2 0.05,0.25 0.05,0.2 1.7,1 3.95,-1.5 0.35,0.05 1,0.2 0.45,0.1 0.45,0.2 0.35,0.2 0.2,0.15 0.05,0.25 v 0.2 0.2 l -0.05,0.25 -0.15,0.2 -1.4,0.6 q -7.6,3.2 -12.8,9.65 -2.3,2.8 -4.05,5.9 -2.2,3.8 -3.65,8 0.1,0.9 -0.1,1.75 l -0.55,3.2 q -0.3,2.55 0.25,5.15 l 0.05,0.65 q 0.5,1.4 1.45,2.45 3.05,3.45 7.7,4.65 1.1,0.3 2.1,0.9 19.4,3 38.7,0.4 1.15,-0.15 2.25,-0.7 13.2,-6.7 14.25,-21.15 V 10 9.35 L 30.65,8.1 V 6.6 5.5 L 30.1,3.15 Q 29.75,0.6 28.4,-1.55 L 25.5,-6.1 q -5.15,-5.3 -12.1,-6.55 l -5,-0.4 -6.85,0.35 q -1.25,0.1 -1.75,-0.7 l -0.55,-0.15 -0.3,-0.2 -0.15,-0.2 0.2,-1.2 m 7.3,-3.5 q 14.55,-0.7 23.35,10.2 3.95,4.9 5.2,10.9 l 0.5,2.75 q 0.15,3.05 -0.1,6 Q 35,14.25 34.2,17.25 33.5,23.85 28.85,29 21,37.75 9.5,38.95 q -20.35,2.1 -39.65,-3.25 -8.45,-2.4 -10.6,-10.55 -0.55,-2.05 -0.65,-4.2 -0.3,-7.6 3.2,-14.25 l 2.15,-3.6 q 1.55,-2.3 3.55,-4.25 1.7,-2.5 3.95,-4.55 l 4.25,-3.3 -0.6,-0.55 q -0.95,-0.85 -1.05,-2.25 -0.3,-5.1 4.65,-7 0.95,-0.15 1.8,-0.45 l 0.2,-0.05 q -0.7,-1.9 -0.7,-4 0,-4.75 4.7,-6.35 6.25,-2.2 9.85,3.2 l 0.6,0.85 q 1.1,-3.2 3.55,-5.6 1.4,-1.35 3.25,-1.5 6.6,1.65 5,8.55 -0.75,3.1 -2.3,5.8 l 1.65,-0.3 m -18.45,32.25 2.6,3.55 q -3.7,-1.3 -5.45,-3.6 -1.4,-1.85 -1.55,-4.25 -0.1,-2 0.65,-4.4 0.2,-0.8 0.75,-1.5 2.05,-2.9 5.15,-4.55 -3,0.45 -4.5,-1.8 -0.05,-1.35 0.25,-2.55 0.65,-3.05 3.25,-5.25 l 0.7,-0.55 q 1.5,-1.1 3.25,-1.6 l 0.55,0.2 0.2,0.1 0.1,0.1 0.2,0.4 0.1,0.45 -0.05,0.2 -0.1,0.25 -0.1,0.2 q -2.6,1.45 -4.15,3.95 l -0.35,0.6 -0.65,1.65 q 5.2,-0.25 5.75,4.05 l -0.1,0.6 Q -9.85,2 -12.8,5.45 l -0.6,0.85 q -0.5,1.6 -0.4,3.05 0.15,2 1.35,3.8 l 0.3,0.45"
         fill="#000000"
         fill-rule="evenodd"
         stroke="none"
         id="path1" />
      <path
         d="m -4.15,-18 q 0.45,1.85 -0.35,3.4 l 3.5,-0.55 -0.2,1.2 0.15,0.2 0.3,0.2 0.55,0.15 q 0.5,0.8 1.75,0.7 l 6.85,-0.35 5,0.4 q 2.1,1.7 3.65,4.35 1.4,2.4 0.55,4.95 L 17.25,-2 v -0.15 l -0.05,-0.2 -0.2,-0.2 -0.6,-0.4 q -0.8,0.3 -1.6,1 L 11.6,0.6 7.65,-6 7.25,-6.15 6.7,-5.9 6.3,-5.5 Q 6.8,-3.25 8,-1.15 L 9.7,1.8 9.05,2.15 Q 4.95,4.4 4,8 5.5,8.25 7.05,7.35 L 11.2,4.5 12.1,6 Q 10,7.75 7.2,9.05 q -9.55,4.4 -19.35,4.55 l -0.3,-0.45 q -1.2,-1.8 -1.35,-3.8 -0.1,-1.45 0.4,-3.05 l 0.6,-0.85 Q -9.85,2 -5.65,-0.15 l 0.1,-0.6 Q -6.1,-5.05 -11.3,-4.8 l 0.65,-1.65 0.35,-0.6 q 1.55,-2.5 4.15,-3.95 l 0.1,-0.2 0.1,-0.25 0.05,-0.2 -0.1,-0.45 -0.2,-0.4 -0.1,-0.1 -0.2,-0.1 -0.55,-0.2 q -1.75,0.5 -3.25,1.6 l -0.7,0.55 q -2.6,2.2 -3.25,5.25 -0.3,1.2 -0.25,2.55 1.5,2.25 4.5,1.8 -3.1,1.65 -5.15,4.55 -0.55,0.7 -0.75,1.5 -0.75,2.4 -0.65,4.4 0.15,2.4 1.55,4.25 l -7.8,-1 1,-1.45 -0.25,-0.4 -0.45,-0.5 -0.5,-0.15 -0.1,-0.05 -0.8,0.15 -0.9,0.2 q -0.1,-3.4 -0.7,-6.65 l -0.45,-0.15 -0.45,0.2 -0.25,0.2 -0.65,4.25 -0.25,2.95 -0.2,0.1 -0.75,-0.45 q -3.1,-2.3 -3.25,-5.45 1.75,-3.1 4.05,-5.9 5.2,-6.45 12.8,-9.65 l 1.4,-0.6 0.15,-0.2 0.05,-0.25 v -0.2 -0.2 l -0.05,-0.25 -0.2,-0.15 -0.35,-0.2 -0.45,-0.2 -0.45,-0.1 -1,-0.2 -0.35,-0.05 -3.95,1.5 -1.7,-1 -0.05,-0.2 -0.05,-0.25 -0.05,-0.2 q 0.05,-0.6 0.45,-1 1.7,-1.8 3.95,-2.35 l 0.8,0.9 q 2.35,2.45 4.55,0.05 0.55,-0.55 0.15,-1.05 l -0.65,-0.95 q -1,-1.45 -1.6,-2.95 -0.7,-1.8 -0.9,-3.65 l 0.4,-0.45 q 0.55,-0.55 1.25,-0.8 l 0.75,-0.25 h 0.15 0.3 l 1.05,0.2 q 2,0.9 2.6,2.95 1.05,3.25 4.1,4.25 L -4.15,-18 M 17,-1.25 q -1.15,3.2 -3.3,5.7 L 12.95,3.05 17,-1.25 m -28.35,9.35 -0.6,0.35 q -0.25,0.3 -0.1,0.65 l 0.1,0.15 1.15,0.05 0.1,-0.45 q 0,-0.6 -0.65,-0.75"
         fill="#e5e5e5"
         fill-rule="evenodd"
         stroke="none"
         id="path2" />
      <path
         d="m -4.15,-18 0.4,-0.4 q 2.35,-5.15 5.25,-9.9 l 1.15,-0.15 0.3,0.15 0.1,0.4 0.15,0.65 0.2,0.45 -0.2,0.65 -0.2,1.05 v 0.85 q -0.6,2 -1.75,3.7 -1.75,2.65 -2.25,5.4 l -3.5,0.55 q 0.8,-1.55 0.35,-3.4 m 17.55,5.35 q 6.95,1.25 12.1,6.55 l 2.9,4.55 q 1.35,2.15 1.7,4.7 L 30.65,5.5 V 6.6 8.1 L 30.7,9.35 V 10 10.65 Q 29.65,25.1 16.45,31.8 q -1.1,0.55 -2.25,0.7 -19.3,2.6 -38.7,-0.4 -1,-0.6 -2.1,-0.9 -4.65,-1.2 -7.7,-4.65 -0.95,-1.05 -1.45,-2.45 l -0.05,-0.65 q -0.55,-2.6 -0.25,-5.15 l 0.55,-3.2 q 0.2,-0.85 0.1,-1.75 1.45,-4.2 3.65,-8 0.15,3.15 3.25,5.45 l 0.75,0.45 q -2.7,0.95 -5.05,2.55 l -0.1,0.2 -0.05,0.25 -0.05,0.2 2.4,0.35 3,-0.4 q -0.05,3.25 0.3,6.5 l 0.5,0.85 0.2,0.85 0.5,0.35 0.3,0.05 q 0.4,-0.2 0.55,-0.6 l 0.1,-0.65 -0.2,-0.65 -0.15,-0.65 0.4,-4.05 0.25,-2.55 q 1.2,-0.5 2.05,-1.3 l 7.8,1 q 1.75,2.3 5.45,3.6 l -2.6,-3.55 Q -2.35,13.45 7.2,9.05 10,7.75 12.1,6 l 2.95,5 0.45,-0.15 0.2,-0.15 0.35,-1.05 V 8.8 L 14.1,5.25 13.7,4.45 q 2.15,-2.5 3.3,-5.7 l 0.2,-0.25 0.05,-0.2 V -2 L 17.6,-3.35 Q 18.45,-5.9 17.05,-8.3 15.5,-10.95 13.4,-12.65 M 23.55,8.85 22.95,9.1 Q 22.6,9.35 22.5,9.7 l -0.05,0.25 0.05,0.4 0.05,0.25 0.2,0.2 q 0.65,0.6 1.35,0.15 L 24.35,10.7 24.6,10.3 V 10.1 9.85 L 24.45,9.45 24.35,9.2 24.05,9.05 23.55,8.85 M 10.1,18.1 q -0.35,0.05 -0.55,0.4 l -0.5,1 -0.9,1.15 -1.45,2.2 Q 4.85,21.6 2.65,21.25 1.85,21.75 2.8,22.6 l 2.55,1.95 -0.7,0.75 v 0.2 L 4.6,25.75 v 0.2 l -0.35,0.7 -0.35,1 0.15,0.65 0.05,0.35 0.2,-0.1 0.65,-0.45 0.4,-0.4 q 0.75,-0.65 1.1,-1.55 l 0.6,-0.6 0.35,0.3 1,0.9 0.9,0.05 0.1,-0.05 0.3,-0.4 0.1,-0.6 -1.4,-1.6 -0.1,-0.1 q 1.6,-2.3 2.5,-4.95 L 10.75,18.65 Q 10.6,18.2 10.1,18.1 m -18.3,6.3 -0.5,0.1 -0.2,0.05 -0.8,0.55 -0.3,0.45 v 1.25 q 0.15,0.7 0.7,1.1 l 1.1,0.25 0.7,-0.05 q 0.9,-0.5 1.05,-1.45 0.2,-0.95 -0.4,-1.7 L -7.15,24.8 -8.2,24.4"
         fill="#d2d2d2"
         fill-rule="evenodd"
         stroke="none"
         id="path3" />
      <path
         d="m 21.25,-33.35 0.45,0.15 0.2,0.25 0.2,0.4 q -0.75,2.65 -1.95,5.1 l 0.65,0.4 1.2,1.35 -0.1,0.45 -0.25,0.4 -0.25,0.25 q -1.25,-0.3 -2.4,-0.9 l -0.3,0.45 -1.65,2.15 q -0.55,0.2 -0.85,-0.3 l -0.15,-0.4 1.25,-2.9 -0.65,-0.5 q -0.8,-0.6 -1.2,-1.4 v -0.2 l 0.05,-0.2 0.2,-0.45 0.55,-0.3 0.35,-0.15 0.3,0.05 0.5,0.1 0.9,0.75 1.15,-2.65 q 0.6,-1.4 1.8,-1.9 M 12.1,6 11.2,4.5 7.05,7.35 Q 5.5,8.25 4,8 4.95,4.4 9.05,2.15 L 9.7,1.8 8,-1.15 Q 6.8,-3.25 6.3,-5.5 l 0.4,-0.4 0.55,-0.25 0.4,0.15 3.95,6.6 3.2,-2.55 q 0.8,-0.7 1.6,-1 l 0.6,0.4 0.2,0.2 0.05,0.2 V -2 -1.7 l -0.05,0.2 -0.2,0.25 -4.05,4.3 0.75,1.4 0.4,0.8 1.95,3.55 V 9.65 L 15.7,10.7 15.5,10.85 15.05,11 12.1,6 m -34.9,6.55 q -0.85,0.8 -2.05,1.3 l -0.25,2.55 -0.4,4.05 0.15,0.65 0.2,0.65 -0.1,0.65 q -0.15,0.4 -0.55,0.6 l -0.3,-0.05 -0.5,-0.35 -0.2,-0.85 -0.5,-0.85 q -0.35,-3.25 -0.3,-6.5 l -3,0.4 -2.4,-0.35 0.05,-0.2 0.05,-0.25 0.1,-0.2 q 2.35,-1.6 5.05,-2.55 l 0.2,-0.1 0.25,-2.95 0.65,-4.25 0.25,-0.2 0.45,-0.2 0.45,0.15 q 0.6,3.25 0.7,6.65 l 0.9,-0.2 0.8,-0.15 0.1,0.05 0.5,0.15 0.45,0.5 0.25,0.4 -1,1.45 m 46.35,-3.7 0.5,0.2 0.3,0.15 0.1,0.25 0.15,0.4 v 0.25 0.2 l -0.25,0.4 -0.25,0.25 Q 23.4,11.4 22.75,10.8 L 22.55,10.6 22.5,10.35 22.45,9.95 22.5,9.7 q 0.1,-0.35 0.45,-0.6 l 0.6,-0.25 M 10.1,18.1 q 0.5,0.1 0.65,0.55 l 0.05,0.45 q -0.9,2.65 -2.5,4.95 l 0.1,0.1 1.4,1.6 -0.1,0.6 -0.3,0.4 -0.1,0.05 -0.9,-0.05 -1,-0.9 -0.35,-0.3 -0.6,0.6 Q 6.1,27.05 5.35,27.7 L 4.95,28.1 4.3,28.55 4.1,28.65 4.05,28.3 3.9,27.65 l 0.35,-1 0.35,-0.7 v -0.2 L 4.65,25.5 V 25.3 L 5.35,24.55 2.8,22.6 q -0.95,-0.85 -0.15,-1.35 2.2,0.35 4.05,1.6 l 1.45,-2.2 0.9,-1.15 0.5,-1 q 0.2,-0.35 0.55,-0.4 m -43.4,-45.65 0.75,0.4 0.25,0.2 0.05,0.2 0.1,0.45 v 0.2 l -0.1,0.2 -0.25,0.45 -0.15,0.2 0.1,4.3 2.6,-0.35 0.95,-0.65 0.25,-0.15 0.25,-0.05 0.35,-0.05 v -0.05 l 0.7,0.4 0.15,0.2 0.05,0.2 v 0.4 l -0.05,0.25 q -2.4,1.8 -5.25,2.6 l -0.1,3.25 q -0.1,2.1 -0.75,4.1 l -0.3,0.15 -0.4,0.2 -0.05,-0.05 -0.5,-0.1 q -1.3,-3.35 -1.15,-7 h -0.45 q -1.15,0.05 -1.9,0.9 l -0.3,0.05 -0.45,-0.1 -0.1,-0.25 -0.25,-0.4 -0.05,-0.2 q 0.1,-1.05 0.85,-1.75 l 0.65,-0.55 2.25,-0.45 q 0.2,-1.55 0.1,-3.1 -0.15,-2.2 1.3,-3.7 l 0.3,-0.15 0.55,-0.2 M -11.35,8.1 q 0.65,0.15 0.65,0.75 l -0.1,0.45 -1.15,-0.05 -0.1,-0.15 q -0.15,-0.35 0.1,-0.65 l 0.6,-0.35 m 3.15,16.3 1.05,0.4 0.3,0.15 q 0.6,0.75 0.4,1.7 Q -6.6,27.6 -7.5,28.1 L -8.2,28.15 -9.3,27.9 Q -9.85,27.5 -10,26.8 v -1.25 l 0.3,-0.45 0.8,-0.55 0.2,-0.05 0.5,-0.1"
         fill="#ffffff"
         fill-rule="evenodd"
         stroke="none"
         id="path4" />
    </g>
    <g
       id="sprite1"
       transform="translate(17.4,15.85)">
      <use
         ffdec:characterId="31"
         height="57.200001"
         transform="matrix(0.5366,0,0,0.5366,-16.6582,-14.546)"
         width="70.75"
         xlink:href="#sprite2"
         id="use4" />
    </g>
    <g
       id="sprite2"
       transform="translate(-8.65,-10.35)">
      <use
         ffdec:characterId="30"
         height="57.200001"
         transform="translate(8.65,10.35)"
         width="70.75"
         xlink:href="#shape1"
         id="use5" />
    </g>
    <g
       id="shape1"
       transform="translate(-8.65,-10.35)">
      <path
         d="m 14.8,41.7 q 0.65,-1.75 2.65,-2.5 1.8,-0.8 3.7,-0.25 1.15,0.45 2.25,1.2 l 0.9,0.4 q 1.65,0.9 2.85,2.5 L 37.8,30.1 q 2.35,-2.8 3.75,-3.95 1.5,-1.15 4.25,-2.4 18.2,-8.85 27.65,-12.6 2.15,-0.8 3.25,-0.8 h 0.8 l 1.9,2.4 -0.2,0.8 q -0.2,1.1 -1.55,3 -5.85,8.25 -18.85,23.8 -1.85,2.35 -3.35,3.5 -1.4,1.15 -4.75,2.75 l -15.15,7.15 q 1.2,1.6 1.75,3.4 l 0.2,1 0.55,2.5 q 0.1,1.95 -1.1,3.55 -1.2,1.65 -3.05,1.9 l -1.3,0.05 q -1.65,0.2 -3.45,-0.65 -1.85,-0.9 -3,-2.6 L 25,60.95 23.8,62.1 q -2.6,2.85 -4.3,3.95 -2.85,1.8 -5.5,1.45 l -1.65,-0.5 -1.2,-0.7 -0.2,-0.2 q -1,-0.85 -1.6,-1.9 L 9.25,64 9.15,63.8 8.75,62.4 q -0.2,-0.8 -0.05,-1.7 0.25,-2.65 2.7,-5.05 1.5,-1.3 4.9,-3.15 L 17.7,51.55 16.05,50 q -1.35,-1.5 -1.8,-3.6 -0.4,-1.85 0.25,-3.45 l 0.3,-1.25"
         fill="#000000"
         fill-opacity="0.372549"
         fill-rule="evenodd"
         stroke="none"
         id="path5" />
    </g>
  </defs>
</svg>
