<?xml version="1.0" encoding="UTF-8" standalone="no"?>
<svg
   ffdec:objectType="frame"
   height="73.424072"
   width="90.349998"
   version="1.1"
   id="svg6"
   xmlns:xlink="http://www.w3.org/1999/xlink"
   xmlns="http://www.w3.org/2000/svg"
   xmlns:svg="http://www.w3.org/2000/svg"
   xmlns:ffdec="https://www.free-decompiler.com/flash">
  <g
     transform="translate(45.55,49.9)"
     id="g1">
    <use
       ffdec:characterId="17"
       height="119.15"
       id="rarity"
       transform="translate(-58.5,-60.65)"
       width="119.15"
       xlink:href="#sprite0" />
    <use
       ffdec:characterId="1330"
       height="73.400002"
       transform="translate(-45.55,-49.9)"
       width="90.349998"
       xlink:href="#shape0"
       id="use1" />
  </g>
  <defs
     id="defs6">
    <g
       id="shape0"
       transform="translate(44.25,48)">
      <path
         d="m 28.9,-27.65 q -1.4,-0.7 -1.9,-1.35 -0.55,-0.75 -0.55,-2.05 l 0.15,-2.3 0.1,-2.85 q 0.1,-2.35 0.7,-4.8 0.4,-1.8 1.35,-2.4 l 1.85,-0.75 1.3,-0.95 2.2,-1.1 3.1,-1.35 1.9,-0.45 1.5,0.5 1.35,0.95 2.2,1.3 q 1.2,0.85 1.65,1.8 0.6,1.3 0,4.15 -0.55,2.6 -0.8,5.85 l -0.35,2.3 q -0.35,1.35 -1.25,1.9 -0.5,0.4 -1.8,0.7 -2.55,0.65 -4.95,2.05 -1.7,0.95 -2.5,1 -0.85,0.05 -2.45,-0.75 l -2.8,-1.4 m 5.5,-13.3 -0.65,0.1 h -0.1 l -1.85,0.7 -0.05,0.05 -0.05,0.45 -0.35,2.55 q -0.1,0.6 -0.05,2.15 l -0.15,2.15 v 0.25 q 0.05,0.2 0.4,0.3 l 1.05,0.4 0.8,0.45 q 0.5,0.3 0.85,0.25 0.3,0 0.8,-0.3 l 4.85,-2.05 0.35,-0.25 0.05,-0.4 0.4,-2.9 0.05,-1.35 0.4,-1.35 v -0.9 l -0.05,-0.5 -0.35,-0.25 -1.4,-0.8 -0.7,-0.25 -0.7,0.25 q -1.6,0.95 -3.55,1.25 m -61.2,63.4 q -5,-1.7 -7,-4.15 -1.6,-1.95 -2.2,-5.15 -0.35,-2 -0.4,-5.75 l -0.1,-6.5 q 0,-2.9 0.45,-4.2 0.45,-1.25 1.6,-2.55 l 2.2,-2.1 q 2.95,-2.65 4.15,-4.8 0.95,-1.55 1.9,-4.5 l 1.45,-4.55 0.55,-1.85 -0.1,-3.45 q 0.1,-3.5 1.75,-5.15 l 0.85,-0.65 1,-1.15 q 3.65,-3.25 9.2,-6.85 1,-0.65 1.55,-0.75 l 0.2,-0.05 1.75,-0.5 4.95,0.25 q 4.25,0.9 9.4,3.2 4.9,2.1 8.8,4.45 3.65,2.1 5.25,4 l 1.85,2.8 1.6,2.95 q 3.1,5.6 7.5,8.5 l 2,1.6 q 0.6,0.85 0.7,2.4 v 2.7 l 0.7,4 q 0.45,2.35 -0.1,3.8 l -1,1.7 -1.2,1.65 -1.25,2.8 q -1.4,3.35 -3.45,5.05 l -2.1,1.35 -2.2,1.15 -3.8,3.05 -3.4,3.55 Q 11.9,23.2 8.3,24.3 l -4.8,0.65 q -11.1,0.8 -17.1,0.25 -6.65,-0.5 -13.2,-2.75 M 23.7,-16.3 q -2.15,-2.25 -3.7,-4.9 l -1.65,-3 -2.05,-2.75 -3.55,-2.5 -0.6,-0.35 Q 5.1,-33.7 -2.7,-35.7 l -4.7,-0.35 -0.5,0.2 -6.25,5.2 -0.85,1 q -0.95,1.3 -1.75,3.25 -0.95,2 -1.7,4.8 l -0.1,0.5 -0.6,2.1 -0.85,3.05 q -1.2,4 -2.25,5.9 -0.85,1.55 -2.25,3.25 l -3.4,3.5 q -1.45,1.25 -1.9,2.25 -0.35,0.9 -0.35,2.45 v 0.35 l 0.25,8.65 q 0.3,2.75 1.25,3.85 l 1.7,1.25 2,0.75 q 5.75,1.8 9.75,2.45 l 2.9,0.35 h 4.95 1.5 l 8.4,-0.25 4.4,-0.6 q 1.75,-0.6 3.9,-2.55 l 4.8,-4.9 Q 18.55,7.8 20.9,6.5 l 2.05,-1.05 1.8,-1.4 q 0.75,-0.9 1.45,-3 0.7,-2.2 1.3,-3.05 l 0.8,-1 q 0.45,-0.6 0.55,-1.15 L 28.6,-6 q -0.4,-1.9 -0.4,-3.75 l -0.25,-2.4 q -0.3,-0.65 -1.6,-1.7 L 23.7,-16.3 m -9.75,-2.85 q 1.1,-0.65 2.5,-0.4 l 0.35,0.1 q 1.1,0.25 1.85,1.15 0.85,1 0.9,2.4 0.05,1.25 -0.6,2.25 l -0.15,0.2 q -0.7,0.95 -1.9,1.35 -1.25,0.35 -2.35,0 -1,-0.4 -1.55,-1.1 -1.25,-1.35 -0.95,-3.2 0.25,-1.85 1.9,-2.75 M -1.75,4.6 -5.1,4.1 -7.2,3.1 Q -9,2 -9.75,0.5 q -1,-1.85 -0.25,-3.55 0.75,-1.5 3.4,-2.8 l 10.25,-5.1 1.05,-0.45 2.1,0.05 q 1.05,0.3 1.75,1.15 l 0.8,1.7 q 1,3.45 -0.95,7.3 L 7.4,0.4 6.3,1.55 4.5,2.95 Q 3.05,3.9 1.75,4.3 l -3.5,0.3 M 4.9,-6.05 4.5,-5.95 3.15,-5.3 -1.3,-3.35 -3.8,-2.2 -5.25,-1.55 q 1.75,0.95 2.5,1.1 L 0.4,-0.5 1.05,-0.8 q 2.4,-1.5 3.1,-2.85 0.45,-0.85 0.75,-2.4 m -48.4,-16.2 0.7,-3.05 0.45,-1.45 q 0.65,-1.15 2.65,-1.7 2.9,-0.9 6,-0.65 1.55,0.2 2.1,0.85 0.25,0.35 0.35,1.05 l 0.3,1 0.2,1.8 0.3,1.15 0.2,3.95 v 0.2 q 0.5,1.25 -0.35,2.25 l -1.2,0.9 -1.65,1.35 -1.8,1.1 -3.05,-0.05 -1.65,-1.05 -1.6,-1.1 -1.3,-0.5 q -0.75,-0.35 -1.1,-0.85 -0.3,-0.45 -0.3,-1.85 l 0.2,-1.8 0.55,-1.55 m 7.05,3.75 0.75,-0.6 0.7,-0.7 0.6,-0.35 0.05,-0.55 -0.45,-4 -3,0.35 -0.55,0.3 -0.2,0.65 q -0.35,1.95 -1,3.35 l 1.1,0.7 1.1,0.7 0.9,0.15 M -23.3,4.25 q -0.9,-0.7 -1.3,-1.7 -0.35,-1 -0.1,-2 L -24.55,0 q 0.5,-1.35 1.65,-2 1.15,-0.65 2.55,-0.35 1.4,0.3 2.2,1.35 0.8,1.1 0.7,2.5 -0.1,1.4 -1.05,2.35 -0.95,0.95 -2.35,1.05 -1.35,0.15 -2.35,-0.6 l -0.1,-0.05"
         fill="#000000"
         fill-rule="evenodd"
         stroke="none"
         id="path1" />
      <path
         d="m 34.4,-40.95 q 1.95,-0.3 3.55,-1.25 l 0.7,-0.25 0.7,0.25 1.4,0.8 0.35,0.25 0.05,0.5 v 0.9 l -0.4,1.35 -0.05,1.35 -0.4,2.9 -0.05,0.4 -0.35,0.25 -4.85,2.05 q -0.5,0.3 -0.8,0.3 -0.35,0.05 -0.85,-0.25 l -0.8,-0.45 -1.05,-0.4 q -0.35,-0.1 -0.4,-0.3 v -0.25 l 0.15,-2.15 q -0.05,-1.55 0.05,-2.15 l 0.35,-2.55 0.05,-0.45 0.05,-0.05 1.85,-0.7 h 0.1 l 0.65,-0.1 m -51.15,14.55 q 0.8,-1.95 1.75,-3.25 l 0.85,-1 6.25,-5.2 0.5,-0.2 4.7,0.35 q 7.8,2 14.85,5.9 l 0.6,0.35 3.55,2.5 2.05,2.75 1.65,3 q 1.55,2.65 3.7,4.9 l 0.2,0.5 0.7,2.25 q 0.05,0.9 -0.3,2.25 l -0.65,2.2 -0.25,1.95 q -1,-1.15 -3.05,-1.5 -1.25,-0.25 -2.1,0 H 18.2 q -1.4,0.35 -2.35,1.8 -1.25,1.75 -0.75,3.45 0.15,0.5 0.4,0.9 l 0.4,0.55 q 1.6,2 3.95,2 h 0.55 l -1.2,1.5 -1.4,2.35 -1.6,2.15 -3.85,2.7 -3.1,2.2 L 6,12.9 q -1.85,0.8 -4.35,1.2 l -4.55,0.4 -1.6,0.15 -0.3,-1.15 q -0.3,-1 -1.1,-1.7 l -1.6,-0.85 q -1.8,-0.6 -3.8,0 -1.8,0.6 -3.15,2.1 l -1.05,1.65 q -4.3,-0.65 -7.35,-2.45 -2.8,-1.65 -4.7,-4.35 Q -29.45,5.2 -30.1,2 L -30.15,1.75 V 1.4 q 0,-1.55 0.35,-2.45 0.45,-1 1.9,-2.25 l 3.4,-3.5 q 1.4,-1.7 2.25,-3.25 1.05,-1.9 2.25,-5.9 l 2.05,0.5 2.35,-0.15 q 1.6,-0.4 2.7,-1.65 1.55,-1.6 1.6,-3.5 l -0.05,-1.35 -0.15,-0.95 -0.6,-1.2 -1,-1 -1.4,-0.85 -1.8,-0.35 -0.45,0.05 m 15,31 3.5,-0.3 Q 3.05,3.9 4.5,2.95 l 1.8,-1.4 1.1,-1.15 1,-1.6 q 1.95,-3.85 0.95,-7.3 l -0.8,-1.7 q -0.7,-0.85 -1.75,-1.15 l -2.1,-0.05 -1.05,0.45 -10.25,5.1 q -2.65,1.3 -3.4,2.8 -0.75,1.7 0.25,3.55 Q -9,2 -7.2,3.1 l 2.1,1 3.35,0.5 m 15.7,-23.75 q -1.65,0.9 -1.9,2.75 -0.3,1.85 0.95,3.2 0.55,0.7 1.55,1.1 1.1,0.35 2.35,0 1.2,-0.4 1.9,-1.35 l 0.15,-0.2 q 0.65,-1 0.6,-2.25 -0.05,-1.4 -0.9,-2.4 -0.75,-0.9 -1.85,-1.15 l -0.35,-0.1 q -1.4,-0.25 -2.5,0.4 m -37.25,23.4 0.1,0.05 q 1,0.75 2.35,0.6 1.4,-0.1 2.35,-1.05 0.95,-0.95 1.05,-2.35 0.1,-1.4 -0.7,-2.5 -0.8,-1.05 -2.2,-1.35 -1.4,-0.3 -2.55,0.35 -1.15,0.65 -1.65,2 l -0.15,0.55 q -0.25,1 0.1,2 0.4,1 1.3,1.7 m -13.15,-22.75 -0.9,-0.15 -1.1,-0.7 -1.1,-0.7 q 0.65,-1.4 1,-3.35 l 0.2,-0.65 0.55,-0.3 3,-0.35 0.45,4 -0.05,0.55 -0.6,0.35 -0.7,0.7 -0.75,0.6"
         fill="#a0a0a0"
         fill-rule="evenodd"
         stroke="none"
         id="path2" />
      <path
         d="m -16.75,-26.4 0.45,-0.05 1.8,0.35 1.4,0.85 1,1 0.6,1.2 0.15,0.95 0.05,1.35 q -0.05,1.9 -1.6,3.5 -1.1,1.25 -2.7,1.65 l -2.35,0.15 -2.05,-0.5 0.85,-3.05 0.6,-2.1 0.1,-0.5 q 0.75,-2.8 1.7,-4.8 m 1.25,41.1 1.05,-1.65 q 1.35,-1.5 3.15,-2.1 2,-0.6 3.8,0 l 1.6,0.85 q 0.8,0.7 1.1,1.7 l 0.3,1.15 q 0.15,0.85 -0.05,1.75 -0.3,1.5 -1.3,2.6 v 0.05 h -1.5 -4.95 l -2.9,-0.35 -0.45,-0.9 q -0.25,-0.85 -0.15,-1.7 l 0.25,-1.3 0.05,-0.1 M 20.4,0.05 h -0.55 q -2.35,0 -3.95,-2 L 15.5,-2.5 q -0.25,-0.4 -0.4,-0.9 -0.5,-1.7 0.75,-3.45 0.95,-1.45 2.35,-1.8 h 0.05 q 0.85,-0.25 2.1,0 2.05,0.35 3.05,1.5 l 0.25,0.35 0.65,1.75 0.1,1.1 q 0,1.1 -0.6,2 -1.2,1.9 -3.4,2"
         fill="#454545"
         fill-rule="evenodd"
         stroke="none"
         id="path3" />
      <path
         d="M -30.15,1.75 -30.1,2 q 0.65,3.2 2.55,5.9 1.9,2.7 4.7,4.35 3.05,1.8 7.35,2.45 l -0.05,0.1 -0.25,1.3 q -0.1,0.85 0.15,1.7 l 0.45,0.9 q -4,-0.65 -9.75,-2.45 l -2,-0.75 -1.7,-1.25 Q -29.6,13.15 -29.9,10.4 L -30.15,1.75 M -4.5,14.65 -2.9,14.5 1.65,14.1 Q 4.15,13.7 6,12.9 l 3.25,-1.95 3.1,-2.2 3.85,-2.7 1.6,-2.15 1.4,-2.35 1.2,-1.5 q 2.2,-0.1 3.4,-2 0.6,-0.9 0.6,-2 l -0.1,-1.1 -0.65,-1.75 -0.25,-0.35 0.25,-1.95 0.65,-2.2 q 0.35,-1.35 0.3,-2.25 l -0.7,-2.25 -0.2,-0.5 2.65,2.45 q 1.3,1.05 1.6,1.7 l 0.25,2.4 q 0,1.85 0.4,3.75 l 0.25,1.85 Q 28.75,-3.6 28.3,-3 l -0.8,1 q -0.6,0.85 -1.3,3.05 -0.7,2.1 -1.45,3 l -1.8,1.4 -2.05,1.05 q -2.35,1.3 -5.25,4.25 l -4.8,4.9 Q 8.7,17.6 6.95,18.2 l -4.4,0.6 -8.4,0.25 V 19 q 1,-1.1 1.3,-2.6 0.2,-0.9 0.05,-1.75"
         fill="#828282"
         fill-rule="evenodd"
         stroke="none"
         id="path4" />
      <path
         d="M 4.9,-6.05 Q 4.6,-4.5 4.15,-3.65 3.45,-2.3 1.05,-0.8 L 0.4,-0.5 -2.75,-0.45 Q -3.5,-0.6 -5.25,-1.55 L -3.8,-2.2 -1.3,-3.35 3.15,-5.3 4.5,-5.95 4.9,-6.05"
         fill="#131313"
         fill-rule="evenodd"
         stroke="none"
         id="path5" />
    </g>
    <g
       id="sprite1"
       transform="translate(17.4,15.85)">
      <use
         ffdec:characterId="31"
         height="57.200001"
         transform="matrix(0.5366,0,0,0.5366,-16.6582,-14.546)"
         width="70.75"
         xlink:href="#sprite2"
         id="use5" />
    </g>
    <g
       id="sprite2"
       transform="translate(-8.65,-10.35)">
      <use
         ffdec:characterId="30"
         height="57.200001"
         transform="translate(8.65,10.35)"
         width="70.75"
         xlink:href="#shape1"
         id="use6" />
    </g>
    <g
       id="shape1"
       transform="translate(-8.65,-10.35)">
      <path
         d="m 14.8,41.7 q 0.65,-1.75 2.65,-2.5 1.8,-0.8 3.7,-0.25 1.15,0.45 2.25,1.2 l 0.9,0.4 q 1.65,0.9 2.85,2.5 L 37.8,30.1 q 2.35,-2.8 3.75,-3.95 1.5,-1.15 4.25,-2.4 18.2,-8.85 27.65,-12.6 2.15,-0.8 3.25,-0.8 h 0.8 l 1.9,2.4 -0.2,0.8 q -0.2,1.1 -1.55,3 -5.85,8.25 -18.85,23.8 -1.85,2.35 -3.35,3.5 -1.4,1.15 -4.75,2.75 l -15.15,7.15 q 1.2,1.6 1.75,3.4 l 0.2,1 0.55,2.5 q 0.1,1.95 -1.1,3.55 -1.2,1.65 -3.05,1.9 l -1.3,0.05 q -1.65,0.2 -3.45,-0.65 -1.85,-0.9 -3,-2.6 L 25,60.95 23.8,62.1 q -2.6,2.85 -4.3,3.95 -2.85,1.8 -5.5,1.45 l -1.65,-0.5 -1.2,-0.7 -0.2,-0.2 q -1,-0.85 -1.6,-1.9 L 9.25,64 9.15,63.8 8.75,62.4 q -0.2,-0.8 -0.05,-1.7 0.25,-2.65 2.7,-5.05 1.5,-1.3 4.9,-3.15 L 17.7,51.55 16.05,50 q -1.35,-1.5 -1.8,-3.6 -0.4,-1.85 0.25,-3.45 l 0.3,-1.25"
         fill="#000000"
         fill-opacity="0.372549"
         fill-rule="evenodd"
         stroke="none"
         id="path6" />
    </g>
  </defs>
</svg>
