<?xml version="1.0" encoding="UTF-8" standalone="no"?>
<svg
   ffdec:objectType="frame"
   height="92.2033"
   width="85.253639"
   version="1.1"
   id="svg4"
   sodipodi:docname="ITEM Advanced Alloy Armor.svg"
   xmlns:inkscape="http://www.inkscape.org/namespaces/inkscape"
   xmlns:sodipodi="http://sodipodi.sourceforge.net/DTD/sodipodi-0.dtd"
   xmlns:xlink="http://www.w3.org/1999/xlink"
   xmlns="http://www.w3.org/2000/svg"
   xmlns:svg="http://www.w3.org/2000/svg"
   xmlns:ffdec="https://www.free-decompiler.com/flash">
  <sodipodi:namedview
     id="namedview4"
     pagecolor="#ffffff"
     bordercolor="#000000"
     borderopacity="0.25"
     inkscape:showpageshadow="2"
     inkscape:pageopacity="0.0"
     inkscape:pagecheckerboard="0"
     inkscape:deskcolor="#d1d1d1"
     fit-margin-top="5"
     fit-margin-left="5"
     fit-margin-right="5"
     fit-margin-bottom="5" />
  <g
     transform="translate(43.163636,45.75)"
     id="g1">
    <use
       ffdec:characterId="17"
       height="119.15"
       id="rarity"
       transform="translate(-58.5,-60.65)"
       width="119.15"
       xlink:href="#sprite0" />
    <use
       ffdec:characterId="754"
       height="92.199997"
       transform="translate(-43.15,-45.75)"
       width="85.25"
       xlink:href="#shape0"
       id="use1" />
  </g>
  <defs
     id="defs4">
    <g
       id="shape0"
       transform="translate(43.7,46.5)">
      <path
         d="M -42.85,31 Q -43.6,30.6 -43.6,29.75 V 25.3 q -0.5,-10.9 1.2,-21.4 0.2,-1.45 1.6,-1.85 1.75,-0.6 3.5,-0.95 V 0.95 q 0.05,-1.55 -0.2,-3.05 l 0.05,-0.2 0.05,-0.15 0.05,-0.2 0.05,-0.25 0.15,-0.15 v -0.2 l 0.05,-1.85 q -0.95,-4.3 -0.4,-8.85 0.3,-2.3 1.4,-4.4 l 0.85,-0.65 0.45,-0.25 0.2,-0.05 0.3,-0.05 0.05,-0.05 q 1.75,0.2 2.4,1.75 0.2,0.5 0.15,1 l 0.35,0.8 q 0.15,0.45 0.15,1 v 0.2 l 0.35,0.55 0.5,-2.3 q 0.1,-3.15 0.85,-6.25 l 1.2,-3.6 0.55,-0.8 0.75,-0.95 0.4,-0.15 0.35,-0.05 v -0.05 q 2.65,0.1 3.25,2.7 l 0.1,1.65 q 0.45,1.25 0.5,2.6 l 0.05,2.65 0.15,0.95 1.15,-0.55 2.05,-0.65 6.7,0.4 1.05,-0.1 0.35,-5.7 q 0.05,-0.55 0.7,-0.7 3.6,-0.95 7.25,-0.95 l 1.6,0.05 Q -1.3,-28.75 1.3,-30 l 2.85,-0.8 Q 4.1,-31.95 4.5,-33 v -0.8 l 0.1,-1.8 0.25,-0.6 v -0.45 l 0.05,-0.55 0.3,-0.85 q 0.05,-2.95 0.9,-5.7 0.75,-2.3 3.15,-2.75 3.7,0.25 4.4,3.95 l 0.2,2.05 0.55,3.15 0.1,-0.1 q 1.05,-1.2 2.35,-1.55 1.7,0 2.05,1.55 l 0.1,0.95 q 0.9,3.05 0.6,6.3 l -0.1,1.05 q 1.25,0.85 1.1,2.65 l -0.25,1.35 1.8,0.1 q 3.65,0.15 3.2,3.95 l -0.2,3.75 -0.05,2.4 0.05,-0.05 3.8,-0.65 q 7.4,1.3 10.5,8.25 0.9,2 1.2,4.05 l 0.8,3.45 q 0.45,3.15 -1.35,5.8 -4.8,2.45 -7.75,6.55 -0.45,0.6 -0.6,1.35 l 0.5,-0.05 q 5.45,-0.55 5.8,4.9 0.55,7.95 0.3,15.9 -0.1,1.85 -0.85,3.5 -0.6,1.3 -2.15,1.35 l -24.9,0.85 q -1.9,0.1 -2,-1.7 L 8.3,35.4 7.9,35.7 2.8,39.9 q -8.6,6.6 -18.8,3.2 l -0.15,-0.05 q -3.85,3.75 -9.85,2.2 -4.9,-1.2 -6.2,-6.2 V 38.8 l -0.05,-0.2 0.05,-0.15 q -0.4,-1.9 -0.15,-3.85 l 0.1,-0.35 Q -37.8,33.4 -42.85,31 m 18.25,-42.5 -0.1,-4.2 q -0.75,-2.35 -0.75,-4.85 0,-1.7 -0.4,-3.4 l -0.4,0.55 -0.3,1.3 v 0.15 0.4 0.4 l -0.05,0.6 q -1.15,4.35 -0.95,9.05 0.1,2.4 -0.4,4.6 l 0.05,0.9 3.75,-0.1 -0.45,-5.4 m 4.9,1 -0.35,-0.6 -1.3,-1.5 -0.1,-0.15 -0.15,-0.1 0.05,0.25 0.1,3.15 v 1.05 0.55 l -0.5,2.3 0.2,0.1 1.1,0.5 0.15,-2.15 1.25,-2.35 -0.05,-0.2 V -9.8 l -0.4,-0.7 m -11.55,4.55 -0.15,-0.2 -0.15,-0.2 -0.15,-0.2 -0.1,-0.2 -0.05,-0.4 v -0.4 -0.4 q -0.75,-1.3 -0.95,-2.8 L -33,-13 l -0.6,-1.4 -0.4,-1.8 q -1.5,4.35 -0.05,9.6 l 0.25,2.1 2.6,-0.75 -0.05,-0.7 m 7.6,3.3 -2.5,-0.05 -3.65,0.35 -1.95,0.4 q -1.5,0.3 -2.85,1.05 l -0.25,0.15 -0.1,0.25 -0.05,1.1 h 0.05 l 5.3,-0.6 h 8.15 q -0.05,-0.9 -0.4,-1.8 l -0.15,-0.15 -0.7,-0.45 -0.1,-0.05 -0.25,-0.15 -0.55,-0.05 M 2,-18.15 v -1.75 -1.55 l -9.05,0.8 -0.45,0.15 -0.05,0.8 v 0.6 0.2 0.1 l 3.35,-0.1 1,0.3 q 4.8,1.7 3.05,7.45 -0.8,2.6 -3.25,3.85 -2.2,1.15 -4.5,1 L -7.95,-6 -8.1,-5.85 -8.25,-5.6 v 0.2 1.2 0.2 q 0.15,2.35 -0.35,4.55 l 2.5,0.1 q 2.6,0.2 3.85,2.1 0.75,1.15 0.1,2.35 l -0.1,3.15 0.85,0.05 4,0.3 Q 1.7,-2.1 1.95,-13.15 l 0.05,-5 m -5.1,4.85 V -13.35 -14 l -0.15,-0.25 -0.05,-0.05 -0.6,-0.65 -0.6,-0.45 q -1.6,0.1 -3.25,0.05 l 0.05,0.15 0.4,1.05 v 0.65 l -0.1,1.25 -0.05,0.3 -0.45,1.75 1.45,-0.15 q 2.1,-0.3 3.35,-2.05 v -0.2 -0.4 -0.3 m -6.15,0.95 -0.05,-1 -0.3,-0.45 -0.2,-0.35 -0.05,-0.45 -0.05,-0.2 -0.55,-0.6 -0.05,-0.05 -1.4,-0.15 -1.15,-0.15 -5.95,0.8 -0.75,0.2 -0.35,0.1 0.1,0.1 q 0.9,0.85 1.5,2.1 l 0.1,0.2 0.1,0.25 0.65,1.1 q 2.35,-1.35 6.1,0.05 l 1.6,0.45 0.45,-1.15 0.25,-0.8 M -11.8,-1 l 0.3,-0.8 v -1.4 l 0.1,-4.1 -2.85,-0.7 -1.25,-0.05 -0.65,0.8 -0.5,1.25 -0.15,0.6 0.25,0.8 0.7,1.25 0.35,0.55 0.35,0.2 0.5,0.6 0.2,0.35 1.5,1.05 0.85,0.95 h 0.2 L -11.8,-1 m 23.7,-30 0.2,-1.65 -0.1,-1.35 -0.1,-4.4 -0.35,-1.25 q -0.1,-1.3 -0.7,-2.35 l -0.05,-0.25 -0.05,-0.2 v -0.15 -0.25 l -0.1,-0.2 -0.2,-0.2 Q 10.25,-43.4 10,-43.6 l -0.35,-0.25 q -0.55,0.55 -0.7,1.4 L 8.3,-39.8 q 0.15,2.15 -0.15,4.2 l -0.6,4 v 0.5 l 4.35,0.1 m 4.95,3.95 -2.2,-0.4 -8.4,0.3 -3.5,0.4 -0.05,0.2 -0.05,0.75 15.35,0.55 -0.05,-0.35 -0.05,-0.7 v -0.1 l -1.05,-0.65 m 0.45,-6.2 q 0.1,-1.6 -0.45,-3 Q 16.4,-36.4 16,-35.8 l -0.75,1 -0.05,0.2 -0.05,0.15 -0.35,0.45 q -0.4,1.65 -0.4,3.3 l 3,0.75 -0.1,-3.3 m 2.7,27.3 q -0.05,-1.7 0.55,-3.2 v -0.2 -0.6 -0.25 -0.35 -0.2 -1.05 l 0.3,-0.6 v -0.2 -1.2 -0.2 -2.35 l -7.45,0.8 q -1.75,0 -2.9,0.7 v 0.2 0.6 l 0.05,2.6 -0.15,1.2 -0.1,0.45 -0.05,0.15 v 0.4 1.65 2.35 0.45 1 l 0.1,0.2 0.1,0.2 v 0.2 l 0.05,0.15 0.25,0.85 0.1,0.4 q 4,-0.25 7.95,-1.25 l 1.3,-0.1 -0.1,-2.8 m -6.55,-8.6 0.95,0.4 0.25,0.15 0.15,0.2 0.15,0.25 0.2,0.35 q 0.05,0.65 -0.3,1.25 -0.45,0.6 -1.2,0.65 H 13.6 l -0.65,-0.15 -0.65,-0.6 -0.3,-1 0.1,-0.4 q 0.15,-0.6 0.75,-0.95 l 0.2,-0.05 0.4,-0.05 v -0.05 M 4.6,-17.7 Q 4.9,-7.85 4.7,2.05 L 4.15,8.55 Q 12.4,8.25 20.1,4.1 L 20.2,3.3 20.15,2.7 V 2.5 0.55 L 16.8,1.1 12.7,1.55 Q 9.85,2.1 8.1,0 L 8.05,-0.2 8,-0.4 7.95,-0.6 V -0.8 L 8,-1.2 Q 7.2,-3.15 7.35,-5.4 l 0.2,-3.25 0.25,-7.8 0.1,-0.2 0.15,-0.2 0.2,-0.2 0.5,-0.3 0.95,-0.25 5.5,-0.6 5.45,-0.1 v -0.1 l -0.05,-2 -15.4,-0.9 -0.75,-0.05 0.15,3.65 m 9.05,11.95 0.55,0.15 0.4,0.4 0.25,0.75 -0.1,0.45 -0.7,0.75 h -0.4 l -0.55,-0.1 -0.2,-0.2 -0.35,-0.4 -0.1,-0.2 v -0.2 l 0.05,-0.4 0.1,-0.4 0.4,-0.35 0.65,-0.25 M 25.1,-9.25 V -7.4 -7 q 2.45,-0.2 4.15,0.55 l 0.2,-0.2 0.7,-0.95 0.55,-1.65 0.05,-0.25 0.05,-1.2 v -0.65 l -1,-0.5 -4.7,-0.4 v 1.9 0.95 0.15 m 0.1,10.4 Q 25.25,3.5 24.35,5.7 26.1,3.5 28.3,1.7 l 0.85,-0.75 0.1,-0.4 q 0.4,-1.3 -0.25,-2.4 l -1.35,-1.55 -2.55,-0.25 0.1,4.8 m 11.5,-2.3 0.2,-0.2 0.05,-0.2 0.1,-0.15 0.15,-0.25 0.1,-0.05 0.1,-0.15 q -1.3,-4.2 -4.4,-7.5 l -0.15,1.3 -0.15,0.5 -0.1,0.35 -0.45,0.95 -0.5,0.85 -0.4,0.4 -0.25,0.15 q 0.95,1.15 1.3,3 l 0.15,0.9 v 2.1 l 0.3,-0.05 1.5,-0.45 2.4,-1.45 0.05,-0.05 M 37.2,3.7 V 3.65 L 37.35,3.5 37.45,3.3 37.6,3.05 37.8,2.85 V 2.7 l 0.05,-0.45 0.2,-0.55 0.1,-0.4 -0.1,-0.8 H 38 L 37.55,0.85 36.8,1.4 34.15,2.45 32.05,2.5 Q 31.1,5.1 27.95,6.55 27.15,6.95 26.5,7.4 L 26.3,7.55 26,8.15 26.75,8.9 27.3,9.65 27.55,9.7 29.25,9.8 29.75,9.1 31.1,7.65 32.6,6.4 Q 33.95,5.5 35.55,4.9 L 36.1,4.7 36.3,4.5 36.45,4.35 36.5,4.3 37.05,3.9 37.2,3.7 M 21.05,9.35 q -8.9,4.2 -18.3,3.8 l -0.1,0.45 -0.1,0.15 0.2,4.65 q 0,1.3 0.8,2.45 L 4.8,21.7 5.3,21.95 9.05,22.2 9.8,17.35 q 0.15,-0.8 0.95,-0.85 l 11.1,-1.2 -0.1,-0.9 -0.05,-2.2 q 0.1,-2.1 0.95,-3.95 l -1.6,1.1 m 5.35,2 -1.2,-0.65 -0.05,-0.05 -0.05,0.15 -0.8,4.2 1.5,-0.2 1.15,-0.2 0.95,-0.15 q -0.05,-1.2 0.3,-2.3 L 28.3,11.8 26.4,11.35 M 23.65,26.7 v -0.35 q 0,-1.7 1.45,-2.55 l 2.45,-0.3 6.2,-0.75 -0.45,-2.95 -0.35,-1.2 -0.1,-0.05 -0.5,-0.05 q -6.9,1.25 -13.85,1.15 L 17.95,19.6 q -2.1,0 -3.7,0.7 l -0.55,0.15 -0.15,3.45 v 0.15 q -0.3,2.1 -0.35,4.3 L 13.1,35.15 24,34.5 23.85,32.65 23.65,26.7 M 1.95,25.6 2.1,25.15 2.45,24.1 1.2,23.3 0.05,22.2 -0.6,22.6 h -0.1 l -1.25,0.9 -0.05,0.2 -0.05,0.2 -0.15,0.15 0.05,2.95 1.8,0.95 0.75,0.55 1.15,0.4 -0.1,-1.6 0.5,-1.7 m 6.6,1.95 0.05,-1 0.1,-1.3 L 4.9,25.05 4.45,24.9 3.7,26.5 q -0.45,1.25 -0.55,2.65 l 5.3,-0.3 0.1,-1.3 M -2.1,31.8 q 0.1,3.1 -2.95,3.35 l -7.4,0.25 -1.7,4.2 -0.1,0.2 q 4.55,1.65 10.3,-0.65 5.1,-2.05 8.85,-6 H 4.15 Q 0.7,33 -2.1,31.35 v 0.45 m 32.1,-4.85 0.55,0.2 0.4,0.15 0.25,0.25 0.2,0.35 0.2,0.45 v 0.35 l -0.25,0.85 -0.1,0.2 q -2.3,1.4 -2.9,-1.2 V 28.2 l 0.25,-0.45 0.65,-0.6 0.3,-0.05 L 30,27 v -0.05 m 3.75,7.3 q -0.15,-1.8 0,-3.6 0.25,-3 0.1,-6.05 -3.25,1.1 -7.1,1.05 l -0.7,0.2 0.05,0.6 0.1,1.2 0.05,0.4 0.2,0.6 0.1,1 -0.05,0.4 q 0.4,1.35 0.35,2.8 v 1 0.55 l 6.9,-0.15 m -40.6,-23.1 v -2.2 -3 l -0.4,-0.1 q -5.95,-0.3 -11.6,-1.5 l -0.1,-0.05 -0.8,-0.05 -4.7,0.1 q 0.35,2 0.55,3.95 l 0.05,0.25 -0.05,2.35 q 0.35,0.85 0.25,1.85 v 1.75 q 0.7,2 0.6,4.05 -0.05,1.4 -1.2,2.15 l -13.2,0.55 -1.3,-0.2 v 2.2 4.2 q 6.55,2.5 14.2,2.4 l 14.55,0.8 q 1.7,0.25 3.2,-0.4 v -3.2 l -0.05,-15.9 m 6.45,2.3 0.15,-0.5 -0.85,-0.1 -0.5,-0.1 -0.65,-0.1 v 0.55 2.1 1.3 4.15 l 0.55,-0.65 0.85,-0.7 q -0.25,-2.05 0,-4.05 l 0.45,-1.9 m -33.8,-8.05 -4.4,1 v 2.55 l -0.1,9.65 2.65,-0.45 9.6,-0.15 v -0.1 q -0.9,-3.55 -1.1,-7.25 l -0.15,-3.2 -0.45,-2.8 -6.05,0.75 m 3.3,0.45 1.05,0.4 0.3,0.15 q 1.5,2.95 -2,2.8 -0.7,-0.05 -1.05,-0.7 V 7.25 q 0.2,-0.85 0.9,-1.2 l 0.4,-0.1 0.4,-0.05 V 5.85 m 0.15,7.55 0.55,0.15 0.4,0.2 0.3,0.4 q 0.4,0.4 0.3,1 l -0.15,0.65 q -0.3,0.55 -0.95,0.75 l -0.45,0.05 -0.6,-0.1 -0.5,-0.45 -0.45,-0.6 0.1,-1 q 0.25,-0.65 0.85,-0.9 l 0.25,-0.05 0.35,-0.05 V 13.4 m 6.05,21.35 -5.15,-0.2 0.6,2.6 0.5,1.65 0.5,0.6 0.2,0.8 0.45,0.45 0.35,0.4 q 2.75,1.75 6.1,0.95 l 1.4,-0.95 q -2.5,-2.2 -2.8,-5.9 l 0.05,-0.4 h -2.2 m 7.85,0.35 -3.5,-0.25 0.05,0.45 q 1.45,1.8 3.1,2.95 0.85,-1.35 1.4,-3.05 l -1.05,-0.1"
         fill="#000000"
         fill-rule="evenodd"
         stroke="none"
         id="path1" />
      <path
         d="m -21.45,-12.75 0.1,0.15 1.3,1.5 0.35,0.6 -0.35,0.45 q -0.6,0.75 -0.8,1.65 l -0.2,0.2 -0.3,0.2 -0.1,0.15 V -8.4 -9.45 l -0.1,-3.15 0.1,-0.15 m -3.15,1.25 0.45,5.4 -3.75,0.1 -0.05,-0.9 q 0.5,-2.2 0.4,-4.6 -0.2,-4.7 0.95,-9.05 l 0.05,-0.6 v -0.4 -0.4 -0.15 l 0.3,-1.3 0.4,-0.55 q 0.4,1.7 0.4,3.4 0,2.5 0.75,4.85 l 0.1,4.2 m -10,10.6 q 1.35,-0.75 2.85,-1.05 l 1.95,-0.4 3.65,-0.35 2.5,0.05 0.8,0.2 0.1,0.05 0.7,0.45 0.15,0.15 q 0.35,0.9 0.4,1.8 h -8.15 l -5.3,0.6 V 0.35 l 0.35,-1.25 m 3.35,-5.05 0.05,0.7 -2.6,0.75 -0.25,-2.1 q -1.45,-5.25 0.05,-9.6 l 0.4,1.8 0.6,1.4 0.2,2.25 q 0.2,1.5 0.95,2.8 v 0.4 0.4 l 0.05,0.4 0.1,0.2 0.15,0.2 0.15,0.2 0.15,0.2 m 28.05,-12.65 -1,-0.3 -3.35,0.1 v -0.1 -0.2 -0.6 l 0.05,-0.8 0.45,-0.15 9.05,-0.8 v 1.55 1.75 l -0.75,-0.75 -4.45,0.3 m -4.2,6.35 0.1,-1.25 v -0.65 l -0.4,-1.05 -0.05,-0.15 q 1.65,0.05 3.25,-0.05 l 0.6,0.45 0.6,0.65 0.05,0.05 0.15,0.25 v 0.65 0.05 q -2.05,1 -4.3,1.05 m -12.35,-2.5 0.75,-0.2 5.95,-0.8 1.15,0.15 1.4,0.15 0.05,0.05 0.55,0.6 0.05,0.2 0.05,0.45 0.2,0.35 0.3,0.45 0.05,1 -2.05,-0.4 q -3.9,-1.1 -7,0.75 l -0.1,-0.25 -0.1,-0.2 q -0.6,-1.25 -1.5,-2.1 l 0.25,-0.2 m 37.65,-11.55 0.05,0.7 0.05,0.35 -15.35,-0.55 0.05,-0.75 0.05,-0.2 3.5,-0.4 8.4,-0.3 2.2,0.4 1.05,0.75 m -6,-4.7 -4.35,-0.1 v -0.5 l 0.6,-4 q 0.3,-2.05 0.15,-4.2 l 0.65,-2.65 q 0.15,-0.85 0.7,-1.4 L 10,-43.6 q 0.25,0.2 0.45,0.35 l 0.2,0.2 0.1,0.2 v 0.25 0.15 l 0.05,0.2 0.05,0.25 q 0.6,1.05 0.7,2.35 l 0.35,1.25 0.1,4.4 0.1,1.35 -0.2,1.65 m 5.4,-2.25 0.1,3.3 -3,-0.75 q 0,-1.65 0.4,-3.3 l 0.35,-0.45 0.05,-0.15 0.05,-0.2 0.75,-1 q 0.4,-0.6 0.85,-0.45 0.55,1.4 0.45,3 m -8.55,15.9 -4.15,-0.35 -0.15,-3.65 0.75,0.05 15.4,0.9 0.05,2 v 0.1 l -5.45,0.1 -5.5,0.6 -0.95,0.25 m 21.4,9.75 q -1.5,-0.7 -3.2,-1.05 l -1.85,-0.6 v -0.15 -0.95 -1.9 l 4.7,0.4 1,0.5 v 0.65 l -0.05,1.2 -0.05,0.25 -0.55,1.65 m 2,1.05 0.45,-0.95 0.1,-0.35 0.15,-0.5 0.15,-1.3 q 3.1,3.3 4.4,7.5 l -0.1,0.15 -0.1,0.05 -0.15,0.25 -0.1,0.15 -0.05,0.2 -0.2,0.2 -0.1,-0.2 V -1.4 l -0.65,-1 Q 35.55,-2.9 35.5,-3.5 34,-5.3 32.15,-6.55 M 36.8,1.4 37.55,0.85 38,0.5 h 0.05 l 0.1,0.8 -0.1,0.4 -0.2,0.55 L 37.8,2.7 V 2.85 L 37.6,3.05 37.45,3.3 37.35,3.5 37.2,3.65 V 3.7 L 37.05,3.35 V 3.15 L 36.8,1.7 V 1.5 1.4 m -5.7,6.25 -1.35,1.45 -0.5,0.7 -1.7,-0.1 q 1,-1.3 2.55,-2.05 l 0.6,-0.1 0.4,0.1 m -5.3,7.15 q -0.3,-1.7 0.6,-3.45 l 1.9,0.45 -0.1,0.35 q -0.35,1.1 -0.3,2.3 l -0.95,0.15 -1.15,0.2 m 1.75,8.7 -2.45,0.3 q -1.45,0.85 -1.45,2.55 V 26.7 L 16.4,26.9 Q 14.35,26.15 13.55,24.05 V 23.9 l 0.15,-3.45 0.55,-0.15 h 0.2 l 0.4,0.15 3.65,-0.8 q 6.95,0.1 13.85,-1.15 l 0.5,0.05 0.1,0.05 0.35,1.2 q -2.45,2.25 -5.75,3.7 M -0.6,22.6 0.05,22.2 1.2,23.3 2.45,24.1 2.1,25.15 1.95,25.6 Q 0.3,24.5 -0.6,22.6 m 4.3,3.9 0.75,-1.6 0.45,0.15 3.8,0.2 -0.1,1.3 -0.05,1 -0.8,-0.1 -3.3,-0.7 L 3.7,26.5 M -23.85,8.55 -23.9,8.3 q -0.2,-1.95 -0.55,-3.95 l 4.7,-0.1 0.8,0.05 0.1,0.05 q 5.65,1.2 11.6,1.5 l 0.4,0.1 v 3 2.2 q -0.75,0.65 -1.8,1.1 -9.2,4.35 -15.2,-3.7 m 22.75,4.3 0.4,0.2 0.15,0.15 0.15,0.25 -0.45,1.9 q -0.25,2 0,4.05 l -0.85,0.7 -0.45,-1.8 0.05,-1.4 -0.15,-0.3 v -1.3 -2.1 l 0.65,-0.45 0.5,0.1"
         fill="#d9d9d9"
         fill-rule="evenodd"
         stroke="none"
         id="path2" />
      <path
         d="m -21.45,-7.85 0.1,-0.15 0.3,-0.2 0.2,-0.2 q 0.2,-0.9 0.8,-1.65 l 0.35,-0.45 0.4,0.7 v 0.15 l 0.05,0.2 -1.25,2.35 -0.15,2.15 -1.1,-0.5 -0.2,-0.1 0.5,-2.3 m 18.25,-10.75 4.45,-0.3 0.75,0.75 -0.05,5 Q 1.7,-2.1 2.6,8.6 L -1.4,8.3 -2.25,8.25 -2.15,5.1 Q -1.5,3.9 -2.25,2.75 -3.5,0.85 -6.1,0.65 L -8.6,0.55 Q -8.1,-1.65 -8.25,-4 V -4.2 -5.4 -5.6 L -8.1,-5.85 -7.95,-6 -7.9,-6.3 q 2.3,0.15 4.5,-1 2.45,-1.25 3.25,-3.85 1.75,-5.75 -3.05,-7.45 m -4.2,6.35 q 2.25,-0.05 4.3,-1.05 v 0.3 0.4 0.2 q -1.25,1.75 -3.35,2.05 l -1.45,0.15 0.45,-1.75 0.05,-0.3 M -18.3,-12 q 3.1,-1.85 7,-0.75 l 2.05,0.4 -0.25,0.8 -0.45,1.15 -1.6,-0.45 q -3.75,-1.4 -6.1,-0.05 L -18.3,-12 m 27.05,-5.35 -0.5,0.3 -0.2,0.2 -0.15,0.2 -0.1,0.2 -0.25,7.8 -0.2,3.25 Q 7.2,-3.15 8,-1.2 l -0.05,0.4 v 0.2 L 8,-0.4 8.05,-0.2 8.1,0 q 1.75,2.1 4.6,1.55 L 16.8,1.1 20.15,0.55 V 2.5 2.7 L 20.2,3.3 20.1,4.1 Q 12.4,8.25 4.15,8.55 L 4.7,2.05 Q 4.9,-7.85 4.6,-17.7 l 4.15,0.35 m 4.7,2.8 v 0.05 l -0.4,0.05 -0.2,0.05 q -0.6,0.35 -0.75,0.95 l -0.1,0.4 0.3,1 0.65,0.6 0.65,0.15 h 0.05 q 0.75,-0.05 1.2,-0.65 0.35,-0.6 0.3,-1.25 l -0.2,-0.35 -0.15,-0.25 -0.15,-0.2 -0.25,-0.15 -0.95,-0.4 m 6.55,8.6 0.1,2.8 -1.3,0.1 q -3.95,1 -7.95,1.25 L 10.75,-2.2 10.5,-3.05 10.45,-3.2 v -0.2 l -0.1,-0.2 -0.1,-0.2 v -1 -0.45 -2.35 -1.65 -0.4 l 0.05,-0.15 0.1,-0.45 0.15,-1.2 -0.05,-2.6 v -0.6 -0.2 q 1.15,-0.7 2.9,-0.7 l 7.45,-0.8 v 2.35 0.2 1.2 0.2 l -0.3,0.6 v 1.05 0.2 0.35 0.25 0.6 0.2 q -0.6,1.5 -0.55,3.2 m 10.15,-1.65 -0.7,0.95 -0.2,0.2 Q 27.55,-7.2 25.1,-7 v -0.4 -1.85 l 1.85,0.6 q 1.7,0.35 3.2,1.05 m -16.5,1.85 -0.65,0.25 -0.4,0.35 -0.1,0.4 -0.05,0.4 v 0.2 l 0.1,0.2 0.35,0.4 0.2,0.2 0.55,0.1 h 0.4 L 14.75,-4 14.85,-4.45 14.6,-5.2 14.2,-5.6 13.65,-5.75 m 18.5,-0.8 q 1.85,1.25 3.35,3.05 0.05,0.6 0.45,1.1 l 0.65,1 v 0.05 l 0.1,0.2 -0.05,0.05 -2.4,1.45 -1.5,0.45 0.05,-0.45 q 0.15,-1.4 -0.5,-2.5 -0.35,-1.85 -1.3,-3 l 0.25,-0.15 0.4,-0.4 0.5,-0.85 M 36.8,1.4 V 1.5 1.7 L 37.05,3.15 36.5,4.3 36.45,4.35 36.3,4.5 36.1,4.7 35.55,4.9 q -1.6,0.6 -2.95,1.5 l -1.5,1.25 -0.4,-0.1 -0.6,0.1 Q 28.55,8.4 27.55,9.7 L 27.3,9.65 26.75,8.9 26,8.15 26.5,7.4 Q 27.15,6.95 27.95,6.55 31.1,5.1 32.05,2.5 L 34.15,2.45 36.8,1.4 m -11,13.4 -1.5,0.2 0.8,-4.2 0.05,-0.15 0.05,0.05 1.2,0.65 q -0.9,1.75 -0.6,3.45 m 1.75,8.7 q 3.3,-1.45 5.75,-3.7 l 0.45,2.95 -6.2,0.75 m -14,0.55 q 0.8,2.1 2.85,2.85 l 7.25,-0.2 0.2,5.95 0.15,1.85 -10.9,0.65 0.1,-6.8 q 0.05,-2.2 0.35,-4.3 M -0.6,22.6 q 0.9,1.9 2.55,3 l -0.5,1.7 0.1,1.6 L 0.4,28.5 -0.35,27.95 -2.15,27 -2.2,24.05 -2.05,23.9 -2,23.7 -1.95,23.5 -0.7,22.6 h 0.1 m 4.3,3.9 0.75,0.25 3.3,0.7 0.8,0.1 -0.1,1.3 -5.3,0.3 q 0.1,-1.4 0.55,-2.65 m 30.05,7.75 -6.9,0.15 v -0.55 -1 Q 26.9,31.4 26.5,30.05 l 0.05,-0.4 -0.1,-1 -0.2,-0.6 -0.05,-0.4 -0.1,-1.2 -0.05,-0.6 0.7,-0.2 q 3.85,0.05 7.1,-1.05 0.15,3.05 -0.1,6.05 -0.15,1.8 0,3.6 M 30,26.95 V 27 l -0.45,0.1 -0.3,0.05 -0.65,0.6 -0.25,0.45 v 0.35 q 0.6,2.6 2.9,1.2 l 0.1,-0.2 0.25,-0.85 V 28.35 L 31.4,27.9 31.2,27.55 30.95,27.3 30.55,27.15 30,26.95 M -23.85,8.55 q 6,8.05 15.2,3.7 1.05,-0.45 1.8,-1.1 l 0.05,15.9 v 3.2 q -1.5,0.65 -3.2,0.4 l -14.55,-0.8 q -7.65,0.1 -14.2,-2.4 v -4.2 -2.2 l 1.3,0.2 13.2,-0.55 q 1.15,-0.75 1.2,-2.15 0.1,-2.05 -0.6,-4.05 v -1.75 q 0.1,-1 -0.25,-1.85 l 0.05,-2.35 M -1.7,20.1 -2.25,20.75 V 16.6 l 0.15,0.3 -0.05,1.4 0.45,1.8 m -29.05,-6.7 v 0.05 l -0.35,0.05 -0.25,0.05 q -0.6,0.25 -0.85,0.9 l -0.1,1 0.45,0.6 0.5,0.45 0.6,0.1 0.45,-0.05 q 0.65,-0.2 0.95,-0.75 l 0.15,-0.65 q 0.1,-0.6 -0.3,-1 l -0.3,-0.4 -0.4,-0.2 -0.55,-0.15 M -30.9,5.85 V 5.9 l -0.4,0.05 -0.4,0.1 q -0.7,0.35 -0.9,1.2 V 8.5 q 0.35,0.65 1.05,0.7 3.5,0.15 2,-2.8 l -0.3,-0.15 -1.05,-0.4 m -3.3,-0.45 6.05,-0.75 0.45,2.8 0.15,3.2 q 0.2,3.7 1.1,7.25 V 18 l -9.6,0.15 -2.65,0.45 0.1,-9.65 V 6.4 l 4.4,-1"
         fill="#afafaf"
         fill-rule="evenodd"
         stroke="none"
         id="path3" />
    </g>
    <g
       id="sprite1"
       transform="translate(17.4,15.85)">
      <use
         ffdec:characterId="31"
         height="57.200001"
         transform="matrix(0.5366,0,0,0.5366,-16.6582,-14.546)"
         width="70.75"
         xlink:href="#sprite2"
         id="use3" />
    </g>
    <g
       id="sprite2"
       transform="translate(-8.65,-10.35)">
      <use
         ffdec:characterId="30"
         height="57.200001"
         transform="translate(8.65,10.35)"
         width="70.75"
         xlink:href="#shape1"
         id="use4" />
    </g>
    <g
       id="shape1"
       transform="translate(-8.65,-10.35)">
      <path
         d="m 14.8,41.7 q 0.65,-1.75 2.65,-2.5 1.8,-0.8 3.7,-0.25 1.15,0.45 2.25,1.2 l 0.9,0.4 q 1.65,0.9 2.85,2.5 L 37.8,30.1 q 2.35,-2.8 3.75,-3.95 1.5,-1.15 4.25,-2.4 18.2,-8.85 27.65,-12.6 2.15,-0.8 3.25,-0.8 h 0.8 l 1.9,2.4 -0.2,0.8 q -0.2,1.1 -1.55,3 -5.85,8.25 -18.85,23.8 -1.85,2.35 -3.35,3.5 -1.4,1.15 -4.75,2.75 l -15.15,7.15 q 1.2,1.6 1.75,3.4 l 0.2,1 0.55,2.5 q 0.1,1.95 -1.1,3.55 -1.2,1.65 -3.05,1.9 l -1.3,0.05 q -1.65,0.2 -3.45,-0.65 -1.85,-0.9 -3,-2.6 L 25,60.95 23.8,62.1 q -2.6,2.85 -4.3,3.95 -2.85,1.8 -5.5,1.45 l -1.65,-0.5 -1.2,-0.7 -0.2,-0.2 q -1,-0.85 -1.6,-1.9 L 9.25,64 9.15,63.8 8.75,62.4 q -0.2,-0.8 -0.05,-1.7 0.25,-2.65 2.7,-5.05 1.5,-1.3 4.9,-3.15 L 17.7,51.55 16.05,50 q -1.35,-1.5 -1.8,-3.6 -0.4,-1.85 0.25,-3.45 l 0.3,-1.25"
         fill="#000000"
         fill-opacity="0.372549"
         fill-rule="evenodd"
         stroke="none"
         id="path4" />
    </g>
  </defs>
</svg>
