<?xml version="1.0" encoding="UTF-8" standalone="no"?>
<svg
   ffdec:objectType="frame"
   height="82.150795"
   width="87.131203"
   version="1.1"
   id="svg4"
   xmlns:xlink="http://www.w3.org/1999/xlink"
   xmlns="http://www.w3.org/2000/svg"
   xmlns:svg="http://www.w3.org/2000/svg"
   xmlns:ffdec="https://www.free-decompiler.com/flash">
  <g
     transform="translate(41.452632,41.400794)"
     id="g1">
    <use
       ffdec:characterId="17"
       height="119.15"
       id="rarity"
       transform="translate(-58.5,-60.65)"
       width="119.15"
       xlink:href="#sprite0" />
    <use
       ffdec:characterId="271"
       height="82.150002"
       transform="translate(-41.45,-41.4)"
       width="87.150002"
       xlink:href="#shape0"
       id="use1" />
  </g>
  <defs
     id="defs4">
    <g
       id="shape0"
       transform="translate(41.15,43.9)">
      <path
         d="M 45.75,19.15 45.4,20.7 q -0.6,1.75 -1.85,2.8 -1.9,1.6 -6.1,1.9 l -3.2,0.05 -2.05,-0.15 q -1.05,-0.25 -2.5,-1.1 -2,-1.2 -4.85,-4.1 v 0.25 q 0.4,4.15 -0.4,10.4 -0.4,3 -1.45,4.4 l -2.5,1.95 -2.15,1 -1.75,0.15 h -4.35 l -1.9,-0.2 Q 9.6,37.75 8.45,36.5 L 6.3,33.6 4.3,30 Q 3.3,27.6 2.45,23.3 L 2.1,21.7 q -0.65,3.5 -1.45,5.95 -1.35,4 -3.6,6.7 l -1.5,1.35 q -0.8,0.5 -1.95,0.65 l -2.1,0.05 -1.55,-0.05 -1.65,-0.15 q -1.1,-0.25 -2.45,-1.3 -3.75,-3.15 -4.55,-8 l -0.2,-3.6 0.1,-5.2 0.05,-1.2 -3.75,1.35 -0.45,3.95 q -0.2,2.05 -0.65,3.25 -0.85,2.25 -3.1,3.8 -1.55,1.15 -2.95,1.45 l -3.1,0.25 -2.75,-0.5 -2.05,-1.3 q -1.15,-0.85 -1.5,-1.65 l -0.15,-1.35 0.1,-1.45 q -0.15,-2.05 0.05,-3 0.2,-0.95 1.1,-2.3 -1.45,-0.65 -2.35,-2.15 -0.9,-1.45 -0.85,-3.05 0.05,-2.4 2.05,-4.75 1.15,-1.3 2.55,-1.95 0.8,-0.4 1.65,-0.4 V 7.05 q 1.95,-5.35 5,-11.8 l 5.7,-11.5 q 3.4,-6.75 5.8,-10.15 l 6.75,-8.1 2.65,-3.2 2.9,-2.9 q 4.05,-3.2 9.55,-3.3 5.5,-0.05 9.6,3.05 2.75,2.05 5.15,5.85 l 3.8,6.9 q 6.2,11.55 13.65,15.95 l 2.4,1.45 q 1.3,0.95 1.85,2.05 0.6,1.3 0.35,3.15 -0.4,2.7 -2.55,4.85 l -1.2,1.1 1.6,1.95 2.7,3.4 2.85,4.85 q 1.95,4.05 2.15,6.6 l -0.05,1.9 M 31.1,-3.4 31.95,-3.75 Q 33.4,-4.5 34,-5.85 23.25,-12.15 15.55,-27.1 l -3,-5.4 -2.15,-2.65 -0.2,-0.2 -1.85,-1.45 q -2.3,-1.35 -5.1,-1.3 -2.8,0.05 -5.05,1.45 -1.55,0.95 -3.95,3.65 l -2.6,2.95 -0.2,0.2 -3.45,4 q -3.3,4.1 -5.45,7.75 l -3.05,5.8 -0.45,0.85 -2.05,4.15 q -4.05,7.7 -8.65,15.4 l -0.2,0.35 -0.1,0.1 0.1,0.8 q -0.05,0.9 -1.1,1.45 l -1.15,0.7 -0.5,0.2 q -0.85,0.55 -1.4,1.5 l -0.15,1.15 q 0.25,0.75 2,0.65 h 0.4 q 1.55,-0.05 2.25,0.6 l 0.6,0.7 0.2,0.5 0.1,0.9 -0.15,0.5 -0.8,1.05 -0.95,1 -1.3,2.15 q -0.95,1.9 -0.25,2.85 0.4,0.5 1.45,0.7 1.7,0.2 3.15,-0.95 1.5,-1.15 1.7,-2.85 l 0.15,-2.15 0.2,-0.8 0.1,-0.85 q 0,-0.35 -0.35,-1.1 l -0.35,-1.1 0.15,-0.8 0.65,-0.95 0.5,-0.4 q 0.65,-0.35 2.5,-0.8 1.6,-0.4 3.4,-1.2 l -0.95,-0.85 -1.65,-2.1 Q -24.25,7.45 -24.05,4.3 L -24,3.95 q 0.3,-3.7 1.75,-7.3 l 0.05,-0.2 q 0.45,-1.2 1.05,-1.8 1,-1.1 2.45,-1 0.75,0.05 1.15,0.4 l 0.25,0.25 q 0.4,0.55 0.2,1.95 l -1.2,5.15 -0.6,2.35 q -0.3,1.2 -0.2,1.8 0.1,0.8 1.15,2.05 1.45,-0.05 3.1,-1.8 2.35,-2.5 3.85,-5.3 l 0.2,-0.35 q 0.35,-1 1.15,-1.5 1,-0.75 2.35,-0.35 1.2,0.4 1.7,1.65 l 0.3,2 0.65,2 q 1.15,2.85 2.5,4.9 0.95,1.4 1.9,1.95 l 1.4,0.4 h 1.3 L 3.35,10.35 3.9,9.15 4.3,8.1 4.5,6.7 4.65,1.9 V 1.8 H 4.45 Q 3.1,1.5 2.1,0.5 0.65,-0.75 -0.05,-2.8 q -0.55,-1.55 -0.5,-3.25 -1,0.55 -1.7,0.7 l -2.1,0.15 -3.05,-0.3 q -1.5,-0.4 -2.25,-1.2 l -0.3,-0.35 -0.65,-1.1 -0.45,-1.55 -0.1,-1.9 0.25,-1.45 0.05,-0.7 0.1,-1.2 0.1,-0.85 0.3,-0.8 q 0.45,-0.55 1.25,-0.65 0.5,0 0.75,0.2 0.3,0.25 0.3,0.7 l -0.2,0.6 -0.05,0.95 0.05,0.4 0.1,0.85 0.15,1.25 v 0.05 q 0.2,1.3 0.85,1.7 0.25,0.25 0.75,0.35 2.45,0.7 4.25,-0.8 l 1.15,-1.1 0.1,-0.1 q 0.65,-0.5 1.35,-0.6 l 1.4,0.05 q 0.7,0.2 1.2,0.8 l 0.55,1.3 q 0.05,0.85 -0.5,1.6 l -0.15,0.2 0.1,1.6 q 0.25,2.05 1.5,3.45 0.8,1 1.65,1.05 l 1,-0.1 q 1.2,-0.4 1.9,-1.25 l 0.1,-0.1 1.05,-1.95 0.7,-2.35 0.65,-2.5 0.4,-2.05 0.95,-2.5 q 0.25,-0.5 0.5,-0.35 1.6,2.8 1.6,6.05 l -0.15,2.65 -0.1,1.25 -0.05,0.35 -0.3,1.55 -0.4,1.4 -0.95,1.3 -1.9,1.75 -1,0.7 v 0.1 l 0.2,1.05 0.75,0.9 0.6,0.5 3,2 q 1.3,0.7 2.1,0.65 H 17 L 17.6,6.1 18.2,5.25 18.25,5 18.5,2.75 V 0.4 L 18.2,-2.3 V -2.4 L 18,-2.85 q -0.25,-0.7 -0.2,-1.4 L 17.65,-5.5 q 0.1,-1.05 1,-1.65 l 1.95,-0.05 0.2,0.15 q 1.05,0.25 2.65,1.5 2.25,1.65 4.2,2.15 l 1.3,0.25 2.15,-0.25 m 9.35,22.85 0.5,-0.75 Q 41.3,17.75 40.6,16.15 38.05,9.8 33.2,4.75 L 31.3,2.5 30.45,2.6 h -2.1 L 27.8,2.55 25.65,2.1 l 0.5,0.7 1.5,2.15 0.2,0.3 1.3,2.35 1.4,1.75 0.25,0.25 0.8,1.05 0.7,1.35 0.35,0.7 q 0.15,0.4 -0.1,0.75 L 31.7,13.55 31,13.05 29.2,12 27.35,10.9 26.3,9.85 26.25,9.8 25.1,8 24.35,6.75 23.4,5.9 22.8,7.95 22.2,8.9 l -0.25,0.35 1.9,2.65 0.05,0.1 2.7,2.9 2.75,2.7 2.35,1.95 q 2.7,1.65 6.65,0.8 1.4,-0.25 2.1,-0.9 m -26.05,-8.4 -0.45,-0.1 -1.15,-0.45 0.05,0.4 0.25,0.5 0.2,0.35 -0.05,0.9 0.4,0.85 0.1,1.1 0.3,0.9 0.25,0.85 0.05,1.15 0.4,1 v 1.4 q -0.1,0.9 0.2,1.65 l 0.3,1.05 q 0.1,0.7 -0.2,1.1 l -0.6,0.35 -0.7,-0.15 H 13.7 L 13.2,23.2 12.5,21.85 Q 12.1,21.15 11.85,20.1 L 9.75,13.8 9.55,12.8 9.1,11.95 8.85,11.2 7.8,13.35 6.6,15.1 l -0.85,0.65 0.3,0.95 1.4,5.75 q 0.7,2.9 1.25,4.25 0.75,1.85 2.95,5.25 0.65,0.9 1.05,1.05 l 1.15,0.15 h 1.7 l 2.3,-0.4 0.4,-0.25 q 1.05,-0.75 1.35,-3.2 0.8,-5.65 0.35,-8.75 l -0.9,-3.9 -1,-3.95 -0.15,-1.4 -1.3,-0.05 -1.65,-0.1 -0.55,-0.1 M -4.05,14.8 q -1.4,-0.95 -2.6,-2.6 l -0.4,10.5 q -0.1,2.15 -0.8,2.95 -0.65,0 -1.25,-0.5 l -0.65,-0.9 -0.3,-2 -0.5,-13.55 -1.85,1.85 -0.1,0.35 -1,3.6 -0.55,2.15 -0.1,2.8 q 0,4.95 0.8,7.5 0.7,2.35 2.1,3.45 l 1.9,0.85 q 1.1,0.15 1.95,-0.3 l 0.3,-0.15 q 0.95,-0.6 1.65,-2.05 1.15,-2.3 2.25,-6.9 l 0.6,-3.05 0.15,-2.65 0.1,-0.45 -1.7,-0.9"
         fill="#000000"
         fill-rule="evenodd"
         stroke="none"
         id="path1" />
      <path
         d="m 45.8,17.25 0.05,0.15 q 0.3,0.9 -0.1,1.75 l 0.05,-1.9 m -76.7,-0.95 -0.6,-0.7 q -0.7,-0.65 -2.25,-0.6 h -0.4 q -1.75,0.1 -2,-0.65 L -36,13.2 q 0.55,-0.95 1.4,-1.5 l 0.5,-0.2 1.15,-0.7 q 1.05,-0.55 1.1,-1.45 l -0.1,-0.8 0.1,-0.1 0.2,-0.35 q 4.6,-7.7 8.65,-15.4 l 2.05,-4.15 0.45,-0.85 3.05,-5.8 q 2.15,-3.65 5.45,-7.75 l 3.45,-4 0.2,-0.2 2.6,-2.95 q 2.4,-2.7 3.95,-3.65 2.25,-1.4 5.05,-1.45 2.8,-0.05 5.1,1.3 l 1.85,1.45 0.2,0.2 2.15,2.65 3,5.4 q 7.7,14.95 18.45,21.25 -0.6,1.35 -2.05,2.1 l -0.85,0.35 -0.35,-0.2 -3.1,-2.3 -2.9,-1.7 -3.1,-2.55 -2,-1.85 -3.35,-3.5 -1.75,-2.4 -0.2,0.1 q -2.4,1.9 -5.45,1.6 -2.2,-0.2 -3.8,-1.5 l -1.25,1.55 -2.4,2.55 -1,0.8 q -0.7,0.1 -1.35,0.6 l -0.1,0.1 q -1.55,0.6 -3.4,0.6 -2.15,0 -3.6,-0.75 v -0.05 l -0.15,-1.25 -0.1,-0.85 -0.05,-0.4 0.05,-0.95 0.2,-0.6 q 0,-0.45 -0.3,-0.7 -0.25,-0.2 -0.75,-0.2 -0.8,0.1 -1.25,0.65 l -0.3,0.8 -0.1,0.85 -0.1,1.2 -0.05,0.7 -0.25,1.45 0.1,1.9 0.45,1.55 0.65,1.1 0.3,0.35 -0.15,0.55 q -0.8,3.35 -2.05,5.75 -0.8,1.45 -1.7,1.9 l -1.95,0.25 -2.6,-0.3 -0.2,-0.05 1.2,-5.15 q 0.2,-1.4 -0.2,-1.95 l -0.25,-0.25 q -0.4,-0.35 -1.15,-0.4 -1.45,-0.1 -2.45,1 -0.6,0.6 -1.05,1.8 l -0.05,0.2 q -1.45,3.6 -1.75,7.3 l -0.8,1.05 -2.15,2.95 -2.4,2.85 0.05,0.7 q 0.1,1.45 -0.05,2.15 -0.3,1.65 -1.55,2.65 M 28.35,2.6 h 2.1 l 0.85,-0.1 1.9,2.25 q 4.85,5.05 7.4,11.4 0.7,1.6 0.35,2.55 L 40.45,19.45 40.4,19.4 39.45,18.25 38.55,17 36.45,14.65 34.65,12.5 32.45,10.5 30.9,8.75 29.2,6.35 Q 28.6,5.5 28.4,4.65 28.05,3.5 28.35,2.6 m -10.5,30.15 q -0.4,-0.5 -0.5,-1.15 -0.1,-0.5 -0.05,-1.35 L 17.35,28.85 17.1,27.4 V 27.35 L 17,24.65 16.95,21.9 16.6,20 15.25,15 14.4,13 14.3,12.4 q -0.1,-0.75 0.1,-1.35 l 0.55,0.1 1.65,0.1 1.3,0.05 0.15,1.4 1,3.95 0.9,3.9 q 0.45,3.1 -0.35,8.75 -0.3,2.45 -1.35,3.2 l -0.4,0.25 M -7.1,30.8 l -0.45,-1 q -0.05,-0.7 0.3,-1.5 l 0.65,-2 0.25,-1.6 0.55,-1.35 0.45,-2 0.4,-1.95 0.45,-1.25 0.25,-2.25 0.15,-0.95 0.05,-0.15 1.7,0.9 -0.1,0.45 -0.15,2.65 -0.6,3.05 q -1.1,4.6 -2.25,6.9 -0.7,1.45 -1.65,2.05"
         fill="#ffffff"
         fill-rule="evenodd"
         stroke="none"
         id="path2" />
      <path
         d="m -30.9,16.3 q 1.25,-1 1.55,-2.65 0.15,-0.7 0.05,-2.15 l -0.05,-0.7 2.4,-2.85 L -24.8,5 -24,3.95 -24.05,4.3 q -0.2,3.15 0.65,4.75 l 1.65,2.1 0.95,0.85 q -1.8,0.8 -3.4,1.2 -1.85,0.45 -2.5,0.8 l -0.5,0.4 -0.65,0.95 -0.15,0.8 0.35,1.1 q 0.35,0.75 0.35,1.1 l -0.1,0.85 -0.2,0.8 -0.15,2.15 q -0.2,1.7 -1.7,2.85 -1.45,1.15 -3.15,0.95 -1.05,-0.2 -1.45,-0.7 -0.7,-0.95 0.25,-2.85 l 1.3,-2.15 0.95,-1 0.8,-1.05 0.15,-0.5 -0.1,-0.9 -0.2,-0.5 m 12.6,-14.9 0.2,0.05 2.6,0.3 1.95,-0.25 q 0.9,-0.45 1.7,-1.9 1.25,-2.4 2.05,-5.75 l 0.15,-0.55 q 0.75,0.8 2.25,1.2 l 3.05,0.3 2.1,-0.15 q 0.7,-0.15 1.7,-0.7 -0.05,1.7 0.5,3.25 0.7,2.05 2.15,3.3 1,1 2.35,1.3 h 0.2 V 1.9 L 4.5,6.7 4.3,8.1 3.9,9.15 3.35,10.35 2.45,11.2 h -1.3 l -1.4,-0.4 Q -1.2,10.25 -2.15,8.85 -3.5,6.8 -4.65,3.95 l -0.65,-2 -0.3,-2 q -0.5,-1.25 -1.7,-1.65 -1.35,-0.4 -2.35,0.35 -0.8,0.5 -1.15,1.5 L -11,0.5 q -1.5,2.8 -3.85,5.3 -1.65,1.75 -3.1,1.8 -1.05,-1.25 -1.15,-2.05 -0.1,-0.6 0.2,-1.8 L -18.3,1.4 M -8,-12.25 q 1.45,0.75 3.6,0.75 1.85,0 3.4,-0.6 l -1.15,1.1 q -1.8,1.5 -4.25,0.8 -0.5,-0.1 -0.75,-0.35 -0.65,-0.4 -0.85,-1.7 m 8.45,-0.55 1,-0.8 2.4,-2.55 1.25,-1.55 q 1.6,1.3 3.8,1.5 3.05,0.3 5.45,-1.6 l 0.2,-0.1 1.75,2.4 3.35,3.5 2,1.85 3.1,2.55 2.9,1.7 3.1,2.3 0.35,0.2 -2.15,0.25 -1.3,-0.25 q -1.95,-0.5 -4.2,-2.15 -1.6,-1.25 -2.65,-1.5 l -0.2,-0.15 -1.95,0.05 q -0.9,0.6 -1,1.65 l 0.15,1.25 q -0.05,0.7 0.2,1.4 l 0.2,0.45 v 0.1 l 0.3,2.7 V 2.75 L 18.25,5 18.2,5.25 17.6,6.1 17,6.3 h -0.15 q -0.8,0.05 -2.1,-0.65 l -3,-2 -0.6,-0.5 L 10.4,2.25 10.2,1.2 V 1.1 l 1,-0.7 1.9,-1.75 0.95,-1.3 0.4,-1.4 0.3,-1.55 0.05,-0.35 0.1,-1.25 0.15,-2.65 q 0,-3.25 -1.6,-6.05 -0.25,-0.15 -0.5,0.35 l -0.95,2.5 -0.4,2.05 -0.65,2.5 -0.7,2.35 -1.05,1.95 -0.1,0.1 q -0.7,0.85 -1.9,1.25 l -1,0.1 Q 5.35,-2.8 4.55,-3.8 3.3,-5.2 3.05,-7.25 l -0.1,-1.6 0.15,-0.2 q 0.55,-0.75 0.5,-1.6 l -0.55,-1.3 q -0.5,-0.6 -1.2,-0.8 l -1.4,-0.05 m 27.9,15.4 q -0.3,0.9 0.05,2.05 0.2,0.85 0.8,1.7 l 1.7,2.4 1.55,1.75 2.2,2 1.8,2.15 2.1,2.35 0.9,1.25 0.95,1.15 0.05,0.05 q -0.7,0.65 -2.1,0.9 -3.95,0.85 -6.65,-0.8 L 29.35,17.6 26.6,14.9 23.9,12 23.85,11.9 21.95,9.25 22.2,8.9 22.8,7.95 23.4,5.9 24.35,6.75 25.1,8 l 1.15,1.8 0.05,0.05 1.05,1.05 1.85,1.1 1.8,1.05 0.7,0.5 0.85,-0.1 Q 32.8,13.1 32.65,12.7 L 32.3,12 31.6,10.65 30.8,9.6 30.55,9.35 29.15,7.6 27.85,5.25 27.65,4.95 26.15,2.8 25.65,2.1 27.8,2.55 28.35,2.6 m -10.5,30.15 -2.3,0.4 h -1.7 L 12.7,33 Q 12.3,32.85 11.65,31.95 9.45,28.55 8.7,26.7 8.15,25.35 7.45,22.45 L 6.05,16.7 5.75,15.75 6.6,15.1 7.8,13.35 8.85,11.2 l 0.25,0.75 0.45,0.85 0.2,1 2.1,6.3 q 0.25,1.05 0.65,1.75 l 0.7,1.35 0.5,0.7 h 0.05 l 0.7,0.15 0.6,-0.35 q 0.3,-0.4 0.2,-1.1 l -0.3,-1.05 q -0.3,-0.75 -0.2,-1.65 v -1.4 l -0.4,-1 -0.05,-1.15 -0.25,-0.85 -0.3,-0.9 -0.1,-1.1 -0.4,-0.85 0.05,-0.9 -0.2,-0.35 -0.25,-0.5 -0.05,-0.4 1.15,0.45 0.45,0.1 q -0.2,0.6 -0.1,1.35 l 0.1,0.6 0.85,2 1.35,5 0.35,1.9 0.05,2.75 0.1,2.7 v 0.05 l 0.25,1.45 -0.05,1.4 q -0.05,0.85 0.05,1.35 0.1,0.65 0.5,1.15 M -7.1,30.8 -7.4,30.95 q -0.85,0.45 -1.95,0.3 l -1.9,-0.85 q -1.4,-1.1 -2.1,-3.45 -0.8,-2.55 -0.8,-7.5 l 0.1,-2.8 0.55,-2.15 1,-3.6 0.1,-0.35 1.85,-1.85 0.5,13.55 0.3,2 0.65,0.9 q 0.6,0.5 1.25,0.5 0.7,-0.8 0.8,-2.95 l 0.4,-10.5 q 1.2,1.65 2.6,2.6 l -0.05,0.15 -0.15,0.95 -0.25,2.25 -0.45,1.25 -0.4,1.95 -0.45,2 -0.55,1.35 -0.25,1.6 -0.65,2 q -0.35,0.8 -0.3,1.5 l 0.45,1"
         fill="#cdcdcd"
         fill-rule="evenodd"
         stroke="none"
         id="path3" />
    </g>
    <g
       id="sprite1"
       transform="translate(17.4,15.85)">
      <use
         ffdec:characterId="31"
         height="57.200001"
         transform="matrix(0.5366,0,0,0.5366,-16.6582,-14.546)"
         width="70.75"
         xlink:href="#sprite2"
         id="use3" />
    </g>
    <g
       id="sprite2"
       transform="translate(-8.65,-10.35)">
      <use
         ffdec:characterId="30"
         height="57.200001"
         transform="translate(8.65,10.35)"
         width="70.75"
         xlink:href="#shape1"
         id="use4" />
    </g>
    <g
       id="shape1"
       transform="translate(-8.65,-10.35)">
      <path
         d="m 14.8,41.7 q 0.65,-1.75 2.65,-2.5 1.8,-0.8 3.7,-0.25 1.15,0.45 2.25,1.2 l 0.9,0.4 q 1.65,0.9 2.85,2.5 L 37.8,30.1 q 2.35,-2.8 3.75,-3.95 1.5,-1.15 4.25,-2.4 18.2,-8.85 27.65,-12.6 2.15,-0.8 3.25,-0.8 h 0.8 l 1.9,2.4 -0.2,0.8 q -0.2,1.1 -1.55,3 -5.85,8.25 -18.85,23.8 -1.85,2.35 -3.35,3.5 -1.4,1.15 -4.75,2.75 l -15.15,7.15 q 1.2,1.6 1.75,3.4 l 0.2,1 0.55,2.5 q 0.1,1.95 -1.1,3.55 -1.2,1.65 -3.05,1.9 l -1.3,0.05 q -1.65,0.2 -3.45,-0.65 -1.85,-0.9 -3,-2.6 L 25,60.95 23.8,62.1 q -2.6,2.85 -4.3,3.95 -2.85,1.8 -5.5,1.45 l -1.65,-0.5 -1.2,-0.7 -0.2,-0.2 q -1,-0.85 -1.6,-1.9 L 9.25,64 9.15,63.8 8.75,62.4 q -0.2,-0.8 -0.05,-1.7 0.25,-2.65 2.7,-5.05 1.5,-1.3 4.9,-3.15 L 17.7,51.55 16.05,50 q -1.35,-1.5 -1.8,-3.6 -0.4,-1.85 0.25,-3.45 l 0.3,-1.25"
         fill="#000000"
         fill-opacity="0.372549"
         fill-rule="evenodd"
         stroke="none"
         id="path4" />
    </g>
  </defs>
</svg>
