<?xml version="1.0" encoding="UTF-8" standalone="no"?>
<svg
   ffdec:objectType="frame"
   height="57.804348"
   width="23.095867"
   version="1.1"
   id="svg5"
   xmlns:xlink="http://www.w3.org/1999/xlink"
   xmlns="http://www.w3.org/2000/svg"
   xmlns:svg="http://www.w3.org/2000/svg"
   xmlns:ffdec="https://www.free-decompiler.com/flash">
  <g
     transform="translate(13.295868,27.95)"
     id="g1">
    <use
       ffdec:characterId="17"
       height="119.15"
       id="rarity"
       transform="translate(-58.5,-60.65)"
       width="119.15"
       xlink:href="#sprite0" />
    <use
       ffdec:characterId="168"
       height="57.849998"
       transform="translate(-13.3,-28)"
       width="23.15"
       xlink:href="#shape0"
       id="use1" />
  </g>
  <defs
     id="defs5">
    <g
       id="shape0"
       transform="translate(13,30.5)">
      <path
         d="m 9.4,-12.4 0.3,3.55 0.4,3.5 -0.05,6.75 -0.4,11.1 -0.3,4.8 q -0.3,2.65 -1,4.65 -0.8,2.15 -1.95,3.3 -2.2,2.2 -7.1,2.1 -4.95,0 -7.35,-2.15 -2.2,-2 -3.2,-7.35 -3.25,-17.75 -0.45,-35.65 0.4,-2.95 1.45,-4.35 1.2,-1.55 3.35,-2.15 l -0.05,-1.15 -0.1,-1.2 0.05,-1.25 q 0.4,-1.45 2.4,-2.1 l 2.6,-0.45 h 2.7 q 3.6,0.1 4.75,1.65 1.05,1.4 0.35,4.55 2.35,0.5 3.25,2.1 0.7,1.25 0.5,3.95 -0.25,3.5 -0.15,5.8 m -5.1,9.2 -0.4,-4.95 -0.45,-5.1 v -0.8 q -0.1,-2.35 0.25,-4.2 H 2.15 l -3.25,-0.3 -4.65,0.3 -0.6,7.55 -0.05,0.75 -0.3,5.2 v 1.15 3.3 l 0.2,4.2 q 0.5,7.95 1.8,13.7 0.4,1.9 1.15,2.6 0.95,0.9 3.55,0.9 1.4,0 2,-0.4 0.75,-0.5 1.05,-2.05 0.55,-2.6 0.75,-7.9 L 4.3,-2.6 v -0.6"
         fill="#000000"
         fill-rule="evenodd"
         stroke="none"
         id="path1" />
      <path
         d="m -2.45,-7.9 q 0.65,-0.65 1.65,-0.95 l 2.45,0.1 q 1.2,0.45 1.9,1.6 0.7,1.1 0.6,2.4 l -0.35,1.3 0.5,0.25 v 0.6 L 3.8,10.75 Q 3.6,16.05 3.05,18.65 2.75,20.2 2,20.7 1.4,21.1 0,21.1 -2.6,21.1 -3.55,20.2 -4.3,19.5 -4.7,17.6 -6,11.85 -6.5,3.9 l -0.2,-4.2 v -3.3 l 1.05,-0.45 2.1,-0.4 -0.05,-0.6 q 0,-1.3 0.7,-2.3 l 0.05,-0.1 0.4,-0.45 m 1.15,-7.35 q 0.45,0.5 0.65,1.2 0.25,0.85 0,1.7 -0.4,1.3 -1.6,1.7 l -2.35,-0.2 -0.75,-0.8 -0.25,-0.5 q -0.35,-0.9 -0.15,-1.8 0.2,-0.95 0.9,-1.5 0.65,-0.55 1.6,-0.55 0.95,-0.05 1.65,0.5 l 0.3,0.25"
         fill="#8e9d7d"
         fill-rule="evenodd"
         stroke="none"
         id="path2" />
      <path
         d="M 3.45,-14.05 2.5,-13 0.1,-10.7 q -1.2,0.85 -1.5,1.3 l -0.5,0.85 -0.55,0.65 -0.4,0.45 -0.05,0.1 -0.75,0.85 q -1.25,1.55 -2.25,1.75 h -0.8 l 0.3,-5.2 0.05,-0.75 1,-0.95 0.75,0.8 2.35,0.2 q 1.2,-0.4 1.6,-1.7 0.25,-0.85 0,-1.7 -0.2,-0.7 -0.65,-1.2 l 0.55,-0.6 1.45,-1.2 1.15,-0.95 0.3,-0.25 H 3.7 q -0.35,1.85 -0.25,4.2"
         fill="#ffffff"
         fill-rule="evenodd"
         stroke="none"
         id="path3" />
      <path
         d="m -2.45,-7.9 0.55,-0.65 0.5,-0.85 q 0.3,-0.45 1.5,-1.3 l 2.4,-2.3 0.95,-1.05 v 0.8 l 0.45,5.1 0.4,4.95 -0.5,-0.25 0.35,-1.3 q 0.1,-1.3 -0.6,-2.4 -0.7,-1.15 -1.9,-1.6 l -2.45,-0.1 q -1,0.3 -1.65,0.95 m 4.6,-10.35 -0.3,0.25 -1.15,0.95 -1.45,1.2 -0.55,0.6 -0.3,-0.25 q -0.7,-0.55 -1.65,-0.5 -0.95,0 -1.6,0.55 -0.7,0.55 -0.9,1.5 -0.2,0.9 0.15,1.8 l 0.25,0.5 -1,0.95 0.6,-7.55 4.65,-0.3 3.25,0.3 m -8.85,13.5 h 0.8 q 1,-0.2 2.25,-1.75 l 0.75,-0.85 q -0.7,1 -0.7,2.3 l 0.05,0.6 -2.1,0.4 -1.05,0.45 v -1.15"
         fill="#ffffff"
         fill-opacity="0"
         fill-rule="evenodd"
         stroke="none"
         id="path4" />
    </g>
    <g
       id="sprite1"
       transform="translate(17.4,15.85)">
      <use
         ffdec:characterId="31"
         height="57.200001"
         transform="matrix(0.5366,0,0,0.5366,-16.6582,-14.546)"
         width="70.75"
         xlink:href="#sprite2"
         id="use4" />
    </g>
    <g
       id="sprite2"
       transform="translate(-8.65,-10.35)">
      <use
         ffdec:characterId="30"
         height="57.200001"
         transform="translate(8.65,10.35)"
         width="70.75"
         xlink:href="#shape1"
         id="use5" />
    </g>
    <g
       id="shape1"
       transform="translate(-8.65,-10.35)">
      <path
         d="m 14.8,41.7 q 0.65,-1.75 2.65,-2.5 1.8,-0.8 3.7,-0.25 1.15,0.45 2.25,1.2 l 0.9,0.4 q 1.65,0.9 2.85,2.5 L 37.8,30.1 q 2.35,-2.8 3.75,-3.95 1.5,-1.15 4.25,-2.4 18.2,-8.85 27.65,-12.6 2.15,-0.8 3.25,-0.8 h 0.8 l 1.9,2.4 -0.2,0.8 q -0.2,1.1 -1.55,3 -5.85,8.25 -18.85,23.8 -1.85,2.35 -3.35,3.5 -1.4,1.15 -4.75,2.75 l -15.15,7.15 q 1.2,1.6 1.75,3.4 l 0.2,1 0.55,2.5 q 0.1,1.95 -1.1,3.55 -1.2,1.65 -3.05,1.9 l -1.3,0.05 q -1.65,0.2 -3.45,-0.65 -1.85,-0.9 -3,-2.6 L 25,60.95 23.8,62.1 q -2.6,2.85 -4.3,3.95 -2.85,1.8 -5.5,1.45 l -1.65,-0.5 -1.2,-0.7 -0.2,-0.2 q -1,-0.85 -1.6,-1.9 L 9.25,64 9.15,63.8 8.75,62.4 q -0.2,-0.8 -0.05,-1.7 0.25,-2.65 2.7,-5.05 1.5,-1.3 4.9,-3.15 L 17.7,51.55 16.05,50 q -1.35,-1.5 -1.8,-3.6 -0.4,-1.85 0.25,-3.45 l 0.3,-1.25"
         fill="#000000"
         fill-opacity="0.372549"
         fill-rule="evenodd"
         stroke="none"
         id="path5" />
    </g>
  </defs>
</svg>
