<?xml version="1.0" encoding="UTF-8" standalone="no"?>
<svg
   ffdec:objectType="frame"
   height="85.368088"
   width="76.623108"
   version="1.1"
   id="svg4"
   sodipodi:docname="ITEM Amoeba.svg"
   xmlns:inkscape="http://www.inkscape.org/namespaces/inkscape"
   xmlns:sodipodi="http://sodipodi.sourceforge.net/DTD/sodipodi-0.dtd"
   xmlns:xlink="http://www.w3.org/1999/xlink"
   xmlns="http://www.w3.org/2000/svg"
   xmlns:svg="http://www.w3.org/2000/svg"
   xmlns:ffdec="https://www.free-decompiler.com/flash">
  <sodipodi:namedview
     id="namedview4"
     pagecolor="#ffffff"
     bordercolor="#000000"
     borderopacity="0.25"
     inkscape:showpageshadow="2"
     inkscape:pageopacity="0.0"
     inkscape:pagecheckerboard="0"
     inkscape:deskcolor="#d1d1d1"
     fit-margin-top="5"
     fit-margin-left="5"
     fit-margin-right="5"
     fit-margin-bottom="5" />
  <g
     transform="translate(38.253879,45.618085)"
     id="g1">
    <use
       ffdec:characterId="17"
       height="119.15"
       id="rarity"
       transform="translate(-58.5,-60.65)"
       width="119.15"
       xlink:href="#sprite0" />
    <use
       ffdec:characterId="813"
       height="85.349998"
       transform="translate(-38.25,-45.6)"
       width="76.599998"
       xlink:href="#shape0"
       id="use1" />
  </g>
  <defs
     id="defs4">
    <g
       id="shape0"
       transform="translate(38.8,46.35)">
      <path
         d="m 16.9,35.35 -2.05,-0.3 -2.1,0.25 q -0.6,0.2 -1.35,0.7 l -1.3,0.85 Q 8.8,37.7 5.6,38.4 l -5,0.6 -2.7,-0.65 -2.65,-0.8 -3.7,-0.25 -3.7,0.3 q -7.8,0.85 -12.7,-0.3 -7.1,-1.65 -10.5,-6.75 L -37.2,26.6 q -3.05,-9.1 -0.3,-20.9 1.1,-4.45 2.6,-7.1 1.5,-2.5 4.2,-5.05 6.45,-6.05 15.35,-9 l -0.95,-2.5 q -2.6,-7.35 -3.15,-11.65 -0.35,-2.35 -0.35,-6.1 -0.1,-2.4 0.25,-3.9 0.8,-3.25 3.45,-5.15 2.75,-1.95 6,-1.55 2.6,0.35 4.05,2 0.95,1.15 1.1,2.7 0.15,1.6 -0.55,2.9 -1.05,1.85 -3.8,2.95 -1.55,0.6 -4.75,1.3 -0.25,2 0.4,5.45 1.15,6.2 3.2,12.2 7.75,-1.7 16.6,-0.9 7.95,0.75 13.65,3.35 7,3.05 11,8.65 1.65,2.3 3.2,5.9 3.35,7.65 3.75,13.9 0.3,4.2 -0.7,8.5 -0.7,3 -2.05,5.4 -1.35,2.55 -3.75,4.7 -1.95,1.7 -3.85,2.35 l -4.55,0.5 -5.95,-0.2 M -0.5,2.45 -1.9,0.75 -2.35,-1.1 q -0.3,-2.1 0.1,-3.05 Q -1.9,-5.2 -0.6,-6.3 L 1,-7.7 Q 3.25,-9.3 5.85,-9.15 8.6,-9 10.3,-6.95 l 1.1,1.8 0.6,1.75 q 0.15,1 -0.05,1.85 Q 11.65,0.25 10.6,1.6 9.15,3.7 6.55,4.25 L 4.55,4.4 2.9,4.2 1.15,3.6 -0.5,2.45 m -29.05,25 q 2.6,3.75 8.3,4.45 2.05,0.25 4.8,0.1 l 4.8,-0.4 9.6,0.45 1.65,0.5 1.6,0.4 3.2,-0.35 Q 6.85,32.05 8.15,31.3 L 9.8,30.2 q 1.05,-0.75 1.8,-1 l 2.55,-0.2 2.65,0.4 6.35,0.3 2.6,-0.35 1.8,-1.15 q 4.35,-3.9 4.7,-10.85 0.25,-5 -2.2,-11.9 -2.6,-7.15 -6.35,-10.4 -1.25,-1.1 -3.25,-2.25 L 17.2,-8.7 q -9.2,-3.6 -18.8,-3.1 -6.9,0.35 -13.15,2.85 -6.55,2.6 -11.4,7.1 -2.1,1.9 -3,3.55 -1.1,1.85 -1.85,5.2 -1.7,7 -1.3,11.4 l 0.8,4.45 q 0.85,3.05 1.95,4.7"
         fill="#000000"
         fill-rule="evenodd"
         stroke="none"
         id="path1" />
      <path
         d="m -11.2,-3.6 q -0.85,-1.1 -2.5,-1.25 l -1.75,0.1 -1.9,0.25 -1.95,0.85 -3.35,2.45 q -2.4,2.15 -2.6,4.3 -0.15,2.15 1.45,3.6 1.4,1.15 3.35,1.15 1.65,0 3.5,-0.75 1.85,-0.8 3.55,-2.2 2.1,-1.85 2.7,-3.9 l 0.25,-1.8 q 0,-1.8 -0.75,-2.8 m -18.35,31.05 q -1.1,-1.65 -1.95,-4.7 l -0.8,-4.45 q -0.4,-4.4 1.3,-11.4 0.75,-3.35 1.85,-5.2 0.9,-1.65 3,-3.55 4.85,-4.5 11.4,-7.1 6.25,-2.5 13.15,-2.85 9.6,-0.5 18.8,3.1 l 3.25,1.5 q 2,1.15 3.25,2.25 3.75,3.25 6.35,10.4 2.45,6.9 2.2,11.9 -0.35,6.95 -4.7,10.85 l -1.8,1.15 -2.6,0.35 L 16.8,29.4 14.15,29 11.6,29.2 q -0.75,0.25 -1.8,1 l -1.65,1.1 q -1.3,0.75 -3.75,1.3 l -3.2,0.35 -1.6,-0.4 -1.65,-0.5 -9.6,-0.45 -4.8,0.4 q -2.75,0.15 -4.8,-0.1 -5.7,-0.7 -8.3,-4.45 M -0.5,2.45 1.15,3.6 2.9,4.2 4.55,4.4 6.55,4.25 Q 9.15,3.7 10.6,1.6 11.65,0.25 11.95,-1.55 12.15,-2.4 12,-3.4 l -0.6,-1.75 -1.1,-1.8 Q 8.6,-9 5.85,-9.15 3.25,-9.3 1,-7.7 l -1.6,1.4 q -1.3,1.1 -1.65,2.15 -0.4,0.95 -0.1,3.05 l 0.45,1.85 1.4,1.7 m -22.9,15.8 q 0.5,-1.3 -0.35,-2.45 -0.8,-1.15 -2.2,-1.15 -1.2,0 -1.95,0.85 -0.8,0.85 -0.7,2.05 0.1,0.9 0.75,1.6 0.65,0.75 1.55,0.85 0.9,0.1 1.75,-0.4 0.8,-0.5 1.15,-1.35"
         fill="#5f645e"
         fill-opacity="0.498039"
         fill-rule="evenodd"
         stroke="none"
         id="path2" />
      <path
         d="m -11.2,-3.6 q 0.75,1 0.75,2.8 L -10.7,1 q -0.6,2.05 -2.7,3.9 -1.7,1.4 -3.55,2.2 -1.85,0.75 -3.5,0.75 -1.95,0 -3.35,-1.15 -1.6,-1.45 -1.45,-3.6 0.2,-2.15 2.6,-4.3 l 3.35,-2.45 1.95,-0.85 1.9,-0.25 1.75,-0.1 q 1.65,0.15 2.5,1.25 m -12.2,21.85 q -0.35,0.85 -1.15,1.35 -0.85,0.5 -1.75,0.4 -0.9,-0.1 -1.55,-0.85 -0.65,-0.7 -0.75,-1.6 -0.1,-1.2 0.7,-2.05 0.75,-0.85 1.95,-0.85 1.4,0 2.2,1.15 0.85,1.15 0.35,2.45"
         fill="#ffffff"
         fill-opacity="0.498039"
         fill-rule="evenodd"
         stroke="none"
         id="path3" />
    </g>
    <g
       id="sprite1"
       transform="translate(17.4,15.85)">
      <use
         ffdec:characterId="31"
         height="57.200001"
         transform="matrix(0.5366,0,0,0.5366,-16.6582,-14.546)"
         width="70.75"
         xlink:href="#sprite2"
         id="use3" />
    </g>
    <g
       id="sprite2"
       transform="translate(-8.65,-10.35)">
      <use
         ffdec:characterId="30"
         height="57.200001"
         transform="translate(8.65,10.35)"
         width="70.75"
         xlink:href="#shape1"
         id="use4" />
    </g>
    <g
       id="shape1"
       transform="translate(-8.65,-10.35)">
      <path
         d="m 14.8,41.7 q 0.65,-1.75 2.65,-2.5 1.8,-0.8 3.7,-0.25 1.15,0.45 2.25,1.2 l 0.9,0.4 q 1.65,0.9 2.85,2.5 L 37.8,30.1 q 2.35,-2.8 3.75,-3.95 1.5,-1.15 4.25,-2.4 18.2,-8.85 27.65,-12.6 2.15,-0.8 3.25,-0.8 h 0.8 l 1.9,2.4 -0.2,0.8 q -0.2,1.1 -1.55,3 -5.85,8.25 -18.85,23.8 -1.85,2.35 -3.35,3.5 -1.4,1.15 -4.75,2.75 l -15.15,7.15 q 1.2,1.6 1.75,3.4 l 0.2,1 0.55,2.5 q 0.1,1.95 -1.1,3.55 -1.2,1.65 -3.05,1.9 l -1.3,0.05 q -1.65,0.2 -3.45,-0.65 -1.85,-0.9 -3,-2.6 L 25,60.95 23.8,62.1 q -2.6,2.85 -4.3,3.95 -2.85,1.8 -5.5,1.45 l -1.65,-0.5 -1.2,-0.7 -0.2,-0.2 q -1,-0.85 -1.6,-1.9 L 9.25,64 9.15,63.8 8.75,62.4 q -0.2,-0.8 -0.05,-1.7 0.25,-2.65 2.7,-5.05 1.5,-1.3 4.9,-3.15 L 17.7,51.55 16.05,50 q -1.35,-1.5 -1.8,-3.6 -0.4,-1.85 0.25,-3.45 l 0.3,-1.25"
         fill="#000000"
         fill-opacity="0.372549"
         fill-rule="evenodd"
         stroke="none"
         id="path4" />
    </g>
  </defs>
</svg>
