<?xml version="1.0" encoding="UTF-8" standalone="no"?>
<svg
   ffdec:objectType="frame"
   height="80.353386"
   width="71.799416"
   version="1.1"
   id="svg6"
   xmlns:xlink="http://www.w3.org/1999/xlink"
   xmlns="http://www.w3.org/2000/svg"
   xmlns:svg="http://www.w3.org/2000/svg"
   xmlns:ffdec="https://www.free-decompiler.com/flash">
  <g
     transform="translate(38.975,40.480769)"
     id="g1">
    <use
       ffdec:characterId="17"
       height="119.15"
       id="rarity"
       transform="translate(-58.5,-60.65)"
       width="119.15"
       xlink:href="#sprite0" />
    <use
       ffdec:characterId="132"
       height="80.349998"
       transform="translate(-39,-40.5)"
       width="71.800003"
       xlink:href="#shape0"
       id="use1" />
  </g>
  <defs
     id="defs6">
    <g
       id="shape0"
       transform="translate(38.7,43)">
      <path
         d="m 33.05,4 q 0.4,4.7 -1.35,10.25 -2.8,9.4 -8.55,14.8 -9.65,9.1 -28.35,8.25 -10.8,-0.4 -18.4,-4.1 -4.45,-2.1 -7.85,-5.35 -3.55,-3.5 -5.3,-7.8 -1.35,-3.25 -1.8,-7.95 -0.5,-6 1,-11.9 1.45,-5.85 4.7,-10.95 3.25,-5.1 8.05,-8.9 4.75,-3.85 10.4,-5.9 -2.95,-1.45 -4.65,-3.9 -1.95,-2.75 -1.4,-5.55 0.7,-3.5 4.8,-5.8 2.75,-1.55 5.9,-1.9 l 6.15,0.55 q 2.95,0.9 5.4,2.95 2.45,2 3.9,4.75 3.3,-3.75 5.7,-5.55 3.5,-2.65 6.95,-2.95 2.3,-0.2 3.45,0.9 1.6,1.45 0.9,5.1 -1.85,9.8 -8.5,17.05 4.4,1.5 9.3,6.3 8.75,8.75 9.55,17.6 m -15.2,-41.75 q -6.1,3.45 -10.2,9.25 -1.5,2.2 -2.5,2.9 -0.85,0.55 -1.85,0.55 -1.1,0 -1.75,-0.7 -0.5,-0.55 -0.65,-1.5 L 0.75,-29 Q 0.5,-31.25 -0.85,-33.15 -2.2,-35.1 -4.3,-36 q -2.05,-0.95 -4.4,-0.7 -2.35,0.25 -4.2,1.6 -1.05,0.65 -1.05,1.5 -0.05,0.75 1.15,1.75 2.65,1.95 5.3,3.45 l 3.1,2.15 q 1.55,1.7 0.95,3.45 -0.5,1.65 -2.7,2.2 l -1.8,0.3 -1.8,0.15 q -3.25,0.4 -7.05,2.75 l -2.95,2 -3.9,3.25 Q -29,-6.9 -31.1,0.6 q -2.05,7.5 -0.1,14.75 1.1,4.35 3.35,7.05 2.9,3.55 8.95,5.8 7.15,2.6 16.75,2.85 6.45,0.2 10.85,-1 8.15,-2.2 13.15,-8.75 5.15,-6.7 5.15,-15 0,-2.25 -0.4,-4 -1.15,-5.2 -6.95,-11.2 -3.9,-3.9 -7.1,-4.95 L 9.2,-14.9 8.55,-15.2 q -1.2,-0.7 -1.5,-1.85 -0.35,-1.4 0.75,-2.85 l 2.4,-2.35 q 5.5,-4.8 7.75,-15.45 v -0.15 l -0.1,0.1 m -29.6,53.35 -0.7,0.2 q -1,0.1 -1.8,-0.45 -1.15,-0.75 -2,-2.9 -1.9,-4.3 -2.55,-5.3 l -1.55,-2.8 Q -21,2.65 -20.3,1.5 q 0.8,-1.45 3.6,-1.55 4.5,-0.15 8,2.5 l 0.85,0.3 q 0.3,-0.2 0.3,-0.6 l 1.7,-6.25 q 1.2,-4.05 3.3,-4.4 2,-0.3 3.2,1.8 0.75,1.2 1.05,3.8 L 2.05,3.3 2.9,2.1 q 1.75,-2.3 3.15,-3 l 2.2,-0.35 q 1.25,0.15 1.85,1 0.7,0.75 0.6,2.4 0,2.35 -0.95,5.25 l -1.95,5.05 -1.25,2.4 q -1,1.25 -2.3,1.25 H 3.95 Q 3.45,16 3,15.6 2.45,15.1 2.45,14.45 2.45,13.9 3.15,12.8 5.15,9.6 5.75,5.85 4.65,6.5 3.5,8.75 2.55,11 1.5,11.8 0.75,12.4 -0.25,12.4 h -0.3 L -1,12.35 H -1.1 Q -2.1,12.1 -2.4,10.8 V 9.45 l 0.1,-0.9 Q -1.8,4.95 -2.4,1.1 L -4.05,7.8 -4.5,9.3 q -0.7,1.45 -1.9,1.5 -1.05,0.05 -2.45,-1.6 L -9,9.05 q -1.8,-2.1 -4.15,-3.5 L -14.1,5 l 0.4,0.75 q 1.2,2.25 2.05,4.55 l 0.65,2.05 0.25,1 q 0.1,1 -0.25,1.6 l -0.75,0.65"
         fill="#000000"
         fill-rule="evenodd"
         stroke="none"
         id="path1" />
      <path
         d="m 3.95,16.1 q -3.1,2.8 -9.3,2.2 -3.85,-0.3 -5.8,-2.05 l -0.6,-0.65 0.75,-0.65 q 0.35,-0.6 0.25,-1.6 l -0.25,-1 -0.65,-2.05 Q -12.5,8 -13.7,5.75 l 0.2,-0.1 0.35,-0.1 q 2.35,1.4 4.15,3.5 l 0.15,0.15 q 1.4,1.65 2.45,1.6 1.2,-0.05 1.9,-1.5 L -4.05,7.8 -2.4,1.1 q 0.6,3.85 0.1,7.45 l -0.1,0.9 v 1.35 q 0.3,1.3 1.3,1.55 H -1 l 0.45,0.05 h 0.3 q 1,0 1.75,-0.6 1.05,-0.8 2,-3.05 1.15,-2.25 2.25,-2.9 -0.6,3.75 -2.6,6.95 -0.7,1.1 -0.7,1.65 0,0.65 0.55,1.15 0.45,0.4 0.95,0.5"
         fill="#708367"
         fill-rule="evenodd"
         stroke="none"
         id="path2" />
      <path
         d="m -17.45,15.95 -1.45,-1.35 -1.25,-1.5 q -0.7,-1.1 -1.2,-3.8 l -0.5,-3.7 q -0.1,-2.1 0.35,-3.7 0.6,-2.15 2.5,-4.2 l 3.8,-3.4 q 3.65,-2.75 6.05,-3.3 l 2.65,-0.25 h 2.65 L 1,-9.2 q 4,0.5 7.35,3.3 3.25,2.7 4.75,6.55 1.7,4.6 0.65,9 -1.1,4.8 -4.8,7.65 l -3.8,2.3 q -3.55,1.8 -5.5,2.25 -5,1.15 -11,-1.25 -2.65,-1 -4.05,-2.35 l -2.05,-2.3 m 21.4,0.15 h 0.3 q 1.3,0 2.3,-1.25 L 7.8,12.45 9.75,7.4 Q 10.7,4.5 10.7,2.15 10.8,0.5 10.1,-0.25 9.5,-1.1 8.25,-1.25 l -2.2,0.35 q -1.4,0.7 -3.15,3 L 2.05,3.3 1.7,-2.9 q -0.3,-2.6 -1.05,-3.8 -1.2,-2.1 -3.2,-1.8 -2.1,0.35 -3.3,4.4 l -1.7,6.25 q 0,0.4 -0.3,0.6 L -8.7,2.45 q -3.5,-2.65 -8,-2.5 -2.8,0.1 -3.6,1.55 -0.7,1.15 -0.05,2.85 l 1.55,2.8 q 0.65,1 2.55,5.3 0.85,2.15 2,2.9 0.8,0.55 1.8,0.45 l 0.7,-0.2 0.6,0.65 q 1.95,1.75 5.8,2.05 6.2,0.6 9.3,-2.2 M -13.7,5.75 -14.1,5 l 0.95,0.55 -0.35,0.1 -0.2,0.1"
         fill="#949c91"
         fill-rule="evenodd"
         stroke="none"
         id="path3" />
      <path
         d="m -16.8,-17.4 q 3.8,-2.35 7.05,-2.75 l 1.8,-0.15 1.8,-0.3 q 2.2,-0.55 2.7,-2.2 0.6,-1.75 -0.95,-3.45 l -3.1,-2.15 q -2.65,-1.5 -5.3,-3.45 -1.2,-1 -1.15,-1.75 0,-0.85 1.05,-1.5 1.85,-1.35 4.2,-1.6 2.35,-0.25 4.4,0.7 2.1,0.9 3.45,2.85 1.35,1.9 1.6,4.15 l 0.15,1.75 q 0.15,0.95 0.65,1.5 0.65,0.7 1.75,0.7 1,0 1.85,-0.55 1,-0.7 2.5,-2.9 4.1,-5.8 10.2,-9.25 0,0 0.1,0.05 -2.25,10.65 -7.75,15.45 l -2.4,2.35 q -1.1,1.45 -0.75,2.85 0.3,1.15 1.5,1.85 -2.3,1.55 -5.5,2.9 -2.3,0.95 -4,1.3 l -5.1,0.2 -4.4,-0.5 q -2.7,-0.8 -5,-3.45 -1.35,-1.45 -1.35,-2.65"
         fill="#938376"
         fill-rule="evenodd"
         stroke="none"
         id="path4" />
      <path
         d="m -16.8,-17.4 q 0,1.2 1.35,2.65 2.3,2.65 5,3.45 l 4.4,0.5 5.1,-0.2 q 1.7,-0.35 4,-1.3 3.2,-1.35 5.5,-2.9 l 0.65,0.3 3.35,1.05 q 3.2,1.05 7.1,4.95 5.8,6 6.95,11.2 0.4,1.75 0.4,4 0,8.3 -5.15,15 -5,6.55 -13.15,8.75 -4.4,1.2 -10.85,1 -9.6,-0.25 -16.75,-2.85 -6.05,-2.25 -8.95,-5.8 -2.25,-2.7 -3.35,-7.05 -1.95,-7.25 0.1,-14.75 2.1,-7.5 7.45,-12.75 l 3.9,-3.25 2.95,-2 m -0.65,33.35 2.05,2.3 q 1.4,1.35 4.05,2.35 6,2.4 11,1.25 1.95,-0.45 5.5,-2.25 l 3.8,-2.3 q 3.7,-2.85 4.8,-7.65 1.05,-4.4 -0.65,-9 Q 11.6,-3.2 8.35,-5.9 5,-8.7 1,-9.2 L -3.85,-9.25 H -6.5 L -9.15,-9 q -2.4,0.55 -6.05,3.3 l -3.8,3.4 q -1.9,2.05 -2.5,4.2 -0.45,1.6 -0.35,3.7 l 0.5,3.7 q 0.5,2.7 1.2,3.8 l 1.25,1.5 1.45,1.35"
         fill="#837367"
         fill-rule="evenodd"
         stroke="none"
         id="path5" />
    </g>
    <g
       id="sprite1"
       transform="translate(17.4,15.85)">
      <use
         ffdec:characterId="31"
         height="57.200001"
         transform="matrix(0.5366,0,0,0.5366,-16.6582,-14.546)"
         width="70.75"
         xlink:href="#sprite2"
         id="use5" />
    </g>
    <g
       id="sprite2"
       transform="translate(-8.65,-10.35)">
      <use
         ffdec:characterId="30"
         height="57.200001"
         transform="translate(8.65,10.35)"
         width="70.75"
         xlink:href="#shape1"
         id="use6" />
    </g>
    <g
       id="shape1"
       transform="translate(-8.65,-10.35)">
      <path
         d="m 14.8,41.7 q 0.65,-1.75 2.65,-2.5 1.8,-0.8 3.7,-0.25 1.15,0.45 2.25,1.2 l 0.9,0.4 q 1.65,0.9 2.85,2.5 L 37.8,30.1 q 2.35,-2.8 3.75,-3.95 1.5,-1.15 4.25,-2.4 18.2,-8.85 27.65,-12.6 2.15,-0.8 3.25,-0.8 h 0.8 l 1.9,2.4 -0.2,0.8 q -0.2,1.1 -1.55,3 -5.85,8.25 -18.85,23.8 -1.85,2.35 -3.35,3.5 -1.4,1.15 -4.75,2.75 l -15.15,7.15 q 1.2,1.6 1.75,3.4 l 0.2,1 0.55,2.5 q 0.1,1.95 -1.1,3.55 -1.2,1.65 -3.05,1.9 l -1.3,0.05 q -1.65,0.2 -3.45,-0.65 -1.85,-0.9 -3,-2.6 L 25,60.95 23.8,62.1 q -2.6,2.85 -4.3,3.95 -2.85,1.8 -5.5,1.45 l -1.65,-0.5 -1.2,-0.7 -0.2,-0.2 q -1,-0.85 -1.6,-1.9 L 9.25,64 9.15,63.8 8.75,62.4 q -0.2,-0.8 -0.05,-1.7 0.25,-2.65 2.7,-5.05 1.5,-1.3 4.9,-3.15 L 17.7,51.55 16.05,50 q -1.35,-1.5 -1.8,-3.6 -0.4,-1.85 0.25,-3.45 l 0.3,-1.25"
         fill="#000000"
         fill-opacity="0.372549"
         fill-rule="evenodd"
         stroke="none"
         id="path6" />
    </g>
  </defs>
</svg>
