<?xml version="1.0" encoding="UTF-8" standalone="no"?>
<svg
   ffdec:objectType="frame"
   height="60.186901"
   width="56.484306"
   version="1.1"
   id="svg6"
   xmlns:xlink="http://www.w3.org/1999/xlink"
   xmlns="http://www.w3.org/2000/svg"
   xmlns:svg="http://www.w3.org/2000/svg"
   xmlns:ffdec="https://www.free-decompiler.com/flash">
  <g
     transform="translate(33.539024,34.04901)"
     id="g1">
    <use
       ffdec:characterId="17"
       height="119.15"
       id="rarity"
       transform="translate(-58.5,-60.65)"
       width="119.15"
       xlink:href="#sprite0" />
    <use
       ffdec:characterId="1178"
       height="60.200001"
       transform="translate(-33.55,-34.05)"
       width="56.5"
       xlink:href="#shape0"
       id="use1" />
  </g>
  <defs
     id="defs6">
    <g
       id="shape0"
       transform="translate(32.25,32.15)">
      <path
         d="M 17.25,8.15 17.8,6.6 V 6.4 l 0.05,-0.8 0.05,-0.65 0.25,-0.65 0.1,-0.15 0.4,-5.1 q 0.3,-6.7 -2,-12.9 -0.15,-0.45 -0.15,-0.95 -1.35,-5.1 -5.15,-8.65 -3.65,-3.35 -8.7,-2.6 -4.2,0.55 -8,2.7 l -1.55,1.4 q -2.2,1.65 -3.35,4.05 l -1.05,2.4 -0.2,2.3 q -0.45,3.4 0.15,6.8 l 0.5,3.8 q 0.65,5.05 4,8.7 l 4.45,5 q 0.4,0.5 0.2,1.1 l -0.05,0.15 q -1.1,3.1 -4.45,1.25 l -2.2,-1.4 -1.25,-1 Q -12.25,9.35 -13.7,7.15 L -18.3,9 q -7.25,2.9 -8.05,10.2 l -0.05,0.1 0.25,1.45 q 0.6,0.6 1.35,1 0.55,0.25 1.05,0.65 3.45,0.9 6.75,-0.5 l 0.75,-0.8 0.7,-0.85 0.15,-0.15 v -0.35 -0.3 -0.35 l 0.05,-0.15 -0.35,-0.95 -0.55,-0.9 q -1.1,-1.5 -1.2,-3.2 l 0.1,-0.2 0.15,-0.15 0.15,-0.15 q 1.55,0.05 2.7,0.7 1.95,1.1 2.55,3.95 l 0.15,1 q 7.9,1.15 15.7,0.2 L 4.4,19.2 Q 13.65,16.75 17.25,8.15 M 1,-22.45 q 7.5,-0.55 9.25,6.35 l 0.7,2.7 0.1,0.8 q 2.55,6.8 2.6,13.75 L 13.3,2 Q 11.2,4.15 8.3,5.1 2.4,7.1 -3.05,4.45 -5,3.5 -5.15,1.3 L -5.1,0.15 q -1.3,-4.05 -1.5,-8.3 -0.25,-4.95 1.15,-9.5 0.15,-1.05 0.95,-1.9 2.3,-2.4 5.5,-2.9 m 3.9,4.6 q -1.25,-0.6 -2.6,-0.6 l 0.55,2.4 0.1,1.5 0.05,0.15 0.2,0.35 0.1,0.15 0.25,0.85 0.3,0.95 0.3,0.5 0.65,0.6 q 0.45,-2.05 0.25,-4.3 -0.1,-0.95 0.35,-1.8 l -0.5,-0.75 m -3.05,-14.2 q 11,-1 16.65,8.1 2.95,4.8 4.2,10.3 l 1,4.9 q 1.7,9.9 -1.9,19.2 L 21.15,12 20.4,13.5 q -3.15,6 -9.6,8.8 -5.45,2.35 -10.8,2.35 -3.45,0.55 -7.25,-0.1 l -4.9,-0.85 -0.2,-0.05 q -1.25,2.25 -4.4,3.45 -6.5,2.45 -12.15,-1.5 -3.7,-2.55 -3.3,-7.15 0.7,-7.65 7.15,-12.25 4.15,-2.9 9,-3.65 -0.85,-2.35 -1.15,-5 l -0.45,-3.8 q -1.1,-8.25 2.45,-15.35 1.05,-2.2 2.85,-3.85 6,-5.65 14.2,-6.6 M 6.9,-0.1 Q 4,-0.05 1.55,1.35 4.7,1.6 7.8,0.5 L 6.9,-0.1 m -8.8,-14.75 -0.3,1.55 0.4,1.3 0.35,1.2 0.2,0.2 0.55,0.4 q 0.65,-3 0.65,-6.25 L 0.2,-17.9 q -1.75,0.9 -2.1,3.05"
         fill="#000000"
         fill-rule="evenodd"
         stroke="none"
         id="path1" />
      <path
         d="M -2.25,12.35 -2.2,12.2 Q -2,11.6 -2.4,11.1 l -4.45,-5 q -3.35,-3.65 -4,-8.7 l -0.5,-3.8 q -0.6,-3.4 -0.15,-6.8 l 0.2,-2.3 1.05,-2.4 q 1.15,-2.4 3.35,-4.05 l 1.55,-1.4 q 3.8,-2.15 8,-2.7 5.05,-0.75 8.7,2.6 3.8,3.55 5.15,8.65 0,0.5 0.15,0.95 2.3,6.2 2,12.9 L 18.25,4.15 18.15,4.3 17.9,4.95 17.85,5.6 17.8,6.4 v 0.2 l -0.55,1.55 q -1.6,1.45 -3.6,2.6 -8.1,4.65 -15.9,1.6 m -12.1,1.75 q -1.15,-0.65 -2.7,-0.7 l -0.15,0.15 -0.15,0.15 -0.1,0.2 q 0.1,1.7 1.2,3.2 l 0.55,0.9 q -0.75,1.9 -3.6,2.6 -4.2,1 -7.05,-1.4 0.8,-7.3 8.05,-10.2 l 4.6,-1.85 q 1.45,2.2 3.55,4.05 -1.75,1.85 -4.2,2.9 M 1,-22.45 q -3.2,0.5 -5.5,2.9 -0.8,0.85 -0.95,1.9 -1.4,4.55 -1.15,9.5 0.2,4.25 1.5,8.3 L -5.15,1.3 Q -5,3.5 -3.05,4.45 2.4,7.1 8.3,5.1 11.2,4.15 13.3,2 L 13.65,1.15 Q 13.6,-5.8 11.05,-12.6 l -0.1,-0.8 -0.7,-2.7 Q 8.5,-23 1,-22.45"
         fill="#75787f"
         fill-rule="evenodd"
         stroke="none"
         id="path2" />
      <path
         d="m -2.25,12.35 q 7.8,3.05 15.9,-1.6 2,-1.15 3.6,-2.6 -3.6,8.6 -12.85,11.05 l -0.35,0.05 q -7.8,0.95 -15.7,-0.2 l -0.15,-1 q -0.6,-2.85 -2.55,-3.95 2.45,-1.05 4.2,-2.9 l 1.25,1 2.2,1.4 q 3.35,1.85 4.45,-1.25 M -15.7,18 l 0.35,0.95 -0.05,0.15 v 0.35 0.3 0.35 l -0.15,0.15 -0.7,0.85 -0.75,0.8 q -3.3,1.4 -6.75,0.5 -0.5,-0.4 -1.05,-0.65 -0.75,-0.4 -1.35,-1 l -0.25,-1.45 0.05,-0.1 q 2.85,2.4 7.05,1.4 2.85,-0.7 3.6,-2.6"
         fill="#5f6268"
         fill-rule="evenodd"
         stroke="none"
         id="path3" />
      <path
         d="m 4.9,-17.85 0.5,0.75 q -0.45,0.85 -0.35,1.8 0.2,2.25 -0.25,4.3 L 4.15,-11.6 3.85,-12.1 3.55,-13.05 3.3,-13.9 3.2,-14.05 3,-14.4 l -0.05,-0.15 -0.1,-1.5 -0.55,-2.4 q 1.35,0 2.6,0.6 m -6.8,3 Q -1.55,-17 0.2,-17.9 l -0.25,1.45 q 0,3.25 -0.65,6.25 l -0.55,-0.4 -0.2,-0.2 -0.35,-1.2 -0.4,-1.3 0.3,-1.55"
         fill="#ffffff"
         fill-rule="evenodd"
         stroke="none"
         id="path4" />
      <path
         d="M 6.9,-0.1 7.8,0.5 Q 4.7,1.6 1.55,1.35 4,-0.05 6.9,-0.1"
         fill="#44474e"
         fill-rule="evenodd"
         stroke="none"
         id="path5" />
    </g>
    <g
       id="sprite1"
       transform="translate(17.4,15.85)">
      <use
         ffdec:characterId="31"
         height="57.200001"
         transform="matrix(0.5366,0,0,0.5366,-16.6582,-14.546)"
         width="70.75"
         xlink:href="#sprite2"
         id="use5" />
    </g>
    <g
       id="sprite2"
       transform="translate(-8.65,-10.35)">
      <use
         ffdec:characterId="30"
         height="57.200001"
         transform="translate(8.65,10.35)"
         width="70.75"
         xlink:href="#shape1"
         id="use6" />
    </g>
    <g
       id="shape1"
       transform="translate(-8.65,-10.35)">
      <path
         d="m 14.8,41.7 q 0.65,-1.75 2.65,-2.5 1.8,-0.8 3.7,-0.25 1.15,0.45 2.25,1.2 l 0.9,0.4 q 1.65,0.9 2.85,2.5 L 37.8,30.1 q 2.35,-2.8 3.75,-3.95 1.5,-1.15 4.25,-2.4 18.2,-8.85 27.65,-12.6 2.15,-0.8 3.25,-0.8 h 0.8 l 1.9,2.4 -0.2,0.8 q -0.2,1.1 -1.55,3 -5.85,8.25 -18.85,23.8 -1.85,2.35 -3.35,3.5 -1.4,1.15 -4.75,2.75 l -15.15,7.15 q 1.2,1.6 1.75,3.4 l 0.2,1 0.55,2.5 q 0.1,1.95 -1.1,3.55 -1.2,1.65 -3.05,1.9 l -1.3,0.05 q -1.65,0.2 -3.45,-0.65 -1.85,-0.9 -3,-2.6 L 25,60.95 23.8,62.1 q -2.6,2.85 -4.3,3.95 -2.85,1.8 -5.5,1.45 l -1.65,-0.5 -1.2,-0.7 -0.2,-0.2 q -1,-0.85 -1.6,-1.9 L 9.25,64 9.15,63.8 8.75,62.4 q -0.2,-0.8 -0.05,-1.7 0.25,-2.65 2.7,-5.05 1.5,-1.3 4.9,-3.15 L 17.7,51.55 16.05,50 q -1.35,-1.5 -1.8,-3.6 -0.4,-1.85 0.25,-3.45 l 0.3,-1.25"
         fill="#000000"
         fill-opacity="0.372549"
         fill-rule="evenodd"
         stroke="none"
         id="path6" />
    </g>
  </defs>
</svg>
