<?xml version="1.0" encoding="UTF-8" standalone="no"?>
<svg
   ffdec:objectType="frame"
   height="99.614128"
   width="96.168182"
   version="1.1"
   id="svg6"
   xmlns:xlink="http://www.w3.org/1999/xlink"
   xmlns="http://www.w3.org/2000/svg"
   xmlns:svg="http://www.w3.org/2000/svg"
   xmlns:ffdec="https://www.free-decompiler.com/flash">
  <g
     transform="translate(49.618182,50.5)"
     id="g1">
    <use
       ffdec:characterId="17"
       height="119.15"
       id="rarity"
       transform="translate(-58.5,-60.65)"
       width="119.15"
       xlink:href="#sprite0" />
    <use
       ffdec:characterId="683"
       height="99.650002"
       transform="translate(-49.6,-50.55)"
       width="96.199997"
       xlink:href="#shape0"
       id="use1" />
  </g>
  <defs
     id="defs6">
    <g
       id="shape0"
       transform="translate(49.2,49.75)">
      <path
         d="m 40.65,-40.55 -0.25,-0.5 -1.75,-2.3 q -0.8,-1 -1.5,-1.05 l -1.3,0.15 -1.15,0.1 -1.25,0.7 -0.95,0.65 -0.5,0.85 -0.75,2.15 -0.15,1.05 q -0.05,0.95 0.25,1.8 l 0.4,1 0.05,0.05 1.05,1.95 0.4,0.7 0.55,0.65 1,0.45 1.05,0.3 h 0.8 1.25 l 0.5,-0.05 0.7,-0.4 q 2.45,-1.95 2.55,-5.75 l -0.1,-1 -0.6,-1 -0.3,-0.5 m 4.9,-2.6 1.1,2.3 0.3,2.9 -0.05,2.9 q -0.45,3.25 -3.35,6.3 l -1.95,1.6 q -2.1,1.2 -5.65,0.8 Q 34,-26.5 32.45,-27 l -1.6,2.25 0.85,1.2 q 2,3.45 1.3,7.05 -0.75,3.95 -3.9,5.95 -1.1,0.7 -2.7,1.3 l -3.2,0.75 h -0.65 l -0.3,0.6 -1,2.15 q -0.1,0.55 0.25,2.2 0.65,3 0.05,5.2 0.4,0.8 0.2,2.4 -0.85,6.65 -4.9,12.2 -3.1,4.3 -7.25,6.9 l 0.8,2 0.4,2.9 -0.15,1.35 1.25,1.4 1.95,2.7 1.55,2.55 Q 15.9,37.3 15.9,40 16,42.05 15.7,43.25 14.65,47.25 9.35,49 5.1,50.45 0.55,49.6 -2.8,49 -4.8,47.2 l -2.5,-3.05 -2,-2.7 q -1.45,-2.1 -3.65,-6.6 -2.2,-4.55 -3.6,-6.6 l -0.4,-0.7 -2.3,-0.2 -4.5,-0.15 -3.05,0.3 -3.05,0.15 q -4.25,-0.25 -7.35,-2.95 -1.45,-1.25 -1.7,-2.5 -0.45,-2.35 2.55,-4.5 h -2.35 l -1.7,0.45 -2.6,0.1 -2.7,0.2 q -1.65,0 -2.55,-0.9 -0.75,-0.85 -0.95,-2.5 -0.1,-1.5 0.35,-2.45 l 1.05,-1.35 1.85,-1.8 q 0.8,-0.65 2.15,-1.25 l 2.2,-1 3.55,-1 3.25,-0.7 -0.75,-1.05 q -1.05,-1.75 -1.25,-3.2 -0.25,-1.65 0.4,-4.2 2.1,-7.9 8.45,-14.25 6,-6 14.15,-9.1 3.9,-1.4 6.45,-1.45 1.3,-0.05 2.3,0.5 l 0.15,0.1 q 2.35,-0.55 5.55,0.5 l 3.05,1 q 1.55,0.5 2.7,0.65 0.1,-4.1 0.65,-5.85 0.35,-1.15 1.25,-2.75 1.05,-1.8 2.2,-2.85 2.6,-2.25 6.15,-2.1 3.4,0.15 6.15,2.35 l 1.2,1.2 1,-0.55 0.1,-0.05 q -0.45,-1.55 -0.5,-2.8 -0.05,-3.15 1.95,-6.25 l 1.6,-1.85 2.2,-1.45 2.2,-1.3 3.1,-0.45 3.7,0.2 q 2,0.6 4.25,3.45 l 1.95,2.9 m -18,14.55 0.4,-0.6 0.25,-0.35 q -0.75,-0.85 -1.4,-2.1 l -0.25,0.15 -1.6,1 -3.95,2.5 -0.5,0.55 0.05,0.55 q 0.35,1.3 1.3,2.1 l 0.2,0.15 0.55,0.35 q 0.8,0.45 1.4,0.25 l 0.95,-0.9 2.6,-3.65 m -9.45,7.35 -1,-1.4 q -0.8,-1.25 -1.1,-2.2 -0.2,-0.7 -0.3,-2.2 -0.1,-2.25 0.5,-3.15 0.4,-0.65 1.65,-1.35 l 2.05,-1.2 q -1.45,-0.85 -2.5,-0.95 -1.45,-0.2 -2.85,0.75 -1.3,0.85 -2,2.25 -1.15,2.15 -1.05,5.95 0,1.95 0.45,3.3 l 0.3,0.7 0.9,1.5 q 1.3,2.05 2.55,3 1.2,0.85 2.95,1.45 3.5,1.2 5.85,0.65 1.5,-0.35 2.6,-1.45 1.1,-1.2 1.1,-2.65 0,-0.8 -0.4,-1.9 l -0.15,-0.4 q -1.15,1.05 -2.35,1.4 -2.05,0.65 -4.9,-0.55 -1.45,-0.65 -2.2,-1.45 l -0.1,-0.1 m -23.15,14.7 0.25,0.5 q 1.25,2.35 2.5,3.7 2.85,3 8.1,4.05 l 6.65,0.4 2.65,-0.55 q 1.5,-0.7 1.85,-1.9 0.2,-0.7 0.05,-1.55 l -0.35,-1.6 q -0.5,-2.25 -0.1,-4.1 0.2,-1.15 0.8,-2 l -2.2,-0.8 Q 12.25,-11.7 10,-14.5 L 8.2,-17.15 7,-19.75 q -1.2,0.15 -3.75,-0.7 l -4.35,-1.25 -2.4,-0.2 q -0.95,0.25 -1.85,1.25 -2.5,2.9 -2,7.3 0.3,2.85 2.3,6.8 m -21.7,16.4 q 0.35,1.4 0.25,2.7 -0.3,4.45 -5.75,8.8 0.9,1.05 2.75,1.1 l 3.3,-0.3 q 2.85,-0.4 9.25,0.1 l 8.55,0.35 8.45,-0.95 q 4.4,-1.05 7.9,-3.3 3.9,-2.5 5.95,-6 L 15.8,8.25 16.35,6.6 Q 14.05,7.4 10.45,7.4 5.5,7.45 1.4,6.15 -3.15,4.7 -6,1.7 L -6.15,1.55 q -1.9,-2 -4.45,-7.2 l -0.3,-0.65 -1.25,-3.1 q -1.15,-3.8 -0.35,-7.8 0.5,-2.55 1.75,-4.7 -5.95,2.05 -10.75,5.8 -6,4.85 -8.7,11.3 l -0.6,1.55 q -0.65,1.9 -0.55,3.1 0.2,1.35 1.3,3.1 l 2.55,4.65 0.75,2.25 M 5.75,11.7 V 11.15 L 6,10.25 Q 6.5,9.2 7.7,9.1 9.2,8.95 9.95,10.2 10.3,10.75 10.25,11.45 10.2,12.2 9.8,12.7 8.9,13.95 7.45,13.55 6.8,13.4 6.35,12.9 5.85,12.35 5.75,11.7 M 5.3,29.9 5.45,29.7 q 0.85,-1.15 0.5,-2.8 l -0.65,-1.7 -1.8,0.55 0.5,1.9 0.15,0.8 0.05,1.4 q -0.25,1.4 -1.4,1.6 -1.2,0.2 -2.1,-1.3 l -1.1,-2.4 -0.8,-0.95 -2.25,0.35 -7.6,0.65 3.55,6.65 2.85,4.8 1.2,1.7 q 1.5,1.9 2.35,2.45 l 0.1,0.1 q 1.2,0.7 2.85,0.95 3.6,0.65 6.85,-0.8 1.45,-0.65 2,-1.55 0.55,-1 0.3,-2.65 -0.35,-2.35 -1.95,-4.3 L 8,33.95 7,34.55 5.5,35.35 Q 3.65,37 1.9,37.2 q -2,0.3 -2.8,-1.05 -0.45,-0.65 -0.3,-1.5 0.15,-0.8 0.7,-1.45 0.8,-1 2.8,-1.55 L 3.2,31.4 3.4,31.3 q 1.35,-0.8 1.9,-1.4 m -23.9,-43.4 q 1.05,-0.15 1.95,0.6 0.7,0.65 0.8,1.65 0.05,0.8 -0.45,1.5 -0.45,0.7 -1.2,0.95 l -1.6,-0.05 q -0.8,-0.3 -1.2,-1 -0.4,-0.65 -0.3,-1.55 0.1,-0.85 0.65,-1.4 l 1.35,-0.7 m 7.55,21.6 -1.45,-0.35 q -1,-0.6 -1.2,-1.65 l -0.05,-0.5 q 0,-1.4 1.25,-2.15 l 1.05,-0.35 h 0.35 q 0.8,0.05 1.4,0.55 0.6,0.45 0.85,1.2 0.25,0.8 0,1.5 -0.2,0.7 -0.85,1.2 -0.6,0.5 -1.35,0.55 M -32.8,9.2 q -4.85,1.35 -6.75,2.15 -2.55,1 -3.8,2.25 l 1.8,-0.05 1.8,-0.35 2.25,-0.1 4.1,0.05 1.35,0.1 q 0.5,-1.8 -0.55,-4.1 l -0.2,0.05"
         fill="#000000"
         fill-rule="evenodd"
         stroke="none"
         id="path1" />
      <path
         d="m 31.1,-38.75 0.15,-1.05 0.75,-2.15 0.5,-0.85 0.95,-0.65 1.25,-0.7 1.15,-0.1 1.3,-0.15 q 0.7,0.05 1.5,1.05 l 1.75,2.3 0.25,0.5 q -0.3,1.6 -1.6,2.9 l -0.9,0.7 -1.2,0.45 -1.5,0.35 q -1.95,0.25 -3.4,-1 l -0.65,-0.8 -0.3,-0.8 m -18.85,18 -0.3,-0.7 q -0.45,-1.35 -0.45,-3.3 -0.1,-3.8 1.05,-5.95 0.7,-1.4 2,-2.25 1.4,-0.95 2.85,-0.75 1.05,0.1 2.5,0.95 l -2.05,1.2 q -1.25,0.7 -1.65,1.35 -0.6,0.9 -0.5,3.15 0.1,1.5 0.3,2.2 0.3,0.95 1.1,2.2 l 1,1.4 -1.1,1.2 q -0.9,0.7 -2,0.6 -1.55,-0.05 -2.75,-1.3 M -6,1.7 -6.2,3.2 q -0.45,2.3 -1.8,4.35 -1.35,1.95 -3.3,3.25 -1.95,1.3 -4.35,1.7 l -4.65,-0.1 -3.3,-1.1 q -1.95,-0.75 -3.15,-1.45 L -27.5,7.6 -30.05,2.95 q -1.1,-1.75 -1.3,-3.1 -0.1,-1.2 0.55,-3.1 l 0.6,-1.55 q 2.7,-6.45 8.7,-11.3 4.8,-3.75 10.75,-5.8 -1.25,2.15 -1.75,4.7 -0.8,4 0.35,7.8 l 1.25,3.1 0.3,0.65 q 2.55,5.2 4.45,7.2 L -6,1.7 m -5.05,6.4 q 0.75,-0.05 1.35,-0.55 0.65,-0.5 0.85,-1.2 0.25,-0.7 0,-1.5 Q -9.1,4.1 -9.7,3.65 -10.3,3.15 -11.1,3.1 h -0.35 l -1.05,0.35 q -1.25,0.75 -1.25,2.15 l 0.05,0.5 q 0.2,1.05 1.2,1.65 l 1.45,0.35 m -7.55,-21.6 -1.35,0.7 q -0.55,0.55 -0.65,1.4 -0.1,0.9 0.3,1.55 0.4,0.7 1.2,1 l 1.6,0.05 q 0.75,-0.25 1.2,-0.95 0.5,-0.7 0.45,-1.5 -0.1,-1 -0.8,-1.65 -0.9,-0.75 -1.95,-0.6"
         fill="#926666"
         fill-rule="evenodd"
         stroke="none"
         id="path2" />
      <path
         d="m 31.1,-38.75 0.3,0.8 0.65,0.8 q 1.45,1.25 3.4,1 l 1.5,-0.35 1.2,-0.45 0.9,-0.7 q 1.3,-1.3 1.6,-2.9 l 0.3,0.5 0.6,1 0.1,1 q -0.1,3.8 -2.55,5.75 l -0.7,0.4 -0.5,0.05 h -1.25 -0.8 l -1.05,-0.3 -1,-0.45 -0.55,-0.65 -0.4,-0.7 -1.05,-1.95 -0.05,-0.05 -0.4,-1 q -0.3,-0.85 -0.25,-1.8 m -18.85,18 q 1.2,1.25 2.75,1.3 1.1,0.1 2,-0.6 l 1.1,-1.2 0.1,0.1 q 0.75,0.8 2.2,1.45 2.85,1.2 4.9,0.55 1.2,-0.35 2.35,-1.4 l 0.15,0.4 q 0.4,1.1 0.4,1.9 0,1.45 -1.1,2.65 -1.1,1.1 -2.6,1.45 -2.35,0.55 -5.85,-0.65 -1.75,-0.6 -2.95,-1.45 -1.25,-0.95 -2.55,-3 l -0.9,-1.5 M -6,1.7 q 2.85,3 7.4,4.45 4.1,1.3 9.05,1.25 3.6,0 5.9,-0.8 l -0.55,1.65 -1.9,4.1 q -2.05,3.5 -5.95,6 -3.5,2.25 -7.9,3.3 l -8.45,0.95 -8.55,-0.35 q -6.4,-0.5 -9.25,-0.1 l -3.3,0.3 q -1.85,-0.05 -2.75,-1.1 5.45,-4.35 5.75,-8.8 0.1,-1.3 -0.25,-2.7 1.2,0.7 3.15,1.45 l 3.3,1.1 4.65,0.1 q 2.4,-0.4 4.35,-1.7 Q -9.35,9.5 -8,7.55 -6.65,5.5 -6.2,3.2 L -6,1.7 m 11.75,10 q 0.1,0.65 0.6,1.2 0.45,0.5 1.1,0.65 1.45,0.4 2.35,-0.85 0.4,-0.5 0.45,-1.25 Q 10.3,10.75 9.95,10.2 9.2,8.95 7.7,9.1 6.5,9.2 6,10.25 l -0.25,0.9 v 0.55"
         fill="#755151"
         fill-rule="evenodd"
         stroke="none"
         id="path3" />
      <path
         d="m 22.05,-24.65 -0.2,-0.15 q -0.95,-0.8 -1.3,-2.1 L 20.5,-27.45 21,-28 l 3.95,-2.5 1.6,-1 0.25,-0.15 q 0.65,1.25 1.4,2.1 l -0.25,0.35 -0.4,0.6 -0.8,0.45 -2.05,1.25 q -1.65,1.6 -2.65,2.25 M 10,-14.5 v 0.15 l -0.35,1.95 -0.95,1.5 -2.15,2.35 -1.9,1.3 q -1.3,0.8 -2,1.05 -1.7,0.7 -4.6,0.6 -1.6,-0.1 -2.4,-0.5 l -0.7,-0.45 q -2,-3.95 -2.3,-6.8 -0.5,-4.4 2,-7.3 0.9,-1 1.85,-1.25 l 2.4,0.2 4.35,1.25 q 2.55,0.85 3.75,0.7 l 1.2,2.6 1.8,2.65"
         fill="#ddafaf"
         fill-rule="evenodd"
         stroke="none"
         id="path4" />
      <path
         d="m 22.05,-24.65 q 1,-0.65 2.65,-2.25 l 2.05,-1.25 0.8,-0.45 -2.6,3.65 -0.95,0.9 q -0.6,0.2 -1.4,-0.25 l -0.55,-0.35 m -27.1,18.1 0.7,0.45 q 0.8,0.4 2.4,0.5 2.9,0.1 4.6,-0.6 0.7,-0.25 2,-1.05 l 1.9,-1.3 2.15,-2.35 0.95,-1.5 0.35,-1.95 v -0.15 q 2.25,2.8 5.15,4.1 l 2.2,0.8 q -0.6,0.85 -0.8,2 -0.4,1.85 0.1,4.1 L 17,-1.9 q 0.15,0.85 -0.05,1.55 -0.35,1.2 -1.85,1.9 L 12.45,2.1 5.8,1.7 Q 0.55,0.65 -2.3,-2.35 -3.55,-3.7 -4.8,-6.05 l -0.25,-0.5 m 9.2,35 1.15,1.45 q -0.55,0.6 -1.9,1.4 l -0.2,0.1 -0.9,0.25 q -2,0.55 -2.8,1.55 -0.55,0.65 -0.7,1.45 -0.15,0.85 0.3,1.5 0.8,1.35 2.8,1.05 1.75,-0.2 3.6,-1.85 l 1.5,-0.8 1,-0.6 1.05,1.2 q 1.6,1.95 1.95,4.3 0.25,1.65 -0.3,2.65 -0.55,0.9 -2,1.55 Q 5.45,45.1 1.85,44.45 0.2,44.2 -1,43.5 l -0.85,-0.85 -2.8,-3.4 -2.85,-4.8 -3.55,-6.65 7.6,-0.65 2.25,-0.35 0.8,0.95 1.1,2.4 q 0.9,1.5 2.1,1.3 1.15,-0.2 1.4,-1.6 L 4.15,28.45 M -32.8,9.2 -32.6,9.15 q 1.05,2.3 0.55,4.1 l -1.35,-0.1 -4.1,-0.05 -2.25,0.1 -1.8,0.35 -1.8,0.05 q 1.25,-1.25 3.8,-2.25 1.9,-0.8 6.75,-2.15"
         fill="#bb9292"
         fill-rule="evenodd"
         stroke="none"
         id="path5" />
    </g>
    <g
       id="sprite1"
       transform="translate(17.4,15.85)">
      <use
         ffdec:characterId="31"
         height="57.200001"
         transform="matrix(0.5366,0,0,0.5366,-16.6582,-14.546)"
         width="70.75"
         xlink:href="#sprite2"
         id="use5" />
    </g>
    <g
       id="sprite2"
       transform="translate(-8.65,-10.35)">
      <use
         ffdec:characterId="30"
         height="57.200001"
         transform="translate(8.65,10.35)"
         width="70.75"
         xlink:href="#shape1"
         id="use6" />
    </g>
    <g
       id="shape1"
       transform="translate(-8.65,-10.35)">
      <path
         d="m 14.8,41.7 q 0.65,-1.75 2.65,-2.5 1.8,-0.8 3.7,-0.25 1.15,0.45 2.25,1.2 l 0.9,0.4 q 1.65,0.9 2.85,2.5 L 37.8,30.1 q 2.35,-2.8 3.75,-3.95 1.5,-1.15 4.25,-2.4 18.2,-8.85 27.65,-12.6 2.15,-0.8 3.25,-0.8 h 0.8 l 1.9,2.4 -0.2,0.8 q -0.2,1.1 -1.55,3 -5.85,8.25 -18.85,23.8 -1.85,2.35 -3.35,3.5 -1.4,1.15 -4.75,2.75 l -15.15,7.15 q 1.2,1.6 1.75,3.4 l 0.2,1 0.55,2.5 q 0.1,1.95 -1.1,3.55 -1.2,1.65 -3.05,1.9 l -1.3,0.05 q -1.65,0.2 -3.45,-0.65 -1.85,-0.9 -3,-2.6 L 25,60.95 23.8,62.1 q -2.6,2.85 -4.3,3.95 -2.85,1.8 -5.5,1.45 l -1.65,-0.5 -1.2,-0.7 -0.2,-0.2 q -1,-0.85 -1.6,-1.9 L 9.25,64 9.15,63.8 8.75,62.4 q -0.2,-0.8 -0.05,-1.7 0.25,-2.65 2.7,-5.05 1.5,-1.3 4.9,-3.15 L 17.7,51.55 16.05,50 q -1.35,-1.5 -1.8,-3.6 -0.4,-1.85 0.25,-3.45 l 0.3,-1.25"
         fill="#000000"
         fill-opacity="0.372549"
         fill-rule="evenodd"
         stroke="none"
         id="path6" />
    </g>
  </defs>
</svg>
