<?xml version="1.0" encoding="UTF-8" standalone="no"?>
<svg
   ffdec:objectType="frame"
   height="89.595291"
   width="69.435883"
   version="1.1"
   id="svg6"
   xmlns:xlink="http://www.w3.org/1999/xlink"
   xmlns="http://www.w3.org/2000/svg"
   xmlns:svg="http://www.w3.org/2000/svg"
   xmlns:ffdec="https://www.free-decompiler.com/flash">
  <g
     transform="translate(32.82963,45.233784)"
     id="g1">
    <use
       ffdec:characterId="17"
       height="119.15"
       id="rarity"
       transform="translate(-58.5,-60.65)"
       width="119.15"
       xlink:href="#sprite0" />
    <use
       ffdec:characterId="662"
       height="89.599998"
       transform="translate(-32.85,-45.25)"
       width="69.449997"
       xlink:href="#shape0"
       id="use1" />
  </g>
  <defs
     id="defs6">
    <g
       id="shape0"
       transform="translate(32.45,44.45)">
      <path
         d="m 4.05,-40.6 q 1.05,-2 2.25,-2.75 1.2,-0.85 3.15,-1.05 3.45,-0.25 6.45,1.35 l 0.8,0.5 3,2.4 0.45,0.45 4.85,4.95 q 2.15,2.7 4.45,7.6 3.95,8.4 6.15,17.05 1.5,5.9 1.4,9.7 -0.2,5.55 -3,9 -1.65,1.9 -3.85,2.75 -2.3,1.05 -4.55,0.5 Q 23.25,11.35 20.25,9 17.6,6.85 15.2,4.2 15,4.05 14.65,3.85 11,1.7 7.65,1.1 l 1.2,1.95 5.6,10.45 q 3.15,6.1 4.85,10.75 l 0.65,2.55 q 0.2,1.3 -0.1,2.4 -0.45,1.45 -2.2,3.2 -6.75,6.9 -13,10 -8.2,3.95 -15.95,2.25 -3.5,-0.75 -5.95,-2.8 -2.3,-1.9 -4.6,-5.85 -3.15,-5.5 -5.45,-11.5 -1.95,-5.15 -1.2,-8.15 0.55,-2.45 3.3,-5.55 l 2.85,-2.8 -1.3,-2.35 q -5.65,-11.05 -7.8,-16.35 -1.15,-2.8 -0.95,-4.4 0.25,-1.8 2.1,-3.6 l -1,-3.15 q -0.6,-3.15 0.6,-4.95 l 1.5,-1.55 q 2.95,-2.15 8.3,-3.55 l 3.05,-0.2 q 1.75,0.25 3.05,2.05 0.95,1.2 1.7,3.45 l 0.15,0.45 1.05,-0.15 q 1.65,-0.2 2.85,0.4 1.25,0.65 2.2,2.3 l 1.45,3 0.4,0.9 0.1,-0.1 q 2.65,-1.95 3.65,-4.2 0.55,-1.25 1.2,-4.8 1.1,-6.2 4.1,-11.8 m 12.6,6.3 -1.3,-1.2 q -1.8,-1.55 -2.7,-1.95 -1.6,-1.05 -3,-0.35 -0.85,0.45 -1.6,2 -2.05,4.4 -1.7,9.2 0.1,2.45 1,5.15 l 1.6,0.4 1.8,0.8 q 3.55,2 5.6,6.9 l 1.6,5.25 0.25,1.4 q 0.1,1.15 -0.6,2.75 l -0.45,0.7 0.55,0.7 0.9,1.2 q 2.8,3.6 5.95,5.85 1.3,0.95 2.3,1 0.9,0.1 1.75,-0.4 L 29.95,3.6 Q 30.55,2.3 30.7,-0.25 30.75,-5.1 29.05,-11.1 L 25.1,-21.55 q -2.45,-5.8 -4.2,-8.15 -1.35,-1.9 -4.25,-4.6 M 4.05,-13.6 1.8,-18.7 q -1.85,1.85 -3.8,3.2 l -3.7,2.75 -1.45,1.45 -0.3,1.7 0.2,0.95 q 0.5,2.05 2.5,3.55 1.35,1 2.5,1.05 L -0.9,-4.2 0.4,-4.5 q 4,-1.2 8.55,0.2 -2.5,-4.1 -4.9,-9.3 M 4.65,7.95 2.5,4.65 1.8,3.5 1.75,3.55 Q -3,8.85 -12,10.6 l -5.75,0.25 -3.15,3.6 q -1.65,1.9 -1.9,3.2 -0.15,1.1 0.7,3.1 l 0.05,0.15 q 2.3,5.65 5.2,10.85 l 1.85,3 q 1.2,1.5 2.5,2.35 2.25,1.45 5.35,1.55 5.2,0.25 10.6,-2.7 3.95,-2.1 8.8,-6.65 1.2,-1.15 1.4,-1.9 Q 14,26.3 13,24.25 l -4.85,-10 -3.5,-6.3 m -27.15,-31.25 5,-1.55 -0.5,-1 -0.65,-0.65 h -0.85 l -3.55,1.05 q -1.95,0.7 -3.05,1.9 l 0.65,1.55 2.95,-1.3 m 10.8,7.85 1.5,-1.45 1,-0.6 -0.9,-1.5 q -0.6,-1.25 -1.35,-1.4 l -1.25,0.15 -8.65,2.95 q -3.25,1.4 -4.7,2.85 l 1.25,3.8 2,4.3 4.5,8.95 q 0.75,1.4 1.5,1.8 l 2.3,0.05 5.8,-1.35 Q -6.8,2.45 -5.35,1.5 L -6.6,0.8 q -1.75,-1 -2.95,-2 -2.25,-2 -3.15,-4.85 -0.95,-2.9 -0.45,-5.75 0.4,-2.2 1.45,-3.65"
         fill="#000000"
         fill-rule="evenodd"
         stroke="none"
         id="path1" />
      <path
         d="m 17.7,-2.55 0.45,0.3 q 2.2,1.3 4.65,1.9 l 1.85,0.05 q 0.85,-0.25 1.55,-1.55 0.9,-1.8 0.8,-4.9 -0.05,-10.15 -5.1,-19.2 l -4.3,-6.85 -0.95,-1.5 q 2.9,2.7 4.25,4.6 1.75,2.35 4.2,8.15 l 3.95,10.45 q 1.7,6 1.65,10.85 Q 30.55,2.3 29.95,3.6 L 28.6,5.1 q -0.85,0.5 -1.75,0.4 -1,-0.05 -2.3,-1 Q 21.4,2.25 18.6,-1.35 l -0.9,-1.2 m -24.95,-6.1 -0.2,-0.95 0.3,-1.7 1.45,-1.45 3.7,-2.75 q 1.95,-1.35 3.8,-3.2 l 2.25,5.1 -0.6,1.25 q -0.6,1 -2.35,2.05 -2,1.05 -4.1,1.75 -1.5,0.55 -2.6,0.4 l -1.65,-0.5 m -17.55,-2 -1.25,-3.8 q 1.45,-1.45 4.7,-2.85 l 8.65,-2.95 1.25,-0.15 q 0.75,0.15 1.35,1.4 l 0.9,1.5 -1,0.6 -1.5,1.45 q -3.2,1.7 -9.8,3.75 l -2.55,0.8 -0.75,0.25 m 2.3,-12.65 -2.95,1.3 -0.65,-1.55 q 1.1,-1.2 3.05,-1.9 l 3.55,-1.05 h 0.85 l 0.65,0.65 0.5,1 -5,1.55"
         fill="#9e4a4a"
         fill-rule="evenodd"
         stroke="none"
         id="path2" />
      <path
         d="m 17.7,-2.55 -0.55,-0.7 0.45,-0.7 q 0.7,-1.6 0.6,-2.75 l -0.25,-1.4 -1.6,-5.25 q -2.05,-4.9 -5.6,-6.9 l -1.8,-0.8 -1.6,-0.4 q -0.9,-2.7 -1,-5.15 -0.35,-4.8 1.7,-9.2 0.75,-1.55 1.6,-2 1.4,-0.7 3,0.35 0.9,0.4 2.7,1.95 l 1.3,1.2 0.95,1.5 4.3,6.85 q 5.05,9.05 5.1,19.2 0.1,3.1 -0.8,4.9 -0.7,1.3 -1.55,1.55 L 22.8,-0.35 q -2.45,-0.6 -4.65,-1.9 l -0.45,-0.3 m -24.95,-6.1 1.65,0.5 q 1.1,0.15 2.6,-0.4 2.1,-0.7 4.1,-1.75 1.75,-1.05 2.35,-2.05 l 0.6,-1.25 q 2.4,5.2 4.9,9.3 Q 4.4,-5.7 0.4,-4.5 l -1.3,0.3 -1.35,0.15 q -1.15,-0.05 -2.5,-1.05 -2,-1.5 -2.5,-3.55 m -17.55,-2 0.75,-0.25 2.55,-0.8 q 6.6,-2.05 9.8,-3.75 -1.05,1.45 -1.45,3.65 -0.5,2.85 0.45,5.75 0.9,2.85 3.15,4.85 1.2,1 2.95,2 l 1.25,0.7 Q -6.8,2.45 -8.7,3.1 L -14.5,4.45 -16.8,4.4 Q -17.55,4 -18.3,2.6 l -4.5,-8.95 -2,-4.3"
         fill="#803c3c"
         fill-rule="evenodd"
         stroke="none"
         id="path3" />
      <path
         d="m -22.05,20.9 -0.05,-0.15 q -0.85,-2 -0.7,-3.1 0.25,-1.3 1.9,-3.2 l 3.15,-3.6 L -12,10.6 Q -3,8.85 1.75,3.55 L 1.8,3.5 2.5,4.65 4.65,7.95 Q 2.1,11.3 0.15,12.8 L -3.3,15 q -4.1,2.35 -6.7,3.35 -2.3,0.9 -7.1,2 l -4.05,0.6 -0.9,-0.05"
         fill="#cdb0a1"
         fill-rule="evenodd"
         stroke="none"
         id="path4" />
      <path
         d="m -22.05,20.9 0.9,0.05 4.05,-0.6 q 4.8,-1.1 7.1,-2 2.6,-1 6.7,-3.35 L 0.15,12.8 Q 2.1,11.3 4.65,7.95 l 3.5,6.3 4.85,10 q 1,2.05 0.65,3.15 -0.2,0.75 -1.4,1.9 -4.85,4.55 -8.8,6.65 -5.4,2.95 -10.6,2.7 -3.1,-0.1 -5.35,-1.55 -1.3,-0.85 -2.5,-2.35 l -1.85,-3 q -2.9,-5.2 -5.2,-10.85"
         fill="#b09487"
         fill-rule="evenodd"
         stroke="none"
         id="path5" />
    </g>
    <g
       id="sprite1"
       transform="translate(17.4,15.85)">
      <use
         ffdec:characterId="31"
         height="57.200001"
         transform="matrix(0.5366,0,0,0.5366,-16.6582,-14.546)"
         width="70.75"
         xlink:href="#sprite2"
         id="use5" />
    </g>
    <g
       id="sprite2"
       transform="translate(-8.65,-10.35)">
      <use
         ffdec:characterId="30"
         height="57.200001"
         transform="translate(8.65,10.35)"
         width="70.75"
         xlink:href="#shape1"
         id="use6" />
    </g>
    <g
       id="shape1"
       transform="translate(-8.65,-10.35)">
      <path
         d="m 14.8,41.7 q 0.65,-1.75 2.65,-2.5 1.8,-0.8 3.7,-0.25 1.15,0.45 2.25,1.2 l 0.9,0.4 q 1.65,0.9 2.85,2.5 L 37.8,30.1 q 2.35,-2.8 3.75,-3.95 1.5,-1.15 4.25,-2.4 18.2,-8.85 27.65,-12.6 2.15,-0.8 3.25,-0.8 h 0.8 l 1.9,2.4 -0.2,0.8 q -0.2,1.1 -1.55,3 -5.85,8.25 -18.85,23.8 -1.85,2.35 -3.35,3.5 -1.4,1.15 -4.75,2.75 l -15.15,7.15 q 1.2,1.6 1.75,3.4 l 0.2,1 0.55,2.5 q 0.1,1.95 -1.1,3.55 -1.2,1.65 -3.05,1.9 l -1.3,0.05 q -1.65,0.2 -3.45,-0.65 -1.85,-0.9 -3,-2.6 L 25,60.95 23.8,62.1 q -2.6,2.85 -4.3,3.95 -2.85,1.8 -5.5,1.45 l -1.65,-0.5 -1.2,-0.7 -0.2,-0.2 q -1,-0.85 -1.6,-1.9 L 9.25,64 9.15,63.8 8.75,62.4 q -0.2,-0.8 -0.05,-1.7 0.25,-2.65 2.7,-5.05 1.5,-1.3 4.9,-3.15 L 17.7,51.55 16.05,50 q -1.35,-1.5 -1.8,-3.6 -0.4,-1.85 0.25,-3.45 l 0.3,-1.25"
         fill="#000000"
         fill-opacity="0.372549"
         fill-rule="evenodd"
         stroke="none"
         id="path6" />
    </g>
  </defs>
</svg>
