<?xml version="1.0" encoding="UTF-8" standalone="no"?>
<svg
   ffdec:objectType="frame"
   height="90.337273"
   width="83.477333"
   version="1.1"
   id="svg5"
   xmlns:xlink="http://www.w3.org/1999/xlink"
   xmlns="http://www.w3.org/2000/svg"
   xmlns:svg="http://www.w3.org/2000/svg"
   xmlns:ffdec="https://www.free-decompiler.com/flash">
  <g
     transform="translate(43.673077,44.51)"
     id="g1">
    <use
       ffdec:characterId="17"
       height="119.15"
       id="rarity"
       transform="translate(-58.5,-60.65)"
       width="119.15"
       xlink:href="#sprite0" />
    <use
       ffdec:characterId="285"
       height="90.349998"
       transform="translate(-43.65,-44.5)"
       width="83.449997"
       xlink:href="#shape0"
       id="use1" />
  </g>
  <defs
     id="defs5">
    <g
       id="shape0"
       transform="translate(43.35,47)">
      <path
         d="m 12.15,-14 2.1,5.2 q 2.5,7.85 1.9,17.75 -0.2,3.3 -1,4.85 l -0.4,0.45 Q 14.45,14.3 14.25,14 l -0.2,-0.75 -0.55,-9 q -0.55,-4.9 -1.7,-8.8 l -0.9,-2.8 q -1.2,-3.15 -2.85,-5.7 -2.45,-3.85 -5.9,-6.35 -1.5,-1.05 -1.85,-1.75 -0.65,-1.2 0.1,-2.45 0.75,-1.15 2.15,-1 0.75,0.1 1.95,1 3.25,2.65 5.6,6.15 l 2.05,3.45 m -46.05,6.4 q -2.15,4.95 -3,8.15 -1.2,4.5 -1.25,8.65 -0.1,4.6 1.1,7.9 l 2.95,5.55 q 2.2,3.6 3.7,5.15 2.1,2.15 6.7,4.65 3.75,2.05 7.05,3.55 3.45,1.7 5.55,1.95 1.75,0.25 4.55,-0.05 7.75,-0.8 13.25,-2.4 7.05,-2.1 11.9,-5.85 l 3.55,-3.15 q 6.9,-7 10.3,-16.5 3.35,-9.5 2.35,-19.25 -0.35,-3.6 -1.15,-5.9 -1.55,-4.4 -5.65,-8.7 -2.75,-2.85 -5.3,-4.25 l -0.1,-0.05 q -2.95,-1.75 -6.15,-2.3 l -5.25,-0.2 -1.85,0.1 -3.6,1.25 -0.85,0.25 Q 4.4,-29 4.05,-29.4 3.65,-29.75 3.7,-30.2 l 0.4,-1.05 1.25,-1.4 0.3,-0.65 1.2,-3.1 q 0.8,-2.95 0.8,-5.05 l -0.1,-1 -2.1,-0.1 q -1.1,0.3 -1.8,1.1 -0.9,1 -1.2,3.05 l -0.25,2.3 q 0,1.75 -0.3,2.4 -0.65,1.3 -2.2,1.3 -0.9,-0.05 -1.5,-0.6 -0.75,-0.3 -1.3,-1.55 l -3,-5.55 q -0.95,-1.7 -1.75,-2.05 l -1.55,-0.2 q -2.25,0.2 -2.85,1.95 -0.45,1.55 1.1,3.4 1.2,1.5 2.95,2.5 l 1.9,1.35 q 0.8,1.05 0.4,2.3 -0.5,1.25 -1.75,1.55 -0.9,0.2 -2.15,-0.3 l -2.15,-1 -5.1,0.15 -0.65,0.55 v 0.2 l 0.5,-0.05 q 1.35,-0.1 2.2,0.5 l 0.65,0.95 0.1,0.6 -0.15,0.45 q -0.3,0.55 -1.45,0.95 -4.65,1.9 -10.8,7.95 -2.9,2.9 -4.2,4.8 -1.3,1.85 -2.8,5.35 l -0.25,0.6 m 32.5,-33.65 0.7,-1.65 q 1.55,-2.7 5.15,-3.55 l 1.9,-0.2 q 1.6,0.1 2.8,0.8 l 1.3,1.15 q 0.6,0.9 0.6,2.6 0.05,1.75 -0.45,3.95 l -0.75,2.35 q 5.75,-0.55 11.45,1.55 5.85,2.2 10.15,6.6 4.25,4.3 6.5,10.2 2.25,5.8 2.15,11.95 L 39.45,2.1 38.3,8.65 q -1.45,5.6 -5.95,13 l -3.2,4.7 q -3.4,4.45 -8.05,7.8 -10.05,7.2 -26.25,8.95 -5,0.5 -7.75,-0.1 -1.95,-0.35 -4.7,-1.55 l -7.8,-3.85 -4.35,-2.4 q -2.35,-1.5 -3.9,-3 -2.1,-2.05 -5.05,-6.85 l -2.6,-4.85 q -3.85,-8.75 -0.55,-21.4 2.2,-8.3 6.65,-14.95 4.75,-7.2 11.4,-11.4 l 1.3,-0.75 -0.25,-0.65 q -0.35,-1.35 0.05,-2.7 0.4,-1.35 1.45,-2.35 1.85,-1.85 4.95,-2.2 -0.95,-1.8 -0.75,-3.9 0.15,-2.15 1.3,-3.8 1.15,-1.7 3.05,-2.6 1.9,-0.9 3.95,-0.8 2,0.1 3.5,1.1 1.35,0.9 3.1,3.8 l 0.65,1.2 0.1,-0.35 m -13.45,28.6 -1.3,2 -1,1.95 -0.45,1.35 -0.65,1.3 -0.45,0.7 -0.1,0.55 q -0.1,0.35 -0.3,0.4 -0.5,0.05 -0.6,-0.65 -0.6,-2.55 1.1,-7.05 l 1.4,-2.95 1.5,-1.95 3.6,-4 4.05,-3.45 q 0.95,-0.7 1.75,-0.8 1,-0.1 1.65,0.65 0.65,0.7 0.55,1.7 -0.2,1.3 -2.4,2.65 l -4.05,3.15 -3.15,3.15 -1.15,1.3"
         fill="#000000"
         fill-rule="evenodd"
         stroke="none"
         id="path1" />
      <path
         d="m -29.9,0.4 q 0.25,0.7 0,1.4 -0.2,0.7 -0.85,1.15 -0.65,0.45 -1.4,0.4 L -33.5,2.8 -34.25,1.55 q -0.25,-1.25 0.7,-2.05 0.5,-0.5 1.3,-0.6 l 0.85,0.05 0.55,0.25 q 0.65,0.4 0.9,1.15 L -29.9,0.4 M 3.3,-10.75 Q 2.8,-11 2.65,-11.55 2.15,-12.7 3,-13.6 3.4,-14 3.95,-14.1 l 1.05,0.15 0.8,0.85 q 0.65,1.05 0.55,1.8 l -0.45,0.9 q -0.4,0.4 -0.85,0.35 l -0.9,-0.3 -0.85,-0.4 m -27,-8.25 1.15,-0.9 1.4,-0.15 h 0.05 q 0.65,0.1 1.15,0.6 1.1,1.2 0.45,2.65 -0.3,0.75 -1.65,1.8 l -3.9,3.7 -1.7,1.95 -0.95,1.4 -0.5,0.9 -0.7,0.9 -1.05,0.7 q -0.5,0.1 -1,-0.3 -0.45,-0.4 -0.55,-1 -0.15,-0.9 0.5,-2.15 l 2.35,-4.1 q 2,-2.95 4.95,-6 m 50.9,29.35 1.95,0.05 q 0.9,0.6 1,1.75 0.05,1 -0.5,1.95 -0.6,1.1 -1.65,1.4 h -1.1 l -0.85,-0.6 q -0.55,-0.85 0,-2.65 0.55,-1.55 1.15,-1.9"
         fill="#ffffff"
         fill-rule="evenodd"
         stroke="none"
         id="path2" />
      <path
         d="m 22.6,-28.15 0.15,0.7 Q 23.2,-24.9 21.4,-21 l -1.05,2.05 -1.5,1.75 -1.7,1.55 q -1.9,1.4 -5,1.65 l -2.05,-3.45 q -2.35,-3.5 -5.6,-6.15 -1.2,-0.9 -1.95,-1 -1.4,-0.15 -2.15,1 -0.75,1.25 -0.1,2.45 0.35,0.7 1.85,1.75 3.45,2.5 5.9,6.35 1.65,2.55 2.85,5.7 l -1,1.95 Q 8.35,-2.75 5.8,-0.9 1.65,2.2 -5.4,3.65 -14.35,5.45 -21.75,3.95 -26.8,2.9 -29.9,0.4 l -0.05,-0.05 q -0.25,-0.75 -0.9,-1.15 l -0.55,-0.25 -1.45,-2.2 q -1.1,-2.2 -1.05,-4.35 l 0.25,-0.6 q 1.5,-3.5 2.8,-5.35 1.3,-1.9 4.2,-4.8 6.15,-6.05 10.8,-7.95 1.15,-0.4 1.45,-0.95 l 0.15,-0.45 -0.1,-0.6 -0.65,-0.95 q -0.85,-0.6 -2.2,-0.5 l -0.5,0.05 v -0.2 l 0.65,-0.55 5.1,-0.15 2.15,1 q 1.25,0.5 2.15,0.3 1.25,-0.3 1.75,-1.55 0.4,-1.25 -0.4,-2.3 l -1.9,-1.35 q -1.75,-1 -2.95,-2.5 -1.55,-1.85 -1.1,-3.4 0.6,-1.75 2.85,-1.95 l 1.55,0.2 q 0.8,0.35 1.75,2.05 l 3,5.55 q 0.55,1.25 1.3,1.55 0.6,0.55 1.5,0.6 1.55,0 2.2,-1.3 0.3,-0.65 0.3,-2.4 l 0.25,-2.3 q 0.3,-2.05 1.2,-3.05 0.7,-0.8 1.8,-1.1 l 2.1,0.1 0.1,1 q 0,2.1 -0.8,5.05 l -1.2,3.1 -0.3,0.65 -1.25,1.4 -0.4,1.05 q -0.05,0.45 0.35,0.8 0.35,0.4 0.85,0.35 l 0.85,-0.25 3.6,-1.25 1.85,-0.1 5.25,0.2 q 3.2,0.55 6.15,2.3 M -23.7,-19 q -2.95,3.05 -4.95,6 L -31,-8.9 q -0.65,1.25 -0.5,2.15 0.1,0.6 0.55,1 0.5,0.4 1,0.3 l 1.05,-0.7 0.7,-0.9 0.5,-0.9 0.95,-1.4 1.7,-1.95 3.9,-3.7 q 1.35,-1.05 1.65,-1.8 0.65,-1.45 -0.45,-2.65 -0.5,-0.5 -1.15,-0.6 h -0.05 l -1.4,0.15 -1.15,0.9 m 27,8.25 0.85,0.4 0.9,0.3 Q 5.5,-10 5.9,-10.4 l 0.45,-0.9 q 0.1,-0.75 -0.55,-1.8 L 5,-13.95 3.95,-14.1 Q 3.4,-14 3,-13.6 q -0.85,0.9 -0.35,2.05 0.15,0.55 0.65,0.8 m -18.15,-1.9 1.15,-1.3 3.15,-3.15 4.05,-3.15 q 2.2,-1.35 2.4,-2.65 0.1,-1 -0.55,-1.7 -0.65,-0.75 -1.65,-0.65 -0.8,0.1 -1.75,0.8 l -4.05,3.45 -3.6,4 -1.5,1.95 -1.4,2.95 q -1.7,4.5 -1.1,7.05 0.1,0.7 0.6,0.65 0.2,-0.05 0.3,-0.4 l 0.1,-0.55 0.45,-0.7 0.65,-1.3 0.45,-1.35 1,-1.95 1.3,-2"
         fill="#2b2b2b"
         fill-rule="evenodd"
         stroke="none"
         id="path3" />
      <path
         d="m 12.15,-14 q 3.1,-0.25 5,-1.65 l 1.7,-1.55 1.5,-1.75 1.05,-2.05 q 1.8,-3.9 1.35,-6.45 l -0.15,-0.7 0.1,0.05 q 2.55,1.4 5.3,4.25 4.1,4.3 5.65,8.7 0.8,2.3 1.15,5.9 1,9.75 -2.35,19.25 -3.4,9.5 -10.3,16.5 l -3.55,3.15 q -4.85,3.75 -11.9,5.85 -5.5,1.6 -13.25,2.4 -2.8,0.3 -4.55,0.05 -2.1,-0.25 -5.55,-1.95 -3.3,-1.5 -7.05,-3.55 -4.6,-2.5 -6.7,-4.65 -1.5,-1.55 -3.7,-5.15 l -2.95,-5.55 q -1.2,-3.3 -1.1,-7.9 0.05,-4.15 1.25,-8.65 0.85,-3.2 3,-8.15 -0.05,2.15 1.05,4.35 l 1.45,2.2 -0.85,-0.05 q -0.8,0.1 -1.3,0.6 -0.95,0.8 -0.7,2.05 l 0.75,1.25 1.35,0.55 q 0.75,0.05 1.4,-0.4 0.65,-0.45 0.85,-1.15 0.25,-0.7 0,-1.4 3.1,2.5 8.15,3.55 7.4,1.5 16.35,-0.3 Q 1.65,2.2 5.8,-0.9 8.35,-2.75 9.9,-5.4 l 1,-1.95 0.9,2.8 q 1.15,3.9 1.7,8.8 l 0.55,9 0.2,0.75 q 0.2,0.3 0.5,0.25 l 0.4,-0.45 q 0.8,-1.55 1,-4.85 0.6,-9.9 -1.9,-17.75 L 12.15,-14 M 27.2,10.35 q -0.6,0.35 -1.15,1.9 -0.55,1.8 0,2.65 l 0.85,0.6 H 28 q 1.05,-0.3 1.65,-1.4 0.55,-0.95 0.5,-1.95 -0.1,-1.15 -1,-1.75 L 27.2,10.35"
         fill="#202020"
         fill-rule="evenodd"
         stroke="none"
         id="path4" />
    </g>
    <g
       id="sprite1"
       transform="translate(17.4,15.85)">
      <use
         ffdec:characterId="31"
         height="57.200001"
         transform="matrix(0.5366,0,0,0.5366,-16.6582,-14.546)"
         width="70.75"
         xlink:href="#sprite2"
         id="use4" />
    </g>
    <g
       id="sprite2"
       transform="translate(-8.65,-10.35)">
      <use
         ffdec:characterId="30"
         height="57.200001"
         transform="translate(8.65,10.35)"
         width="70.75"
         xlink:href="#shape1"
         id="use5" />
    </g>
    <g
       id="shape1"
       transform="translate(-8.65,-10.35)">
      <path
         d="m 14.8,41.7 q 0.65,-1.75 2.65,-2.5 1.8,-0.8 3.7,-0.25 1.15,0.45 2.25,1.2 l 0.9,0.4 q 1.65,0.9 2.85,2.5 L 37.8,30.1 q 2.35,-2.8 3.75,-3.95 1.5,-1.15 4.25,-2.4 18.2,-8.85 27.65,-12.6 2.15,-0.8 3.25,-0.8 h 0.8 l 1.9,2.4 -0.2,0.8 q -0.2,1.1 -1.55,3 -5.85,8.25 -18.85,23.8 -1.85,2.35 -3.35,3.5 -1.4,1.15 -4.75,2.75 l -15.15,7.15 q 1.2,1.6 1.75,3.4 l 0.2,1 0.55,2.5 q 0.1,1.95 -1.1,3.55 -1.2,1.65 -3.05,1.9 l -1.3,0.05 q -1.65,0.2 -3.45,-0.65 -1.85,-0.9 -3,-2.6 L 25,60.95 23.8,62.1 q -2.6,2.85 -4.3,3.95 -2.85,1.8 -5.5,1.45 l -1.65,-0.5 -1.2,-0.7 -0.2,-0.2 q -1,-0.85 -1.6,-1.9 L 9.25,64 9.15,63.8 8.75,62.4 q -0.2,-0.8 -0.05,-1.7 0.25,-2.65 2.7,-5.05 1.5,-1.3 4.9,-3.15 L 17.7,51.55 16.05,50 q -1.35,-1.5 -1.8,-3.6 -0.4,-1.85 0.25,-3.45 l 0.3,-1.25"
         fill="#000000"
         fill-opacity="0.372549"
         fill-rule="evenodd"
         stroke="none"
         id="path5" />
    </g>
  </defs>
</svg>
