<?xml version="1.0" encoding="UTF-8" standalone="no"?>
<svg
   ffdec:objectType="frame"
   height="77.25"
   width="79.892532"
   version="1.1"
   id="svg5"
   sodipodi:docname="ITEM Alloy Mask (head).svg"
   xmlns:inkscape="http://www.inkscape.org/namespaces/inkscape"
   xmlns:sodipodi="http://sodipodi.sourceforge.net/DTD/sodipodi-0.dtd"
   xmlns:xlink="http://www.w3.org/1999/xlink"
   xmlns="http://www.w3.org/2000/svg"
   xmlns:svg="http://www.w3.org/2000/svg"
   xmlns:ffdec="https://www.free-decompiler.com/flash">
  <sodipodi:namedview
     id="namedview5"
     pagecolor="#ffffff"
     bordercolor="#000000"
     borderopacity="0.25"
     inkscape:showpageshadow="2"
     inkscape:pageopacity="0.0"
     inkscape:pagecheckerboard="0"
     inkscape:deskcolor="#d1d1d1"
     fit-margin-top="5"
     fit-margin-left="5"
     fit-margin-right="5"
     fit-margin-bottom="5" />
  <g
     transform="translate(38.033333,47.5)"
     id="g1">
    <use
       ffdec:characterId="17"
       height="119.15"
       id="rarity"
       transform="translate(-58.5,-60.65)"
       width="119.15"
       xlink:href="#sprite0" />
    <use
       ffdec:characterId="1169"
       height="77.25"
       transform="translate(-38.05,-47.5)"
       width="79.900002"
       xlink:href="#shape0"
       id="use1" />
  </g>
  <defs
     id="defs5">
    <g
       id="shape0"
       transform="translate(36.75,45.6)">
      <path
         d="m 27.95,-18.25 q 8.1,6.05 11.45,15.45 1.6,4.5 2.45,9.05 1.2,4.2 1.3,8.65 0.2,7.25 -3.95,12.9 -0.8,1.05 -2.1,1.15 l -19.1,1.7 -18.65,1 q -7.6,-0.15 -12.15,-6.1 -0.2,-0.25 -0.5,-0.3 -1.15,5.75 -7.3,5.85 -6,0.1 -10.3,-4.4 -4.25,-4.55 -5.3,-10.65 -1.2,-7.2 0.3,-14.35 2.2,-10.55 10,-18.1 1.8,-1.75 4.1,-2.8 l 0.4,-0.15 0.45,-0.45 q 2.6,-2.3 6.1,-3.2 l 5.4,-0.8 0.8,0.15 0.85,-7.4 q 0.7,-5.7 2.5,-11.1 l 0.65,-1.65 q 0.8,-1.2 2.1,-1.75 h 0.4 v -0.05 q 3.5,0.7 4.3,4.35 l 0.55,2 0.35,0.45 0.15,0.65 v 0.7 l 0.8,4.2 q 0.2,1.9 0,3.8 l 0.3,0.95 0.15,2 -0.05,0.15 0.35,2.75 1.55,-0.2 2.15,-0.15 h 1.65 q 9.95,-0.15 17.85,5.7 m 9.9,31.7 -0.6,-3.9 L 37.1,8.75 36.65,6.1 Q 35.95,4.6 35.7,3 35.35,0.4 34.25,-1.9 L 32.75,-5 q -3,-4.95 -7.7,-8.5 l -4.25,-2.6 -0.7,1.05 -1.4,2.15 -3.4,6.5 Q 12.85,-2.15 8.55,0 L 7.5,0.2 4,-0.2 1.45,-0.5 l -10.6,-1.2 -0.6,1.4 -0.85,1.5 -0.15,1.15 -0.25,0.8 q -0.25,4.6 -0.15,9.3 l 0.05,3.95 0.45,1.6 q 0.1,0.6 0.05,1.15 l 0.35,0.8 q 1.7,0.95 2.95,2.75 1.55,2.3 4.3,2.75 7.1,1.1 14.2,0.1 l 10.35,-1.2 9.9,-0.55 4.8,-0.4 q 1.15,-2.65 1.5,-5.5 0.25,-2.25 0.1,-4.45 m -9.7,5.9 q -0.25,-0.85 0.3,-2 0.65,-1.45 2.15,-1.5 1.5,0.4 2.1,1.15 0.9,1.15 -0.35,3.15 -0.75,1.2 -2.2,0.8 -1.7,-0.5 -2,-1.6 m -18.6,-37.85 -1.1,-0.2 -3,-0.05 0.15,1.1 q 0.35,2.5 -1,4.75 -2.3,3.6 -6.75,3 -7.75,-1.05 -7.05,-8.4 l 0.05,-0.5 -3.95,0.6 q -2,1.85 -3.1,4.4 -0.5,1.15 -1.3,2.2 l -0.25,1.15 -0.45,1.15 q 0,0.95 -0.3,1.8 l -0.25,1.45 27,2.35 0.7,-0.8 0.6,-0.5 2.15,-3.15 1.35,-1.95 0.05,-0.15 0.05,-0.15 v -0.15 q 1.9,-3.7 4.2,-6.9 -3.7,-1.1 -7.8,-1.05 M -1.8,-40.6 q -0.9,2.2 -1,4.6 0,0.8 -0.45,1.45 -0.55,3.45 -0.45,6.9 0,1.2 -0.4,2.25 l -0.1,3.3 -0.2,1.3 q 0.1,0.7 -0.05,1.45 l -0.2,0.5 v 1.8 l 0.1,0.65 q 1.55,1.45 3.85,1.55 2.5,-0.5 2.85,-3.1 L 2.2,-18.3 1.5,-22.9 1.4,-24.5 q -1.2,-4.8 -1.45,-9.8 l -0.4,-3.1 -0.5,-1.5 -0.25,-0.5 -0.3,-1 q -0.1,-0.3 -0.3,-0.2 m 9.3,29.55 q 3.65,0.95 1.8,4.1 -0.8,1.3 -2.2,0.85 -3.1,-1 -1.55,-3.75 0.65,-1.2 1.95,-1.2 m 9.15,26.75 q 1.85,0.5 2.55,1.45 0.9,1.3 -0.4,3.55 -0.9,1.5 -2.65,1 -3.1,-0.85 -2.15,-3.85 l 0.25,-0.55 q 0.65,-1.5 2.4,-1.6 m -16.4,2.75 q 4.1,1.05 2.05,4.6 -0.85,1.5 -2.55,1 -3,-0.8 -2,-3.7 0.65,-1.8 2.5,-1.9 m -26.5,-27.9 Q -26.55,-8.7 -27,-8 l -0.05,0.15 -0.05,0.15 -0.05,0.2 q -2.45,4 -3.3,8.6 -0.75,3.85 -0.9,7.85 -0.3,7.55 4.55,13.25 2.75,3.3 6.45,3 -3.9,-4.15 -5.9,-9.55 l -0.05,-0.2 -0.05,-0.15 v -0.15 q -0.5,-0.6 -0.6,-1.3 l 0.05,-0.65 q -1.65,-5.7 -0.5,-11.45 0.5,-2.5 1.45,-4.75 l 0.2,-0.65 0.25,-0.5 0.2,-0.65 0.3,-0.5 q 1.2,-3.5 3.2,-6.6 l 1.3,-1.9 q 0.35,-1.1 1.1,-2 -3.3,1.85 -6,4.8 l -0.85,1.55 M -21.5,-3 q -0.35,0 -0.45,-0.4 l -0.1,-0.65 -0.55,1.5 q -0.25,1.7 -0.75,3.45 l -0.4,1.45 V 3.3 l -0.2,0.65 0.05,2.15 v 1.15 l 0.85,3.55 0.35,1.65 q 1.85,4.95 4.8,9.35 l 0.65,-1 q -1,-1.95 -1.35,-4.2 -1.2,-2.85 -1.65,-6 V 8.1 q -0.75,-2.6 -0.5,-5.4 0.1,-1.25 0.8,-2.25 l 0.15,-0.8 0.35,-0.7 0.1,-0.5 0.1,-0.65 0.35,-0.55 -2.6,-0.25 m 8.05,-9.15 q 3.55,1.35 0.8,3.85 -0.85,0.8 -1.95,0.15 l -0.9,-0.95 q -0.4,-1.25 0.45,-2.25 0.65,-0.8 1.6,-0.8 M -16.6,-2 l -0.4,0.8 -0.05,0.8 q -0.1,0.4 -0.35,0.65 l -0.1,1 -0.25,0.8 q 0.3,5.35 1.6,10.4 l 1,3.65 0.15,0.3 -0.05,-7.45 Q -15,2.9 -12,-2 l -4.5,-0.5 -0.1,0.5"
         fill="#000000"
         fill-rule="evenodd"
         stroke="none"
         id="path1" />
      <path
         d="m 9.55,-18.5 q 4.1,-0.05 7.8,1.05 -2.3,3.2 -4.2,6.9 v 0.15 l -0.05,0.15 -0.05,0.15 -1.35,1.95 -2.15,3.15 -0.6,0.5 -0.7,0.8 -27,-2.35 0.25,-1.45 q 0.3,-0.85 0.3,-1.8 l 0.45,-1.15 0.25,-1.15 q 0.8,-1.05 1.3,-2.2 1.1,-2.55 3.1,-4.4 l 3.95,-0.6 -0.05,0.5 q -0.7,7.35 7.05,8.4 4.45,0.6 6.75,-3 1.35,-2.25 1,-4.75 l -0.15,-1.1 3,0.05 1.1,0.2 m -2.05,7.45 q -1.3,0 -1.95,1.2 Q 4,-7.1 7.1,-6.1 q 1.4,0.45 2.2,-0.85 1.85,-3.15 -1.8,-4.1 M -16.6,-2 -16.5,-2.5 -12,-2 q -3,4.9 -3.05,10.95 l 0.05,7.45 -0.15,-0.3 -1,-3.65 q -1.3,-5.05 -1.6,-10.4 l 0.25,-0.8 0.1,-1 Q -17.15,0 -17.05,-0.4 L -17,-1.2 -16.6,-2 m 3.15,-10.15 q -0.95,0 -1.6,0.8 -0.85,1 -0.45,2.25 l 0.9,0.95 q 1.1,0.65 1.95,-0.15 2.75,-2.5 -0.8,-3.85 m -8.05,9.15 2.6,0.25 -0.35,0.55 -0.1,0.65 -0.1,0.5 -0.35,0.7 -0.15,0.8 q -0.7,1 -0.8,2.25 -0.25,2.8 0.5,5.4 v 2.5 q 0.45,3.15 1.65,6 0.35,2.25 1.35,4.2 l -0.65,1 q -2.95,-4.4 -4.8,-9.35 L -23.05,10.8 -23.9,7.25 V 6.1 l -0.05,-2.15 0.2,-0.65 V 2.35 l 0.4,-1.45 q 0.5,-1.75 0.75,-3.45 l 0.55,-1.5 0.1,0.65 q 0.1,0.4 0.45,0.4 m -4.75,-6.45 0.85,-1.55 q 2.7,-2.95 6,-4.8 -0.75,0.9 -1.1,2 l -1.3,1.9 q -2,3.1 -3.2,6.6 l -0.3,0.5 -0.2,0.65 -0.25,0.5 -0.2,0.65 q -0.95,2.25 -1.45,4.75 -1.15,5.75 0.5,11.45 l -0.05,0.65 q 0.1,0.7 0.6,1.3 v 0.15 l 0.05,0.15 0.05,0.2 q 2,5.4 5.9,9.55 -3.7,0.3 -6.45,-3 -4.85,-5.7 -4.55,-13.25 0.15,-4 0.9,-7.85 0.85,-4.6 3.3,-8.6 l 0.05,-0.2 0.05,-0.15 L -27,-8 q 0.45,-0.7 0.75,-1.45"
         fill="#9c9c9c"
         fill-rule="evenodd"
         stroke="none"
         id="path2" />
      <path
         d="M 1.45,-0.5 4,-0.2 7.5,0.2 8.55,0 q 4.3,-2.15 6.75,-6.4 l 3.4,-6.5 1.4,-2.15 0.7,-1.05 4.25,2.6 q 4.7,3.55 7.7,8.5 l 1.5,3.1 q 1.1,2.3 1.45,4.9 0.25,1.6 0.95,3.1 l 0.45,2.65 0.15,0.8 0.6,3.9 L 32.7,17 q -0.6,-0.75 -2.1,-1.15 -1.5,0.05 -2.15,1.5 -0.55,1.15 -0.3,2 -8.65,3.7 -18.25,2 Q 2.85,20.1 -0.55,13.7 L -0.6,13.55 V 13.4 L -0.65,13.25 Q -3.45,7.4 -0.4,1.65 0.3,0.3 1.45,-0.5 M -1.8,-40.6 q 0.2,-0.1 0.3,0.2 l 0.3,1 0.25,0.5 0.5,1.5 0.4,3.1 q 0.25,5 1.45,9.8 l 0.1,1.6 0.7,4.6 -0.05,0.35 q -0.35,2.6 -2.85,3.1 -2.3,-0.1 -3.85,-1.55 l -0.1,-0.65 v -1.8 l 0.2,-0.5 q 0.15,-0.75 0.05,-1.45 l 0.2,-1.3 0.1,-3.3 q 0.4,-1.05 0.4,-2.25 -0.1,-3.45 0.45,-6.9 0.45,-0.65 0.45,-1.45 0.1,-2.4 1,-4.6 m 18.45,56.3 q -1.75,0.1 -2.4,1.6 L 14,17.85 q -0.95,3 2.15,3.85 1.75,0.5 2.65,-1 1.3,-2.25 0.4,-3.55 -0.7,-0.95 -2.55,-1.45"
         fill="#d9d9d9"
         fill-rule="evenodd"
         stroke="none"
         id="path3" />
      <path
         d="M 1.45,-0.5 Q 0.3,0.3 -0.4,1.65 -3.45,7.4 -0.65,13.25 l 0.05,0.15 v 0.15 l 0.05,0.15 q 3.4,6.4 10.45,7.65 9.6,1.7 18.25,-2 0.3,1.1 2,1.6 1.45,0.4 2.2,-0.8 1.25,-2 0.35,-3.15 l 5.15,-3.55 q 0.15,2.2 -0.1,4.45 -0.35,2.85 -1.5,5.5 l -4.8,0.4 -9.9,0.55 -10.35,1.2 Q 4.1,26.55 -3,25.45 -5.75,25 -7.3,22.7 -8.55,20.9 -10.25,19.95 l -0.35,-0.8 Q -10.55,18.6 -10.65,18 l -0.45,-1.6 -0.05,-3.95 q -0.1,-4.7 0.15,-9.3 l 0.25,-0.8 0.15,-1.15 0.85,-1.5 0.6,-1.4 10.6,1.2 m -1.2,18.95 q -1.85,0.1 -2.5,1.9 -1,2.9 2,3.7 1.7,0.5 2.55,-1 2.05,-3.55 -2.05,-4.6"
         fill="#afafaf"
         fill-rule="evenodd"
         stroke="none"
         id="path4" />
    </g>
    <g
       id="sprite1"
       transform="translate(17.4,15.85)">
      <use
         ffdec:characterId="31"
         height="57.200001"
         transform="matrix(0.5366,0,0,0.5366,-16.6582,-14.546)"
         width="70.75"
         xlink:href="#sprite2"
         id="use4" />
    </g>
    <g
       id="sprite2"
       transform="translate(-8.65,-10.35)">
      <use
         ffdec:characterId="30"
         height="57.200001"
         transform="translate(8.65,10.35)"
         width="70.75"
         xlink:href="#shape1"
         id="use5" />
    </g>
    <g
       id="shape1"
       transform="translate(-8.65,-10.35)">
      <path
         d="m 14.8,41.7 q 0.65,-1.75 2.65,-2.5 1.8,-0.8 3.7,-0.25 1.15,0.45 2.25,1.2 l 0.9,0.4 q 1.65,0.9 2.85,2.5 L 37.8,30.1 q 2.35,-2.8 3.75,-3.95 1.5,-1.15 4.25,-2.4 18.2,-8.85 27.65,-12.6 2.15,-0.8 3.25,-0.8 h 0.8 l 1.9,2.4 -0.2,0.8 q -0.2,1.1 -1.55,3 -5.85,8.25 -18.85,23.8 -1.85,2.35 -3.35,3.5 -1.4,1.15 -4.75,2.75 l -15.15,7.15 q 1.2,1.6 1.75,3.4 l 0.2,1 0.55,2.5 q 0.1,1.95 -1.1,3.55 -1.2,1.65 -3.05,1.9 l -1.3,0.05 q -1.65,0.2 -3.45,-0.65 -1.85,-0.9 -3,-2.6 L 25,60.95 23.8,62.1 q -2.6,2.85 -4.3,3.95 -2.85,1.8 -5.5,1.45 l -1.65,-0.5 -1.2,-0.7 -0.2,-0.2 q -1,-0.85 -1.6,-1.9 L 9.25,64 9.15,63.8 8.75,62.4 q -0.2,-0.8 -0.05,-1.7 0.25,-2.65 2.7,-5.05 1.5,-1.3 4.9,-3.15 L 17.7,51.55 16.05,50 q -1.35,-1.5 -1.8,-3.6 -0.4,-1.85 0.25,-3.45 l 0.3,-1.25"
         fill="#000000"
         fill-opacity="0.372549"
         fill-rule="evenodd"
         stroke="none"
         id="path5" />
    </g>
  </defs>
</svg>
