<?xml version="1.0" encoding="UTF-8" standalone="no"?>
<svg
   ffdec:objectType="frame"
   height="73.099998"
   width="89.337997"
   version="1.1"
   id="svg6"
   xmlns:xlink="http://www.w3.org/1999/xlink"
   xmlns="http://www.w3.org/2000/svg"
   xmlns:svg="http://www.w3.org/2000/svg"
   xmlns:ffdec="https://www.free-decompiler.com/flash">
  <g
     transform="translate(44.544,37.9)"
     id="g1">
    <use
       ffdec:characterId="17"
       height="119.15"
       id="rarity"
       transform="translate(-58.5,-60.65)"
       width="119.15"
       xlink:href="#sprite0" />
    <use
       ffdec:characterId="840"
       height="73.400002"
       transform="translate(-44.55,-38.2)"
       width="89.349998"
       xlink:href="#shape0"
       id="use1" />
  </g>
  <defs
     id="defs6">
    <g
       id="shape0"
       transform="translate(45.1,38.95)">
      <path
         d="m -18.5,-19.9 q 2.05,-3.15 4.6,-5.15 l 0.3,-0.25 0.65,-0.5 q 1.35,-0.95 4.1,-2.3 l 4.75,-1.95 3.8,-0.65 h 1.5 l 2.05,0.65 4.75,1.95 q 2.75,1.35 4.1,2.3 l 0.65,0.5 0.3,0.25 q 2.55,2 4.6,5.15 l 1.8,3.3 v -0.6 -1.2 l -0.9,-3.9 q -0.7,-2.45 -0.45,-3.95 0.35,-2.55 2.6,-4.2 1.85,-1.45 4.7,-1.7 H 27 l 1.55,-0.2 q 2.7,-0.55 4.25,-3.25 l 0.75,-1.6 1.1,-1.3 2.8,-0.15 q 2.05,0.65 3.95,3.1 2.2,3 2.7,6 0.6,3.65 -1.3,6.35 -0.75,1.15 -1.9,1.9 l 0.45,0.35 q 2.15,1.9 2.45,4.65 l 0.1,1.2 -0.1,1.15 -0.7,1.75 q -0.85,1.4 -1.3,1.75 -0.5,0.4 -1.7,0.8 L 38.05,-9.2 37,-9.25 38.1,-7.4 q 0.9,1.85 0.6,3.6 l -0.3,1.2 -0.8,1.7 q -0.75,1 -2.75,1.75 L 33.25,1.35 31.15,1 29.5,0.65 28.5,0.4 28.05,2.15 27.1,3.95 26.35,5 Q 25.9,5.5 24.9,6 l -2,0.7 0.05,0.05 0.1,0.2 q 1.25,2.45 0.6,5.2 l -0.55,1.35 -2.25,1.5 -1.7,0.7 -1.85,0.05 -1.85,-0.15 0.25,1.7 q 0.15,3.65 -2.2,6.4 -1.95,2.25 -5.2,3.25 l -1.95,0.5 0.15,0.4 0.25,1.75 -0.1,1.45 -0.7,1.2 L 4.6,33.5 3,34.05 0.15,34.45 H -0.4 -1 l -2.85,-0.4 q -1.05,-0.2 -1.6,-0.55 l -1.35,-1.25 -0.7,-1.2 -0.1,-1.45 0.25,-1.75 0.15,-0.4 -1.95,-0.5 q -3.25,-1 -5.2,-3.25 -2.35,-2.75 -2.2,-6.4 l 0.25,-1.7 -1.85,0.15 L -20,15.7 -21.7,15 -23.95,13.5 -24.5,12.15 q -0.65,-2.75 0.6,-5.2 l 0.1,-0.2 0.05,-0.05 -2,-0.7 -1.45,-1 -0.75,-1.05 -0.95,-1.8 -0.45,-1.75 -1,0.25 L -32,1 l -2.1,0.35 -1.6,-0.5 q -2,-0.75 -2.75,-1.75 l -0.8,-1.7 -0.3,-1.2 q -0.3,-1.75 0.6,-3.6 l 1.1,-1.85 -1.05,0.05 -2.05,-0.45 q -1.2,-0.4 -1.7,-0.8 l -1.3,-1.75 -0.7,-1.75 -0.1,-1.15 0.1,-1.2 q 0.3,-2.75 2.45,-4.65 l 0.45,-0.35 q -1.15,-0.75 -1.9,-1.9 -1.9,-2.7 -1.3,-6.35 0.5,-3 2.7,-6 1.9,-2.45 3.95,-3.1 l 2.8,0.15 q 0.65,0.4 1.1,1.3 l 0.75,1.6 q 1.55,2.7 4.25,3.25 l 1.55,0.2 h 1.6 q 2.85,0.25 4.7,1.7 2.25,1.65 2.6,4.2 0.25,1.5 -0.45,3.95 l -0.9,3.9 v 1.2 0.6 l 1.8,-3.3 m 54,-3 0.25,-0.4 1.6,-1.25 1.5,-1.4 q 1.05,-1.65 0.25,-3.75 -0.45,-1.2 -2.05,-3.3 -1.6,2.6 -4.3,4.15 Q 30,-27.3 27,-27.3 l -2,0.05 q -0.7,0.1 -1.15,0.45 l -0.45,0.4 q -0.4,0.4 -0.4,1 l 0.15,1.2 0.2,0.8 0.8,4.8 0.05,0.8 v 0.6 q -0.15,2.4 -0.95,4.8 L 22,-9.6 21.65,-9.05 Q 22,-6 21.4,-4 20.8,-1.9 19,0.35 l -1.2,1.4 -0.45,0.45 1.15,0.5 q 0.7,-0.4 1.8,-0.5 l 2.1,-0.35 q 0.95,-0.45 1.95,-2.2 0.5,-0.75 0.6,-1.3 L 25.1,-2.6 q 0.25,-0.7 0.9,-0.85 0.4,-0.5 1.15,-0.7 l 1.95,0.1 1.7,0.3 2.55,0.05 1,-0.8 Q 34.7,-5.25 34.1,-6.3 l -0.85,-1.6 q -0.9,-1.35 -1,-1.85 -0.25,-0.8 -0.05,-1.3 l -0.1,-0.45 q -0.15,-0.95 1,-1.55 l 2.2,-0.5 2.25,-0.25 q 1.25,-0.3 1.6,-1 0.25,-0.5 -0.05,-1.45 -0.4,-1 -1.2,-1.75 -1.2,-0.85 -1.75,-1.35 -1.1,-0.9 -0.95,-1.9 v -0.1 q -0.25,-0.75 0.3,-1.55 m -50.9,7.95 -1.45,4.45 q -0.95,3.45 -0.15,5.45 0.45,1.15 2,2.7 2.05,1.95 3.85,2.85 1.45,0.75 4.95,1.6 l 3.45,0.65 H -0.3 L 1,2.8 5.35,2.1 10.3,0.5 q 1.8,-0.9 3.85,-2.85 1.55,-1.55 2,-2.7 0.8,-2 -0.15,-5.45 -0.75,-3.05 -1.8,-5.35 -1.35,-2.9 -3.25,-4.65 L 7.9,-22.7 q -4.55,-2.65 -9.85,-2.65 -2.25,0 -6.8,2.65 -1.9,1.15 -3.05,2.2 -2.15,2 -3.6,5.55 m 39.45,7.2 0.35,-0.4 q 0.4,-0.35 1.15,-0.35 h 0.8 l 1.6,-1.4 q 0.7,-0.6 0.75,-1.1 l -0.1,-1.2 V -13 l -0.35,-1.05 -0.35,-1.05 0.1,-0.75 0.05,-0.55 0.3,-0.45 0.4,-0.35 0.2,-0.15 q 0.6,-0.4 0.8,-1 l 0.25,-0.8 0.15,-0.3 0.05,-0.5 -0.05,-1.4 -0.15,-0.55 -0.3,-0.45 -0.15,-0.55 -0.25,-0.5 q -0.1,-0.35 0.1,-0.75 l 0.5,-0.45 0.95,0.1 0.6,0.5 0.35,0.5 0.8,1.4 0.05,0.1 0.15,1.7 -0.05,1.3 -0.3,1.45 q -0.7,1.7 -1.8,2.45 l 0.35,1.1 0.1,1.5 -0.1,1.5 -0.1,0.8 -0.25,0.55 q -0.9,1.5 -2.45,2.9 l -0.75,0.5 -2.3,0.2 q -1.05,-0.3 -1.2,-1 -0.1,-0.4 0.1,-0.7 m -46.6,-0.7 0.05,-0.6 q -1,-1.55 -1.6,-3.35 l -0.7,-2.75 -0.15,-1.35 -0.05,-2.1 0.55,-3.7 0.1,-0.5 0.35,-1.4 0.15,-1.2 q 0,-0.6 -0.4,-1 -0.5,-0.7 -1.6,-0.85 l -2,-0.05 q -3,0 -5.75,-1.55 -2.7,-1.55 -4.3,-4.15 -1.6,2.1 -2.05,3.3 -0.8,2.1 0.25,3.75 l 1.5,1.4 1.6,1.25 0.4,0.55 q 0.35,0.7 0.15,1.4 v 0.1 q 0.15,1 -0.95,1.9 l -1.75,1.35 q -0.8,0.75 -1.2,1.75 -0.3,0.95 -0.05,1.45 0.35,0.7 1.6,1 l 2.25,0.25 2.2,0.5 q 1.15,0.6 1,1.55 l -0.1,0.45 q 0.2,0.5 -0.05,1.3 -0.1,0.5 -1,1.85 l -0.85,1.6 q -0.6,1.05 -0.25,1.8 l 1,0.8 2.55,-0.05 1.7,-0.3 1.95,-0.1 q 0.75,0.2 1.15,0.7 0.65,0.15 0.9,0.85 l 0.15,0.95 0.6,1.3 q 1,1.75 1.95,2.2 l 2.1,0.35 q 1.1,0.1 1.8,0.5 l 1.15,-0.5 -0.45,-0.45 -1.2,-1.4 q -1.8,-2.25 -2.4,-4.35 -0.55,-1.8 -0.3,-4.45 m -9.75,-13.2 0.35,-0.3 1.25,-0.6 0.75,-0.35 0.65,0.1 0.35,0.4 q 0.25,0.45 0,1 l -0.1,0.1 -0.8,0.6 -1.2,1.5 -0.25,0.45 -0.1,1.1 v 0.8 l 0.25,0.9 0.55,0.3 1.25,0.65 0.3,0.2 0.65,0.7 0.15,0.45 q 0,0.55 -0.35,1 l -0.2,0.55 -0.2,0.85 0.1,1.2 0.35,0.45 1.25,1.3 0.75,0.25 0.5,0.45 0.5,0.7 0.05,0.1 q 0.05,0.7 -0.55,1.1 -0.6,0.4 -1.35,0.3 -1.3,-0.1 -2.25,-0.95 l -1.4,-1.65 -0.5,-0.8 -0.2,-1.45 v -0.95 l 0.15,-0.9 0.2,-0.4 q -1.1,-0.55 -1.4,-0.85 l -1.05,-1.2 -0.35,-0.65 -0.05,-1.65 0.2,-2.1 0.45,-1.1 0.4,-0.6 0.9,-1 M 11.15,6.2 9.85,6.65 5.9,7.6 0.45,8.2 -0.45,8.15 -1.3,8.2 -6.75,7.6 -10.7,6.65 -11.8,6.3 -13.85,5.35 q -0.75,0.1 -2.7,0.95 -2.85,1.45 -3.5,3 l -0.1,0.9 q 0.05,0.55 0.7,0.9 l 1.2,0.3 1.05,-0.05 q 1.3,-0.25 3,-1.15 1,-0.55 1.45,-0.65 1.35,-0.35 2.15,0.65 l 0.55,1 q 0.1,0.65 -0.15,1.15 l -0.3,0.45 -0.05,0.2 -0.75,2.65 q -0.4,1.5 -0.15,2.6 0.45,1.8 2.25,2.9 1.35,0.8 3.6,1.15 l 5.05,0.3 v -0.05 h 0.15 0.1 L 4.75,22.3 q 2.25,-0.35 3.6,-1.15 1.8,-1.1 2.25,-2.9 0.25,-1.1 -0.15,-2.6 L 9.7,13 9.65,12.8 9.35,12.35 Q 9.1,11.85 9.2,11.2 q 0.15,-0.6 0.55,-1 0.8,-1 2.15,-0.65 l 1.45,0.65 q 2.4,1.25 4.05,1.2 l 1.2,-0.3 0.55,-0.4 0.15,-0.5 -0.1,-0.9 Q 18.55,7.75 15.7,6.3 13.75,5.45 13,5.35 L 11.15,6.2 M -3,27.85 h -0.15 l -0.2,0.9 0.05,0.4 0.45,0.3 2.3,0.3 V 29.7 l 0.1,0.05 0.15,-0.05 v 0.05 L 2,29.45 2.45,29.15 2.5,28.75 2.3,27.85 H 2.15 l -2.6,-0.05 h -0.1 L -3,27.85"
         fill="#000000"
         fill-rule="evenodd"
         stroke="none"
         id="path1" />
      <path
         d="m 14.2,-15.85 -0.05,2 q -0.2,1.95 -1.2,3.4 -0.8,1.3 -3.15,3 -6.2,4.35 -12.05,4.5 l -4.6,-0.45 q -3.55,-0.75 -5.3,-2.2 -1.85,-1.65 -2.8,-4.55 -0.55,-1.85 -0.55,-3.15 l 0.1,-1.65 q 1.45,-3.55 3.6,-5.55 1.15,-1.05 3.05,-2.2 4.55,-2.65 6.8,-2.65 5.3,0 9.85,2.65 l 3.05,2.2 q 1.9,1.75 3.25,4.65 m -26,22.15 q 0.05,1.45 -1.4,2.65 l -2.8,1.7 -1.2,0.7 -1.05,0.05 -1.2,-0.3 q -0.65,-0.35 -0.7,-0.9 l 0.1,-0.9 q 0.65,-1.55 3.5,-3 1.95,-0.85 2.7,-0.95 l 2.05,0.95 m 30.95,4.4 -0.9,0.25 L 15.1,10.75 13.75,9.95 12.6,9.1 Q 11.75,8.25 11.4,7.35 11.1,6.8 11.15,6.2 L 13,5.35 q 0.75,0.1 2.7,0.95 2.85,1.45 3.5,3 l 0.1,0.9 -0.15,0.5"
         fill="#d8b1b1"
         fill-rule="evenodd"
         stroke="none"
         id="path2" />
      <path
         d="m 23.85,-26.8 q 0.45,-0.35 1.15,-0.45 l 2,-0.05 q 3,0 5.75,-1.55 2.7,-1.55 4.3,-4.15 1.6,2.1 2.05,3.3 0.8,2.1 -0.25,3.75 l -1.5,1.4 -1.6,1.25 -0.25,0.4 q -1.7,0.75 -2.9,0.8 l -0.8,-1.4 -0.35,-0.5 -0.6,-0.5 -0.95,-0.1 -0.5,0.45 q -0.2,0.4 -0.1,0.75 l 0.25,0.5 0.15,0.55 0.3,0.45 0.15,0.55 0.05,1.4 -0.05,0.5 -0.15,0.3 -0.25,0.8 q -0.2,0.6 -0.8,1 l -0.2,0.15 -0.4,0.35 -0.3,0.45 -0.05,0.55 -0.1,0.75 0.35,1.05 0.35,1.05 v 0.8 l 0.1,1.2 q -0.05,0.5 -0.75,1.1 l -1.6,1.4 h -0.8 q -0.75,0 -1.15,0.35 l -0.35,0.4 -0.7,-0.35 Q 22.5,-8.65 22,-9.6 l 1.25,-2.8 q 0.8,-2.4 0.95,-4.8 l 0.2,-0.3 -0.2,-0.3 -0.05,-0.8 -0.8,-4.8 0.15,-1.65 q 0.1,-1.05 0.35,-1.75 m -60.05,4.05 -0.4,-0.55 -1.6,-1.25 -1.5,-1.4 q -1.05,-1.65 -0.25,-3.75 0.45,-1.2 2.05,-3.3 1.6,2.6 4.3,4.15 2.75,1.55 5.75,1.55 l 2,0.05 q 1.1,0.15 1.6,0.85 0.4,0.4 0.4,1 l -0.15,1.2 -0.35,1.4 -0.1,0.5 -0.55,3.7 0.05,2.1 0.15,1.35 0.7,2.75 q 0.6,1.8 1.6,3.35 l -0.05,0.6 -0.45,0.5 -1.15,0.8 -1.35,0.35 -0.05,-0.1 -0.5,-0.7 -0.5,-0.45 -0.75,-0.25 -1.25,-1.3 -0.35,-0.45 -0.1,-1.2 0.2,-0.85 0.2,-0.55 q 0.35,-0.45 0.35,-1 l -0.15,-0.45 -0.65,-0.7 -0.3,-0.2 -1.25,-0.65 -0.55,-0.3 -0.25,-0.9 v -0.8 l 0.1,-1.1 0.25,-0.45 1.2,-1.5 0.8,-0.6 0.1,-0.1 q 0.25,-0.55 0,-1 l -0.35,-0.4 -0.65,-0.1 -0.75,0.35 -1.25,0.6 -0.35,0.3 -3.9,-1.1"
         fill="#ffffff"
         fill-rule="evenodd"
         stroke="none"
         id="path3" />
      <path
         d="m 35.5,-22.9 q -0.55,0.8 -0.3,1.55 v 0.1 q -0.15,1 0.95,1.9 0.55,0.5 1.75,1.35 0.8,0.75 1.2,1.75 0.3,0.95 0.05,1.45 -0.35,0.7 -1.6,1 l -2.25,0.25 -2.2,0.5 q -1.15,0.6 -1,1.55 l 0.1,0.45 q -0.2,0.5 0.05,1.3 0.1,0.5 1,1.85 l 0.85,1.6 q 0.6,1.05 0.25,1.8 l -1,0.8 -2.55,-0.05 -1.7,-0.3 -1.95,-0.1 q -0.75,0.2 -1.15,0.7 -0.65,0.15 -0.9,0.85 l -0.15,0.95 q -0.1,0.55 -0.6,1.3 -1,1.75 -1.95,2.2 L 20.3,2.2 Q 19.2,2.3 18.5,2.7 L 17.35,2.2 17.8,1.75 19,0.35 Q 20.8,-1.9 21.4,-4 22,-6 21.65,-9.05 L 22,-9.6 q 0.5,0.95 1.35,1.5 l 0.7,0.35 q -0.2,0.3 -0.1,0.7 0.15,0.7 1.2,1 l 2.3,-0.2 0.75,-0.5 q 1.55,-1.4 2.45,-2.9 L 30.9,-10.2 31,-11 31.1,-12.5 31,-14 30.65,-15.1 q 1.1,-0.75 1.8,-2.45 l 0.3,-1.45 0.05,-1.3 -0.15,-1.7 -0.05,-0.1 q 1.2,-0.05 2.9,-0.8 m -71.7,0.15 3.9,1.1 -0.9,1 -0.4,0.6 -0.45,1.1 -0.2,2.1 0.05,1.65 0.35,0.65 1.05,1.2 q 0.3,0.3 1.4,0.85 l -0.2,0.4 -0.15,0.9 v 0.95 l 0.2,1.45 0.5,0.8 1.4,1.65 q 0.95,0.85 2.25,0.95 0.75,0.1 1.35,-0.3 0.6,-0.4 0.55,-1.1 l 1.35,-0.35 1.15,-0.8 0.45,-0.5 q -0.25,2.65 0.3,4.45 0.6,2.1 2.4,4.35 l 1.2,1.4 0.45,0.45 -1.15,0.5 q -0.7,-0.4 -1.8,-0.5 l -2.1,-0.35 Q -24.2,1.4 -25.2,-0.35 l -0.6,-1.3 -0.15,-0.95 q -0.25,-0.7 -0.9,-0.85 -0.4,-0.5 -1.15,-0.7 l -1.95,0.1 -1.7,0.3 -2.55,0.05 -1,-0.8 q -0.35,-0.75 0.25,-1.8 l 0.85,-1.6 q 0.9,-1.35 1,-1.85 0.25,-0.8 0.05,-1.3 l 0.1,-0.45 q 0.15,-0.95 -1,-1.55 l -2.2,-0.5 -2.25,-0.25 q -1.25,-0.3 -1.6,-1 -0.25,-0.5 0.05,-1.45 0.4,-1 1.2,-1.75 l 1.75,-1.35 q 1.1,-0.9 0.95,-1.9 v -0.1 q 0.2,-0.7 -0.15,-1.4"
         fill="#d8d8d8"
         fill-rule="evenodd"
         stroke="none"
         id="path4" />
      <path
         d="m -15.4,-14.95 -0.1,1.65 q 0,1.3 0.55,3.15 0.95,2.9 2.8,4.55 1.75,1.45 5.3,2.2 l 4.6,0.45 Q 3.6,-3.1 9.8,-7.45 q 2.35,-1.7 3.15,-3 1,-1.45 1.2,-3.4 l 0.05,-2 q 1.05,2.3 1.8,5.35 0.95,3.45 0.15,5.45 -0.45,1.15 -2,2.7 Q 12.1,-0.4 10.3,0.5 L 5.35,2.1 1,2.8 -0.3,2.75 H -2.75 L -6.2,2.1 q -3.5,-0.85 -4.95,-1.6 -1.8,-0.9 -3.85,-2.85 -1.55,-1.55 -2,-2.7 -0.8,-2 0.15,-5.45 l 1.45,-4.45 M -11.8,6.3 -10.7,6.65 -6.75,7.6 -1.3,8.2 -0.45,8.15 0.45,8.2 5.9,7.6 9.85,6.65 11.15,6.2 q -0.05,0.6 0.25,1.15 0.35,0.9 1.2,1.75 l 1.15,0.85 1.35,0.8 3.15,0.2 0.9,-0.25 -0.55,0.4 -1.2,0.3 q -1.65,0.05 -4.05,-1.2 L 11.9,9.55 Q 10.55,9.2 9.75,10.2 q -0.4,0.4 -0.55,1 -0.1,0.65 0.15,1.15 l 0.3,0.45 0.05,0.2 0.75,2.65 q 0.4,1.5 0.15,2.6 -0.45,1.8 -2.25,2.9 Q 7,21.95 4.75,22.3 L -0.3,22.55 H -0.4 -0.55 V 22.6 L -5.6,22.3 q -2.25,-0.35 -3.6,-1.15 -1.8,-1.1 -2.25,-2.9 -0.25,-1.1 0.15,-2.6 l 0.75,-2.65 0.05,-0.2 0.3,-0.45 q 0.25,-0.5 0.15,-1.15 l -0.55,-1 q -0.8,-1 -2.15,-0.65 -0.45,0.1 -1.45,0.65 -1.7,0.9 -3,1.15 l 1.2,-0.7 2.8,-1.7 q 1.45,-1.2 1.4,-2.65 M -3,27.85 -0.55,27.8 h 0.1 l 2.6,0.05 H 2.3 l 0.2,0.9 -0.05,0.4 -0.45,0.3 -2.3,0.3 V 29.7 l -0.15,0.05 -0.1,-0.05 v 0.05 l -2.3,-0.3 -0.45,-0.3 -0.05,-0.4 0.2,-0.9 H -3"
         fill="#bd9c9c"
         fill-rule="evenodd"
         stroke="none"
         id="path5" />
    </g>
    <g
       id="sprite1"
       transform="translate(17.4,15.85)">
      <use
         ffdec:characterId="31"
         height="57.200001"
         transform="matrix(0.5366,0,0,0.5366,-16.6582,-14.546)"
         width="70.75"
         xlink:href="#sprite2"
         id="use5" />
    </g>
    <g
       id="sprite2"
       transform="translate(-8.65,-10.35)">
      <use
         ffdec:characterId="30"
         height="57.200001"
         transform="translate(8.65,10.35)"
         width="70.75"
         xlink:href="#shape1"
         id="use6" />
    </g>
    <g
       id="shape1"
       transform="translate(-8.65,-10.35)">
      <path
         d="m 14.8,41.7 q 0.65,-1.75 2.65,-2.5 1.8,-0.8 3.7,-0.25 1.15,0.45 2.25,1.2 l 0.9,0.4 q 1.65,0.9 2.85,2.5 L 37.8,30.1 q 2.35,-2.8 3.75,-3.95 1.5,-1.15 4.25,-2.4 18.2,-8.85 27.65,-12.6 2.15,-0.8 3.25,-0.8 h 0.8 l 1.9,2.4 -0.2,0.8 q -0.2,1.1 -1.55,3 -5.85,8.25 -18.85,23.8 -1.85,2.35 -3.35,3.5 -1.4,1.15 -4.75,2.75 l -15.15,7.15 q 1.2,1.6 1.75,3.4 l 0.2,1 0.55,2.5 q 0.1,1.95 -1.1,3.55 -1.2,1.65 -3.05,1.9 l -1.3,0.05 q -1.65,0.2 -3.45,-0.65 -1.85,-0.9 -3,-2.6 L 25,60.95 23.8,62.1 q -2.6,2.85 -4.3,3.95 -2.85,1.8 -5.5,1.45 l -1.65,-0.5 -1.2,-0.7 -0.2,-0.2 q -1,-0.85 -1.6,-1.9 L 9.25,64 9.15,63.8 8.75,62.4 q -0.2,-0.8 -0.05,-1.7 0.25,-2.65 2.7,-5.05 1.5,-1.3 4.9,-3.15 L 17.7,51.55 16.05,50 q -1.35,-1.5 -1.8,-3.6 -0.4,-1.85 0.25,-3.45 l 0.3,-1.25"
         fill="#000000"
         fill-opacity="0.372549"
         fill-rule="evenodd"
         stroke="none"
         id="path6" />
    </g>
  </defs>
</svg>
