<?xml version="1.0" encoding="UTF-8" standalone="no"?>
<svg
   ffdec:objectType="frame"
   height="69.832001"
   width="51.823994"
   version="1.1"
   id="svg4"
   xmlns:xlink="http://www.w3.org/1999/xlink"
   xmlns="http://www.w3.org/2000/svg"
   xmlns:svg="http://www.w3.org/2000/svg"
   xmlns:ffdec="https://www.free-decompiler.com/flash">
  <g
     transform="translate(30.269828,43.85)"
     id="g1">
    <use
       ffdec:characterId="17"
       height="119.15"
       id="rarity"
       transform="translate(-58.5,-60.65)"
       width="119.15"
       xlink:href="#sprite0" />
    <use
       ffdec:characterId="730"
       height="69.849998"
       transform="translate(-30.25,-43.85)"
       width="51.799999"
       xlink:href="#shape0"
       id="use1" />
  </g>
  <defs
     id="defs4">
    <g
       id="shape0"
       transform="translate(30.8,44.6)">
      <path
         d="m 4.15,-39.6 3.65,0.1 q 0.85,0.15 1.45,0.65 1.7,7.45 3.75,14.95 1.05,3.8 3.25,7 0.65,0.9 0.35,2.1 l -1.85,6.45 q 1,3.3 2.3,6.5 1.3,3.2 1.85,6.55 l 0.6,1.7 q 0.55,2.85 1.45,5.6 v 0.2 l -0.15,0.25 -0.2,0.2 -0.15,0.15 -0.35,0.15 0.4,0.45 q 0.55,0.65 0.5,1.45 -0.05,0.9 -0.6,1.55 -4.45,1.1 -5.9,-3.8 -0.95,-3.25 -2.6,-6.15 -6.45,-11.2 -11.4,-23.1 -2.2,-3.95 -3.4,-8.25 -0.8,-3 1.85,-4.95 l 0.85,-0.75 0.05,-0.25 0.05,-0.4 0.1,-0.65 0.45,-0.85 0.15,-2.8 q 0.1,-3.7 3.55,-4.05 m 1.95,5.2 -0.2,-0.85 -0.85,-0.1 H 5 v 0.1 l -0.2,1.55 -0.05,0.35 -0.25,1.85 -0.35,1.1 q 0,1 -0.35,1.85 -0.5,1.25 -1.8,2.2 l -0.1,0.05 -0.5,0.4 0.15,0.4 q 1.55,4.5 3.8,9 l 0.3,-0.75 0.05,-0.2 v -0.45 l -0.05,-0.2 0.1,-0.2 0.2,-0.4 v -0.05 l 0.05,-0.2 0.3,-1.75 0.45,-2.35 0.5,-1.9 -0.05,-0.65 0.05,-0.85 0.25,-0.4 -0.2,-0.85 -0.4,-2.4 -0.8,-4.3 m 3.45,23.25 1.5,0.7 0.1,-0.55 0.65,-2.1 0.8,-2.4 q -2.3,-3.25 -3.7,-6.85 l -0.95,4.55 -0.1,0.2 -0.4,1.15 -0.65,1.15 v 0.2 l -0.1,0.65 -0.05,0.2 -0.05,0.2 1.1,2.15 1.85,0.75 M 11.1,-8 9.5,-8.35 l 0.6,1.3 1.9,3.65 2,3.5 0.7,1.2 -0.8,-1.65 -1.3,-3.1 Q 11.85,-5.5 11.35,-7.65 L 11.3,-7.95 11.1,-8 m -16.95,5.65 -2.2,2.3 -0.25,0.3 3,2.65 2.05,1.9 4.8,4.85 1.5,1.55 3.25,3.55 Q 6.15,13.8 5.4,13.2 4.5,12.5 4.4,11.35 l 0.05,-0.2 v -0.2 L 4.5,10.7 V 10.5 L 3.7,9.1 Q 3,8.3 2.75,7.3 q -3.5,-3.65 -6,-7.95 l -1.4,-2.55 -0.1,-0.2 -1.1,1.05 M -19.6,-44.6 q 4.4,1.05 4.75,6.1 l 0.25,1.95 0.1,0.65 1.4,4.25 q 0.55,1.8 0.8,3.7 0.75,1.3 1.15,2.75 0.5,1.6 0.65,3.25 0.65,1.25 0.95,2.55 l 0.65,3.25 0.2,0.45 0.5,1.05 0.3,0.65 q 4.7,1.8 6.35,6.15 0.45,1.2 0.45,2.65 l -0.1,1.05 0.3,0.45 0.3,0.85 0.05,0.65 0.9,1.4 1.45,2.45 q 2.3,2.55 4,5.5 L 7.15,10 q 1.7,0.9 2.35,2.8 l 0.55,2.6 q 2.8,4.25 2.4,8.95 Q 12.35,25.4 11.2,25.2 8.5,24.8 6.7,22.5 1.75,16.15 -4,10.45 l -3.3,-3.6 q -3.15,-2.25 -5.6,-4.95 -0.35,-0.4 -0.2,-1 0.45,-1.9 0.45,-3.9 -5.05,-1.8 -8.5,-6 -2.75,-3.35 -4.05,-7.55 -1.4,-4.45 -3.55,-8.6 -2.45,-4.8 -2,-9.95 0.1,-0.95 0.7,-1.7 3.1,-3.85 7.25,-6.4 1.6,-1 3.2,-1.4 m -0.3,6.2 -0.3,-0.85 -0.4,0.25 -2.3,1.85 -0.65,0.6 -1.25,1.35 -0.3,0.35 -1.5,1.8 0.2,0.9 0.2,0.6 q 1.25,4.55 3.75,8.7 1.5,2.5 2.25,5.25 l 1.25,3.15 0.1,0.25 0.55,-3.25 0.25,-1 0.25,-0.7 0.55,-2.35 0.8,-4.85 -1.65,-6.05 -1.15,-4 -0.65,-2 m -5.8,35.25 -0.1,0.05 -0.2,0.1 -0.35,0.2 -0.1,0.25 -0.05,0.2 -0.1,0.2 0.1,0.2 0.05,0.25 v 0.05 l 0.1,0.15 0.05,0.2 0.55,0.6 q 0.8,0.95 1.2,2.15 L -24,3.3 v 0.15 l -0.1,0.4 -0.05,0.45 -0.15,0.4 1.45,0.8 0.6,-0.35 q 0.7,-0.45 1.55,-0.75 l 0.2,-0.05 0.55,-0.2 0.9,-0.6 -1.7,-2.15 -2.15,-2.65 -1.85,-2.3 -0.1,-0.1 -0.15,0.1 -0.7,0.4 m 0.95,-4.95 q 3.7,0.8 5.2,4.75 0.6,1.55 1.55,2.85 7.9,10.7 14.95,21.65 1.8,2.8 -1.5,3.1 -1.35,0.1 -2.4,-0.9 Q -16.6,14.1 -28.1,7.45 L -28.8,6.7 -28.85,5.85 q 0.05,-1 0.45,-1.9 l 0.1,-0.25 q -3.4,-4.45 -0.9,-9.05 0.65,-1.15 1.85,-1.85 1.25,-0.8 2.6,-0.9 m 14.25,1.15 2.35,-1.85 q -3,-1.85 -4.65,-5 -0.55,-1 -0.55,-2.15 v -0.3 l -0.5,-1.05 -0.1,-1.1 v -0.2 l -1.35,-3.95 -0.45,3.35 -0.65,4.05 -0.15,0.6 q -0.3,1.5 -1.05,2.75 v 0.05 0.15 l 0.3,0.2 6.6,4.65 0.2,-0.2 m 4.5,-0.8 -0.25,-0.05 -2.55,2.45 0.35,0.55 0.1,1 v 0.05 l 0.5,-0.4 0.75,-0.6 1.95,-1.3 0.1,-0.05 -0.2,-1.05 L -5.4,-7.5 -5.75,-7.65 -6,-7.75 M -20.8,6.7 q 2.45,1.5 4.75,3.25 l 4.25,3.55 -6.15,-8.5 -0.95,0.5 -2,1.05 -0.05,0.05 0.15,0.1"
         fill="#000000"
         fill-rule="evenodd"
         stroke="none"
         id="path1" />
      <path
         d="m 4.8,-33.7 0.6,-0.65 0.2,-0.05 0.4,-0.05 0.1,0.05 0.8,4.3 0.4,2.4 0.2,0.85 -0.25,0.4 -0.05,0.85 0.05,0.65 -0.5,1.9 -0.45,2.35 -0.3,1.75 -0.05,0.2 v 0.05 q -1.35,-2.4 -1.9,-5.2 -0.25,-1.25 -0.1,-2.55 l -0.15,-2.1 q 0.35,-0.85 0.35,-1.85 l 0.35,-1.1 0.25,-1.85 0.05,-0.35 m 2.65,17.25 0.4,-1.15 0.1,-0.2 0.95,-4.55 q 1.4,3.6 3.7,6.85 l -0.8,2.4 -0.65,2.1 -0.1,0.55 -1.5,-0.7 q -1.1,-1.6 -1.8,-3.45 -0.3,-0.85 -0.3,-1.8 v -0.05 m 3.9,8.8 -0.25,-0.35 0.2,0.05 0.05,0.3 m -14.6,7 0.05,0.45 -2.65,-2.15 1.1,-1.05 0.1,0.2 1.4,2.55 M -20.6,-39 l 0.7,0.6 0.65,2 1.15,4 1.65,6.05 -0.8,4.85 -0.55,2.35 -0.25,0.7 -0.3,-1.05 -2.6,-5.6 q -0.65,-1.35 -0.85,-2.8 -0.45,-0.55 -0.55,-1.3 v -1.7 q -0.65,-1.4 -0.95,-2.8 -0.3,-1.4 -0.25,-2.85 l 0.65,-0.6 2.3,-1.85 m -5.15,38.3 v -0.6 l -0.15,-1.05 0.2,-0.8 0.7,-0.4 0.15,-0.1 0.1,0.1 1.85,2.3 2.15,2.65 1.7,2.15 -0.9,0.6 -0.55,0.2 -0.2,0.05 q -0.85,0.3 -1.55,0.75 L -23.75,3.6 -24,3.3 -24.55,1.45 q -0.4,-1.2 -1.2,-2.15 m 9.35,-14.45 0.65,-4.05 0.45,-3.35 1.35,3.95 v 0.2 l 0.1,1.1 0.5,1.05 v 0.3 q 0,1.15 0.55,2.15 1.65,3.15 4.65,5 l -2.35,1.85 q -3.35,-3.75 -5.9,-8.2 m 7.95,10.35 -0.35,-0.55 2.55,-2.45 0.25,0.05 0.85,1.7 -1.95,1.3 -0.75,0.6 -0.6,-0.65 m -12.45,11.35 2,-1.05 0.95,-0.5 6.15,8.5 -4.25,-3.55 Q -18.35,8.2 -20.8,6.7 l -0.1,-0.15"
         fill="#857f7f"
         fill-rule="evenodd"
         stroke="none"
         id="path2" />
      <path
         d="m 6.1,-34.4 -0.1,-0.05 -0.4,0.05 -0.2,0.05 -0.6,0.65 0.2,-1.55 0.05,-0.1 0.85,0.1 0.2,0.85 m -2.3,5.85 0.15,2.1 q -0.15,1.3 0.1,2.55 0.55,2.8 1.9,5.2 l -0.2,0.4 -0.1,0.2 0.05,0.2 v 0.45 l -0.05,0.2 -0.3,0.75 q -2.25,-4.5 -3.8,-9 l 0.15,-0.35 0.3,-0.5 q 1.3,-0.95 1.8,-2.2 m 3.65,12.1 v 0.05 q 0,0.95 0.3,1.8 0.7,1.85 1.8,3.45 l -1.85,-0.75 -1.1,-2.15 0.05,-0.2 0.05,-0.2 0.1,-0.65 v -0.2 l 0.65,-1.15 M 12,-3.4 10.1,-7.05 9.5,-8.35 11.1,-8 l 0.25,0.35 q 0.5,2.15 1.25,4.2 L 12.05,-3.4 H 12 M 13.9,-0.35 14.7,1.3 14,0.1 13.9,-0.35 m -17.15,-0.3 q 2.5,4.3 6,7.95 0.25,1 0.95,1.8 l 0.8,1.4 v 0.2 l -0.05,0.25 v 0.2 l -0.05,0.2 q 0.1,1.15 1,1.85 0.75,0.6 0.9,1.55 L 3.05,11.2 1.55,9.65 -3.25,4.8 -5.3,2.9 l -3,-2.65 0.25,-0.3 2.2,-2.3 2.65,2.15 -0.05,-0.45 M -20.6,-39 l 0.4,-0.25 0.3,0.85 -0.7,-0.6 m 2.55,20.55 -0.25,1 -0.55,3.25 -0.1,-0.25 -1.25,-3.15 q -0.75,-2.75 -2.25,-5.25 -2.5,-4.15 -3.75,-8.7 l -0.2,-0.6 -0.2,-0.9 1.5,-1.8 0.3,-0.35 1.25,-1.35 q -0.05,1.45 0.25,2.85 0.3,1.4 0.95,2.8 v 1.7 q 0.1,0.75 0.55,1.3 0.2,1.45 0.85,2.8 l 2.6,5.6 0.3,1.05 m -7.75,15.35 0.1,-0.05 -0.2,0.8 0.15,1.05 v 0.6 l -0.55,-0.6 -0.05,-0.2 -0.1,-0.15 V -1.7 -2.2 l 0.25,-0.4 0.4,-0.5 m 3.55,8.25 -0.6,0.35 -1.45,-0.8 0.15,-0.4 0.05,-0.45 0.1,-0.4 V 3.3 l 0.25,0.3 1.5,1.55 m 5.85,-20.3 q 2.55,4.45 5.9,8.2 l -0.2,0.2 -6.6,-4.65 -0.3,-0.35 v -0.05 q 0.75,-1.25 1.05,-2.75 l 0.15,-0.6 m 7.95,10.35 0.6,0.65 -0.5,0.4 V -3.8 l -0.1,-1 m 3.3,-1.25 -0.85,-1.7 0.25,0.1 0.4,0.4 0.1,0.1 0.2,1.05 -0.1,0.05 m -15.75,12.6 0.1,0.15 -0.15,-0.1 0.05,-0.05"
         fill="#726d6d"
         fill-rule="evenodd"
         stroke="none"
         id="path3" />
    </g>
    <g
       id="sprite1"
       transform="translate(17.4,15.85)">
      <use
         ffdec:characterId="31"
         height="57.200001"
         transform="matrix(0.5366,0,0,0.5366,-16.6582,-14.546)"
         width="70.75"
         xlink:href="#sprite2"
         id="use3" />
    </g>
    <g
       id="sprite2"
       transform="translate(-8.65,-10.35)">
      <use
         ffdec:characterId="30"
         height="57.200001"
         transform="translate(8.65,10.35)"
         width="70.75"
         xlink:href="#shape1"
         id="use4" />
    </g>
    <g
       id="shape1"
       transform="translate(-8.65,-10.35)">
      <path
         d="m 14.8,41.7 q 0.65,-1.75 2.65,-2.5 1.8,-0.8 3.7,-0.25 1.15,0.45 2.25,1.2 l 0.9,0.4 q 1.65,0.9 2.85,2.5 L 37.8,30.1 q 2.35,-2.8 3.75,-3.95 1.5,-1.15 4.25,-2.4 18.2,-8.85 27.65,-12.6 2.15,-0.8 3.25,-0.8 h 0.8 l 1.9,2.4 -0.2,0.8 q -0.2,1.1 -1.55,3 -5.85,8.25 -18.85,23.8 -1.85,2.35 -3.35,3.5 -1.4,1.15 -4.75,2.75 l -15.15,7.15 q 1.2,1.6 1.75,3.4 l 0.2,1 0.55,2.5 q 0.1,1.95 -1.1,3.55 -1.2,1.65 -3.05,1.9 l -1.3,0.05 q -1.65,0.2 -3.45,-0.65 -1.85,-0.9 -3,-2.6 L 25,60.95 23.8,62.1 q -2.6,2.85 -4.3,3.95 -2.85,1.8 -5.5,1.45 l -1.65,-0.5 -1.2,-0.7 -0.2,-0.2 q -1,-0.85 -1.6,-1.9 L 9.25,64 9.15,63.8 8.75,62.4 q -0.2,-0.8 -0.05,-1.7 0.25,-2.65 2.7,-5.05 1.5,-1.3 4.9,-3.15 L 17.7,51.55 16.05,50 q -1.35,-1.5 -1.8,-3.6 -0.4,-1.85 0.25,-3.45 l 0.3,-1.25"
         fill="#000000"
         fill-opacity="0.372549"
         fill-rule="evenodd"
         stroke="none"
         id="path4" />
    </g>
  </defs>
</svg>
