<?xml version="1.0" encoding="UTF-8" standalone="no"?>
<svg
   ffdec:objectType="frame"
   height="92.675156"
   width="93.515381"
   version="1.1"
   id="svg5"
   xmlns:xlink="http://www.w3.org/1999/xlink"
   xmlns="http://www.w3.org/2000/svg"
   xmlns:svg="http://www.w3.org/2000/svg"
   xmlns:ffdec="https://www.free-decompiler.com/flash">
  <g
     transform="translate(47.365385,47.990741)"
     id="g1">
    <use
       ffdec:characterId="17"
       height="119.15"
       id="rarity"
       transform="translate(-58.5,-60.65)"
       width="119.15"
       xlink:href="#sprite0" />
    <use
       ffdec:characterId="1055"
       height="92.699997"
       transform="translate(-47.35,-48)"
       width="93.5"
       xlink:href="#shape0"
       id="use1" />
  </g>
  <defs
     id="defs5">
    <g
       id="shape0"
       transform="translate(94.15,49.35)">
      <path
         d="m -33.9,40.95 -3.55,1.15 -3.7,0.45 -3.2,-0.25 -1.5,0.05 -1.55,0.1 -2.05,0.05 -1.05,0.25 q -8.1,1.5 -13.95,-0.85 -1.5,-0.6 -3.05,-1.55 l -0.3,0.3 q -0.95,0.85 -2.3,0.7 -1.4,-0.15 -2.15,-1.15 -0.95,-1.4 -0.55,-4.05 l -2.95,-2.85 q -3.6,-3.5 -4.85,-5.9 -0.95,-1.9 -1.9,-6.35 L -84.1,13 -84.95,8.3 q -2.05,0 -3.45,-0.6 -2,-0.85 -3.25,-2.85 -1.2,-2 -1.25,-4.25 0,-4.45 3.6,-7.9 l -2.5,-1.55 q -1.25,-1 -1.8,-2.15 -0.55,-1.2 -0.55,-3.5 -0.1,-2.7 0.45,-4.8 0.7,-2.95 2.45,-5.05 1.6,-1.9 3.8,-3.05 2,-1.05 4.05,-1.3 2.3,-0.3 4.2,0.5 l 0.55,0.25 q 1.9,-3.9 3.55,-6.2 1.75,-2.45 4.85,-5.5 l 3.5,-3 -1.85,-2.65 q -1.5,-2.15 -0.7,-3.3 0.7,-1 2.05,-0.65 0.65,0.15 1.95,1.1 l 2.95,2.9 q 2.7,-1.1 7.15,-1.85 l 3.05,-0.4 q 4.25,-1.4 9.45,-0.95 3.9,0.35 9.85,2 4.75,1.25 7.1,2.85 1.6,1.1 4.3,4.1 l 4.65,5.5 3.45,-3.3 q 2.45,-2.35 4.3,-2.2 1.25,0.1 2.05,1.2 0.85,1.05 0.6,2.25 -0.25,1.4 -2.5,3.2 l -4.5,3.9 q 3.95,6.85 5.55,15.65 1.35,7.6 0.8,16.35 l 0.4,0.1 q 0.85,0.3 1.8,1.5 1.55,1.8 3.25,4.45 l 0.8,1.6 q 0.15,0.55 0.15,1.7 l -0.1,1.75 -0.8,2.5 -0.8,1.65 -1.4,1.45 q -1.05,0.8 -2.3,0.95 -1.25,0.15 -2.5,-0.4 -1.2,-0.5 -2,-1.25 -1.7,3.4 -4.5,6.8 l -3.75,4.2 v 1 q 0,2.05 -0.55,5.15 -0.6,3.3 -2.4,3.9 -1,0.25 -1.6,-0.35 -0.45,-0.4 -0.45,-1.7 v -2.8 l 0.05,-0.35 -3.65,2.95 q -2,1.4 -6.5,3.1 m -50.55,-43.5 q 1,-6.15 1.15,-8.3 l 0.2,-3.65 0.45,-3.6 1.2,-3.4 1,-2.35 -0.8,-0.25 -3.5,0.3 q -1.75,0.65 -2.95,2.05 -2.25,2.5 -2.4,6.65 0,1.75 0.55,2.55 l 1.45,1.3 1.65,1.1 q 1.35,1.35 1.1,3.15 -0.15,1.1 -1.1,2.45 l -1.6,2.3 q -0.9,1.5 -0.85,3.1 0.1,1.85 1.55,2.7 0.8,0.45 2.15,0.5 0.1,-2.75 0.75,-6.6 m 40.8,-40.05 h -0.7 -2.95 q -3.85,0.4 -7.7,3 l -1.9,1.45 0.95,1.85 1.25,2.7 q 1.3,2.5 4.5,7.1 l 0.2,0.25 1.15,1.6 2.5,3.1 0.7,0.7 0.45,0.45 1.15,1 2.35,2.2 1.2,1.35 0.5,0.6 q 1.25,1.7 1.65,3.35 6.65,-7.7 16.65,-17.45 l 0.8,-0.75 -2.65,-3.3 -2.2,-2.5 -0.4,-0.4 q -1.85,-1.95 -3,-2.65 l -2,-1 -2.1,-0.75 -3.7,-0.9 -0.35,-0.1 -6.2,-0.9 h -0.15 m -7.35,25.15 -1.75,-2.35 q -5.3,-7.3 -7.4,-11.9 l -1,-2.15 q -3.1,3.55 -5.9,8.1 -2.1,3.45 -2.8,6 l -0.65,3.3 -0.1,0.55 -0.65,4.75 q -1.1,6.65 -1.15,10.75 0.8,-1 0.55,-2.1 l -0.2,-0.75 -0.1,-0.8 q 0.15,-0.6 0.8,-0.8 l 1.25,0.1 q 0.65,0.35 1.1,1.3 l 0.25,0.7 q 0.45,1.35 0.4,2.4 L -68.4,0 q -0.3,2.55 -3.85,4.6 l 0.05,1.5 0.7,7.2 q 0.65,4 2,6.85 l 0.65,1.2 1.05,1.65 q 1.85,-3.05 4.4,-5.95 l 2.3,-2.5 0.45,-0.5 2.45,-2.25 q 2.3,-1.95 7.15,-4.55 4.3,-2.4 6.95,-3.25 3.95,-1.25 7,-0.35 1.3,0.35 3.6,1.65 2.5,1.4 3.6,2.3 1.15,0.95 2.35,2.35 0.95,1.15 1.95,2.65 l 0.25,0.35 q 3.7,5.5 5.3,10.55 l 1.4,-1.75 q 3.5,-4.6 4.85,-9.3 l 0.1,-0.55 0.75,-4.7 0.4,-5.5 0.05,-5.6 q -0.35,-9.85 -3.45,-17.45 l -1.15,-2.55 -0.55,-1.05 -7.6,7.9 -9.8,11.4 -1.4,1.55 -0.65,0.5 q -1.45,1 -2.75,0.55 -1.3,-0.4 -2.55,-2.9 l -1.65,-3.45 -1,-1.85 -0.65,-1.05 -0.05,-0.05 -0.3,-0.4 q -0.95,-1.1 -3.25,-2.85 l -0.85,-0.85 -0.85,-1 m -21.3,-10.6 q 1.8,-3.15 5.5,-8.05 l 0.95,-1.2 -0.95,0.85 q -3.9,3.55 -5.75,6.4 -1.3,2.1 -2.8,5.85 l -0.1,0.25 0.25,-0.1 1.05,-0.2 1.85,-3.8 m -4.95,18.4 0.85,-4.5 0.65,-4.9 0.35,-1.6 -1.7,0.65 -0.95,2.55 q -0.55,1.85 -0.7,4.55 l -0.2,4.6 -0.65,5.35 -0.6,5.35 -0.05,0.95 2.2,-0.65 q -0.1,-7.25 0.8,-12.35 m 18.05,-0.4 0.05,-0.1 0.35,-0.15 1.9,-0.6 q 3.85,-0.65 5.95,0.7 l 1,0.8 0.25,0.3 0.55,0.85 q 0.65,1.2 0.6,2.55 l -0.35,3.1 q -0.15,1.05 -0.8,2.05 l -1.15,1.35 q -1.5,1.45 -2.95,1.3 h -0.65 l -0.7,0.4 q -0.8,0.55 -2,0.45 l -2,-0.65 -1.7,-1.05 -0.7,-1 -0.45,-1.5 -0.05,-0.65 0.05,-2.1 0.25,-2.1 q 0.35,-1.4 1.5,-2.9 l 1.05,-1.05 m 3.75,3.5 -0.85,0.05 -0.1,0.1 -0.5,0.4 -0.2,0.45 -0.25,0.9 -0.15,1.3 0.1,0.85 0.15,0.2 q 0.2,0.2 0.6,0.25 l 0.65,0.1 0.25,0.2 0.5,0.3 0.85,-0.1 q 0.5,-0.25 0.75,-0.55 0.75,-0.75 0.85,-2.95 V -5.6 l -0.1,-0.45 -0.2,-0.35 q -0.35,-0.35 -0.95,-0.3 h -0.2 l -1.2,0.15 m 39.3,3.75 v 1 l -1,2.25 -0.25,0.35 -1.1,1.05 -1.2,0.6 -3.25,0.35 -0.75,-0.2 -1.45,-0.4 -1.15,-0.35 q -0.7,-0.5 -1,-1.95 v -0.05 l -0.3,-2.55 0.4,-1.9 0.4,-1.9 0.25,-1.45 1.3,-1.1 1.1,-0.55 0.75,-0.2 2,0.1 0.95,0.4 h 0.85 l 0.3,0.05 q 1.1,0.1 2,1.2 l 0.35,0.6 0.6,1.7 v 0.2 l 0.2,2.7 v 0.05 m -7,0.9 0.4,0.05 0.9,0.3 0.55,-0.05 0.4,-0.25 q 0.45,-0.4 0.6,-0.9 l 0.05,-0.05 q 0.1,-0.75 -0.2,-2.1 -1.3,-0.15 -1.8,-1.3 l -0.05,-0.1 -0.65,0.2 -0.05,0.7 -0.3,1.25 q -0.3,1.35 -0.05,2 l 0.2,0.25 M -7.7,16 q 0.95,0.8 1.75,0.15 l 0.65,-1.05 0.5,-1.4 q 0.3,-1.2 0.15,-1.8 -0.1,-0.45 -0.65,-1.2 L -7.5,7.85 q -0.45,4.05 -1.25,6.8 L -7.7,16 m -25.45,-3.4 -0.5,-0.35 -2.35,-1.1 q -1.8,-1 -2.75,-1.25 -2.15,-0.5 -6,1.3 L -50.3,14 q -1.9,1 -3.25,2 -1.2,0.9 -2.9,2.55 -3.75,3.75 -6.1,7.85 l -0.65,1.1 -0.2,0.4 -0.1,0.2 0.8,0.85 1.35,1.35 0.65,0.6 0.55,0.5 2.9,2.4 1.75,1.15 q 2.3,1.3 4.65,1.75 l 4.4,0.6 2.3,0.65 4.35,-0.25 q 1.6,-0.4 4.25,-1.5 2.9,-1.15 4.45,-2.1 1.65,-1.05 3.8,-3.1 l 1.15,-1.1 2.05,-2 q -0.6,-2.7 -2.05,-5.55 -1.4,-2.8 -3.85,-6.1 l -1.25,-1.6 -0.15,-0.2 -1.35,-1.45 -0.4,-0.4 m -44.6,-2.7 -0.15,-2.85 -2.15,0.6 q 0.3,2.75 1.1,5.5 l 1.2,4.15 0.2,1.55 0.15,-0.05 0.75,-0.1 h 0.2 q -0.9,-3.45 -1.3,-8.8 m 5.2,16.65 q -1.75,-2.4 -2.8,-4.75 l -0.2,0.05 -1.2,0.3 -0.3,0.15 0.55,1.95 q 0.7,1.5 2.3,3.15 l 2.85,2.65 0.05,0.05 0.5,-1.3 -1.75,-2.25 m 9.5,10.35 -2.75,-2.6 -0.2,0.9 2.95,1.7"
         fill="#000000"
         fill-rule="evenodd"
         stroke="none"
         id="path1" />
      <path
         d="m -44.35,-42.6 0.05,0.4 0.65,-0.4 h 0.15 l 6.2,0.9 v 0.3 l 0.35,-0.2 3.7,0.9 2.1,0.75 q -0.3,1.1 -1.15,1.75 l 0.4,0.75 h 0.05 q 0.45,-0.15 1.25,-0.6 1.2,-0.35 2.1,0.25 0.95,0.6 1.1,1.8 l 1.65,0.1 2.2,2.5 q 0.05,0.55 -0.05,1.2 l -0.15,0.85 q 0.8,0.15 1.3,0.65 0.6,0.55 0.75,1.35 -10,9.75 -16.65,17.45 -0.4,-1.65 -1.65,-3.35 l 5.25,-4.5 h -0.05 l -0.1,0.05 -5.6,3.85 -1.2,-1.35 -2.35,-2.2 -1.15,-1 3.1,-2.7 -3.55,2.25 -0.7,-0.7 -2.5,-3.1 -1.15,-1.6 -0.2,-0.25 q -3.2,-4.6 -4.5,-7.1 l -1.25,-2.7 -0.95,-1.85 1.9,-1.45 q 3.85,-2.6 7.7,-3 h 2.95 m -26.15,26.15 0.65,-3.3 q 0.7,-2.55 2.8,-6 2.8,-4.55 5.9,-8.1 l 1,2.15 q 2.1,4.6 7.4,11.9 l 1.75,2.35 q -9,5.6 -14.25,8.55 -1.8,0.95 -2.65,0.95 -0.8,0 -1.4,-0.4 -0.65,-0.45 -0.75,-1.15 -0.15,-1.05 1.3,-2.3 1.85,-1.65 6.6,-4.5 4.4,-2.7 6.4,-4.6 -5.5,3.4 -8.45,4.7 -1.3,0.6 -2,0.5 -0.6,-0.05 -1,-0.4 -0.45,-0.35 -0.5,-0.9 -1.4,0.85 -2.8,0.55 m 20.35,0 0.85,0.85 q 2.3,1.75 3.25,2.85 l 0.3,0.4 0.05,0.05 0.65,1.05 1,1.85 1.65,3.45 q 1.25,2.5 2.55,2.9 1.3,0.45 2.75,-0.55 l 0.65,-0.5 1.4,-1.55 9.8,-11.4 7.6,-7.9 0.55,1.05 1.15,2.55 -0.25,0.25 q 0.85,1 0.85,2.5 0,1.4 -0.75,2.6 -0.75,1.25 -2.7,2.7 l -0.4,0.85 2.05,0.25 0.4,0.25 0.25,-0.15 1.8,0.25 q 0.85,0.6 0.85,1.6 0,0.75 -0.7,1.95 l -1.8,2.55 -0.6,-1.7 -0.35,-0.6 q -0.9,-1.1 -2,-1.2 l -0.3,-0.05 h -0.85 l -0.95,-0.4 -2,-0.1 -0.75,0.2 -1.1,0.55 -1.3,1.1 -0.25,1.45 -0.4,1.9 -0.4,1.9 0.3,2.55 v 0.05 q 0.3,1.45 1,1.95 l 1.15,0.35 1.45,0.4 0.75,0.2 3.25,-0.35 1.2,-0.6 1.1,-1.05 0.25,-0.35 1,-2.25 v -1 h 0.1 q 0.8,0.25 1.2,0.9 l 0.1,0.15 0.8,-0.95 1.45,-1.2 -0.05,5.6 -2.65,2.85 -2.1,1.75 q 0.95,-0.2 1.85,0.25 0.95,0.5 1.05,1.4 0.2,0.95 -0.8,2.25 -1.6,2.35 -3.7,4.3 l 2.35,-1.4 q 1.35,-0.95 2.35,-0.8 l 0.4,0.15 q -1.35,4.7 -4.85,9.3 l -1.4,1.75 q -1.6,-5.05 -5.3,-10.55 L -25.6,12.6 q -1,-1.5 -1.95,-2.65 -1.2,-1.4 -2.35,-2.35 -1.1,-0.9 -3.6,-2.3 -2.3,-1.3 -3.6,-1.65 -3.05,-0.9 -7,0.35 -2.65,0.85 -6.95,3.25 -4.85,2.6 -7.15,4.55 l -2.45,2.25 -0.45,0.5 q -2.55,1.15 -4.7,1.8 l -3.1,0.1 q -1.35,-0.65 -1.25,-2.1 0.05,-1.75 3.05,-3.35 l 12.6,-7.55 q -5.75,3.35 -12.15,6.2 -1.65,0.75 -2.7,0.6 l -1.25,-0.8 q -0.5,-0.65 -0.5,-1.4 0,-1.65 2.65,-3.35 l 6.9,-4.45 0.7,1 1.7,1.05 2,0.65 q 1.2,0.1 2,-0.45 l 0.7,-0.4 h 0.65 q 1.45,0.15 2.95,-1.3 l 1.15,-1.35 q 0.65,-1 0.8,-2.05 l 0.35,-3.1 q 0.05,-1.35 -0.6,-2.55 l -0.55,-0.85 2.85,-2.4 -0.8,0.5 -2.3,1.6 -1,-0.8 q -2.1,-1.35 -5.95,-0.7 l -1.9,0.6 q 4.5,-3 8.65,-6.15 m -13.25,33.5 q -2.55,2.9 -4.4,5.95 l -1.05,-1.65 q 0.1,-0.75 0.75,-1.4 l 2.1,-1.5 2.6,-1.4 m -4.95,-17.4 q 0.05,-1.05 -0.4,-2.4 l -0.25,-0.7 0.15,-0.3 q 0.65,-0.9 2.45,-1.9 l 7.2,-4.4 -1.05,1.05 q -1.15,1.5 -1.5,2.9 L -62,-4 l -0.05,2.1 q -2.15,1.15 -3.6,1.55 -1.7,0.5 -2.7,0 m 5.8,26.75 q 2.35,-4.1 6.1,-7.85 1.7,-1.65 2.9,-2.55 1.35,-1 3.25,-2 l 5.55,-2.8 q 3.85,-1.8 6,-1.3 0.95,0.25 2.75,1.25 l 2.35,1.1 0.5,0.35 -7.85,4.75 q 0.15,0.65 -0.6,1.05 -0.2,0.15 -1.15,0.5 -0.7,0.25 -2.95,1.8 l -5.35,3.4 -5.35,3.45 -4.3,3.35 -0.65,-0.6 -1.35,-1.35 -0.8,-0.85 0.1,-0.2 0.2,-0.4 1.1,-0.95 -0.45,-0.15 m 29.8,-13.4 1.35,1.45 0.15,0.2 1.25,1.6 q 2.45,3.3 3.85,6.1 1.45,2.85 2.05,5.55 l -2.05,2 -1.15,1.1 -2.65,1.75 -3.9,2.5 q -1.6,0.95 -2.45,0.65 -0.7,-0.25 -0.9,-1.05 -0.2,-0.8 0.1,-1.55 0.4,-0.9 2,-2.2 2.95,-2.3 5.85,-5.2 l -13.1,7.45 q -3.6,2 -5.55,2.7 l -2.3,0.5 q -1.4,-0.1 -2.05,-1.05 -0.3,-0.5 -0.25,-1.1 0.05,-0.65 0.5,-1 l -3.5,1.55 -1.75,-1.15 -2.9,-2.4 0.25,-0.25 q 1.45,-1.3 4.4,-2.95 13.2,-7.4 22.75,-15.2"
         fill="#ceabab"
         fill-rule="evenodd"
         stroke="none"
         id="path2" />
      <path
         d="m -43.65,-42.6 -0.65,0.4 -0.05,-0.4 h 0.7 m -2,21.75 3.55,-2.25 -3.1,2.7 -0.45,-0.45 m 5.15,5 5.6,-3.85 0.1,-0.05 h 0.05 l -5.25,4.5 -0.5,-0.6 m 18.8,-13.5 q -0.15,-0.8 -0.75,-1.35 -0.5,-0.5 -1.3,-0.65 l 0.15,-0.85 q 0.1,-0.65 0.05,-1.2 l 2.65,3.3 -0.8,0.75 m -4.05,-6.55 -1.65,-0.1 q -0.15,-1.2 -1.1,-1.8 -0.9,-0.6 -2.1,-0.25 -0.8,0.45 -1.25,0.6 h -0.05 l -0.4,-0.75 q 0.85,-0.65 1.15,-1.75 l 2,1 q 1.15,0.7 3,2.65 l 0.4,0.4 m -11.2,-5.7 -0.35,0.2 v -0.3 l 0.35,0.1 m -33.55,25.15 q 1.4,0.3 2.8,-0.55 0.05,0.55 0.5,0.9 0.4,0.35 1,0.4 0.7,0.1 2,-0.5 2.95,-1.3 8.45,-4.7 -2,1.9 -6.4,4.6 -4.75,2.85 -6.6,4.5 -1.45,1.25 -1.3,2.3 0.1,0.7 0.75,1.15 0.6,0.4 1.4,0.4 0.85,0 2.65,-0.95 5.25,-2.95 14.25,-8.55 l 0.85,1 q -4.15,3.15 -8.65,6.15 l -0.35,0.15 -0.05,0.1 -7.2,4.4 q -1.8,1 -2.45,1.9 l -0.15,0.3 q -0.45,-0.95 -1.1,-1.3 l -1.25,-0.1 q -0.65,0.2 -0.8,0.8 l 0.1,0.8 0.2,0.75 q 0.25,1.1 -0.55,2.1 0.05,-4.1 1.15,-10.75 l 0.65,-4.75 0.1,-0.55 m 54.55,-4.9 q 3.1,7.6 3.45,17.45 l -1.45,1.2 -0.8,0.95 -0.1,-0.15 q -0.4,-0.65 -1.2,-0.9 h -0.1 v -0.05 l -0.2,-2.7 v -0.2 l 1.8,-2.55 q 0.7,-1.2 0.7,-1.95 0,-1 -0.85,-1.6 l -1.8,-0.25 -0.25,0.15 -0.4,-0.25 -2.05,-0.25 0.4,-0.85 q 1.95,-1.45 2.7,-2.7 0.75,-1.2 0.75,-2.6 0,-1.5 -0.85,-2.5 l 0.25,-0.25 m 3.4,23.05 -0.4,5.5 -0.75,4.7 -0.1,0.55 -0.4,-0.15 q -1,-0.15 -2.35,0.8 l -2.35,1.4 q 2.1,-1.95 3.7,-4.3 1,-1.3 0.8,-2.25 -0.1,-0.9 -1.05,-1.4 -0.9,-0.45 -1.85,-0.25 l 2.1,-1.75 2.65,-2.85 m -48.55,12.85 -2.3,2.5 -2.6,1.4 -2.1,1.5 q -0.65,0.65 -0.75,1.4 l -0.65,-1.2 q -1.35,-2.85 -2,-6.85 L -72.2,6.1 -72.25,4.6 Q -68.7,2.55 -68.4,0 l 0.05,-0.35 q 1,0.5 2.7,0 1.45,-0.4 3.6,-1.55 l 0.05,0.65 0.45,1.5 -6.9,4.45 q -2.65,1.7 -2.65,3.35 0,0.75 0.5,1.4 l 1.25,0.8 q 1.05,0.15 2.7,-0.6 6.4,-2.85 12.15,-6.2 L -67.1,11 q -3,1.6 -3.05,3.35 -0.1,1.45 1.25,2.1 l 3.1,-0.1 q 2.15,-0.65 4.7,-1.8 m 5.65,-21.1 1.2,-0.15 h 0.2 q 0.6,-0.05 0.95,0.3 l 0.2,0.35 0.1,0.45 v 0.55 q -0.1,2.2 -0.85,2.95 -0.25,0.3 -0.75,0.55 l -0.85,0.1 -0.5,-0.3 -0.25,-0.2 -0.65,-0.1 q -0.4,-0.05 -0.6,-0.25 l -0.15,-0.2 -0.1,-0.85 0.15,-1.3 0.25,-0.9 0.2,-0.45 0.5,-0.4 0.1,-0.1 0.85,-0.05 m 5.5,-2.85 2.3,-1.6 0.8,-0.5 -2.85,2.4 -0.25,-0.3 m 26.8,7.5 -0.2,-0.25 q -0.25,-0.65 0.05,-2 l 0.3,-1.25 0.05,-0.7 0.65,-0.2 0.05,0.1 q 0.5,1.15 1.8,1.3 0.3,1.35 0.2,2.1 l -0.05,0.05 q -0.15,0.5 -0.6,0.9 l -0.4,0.25 -0.55,0.05 -0.9,-0.3 -0.4,-0.05 m -39.4,28.3 0.45,0.15 -1.1,0.95 0.65,-1.1 m 1.85,4.5 4.3,-3.35 5.35,-3.45 5.35,-3.4 q 2.25,-1.55 2.95,-1.8 0.95,-0.35 1.15,-0.5 0.75,-0.4 0.6,-1.05 l 7.85,-4.75 0.4,0.4 q -9.55,7.8 -22.75,15.2 -2.95,1.65 -4.4,2.95 l -0.25,0.25 -0.55,-0.5 m 33.4,0.1 q -2.15,2.05 -3.8,3.1 -1.55,0.95 -4.45,2.1 -2.65,1.1 -4.25,1.5 l -4.35,0.25 -2.3,-0.65 -4.4,-0.6 Q -53.2,36.25 -55.5,34.95 L -52,33.4 q -0.45,0.35 -0.5,1 -0.05,0.6 0.25,1.1 0.65,0.95 2.05,1.05 l 2.3,-0.5 q 1.95,-0.7 5.55,-2.7 l 13.1,-7.45 q -2.9,2.9 -5.85,5.2 -1.6,1.3 -2,2.2 -0.3,0.75 -0.1,1.55 0.2,0.8 0.9,1.05 0.85,0.3 2.45,-0.65 l 3.9,-2.5 2.65,-1.75"
         fill="#ffffff"
         fill-rule="evenodd"
         stroke="none"
         id="path3" />
      <path
         d="m -77.25,-9.65 q -0.9,5.1 -0.8,12.35 l -2.2,0.65 0.05,-0.95 0.6,-5.35 0.65,-5.35 0.2,-4.6 q 0.15,-2.7 0.7,-4.55 l 0.95,-2.55 1.7,-0.65 -0.35,1.6 -0.65,4.9 -0.85,4.5 m 4.95,-18.4 -1.85,3.8 -1.05,0.2 -0.25,0.1 0.1,-0.25 q 1.5,-3.75 2.8,-5.85 1.85,-2.85 5.75,-6.4 l 0.95,-0.85 -0.95,1.2 q -3.7,4.9 -5.5,8.05 m -0.25,54.6 1.75,2.25 -0.5,1.3 -0.05,-0.05 -2.85,-2.65 q -1.6,-1.65 -2.3,-3.15 l -0.55,-1.95 0.3,-0.15 1.2,-0.3 0.2,-0.05 q 1.05,2.35 2.8,4.75 M -77.75,9.9 q 0.4,5.35 1.3,8.8 h -0.2 l -0.75,0.1 -0.15,0.05 -0.2,-1.55 -1.2,-4.15 q -0.8,-2.75 -1.1,-5.5 l 2.15,-0.6 0.15,2.85 m 14.7,27 -2.95,-1.7 0.2,-0.9 2.75,2.6"
         fill="#c3c3c3"
         fill-rule="evenodd"
         stroke="none"
         id="path4" />
    </g>
    <g
       id="sprite1"
       transform="translate(17.4,15.85)">
      <use
         ffdec:characterId="31"
         height="57.200001"
         transform="matrix(0.5366,0,0,0.5366,-16.6582,-14.546)"
         width="70.75"
         xlink:href="#sprite2"
         id="use4" />
    </g>
    <g
       id="sprite2"
       transform="translate(-8.65,-10.35)">
      <use
         ffdec:characterId="30"
         height="57.200001"
         transform="translate(8.65,10.35)"
         width="70.75"
         xlink:href="#shape1"
         id="use5" />
    </g>
    <g
       id="shape1"
       transform="translate(-8.65,-10.35)">
      <path
         d="m 14.8,41.7 q 0.65,-1.75 2.65,-2.5 1.8,-0.8 3.7,-0.25 1.15,0.45 2.25,1.2 l 0.9,0.4 q 1.65,0.9 2.85,2.5 L 37.8,30.1 q 2.35,-2.8 3.75,-3.95 1.5,-1.15 4.25,-2.4 18.2,-8.85 27.65,-12.6 2.15,-0.8 3.25,-0.8 h 0.8 l 1.9,2.4 -0.2,0.8 q -0.2,1.1 -1.55,3 -5.85,8.25 -18.85,23.8 -1.85,2.35 -3.35,3.5 -1.4,1.15 -4.75,2.75 l -15.15,7.15 q 1.2,1.6 1.75,3.4 l 0.2,1 0.55,2.5 q 0.1,1.95 -1.1,3.55 -1.2,1.65 -3.05,1.9 l -1.3,0.05 q -1.65,0.2 -3.45,-0.65 -1.85,-0.9 -3,-2.6 L 25,60.95 23.8,62.1 q -2.6,2.85 -4.3,3.95 -2.85,1.8 -5.5,1.45 l -1.65,-0.5 -1.2,-0.7 -0.2,-0.2 q -1,-0.85 -1.6,-1.9 L 9.25,64 9.15,63.8 8.75,62.4 q -0.2,-0.8 -0.05,-1.7 0.25,-2.65 2.7,-5.05 1.5,-1.3 4.9,-3.15 L 17.7,51.55 16.05,50 q -1.35,-1.5 -1.8,-3.6 -0.4,-1.85 0.25,-3.45 l 0.3,-1.25"
         fill="#000000"
         fill-opacity="0.372549"
         fill-rule="evenodd"
         stroke="none"
         id="path5" />
    </g>
  </defs>
</svg>
