<?xml version="1.0" encoding="UTF-8" standalone="no"?>
<svg
   ffdec:objectType="frame"
   height="33.230858"
   width="78.287437"
   version="1.1"
   id="svg5"
   xmlns:xlink="http://www.w3.org/1999/xlink"
   xmlns="http://www.w3.org/2000/svg"
   xmlns:svg="http://www.w3.org/2000/svg"
   xmlns:ffdec="https://www.free-decompiler.com/flash">
  <g
     transform="translate(39.28722,18.879429)"
     id="g1">
    <use
       ffdec:characterId="17"
       height="119.15"
       id="rarity"
       transform="translate(-58.5,-60.65)"
       width="119.15"
       xlink:href="#sprite0" />
    <use
       ffdec:characterId="74"
       height="34.950001"
       transform="matrix(0.9514,0,0,0.9514,-39.3,-18.9)"
       width="82.300003"
       xlink:href="#sprite1"
       id="use1" />
  </g>
  <defs
     id="defs5">
    <g
       id="sprite1">
      <use
         ffdec:characterId="73"
         height="34.950001"
         width="82.300003"
         xlink:href="#shape0"
         id="use2" />
    </g>
    <g
       id="shape0">
      <path
         d="m 57.15,9.65 q 4.45,1.6 6.45,3.1 l 0.3,0.3 L 65,11.3 Q 67.95,6.65 71.6,2.4 72.4,1.45 73.15,1.05 L 75.3,1 q 1,0.5 1.9,1.95 2.5,4.15 4.2,11.95 0.85,3.55 0.9,5.75 l -0.25,3.2 q -0.4,1.95 -1.35,2.6 -1.1,0.9 -3.4,0.4 -2.45,-0.5 -6.45,-2.55 -3.95,-2 -5.95,-2.65 L 63.5,23 q -7.75,6.35 -18.6,9.35 -9.2,2.5 -20.75,2.6 L 13.2,34.25 Q 7.35,33.25 3,30.75 0.35,29.1 0.05,27.35 -0.3,25.3 2.7,22.65 q 7.5,-6.75 13.2,-9.5 2.85,-1.4 6.95,-2.6 0.2,-0.7 0.85,-1.5 Q 26.2,5.9 28.1,2.15 29,0.6 29.65,0.25 30.9,-0.4 32.95,0.8 36.6,3 38.45,7.15 L 38.5,7.25 44.3,7 q 5.75,0.25 12.85,2.65 M 74.7,12.3 73,7.65 l -4.4,8.6 2.3,1.25 5.65,2.7 -0.45,-3.45 -1,-3.3 -0.4,-1.15 m -48.15,12 0.15,0.55 q 0.1,0.9 -0.55,1.55 -0.7,0.7 -1.55,0.5 Q 24,26.75 23.05,25.8 L 22.35,25.1 22.1,24.85 21.55,25.2 20,26.15 18.3,26.9 17.4,26.8 16.75,26.2 Q 16.6,25.8 16.8,25.3 l 0.45,-0.85 q 0.8,-1 2.15,-2 l -0.9,-0.7 Q 17.1,20.7 16.75,20 l -3.15,2 q -2.75,1.9 -5,4.25 3.3,1.55 7.6,2.05 l 8.05,0.25 q 19.35,-0.6 31.6,-7.8 3.15,-1.9 4.55,-3.6 0.35,-0.45 0.2,-0.7 -0.15,-0.25 -0.5,-0.35 l -7.6,-1.9 -7.75,-0.95 h -0.1 l -6.4,0.35 q -9.15,1 -15.95,3.75 l -1.4,0.6 0.4,0.45 1.35,1.6 q 1.3,-1 2.45,-1.75 1.2,-0.8 2.05,-0.75 1.3,0.1 1.7,1.25 0.45,1.05 -0.25,2.15 l -1.9,1.35 -1.2,0.65 1.05,1.4 M 29.45,8.8 33.65,7.95 33.35,7.5 Q 32.3,6.15 31.2,5.65 l -2.3,3.3 0.55,-0.15"
         fill="#000000"
         fill-rule="evenodd"
         stroke="none"
         id="path2" />
      <path
         d="m 70.9,17.5 -2.3,-1.25 4.4,-8.6 1.7,4.65 -1.55,2.85 Q 72.1,16.8 70.9,17.5 m -26.25,-4.25 0.15,0.4 q 0.45,1.1 -0.05,2.4 -0.45,1.15 -1.45,2.05 -1.3,1.1 -4.5,2.2 l -10.15,3.4 -2.1,0.6 -1.05,-1.4 1.2,-0.65 1.9,-1.35 Q 29.3,19.8 28.85,18.75 28.45,17.6 27.15,17.5 26.3,17.45 25.1,18.25 23.95,19 22.65,20 l -1.35,-1.6 -0.4,-0.45 1.4,-0.6 Q 29.1,14.6 38.25,13.6 l 6.4,-0.35 m -22.3,11.85 -0.8,0.1 0.55,-0.35 0.25,0.25 M 16.8,25.3 15.45,24.95 Q 13.9,24.2 13.6,22.9 V 22 l 3.15,-2 q 0.35,0.7 1.75,1.75 l 0.9,0.7 q -1.35,1 -2.15,2 L 16.8,25.3"
         fill="#a1a1a1"
         fill-rule="evenodd"
         stroke="none"
         id="path3" />
      <path
         d="m 70.9,17.5 q 1.2,-0.7 2.25,-2.35 l 1.55,-2.85 0.4,1.15 1,3.3 0.45,3.45 -5.65,-2.7 m -44.35,6.8 2.1,-0.6 10.15,-3.4 q 3.2,-1.1 4.5,-2.2 1,-0.9 1.45,-2.05 0.5,-1.3 0.05,-2.4 l -0.15,-0.4 h 0.1 l 7.75,0.95 7.6,1.9 q 0.35,0.1 0.5,0.35 0.15,0.25 -0.2,0.7 -1.4,1.7 -4.55,3.6 -12.25,7.2 -31.6,7.8 L 16.2,28.3 Q 11.9,27.8 8.6,26.25 10.85,23.9 13.6,22 v 0.9 q 0.3,1.3 1.85,2.05 l 1.35,0.35 q -0.2,0.5 -0.05,0.9 l 0.65,0.6 0.9,0.1 1.7,-0.75 1.55,-0.95 0.8,-0.1 0.7,0.7 q 0.95,0.95 1.55,1.1 0.85,0.2 1.55,-0.5 0.65,-0.65 0.55,-1.55 L 26.55,24.3 m 2.9,-15.5 -0.55,0.15 2.3,-3.3 q 1.1,0.5 2.15,1.85 l 0.3,0.45 -4.2,0.85"
         fill="#8c8c8c"
         fill-rule="evenodd"
         stroke="none"
         id="path4" />
    </g>
    <g
       id="sprite2"
       transform="translate(17.4,15.85)">
      <use
         ffdec:characterId="31"
         height="57.200001"
         transform="matrix(0.5366,0,0,0.5366,-16.6582,-14.546)"
         width="70.75"
         xlink:href="#sprite3"
         id="use4" />
    </g>
    <g
       id="sprite3"
       transform="translate(-8.65,-10.35)">
      <use
         ffdec:characterId="30"
         height="57.200001"
         transform="translate(8.65,10.35)"
         width="70.75"
         xlink:href="#shape1"
         id="use5" />
    </g>
    <g
       id="shape1"
       transform="translate(-8.65,-10.35)">
      <path
         d="m 14.8,41.7 q 0.65,-1.75 2.65,-2.5 1.8,-0.8 3.7,-0.25 1.15,0.45 2.25,1.2 l 0.9,0.4 q 1.65,0.9 2.85,2.5 L 37.8,30.1 q 2.35,-2.8 3.75,-3.95 1.5,-1.15 4.25,-2.4 18.2,-8.85 27.65,-12.6 2.15,-0.8 3.25,-0.8 h 0.8 l 1.9,2.4 -0.2,0.8 q -0.2,1.1 -1.55,3 -5.85,8.25 -18.85,23.8 -1.85,2.35 -3.35,3.5 -1.4,1.15 -4.75,2.75 l -15.15,7.15 q 1.2,1.6 1.75,3.4 l 0.2,1 0.55,2.5 q 0.1,1.95 -1.1,3.55 -1.2,1.65 -3.05,1.9 l -1.3,0.05 q -1.65,0.2 -3.45,-0.65 -1.85,-0.9 -3,-2.6 L 25,60.95 23.8,62.1 q -2.6,2.85 -4.3,3.95 -2.85,1.8 -5.5,1.45 l -1.65,-0.5 -1.2,-0.7 -0.2,-0.2 q -1,-0.85 -1.6,-1.9 L 9.25,64 9.15,63.8 8.75,62.4 q -0.2,-0.8 -0.05,-1.7 0.25,-2.65 2.7,-5.05 1.5,-1.3 4.9,-3.15 L 17.7,51.55 16.05,50 q -1.35,-1.5 -1.8,-3.6 -0.4,-1.85 0.25,-3.45 l 0.3,-1.25"
         fill="#000000"
         fill-opacity="0.372549"
         fill-rule="evenodd"
         stroke="none"
         id="path5" />
    </g>
  </defs>
</svg>
