<?xml version="1.0" encoding="UTF-8" standalone="no"?>
<svg
   version="1.1"
   preserveAspectRatio="none"
   x="0px"
   y="0px"
   width="197.94263"
   height="144.09758"
   viewBox="0 0 197.94263 144.09758"
   id="svg36"
   sodipodi:docname="crow.svg"
   inkscape:version="1.4.2 (f4327f4, 2025-05-13)"
   xmlns:inkscape="http://www.inkscape.org/namespaces/inkscape"
   xmlns:sodipodi="http://sodipodi.sourceforge.net/DTD/sodipodi-0.dtd"
   xmlns:xlink="http://www.w3.org/1999/xlink"
   xmlns="http://www.w3.org/2000/svg"
   xmlns:svg="http://www.w3.org/2000/svg">
  <sodipodi:namedview
     id="namedview36"
     pagecolor="#ffffff"
     bordercolor="#000000"
     borderopacity="0.25"
     inkscape:showpageshadow="2"
     inkscape:pageopacity="0.0"
     inkscape:pagecheckerboard="0"
     inkscape:deskcolor="#d1d1d1"
     inkscape:zoom="1.1208333"
     inkscape:cx="366.69145"
     inkscape:cy="161.04089"
     inkscape:window-width="1920"
     inkscape:window-height="1009"
     inkscape:window-x="-8"
     inkscape:window-y="-8"
     inkscape:window-maximized="1"
     inkscape:current-layer="svg36" />
  <defs
     id="defs15">
    <g
       id="Symbol_557_0_Layer1_0_FILL">
      <path
         fill="#565656"
         stroke="none"
         d="M 12.65,1.9 Q 12.1,1.5 11.4,1.4 10.1,1.15 8.95,1.7 7.75,2.2 6.7,3.45 L 6.55,3.8 Q 5.6,6.25 5.2,8.2 L 4.75,11.1 Q 4.5,13.45 4.8,18.2 l 0.1,0.5 q 0.35,0.45 0.9,0 L 6.3,17.8 Q 6.9,16.45 8.05,16 L 9.3,15.85 q 0.7,0.1 1.1,0.6 l 0.55,1 0.6,1 q 0.55,0.5 1.7,0.4 l 0.9,-4.15 Q 14.35,12.4 13.6,8.95 L 12.5,4.5 Q 12.2,3.3 12.3,2.7 Z"
         id="path1" />
      <path
         fill="#000000"
         stroke="none"
         d="M 16.85,3.75 16.3,2.05 Q 15.45,0.85 14.05,1 13.4,1.1 12.9,1.6 L 12.65,1.9 12.3,2.7 q -0.1,0.6 0.2,1.8 l 1.1,4.45 q 0.75,3.45 0.55,5.75 l -0.9,4.15 q -1.15,0.1 -1.7,-0.4 l -0.6,-1 -0.55,-1 Q 10,15.95 9.3,15.85 L 8.05,16 Q 6.9,16.45 6.3,17.8 l -0.5,0.9 q -0.55,0.45 -0.9,0 L 4.8,18.2 Q 4.5,13.45 4.75,11.1 L 5.2,8.2 Q 5.6,6.25 6.55,3.8 L 6.7,3.45 7.15,1.75 6.85,0.7 Q 6.55,0.15 6.05,0.05 4.95,-0.2 4,1.25 2.75,3 1.7,6.7 L 1.25,8.3 q -1,3.1 -1.1,4.8 v 2.95 L 0,18.5 q -0.05,1.45 0.3,2.4 0.4,1.25 1.5,2.1 1.1,0.85 2.4,1 L 6.75,23.6 Q 8,23.05 8.8,22 q 1.3,1.45 4.25,1.35 l 2.1,-0.5 q 0.95,-0.5 1.65,-1.85 0.9,-1.6 1.25,-4.15 0.4,-3.15 0.05,-5.9 L 17.45,6.8 Z"
         id="path2" />
    </g>
    <g
       id="Symbol_559_0_Layer0_0_FILL">
      <path
         fill="#000000"
         stroke="none"
         d="m 45.2,35.9 q 0.75,-1 0.9,-2.25 V 32.2 q 0.1,-1.4 -0.35,-1.95 l -1.4,-2.9 q -1.85,-3.4 -3.15,-4.8 -1.9,-1.95 -6.65,-4.1 l -6,-2.55 q -3.6,-1.5 -5.9,-2.85 -6.6,-3.7 -9.1,-8.6 L 12.2,1.85 q -1.05,-1.5 -2.45,-1.8 -2.05,-0.4 -4.6,2.1 -2,1.95 -2.55,3.1 -1.6,3.05 0,7.8 0.8,2.15 1.95,3.1 -1.1,0.4 -2.1,1.15 -1.65,1.3 -2.2,3.15 -0.55,1.85 0.1,3.8 0.7,2 2.3,3.35 1.6,1.4 3.85,1.8 l 1.1,0.2 0.7,0.25 1.8,0.25 h 0.7 l 0.7,0.1 0.05,0.05 -0.05,0.55 -0.2,1.5 q 0,1.9 3,4.5 2.1,1.7 3.55,2.15 l 4.35,-0.1 q 1.2,-0.4 3.3,-1.6 l 0.45,0.35 1.55,1.35 1.65,1.3 q 1.75,1.1 3.8,1.45 l 3.9,-0.2 q 1.7,-0.6 3.85,-2.65 l 0.85,-1 q 0.8,0 1.65,-0.4 1.2,-0.5 2,-1.55 m -4.35,-8.15 2.3,3.35 -0.4,0.9 q -0.35,1.25 -0.9,1.75 l -1.45,0.8 -0.45,0.3 -0.3,0.05 q -0.85,0.2 -1.55,0.8 l -1.15,1.2 q -0.65,0.7 -1.35,1 -2.1,0.8 -4.9,-1.35 l -2.15,-1.6 q -1.3,-0.6 -2.3,-0.5 L 26,34.35 q -1.15,-0.3 -3.1,0.4 -2.1,0.8 -3.1,0.6 -1,-0.15 -2.35,-1.1 -1.95,-1.4 -2.1,-2.5 l 0.05,-1.1 0.05,-0.2 q 0.4,-1 -0.1,-2.35 L 14.7,27.05 13.95,26.4 12.2,26.3 H 11.95 L 11.75,26.35 11,26.15 H 9.5 q -1.4,0 -2.65,-0.7 -1.3,-0.7 -2,-1.85 -0.5,-0.7 -0.5,-1.55 -0.1,-0.9 0.4,-1.6 0.45,-0.45 1.3,-0.8 l 1.6,-0.5 Q 9.9,18.5 9.95,17.2 9.95,16.45 9.1,15.45 l -0.15,-0.2 -0.4,-1.15 -1,-1.5 Q 6.5,10.8 6.85,8.8 7.15,6.75 8.7,5.55 q 2.8,5.5 9.25,9.75 5.1,3.15 12.7,5.8 l 3.65,1.3 q 2,0.8 3.25,1.8 1.7,1.25 3.3,3.55 z"
         id="path3" />
      <path
         fill="#565656"
         stroke="none"
         d="m 43.15,31.1 -2.3,-3.35 q -1.6,-2.3 -3.3,-3.55 -1.25,-1 -3.25,-1.8 L 30.65,21.1 Q 23.05,18.45 17.95,15.3 11.5,11.05 8.7,5.55 7.15,6.75 6.85,8.8 q -0.35,2 0.7,3.8 l 1,1.5 0.4,1.15 0.15,0.2 q 0.85,1 0.85,1.75 -0.05,1.3 -2.3,1.95 l -1.6,0.5 q -0.85,0.35 -1.3,0.8 -0.5,0.7 -0.4,1.6 0,0.85 0.5,1.55 0.7,1.15 2,1.85 1.25,0.7 2.65,0.7 H 11 l 0.75,0.2 0.2,-0.05 h 0.25 l 1.75,0.1 0.75,0.65 0.65,1.05 q 0.5,1.35 0.1,2.35 l -0.05,0.2 -0.05,1.1 q 0.15,1.1 2.1,2.5 1.35,0.95 2.35,1.1 1,0.2 3.1,-0.6 1.95,-0.7 3.1,-0.4 l 0.25,0.1 q 1,-0.1 2.3,0.5 l 2.15,1.6 q 2.8,2.15 4.9,1.35 0.7,-0.3 1.35,-1 l 1.15,-1.2 q 0.7,-0.6 1.55,-0.8 l 0.3,-0.05 0.45,-0.3 1.45,-0.8 q 0.55,-0.5 0.9,-1.75 z"
         id="path4" />
    </g>
    <g
       id="Symbol_562_0_Layer1_0_FILL">
      <path
         fill="#000000"
         stroke="none"
         d="M 19.35,0.8 Q 19.05,0.25 18.05,0.05 16.25,-0.2 14,1.5 11.3,3.45 9.5,6.1 L 8.4,5.7 Q 6.3,5.15 4.25,5.7 2.1,6.3 0.8,7.85 q -0.95,1.25 -0.75,2.3 0.1,0.65 0.7,1.05 0.55,0.4 1.1,0.2 l 1.1,-0.9 q 1,-0.95 2.35,-0.75 l -0.4,0.9 -0.4,1.65 -0.15,1.8 q -0.05,1.35 0.3,2.6 0.3,1.55 1.3,1.55 0.95,0.05 1.5,-1.65 l 1.25,-3.75 0.35,0.4 1.65,3.35 q 0.8,1 1.4,1.25 l 1.8,-0.15 q 0.9,-0.8 0.3,-2.25 L 13.3,13.25 13.1,11.6 12.45,10.2 12.5,10 13.3,8.05 Q 14.35,5.8 17.7,3.7 l 1.45,-1.2 q 0.7,-1 0.2,-1.7 z"
         id="path5" />
    </g>
    <g
       id="Symbol_325_0_Layer0_0_FILL">
      <path
         fill="#000000"
         stroke="none"
         d="M 28.5,16.6 Q 28.7,15.15 28.5,13 28.1,7.15 26.3,4.4 24.45,1.5 21.1,0.45 17.7,-0.65 11.6,0.9 8.4,1.75 6.75,2.8 5.1,3.85 3.1,6.3 1.65,8.2 1.05,9.65 0.45,11 0.25,12.9 L 0,16.25 q -0.1,1.95 0.25,3.1 0.3,0.9 1.15,2.15 3.65,5 8.9,5.95 l 3.2,0.2 3.2,-0.1 3,-0.2 q 1.25,-0.3 2.9,-1.5 5.25,-3.95 5.9,-9.25 m -5.2,-7 0.4,1.45 q 0.55,2.9 -0.05,5.35 -0.95,3.8 -4.1,5.25 -1.55,0.7 -4.25,0.8 -3.6,0 -5.9,-1 Q 6.25,20 5.35,17.2 4.9,15.5 5.3,13.3 l 0.1,-0.4 q 0.5,-3.05 2.25,-4.8 1.7,-1.85 5.9,-3 5,-1.3 7.5,0.65 1.4,1.15 2.25,3.85 z"
         id="path6" />
      <path
         fill="#565656"
         stroke="none"
         d="m 23.6,11.2 q -0.95,1.95 -3,3.15 -1.9,1.15 -4.2,1.35 -3.55,0.35 -8.7,-1.6 -1.55,-0.55 -2.3,-1.2 l -0.1,0.4 q -0.4,2.2 0.05,3.9 0.9,2.8 4.05,4.25 2.3,1 5.9,1 2.7,-0.1 4.25,-0.8 3.15,-1.45 4.1,-5.25 0.6,-2.45 0.05,-5.35 z"
         id="path7" />
      <path
         fill="#414141"
         stroke="none"
         d="M 23.7,11.05 23.3,9.6 Q 22.45,6.9 21.05,5.75 18.55,3.8 13.55,5.1 9.35,6.25 7.65,8.1 5.9,9.85 5.4,12.9 q 0.75,0.65 2.3,1.2 5.15,1.95 8.7,1.6 2.3,-0.2 4.2,-1.35 2.05,-1.2 3,-3.15 z"
         id="path8" />
    </g>
    <g
       id="Symbol_330_0_Layer0_0_FILL">
      <path
         fill="#000000"
         stroke="none"
         d="m 43.35,25.4 q 0.5,-4.35 -0.7,-8.95 Q 41.3,11.3 38.05,7.3 34.6,3.1 30,1.3 26.15,-0.15 21.8,0 q -4.45,-0.2 -8.3,1.3 -4.6,1.8 -8.05,6 -3.25,4 -4.6,9.15 -1.2,4.6 -0.7,8.95 0.5,4.8 3,8.35 0.95,1.45 2.5,2.9 2.5,2.4 5.2,3.45 1.65,0.65 5.25,1.25 L 21,41.8 v 0.05 h 1.35 0.15 l 4.9,-0.5 q 3.6,-0.6 5.25,-1.25 2.7,-1.05 5.2,-3.45 1.55,-1.45 2.5,-2.9 2.5,-3.55 3,-8.35 M 22.5,4.85 q 2.8,0.1 5.65,1.4 2.8,1.3 4.8,3.2 2.65,2.5 4.05,6.1 0.75,1.95 1.15,3.95 l 0.2,1.5 0.05,1.85 -0.1,2.2 -0.5,2.2 q -1.15,4.1 -4.8,6.55 -3.7,2.45 -10.85,2.8 h -0.8 Q 16.15,36.35 12.8,35 11.5,34.45 10.5,33.8 L 8.65,32.3 Q 6.5,30.2 5.7,27.25 5.25,25.8 5.15,24.1 L 5.1,22.85 q 0,-3.8 1.4,-7.3 1.4,-3.6 4.05,-6.1 2,-1.9 4.8,-3.2 2.9,-1.3 5.65,-1.4 V 4.9 L 22.05,4.85 22.5,4.9 Z"
         id="path9" />
      <path
         fill="#414141"
         stroke="none"
         d="M 38.4,22.85 38.35,21 38.15,19.5 q -2.2,5.05 -8.45,9.4 -1.5,1.05 -2.65,1.5 l -3.5,0.85 -6.6,0.45 q -2.9,-0.65 -5.65,-1.95 -4.75,-2.3 -6.15,-5.65 0.1,1.7 0.55,3.15 0.8,2.95 2.95,5.05 l 1.85,1.5 q 1,0.65 2.3,1.2 3.35,1.35 8.55,1.6 h 0.8 Q 29.3,36.25 33,33.8 q 3.65,-2.45 4.8,-6.55 l 0.5,-2.2 z"
         id="path10" />
      <path
         fill="#565656"
         stroke="none"
         d="M 28.15,6.25 Q 25.3,4.95 22.5,4.85 V 4.9 L 22.05,4.85 21,4.9 V 4.85 q -2.75,0.1 -5.65,1.4 -2.8,1.3 -4.8,3.2 -2.65,2.5 -4.05,6.1 -1.4,3.5 -1.4,7.3 l 0.05,1.25 q 1.4,3.35 6.15,5.65 2.75,1.3 5.65,1.95 l 6.6,-0.45 3.5,-0.85 q 1.15,-0.45 2.65,-1.5 6.25,-4.35 8.45,-9.4 -0.4,-2 -1.15,-3.95 -1.4,-3.6 -4.05,-6.1 -2,-1.9 -4.8,-3.2 z"
         id="path11" />
    </g>
    <g
       id="Symbol_332_0_Layer0_0_FILL">
      <path
         fill="#000000"
         stroke="none"
         d="M 15.9,8.8 Q 16.3,6.65 15.95,4.85 15.55,2.75 14.15,1.6 12.65,0.35 9.4,0.05 6.65,-0.15 5.1,0.5 3.4,1.2 2,3 -0.05,5.65 0,8.7 q 0,1.55 0.7,3 0.7,1.45 1.9,2.35 1.55,1.1 4.05,1.35 4.9,0.45 7.3,-2.3 1.4,-1.55 1.95,-4.3 M 11.65,6.9 11.55,7.4 11.5,8.55 q -0.25,1.15 -1.2,1.9 -1,0.8 -2.15,0.75 Q 7,11.2 6.05,10.4 5.1,9.6 4.85,8.45 4.7,7.55 5,6.75 q 0.25,-0.7 0.65,-1.2 0.7,-0.8 1.8,-1 l 2.05,0.15 0.65,0.4 0.2,0.05 0.6,0.55 z"
         id="path12" />
      <path
         fill="#ffffff"
         stroke="none"
         d="M 11.55,7.4 11.65,6.9 10.95,5.7 10.35,5.15 10.15,5.1 9.5,4.7 7.45,4.55 q -1.1,0.2 -1.8,1 Q 5.25,6.05 5,6.75 4.7,7.55 4.85,8.45 5.1,9.6 6.05,10.4 7,11.2 8.15,11.2 9.3,11.25 10.3,10.45 11.25,9.7 11.5,8.55 Z"
         id="path13" />
    </g>
    <g
       id="Symbol_568_0_Layer0_0_FILL">
      <path
         fill="#414141"
         stroke="none"
         d="M 9.6,4.4 6.5,4.2 Q 5.2,4.1 4.65,3.5 L 4.35,2.9 V 2.8 L 3.75,3.2 3.4,3.6 Q 2.25,4.5 2.1,5.55 L 2.05,6.25 1.95,7.4 q 0.05,1 1,2.2 l 0.4,0.45 -0.4,0.15 q -1.4,0.5 -2,1.4 -0.55,1 -0.65,2.35 -0.05,1.05 0.15,1.8 0.65,-0.9 1.65,-1.05 0.8,-0.15 2.65,0.4 3.9,1.25 8.05,1.65 Q 11,14.7 8.65,13.2 L 7.5,12.1 7.4,12 Q 6.75,11.55 6.6,10.85 l 0.05,-0.8 0.1,-0.4 0.05,-0.1 Q 7.1,8.9 7.65,8.5 8.35,8 9.65,7.65 L 10.2,7.5 20.3,4.3 q -2.15,-0.25 -6.9,0 z"
         id="path14" />
      <path
         fill="#000000"
         stroke="none"
         d="M 20.8,21.65 Q 21.5,21 21.55,20.2 21.6,19.1 20.25,17.55 L 19,16.15 q -2.55,-3 -4.55,-4.6 L 14,11.25 18.45,9.8 22.55,8.4 Q 24.75,7.45 26.3,6.3 27.75,5.3 28.25,4.15 29,2.6 28.05,1.4 27.35,0.35 24.75,0.15 19.6,-0.15 12.9,0.25 L 7,0.7 Q 5.2,0.8 4.6,1.55 4.3,1.95 4.3,2.55 L 4.35,2.8 v 0.1 l 0.3,0.6 Q 5.2,4.1 6.5,4.2 l 3.1,0.2 3.8,-0.1 q 4.75,-0.25 6.9,0 L 10.2,7.5 9.65,7.65 Q 8.35,8 7.65,8.5 7.1,8.9 6.8,9.55 l -0.05,0.1 -0.1,0.4 -0.05,0.8 q 0.15,0.7 0.8,1.15 l 0.1,0.1 1.15,1.1 Q 11,14.7 12.8,16.75 8.65,16.35 4.75,15.1 2.9,14.55 2.1,14.7 1.1,14.85 0.45,15.75 0.05,16.3 0,17 q -0.05,0.7 0.3,1.2 0.45,0.8 1.85,1.2 2.6,0.85 6.75,1.55 l 6.85,1.15 3.5,0.3 q 0.9,-0.15 1.55,-0.75 z"
         id="path15" />
    </g>
  </defs>
  <g
     transform="matrix(1.9782715,-0.29379272,0.29379272,1.9782715,64.291275,92.615809)"
     id="g16">
    <g
       id="g15">
      <use
         xlink:href="#Symbol_557_0_Layer1_0_FILL"
         id="use15" />
    </g>
  </g>
  <g
     transform="matrix(-1.9896851,0.20233154,0.20233154,1.9896851,193.39127,12.71581)"
     id="g18">
    <g
       id="g17">
      <use
         xlink:href="#Symbol_559_0_Layer0_0_FILL"
         id="use16" />
    </g>
  </g>
  <g
     transform="matrix(1.8582764,0.73925781,-0.73925781,1.8582764,17.291276,-6.2841903)"
     id="g20">
    <g
       id="g19">
      <use
         xlink:href="#Symbol_559_0_Layer0_0_FILL"
         id="use18" />
    </g>
  </g>
  <g
     transform="matrix(-1.9782715,0.29379272,0.29379272,1.9782715,137.69127,96.815809)"
     id="g22">
    <g
       id="g21">
      <use
         xlink:href="#Symbol_562_0_Layer1_0_FILL"
         id="use20" />
    </g>
  </g>
  <g
     transform="matrix(1.9782715,-0.29379272,0.29379272,1.9782715,50.791272,109.71581)"
     id="g24">
    <g
       id="g23">
      <use
         xlink:href="#Symbol_562_0_Layer1_0_FILL"
         id="use22" />
    </g>
  </g>
  <g
     transform="matrix(1.9782715,-0.29379272,0.29379272,1.9782715,61.091272,67.815809)"
     id="g27">
    <g
       id="g26">
      <g
         id="g25">
        <use
           xlink:href="#Symbol_325_0_Layer0_0_FILL"
           id="use24" />
      </g>
    </g>
  </g>
  <g
     transform="matrix(2,0,0,2,54.291272,3.7158097)"
     id="g30">
    <g
       id="g29">
      <g
         id="g28">
        <use
           xlink:href="#Symbol_330_0_Layer0_0_FILL"
           id="use27" />
      </g>
    </g>
  </g>
  <g
     transform="matrix(2,0,0,2,67.791275,16.91581)"
     id="g32">
    <g
       id="g31">
      <use
         xlink:href="#Symbol_332_0_Layer0_0_FILL"
         id="use30" />
    </g>
  </g>
  <g
     transform="matrix(2,0,0,2,115.79127,16.91581)"
     id="g34">
    <g
       id="g33">
      <use
         xlink:href="#Symbol_332_0_Layer0_0_FILL"
         id="use32" />
    </g>
  </g>
  <g
     transform="matrix(1.5389404,0.412323,-0.51757812,1.9318542,100.19127,35.31581)"
     id="g36">
    <g
       id="g35">
      <use
         xlink:href="#Symbol_568_0_Layer0_0_FILL"
         id="use34" />
    </g>
  </g>
</svg>
