<?xml version="1.0" encoding="UTF-8" standalone="no"?>
<svg xmlns:ffdec="https://www.free-decompiler.com/flash" xmlns:xlink="http://www.w3.org/1999/xlink" ffdec:objectType="frame" height="118.65px" width="125.85px" xmlns="http://www.w3.org/2000/svg">
  <g transform="matrix(3.0, 0.0, 0.0, 3.0, 6.15, 16.8)">
    <use ffdec:characterId="3121" height="30.25" transform="matrix(0.9988, -7.0E-4, 0.001, 1.0025, 0.1, 0.15)" width="38.4" xlink:href="#sprite0"/>
    <use ffdec:characterId="3124" ffdec:characterName="enemies_fla.Symbol210_199" height="10.65" transform="matrix(1.0, 0.0, 0.0, 1.0, 13.55, 14.15)" width="11.0" xlink:href="#sprite2"/>
    <use ffdec:characterId="3124" ffdec:characterName="enemies_fla.Symbol210_199" height="10.65" transform="matrix(1.0, 0.0, 0.0, 1.0, 27.35, 7.95)" width="11.0" xlink:href="#sprite2"/>
  </g>
  <defs>
    <g id="sprite0">
      <use ffdec:characterId="3120" ffdec:characterName="enemies_fla.Symbol307_198" height="30.25" transform="matrix(1.0, 0.0, 0.0, 1.0, 0.0, 0.0)" width="38.4" xlink:href="#sprite1"/>
    </g>
    <g id="sprite1">
      <use ffdec:characterId="3118" height="30.25" transform="matrix(1.0, 0.0, 0.0, 1.0, 0.0, 0.0)" width="38.4" xlink:href="#shape0"/>
    </g>
    <g id="shape0">
      <path d="M37.4 16.65 Q37.4 19.15 36.95 20.6 36.0 23.75 33.15 25.75 30.7 27.6 27.2 28.5 23.8 29.5 20.9 29.15 16.3 28.55 11.5 24.05 L7.75 20.1 4.0 16.15 2.2 14.35 Q1.2 13.35 0.7 12.4 -0.2 10.6 0.05 8.45 0.25 6.35 1.45 4.6 3.75 1.35 8.3 0.35 11.8 -0.35 16.45 0.4 24.3 1.7 30.95 5.95 34.25 7.95 35.65 10.15 37.2 12.55 37.4 16.65 M22.45 7.35 L20.85 6.6 20.0 6.3 13.3 4.9 11.0 4.7 Q9.05 4.7 6.85 5.55 5.3 6.15 4.8 6.85 L4.55 7.4 Q4.1 8.55 4.8 10.05 5.3 10.95 6.95 12.6 L11.6 17.6 Q14.4 20.65 16.5 22.3 18.0 23.55 19.5 24.05 22.25 25.0 26.5 23.6 28.95 22.75 30.2 21.85 32.15 20.35 32.55 18.65 32.9 17.35 32.45 15.7 L32.4 15.45 31.45 13.15 Q30.4 11.45 28.1 10.15 L23.95 8.05 22.45 7.35" fill="#000000" fill-rule="evenodd" stroke="none"/>
      <path d="M20.0 6.3 L20.85 6.6 22.45 7.35 22.3 8.05 22.0 8.65 21.85 9.55 21.8 9.65 22.15 9.7 23.4 9.7 24.65 9.8 26.25 10.2 27.15 10.3 Q27.8 10.6 27.55 11.1 27.4 11.35 26.95 11.45 L24.15 11.6 21.0 11.8 19.75 15.05 19.55 16.0 Q19.35 16.55 18.85 16.55 18.5 16.5 18.3 16.0 L18.2 15.25 18.1 14.0 18.35 13.2 18.35 12.55 18.6 11.6 17.75 11.65 15.9 11.7 15.25 12.0 14.55 12.15 13.65 11.8 Q12.95 11.1 13.2 10.25 13.35 9.3 14.35 9.05 L15.9 9.1 19.1 9.3 19.85 7.1 20.0 6.3 M32.4 15.45 L32.45 15.7 Q32.9 17.35 32.55 18.65 32.15 20.35 30.2 21.85 28.95 22.75 26.5 23.6 22.25 25.0 19.5 24.05 18.0 23.55 16.5 22.3 14.4 20.65 11.6 17.6 L6.95 12.6 Q5.3 10.95 4.8 10.05 4.1 8.55 4.55 7.4 L5.2 7.9 6.2 9.05 7.15 10.15 8.95 11.45 11.6 13.75 17.25 18.6 Q18.9 19.95 19.85 20.3 L23.05 20.7 27.1 20.15 Q29.15 19.35 30.9 16.75 31.7 15.65 32.25 15.5 L32.4 15.45" fill="#232323" fill-rule="evenodd" stroke="none"/>
      <path d="M20.0 6.3 L19.85 7.1 19.1 9.3 15.9 9.1 14.35 9.05 Q13.35 9.3 13.2 10.25 12.95 11.1 13.65 11.8 L14.55 12.15 15.25 12.0 15.9 11.7 17.75 11.65 18.6 11.6 18.35 12.55 18.35 13.2 18.1 14.0 18.2 15.25 18.3 16.0 Q18.5 16.5 18.85 16.55 19.35 16.55 19.55 16.0 L19.75 15.05 21.0 11.8 24.15 11.6 26.95 11.45 Q27.4 11.35 27.55 11.1 27.8 10.6 27.15 10.3 L26.25 10.2 24.65 9.8 23.4 9.7 22.15 9.7 21.8 9.65 21.85 9.55 22.0 8.65 22.3 8.05 22.45 7.35 23.95 8.05 28.1 10.15 Q30.4 11.45 31.45 13.15 L32.4 15.45 32.25 15.5 Q31.7 15.65 30.9 16.75 29.15 19.35 27.1 20.15 L23.05 20.7 19.85 20.3 Q18.9 19.95 17.25 18.6 L11.6 13.75 8.95 11.45 7.15 10.15 6.2 9.05 5.2 7.9 4.55 7.4 4.8 6.85 Q5.3 6.15 6.85 5.55 9.05 4.7 11.0 4.7 L13.3 4.9 20.0 6.3" fill="#2f2f2f" fill-rule="evenodd" stroke="none"/>
      <path d="M37.4 16.65 Q37.4 19.15 36.95 20.6 36.0 23.75 33.15 25.75 30.7 27.6 27.2 28.5 23.8 29.5 20.9 29.15 16.3 28.55 11.5 24.05 L7.75 20.1 4.0 16.15 2.2 14.35 Q1.2 13.35 0.7 12.4 -0.2 10.6 0.05 8.45 0.25 6.35 1.45 4.6 3.75 1.35 8.3 0.35 11.8 -0.35 16.45 0.4 24.3 1.7 30.95 5.95 34.25 7.95 35.65 10.15 37.2 12.55 37.4 16.65 Z" fill="none" stroke="#000000" stroke-linecap="round" stroke-linejoin="round" stroke-width="1.0"/>
    </g>
  </defs>
</svg>
