<svg xmlns="http://www.w3.org/2000/svg" role="img" xmlns:xlink="http://www.w3.org/1999/xlink" viewBox="28.32 -7.43 386.36 279.11"><defs><g id="Symbol_1549_0_Layer9_0_FILL"><path fill="#757575" d="M 218.55 246.5 Q 219.05 241.75 218.95 237.9 L 218.55 231.65 218.2 227 Q 218 224.6 216.75 224.25 215.75 223.9 214.25 225.2 208.5 230.2 204.35 236.25 199.65 236.4 194.7 237.55 192.6 238.05 191.65 238.65 190.85 239.2 189.35 241 L 183.35 247.9 Q 179.75 251.5 176.15 253.35 L 172.3 255 168.35 256.5 Q 167.1 257 166.4 257.6 L 202.6 258.1 207.9 257.7 Q 209.95 257.1 211.95 255.5 L 214.85 252.8 215.4 252.2 218.25 249.2 218.55 246.5 M 275.3 98.1 L 274.65 97.75 273.45 99 270.9 102.2 268.6 104.45 Q 267.4 105.2 264.1 105.85 257.3 107.1 250.6 109.8 246.85 111.35 245.3 113.05 244.1 114.4 243.2 116.75 L 241.8 120.85 Q 240.4 124.75 237.9 127.9 235.5 130.9 232.1 133.2 229.65 134.8 229 135.75 227.85 137.5 228.2 140.35 228.45 142.1 229.2 144.3 L 230.6 148.05 Q 233.15 154.7 237.05 171.5 L 237.35 172.8 Q 237.5 172.5 237.8 172.35 238.35 172.1 238.9 172.55 L 239.65 173.65 240.45 176.3 Q 242.7 185.4 244.3 194.1 L 244.75 196.55 Q 245.35 199.85 244.7 201.55 244.1 203 241.6 205.2 235.3 210.55 229.65 216.55 227.65 218.65 227.1 220.15 226.7 221.35 226.8 223.9 L 227.3 240.55 227.45 240.4 Q 231.3 237.5 236.7 234.85 240.1 233.2 246.6 230.55 256.05 226.7 260.85 224.95 268.3 222.2 274.55 220.55 L 274.65 220.35 Q 275.95 218.9 279.85 218.05 284.65 217 287.45 215.75 291.45 213.9 293.3 210.9 295.2 207.75 295.3 201.3 L 295.2 194.85 Q 295.1 190.95 295.3 188.35 295.45 185.75 296.3 179.35 297.1 173.65 297.15 170.35 297.3 162.85 294.6 153.5 293.4 149.3 288.95 137.2 L 285.65 127.9 Q 281.4 115.5 277.9 102.95 L 276.85 100.1 Q 276.15 98.7 275.3 98.1 M 327.9 139.85 L 326.9 138.9 Q 322.2 134.45 318.9 132.1 317.25 130.95 316.2 130.85 315.2 130.8 313.5 131.45 308.5 133.5 304.1 136.55 L 307.2 130.65 308.85 129.8 Q 311.6 128.15 314.85 127.55 L 317.9 127.1 320.6 126.6 Q 319.5 124.2 319.2 122.15 L 319.15 121.7 Q 318.85 118.45 320.7 113.3 322.9 107.1 323.2 104.95 323.7 101.3 322.6 96.8 321.9 94.05 319.9 88.9 L 312.65 70.2 Q 310.25 63.9 306.9 62.4 306.2 62.05 305.5 61.95 L 303.2 62 301.45 63.95 Q 296.75 69.2 292.35 74.95 L 291.15 76.1 288.75 76.55 280.3 76.45 275.2 76.6 271.45 77.25 267.65 77.9 265.9 78.05 Q 264.95 78.2 264.3 78.6 263.25 79.25 262.3 81.05 L 262 81.6 262.15 80.65 262.4 78.35 Q 262.3 77.5 262.6 77.2 262.8 76.95 263.2 76.85 L 267.9 75.1 268.95 74.9 272.4 74 271.4 74 Q 270.3 74 270.1 73.4 269.95 72.9 270.7 72.25 271.7 71.45 273.25 70.95 L 273.4 70.85 276.45 70.15 284.5 68.55 284.85 68.5 285.4 67.85 Q 286 67.25 287.55 66.2 L 291.65 63.05 Q 294.1 61.1 296.9 59.2 L 296.25 58.05 Q 292.35 50.25 290.75 46.15 288.65 40.75 287.8 36.05 L 287.45 33.65 287.1 30.85 Q 286.8 29.3 286.15 28.3 L 284.95 27 Q 284.5 27.85 284.3 29.3 L 283.25 34.6 Q 282.45 37.5 281.1 39.45 279.35 41.95 275.25 44.55 270.9 47.3 265.95 49.55 264.05 50.35 263.05 50.3 261.6 50.2 260.1 48.85 L 257.6 46.35 Q 255.65 44.55 253.65 44.7 L 251.85 45.15 250.15 46 Q 242.55 50.05 233.8 49.8 229.7 49.55 229.2 51.65 228.95 52.55 229.9 54.35 L 237.75 68.05 239.45 71.3 Q 240.25 73.15 240.4 74.8 240.55 76.65 239.9 79.8 L 235.3 101.9 245.8 92.95 Q 249.45 89.7 252 88.95 L 256.05 88.55 257.25 88.65 258.35 88.8 260.15 89.05 274.5 91.45 Q 278.1 92.05 279.55 93.15 280.85 94.1 281.7 95.9 L 282.9 99.25 Q 288.35 117.35 291.95 127.9 L 293.95 133.65 300.5 152.4 Q 303.6 163.2 303.15 171.75 302.95 175.75 301.65 183.7 300.75 191 300.95 198.1 L 301 198.8 Q 305.65 196.8 310.7 196.2 L 314.9 195.7 Q 317.25 195.3 318.75 194.3 L 321.65 191.35 336.5 172.8 Q 338.1 170.8 338.35 169.6 338.7 168.05 337.7 165.3 L 335 157.4 331.7 148.55 327.9 139.85 Z"/><path fill="#ABABAB" d="M 222.15 49.3 L 220.4 49.3 212.95 49.7 208.9 50.7 204.85 51.35 201.65 51 201.3 50.9 197.85 50 191.4 48.85 188.1 48.5 184.95 48.1 Q 181.25 47.6 179.75 46.25 L 178.1 44.3 Q 177.15 43.05 176.3 42.6 175.25 42 172.75 42.1 L 166.05 42.35 163.35 42.3 Q 161.85 42.1 160.9 41.45 L 159.4 40.05 158 38.55 Q 157.2 37.85 154.85 36.7 153.1 35.85 152.25 35.05 L 149.2 33 146.3 30.75 144.1 28.95 141.4 27.05 138.75 25.35 136.85 25.3 131.3 24.85 Q 127.45 24.55 125.6 24.95 L 122.1 26.05 Q 118.45 27.35 115.65 27.8 112.3 28.3 107.25 27.75 L 98.8 26.9 98.55 26.9 96.95 28.05 55.3 72.1 51.55 75.7 47.8 78.7 Q 44.2 80.95 40.85 80.45 L 40.4 80.4 Q 38.8 81.1 37.8 81.9 36 83.4 34.65 86 L 32.7 90.9 7.05 164.45 Q 6.2 166.95 6.3 168.15 6.35 169.7 7.6 172 L 7.7 172.15 9.2 174.95 13.15 166.45 16.9 156.4 39.75 92.6 Q 40.55 92.75 41.85 93.6 43.2 94.45 43.95 94.55 46.2 94.95 48.85 91.45 50.65 89.1 51.7 88 53.35 86.25 55.1 85.3 55.8 84.9 57.8 84.2 59.55 83.55 60.45 82.95 62.05 81.95 64.45 78.8 76.55 63.05 89.65 48.2 L 91.05 46.05 Q 101.1 39.2 118.2 39.95 L 123.2 40.2 128.2 39.95 132.05 39.2 135.9 39.35 Q 137.8 39.95 139.5 41.95 L 142.25 45.75 Q 144.25 48.6 146.25 49.55 148 50.4 151.55 50.5 L 167.1 51 170.7 51.3 Q 172.65 51.7 173.95 52.65 L 175.9 54.5 Q 177 55.75 177.95 56.15 L 181.3 56.65 188.1 56.45 Q 204 55.6 219.6 51 221.65 50.3 222.15 49.3 M 252.9 94.45 Q 251.15 94.75 248.45 96.95 239.3 104.25 229 111.1 L 228.6 111.35 226.9 111.95 Q 225.9 112.05 225.65 111.35 L 225.65 111.3 Q 223.7 113.3 222.4 115.65 221.45 117.55 222.15 118.5 222.6 119.15 223.8 119.25 225.15 119.25 227.45 117.95 L 247.8 106.05 Q 258.5 99.8 266.75 99.15 L 269.35 98.75 Q 270.9 98.1 270.95 96.8 L 256.5 94.55 252.9 94.45 M 272.1 22.65 L 274.9 22.45 274.95 22.45 Q 269.05 20.15 263.1 18.2 233.35 8.35 201.7 6.15 L 199.35 5.85 197.95 6.45 Q 192.6 8.75 188.1 11.45 185.4 13.05 183 14.85 L 180.15 16.85 Q 178.45 17.85 177 18.1 L 174.45 18 171.85 17.45 Q 160 14.75 148.1 16.65 L 147.6 16.75 147.1 17.7 144.05 22.75 148 26.5 149.6 28.25 152.95 31.4 155.25 33.6 156.7 34.45 157.85 35.1 158.15 35.3 159.25 36.2 Q 160.95 37.2 162.1 37.6 L 170.2 36.6 175.65 35.85 Q 178.7 35.65 180.95 36.45 182.25 36.9 184.1 38.05 L 187.2 39.85 188.1 40.25 Q 191.2 41.45 196.8 42.05 L 213 43.8 217.9 44.25 222.75 44.05 227.6 43.1 232.4 42.15 236.6 41.6 Q 238.9 41.05 239.85 39.6 241.65 37.05 239.1 32.4 L 237.3 28.95 Q 236.45 26.95 236.7 25.3 254 21.5 272.1 22.65 Z"/><path fill="#9B9B9B" d="M 279.15 73.85 L 277.9 73.9 272.4 74 268.95 74.9 267.9 75.1 263.2 76.85 Q 262.8 76.95 262.6 77.2 262.3 77.5 262.4 78.35 L 262.15 80.65 262 81.6 262.3 81.05 Q 263.25 79.25 264.3 78.6 264.95 78.2 265.9 78.05 L 267.65 77.9 271.45 77.25 275.2 76.6 280.3 76.45 288.75 76.55 291.15 76.1 292.35 74.95 Q 296.75 69.2 301.45 63.95 L 303.2 62 302.8 62 301.45 63 298.05 65.25 Q 294.8 67.35 293.15 68.7 L 291 70.4 290.9 70.45 288.4 72.25 287.95 72.75 287.95 72.85 283.4 73.55 281 73.7 280.2 73.8 279.15 73.85 M 284.3 29.3 Q 284.5 27.85 284.95 27 283.6 25.9 281.25 24.95 L 274.95 22.45 274.9 22.45 272.1 22.65 Q 254 21.5 236.7 25.3 236.45 26.95 237.3 28.95 L 239.1 32.4 Q 241.65 37.05 239.85 39.6 238.9 41.05 236.6 41.6 L 232.4 42.15 227.6 43.1 222.75 44.05 217.9 44.25 213 43.8 196.8 42.05 Q 191.2 41.45 188.1 40.25 L 187.2 39.85 184.1 38.05 Q 182.25 36.9 180.95 36.45 178.7 35.65 175.65 35.85 L 170.2 36.6 162.1 37.6 162.9 37.85 Q 164.35 38.2 167.8 37.8 L 173.6 37.4 Q 178 37.3 179.8 38.9 L 181.25 40.55 182.75 42.05 Q 183.6 42.6 185.55 42.9 L 188.1 43.25 192.4 43.75 199.15 44.9 202.95 45.85 206.8 46.45 213.45 45.9 Q 221.05 45.3 227.8 48.8 L 222.15 49.3 Q 221.65 50.3 219.6 51 204 55.6 188.1 56.45 L 181.3 56.65 177.95 56.15 Q 177 55.75 175.9 54.5 L 173.95 52.65 Q 172.65 51.7 170.7 51.3 L 167.1 51 151.55 50.5 Q 148 50.4 146.25 49.55 144.25 48.6 142.25 45.75 L 139.5 41.95 Q 137.8 39.95 135.9 39.35 L 132.05 39.2 128.2 39.95 123.2 40.2 118.2 39.95 Q 101.1 39.2 91.05 46.05 L 89.65 48.2 Q 76.55 63.05 64.45 78.8 62.05 81.95 60.45 82.95 59.55 83.55 57.8 84.2 55.8 84.9 55.1 85.3 53.35 86.25 51.7 88 50.65 89.1 48.85 91.45 46.2 94.95 43.95 94.55 43.2 94.45 41.85 93.6 40.55 92.75 39.75 92.6 L 16.9 156.4 13.15 166.45 9.2 174.95 Q 17 188.6 28.65 198.95 L 32.4 202.3 34.85 204.8 35.8 205.95 37.15 207.7 37.35 207.75 37.65 208 37.45 208.65 41.2 210 Q 46.95 211.65 50.3 211.85 L 58.3 211.15 66.2 209.2 Q 69.15 208.4 71.45 208.1 L 75.8 207.45 77.95 206.75 80.1 206.15 Q 82.8 205.75 85.05 207.15 L 86.8 206.6 Q 91 205.4 97.35 209.1 103.65 212.8 106.95 214.4 111 216.4 117.7 221.45 L 121.2 224.45 Q 122.9 226.35 123.35 228.35 L 123.55 230.2 123.65 230.2 Q 124.5 230.45 124.65 231.35 L 124.7 232.95 124.1 239.15 124.4 240.3 125.1 241.2 126.8 243.7 128.45 245.9 130.25 246.5 130.65 246.65 131.55 247.1 134 248.45 138.15 251 Q 144.25 255 147.65 256.1 150.3 256.95 153.7 257.25 L 159.9 257.5 166.4 257.6 Q 167.1 257 168.35 256.5 L 172.3 255 176.15 253.35 Q 179.75 251.5 183.35 247.9 L 189.35 241 Q 190.85 239.2 191.65 238.65 192.6 238.05 194.7 237.55 199.65 236.4 204.35 236.25 208.5 230.2 214.25 225.2 215.75 223.9 216.75 224.25 218 224.6 218.2 227 L 218.55 231.65 218.95 237.9 Q 219.05 241.75 218.55 246.5 L 218.25 249.2 221.2 246.05 222.1 245.15 221.6 221.15 Q 221.6 218.8 221.95 217.65 222.45 216.3 224.45 214.2 231.45 207.2 238.4 201.4 239.95 200.15 240.4 199.1 240.9 197.95 240.5 195.75 L 237.3 174.25 Q 237.1 173.3 237.35 172.8 L 237.05 171.5 Q 233.15 154.7 230.6 148.05 L 229.2 144.3 Q 228.45 142.1 228.2 140.35 227.85 137.5 229 135.75 229.65 134.8 232.1 133.2 235.5 130.9 237.9 127.9 240.4 124.75 241.8 120.85 L 243.2 116.75 Q 244.1 114.4 245.3 113.05 246.85 111.35 250.6 109.8 257.3 107.1 264.1 105.85 267.4 105.2 268.6 104.45 L 270.9 102.2 273.45 99 274.65 97.75 Q 273.55 97.2 271.6 96.9 L 270.95 96.8 Q 270.9 98.1 269.35 98.75 L 266.75 99.15 Q 258.5 99.8 247.8 106.05 L 227.45 117.95 Q 225.15 119.25 223.8 119.25 222.6 119.15 222.15 118.5 221.45 117.55 222.4 115.65 223.7 113.3 225.65 111.3 225.35 110.4 226.65 109.3 L 235.3 101.9 239.9 79.8 Q 240.55 76.65 240.4 74.8 240.25 73.15 239.45 71.3 L 237.75 68.05 229.9 54.35 Q 228.95 52.55 229.2 51.65 229.7 49.55 233.8 49.8 242.55 50.05 250.15 46 L 251.85 45.15 253.65 44.7 Q 255.65 44.55 257.6 46.35 L 260.1 48.85 Q 261.6 50.2 263.05 50.3 264.05 50.35 265.95 49.55 270.9 47.3 275.25 44.55 279.35 41.95 281.1 39.45 282.45 37.5 283.25 34.6 L 284.3 29.3 M 326.9 138.9 L 327.9 139.85 323.95 132.55 320.95 127.35 320.6 126.6 317.9 127.1 314.85 127.55 Q 311.6 128.15 308.85 129.8 L 307.2 130.65 304.1 136.55 Q 308.5 133.5 313.5 131.45 315.2 130.8 316.2 130.85 317.25 130.95 318.9 132.1 322.2 134.45 326.9 138.9 Z"/><path d="M 326.6 125.1 Q 325.05 122.3 324.95 120.8 324.85 119.5 325.75 116.9 327.55 111.8 328.25 108.3 329.25 103.5 328.9 99.45 328.55 95.5 325.95 88.35 L 318.65 69.4 316.45 64.45 Q 315 61.8 313.35 60.1 311.15 57.9 308.15 56.85 305.1 55.8 302.05 56.15 L 301.45 55.15 Q 294.9 44.15 293.2 31.5 L 292.5 27.5 Q 291.95 25.25 290.8 23.95 289.6 22.5 286.4 21 250.25 4.05 200.5 0.2 L 199.5 0.15 198.65 0 Q 197.15 -0.05 194.55 1.25 L 188.1 4.65 Q 183.7 7.15 180.15 9.75 L 178.15 11.1 Q 177 11.75 175.95 12 L 173.05 11.85 170.15 11.1 Q 166.65 10.15 162.1 10.1 L 153.95 10.35 147.35 10.95 Q 144.7 11.35 143.4 12.1 141.5 13.2 139.3 16.95 L 138.95 17.65 133.8 17.15 126.95 18.35 126.65 18.45 118.6 19.4 107.55 20.7 103.15 20.6 100.75 20.7 99.15 20.7 97.05 21.1 Q 95.9 21.55 94.2 23.35 L 93.55 23.85 Q 91.85 25.2 89.1 28.15 L 53.25 65.8 Q 49.45 69.8 47.1 71.2 45.4 72.25 39.7 74.3 35 76 32.8 78 30.95 79.7 29.5 82.55 L 27.4 87.8 1.85 160.35 Q 0.75 163.55 0.4 165.3 -0.2 168.1 0.15 170.35 0.45 172.05 1.4 174 L 3.25 177.35 Q 8.55 185.9 10.9 189 14.3 193.5 20.65 199.85 L 30.85 210.25 33.1 212.65 35.75 214.5 36.45 214.8 36.55 214.85 Q 38.8 216.2 42.7 216.65 50.15 217.6 58.8 216.25 65.8 215.1 74.6 212.25 L 78.45 211 Q 81.4 209.95 83.3 208.8 L 85.25 207.25 85.05 207.15 Q 82.8 205.75 80.1 206.15 L 77.95 206.75 75.8 207.45 71.45 208.1 Q 69.15 208.4 66.2 209.2 L 58.3 211.15 50.3 211.85 Q 46.95 211.65 41.2 210 L 37.45 208.65 37.65 208 37.35 207.75 37.15 207.7 35.8 205.95 34.85 204.8 32.4 202.3 28.65 198.95 Q 17 188.6 9.2 174.95 L 7.7 172.15 7.6 172 Q 6.35 169.7 6.3 168.15 6.2 166.95 7.05 164.45 L 32.7 90.9 34.65 86 Q 36 83.4 37.8 81.9 38.8 81.1 40.4 80.4 L 40.85 80.45 Q 44.2 80.95 47.8 78.7 L 51.55 75.7 55.3 72.1 96.95 28.05 98.55 26.9 98.8 26.9 107.25 27.75 Q 112.3 28.3 115.65 27.8 118.45 27.35 122.1 26.05 L 125.6 24.95 Q 127.45 24.55 131.3 24.85 L 136.85 25.3 138.75 25.35 141.4 27.05 144.1 28.95 146.3 30.75 149.2 33 152.25 35.05 Q 153.1 35.85 154.85 36.7 157.2 37.85 158 38.55 L 159.4 40.05 160.9 41.45 Q 161.85 42.1 163.35 42.3 L 166.05 42.35 172.75 42.1 Q 175.25 42 176.3 42.6 177.15 43.05 178.1 44.3 L 179.75 46.25 Q 181.25 47.6 184.95 48.1 L 188.1 48.5 191.4 48.85 197.85 50 201.3 50.9 201.65 51 204.85 51.35 208.9 50.7 212.95 49.7 220.4 49.3 222.15 49.3 227.8 48.8 Q 221.05 45.3 213.45 45.9 L 206.8 46.45 202.95 45.85 199.15 44.9 192.4 43.75 188.1 43.25 185.55 42.9 Q 183.6 42.6 182.75 42.05 L 181.25 40.55 179.8 38.9 Q 178 37.3 173.6 37.4 L 167.8 37.8 Q 164.35 38.2 162.9 37.85 L 162.1 37.6 Q 160.95 37.2 159.25 36.2 L 158.15 35.3 157.85 35.1 156.7 34.45 155.25 33.6 152.95 31.4 149.6 28.25 148 26.5 144.05 22.75 147.1 17.7 147.6 16.75 148.1 16.65 Q 160 14.75 171.85 17.45 L 174.45 18 177 18.1 Q 178.45 17.85 180.15 16.85 L 183 14.85 Q 185.4 13.05 188.1 11.45 192.6 8.75 197.95 6.45 L 199.35 5.85 201.7 6.15 Q 233.35 8.35 263.1 18.2 269.05 20.15 274.95 22.45 L 281.25 24.95 Q 283.6 25.9 284.95 27 L 286.15 28.3 Q 286.8 29.3 287.1 30.85 L 287.45 33.65 287.8 36.05 Q 288.65 40.75 290.75 46.15 292.35 50.25 296.25 58.05 L 296.9 59.2 Q 294.1 61.1 291.65 63.05 L 287.55 66.2 Q 286 67.25 285.4 67.85 L 284.85 68.5 284.5 68.55 276.45 70.15 273.4 70.85 273.25 70.95 Q 271.7 71.45 270.7 72.25 269.95 72.9 270.1 73.4 270.3 74 271.4 74 L 272.4 74 277.9 73.9 279.15 73.85 280.2 73.8 281 73.7 283.4 73.55 287.95 72.85 287.95 72.75 288.4 72.25 290.9 70.45 291 70.4 293.15 68.7 Q 294.8 67.35 298.05 65.25 L 301.45 63 302.8 62 303.2 62 305.5 61.95 Q 306.2 62.05 306.9 62.4 310.25 63.9 312.65 70.2 L 319.9 88.9 Q 321.9 94.05 322.6 96.8 323.7 101.3 323.2 104.95 322.9 107.1 320.7 113.3 318.85 118.45 319.15 121.7 L 319.2 122.15 Q 319.5 124.2 320.6 126.6 L 320.95 127.35 323.95 132.55 327.9 139.85 331.7 148.55 335 157.4 337.7 165.3 Q 338.7 168.05 338.35 169.6 338.1 170.8 336.5 172.8 L 321.65 191.35 318.75 194.3 Q 317.25 195.3 314.9 195.7 L 310.7 196.2 Q 305.65 196.8 301 198.8 L 300.95 198.1 Q 300.75 191 301.65 183.7 302.95 175.75 303.15 171.75 303.6 163.2 300.5 152.4 L 293.95 133.65 291.95 127.9 Q 288.35 117.35 282.9 99.25 L 281.7 95.9 Q 280.85 94.1 279.55 93.15 278.1 92.05 274.5 91.45 L 260.15 89.05 258.35 88.8 257.25 88.65 256.05 88.55 252 88.95 Q 249.45 89.7 245.8 92.95 L 235.3 101.9 226.65 109.3 Q 225.35 110.4 225.65 111.3 L 225.65 111.35 Q 225.9 112.05 226.9 111.95 L 228.6 111.35 229 111.1 Q 239.3 104.25 248.45 96.95 251.15 94.75 252.9 94.45 L 256.5 94.55 270.95 96.8 271.6 96.9 Q 273.55 97.2 274.65 97.75 L 275.3 98.1 Q 276.15 98.7 276.85 100.1 L 277.9 102.95 Q 281.4 115.5 285.65 127.9 L 288.95 137.2 Q 293.4 149.3 294.6 153.5 297.3 162.85 297.15 170.35 297.1 173.65 296.3 179.35 295.45 185.75 295.3 188.35 295.1 190.95 295.2 194.85 L 295.3 201.3 Q 295.2 207.75 293.3 210.9 291.45 213.9 287.45 215.75 284.65 217 279.85 218.05 275.95 218.9 274.65 220.35 L 274.55 220.55 Q 268.3 222.2 260.85 224.95 256.05 226.7 246.6 230.55 240.1 233.2 236.7 234.85 231.3 237.5 227.45 240.4 L 227.3 240.55 226.8 223.9 Q 226.7 221.35 227.1 220.15 227.65 218.65 229.65 216.55 235.3 210.55 241.6 205.2 244.1 203 244.7 201.55 245.35 199.85 244.75 196.55 L 244.3 194.1 Q 242.7 185.4 240.45 176.3 L 239.65 173.65 238.9 172.55 Q 238.35 172.1 237.8 172.35 237.5 172.5 237.35 172.8 237.1 173.3 237.3 174.25 L 240.5 195.75 Q 240.9 197.95 240.4 199.1 239.95 200.15 238.4 201.4 231.45 207.2 224.45 214.2 222.45 216.3 221.95 217.65 221.6 218.8 221.6 221.15 L 222.1 245.15 221.2 246.05 218.25 249.2 215.4 252.2 214.85 252.8 211.95 255.5 Q 209.95 257.1 207.9 257.7 L 202.6 258.1 166.4 257.6 159.9 257.5 153.7 257.25 Q 150.3 256.95 147.65 256.1 144.25 255 138.15 251 L 134 248.45 131.55 247.1 130.65 246.65 130.25 246.5 128.45 245.9 126.8 243.7 125.1 241.2 124.4 240.3 124.1 239.15 124.7 232.95 124.65 231.35 Q 124.5 230.45 123.65 230.2 L 123.55 230.2 Q 122.8 230.1 122.25 230.75 121.85 231.2 121.55 232.1 L 120.6 235.5 120.05 237.85 119.55 241.35 Q 119.45 242.1 119.6 242.6 L 120.55 244 121.85 246.3 Q 122.8 248.1 124.35 249.7 L 125.05 250.35 125.65 251.75 Q 126.15 252.4 126.95 252.65 L 128.45 252.5 129.6 252.85 130.45 253 136 256.5 141.85 259.95 Q 145.25 261.75 148.15 262.5 152 263.55 159.5 263.65 L 201.45 264.5 Q 207.45 264.6 210.25 263.65 212.9 262.7 215.65 260.4 L 220.2 255.85 Q 227.15 248.55 231.65 245.2 235.8 242.2 241.55 239.45 245.05 237.8 252.15 234.95 267.4 228.8 275.8 226.55 L 279.5 225.5 Q 281.4 224.8 282.7 223.9 286.3 222.75 289.7 221.15 296.3 218.1 298.8 214.05 300.65 211 301 206.4 L 301.05 204.55 302.3 204.1 Q 308.65 201.65 315.8 201.35 L 318.6 201.2 321.3 200.45 Q 322.6 199.85 323.8 198.5 L 325.75 195.95 Q 332.7 185.95 341.25 176.8 344 173.85 344.5 171.9 345 169.85 343.9 166.2 337.55 144.6 326.6 125.1 Z"/></g><g id="Symbol_1551_0_Layer0_0_FILL"><path d="M 12.1 6 L 14.4 5.1 Q 15.35 4.65 15.9 4.05 16.6 3.2 16.3 2.3 16.1 1.7 15.5 1.4 L 14.25 1.2 Q 13.45 1.25 11.95 2.1 7.65 4.65 6 6.35 4.85 7.6 4.45 8.75 4.25 9.1 4.45 9.3 L 5.1 9.4 Q 6.1 9.15 7.5 8.35 L 9.75 6.95 Q 10.55 6.5 12.1 6 M 23.15 7.1 L 26.2 5.2 28.15 4.15 Q 29.2 3.35 29.35 2.35 29.45 1.75 29.15 1.15 L 28.3 0.25 Q 27.4 -0.2 26.1 0.25 L 24.2 1.35 Q 22.25 2.7 16.85 5.65 12.1 8.25 9.65 10.1 L 4.35 14.45 0.7 16.95 0 17.75 Q -0.1 18.25 0.45 18.6 L 1.45 18.8 Q 2.9 18.8 5.5 17.25 L 15.4 11.15 Q 16.7 10.35 17.35 10.05 L 19.55 9 Q 21.3 8.25 23.15 7.1 Z"/></g><g id="Symbol_1553_0_Layer0_0_FILL"><path d="M 19.85 3.05 Q 19.85 2.25 19 1.5 17.55 0.25 14.3 0.05 L 10.8 0.2 Q 9.05 0.55 7.75 1.15 L 6.45 1.85 Q 1.65 4.6 0.4 8.05 -0.2 9.9 0.05 12 L 0.3 13.2 Q 0.8 14.55 2.2 15.05 L 3.3 15.2 Q 5.75 15.4 7.25 14.7 L 9.1 13.5 10.5 12.15 12 10.9 14.25 9.6 Q 16.85 8.05 19.2 4.65 L 19.85 3.05 M 14 3.7 Q 14.85 3.7 15 4.15 15.15 4.55 14.75 4.95 L 13.35 6.35 11 7.9 8.1 9.05 Q 6.35 9.75 5.45 10.55 4.6 11.4 4.15 11 3.85 10.8 4.05 10 4.65 8.35 6.3 6.9 9.75 3.8 14 3.7 Z"/><path fill="#FFF" d="M 15 4.15 Q 14.85 3.7 14 3.7 9.75 3.8 6.3 6.9 4.65 8.35 4.05 10 3.85 10.8 4.15 11 4.6 11.4 5.45 10.55 6.35 9.75 8.1 9.05 L 11 7.9 13.35 6.35 14.75 4.95 Q 15.15 4.55 15 4.15 Z"/></g><g id="Symbol_1555_0_Layer0_0_FILL"><path d="M 18.25 3.4 Q 17.25 1.75 15.35 0.8 13.55 -0.1 11.5 0 9.5 0.1 6.35 1.35 2.15 3.05 0.9 5.2 0 6.9 0 9.75 0.1 12.8 1.55 13.9 2.5 14.65 4.05 14.6 L 6.75 14.05 14.45 11.8 17.05 10.55 Q 18.6 9.35 18.95 7.25 19.25 5.15 18.25 3.4 M 13.55 4.4 L 14.6 5.8 Q 15.05 6.55 14.9 6.85 L 14.25 7.45 12.4 8.3 Q 10.8 9.1 9.55 9.35 L 6.8 9.7 Q 5.8 9.9 4.15 10.7 3.85 7.85 5.55 6.5 6.2 6.05 7.15 5.7 L 9.25 4.85 Q 11.05 4.15 12.1 4.1 13.05 4 13.55 4.4 Z"/><path fill="#FFF" d="M 14.6 5.8 L 13.55 4.4 Q 13.05 4 12.1 4.1 11.05 4.15 9.25 4.85 L 7.15 5.7 Q 6.2 6.05 5.55 6.5 3.85 7.85 4.15 10.7 5.8 9.9 6.8 9.7 L 9.55 9.35 Q 10.8 9.1 12.4 8.3 L 14.25 7.45 14.9 6.85 Q 15.05 6.55 14.6 5.8 Z"/></g><g id="Symbol_1562_0_Layer0_0_FILL"><path d="M 18.65 39.1 L 19.95 37.75 Q 22.9 33.9 25.45 33.15 L 28.25 32.9 31.05 32.95 Q 32.25 32.85 32.7 32.45 33.3 31.95 33.2 31 33.1 30.1 32.45 29.5 31.35 28.45 28.7 28.35 25.5 28.15 23.8 29.15 L 22.6 30.15 21.2 31.85 17 37.55 16.55 38.55 Q 16.45 39.15 16.85 39.35 17.7 39.75 18.65 39.1 M 40.65 20.8 Q 41.3 19.1 41.15 18.25 41 17.4 40.05 16.2 L 36.55 11.55 Q 32.7 6.65 30.7 4.95 28.7 3.3 27 2.55 L 23.55 1.3 Q 18.7 -0.15 16.4 0 12.05 0.3 8.4 3.95 5.9 6.45 3.3 11.45 2.25 13.5 1.75 15 L 1.15 18.1 0.5 21.9 Q -0.15 26.45 0.05 28.45 0.5 32.25 2.9 34.15 5.25 36 9.35 35.7 L 12.4 35.15 Q 13.3 34.85 14 34.4 L 17.1 31.3 Q 20.6 27.15 24.85 24.05 25.8 23.4 26.35 23.45 26.8 23.5 27.25 23.85 L 28.05 24.5 Q 29.1 25.15 31.35 25.15 L 35 25.1 36.35 25.05 37.85 24.65 Q 38.85 24.2 39.6 23.05 L 40.65 20.8 M 20.4 9.4 L 20.35 10.75 Q 19.95 11.55 18.35 11.75 L 17 11.55 Q 16.7 11.35 16.5 10.55 L 15.55 6.55 15.2 5.45 19.05 5.35 19.95 5.6 20 6.7 20.4 9.4 M 27.45 8.85 L 28.3 9.5 28.5 10.6 Q 28.9 12.1 28.8 12.9 L 26.95 12.9 Q 25.8 12.6 25.55 11.8 25.35 11.3 25.55 10.45 L 25.95 9.1 26.05 7.85 27.45 8.85 M 27.95 16.55 L 27.9 16.4 28.1 16.4 27.95 16.55 M 23.75 17.5 L 24.3 17.65 Q 24.6 17.85 24.7 18.55 L 24.75 18.85 Q 23.55 19.25 22.15 20.2 22.05 19.4 21.55 18.6 21.1 18 21.25 17.7 21.35 17.25 22.3 17.35 L 23.75 17.5 M 35.1 18 L 35.35 18.3 36.55 19.35 Q 36.15 19.95 34.65 20.05 L 32.4 20.1 30.75 19.9 30.4 19.7 30.8 19.3 Q 32.2 17.9 33 17.85 L 34.35 18.05 35.1 18 M 9.2 11.1 L 9.25 11.2 10.95 15 Q 11.35 16.15 11.15 16.75 10.75 17.9 8.4 18.1 L 7.55 16.3 6.75 15.2 7.45 13.85 9.2 11.1 M 18.05 21.75 L 18.85 22.95 Q 17 24.7 14.9 27.3 L 14.8 27.15 13.1 24.55 Q 12.7 23.85 12.8 23.4 L 13.3 22.75 Q 14.7 21.65 16.35 21.5 17.45 21.3 18.05 21.75 Z"/><path fill="#9B9B9B" d="M 28.05 24.5 L 27.25 23.85 Q 26.8 23.5 26.35 23.45 25.8 23.4 24.85 24.05 20.6 27.15 17.1 31.3 L 14 34.4 Q 13.3 34.85 12.4 35.15 L 12.5 35.7 Q 12.75 36.4 13.4 36.8 14.05 37.25 14.75 37.1 L 16 36.45 19.1 33.6 20.9 31.6 22.6 30.15 23.8 29.15 Q 25.6 27.7 27 27.4 L 29.7 27.25 Q 32.35 27.15 34.15 26.4 35.55 25.85 36.35 25.05 L 35 25.1 31.35 25.15 Q 29.1 25.15 28.05 24.5 Z"/><path fill="#DEDEDE" d="M 18.85 22.95 L 18.05 21.75 Q 17.45 21.3 16.35 21.5 14.7 21.65 13.3 22.75 L 12.8 23.4 Q 12.7 23.85 13.1 24.55 L 14.8 27.15 14.9 27.3 Q 17 24.7 18.85 22.95 M 9.25 11.2 L 9.2 11.1 7.45 13.85 6.75 15.2 7.55 16.3 8.4 18.1 Q 10.75 17.9 11.15 16.75 11.35 16.15 10.95 15 L 9.25 11.2 M 35.35 18.3 L 35.1 18 34.35 18.05 33 17.85 Q 32.2 17.9 30.8 19.3 L 30.4 19.7 30.75 19.9 32.4 20.1 34.65 20.05 Q 36.15 19.95 36.55 19.35 L 35.35 18.3 M 24.3 17.65 L 23.75 17.5 22.3 17.35 Q 21.35 17.25 21.25 17.7 21.1 18 21.55 18.6 22.05 19.4 22.15 20.2 23.55 19.25 24.75 18.85 L 24.7 18.55 Q 24.6 17.85 24.3 17.65 M 28.3 9.5 L 27.45 8.85 26.05 7.85 25.95 9.1 25.55 10.45 Q 25.35 11.3 25.55 11.8 25.8 12.6 26.95 12.9 L 28.8 12.9 Q 28.9 12.1 28.5 10.6 L 28.3 9.5 M 20.35 10.75 L 20.4 9.4 20 6.7 19.95 5.6 19.05 5.35 15.2 5.45 15.55 6.55 16.5 10.55 Q 16.7 11.35 17 11.55 L 18.35 11.75 Q 19.95 11.55 20.35 10.75 Z"/></g><g id="Symbol_1564_0_Layer0_0_FILL"><path fill="#9B9B9B" d="M 24.95 23.05 L 28.35 15.2 28.5 14.9 27.85 15.55 27.5 15.95 27.25 16.45 26.45 17.75 22.5 23.15 20.5 25.75 19.4 27 Q 17.9 28.6 17.1 29 L 14.15 29.6 12.05 29.6 8.6 28.95 7.15 28.75 6.55 28.4 6.05 28.6 Q 5.4 28.9 5 29.5 4.6 30.1 4.7 30.75 4.8 31.8 5.85 32.15 L 7.75 32.05 10.55 31.85 13.35 31.95 Q 16.95 32.05 18.85 31 20.6 30.05 22.55 27.3 L 24.95 23.05 M 26.65 3.75 L 27.15 3.85 Q 26.65 2.8 24.65 2 L 21.3 0.85 Q 16.75 -0.45 12.05 0.25 L 9.2 1 Q 7.1 1.95 4.8 4.4 3.05 6.25 2.3 7.85 L 1.5 10.8 Q 1.05 12.8 1.05 14.1 L 1.1 14.7 1.15 14.6 Q 4.6 8.6 10 4.8 11.7 3.55 13.35 3 L 19.15 2.85 25.05 3.65 26.65 3.75 Z"/><path d="M 28.1 4.35 L 27.15 3.85 26.65 3.75 25.05 3.65 19.15 2.85 13.35 3 Q 11.7 3.55 10 4.8 4.6 8.6 1.15 14.6 L 1.1 14.7 Q 0.45 15.9 0.25 16.75 0 17.7 0 19.7 0 21.15 0.4 21.75 0.85 22.5 2.05 23.05 4.45 24.1 8.3 24.1 L 11.35 23.95 13.65 23.75 15.95 23.75 Q 16.75 23.65 18.35 22.8 L 18.4 22.8 17.3 24.05 Q 15.75 25.7 14.7 26.15 L 11.2 26.45 Q 8.6 26.25 7.55 26.5 6.2 26.8 6.25 27.75 6.25 28.15 6.55 28.4 L 7.15 28.75 8.6 28.95 12.05 29.6 14.15 29.6 17.1 29 Q 17.9 28.6 19.4 27 L 20.5 25.75 22.5 23.15 26.45 17.75 27.25 16.45 27.5 15.95 27.85 15.55 28.5 14.9 29.5 13.05 29.75 10.4 29.75 10.25 29.55 7.55 29.5 7.4 29 5.85 28.1 4.35 M 22.65 7.75 L 25 8 Q 25.6 8.35 25.85 9.15 26.1 9.9 25.9 10.7 25.6 11.75 24.2 13.2 21.7 15.7 18.9 17.5 16.7 18.95 14.95 19.45 L 9.8 19.95 4.55 19.1 Q 6.8 12.6 12.55 8.7 14.95 7.1 16.85 7 L 19.75 7.35 22.65 7.75 M 18.55 10.35 Q 17.85 9.45 16.35 9.25 14.25 8.95 12.5 10.2 11.5 10.8 11.15 11.65 10.85 12.35 10.85 13.5 10.85 15.85 12 16.65 12.6 17.1 14.15 17.2 16.25 17.4 17.3 16.8 19.1 15.75 19.1 12.55 19.1 11.15 18.55 10.35 Z"/><path fill="#FFF" d="M 25 8 L 22.65 7.75 19.75 7.35 16.85 7 Q 14.95 7.1 12.55 8.7 6.8 12.6 4.55 19.1 L 9.8 19.95 14.95 19.45 Q 16.7 18.95 18.9 17.5 21.7 15.7 24.2 13.2 25.6 11.75 25.9 10.7 26.1 9.9 25.85 9.15 25.6 8.35 25 8 M 16.35 9.25 Q 17.85 9.45 18.55 10.35 19.1 11.15 19.1 12.55 19.1 15.75 17.3 16.8 16.25 17.4 14.15 17.2 12.6 17.1 12 16.65 10.85 15.85 10.85 13.5 10.85 12.35 11.15 11.65 11.5 10.8 12.5 10.2 14.25 8.95 16.35 9.25 Z"/></g><g id="Symbol_1566_0_Layer0_0_FILL"><path fill="#9B9B9B" d="M 10.45 0.6 L 10.85 0.5 10.15 0.35 Q 8.7 0.15 7.2 0.75 4.65 1.7 2.8 3.85 0.95 5.95 0.3 8.6 -0.35 11.25 0.35 14 1.05 16.75 2.9 18.75 L 3.4 19.3 3 17.25 Q 2.5 14.25 2.65 12.65 2.8 11.4 3.85 8.4 5 5.3 5.9 4.05 L 7.95 2.05 Q 9.3 0.95 10.45 0.6 Z"/><path d="M 28.6 12.2 L 28.65 10.8 28.6 9.35 Q 28.45 8.35 27.7 7 26.45 4.15 25.15 3 24 1.95 21.3 0.95 L 17.9 0.1 Q 16.1 -0.15 13.2 0.15 L 10.85 0.5 10.45 0.6 Q 9.3 0.95 7.95 2.05 L 5.9 4.05 Q 5 5.3 3.85 8.4 2.8 11.4 2.65 12.65 2.5 14.25 3 17.25 L 3.4 19.3 3.7 20.4 Q 4.25 22.05 5.25 23.05 6.2 24 7.8 24.5 L 10.75 25.2 17.4 25.75 Q 21.15 25.6 23.65 23.85 25.25 22.7 26.9 20.6 L 28.2 18.55 Q 28.7 17.35 28.7 15.45 L 28.6 12.2 M 22.3 7.15 Q 23.1 8.1 23.65 9.8 24.65 13.1 24.05 15.4 23.55 17.25 21.95 18.7 20.5 20 18.5 20.6 15.15 21.6 10.65 20.45 9.3 20.05 8.8 19.55 L 8.45 18.95 8.05 18.15 Q 7.55 16.6 7.45 15.05 7.2 11.95 8.55 8.9 10.05 5.65 12.65 4.6 15.45 3.55 19.45 5.3 21.4 6.15 22.3 7.15 M 22.5 10.15 Q 22.4 8.7 21.4 7.9 20.4 7.05 18.65 6.95 L 16.75 7.1 Q 15.6 7.45 14.75 8.35 13.9 9.3 13.7 10.5 13.5 11.7 14 12.8 14.55 13.9 15.55 14.4 16.3 14.8 17.35 14.8 20.4 14.8 21.9 12.65 22.65 11.55 22.5 10.15 Z"/><path fill="#FFF" d="M 23.65 9.8 Q 23.1 8.1 22.3 7.15 21.4 6.15 19.45 5.3 15.45 3.55 12.65 4.6 10.05 5.65 8.55 8.9 7.2 11.95 7.45 15.05 7.55 16.6 8.05 18.15 L 8.45 18.95 8.8 19.55 Q 9.3 20.05 10.65 20.45 15.15 21.6 18.5 20.6 20.5 20 21.95 18.7 23.55 17.25 24.05 15.4 24.65 13.1 23.65 9.8 M 21.4 7.9 Q 22.4 8.7 22.5 10.15 22.65 11.55 21.9 12.65 20.4 14.8 17.35 14.8 16.3 14.8 15.55 14.4 14.55 13.9 14 12.8 13.5 11.7 13.7 10.5 13.9 9.3 14.75 8.35 15.6 7.45 16.75 7.1 L 18.65 6.95 Q 20.4 7.05 21.4 7.9 Z"/></g><g id="Symbol_1582_0_Layer0_0_FILL"><path fill="#757575" d="M 65.4 38.4 Q 65.4 42.6 64.55 46.75 62.65 56.3 56.9 63.15 54.15 66.5 50.95 68.65 51.4 69.3 52.45 69.5 L 55 69.15 Q 58.95 67.85 61.85 63.9 64.2 60.8 65.6 56 L 66.65 51.4 Q 67.05 48.9 67.15 44.9 67.25 39.4 66.4 35.55 66 37.3 65.4 38.4 Z"/><path d="M 63.2 23 Q 62.55 19.9 62.6 17.6 L 62.8 13.05 Q 62.75 10.5 61.55 9.05 60.1 7.25 55.8 6.65 L 55.2 6.6 Q 40.95 4.6 31.8 8.05 28.5 9.35 23.05 12.6 18.2 15.4 15.15 17.7 8.15 23.1 4.1 31.35 0.05 39.55 0 48.4 0 51.65 0.55 53.8 1.45 57.2 3.95 60.15 6.3 62.9 9.6 64.85 12.45 66.6 16.25 67.9 L 23.35 69.95 Q 30.5 71.85 35.1 72.2 41.65 72.75 46.6 70.8 L 50.95 68.65 Q 54.15 66.5 56.9 63.15 62.65 56.3 64.55 46.75 65.4 42.6 65.4 38.4 65.45 34.7 64.9 30.95 L 64.4 28.35 63.2 23 M 57.55 12.6 Q 58.1 13.3 57.9 15.35 57.4 19.25 58.5 25.2 L 60.25 35.05 Q 61.25 45.45 56.2 54.7 53.35 59.85 49.05 63.1 44.25 66.7 39 66.95 L 31.55 66.15 21.8 63.95 Q 16.5 62.35 12.7 60 9.4 58.05 7.75 55.5 L 7.05 54.25 Q 8.95 55.5 11.55 56.35 16.05 57.9 20.85 57.95 25.65 58 30.15 56.55 33.15 55.55 35.55 54.1 38.8 52.1 41.25 49.1 43.7 46.1 45 42.55 45.95 39.85 46.85 34.05 L 47.3 30.2 47 26.35 Q 46.3 21.9 44.2 18.45 41.8 14.55 38.15 12.95 L 37.05 12.55 Q 40.05 11.7 43.3 11.3 L 55.8 11.8 Q 57.05 12.1 57.55 12.6 M 42.9 25.4 Q 43.65 29.15 42.9 35.3 L 42.25 38.65 40.95 41.75 38.45 46.15 Q 36.2 49.4 32.6 51.35 28.25 53.7 21 53.9 L 15.75 53.5 Q 13 53 9.8 51.25 8 50.3 7.2 49.45 6.5 48.65 5.95 47.5 L 5.8 47.2 Q 5.85 45 6.45 42.45 7.8 36.4 11 31.1 13.65 26.7 17.05 23.65 19.25 21.75 23.65 19.05 26.95 17 29.25 15.8 L 29.45 15.75 Q 34.5 15.4 37.65 17.25 41.7 19.7 42.9 25.4 M 28.65 22.4 L 28.8 22.8 Q 29.25 23.9 28.75 25.45 28.25 27.1 26.65 28.95 25.3 30.5 23.9 31.15 L 20.45 31.4 Q 19.55 31.05 18.9 30.25 18.25 29.45 18.1 28.45 17.75 26.25 19.85 24 L 18.85 24.65 15.8 27.55 14.8 29 14.8 29.05 Q 14.05 30 13.35 31.5 L 12.3 34.05 Q 12 35.2 12 38.2 12 40.05 12.35 40.95 12.8 42.1 14.25 43.4 15.3 44.4 16.3 44.75 L 18.25 45.3 18.45 44.55 Q 18.75 43.9 19.35 43.45 20.2 42.85 21.35 42.9 22.45 42.95 23.25 43.65 23.9 44.3 24.1 45.3 28 44.65 30.8 42.25 L 33 39.7 34.2 37.45 35.05 35.25 35.2 33.6 35.2 33.1 35.25 32.65 35.45 30.95 35.2 29.6 35.1 28.65 Q 34.9 27.55 33.8 25.75 32.1 23.15 30.4 22.6 L 28.65 22.4 M 68.85 4.35 Q 68.15 3.15 67.5 2.6 L 65.7 1.6 Q 63.2 0.35 62.65 0.2 60.7 -0.35 59.5 0.75 58.9 1.3 58.95 1.9 59 2.75 60.2 3.35 L 62.55 4.45 64.7 5.85 Q 65.9 6.95 66.6 8.9 L 67.1 10.7 Q 67.5 13.3 67.25 15.4 L 66.9 18.05 66.7 22.6 Q 66.7 24.15 66.85 25.55 L 67.6 29.5 Q 67.8 30.65 68.4 30.75 68.85 30.9 69.3 30.5 L 69.4 30.35 69.75 29.25 Q 70.1 27.8 70.05 26.8 L 69.8 25.4 Q 69.65 24.4 69.65 22.3 L 69.8 20.05 70.55 16.95 71 12.6 71.05 10.8 70.8 8.55 69.65 5.75 68.85 4.35 Z"/><path fill="#DEDEDE" d="M 42.9 35.3 Q 43.65 29.15 42.9 25.4 41.7 19.7 37.65 17.25 34.5 15.4 29.45 15.75 L 29.25 15.8 Q 26.95 17 23.65 19.05 19.25 21.75 17.05 23.65 13.65 26.7 11 31.1 7.8 36.4 6.45 42.45 5.85 45 5.8 47.2 L 5.95 47.5 Q 6.5 48.65 7.2 49.45 8 50.3 9.8 51.25 13 53 15.75 53.5 L 21 53.9 Q 28.25 53.7 32.6 51.35 36.2 49.4 38.45 46.15 L 40.95 41.75 42.25 38.65 42.9 35.3 M 20.8 23 Q 23.05 21.05 24.9 20.8 26.15 20.65 27.25 21.15 28.2 21.6 28.65 22.4 L 30.4 22.6 Q 32.1 23.15 33.8 25.75 34.9 27.55 35.1 28.65 L 35.2 29.6 35.45 30.95 35.25 32.65 35.2 33.1 35.2 33.6 35.05 35.25 34.2 37.45 33 39.7 30.8 42.25 Q 28 44.65 24.1 45.3 L 24.15 45.5 Q 24.25 46.65 23.65 47.5 23 48.35 22 48.6 21.15 48.85 20.3 48.6 19.45 48.35 18.9 47.7 18.35 47.05 18.2 46.2 18.15 45.7 18.25 45.3 L 16.3 44.75 Q 15.3 44.4 14.25 43.4 12.8 42.1 12.35 40.95 12 40.05 12 38.2 12 35.2 12.3 34.05 L 13.35 31.5 Q 14.05 30 14.8 29.05 L 14.8 29 15.8 27.55 18.85 24.65 19.85 24 20.8 23 Z"/><path fill="#FFF" d="M 18.25 45.3 Q 18.15 45.7 18.2 46.2 18.35 47.05 18.9 47.7 19.45 48.35 20.3 48.6 21.15 48.85 22 48.6 23 48.35 23.65 47.5 24.25 46.65 24.15 45.5 L 24.1 45.3 Q 23.9 44.3 23.25 43.65 22.45 42.95 21.35 42.9 20.2 42.85 19.35 43.45 18.75 43.9 18.45 44.55 L 18.25 45.3 M 24.9 20.8 Q 23.05 21.05 20.8 23 L 19.85 24 Q 17.75 26.25 18.1 28.45 18.25 29.45 18.9 30.25 19.55 31.05 20.45 31.4 L 23.9 31.15 Q 25.3 30.5 26.65 28.95 28.25 27.1 28.75 25.45 29.25 23.9 28.8 22.8 L 28.65 22.4 Q 28.2 21.6 27.25 21.15 26.15 20.65 24.9 20.8 M 57.9 15.35 Q 58.1 13.3 57.55 12.6 57.05 12.1 55.8 11.8 L 43.3 11.3 Q 40.05 11.7 37.05 12.55 L 38.15 12.95 Q 41.8 14.55 44.2 18.45 46.3 21.9 47 26.35 L 47.3 30.2 46.85 34.05 Q 45.95 39.85 45 42.55 43.7 46.1 41.25 49.1 38.8 52.1 35.55 54.1 33.15 55.55 30.15 56.55 25.65 58 20.85 57.95 16.05 57.9 11.55 56.35 8.95 55.5 7.05 54.25 L 7.75 55.5 Q 9.4 58.05 12.7 60 16.5 62.35 21.8 63.95 L 31.55 66.15 39 66.95 Q 44.25 66.7 49.05 63.1 53.35 59.85 56.2 54.7 61.25 45.45 60.25 35.05 L 58.5 25.2 Q 57.4 19.25 57.9 15.35 Z"/><path fill="#ABABAB" d="M 65.4 10.75 L 65.05 8.8 Q 64.45 7.25 62.7 5.95 61.55 5.05 60.55 4.75 L 57.45 4.65 Q 55.85 4.75 55.35 5.45 55.05 5.9 55.2 6.6 L 55.8 6.65 Q 60.1 7.25 61.55 9.05 62.75 10.5 62.8 13.05 L 62.6 17.6 Q 62.55 19.9 63.2 23 L 64.4 28.35 64.9 30.95 Q 65.45 34.7 65.4 38.4 66 37.3 66.4 35.55 L 66.6 34.4 Q 67 31.85 66.8 30.2 L 66.35 27 Q 66.2 25.35 66.3 23.25 L 66.25 18.5 65.4 10.75 Z"/></g><g id="Symbol_1593_0_Layer0_0_FILL"><path fill="#757575" d="M 35.8 64.1 L 30.75 62.75 36.3 66.4 Q 39.25 68.05 41.35 68.3 L 43.2 68.35 49.45 68 53.1 67.85 54.85 68.1 56.6 68 56.75 68.1 Q 63.75 66.8 70.7 63.7 73.7 62.45 75.35 60.95 77.7 58.95 78 56.35 L 76.6 56.8 75.25 57.75 Q 70.1 61.25 62.2 63.75 L 56.1 65.15 49.2 65.35 35.8 64.1 Z"/><path d="M 84.8 47.2 Q 86.6 43.65 87.05 39.6 84.15 40.65 81.7 44.4 79.25 48.65 77.7 50.55 75.15 53.75 70.55 56 67.6 57.5 61.9 59.35 L 55.8 60.95 48 61.2 36 60.05 Q 29.5 58.85 24.75 56.25 L 24.65 56.2 24.55 56.05 Q 24.05 55.3 23.35 55.15 22.5 54.95 21.85 55.7 21.2 56.4 21.2 57.3 21.2 58.6 22.7 60.4 25.55 63.9 28.95 66.2 L 33.4 68.95 Q 36.15 70.55 37.95 71.05 L 39.95 71.45 Q 43.05 71.85 47.35 71.35 L 54.7 70.35 Q 56.2 70.1 56.6 69.75 57 69.4 57 68.85 57.05 68.35 56.75 68.1 L 56.6 68 54.85 68.1 53.1 67.85 49.45 68 43.2 68.35 41.35 68.3 Q 39.25 68.05 36.3 66.4 L 30.75 62.75 35.8 64.1 49.2 65.35 56.1 65.15 62.2 63.75 Q 70.1 61.25 75.25 57.75 L 76.6 56.8 Q 82.05 52.65 84.8 47.2 M 6.65 29.25 Q 6.25 29.3 5.85 29.6 5.35 29.95 4.55 31.75 L 3.35 33.8 1.4 37 1.1 38.1 0.35 39.35 Q 0.1 39.95 0.1 41.25 L 0 44.05 Q 0 45.3 0.25 45.85 L 0.85 46.85 1 48.1 1.65 49.25 Q 2.8 50.85 4.9 52.75 6 53.85 6.9 53.85 L 7.4 53.75 7.75 53.25 7.85 52.8 Q 7.95 51.4 6.6 49.2 L 5.4 47.15 4.85 46.05 4.65 44.8 4.05 43.75 3.85 42.35 3.8 41.45 3.9 40.55 4.55 39.25 4.65 38.15 5.2 36.7 7 33.65 7.6 32.55 7.85 31.65 8.25 30.8 Q 8.4 29.85 7.5 29.4 L 6.65 29.25 M 83.9 14.85 L 81.95 13.4 Q 81.15 12.7 80.3 11.4 L 78.85 9.25 Q 73.6 2.1 61.4 0.45 52.55 -0.75 43.6 1.2 34.7 3.1 27.1 7.85 23.05 10.4 20.8 12.9 L 20.1 13.75 Q 18.2 16.2 15.85 21.35 L 10.4 33.45 Q 9.15 36.1 8.95 37.8 L 9 39.65 9.35 41.8 Q 10.9 48.6 14.7 50.8 16.05 51.55 18.15 52 L 20.55 52.5 20.6 52.5 21.8 52.7 Q 23.7 53.1 27.25 54.4 30.85 55.75 32.65 56.15 L 40.7 56.8 53.85 56.2 Q 61 55.2 66.25 52.5 69.3 50.95 72.6 48.35 L 78.35 43.3 Q 82.25 39.8 83.5 37.3 84.15 36 84.65 33.95 L 85.5 30.45 86.4 27.75 87.45 23.35 Q 88.1 18.9 85.8 16.4 L 83.9 14.85 M 81.5 19.4 L 81.9 19.85 Q 82.45 20.6 82.6 21.7 82.75 23 82.3 24.35 L 81.65 26 81.25 26.8 Q 80.45 28.35 80.2 29.25 L 79.65 31.85 Q 79.4 33.45 78.95 34.35 78.35 35.8 76 38.05 L 69.3 44.15 Q 65.35 47.25 61.65 48.75 58.6 49.95 53.4 50.8 40.3 52.85 31.25 50.2 L 26.8 48.75 22.35 47.35 19.7 46.75 Q 18.2 46.3 17.25 45.6 15.35 44.15 14.85 41.4 14.45 39.4 15 37.5 15.25 36.4 16.25 34.3 L 21.3 23.3 Q 23.45 18.7 24.95 16.8 27.2 13.95 31.5 11.5 L 31.65 11.45 Q 28.65 14.7 27.15 16.7 24.45 20.35 23.4 23.8 22.2 27.5 22.4 33.15 22.4 35.7 22.85 37.5 23.6 40.35 25.65 42.8 27.6 45.1 30.3 46.55 35 49.1 41.95 49.25 47.6 49.35 52.5 47.85 57.85 46.15 61.6 42.7 66.8 37.8 68.05 30.8 68.35 28.95 68.45 24 68.45 19.3 67.85 17.05 66.95 13.3 64 10.25 61.2 7.35 57.35 5.85 L 55.55 5.25 Q 62.4 5.2 68.35 7.45 75.2 10.05 77.35 14.75 L 78.1 16.4 79.1 17.85 80.3 18.65 81.5 19.4 M 51.85 9.4 L 54.55 9.75 Q 57.25 10.6 59.45 12.55 61.7 14.5 62.8 17.1 64.45 21.05 63.8 27.15 L 63.1 31.1 Q 61.9 35.4 58.65 38.7 55.35 41.95 51.05 43.2 L 43.25 44.1 39.45 44.05 35.15 43 Q 30.25 41.1 28.35 37.7 27.05 35.3 27.15 31.6 27.3 24.35 31.9 18.65 33.1 17.1 34.55 15.9 36.15 14.6 38.5 13.35 39.8 12.7 42.85 11.4 L 45.8 10.35 47.7 10.1 49.6 9.85 51.85 9.4 M 43.5 15.85 Q 42.3 16.25 41.25 16.8 L 41.6 17 Q 43 17.8 43.35 19.2 43.75 20.6 42.85 23 L 41.65 25.5 Q 40.25 27.45 38 27.85 35.85 28.2 34.2 27 L 34.2 29.2 Q 34.35 30 34.75 30.8 35.6 32.5 36.75 33.8 37.7 34.95 38.75 35.55 39.95 36.35 41.5 36.5 L 46.25 36.6 47.25 36.55 48.6 36.15 50.35 35.35 49.95 33.9 Q 49.85 32.65 50.55 31.75 51.4 30.75 52.6 30.8 L 52.9 30.65 Q 53.75 30.6 54.55 31.1 L 54.8 31.3 55.75 29 56.2 26.8 56.45 23.85 Q 56.4 22.2 55.75 20.55 L 54.85 18.75 Q 53.15 16.15 49.7 15.4 46.85 14.85 43.5 15.85 Z"/><path fill="#ABABAB" d="M 20.8 12.9 L 20.9 12.6 Q 17.45 13.7 14.35 16.9 12.25 19.1 9.65 23.2 L 7.75 26.5 7.1 27.95 6.65 29.25 7.5 29.4 Q 8.4 29.85 8.25 30.8 L 7.85 31.65 7.6 32.55 7 33.65 5.2 36.7 4.65 38.15 4.55 39.25 3.9 40.55 3.8 41.45 3.85 42.35 4.05 43.75 4.65 44.8 4.85 46.05 5.4 47.15 6.6 49.2 Q 7.95 51.4 7.85 52.8 L 7.9 52.8 Q 8.6 52.75 9 52 9.4 51.3 9.35 50.5 L 9 49.05 8.6 47.6 8.45 46.2 8.45 44.8 Q 8.25 42.9 8.35 41.95 8.4 41.35 9 39.65 L 8.95 37.8 Q 9.15 36.1 10.4 33.45 L 15.85 21.35 Q 18.2 16.2 20.1 13.75 L 20.8 12.9 M 84.65 33.95 Q 84.15 36 83.5 37.3 82.25 39.8 78.35 43.3 L 72.6 48.35 Q 69.3 50.95 66.25 52.5 61 55.2 53.85 56.2 L 40.7 56.8 32.65 56.15 Q 30.85 55.75 27.25 54.4 23.7 53.1 21.8 52.7 L 20.6 52.5 20.65 52.55 Q 24.4 55.95 29.5 57.25 L 35.25 58.2 49.8 59.2 Q 58.5 59.6 63.35 57.95 67.7 56.5 71.95 53.05 75.15 50.45 79.1 45.95 82.2 42.5 83.4 40.2 85.25 36.7 86.1 29.9 L 86.4 27.75 85.5 30.45 84.65 33.95 Z"/><path fill="#DEDEDE" d="M 54.55 9.75 L 51.85 9.4 49.6 9.85 47.7 10.1 45.8 10.35 42.85 11.4 Q 39.8 12.7 38.5 13.35 36.15 14.6 34.55 15.9 33.1 17.1 31.9 18.65 27.3 24.35 27.15 31.6 27.05 35.3 28.35 37.7 30.25 41.1 35.15 43 L 39.45 44.05 43.25 44.1 51.05 43.2 Q 55.35 41.95 58.65 38.7 61.9 35.4 63.1 31.1 L 63.8 27.15 Q 64.45 21.05 62.8 17.1 61.7 14.5 59.45 12.55 57.25 10.6 54.55 9.75 M 41.25 16.8 Q 42.3 16.25 43.5 15.85 46.85 14.85 49.7 15.4 53.15 16.15 54.85 18.75 L 55.75 20.55 Q 56.4 22.2 56.45 23.85 L 56.2 26.8 55.75 29 54.8 31.3 55.65 32.35 Q 56.05 33.15 55.9 34.05 L 55.15 35.6 53.2 36.75 51.55 36.8 Q 50.9 36.55 50.4 35.45 L 50.35 35.35 48.6 36.15 47.25 36.55 46.25 36.6 41.5 36.5 Q 39.95 36.35 38.75 35.55 37.7 34.95 36.75 33.8 35.6 32.5 34.75 30.8 34.35 30 34.2 29.2 L 34.2 27 33.9 26.75 Q 32.9 25.95 32.5 24.65 32.05 23.4 32.3 22.15 32.6 20.75 33.85 19.25 36.1 16.55 38.75 16.35 40.05 16.2 41.25 16.8 Z"/><path fill="#FFF" d="M 52.9 30.65 L 52.6 30.8 Q 51.4 30.75 50.55 31.75 49.85 32.65 49.95 33.9 L 50.35 35.35 50.4 35.45 Q 50.9 36.55 51.55 36.8 L 53.2 36.75 55.15 35.6 55.9 34.05 Q 56.05 33.15 55.65 32.35 L 54.8 31.3 54.55 31.1 Q 53.75 30.6 52.9 30.65 M 42.85 23 Q 43.75 20.6 43.35 19.2 43 17.8 41.6 17 L 41.25 16.8 Q 40.05 16.2 38.75 16.35 36.1 16.55 33.85 19.25 32.6 20.75 32.3 22.15 32.05 23.4 32.5 24.65 32.9 25.95 33.9 26.75 L 34.2 27 Q 35.85 28.2 38 27.85 40.25 27.45 41.65 25.5 L 42.85 23 M 81.9 19.85 L 81.5 19.4 80.3 18.65 79.1 17.85 78.1 16.4 77.35 14.75 Q 75.2 10.05 68.35 7.45 62.4 5.2 55.55 5.25 L 57.35 5.85 Q 61.2 7.35 64 10.25 66.95 13.3 67.85 17.05 68.45 19.3 68.45 24 68.35 28.95 68.05 30.8 66.8 37.8 61.6 42.7 57.85 46.15 52.5 47.85 47.6 49.35 41.95 49.25 35 49.1 30.3 46.55 27.6 45.1 25.65 42.8 23.6 40.35 22.85 37.5 22.4 35.7 22.4 33.15 22.2 27.5 23.4 23.8 24.45 20.35 27.15 16.7 28.65 14.7 31.65 11.45 L 31.5 11.5 Q 27.2 13.95 24.95 16.8 23.45 18.7 21.3 23.3 L 16.25 34.3 Q 15.25 36.4 15 37.5 14.45 39.4 14.85 41.4 15.35 44.15 17.25 45.6 18.2 46.3 19.7 46.75 L 22.35 47.35 26.8 48.75 31.25 50.2 Q 40.3 52.85 53.4 50.8 58.6 49.95 61.65 48.75 65.35 47.25 69.3 44.15 L 76 38.05 Q 78.35 35.8 78.95 34.35 79.4 33.45 79.65 31.85 L 80.2 29.25 Q 80.45 28.35 81.25 26.8 L 81.65 26 82.3 24.35 Q 82.75 23 82.6 21.7 82.45 20.6 81.9 19.85 Z"/></g><g id="Symbol_1603_0_Layer0_0_FILL"><path fill="#9B9B9B" d="M 84.9 21.75 L 86.95 22.95 Q 88.15 23.55 89.2 23.7 L 91.55 23.35 Q 92.75 22.8 93.05 21.7 93.75 19.6 90.95 17.2 88.15 14.8 84.45 13.25 82.55 12.45 79.15 11.35 L 73.85 9.6 67.75 6.85 Q 64 5.1 61.65 4.35 50.6 0.9 35.7 6.7 19.25 13.1 14.5 24.45 12.85 28.4 12.2 34.6 11.7 39.85 12.3 43.55 13.1 48.4 16.2 53.05 L 16.5 54 16.6 53.6 Q 18.65 56.6 21.75 59.55 23.7 61.4 25.2 61.75 L 27.25 61.65 Q 28.3 61.25 28.7 60.35 29.2 59.2 28.4 57.75 L 26.6 55.35 Q 24.85 53.35 22.35 48.65 20.65 45.25 20.25 43.75 19.7 41.55 19.95 38.65 L 20.6 34.45 21.4 32.75 23.45 28.75 Q 24.85 25.95 26 24.45 27.2 22.95 27.1 22.1 L 27.05 21.75 Q 29.8 19.75 33.85 18.45 38.45 16.9 45.85 16 70.15 13.1 84.9 21.75 Z"/></g><g id="Symbol_1605_0_Layer0_0_FILL"><path fill="#9B9B9B" d="M 9.55 112.4 Q 8.55 114.7 8.45 115.25 8.25 116.3 8.7 117.85 L 9.4 120.4 9.55 122.1 10.9 122.3 Q 11.9 122.3 13.5 121.55 11.85 120.85 10.3 119.65 L 9.4 118.7 8.95 118 Q 8.7 117.05 8.9 116.1 L 10.2 110.6 9.55 112.4 M 29.8 59.8 L 23.15 69.95 17.85 78.5 Q 15.05 83.4 13.5 87.5 11.1 94.15 10.85 101.2 L 10.7 106.9 10.35 109.8 12.2 101.7 Q 14.5 92.1 16.1 87.45 18.65 80.1 23.6 71.75 26.6 66.6 33.1 57.05 37.95 49.9 41.55 45.05 L 38.15 49.15 Q 32.85 55.45 29.8 59.8 M 65.05 22.25 L 63.95 22.25 Q 60.9 24.55 57.85 27.4 L 59.5 26.05 Q 61.6 24.45 65.05 22.25 Z"/><path d="M 88.95 5.3 L 94.7 3.9 97.1 2.9 Q 98.6 2.1 99.6 1.05 97.4 -0.35 92.95 0.15 83.15 1.25 73.5 5.7 64.55 9.85 56.3 16.5 49.05 22.4 41.9 30.55 36.15 37.15 29.4 46.5 26.5 50.5 25.75 53.2 L 25.65 54.15 Q 25.8 54.6 26.2 54.65 L 26.25 54.65 27.1 54.15 33.2 45.35 Q 36.8 40.45 42.15 35 L 52.25 25.55 Q 57.25 20.95 59.7 19.05 72.65 8.75 88.95 5.3 M 127.9 18.8 L 124.45 15 Q 122.45 13.05 120.45 11.95 119 11.15 117 10.6 114.1 9.8 110.15 9.55 L 108.45 9.45 Q 101.7 8.95 96.45 9.4 89.1 9.95 83.25 12.25 79.35 13.7 71.8 18.1 67.95 20.4 65.05 22.25 61.6 24.45 59.5 26.05 L 57.85 27.4 Q 51.4 32.6 45.1 40.4 L 41.55 45.05 Q 37.95 49.9 33.1 57.05 26.6 66.6 23.6 71.75 18.65 80.1 16.1 87.45 14.5 92.1 12.2 101.7 L 10.35 109.8 10.2 110.6 8.9 116.1 Q 8.7 117.05 8.95 118 L 9.4 118.7 10.3 119.65 Q 11.85 120.85 13.5 121.55 11.9 122.3 10.9 122.3 L 9.55 122.1 8.6 121.75 7.8 121.4 Q 6.25 120.7 5.8 120.05 5.5 119.55 5.3 117.6 L 4.95 115.75 Q 4.15 112.2 4.1 110.4 L 4.2 108.2 4.05 105.3 4.05 105.05 4.5 103.65 Q 5.9 100.2 5.95 96.4 L 5.25 96.3 4.6 96.4 Q 3.9 96.65 3.4 97.15 2.75 97.9 2.25 99.65 L 0.45 105.25 0.05 106.95 0.1 109.8 0.2 110.4 Q 0.15 111.15 0.4 112.45 L 0.3 114.25 0.15 115.95 0.35 117.6 0.8 119.2 1.45 121.8 Q 1.9 123.25 2.7 124.1 L 5 125.55 Q 7.65 126.95 9.25 127.1 L 10.9 127.15 14.6 126.5 16.4 125.65 21 123.25 Q 22.85 122.45 23.45 121.5 L 24.4 121.2 24.5 121.15 26.4 122.75 26.65 123 27.2 123.6 27.9 124.5 29.15 125.7 29.75 126.25 31.35 127.55 33.15 127.65 33.4 127.1 33.7 127.2 Q 35.35 127.65 37.75 126.15 39.15 125.35 39.8 124.65 L 41.8 122.45 43.45 121.2 45.9 118.55 Q 47.9 116.05 48.15 114.05 48.25 112.95 47.75 110.85 L 48.85 110.6 50.35 110.2 Q 52.15 109.5 53.6 107.4 L 56 103.75 57.6 101.25 57.9 98.8 57.95 95.65 57.75 93.65 57.2 92.55 57.4 92.55 62.85 92.05 Q 65.55 91.55 66.4 90.1 L 66.95 88.1 Q 67.25 85.2 66.8 82.35 L 66.65 79.5 66.35 77.35 65.8 74.9 66.5 74.9 Q 68.3 75 69.7 74.35 71.2 73.6 72.7 71.5 73.95 69.7 74.8 69.2 75.95 68.45 78.55 68.45 L 78.9 68.45 78.85 69.65 Q 78.95 77.35 82.75 80.25 84.95 81.9 88.05 81.9 90.9 81.9 93.55 80.55 95.8 79.4 98.2 77.25 L 102.2 73.2 Q 107.45 67.8 112.9 63 L 115.7 60.5 Q 122.5 54.8 124.65 52.5 L 128.4 47.95 Q 130.15 45.35 131.05 42.75 L 131.1 42.6 131.3 42 131.35 41.8 133.25 37.65 133.65 36.5 Q 134.7 33.4 134.45 30.85 134.25 28.1 132.6 25.15 L 132.15 24.4 Q 130.9 22.3 127.9 18.8 M 122.3 20.9 L 124.85 24.2 126.65 26.65 128.05 29.25 Q 128.95 32 127.95 35.6 L 127.8 36.1 127.25 37.7 Q 126.4 39.75 125.7 41.95 L 124.35 44.2 122.6 47.1 Q 121.45 48.75 119.7 50.45 121.65 46.55 122.9 42.15 L 122.95 42.1 124.1 39.35 124.2 37.65 124.25 36.25 124.2 34.75 124.15 34.2 Q 123.9 32.8 123.05 31.45 122.1 29.85 120.6 28.9 119.3 28 117.45 27.55 L 114.5 27.3 114.25 27.35 Q 114.1 26 113.5 25.05 L 112 23.25 110.7 21.6 109.85 20.15 109.65 19.7 109.45 19.15 109.3 18.55 Q 109 17.25 109.1 15.75 L 109.15 15.4 109.35 15.35 114.55 16.1 Q 117.35 16.75 119.25 18.1 120.75 19.05 122.3 20.9 M 101.3 15.15 L 104.7 15.15 104.8 15.85 105.1 17.5 105.3 18.9 105.5 20.25 105.75 21.5 Q 106.1 22.4 107.8 24.6 L 109.7 27.15 110.05 28.05 109.75 28.9 Q 109.6 29.35 109.7 30.2 L 109.2 31.1 108.9 32.25 108.15 33.3 107.25 34.25 106.15 35.5 105.95 35.65 104.9 34.55 102.85 33.05 Q 101.8 32.5 100.95 32.25 98.2 31.65 96.1 33.4 L 95 34.05 Q 94.5 34.1 93.9 33.6 L 91.35 32.05 Q 89.95 31.35 88.65 31.2 87.05 31.05 84.5 32.15 L 82.05 33.35 80.05 35.25 Q 77.2 38.6 76.9 42.95 76 42.4 75.3 42.2 73.6 41.65 70.95 42.15 68.75 42.6 67.6 43.25 65.9 44.2 65.35 45.8 L 65.05 46.75 64.4 47.45 Q 63.95 47.7 63.3 47.45 L 62.15 47 Q 59.4 45.8 56.45 48.25 54.25 50.15 53.45 52.95 52.8 55.5 53.45 60 L 54.1 63.9 52.35 63.25 Q 50.4 62.65 47.95 63.25 46.2 63.65 43.65 64.85 39.8 66.65 38.6 68.6 37.8 69.9 37.5 72.55 L 37.25 74.8 Q 37.25 75.9 37.65 77.6 L 38.25 80.4 38.45 83.2 38.5 83.85 37.85 84 35.55 84.5 33.25 85 Q 31.5 85.65 29.85 87.35 28.8 88.3 27.15 90.55 L 26.5 91.8 Q 26.35 92.3 26.65 93.7 L 27.2 96.85 28.05 99.85 28.8 101.65 Q 27.1 102.1 26.7 103.05 L 26.65 103.05 24.75 104.25 23.4 104.95 Q 22.65 105.4 22.25 105.8 21.75 106.35 21.1 107.6 L 20.5 108.3 Q 20.1 108.8 20 109.2 19.85 109.8 20.1 111.05 L 20.2 112.25 20.3 113.4 20.9 114.8 21.6 116.2 21.85 117.05 20.9 117.2 18.9 117.5 15.7 117.1 15.45 116.8 15.45 116.75 Q 14.85 115.75 14.95 114.6 L 15.3 112.4 15.05 110.4 Q 14.9 109.5 15.1 108.25 L 15.1 108.2 16.5 103.05 Q 19.3 91.75 21 87.8 23 83.05 28.3 74.7 35.7 63 39.45 57.6 45.9 48.15 51.9 41.35 L 52.05 41.2 52.25 41 52.8 40.4 53.15 39.95 60.35 32.9 60.45 32.8 60.6 32.65 60.75 32.55 60.85 32.45 Q 64.5 29.55 72.6 24.7 78.05 21.55 80.75 20.15 85.4 17.8 89.4 16.7 93.8 15.4 99.3 15.2 L 101.3 15.15 M 99.5 37.05 L 99.75 36.85 100.1 37.05 Q 101.9 37.95 102.55 39.05 L 103.25 40.55 103.45 40.9 103.35 41.55 102.8 44.1 102.05 45.4 101.95 45.4 101.9 45.5 102 45.5 101.55 46.05 101.05 46.65 100.95 46.75 99.85 48.1 98.95 49.05 97.7 49.1 95.15 49.35 Q 94.15 49.7 92.7 51.25 91.25 52.7 90.7 53.8 L 89.65 55.95 Q 89.05 56.85 87.75 57.35 L 86.35 57.4 85.9 57.15 86.3 55.75 86.75 53.7 86.65 52.95 86.15 51.7 Q 85.85 49.8 83.85 47.55 L 81.95 45.75 81.75 45.6 80.85 45.1 81 44.05 81.1 42.75 81.4 41.85 Q 82 40.4 83.65 38.3 L 84.7 37.4 86.15 37 87 36.6 87.8 36.25 Q 88.65 36.1 89.7 36.7 L 91.45 37.9 Q 92.25 38.55 93.15 38.9 L 94.3 39.25 95.2 39.4 97.2 38.95 98.5 37.95 99.5 37.05 M 81.5 52.3 L 81.35 53.15 81 54.4 80.8 55.2 80.5 56.45 80.5 56.65 Q 80.5 57.55 80.85 59.45 81.2 61.35 81 62.4 L 80.7 63.15 Q 80.4 63.55 79.35 63.65 L 77.25 63.7 75.2 63.95 Q 71.75 64.65 69.75 67.6 L 69.1 68.6 68.3 69.45 Q 67.3 70.1 65.2 69.8 L 63.7 69.55 62.35 69.05 62.3 69 62.25 68.95 60.5 67.55 59.45 66.65 58.25 65.8 58.1 65.7 57.95 65.65 57.95 65.6 57.8 64.1 57.3 60.85 57 58.1 Q 56.85 54.55 58.65 52.55 59.4 51.7 60.2 51.55 L 62.45 51.9 65.6 52.3 66.85 52 68.2 50.8 68.35 50.6 68.9 49.3 69.6 47.8 Q 70.6 46.65 73.25 46.65 L 74.35 46.8 75.4 47.3 76.35 48 77.95 48.75 78.35 48.9 78.7 49.05 80.85 51.15 81.5 52.3 M 36.8 88.95 L 38.55 88.65 39.35 88.45 40.6 88 41.65 87.75 41.9 87.7 42.65 87.8 43.9 88.3 46.05 89.45 49.9 92.25 49.95 92.3 50.5 92.2 52.4 94.3 Q 53.15 95.1 53.3 95.75 L 53.45 97.45 53.2 99.25 52.5 100.7 51.3 102.85 Q 49.95 105.15 48.8 105.75 L 46.65 106.4 45.8 106.65 43.2 104.85 40.1 103.15 40.25 102.9 38.8 102.25 38.55 102.15 38.25 102.05 36.45 101.45 34 101.15 33.8 101.15 33.4 100.75 32.55 99.6 32.35 99.45 32.3 99.2 31.4 97.3 Q 30.9 95.9 30.75 93.6 L 31.4 92.65 Q 32.95 90.2 34.35 89.55 L 36.8 88.95 M 46.95 68.6 L 48.5 68 49.25 67.85 Q 50.45 67.75 53.05 68.7 L 53.6 68.95 54.5 69.35 56.35 70.25 56.85 70.55 Q 57.45 72 58.95 73.45 L 60.4 74.95 60.7 75.3 61.5 77.45 62.1 80.35 62.2 82.85 62.6 85.5 62.65 87.4 53.2 88.7 52.9 88.4 Q 51.5 87 50.3 86.45 L 49.8 86.25 49.8 86.2 48.65 85.45 48.45 85.35 46.9 84.65 46.2 84.3 44.75 83.5 44.45 83.4 Q 43.25 82.9 42.15 82.95 L 41.9 79.85 41.6 76.5 41.7 75.4 41.95 73.8 Q 42.2 71.8 43.05 70.9 43.5 70.35 44.45 69.85 L 46.95 68.6 M 40.9 109.45 Q 42.05 110.15 42.45 110.8 L 43.05 112.85 43.3 113.65 43 114.35 40.9 116.75 39.7 117.95 38.6 119 37.2 120.45 35.75 121.85 Q 35.05 122.45 34.35 122.65 L 34.3 122.65 33.3 122.5 32.85 122.2 32.55 121.95 30 119.25 29.5 118.65 29.1 118.2 28.4 117.6 28.25 117.5 27.5 117.1 26.7 116.45 26.1 114.8 Q 25.9 114.05 24.75 112.35 L 24.75 112.3 Q 23.95 111.2 24.15 110.5 L 24.6 109.65 25.35 108.7 25.4 108.65 26.05 107.8 26.15 107.7 26.25 107.6 Q 26.9 106.75 27.55 106.35 L 28.1 106.15 28.3 106.15 29.6 106 30.8 105.6 33.45 105.35 34.2 105.45 34.3 105.5 34.3 105.55 Q 34.65 106.35 35.35 106.8 L 36.8 107.55 38.3 108.1 38.35 108.1 Q 39.4 108.5 40.9 109.45 Z"/><path fill="#ABABAB" d="M 94.7 3.9 L 88.95 5.3 Q 72.65 8.75 59.7 19.05 57.25 20.95 52.25 25.55 L 42.15 35 Q 36.8 40.45 33.2 45.35 L 27.1 54.15 26.25 54.65 26.2 54.65 21.05 62.5 Q 16.5 69.65 14.4 73.3 10.9 79.4 8.8 84.65 6.7 89.95 5.25 96.3 L 5.95 96.4 Q 5.9 100.2 4.5 103.65 L 4.05 105.05 4.05 105.3 4.2 108.2 4.1 110.4 Q 4.15 112.2 4.95 115.75 L 5.3 117.6 Q 5.5 119.55 5.8 120.05 6.25 120.7 7.8 121.4 L 8.6 121.75 9.55 122.1 9.4 120.4 8.7 117.85 Q 8.25 116.3 8.45 115.25 8.55 114.7 9.55 112.4 L 10.2 110.6 10.35 109.8 10.7 106.9 10.85 101.2 Q 11.1 94.15 13.5 87.5 15.05 83.4 17.85 78.5 L 23.15 69.95 29.8 59.8 Q 32.85 55.45 38.15 49.15 L 41.55 45.05 45.1 40.4 Q 51.4 32.6 57.85 27.4 60.9 24.55 63.95 22.25 L 65.3 21.25 Q 71.7 16.6 80.2 12.5 86.6 9.45 96.2 5.8 97.95 5.15 98 4.15 98.05 3.25 97.1 2.9 L 94.7 3.9 Z"/><path fill="#DEDEDE" d="M 34.85 108.45 L 33.4 107.65 Q 31.35 106.75 28.95 106.8 27.25 106.8 26.35 107.5 L 26.25 107.6 26.15 107.7 26.05 107.8 25.4 108.65 25.05 109.4 Q 24.6 110.55 24.6 111.65 L 24.75 112.3 24.75 112.35 Q 25.9 114.05 26.1 114.8 L 26.7 116.45 27.5 117.1 28.25 117.5 29.3 117.85 29.85 118 32.05 118.2 35.05 117.9 35.25 117.8 Q 36.3 117.3 37.25 116.2 38.1 115.2 38.3 114.1 L 38.35 113.85 Q 38.5 112.8 38.05 111.75 37.5 110.6 36.3 109.55 L 34.85 108.45 M 48.5 68 L 46.95 68.6 44.45 69.85 Q 43.5 70.35 43.05 70.9 42.2 71.8 41.95 73.8 L 41.7 75.4 Q 42.25 77.95 44.6 79.75 L 46.1 80.65 47.5 81.05 49.65 80.85 49.75 80.8 Q 50.1 78.1 51.45 76.7 52.7 75.4 54.95 75 L 55.5 74.95 55.6 74.2 55.6 73.2 Q 55.35 71.7 54.05 70.4 L 54 70.35 53.1 69.6 Q 52 68.8 50.35 68.35 L 48.5 68 M 38.55 88.65 L 36.8 88.95 34.35 89.55 Q 32.95 90.2 31.4 92.65 L 31.15 93.55 Q 30.85 95.1 31.1 95.85 31.4 96.8 32.7 97.85 L 34.55 99.2 Q 36.65 100.45 38.65 100.55 L 38.75 100.55 39.5 100.55 41.8 100 42.05 99.9 Q 43.1 98.3 44.5 96.6 L 46.05 94.9 Q 46.15 93.6 45.5 92.4 L 44.85 91.45 Q 43.95 90.35 42.35 89.7 L 41.4 89.3 41.25 89.25 38.55 88.65 M 67.75 52.7 L 66.85 52 65.6 52.3 62.45 51.9 60.2 51.55 Q 59.4 51.7 58.65 52.55 56.85 54.55 57 58.1 L 57.3 60.85 57.4 61.25 Q 58.1 63.45 59.6 64.4 L 59.85 64.55 60 64.65 60.15 64.75 60.3 64.8 60.5 64.9 63.05 65.35 65.55 65.1 Q 66.6 63.8 68.45 63.05 L 68.9 62.4 Q 69.8 60.95 70 59.15 70.15 57.7 69.85 56.4 L 69.65 55.7 Q 69 53.8 67.75 52.7 M 69.6 47.8 L 68.9 49.3 68.35 50.6 Q 68.45 51.85 68.9 52.8 69.65 54.4 71.05 55.2 71.75 55.6 72.55 55.8 74.45 56.15 75.8 55.35 77.25 54.55 78.05 52.5 78.9 50.5 78.35 48.9 L 77.95 48.75 76.35 48 75.4 47.3 74.35 46.8 73.25 46.65 Q 70.6 46.65 69.6 47.8 M 89.7 36.7 Q 88.65 36.1 87.8 36.25 L 87 36.6 86.15 37 84.7 37.4 83.65 38.3 Q 82 40.4 81.4 41.85 L 81.65 42.95 Q 82.1 44 83.45 44.95 L 83.6 45.05 Q 86.8 47.15 90.65 46.45 93.3 45.9 94.35 44.2 94.9 43.25 95.1 41.35 L 95.2 39.4 94.3 39.25 93.15 38.9 Q 92.25 38.55 91.45 37.9 L 89.7 36.7 Z"/><path fill="#C1C1C1" d="M 42.45 110.8 Q 42.05 110.15 40.9 109.45 39.4 108.5 38.35 108.1 L 38.3 108.1 36.8 107.55 35.35 106.8 Q 34.65 106.35 34.3 105.55 L 34.3 105.5 34.2 105.45 33.45 105.35 30.8 105.6 29.6 106 28.3 106.15 28.1 106.15 27.55 106.35 Q 26.9 106.75 26.25 107.6 L 26.35 107.5 Q 27.25 106.8 28.95 106.8 31.35 106.75 33.4 107.65 L 34.85 108.45 36.3 109.55 Q 37.5 110.6 38.05 111.75 38.5 112.8 38.35 113.85 L 38.3 114.1 Q 38.1 115.2 37.25 116.2 36.3 117.3 35.25 117.8 L 35.05 117.9 32.05 118.2 29.85 118 29.3 117.85 28.25 117.5 28.4 117.6 29.1 118.2 29.5 118.65 30 119.25 32.55 121.95 32.85 122.2 33.3 122.5 34.3 122.65 34.35 122.65 Q 35.05 122.45 35.75 121.85 L 37.2 120.45 38.6 119 39.7 117.95 40.9 116.75 43 114.35 43.3 113.65 43.05 112.85 42.45 110.8 M 48.5 68 L 50.35 68.35 Q 52 68.8 53.1 69.6 L 54 70.35 54.05 70.4 Q 55.35 71.7 55.6 73.2 L 55.6 74.2 55.5 74.95 54.95 75 Q 52.7 75.4 51.45 76.7 50.1 78.1 49.75 80.8 L 49.65 80.85 47.5 81.05 46.1 80.65 44.6 79.75 Q 42.25 77.95 41.7 75.4 L 41.6 76.5 41.9 79.85 42.15 82.95 Q 43.25 82.9 44.45 83.4 L 44.75 83.5 46.2 84.3 46.9 84.65 48.45 85.35 48.65 85.45 49.8 86.2 49.8 86.25 50.3 86.45 Q 51.5 87 52.9 88.4 L 53.2 88.7 62.65 87.4 62.6 85.5 62.2 82.85 62.1 80.35 61.5 77.45 60.7 75.3 60.4 74.95 58.95 73.45 Q 57.45 72 56.85 70.55 L 56.35 70.25 54.5 69.35 53.6 68.95 53.05 68.7 Q 50.45 67.75 49.25 67.85 L 48.5 68 M 39.35 88.45 L 38.55 88.65 41.25 89.25 41.4 89.3 42.35 89.7 Q 43.95 90.35 44.85 91.45 L 45.5 92.4 Q 46.15 93.6 46.05 94.9 L 44.5 96.6 Q 43.1 98.3 42.05 99.9 L 41.8 100 39.5 100.55 38.75 100.55 38.65 100.55 Q 36.65 100.45 34.55 99.2 L 32.7 97.85 Q 31.4 96.8 31.1 95.85 30.85 95.1 31.15 93.55 L 31.4 92.65 30.75 93.6 Q 30.9 95.9 31.4 97.3 L 32.3 99.2 32.35 99.45 32.55 99.6 33.4 100.75 33.8 101.15 34 101.15 36.45 101.45 38.25 102.05 38.55 102.15 38.8 102.25 40.25 102.9 40.1 103.15 43.2 104.85 45.8 106.65 46.65 106.4 48.8 105.75 Q 49.95 105.15 51.3 102.85 L 52.5 100.7 53.2 99.25 53.45 97.45 53.3 95.75 Q 53.15 95.1 52.4 94.3 L 50.5 92.2 49.95 92.3 49.9 92.25 46.05 89.45 43.9 88.3 42.65 87.8 41.9 87.7 41.65 87.75 40.6 88 39.35 88.45 M 81.35 53.15 L 81.5 52.3 80.85 51.15 78.7 49.05 78.35 48.9 Q 78.9 50.5 78.05 52.5 77.25 54.55 75.8 55.35 74.45 56.15 72.55 55.8 71.75 55.6 71.05 55.2 69.65 54.4 68.9 52.8 68.45 51.85 68.35 50.6 L 68.2 50.8 66.85 52 67.75 52.7 Q 69 53.8 69.65 55.7 L 69.85 56.4 Q 70.15 57.7 70 59.15 69.8 60.95 68.9 62.4 L 68.45 63.05 Q 66.6 63.8 65.55 65.1 L 63.05 65.35 60.5 64.9 60.3 64.8 60.15 64.75 60 64.65 59.85 64.55 59.6 64.4 Q 58.1 63.45 57.4 61.25 L 57.3 60.85 57.8 64.1 57.95 65.6 57.95 65.65 58.1 65.7 58.25 65.8 59.45 66.65 60.5 67.55 62.25 68.95 62.3 69 62.35 69.05 63.7 69.55 65.2 69.8 Q 67.3 70.1 68.3 69.45 L 69.1 68.6 69.75 67.6 Q 71.75 64.65 75.2 63.95 L 77.25 63.7 79.35 63.65 Q 80.4 63.55 80.7 63.15 L 81 62.4 Q 81.2 61.35 80.85 59.45 80.5 57.55 80.5 56.65 L 80.5 56.45 80.8 55.2 81 54.4 81.35 53.15 M 99.75 36.85 L 99.5 37.05 98.5 37.95 97.2 38.95 95.2 39.4 95.1 41.35 Q 94.9 43.25 94.35 44.2 93.3 45.9 90.65 46.45 86.8 47.15 83.6 45.05 L 83.45 44.95 Q 82.1 44 81.65 42.95 L 81.4 41.85 81.1 42.75 81 44.05 80.85 45.1 81.75 45.6 81.95 45.75 83.85 47.55 Q 85.85 49.8 86.15 51.7 L 86.65 52.95 86.75 53.7 86.3 55.75 85.9 57.15 86.35 57.4 87.75 57.35 Q 89.05 56.85 89.65 55.95 L 90.7 53.8 Q 91.25 52.7 92.7 51.25 94.15 49.7 95.15 49.35 L 97.7 49.1 98.95 49.05 99.85 48.1 100.95 46.75 101.05 46.65 101.55 46.05 102 45.5 101.9 45.5 101.95 45.4 102.05 45.4 102.8 44.1 103.35 41.55 103.45 40.9 103.25 40.55 102.55 39.05 Q 101.9 37.95 100.1 37.05 L 99.75 36.85 Z"/><path fill="#757575" d="M 105.75 21.5 L 105.5 20.25 Q 103.2 20.6 100.25 22.75 L 94.9 26.35 Q 92.95 27.25 89.7 27.6 L 84.35 28.15 Q 77.45 29.25 72.45 34 L 68.6 38.1 Q 66.3 40.5 64.25 41.5 L 61.3 42.55 58.3 43.4 Q 55.8 44.3 53.5 46 52.2 47.4 50.65 49.6 L 47.6 53.9 44.15 58.05 40.6 62.15 Q 38.35 64.85 34.1 71.6 L 28.15 81.1 Q 24.75 86.55 23.7 89.45 22.9 91.55 22.25 94.65 L 21.25 100 Q 19.8 107.45 16.7 114.95 L 15.55 116.65 15.45 116.75 15.45 116.8 15.7 117.1 18.9 117.5 20.9 117.2 21.85 117.05 21.6 116.2 20.9 114.8 20.3 113.4 20.2 112.25 20.1 111.05 Q 19.85 109.8 20 109.2 20.1 108.8 20.5 108.3 L 21.1 107.6 Q 21.75 106.35 22.25 105.8 22.65 105.4 23.4 104.95 L 24.75 104.25 26.65 103.05 26.7 103.05 Q 27.1 102.1 28.8 101.65 L 28.05 99.85 27.2 96.85 26.65 93.7 Q 26.35 92.3 26.5 91.8 L 27.15 90.55 Q 28.8 88.3 29.85 87.35 31.5 85.65 33.25 85 L 35.55 84.5 37.85 84 38.5 83.85 38.45 83.2 38.25 80.4 37.65 77.6 Q 37.25 75.9 37.25 74.8 L 37.5 72.55 Q 37.8 69.9 38.6 68.6 39.8 66.65 43.65 64.85 46.2 63.65 47.95 63.25 50.4 62.65 52.35 63.25 L 54.1 63.9 53.45 60 Q 52.8 55.5 53.45 52.95 54.25 50.15 56.45 48.25 59.4 45.8 62.15 47 L 63.3 47.45 Q 63.95 47.7 64.4 47.45 L 65.05 46.75 65.35 45.8 Q 65.9 44.2 67.6 43.25 68.75 42.6 70.95 42.15 73.6 41.65 75.3 42.2 76 42.4 76.9 42.95 77.2 38.6 80.05 35.25 L 82.05 33.35 84.5 32.15 Q 87.05 31.05 88.65 31.2 89.95 31.35 91.35 32.05 L 93.9 33.6 Q 94.5 34.1 95 34.05 L 96.1 33.4 Q 98.2 31.65 100.95 32.25 101.8 32.5 102.85 33.05 L 104.9 34.55 105.95 35.65 106.15 35.5 107.25 34.25 108.15 33.3 108.9 32.25 109.2 31.1 109.7 30.2 Q 109.6 29.35 109.75 28.9 L 110.05 28.05 109.7 27.15 107.8 24.6 Q 106.1 22.4 105.75 21.5 Z"/><path fill="#606060" d="M 104.7 15.15 L 101.3 15.15 99.3 15.2 Q 93.8 15.4 89.4 16.7 85.4 17.8 80.75 20.15 78.05 21.55 72.6 24.7 64.5 29.55 60.85 32.45 L 60.75 32.55 60.6 32.65 60.45 32.8 60.35 32.9 53.15 39.95 52.8 40.4 52.25 41 52.05 41.2 51.9 41.35 Q 45.9 48.15 39.45 57.6 35.7 63 28.3 74.7 23 83.05 21 87.8 19.3 91.75 16.5 103.05 L 15.1 108.2 15.1 108.25 Q 14.9 109.5 15.05 110.4 L 15.3 112.4 14.95 114.6 Q 14.85 115.75 15.45 116.75 L 15.55 116.65 16.7 114.95 Q 19.8 107.45 21.25 100 L 22.25 94.65 Q 22.9 91.55 23.7 89.45 24.75 86.55 28.15 81.1 L 34.1 71.6 Q 38.35 64.85 40.6 62.15 L 44.15 58.05 47.6 53.9 50.65 49.6 Q 52.2 47.4 53.5 46 55.8 44.3 58.3 43.4 L 61.3 42.55 64.25 41.5 Q 66.3 40.5 68.6 38.1 L 72.45 34 Q 77.45 29.25 84.35 28.15 L 89.7 27.6 Q 92.95 27.25 94.9 26.35 L 100.25 22.75 Q 103.2 20.6 105.5 20.25 L 105.3 18.9 105.1 17.5 104.8 15.85 104.7 15.15 Z"/><path fill="#525252" d="M 124.85 24.2 L 122.3 20.9 Q 120.75 19.05 119.25 18.1 117.35 16.75 114.55 16.1 L 109.35 15.35 109.15 15.4 109.1 15.75 Q 109 17.25 109.3 18.55 L 109.45 19.15 109.65 19.7 109.85 20.15 110.7 21.6 112 23.25 113.5 25.05 Q 114.1 26 114.25 27.35 L 114.5 27.3 117.45 27.55 Q 119.3 28 120.6 28.9 122.1 29.85 123.05 31.45 123.9 32.8 124.15 34.2 L 124.2 34.75 124.25 36.25 124.2 37.65 124.1 39.35 122.95 42.1 122.9 42.15 Q 121.65 46.55 119.7 50.45 121.45 48.75 122.6 47.1 L 124.35 44.2 125.7 41.95 Q 126.4 39.75 127.25 37.7 L 127.8 36.1 127.95 35.6 Q 128.95 32 128.05 29.25 L 126.65 26.65 124.85 24.2 Z"/></g><g id="Symbol_1607_0_Layer0_0_FILL"><path d="M 79 110.65 Q 80.5 107.7 80.85 104.6 78.8 104.45 77.25 106.7 76.45 107.8 75.8 109.45 L 74.65 113.25 74.4 114.45 Q 74.4 115.15 74.75 116.4 L 75 117.95 Q 75.35 118.85 76.15 118.9 76.65 118.95 77.05 118.5 L 77.4 117.55 77.35 116.45 77.3 115.4 Q 77.3 114.7 77.6 113.7 L 78.15 112.25 79 110.65 M 89.95 71.4 Q 89.15 71.75 88.6 72.9 88.1 73.75 87.8 75.15 L 87.3 77.5 Q 86.9 79.4 86 81.4 83.75 86.5 76.9 92.45 74.2 94.75 73.05 96.1 70.6 99.1 69.45 104.1 L 67.9 113.05 67.6 115.5 Q 67.65 116.85 68.25 117.85 L 68.4 118.05 Q 70.25 117.05 71.05 114.3 L 71.1 114.1 71.5 112 71.9 109.7 Q 72.55 106.65 74.5 102.65 75.7 100.3 76.55 99.2 77.4 98.2 79.2 96.75 L 81.95 94.35 84.7 91.15 86.2 89.5 87.7 87.8 Q 89.2 85.85 90.45 82.2 91.7 78.1 92.4 74.15 L 92.45 72.5 92 71.7 91.5 71.35 89.95 71.4 M 82.45 9.5 Q 81.65 10.75 81.75 11.75 81.8 12.6 82.5 13.7 L 83.95 15.5 87.35 16.05 Q 90.15 16.7 92.05 18.05 93.55 19 95.1 20.85 L 97.65 24.15 99.45 26.6 100.85 29.2 Q 101.75 31.95 100.75 35.55 99.2 41.3 92.8 48.15 L 92.6 48 93.2 47.2 94.35 45.35 95.35 43.8 96.05 42.25 96.9 39.3 97 37.6 97 34.7 Q 96.85 33 95.85 31.4 94.9 29.8 93.4 28.85 92.1 27.95 90.25 27.5 L 89.25 27.3 Q 89.8 30.25 89.75 32.5 L 89.6 34.5 90 37.3 Q 90.4 40.2 90.3 41.85 90.1 44.4 88.9 45.95 87.6 47.65 85.35 48.2 L 81 47.95 78.95 47 76.85 46.35 Q 75.65 46.15 72.95 47 70.1 47.9 68.65 48.6 66.3 49.75 65.05 51.4 L 63.4 54 62 55.55 61.95 55.7 61.85 55.65 61.25 55.95 58.85 56.25 56.4 56.4 Q 54.6 56.85 52.9 59.3 L 49.9 63.2 Q 48.75 64.25 46.75 65 L 43.2 66.15 Q 38.6 67.75 37.85 70.8 L 37.6 72.5 37.15 74.15 Q 36.5 75.3 34.85 75.75 L 31.8 76.1 Q 26.25 76.2 24.5 79.1 23.45 80.85 23.75 84.8 L 24.35 91.85 24.4 92.4 24.15 92 Q 23.95 91.95 24.25 94.15 L 23.85 95.05 Q 23.35 95.7 22.2 96.1 L 20.25 96.75 Q 18.25 97.45 16.6 99.5 15.45 100.85 14 103.5 12.45 106.35 11.95 108.1 11.2 110.75 12.05 112.8 L 13.6 115.4 Q 14.45 117 14.2 118.15 L 14.2 118.25 14.3 118.45 14.1 118.5 Q 13.8 119.3 12.9 120.05 L 10.9 121.45 Q 8.8 123 6.85 126.65 L 5.55 129.05 4.9 130.5 Q 4.3 131.85 4.3 132.5 L 5 134.65 5.8 137.4 Q 6.35 139.15 7.6 141.6 8.95 144.35 10.1 145.4 12.25 147.55 15.25 147.35 L 17.9 146.65 20.4 145.7 20.6 146.15 Q 21.05 147.1 22.95 147.85 32.4 151.25 37.55 151.9 L 47.45 151.55 Q 47.9 152.4 49.1 153.5 51.2 155.45 52.9 155.95 L 55.7 156.15 58.45 155.75 60.95 155.05 63.85 153.15 Q 65.7 151.3 66.35 149.5 L 66.4 149.45 Q 66.85 147.35 67.25 146.2 68.35 143.95 68.55 142.75 L 68.4 139.95 67.45 133.05 Q 67.25 130.05 67.4 127.9 L 67.25 128 Q 66.2 128.5 65.55 129.45 L 65.45 129.6 Q 64.8 130.6 64.6 131.75 L 64.5 133.4 64.1 134.7 63.65 136.1 Q 63.6 137.05 64.1 138.9 64.35 140.7 63.3 143.1 L 62.5 144.8 62 146.8 61.2 148.6 Q 60.6 149.35 58.8 150.15 L 56.55 150.95 Q 54.9 151.3 53.75 150.95 L 53.15 150.65 52.3 150.1 52.05 149.9 52.15 149.9 Q 55.05 148.3 55.95 146.15 56.4 145.2 56.5 143.95 L 56.55 141.6 Q 56.45 136.6 56.9 132.3 58.1 119.45 63.55 105 66.4 97.65 69.15 93.5 L 72.75 88.55 76.15 83.4 Q 77.45 80.9 79.4 75.15 81.25 69.65 82.75 67 85.35 62.45 91.35 57.35 L 95.65 53.6 Q 98.15 51.45 99.65 49.5 101.7 46.85 104.15 41.75 L 106.05 37.6 106.45 36.45 Q 107.5 33.35 107.25 30.8 107.05 28.05 105.4 25.1 L 104.95 24.35 Q 103.7 22.25 100.7 18.75 L 97.25 14.95 Q 95.25 13 93.25 11.9 91.8 11.1 89.8 10.55 86.9 9.75 82.95 9.5 L 82.45 9.5 M 84.6 55.3 L 84.05 52.7 84.45 52.35 86.15 51 Q 87.1 50.45 88.15 50.4 89.2 50.35 90.05 50.85 L 84.7 56.1 84.6 55.3 M 27.9 84.65 L 28.3 81.6 28.55 80.2 28.6 80.2 Q 33.6 79.3 38.4 80.15 L 42.25 80.55 43.05 80.5 43.8 80.6 Q 44.35 80.75 44.9 81.55 45.75 82.7 46.5 84.9 L 46.6 85.2 48.05 89 49.3 91.25 Q 49.95 92.45 50.05 93.55 50.1 94.85 49 97.2 47.95 99.6 48.05 100.95 L 37.95 99.85 36.9 99.7 35.7 98.1 Q 33.45 95.55 30.4 94.85 L 30.05 94.2 29.45 92.05 28.7 90 27.95 87.95 27.85 87.1 27.9 84.65 M 78.5 53.25 L 79.4 54.65 79.9 56.35 80.1 58.15 80.1 59.3 79.5 60.15 Q 78.35 61.05 77.3 62.05 L 74.8 64.1 72.2 64.45 69.95 64.6 69.3 63.05 68.65 61.85 Q 67.85 60.45 66.7 59.35 L 65.15 57.95 65 57.85 65.15 57.75 66.1 56.55 66.35 55.35 66.55 54.9 66.9 54.4 67.35 53.85 70.5 50.8 70.65 50.7 Q 71.4 50.15 71.9 50.1 L 73.05 50.2 76.1 50.75 Q 77.35 51.05 77.85 51.6 L 78.5 53.25 M 65.8 67.5 Q 66.6 69.45 65.95 70.6 L 65.1 71.65 62.65 73.95 Q 60.75 75.75 60.25 77.05 L 59.9 79 Q 59.4 81.15 57.85 82.8 56.2 84.45 54 84.95 L 51.85 85.4 51.75 85.45 51.15 83.75 Q 50.35 81.2 48.8 78.95 L 47.55 77.4 Q 46.25 76.15 44.85 75.7 L 42.9 75.4 41.85 75.45 41.65 75.45 41.65 75.3 Q 41.4 73.6 41.8 72.25 42.25 70.6 43.5 69.8 44.7 69.1 47.8 69.2 50.65 69.3 51.85 68.45 52.6 67.9 53.7 65.9 55.55 62.4 58.35 59.4 L 60.7 60.8 Q 64.2 63.3 65.8 67.5 M 71.15 72.4 L 71.1 69.65 71.05 69.2 72.35 69.2 75.45 69 74.1 72.35 71.15 79.75 68.4 84.5 65.5 89.05 Q 58.4 100.2 54.7 113 50.9 125.85 50.8 139.2 50.8 142.6 49.75 144.05 48.85 145.35 46.4 146 L 37 146.35 Q 33.1 145.65 28.1 143.65 L 29.3 143.35 30.55 142.95 Q 32.9 142.25 37.3 140.1 39.5 139.15 39.85 137.85 L 39.9 136.85 39.85 136.6 39.6 135.3 39.45 133.55 39.2 131.85 37.9 129.45 35.9 126.95 34.55 125.75 34.25 125.5 33.3 124.95 34.15 124.85 34.65 124.8 Q 38.9 124.15 42.3 122.95 L 43.9 122.35 44.8 121.75 Q 46.2 120.7 46.15 119.1 L 45.7 117.3 44.35 113.95 44.25 113.7 40.6 106.6 39.75 104.9 39.55 104.5 39.95 104.6 40.5 104.65 42.9 104.85 45.2 105.2 45.8 105.3 47.2 105.75 49.15 106.25 51.15 105.95 51.8 105.6 52.45 104.6 52.55 103.6 52.55 102.65 Q 52.6 101.35 53.55 99.15 L 54.65 95.8 54.45 93.55 54.1 91.4 53.95 90 53.9 89.75 55.15 89.55 Q 57.95 88.95 60.35 87.2 63.75 84.75 64.75 81.1 L 65.35 78.85 Q 66 77.35 67.65 75.95 L 69.7 74.45 Q 70.85 73.45 71.15 72.4 M 31.75 101.05 Q 32.5 101.75 33.3 103.25 L 34.3 105.05 37.9 111.55 39.45 114.7 Q 40.4 116.85 41.25 118.2 L 35.4 120 Q 32.2 121 30.4 120.95 L 26.9 120.85 25.7 120.95 25.05 120.25 Q 24.4 119.15 23.1 118.6 21 118.05 20.15 117.35 L 19.15 116.3 18.4 115.05 16.9 111.95 16.35 110.6 Q 16.25 109.8 16.45 108.9 L 17.55 106.9 18.7 104.5 Q 19.75 102.5 22.4 99.75 L 23.1 99.25 24.2 99.4 25.75 99.6 27.3 99.5 29.1 99.7 Q 30.7 100 31.75 101.05 M 16.2 123.4 L 17 123.55 18.3 124 19.2 124.2 20.2 124.35 Q 21.05 124.45 22.6 125.25 L 24.4 125.9 Q 25.2 126.3 26.55 127.25 L 28.6 128.1 Q 30 128.55 30.65 128.95 32.2 129.9 33.9 132.65 35 134.4 34.4 135.35 L 33.25 136.1 30.85 137.15 25.55 138.85 20.05 140.25 18.5 140.75 16.6 141.4 15.45 141.85 Q 14.75 142.05 14.25 141.85 13.55 141.65 13 140.35 L 11 136.05 Q 10.1 134.2 10.15 133.2 10.2 132.7 10.6 131.5 12.45 126.45 14.35 124.45 L 15.25 123.75 16.2 123.4 M 118.3 22.5 Q 117.65 16.95 113.75 11.7 110.5 7.4 105.4 3.65 L 105.05 3.4 Q 100 -0.3 96.1 0.05 94.7 0.15 94.15 0.95 93.75 1.55 93.95 2.4 94.2 3.15 94.8 3.7 L 97.6 4.95 Q 105.3 7.65 110.95 16.25 113.05 19.5 113.45 21.9 L 113.6 25.35 Q 113.7 27.9 114.55 32.95 115 37.5 113.6 40.35 112.85 41.9 110.4 44.45 105.95 49.3 97.85 60.85 96.7 62.4 97.3 63.25 L 97.85 63.75 98.65 63.85 98.8 63.8 Q 99.7 63.7 100.55 63.05 103.5 60.9 107.05 56.25 L 112.95 48.9 116.15 45.4 Q 117.9 43.35 118.65 41.5 119.75 38.8 119.4 34.6 L 118.6 27.3 118.3 22.5 Z"/><path fill="#C1C1C1" d="M 14.3 118.45 L 14.2 118.25 14.1 118.5 14.3 118.45 M 62 55.55 L 61.85 55.65 61.95 55.7 62 55.55 Z"/><path fill="#757575" d="M 67.3 127.4 L 67.25 127.4 Q 66.35 127.5 65.9 128.2 65.6 128.7 65.45 129.6 L 65.55 129.45 Q 66.2 128.5 67.25 128 L 67.4 127.9 Q 67.25 130.05 67.45 133.05 L 68.4 139.95 68.55 142.75 Q 68.35 143.95 67.25 146.2 66.85 147.35 66.4 149.45 L 67.35 148.65 Q 69.4 146.6 70.1 144.6 70.7 142.9 70.65 140.7 L 70.15 136.65 68.95 128.9 68.65 127.9 Q 68.2 127.25 67.3 127.4 M 71.1 69.65 L 71.15 72.4 Q 70.85 73.45 69.7 74.45 L 67.65 75.95 Q 66 77.35 65.35 78.85 L 64.75 81.1 Q 63.75 84.75 60.35 87.2 57.95 88.95 55.15 89.55 L 56.25 92.6 Q 56.95 95.15 56.75 97.25 56.5 100.1 54.4 103.5 53.75 104.65 53.05 105.1 52.4 105.55 51.8 105.6 L 51.15 105.95 49.15 106.25 47.2 105.75 45.8 105.3 Q 46.35 107.65 46.35 110.8 46.25 112.55 45.65 113.1 45.1 113.65 44.25 113.7 L 44.35 113.95 45.7 117.3 46.15 119.1 Q 46.2 120.7 44.8 121.75 L 43.9 122.35 43 123.65 39.1 127.2 40.1 131.35 Q 40.8 133.3 41.2 137.35 41.4 139.25 41 140.3 40.4 141.95 38.2 143.05 35.1 144.7 32.2 144.65 30.8 144.55 30.1 144.1 L 29.3 143.35 28.1 143.65 Q 33.1 145.65 37 146.35 L 46.4 146 Q 48.85 145.35 49.75 144.05 50.8 142.6 50.8 139.2 50.9 125.85 54.7 113 58.4 100.2 65.5 89.05 L 68.4 84.5 71.15 79.75 74.1 72.35 75.45 69 72.35 69.2 71.05 69.2 71.1 69.65 M 123 32.05 Q 123.3 24.75 121.6 20.25 119.9 15.65 115.45 11.3 112.6 8.5 106.75 4.3 106 3.75 105.4 3.65 110.5 7.4 113.75 11.7 117.65 16.95 118.3 22.5 L 118.6 27.3 119.4 34.6 Q 119.75 38.8 118.65 41.5 117.9 43.35 116.15 45.4 L 112.95 48.9 107.05 56.25 Q 103.5 60.9 100.55 63.05 99.7 63.7 98.8 63.8 L 98.65 63.85 97.85 63.75 94.2 67.55 Q 92.6 69.45 91.5 71.35 L 92 71.7 92.45 72.5 92.4 74.15 Q 91.7 78.1 90.45 82.2 89.2 85.85 87.7 87.8 L 86.2 89.5 84.7 91.15 81.95 94.35 79.2 96.75 Q 77.4 98.2 76.55 99.2 75.7 100.3 74.5 102.65 72.55 106.65 71.9 109.7 L 71.5 112 71.1 114.1 71.95 116 Q 73.05 114.25 74.4 110.95 L 76.65 105.75 Q 78.5 102.25 85.35 94.75 91.4 88.1 93 83.3 L 94 79.45 Q 94.55 77.1 95.2 75.7 96.2 73.45 98.35 71.05 L 102.35 67 113.5 54.85 117.4 50.05 Q 119.45 47.3 120.55 44.8 122.75 40.05 123 32.05 Z"/><path fill="#9B9B9B" d="M 108.8 26.7 L 108.8 26.75 Q 109.15 29.2 109.05 32.85 108.95 39.55 107.55 43.6 105.8 48.6 100.6 54.15 L 91.45 63.4 91.05 63.9 85.2 71.8 84.4 73 Q 82.05 76.75 78.45 83.4 71.4 96.55 66.25 106.8 62.65 114 61.5 118.15 60.35 122.5 59.95 131.6 L 59.6 140.55 Q 59.45 144.15 58.95 146.2 58.25 149.2 56.55 150.95 L 58.8 150.15 Q 60.6 149.35 61.2 148.6 L 62 146.8 62.5 144.8 63.3 143.1 Q 64.35 140.7 64.1 138.9 63.6 137.05 63.65 136.1 L 64.1 134.7 64.5 133.4 64.6 131.75 Q 64.8 130.6 65.45 129.6 65.6 128.7 65.9 128.2 66.35 127.5 67.25 127.4 L 67.3 127.4 67.45 125.75 68.25 117.85 Q 67.65 116.85 67.6 115.5 L 67.9 113.05 69.45 104.1 Q 70.6 99.1 73.05 96.1 74.2 94.75 76.9 92.45 83.75 86.5 86 81.4 86.9 79.4 87.3 77.5 L 87.8 75.15 Q 88.1 73.75 88.6 72.9 89.15 71.75 89.95 71.4 L 91.5 71.35 Q 92.6 69.45 94.2 67.55 L 97.85 63.75 97.3 63.25 Q 96.7 62.4 97.85 60.85 105.95 49.3 110.4 44.45 L 111.2 41.3 Q 112.1 36.35 110.9 31.7 110.15 28.9 108.8 26.7 Z"/><path fill="#525252" d="M 87.35 16.05 L 83.95 15.5 84 15.55 85.55 17.4 Q 87.2 19.65 88.4 23.85 L 89.25 27.3 90.25 27.5 Q 92.1 27.95 93.4 28.85 94.9 29.8 95.85 31.4 96.85 33 97 34.7 L 97 37.6 96.9 39.3 96.05 42.25 95.35 43.8 94.35 45.35 93.2 47.2 92.6 48 92.8 48.15 Q 99.2 41.3 100.75 35.55 101.75 31.95 100.85 29.2 L 99.45 26.6 97.65 24.15 95.1 20.85 Q 93.55 19 92.05 18.05 90.15 16.7 87.35 16.05 M 84.05 52.7 L 84.6 55.3 84.7 56.1 90.05 50.85 Q 89.2 50.35 88.15 50.4 87.1 50.45 86.15 51 L 84.45 52.35 84.05 52.7 Z"/><path fill="#ABABAB" d="M 90.35 10.35 L 89.8 10.55 Q 91.8 11.1 93.25 11.9 95.25 13 97.25 14.95 L 100.7 18.75 Q 103.7 22.25 104.95 24.35 L 105.4 25.1 Q 107.05 28.05 107.25 30.8 107.5 33.35 106.45 36.45 L 106.05 37.6 104.15 41.75 Q 101.7 46.85 99.65 49.5 98.15 51.45 95.65 53.6 L 91.35 57.35 Q 85.35 62.45 82.75 67 81.25 69.65 79.4 75.15 77.45 80.9 76.15 83.4 L 72.75 88.55 69.15 93.5 Q 66.4 97.65 63.55 105 58.1 119.45 56.9 132.3 56.45 136.6 56.55 141.6 L 56.5 143.95 Q 56.4 145.2 55.95 146.15 55.05 148.3 52.15 149.9 L 52.05 149.9 52.3 150.1 53.15 150.65 53.75 150.95 Q 54.9 151.3 56.55 150.95 58.25 149.2 58.95 146.2 59.45 144.15 59.6 140.55 L 59.95 131.6 Q 60.35 122.5 61.5 118.15 62.65 114 66.25 106.8 71.4 96.55 78.45 83.4 82.05 76.75 84.4 73 L 85.2 71.8 91.05 63.9 91.45 63.4 100.6 54.15 Q 105.8 48.6 107.55 43.6 108.95 39.55 109.05 32.85 109.15 29.2 108.8 26.75 L 108.8 26.7 Q 108.35 23.4 107 21 104.95 17.35 99.3 13.65 95.8 11.35 93 10.45 L 90.35 10.35 M 43.9 122.35 L 42.3 122.95 Q 38.9 124.15 34.65 124.8 L 34.25 125.5 34.55 125.75 35.9 126.95 37.9 129.45 39.2 131.85 39.45 133.55 39.6 135.3 39.85 136.6 39.9 136.85 39.85 137.85 Q 39.5 139.15 37.3 140.1 32.9 142.25 30.55 142.95 L 29.3 143.35 30.1 144.1 Q 30.8 144.55 32.2 144.65 35.1 144.7 38.2 143.05 40.4 141.95 41 140.3 41.4 139.25 41.2 137.35 40.8 133.3 40.1 131.35 L 39.1 127.2 43 123.65 43.9 122.35 M 42.9 104.85 L 40.5 104.65 39.95 104.6 39.75 104.9 40.6 106.6 44.25 113.7 Q 45.1 113.65 45.65 113.1 46.25 112.55 46.35 110.8 46.35 107.65 45.8 105.3 L 45.2 105.2 42.9 104.85 M 54.45 93.55 L 54.65 95.8 53.55 99.15 Q 52.6 101.35 52.55 102.65 L 52.55 103.6 52.45 104.6 51.8 105.6 Q 52.4 105.55 53.05 105.1 53.75 104.65 54.4 103.5 56.5 100.1 56.75 97.25 56.95 95.15 56.25 92.6 L 55.15 89.55 53.9 89.75 53.95 90 54.1 91.4 54.45 93.55 Z"/><path fill="#DEDEDE" d="M 20.2 124.35 L 19.2 124.2 20.75 124.95 Q 21.85 125.5 22.4 126.1 23.8 127.5 23.8 130.75 23.8 133.95 22.8 136.2 21.65 139.1 19.2 140.35 L 18.5 140.75 20.05 140.25 25.55 138.85 30.85 137.15 33.25 136.1 34.4 135.35 Q 35 134.4 33.9 132.65 32.2 129.9 30.65 128.95 30 128.55 28.6 128.1 L 26.55 127.25 Q 25.2 126.3 24.4 125.9 L 22.6 125.25 Q 21.05 124.45 20.2 124.35 M 33.3 103.25 Q 32.5 101.75 31.75 101.05 30.7 100 29.1 99.7 L 29.75 100.25 Q 30.95 101.5 31.15 103.05 31.35 104.45 30.6 106.45 28.75 111.5 24.35 114.65 21.7 116.55 19.6 116.35 L 19.15 116.3 20.15 117.35 Q 21 118.05 23.1 118.6 24.4 119.15 25.05 120.25 L 25.7 120.95 26.9 120.85 30.4 120.95 Q 32.2 121 35.4 120 L 41.25 118.2 Q 40.4 116.85 39.45 114.7 L 37.9 111.55 34.3 105.05 33.3 103.25 M 65.95 70.6 Q 66.6 69.45 65.8 67.5 64.2 63.3 60.7 60.8 L 60.7 60.95 Q 60.85 61.9 60.45 62.8 L 59.95 63.8 59.75 65.25 59 67.25 Q 57.8 69.95 56.6 71.05 L 55.75 72 55.4 73.15 Q 55.15 74.05 53.7 75.2 51.75 76.75 50.4 77.2 L 47.55 77.4 48.8 78.95 Q 50.35 81.2 51.15 83.75 L 51.75 85.45 51.85 85.4 54 84.95 Q 56.2 84.45 57.85 82.8 59.4 81.15 59.9 79 L 60.25 77.05 Q 60.75 75.75 62.65 73.95 L 65.1 71.65 65.95 70.6 M 79.4 54.65 L 78.5 53.25 77.85 51.6 Q 77.35 51.05 76.1 50.75 L 73.05 50.2 71.9 50.1 Q 71.4 50.15 70.65 50.7 L 71.1 50.7 Q 73.1 50.8 73.95 51.75 74.6 52.5 74.7 54.5 74.9 57 74.3 58.2 L 73.05 59.8 Q 70.9 62 68.95 61.85 L 68.65 61.85 69.3 63.05 69.95 64.6 72.2 64.45 74.8 64.1 77.3 62.05 Q 78.35 61.05 79.5 60.15 L 80.1 59.3 80.1 58.15 79.9 56.35 79.4 54.65 M 28.7 90 L 29.45 92.05 30.05 94.2 30.4 94.85 Q 33.45 95.55 35.7 98.1 L 36.9 99.7 37.95 99.85 48.05 100.95 Q 47.95 99.6 49 97.2 50.1 94.85 50.05 93.55 49.95 92.45 49.3 91.25 L 48.05 89 46.6 85.2 46.5 84.9 46.45 85.55 Q 45.75 90.3 42.6 92.55 L 40.7 93.65 39.3 94.15 36.95 94.35 33.95 94 32.35 93.2 Q 30.35 92.1 29.55 91.25 28.65 90.2 28.25 88.65 L 27.85 87.1 27.95 87.95 28.7 90 Z"/><path fill="#FFF" d="M 17 123.55 L 16.65 123.5 15.25 123.75 14.35 124.45 Q 12.45 126.45 10.6 131.5 10.2 132.7 10.15 133.2 10.1 134.2 11 136.05 L 13 140.35 Q 13.55 141.65 14.25 141.85 14.75 142.05 15.45 141.85 L 16.6 141.4 18.5 140.75 19.2 140.35 Q 21.65 139.1 22.8 136.2 23.8 133.95 23.8 130.75 23.8 127.5 22.4 126.1 21.85 125.5 20.75 124.95 L 19.2 124.2 18.3 124 17 123.55 M 30.6 106.45 Q 31.35 104.45 31.15 103.05 30.95 101.5 29.75 100.25 L 29.1 99.7 27.3 99.5 25.75 99.6 24.2 99.4 23.1 99.25 22.4 99.75 Q 19.75 102.5 18.7 104.5 L 17.55 106.9 16.45 108.9 Q 16.25 109.8 16.35 110.6 L 16.9 111.95 18.4 115.05 19.15 116.3 19.6 116.35 Q 21.7 116.55 24.35 114.65 28.75 111.5 30.6 106.45 M 60.7 60.8 L 58.35 59.4 Q 55.55 62.4 53.7 65.9 52.6 67.9 51.85 68.45 50.65 69.3 47.8 69.2 44.7 69.1 43.5 69.8 42.25 70.6 41.8 72.25 41.4 73.6 41.65 75.3 L 41.85 75.45 42.9 75.4 44.85 75.7 Q 46.25 76.15 47.55 77.4 L 50.4 77.2 Q 51.75 76.75 53.7 75.2 55.15 74.05 55.4 73.15 L 55.75 72 56.6 71.05 Q 57.8 69.95 59 67.25 L 59.75 65.25 59.95 63.8 60.45 62.8 Q 60.85 61.9 60.7 60.95 L 60.7 60.8 M 74.7 54.5 Q 74.6 52.5 73.95 51.75 73.1 50.8 71.1 50.7 L 70.65 50.7 70.5 50.8 67.35 53.85 66.9 54.4 67 54.6 66.55 54.9 66.35 55.35 66.1 56.55 65.15 57.75 65.15 57.95 66.7 59.35 Q 67.85 60.45 68.65 61.85 L 68.95 61.85 Q 70.9 62 73.05 59.8 L 74.3 58.2 Q 74.9 57 74.7 54.5 M 28.3 81.6 L 27.9 84.65 27.85 87.1 28.25 88.65 Q 28.65 90.2 29.55 91.25 30.35 92.1 32.35 93.2 L 33.95 94 36.95 94.35 39.3 94.15 40.7 93.65 42.6 92.55 Q 45.75 90.3 46.45 85.55 L 46.5 84.9 Q 45.75 82.7 44.9 81.55 44.35 80.75 43.8 80.6 L 43.05 80.5 42.25 80.55 38.4 80.15 Q 33.6 79.3 28.6 80.2 L 29.2 81 28.3 81.6 Z"/></g></defs><g><g transform="translate(62.65)"><use xlink:href="#Symbol_1549_0_Layer9_0_FILL"/></g></g><g><g><g transform="translate(266.6 11.1)"><use xlink:href="#Symbol_1551_0_Layer0_0_FILL"/></g></g><g><g transform="translate(273.9 28.45)"><use xlink:href="#Symbol_1553_0_Layer0_0_FILL"/></g></g><g><g transform="translate(301.4 9.25)"><use xlink:href="#Symbol_1555_0_Layer0_0_FILL"/></g></g></g><g><g><g transform="translate(318.65 133.15)"><use xlink:href="#Symbol_1562_0_Layer0_0_FILL"/></g></g><g><g transform="translate(287.55 125.55)"><use xlink:href="#Symbol_1564_0_Layer0_0_FILL"/></g></g><g><g transform="translate(327.15 105.15)"><use xlink:href="#Symbol_1566_0_Layer0_0_FILL"/></g></g></g><g><g><g transform="matrix(.99326 -.08388 .20354 .98955 26.65 134.75)"><use xlink:href="#Symbol_1582_0_Layer0_0_FILL"/></g></g></g><g><g><g transform="rotate(-10.241 277.884 -678.417) scale(.99997)"><use xlink:href="#Symbol_1593_0_Layer0_0_FILL"/></g></g></g><g><g><g transform="matrix(-1 0 0 1 260.45 90.8)"><use xlink:href="#Symbol_1603_0_Layer0_0_FILL"/></g></g><g><g transform="matrix(.99988 .02441 .03452 1.00092 101 91.85)"><use xlink:href="#Symbol_1605_0_Layer0_0_FILL"/></g></g><g><g transform="matrix(1.00066 .04712 -.00008 .99927 131.95 91.45)"><use xlink:href="#Symbol_1607_0_Layer0_0_FILL"/></g></g></g></svg>